<?xml version="1.0" standalone="no"?>
<!DOCTYPE svg PUBLIC "-//W3C//DTD SVG 1.1//EN" "http://www.w3.org/Graphics/SVG/1.1/DTD/svg11.dtd">
<svg xmlns="http://www.w3.org/2000/svg">
<defs >
<font id="Figtree" horiz-adv-x="528" ><font-face
    font-family="Figtree Light Black"
    units-per-em="1000"
    panose-1="0 0 0 0 0 0 0 0 0 0"
    ascent="950"
    descent="-250"
    alphabetic="0" />
<glyph unicode=" " horiz-adv-x="230" />
<glyph unicode="!" horiz-adv-x="326" d="M78 251L63 700H263L248 251H78ZM163 -16Q121 -16 91 14T60 87Q60 129 90 159T163 190Q205 190 235 160T266 87Q266 45 236 15T163 -16Z" />
<glyph unicode="&quot;" horiz-adv-x="497" d="M80 440L60 716H227L207 440H80ZM290 440L270 716H437L417 440H290Z" />
<glyph unicode="#" horiz-adv-x="633" d="M303 0L413 700H540L430 0H303ZM10 169L28 295H590L572 169H10ZM98 0L208 700H335L225 0H98ZM38 373L61 500H623L600 373H38Z" />
<glyph unicode="$" horiz-adv-x="546" d="M277 24Q218 24 164 45T74 101T30 177L196 223Q204 201 223 185T275 167Q300 166 319 180T339 219Q339 234 328 248T292 268L197 292Q148 305 114 331T61 395T43 480Q43 572 104 624T277 676Q336 676 381 661T460 613T515
526L350 479Q346 496 328 514T277 533Q247 533 231 520T214 480Q214 464 227 452T266 433L361 408Q433 389 473 338T514 218Q514 156 486 113T404 47T277 24ZM208 -103V780H352V-103H208Z" />
<glyph unicode="%" horiz-adv-x="838" d="M83 0L580 700H748L248 0H83ZM634 -15Q585 -15 547 8T487 72T465 165Q465 218 486 258T546 322T635 345Q684 345 722 322T781 259T803 165Q803 113 782 72T722 8T634 -15ZM634 103Q660 103 676 121T692 165Q692 191 676
209T634 227Q608 227 592 209T576 165Q576 139 592 121T634 103ZM204 356Q155 356 117 379T57 443T35 536Q35 589 56 629T116 693T205 716Q254 716 292 693T351 630T373 536Q373 484 352 443T292 379T204 356ZM204 474Q230 474 246 492T262 536Q262 562 246 580T204
598Q178 598 162 580T146 536Q146 510 162 492T204 474Z" />
<glyph unicode="&amp;" horiz-adv-x="651" d="M249 -12Q185 -12 136 12T58 80T30 179Q30 210 41 239T74 295T125 342L294 458Q301 463 314 472T340 498T352 535Q352 555 336 565T297 575Q272 575 257 565T241 535Q241 513 255 497T284 461L426 290L667 0H465L307
188L149 380Q117 421 100 448T77 497T71 537Q71 588 100 627T178 689T287 712Q354 712 405 689T486 625T515 530Q515 488 494 453T429 379T313 292L244 244Q234 237 228 227T218 206T214 184Q214 163 227 150T263 136Q296 136 333 145T402 173T455 223T475 297H637Q637
207 588 137T451 28T249 -12Z" />
<glyph unicode="&apos;" horiz-adv-x="287" d="M80 440L60 716H227L207 440H80Z" />
<glyph unicode="(" horiz-adv-x="410" d="M206 -100Q160 -39 122 32T62 184T40 350Q40 437 62 516T122 667T206 800H380Q334 736 296 663T236 512T214 350Q214 268 236 189T296 38T380 -100H206Z" />
<glyph unicode=")" horiz-adv-x="410" d="M204 -100H30Q77 -35 114 37T174 189T196 350Q196 433 174 511T115 663T30 800H204Q251 739 288 668T348 517T370 350Q370 264 348 184T289 33T204 -100Z" />
<glyph unicode="*" horiz-adv-x="494" d="M315 324L215 496L279 543L412 395L315 324ZM180 323L83 393L215 542L280 495L180 323ZM235 480L40 522L77 636L259 556L235 480ZM207 518L187 716H307L287 518H207ZM259 480L235 556L417 636L454 522L259 480Z" />
<glyph unicode="+" horiz-adv-x="550" d="M205 63V533H345V63H205ZM40 228V368H510V228H40Z" />
<glyph unicode="," horiz-adv-x="286" d="M18 -113L84 146H264L148 -113H18Z" />
<glyph unicode="-" horiz-adv-x="400" d="M50 223V373H350V223H50Z" />
<glyph unicode="." horiz-adv-x="286" d="M143 -15Q101 -15 71 15T40 88Q40 130 70 160T143 191Q185 191 215 161T246 88Q246 46 216 16T143 -15Z" />
<glyph unicode="/" horiz-adv-x="472" d="M15 -84L291 747H457L183 -84H15Z" />
<glyph unicode="0" horiz-adv-x="655" d="M327 -12Q239 -12 171 34T64 162T25 350Q25 456 63 537T169 665T325 712Q415 712 483 666T591 538T630 350Q630 244 591 163T484 35T327 -12ZM327 156Q363 156 390 181T434 249T450 350Q450 408 434 452T390 521T325 546Q290
546 263 521T221 452T205 350Q205 293 220 250T264 181T327 156Z" />
<glyph unicode="1" horiz-adv-x="430" d="M175 0V601L194 700H350V0H175ZM35 441V609Q64 606 92 620T147 657T194 702L312 591Q273 546 230 510T138 454T35 441Z" />
<glyph unicode="2" horiz-adv-x="597" d="M225 11L45 130Q45 156 67 192T127 267T214 337L284 382Q302 394 322 409T356 444T370 482Q370 500 362 514T336 535T289 543Q269 543 253 534T227 510T211 477L20 508Q29 562 63 609T155 684T289 713Q374 713 434 684T527
604T560 484Q560 409 519 358T412 264L355 227Q327 209 297 181T246 112T225 11ZM45 0V130L182 162H567V0H45Z" />
<glyph unicode="3" horiz-adv-x="567" d="M292 -12Q221 -12 163 9T67 74T20 181L198 217Q202 206 209 189T233 160T280 147Q314 147 332 164T351 212Q351 227 345 242T318 268T250 278H188V395H243Q300 395 352 380T446 337T512 271T537 186Q537 122 502 78T410
11T292 -12ZM188 320V427H250Q306 427 324 445T342 494Q342 512 334 525T312 545T280 553Q267 553 251 548T221 527T202 481L25 517Q34 582 73 625T169 690T284 712Q352 712 407 688T494 619T527 514Q527 463 502 427T435 366T343 331T243 320H188Z" />
<glyph unicode="4" horiz-adv-x="645" d="M142 191L10 257L312 700L418 597L142 191ZM10 108V257L108 265H615V108H10ZM338 0V605L313 700H512V0H338Z" />
<glyph unicode="5" horiz-adv-x="587" d="M296 -12Q241 -12 185 7T87 64T30 153L209 189Q217 168 238 158T283 148Q319 148 341 169T364 228Q364 260 342 284T282 308Q257 308 240 296T215 269L49 305L99 700H515V532H131L99 694H282L212 283L131 305Q137 320
154 343T200 391T270 430T365 444Q416 443 460 417T530 345T557 239Q557 165 524 108T432 20T296 -12Z" />
<glyph unicode="6" horiz-adv-x="593" d="M299 -12Q230 -12 180 12T96 79T47 179T30 305Q30 377 45 449T94 580T186 676T332 712Q391 712 444 696T541 650L454 514Q423 534 389 542T330 551Q275 551 239 499T203 327L166 346Q189 396 232 426T337 457Q403 457
454 424T534 336T563 214Q563 150 531 99T440 18T299 -12ZM300 142Q322 142 340 153T368 182T379 224Q379 248 369 267T340 298T300 310Q278 310 260 299T230 268T219 224Q219 201 230 183T259 153T300 142Z" />
<glyph unicode="7" horiz-adv-x="573" d="M104 0L337 530L543 570L309 0H104ZM25 530V700H543V570L337 530H25Z" />
<glyph unicode="8" horiz-adv-x="610" d="M304 -12Q212 -12 151 12T60 80T30 182Q30 246 60 294T151 369T304 396Q397 397 458 370T549 294T580 182Q580 124 550 81T458 13T304 -12ZM304 140Q342 140 366 159T390 209Q390 245 366 267T304 290Q280 290 261 280T231
252T220 209Q220 189 231 174T261 149T304 140ZM304 337Q221 337 165 360T79 425T50 522Q50 578 79 621T164 688T304 712Q387 712 444 688T530 621T560 522Q560 467 531 426T444 361T304 337ZM304 427Q337 427 358 447T380 499Q380 529 359 548T304 567Q271 567
251 548T230 499Q230 468 250 448T304 427Z" />
<glyph unicode="9" horiz-adv-x="593" d="M294 711Q363 711 413 687T497 620T546 520T563 394Q563 322 548 250T499 119T407 23T261 -13Q203 -13 150 3T52 49L139 185Q170 165 204 157T263 148Q318 148 354 200T390 372L427 353Q404 304 361 273T256 242Q190 242
139 275T59 363T30 485Q30 550 62 601T153 681T294 711ZM293 557Q271 557 253 546T225 517T214 475Q214 452 224 432T253 401T293 389Q316 389 334 400T363 432T374 475Q374 498 363 516T334 546T293 557Z" />
<glyph unicode=":" horiz-adv-x="346" d="M173 294Q131 294 101 324T70 397Q70 439 100 469T173 500Q215 500 245 470T276 397Q276 355 246 325T173 294ZM173 -1Q131 -1 101 29T70 102Q70 144 100 174T173 205Q215 205 245 175T276 102Q276 60 246 30T173 -1Z" />
<glyph unicode=";" horiz-adv-x="347" d="M174 290Q132 290 102 320T71 393Q71 435 101 465T174 496Q216 496 246 466T277 393Q277 351 247 321T174 290ZM28 -113L94 146H274L158 -113H28Z" />
<glyph unicode="&lt;" horiz-adv-x="521" d="M451 536V379L50 232V367L451 536ZM50 362L451 217V60L50 227V362Z" />
<glyph unicode="=" horiz-adv-x="560" d="M80 328V467H480V328H80ZM80 128V267H480V128H80Z" />
<glyph unicode="&gt;" horiz-adv-x="521" d="M70 60V217L471 364V229L70 60ZM471 234L70 379V536L471 369V234Z" />
<glyph unicode="?" horiz-adv-x="522" d="M149 284L144 387L237 396Q277 401 302 419T327 478Q327 510 304 531T244 552Q219 552 202 539T176 505L15 548Q35 624 95 668T244 712Q318 712 375 682T464 600T497 478Q497 419 468 375T385 308T263 284H149ZM235 -15Q193
-15 163 15T132 88Q132 130 162 160T235 191Q277 191 307 161T338 88Q338 46 308 16T235 -15ZM151 213L146 342H324L319 213H151Z" />
<glyph unicode="@" horiz-adv-x="994" d="M517 -208Q409 -208 319 -174T163 -79T61 67T25 252Q25 354 61 438T163 585T319 681T517 715Q616 715 699 681T842 585T936 439T969 252H849Q849 327 825 390T756 499T651 570T517 595Q435 595 367 570T249 499T172 390T145
252Q145 177 172 115T249 8T367 -63T517 -88Q549 -88 583 -77T640 -49L711 -146Q669 -173 615 -190T517 -208ZM450 14Q393 14 349 44T281 129T256 252Q256 322 280 375T349 458T450 489Q513 489 561 459T636 375T664 252Q664 183 637 129T561 45T450 14ZM511 158Q534
158 551 170T579 203T589 252Q589 280 578 300T547 333T502 345Q478 345 460 334T431 301T420 253Q420 225 432 204T464 170T511 158ZM751 -15Q708 -15 672 2T614 50T592 120L722 130Q722 105 734 98T765 91Q790 91 808 111T838 168T849 252H969Q969 174 941 114T864
20T751 -15ZM592 120L582 479H722V130L592 120Z" />
<glyph unicode="A" horiz-adv-x="749" d="M546 0L290 700H474L742 0H546ZM7 0L275 700H459L203 0H7ZM133 112V275H617V112H133Z" />
<glyph unicode="B" horiz-adv-x="614" d="M109 0V163H325Q358 163 377 181T397 227Q397 255 378 272T325 288H109V426L230 421Q335 421 416 402T543 336T589 208Q589 141 558 95T473 24T347 0H109ZM60 0V700H240V0H60ZM101 276V435H299Q331 435 351 451T371 496Q371
525 351 541T299 557H101V698L312 701Q385 701 441 679T529 610T561 493Q561 442 519 397T401 323T229 294L101 276Z" />
<glyph unicode="C" horiz-adv-x="729" d="M383 -12Q278 -12 198 34T71 162T25 350Q25 456 71 537T197 665T383 712Q464 712 529 684T641 606T713 490L537 434Q523 467 501 491T450 529T383 542Q334 542 296 518T237 450T215 350Q215 294 237 251T297 183T386 158Q425
158 453 171T502 209T538 267L714 211Q690 145 643 95T530 16T383 -12Z" />
<glyph unicode="D" horiz-adv-x="711" d="M294 0V175Q338 175 375 188T439 224T481 279T496 350Q496 389 481 421T439 476T375 512T294 525V700Q409 700 497 655T636 532T686 350Q686 248 636 169T498 45T294 0ZM149 0V175H294V0H149ZM60 0V700H245V0H60ZM149
525V700H294V525H149Z" />
<glyph unicode="E" horiz-adv-x="586" d="M60 0V700H245V0H60ZM190 0V170H536V0H190ZM190 268V433H475V268H190ZM190 530V700H529V530H190Z" />
<glyph unicode="F" horiz-adv-x="564" d="M60 0V700H245V0H60ZM200 258V428H475V258H200ZM200 530V700H539V530H200Z" />
<glyph unicode="G" horiz-adv-x="727" d="M393 -12Q285 -12 202 34T72 162T25 350Q25 456 72 537T202 665T393 712Q464 712 518 692T613 638T681 558L527 467Q513 489 492 506T445 532T393 542Q341 542 301 518T238 450T215 350Q215 294 237 250T300 181T398 156Q438
156 469 170T518 211T536 273L712 306Q712 200 671 129T559 23T393 -12ZM380 252V392H712V289L607 252H380Z" />
<glyph unicode="H" horiz-adv-x="748" d="M503 0V700H688V0H503ZM60 0V701L245 700V-1L60 0ZM187 271V441H611V271H187Z" />
<glyph unicode="I" horiz-adv-x="305" d="M60 0V700H245V0H60Z" />
<glyph unicode="J" horiz-adv-x="587" d="M263 -16Q198 -16 150 6T71 62T25 134T10 201L179 253Q183 204 205 179T265 154Q291 154 310 165T341 198T352 255V700H537V209Q537 160 519 119T465 47T378 1T263 -16Z" />
<glyph unicode="K" horiz-adv-x="718" d="M164 119V378L456 700H699L164 119ZM60 0V700H245V0H60ZM478 0L207 356L346 464L708 0H478Z" />
<glyph unicode="L" horiz-adv-x="553" d="M60 0V700H245V0H60ZM164 0V170H533V0H164Z" />
<glyph unicode="M" horiz-adv-x="868" d="M435 140L60 680L151 700H265L529 309L435 140ZM60 0V700H245V0H60ZM435 140L339 309L603 700H719L808 683L435 140ZM623 0V700H808V0H623Z" />
<glyph unicode="N" horiz-adv-x="773" d="M528 0L103 599L255 700L677 105L528 0ZM60 0V700H255L245 529V-1L60 0ZM528 0V700H713V0H528Z" />
<glyph unicode="O" horiz-adv-x="797" d="M400 -12Q290 -12 206 34T73 162T25 349Q25 455 73 536T205 664T398 711Q508 711 592 665T724 537T772 349Q772 244 725 163T593 35T400 -12ZM400 158Q454 158 495 182T559 250T582 349Q582 405 559 448T494 516T398 541Q345
541 304 517T239 449T215 349Q215 293 239 250T304 183T400 158Z" />
<glyph unicode="P" horiz-adv-x="625" d="M219 210V380H345Q383 380 406 401T430 456Q430 478 419 495T389 521T345 531H219V700L350 701Q429 702 490 671T585 584T620 456Q620 384 586 329T490 242T350 210H219ZM60 0V700H245V0H60Z" />
<glyph unicode="Q" horiz-adv-x="797" d="M400 -12Q290 -12 206 34T73 162T25 349Q25 429 52 495T130 610T248 685T398 712Q508 712 592 666T724 537T772 349Q772 244 725 163T593 35T400 -12ZM641 -44L376 226L493 337L756 68L641 -44ZM400 158Q454 158 495 182T559
250T582 349Q582 406 559 449T494 517T398 542Q345 542 304 518T239 450T215 349Q215 293 239 250T304 183T400 158Z" />
<glyph unicode="R" horiz-adv-x="663" d="M219 222V392H340Q365 392 384 401T414 426T425 462Q425 492 402 511T340 531H219V700L350 701Q429 702 490 671T585 586T620 462Q620 392 586 338T490 253T350 222H219ZM60 0V700H245V0H60ZM436 0L280 275L419 379L648 0H436Z" />
<glyph unicode="S" horiz-adv-x="600" d="M305 -12Q256 -12 209 1T124 39T60 93T30 158L214 209Q223 184 245 167T302 147Q330 146 351 162T373 204Q373 221 361 236T321 259L216 286Q162 300 124 329T65 400T44 494Q44 597 112 654T305 712Q371 712 421 695T508
642T569 546L386 493Q381 513 361 533T305 553Q271 553 253 538T234 494Q234 476 249 463T292 442L398 415Q478 395 523 337T568 203Q568 134 537 86T446 13T305 -12Z" />
<glyph unicode="T" horiz-adv-x="614" d="M215 0V642H400V0H215ZM17 530V700H597V530H17Z" />
<glyph unicode="U" horiz-adv-x="700" d="M348 -12Q255 -12 188 22T86 119T50 271H235Q235 236 249 211T288 173T350 160Q386 160 412 173T451 211T465 271H650Q650 183 614 120T511 22T348 -12ZM50 271V700H235V271H50ZM465 271V700H650V271H465Z" />
<glyph unicode="V" horiz-adv-x="750" d="M297 0L543 700H743L476 0H297ZM276 0L7 700H207L455 0H276Z" />
<glyph unicode="W" horiz-adv-x="1008" d="M625 0L812 700H1001L800 0H625ZM208 0L7 700H196L383 0H208ZM235 0L412 700H576L400 0H235ZM608 0L432 700H596L783 0H608Z" />
<glyph unicode="X" horiz-adv-x="739" d="M10 0L282 382L500 700H721L457 340L233 0H10ZM506 0L283 340L18 700H239L458 383L729 0H506Z" />
<glyph unicode="Y" horiz-adv-x="686" d="M429 287L248 318L471 700H681L429 287ZM251 0V336H436V0H251ZM257 287L5 700H215L438 318L257 287Z" />
<glyph unicode="Z" horiz-adv-x="624" d="M272 175H30L352 525H594L272 175ZM30 0V175H591V0H30ZM33 525V700H594V525H33Z" />
<glyph unicode="[" horiz-adv-x="362" d="M60 -100V800H322V640H210V60H322V-100H60Z" />
<glyph unicode="\" horiz-adv-x="472" d="M457 -84H289L15 747H181L457 -84Z" />
<glyph unicode="]" horiz-adv-x="362" d="M302 -100H40V60H152V640H40V800H302V-100Z" />
<glyph unicode="^" horiz-adv-x="609" d="M387 373L225 700H382L539 373H387ZM70 373L225 700H381L223 373H70Z" />
<glyph unicode="_" horiz-adv-x="430" d="M15 -150V0H415V-150H15Z" />
<glyph unicode="`" horiz-adv-x="302" d="M388 554L256 701H446L558 554H388Z" />
<glyph unicode="a" horiz-adv-x="546" d="M337 0L332 245Q332 280 328 308T306 352T248 368Q226 368 211 359T180 328L21 378Q45 419 77 449T153 495T252 512Q332 512 389 483T476 402T506 281V0H337ZM204 -12Q117 -12 69 27T20 141Q20 219 68 256T204 294H351V191H273Q238
191 219 179T200 145Q200 130 212 122T247 114Q272 114 289 124T317 152T327 195L379 214Q379 105 333 47T204 -12Z" />
<glyph unicode="b" horiz-adv-x="605" d="M45 0V700H225V93L216 0H45ZM359 -12Q297 -12 257 19T197 109T177 250Q177 333 196 391T256 481T359 512Q430 512 480 481T558 392T585 250Q585 168 558 109T481 19T359 -12ZM311 154Q336 154 355 166T385 200T397 250Q397
278 386 299T356 333T312 345Q287 345 267 333T236 300T225 250Q225 222 236 201T266 167T311 154Z" />
<glyph unicode="c" horiz-adv-x="550" d="M302 -12Q220 -12 156 21T56 114T20 250Q20 327 56 386T155 478T300 512Q379 512 445 471T539 352L367 296Q359 316 338 329T290 342Q265 342 246 331T216 298T205 250Q205 223 216 203T247 170T292 158Q317 158 338 171T368
204L540 149Q512 71 447 30T302 -12Z" />
<glyph unicode="d" horiz-adv-x="604" d="M388 0L379 93V700H559V0H388ZM246 -12Q175 -12 125 19T47 109T20 250Q20 333 47 391T124 481T246 512Q308 512 348 481T408 392T428 250Q428 168 409 109T349 19T246 -12ZM294 154Q319 154 338 166T369 200T380 250Q380
278 369 299T339 333T293 345Q269 345 250 333T220 300T208 250Q209 222 220 201T250 167T294 154Z" />
<glyph unicode="e" horiz-adv-x="566" d="M298 -12Q217 -12 154 21T56 113T20 250Q20 328 55 387T152 479T295 512Q372 512 430 479T522 377T556 205H379Q379 258 373 299T347 363T288 387Q257 387 238 370T211 320T203 241Q203 197 215 172T248 136T293 125Q326
125 350 140T381 179L539 130Q521 78 482 47T394 2T298 -12ZM134 205L135 315H473V205H134Z" />
<glyph unicode="f" horiz-adv-x="415" d="M95 0V543Q95 626 140 675T278 724Q316 724 355 712T420 683L353 558Q344 566 334 569T313 572Q293 572 284 558T275 507V0H95ZM20 360V500H378V360H20Z" />
<glyph unicode="g" horiz-adv-x="609" d="M292 -214Q227 -214 180 -207T99 -187T42 -154L113 -11Q129 -19 150 -29T204 -48T283 -56Q314 -56 338 -44T375 -8T389 52V500H569V60Q569 -23 538 -85T445 -180T292 -214ZM246 24Q175 24 125 51T47 130T20 254Q20 335
47 392T124 481T246 512Q303 512 344 481T406 392T428 250Q428 179 407 129T344 51T246 24ZM301 173Q326 173 343 184T370 216T380 261Q380 288 370 308T343 339T300 350Q276 350 258 339T230 308T219 261Q220 236 230 216T258 185T301 173Z" />
<glyph unicode="h" horiz-adv-x="580" d="M47 0L45 700H225L227 0H47ZM360 0V256L540 286V0H360ZM360 256Q360 285 354 303T335 332T303 343Q265 345 246 326T227 266H178Q178 345 202 400T267 483T360 512Q452 512 496 457T540 286L360 256Z" />
<glyph unicode="i" horiz-adv-x="290" d="M55 0V500H235V0H55ZM145 548Q105 548 75 578T45 648Q45 689 75 718T145 748Q186 748 215 719T245 648Q245 608 216 578T145 548Z" />
<glyph unicode="j" horiz-adv-x="311" d="M163 542Q121 542 91 572T60 645Q60 687 90 717T163 748Q205 748 235 718T266 645Q266 603 236 573T163 542ZM52 -215Q-22 -215 -70 -180L4 -31Q13 -38 23 -42T44 -47Q73 -47 73 -7V500H253V-21Q253 -112 200 -163T52 -215Z" />
<glyph unicode="k" horiz-adv-x="586" d="M215 95L110 220L356 500H566L215 95ZM45 0V700H225V0H45ZM369 0L225 200L343 323L576 0H369Z" />
<glyph unicode="l" horiz-adv-x="270" d="M45 0V700H225V0H45Z" />
<glyph unicode="m" horiz-adv-x="891" d="M45 0V500H215L225 408V0H45ZM358 0V256L538 286V0H358ZM671 0V256L851 286V0H671ZM358 256Q358 285 352 303T333 332T301 343Q263 345 244 326T225 266H176Q176 345 200 400T265 483T358 512Q450 512 494 457T538 286L358
256ZM671 256Q671 285 665 303T646 332T614 343Q576 345 557 326T538 266H489Q489 345 513 400T578 483T671 512Q763 512 807 457T851 286L671 256Z" />
<glyph unicode="n" horiz-adv-x="578" d="M45 0V500H215L225 408V0H45ZM358 0V256L538 286V0H358ZM358 256Q358 285 352 303T333 332T301 343Q263 345 244 326T225 266H176Q176 345 200 400T265 483T358 512Q450 512 494 457T538 286L358 256Z" />
<glyph unicode="o" horiz-adv-x="583" d="M293 -12Q213 -12 152 21T55 114T20 250Q20 327 54 386T150 478T291 512Q371 512 432 479T528 386T563 250Q563 173 529 114T433 22T293 -12ZM293 154Q318 154 337 166T367 200T378 250Q378 278 367 299T337 333T291 346Q266
346 247 334T216 300T205 250Q205 222 216 201T247 167T293 154Z" />
<glyph unicode="p" horiz-adv-x="610" d="M50 -200V500H220L230 408V-200H50ZM364 -12Q302 -12 262 19T202 109T182 250Q182 333 201 391T261 481T364 512Q435 512 485 481T563 392T590 250Q590 168 563 109T486 19T364 -12ZM316 154Q341 154 360 166T390 200T402
250Q402 278 391 299T361 333T317 345Q292 345 272 333T241 300T230 250Q230 222 241 201T271 167T316 154Z" />
<glyph unicode="q" horiz-adv-x="605" d="M380 -200V407L390 500H560V-200H380ZM246 -12Q175 -12 125 19T47 109T20 250Q20 333 47 391T124 481T246 512Q308 512 348 481T408 392T428 250Q428 168 409 109T349 19T246 -12ZM294 154Q319 154 338 166T369 200T380
250Q380 278 369 299T339 333T293 345Q269 345 250 333T220 300T208 250Q209 222 220 201T250 167T294 154Z" />
<glyph unicode="r" horiz-adv-x="417" d="M183 255Q183 336 215 391T298 474T402 502V326Q355 326 315 318T250 292T225 251L183 255ZM45 0V500H225V0H45Z" />
<glyph unicode="s" horiz-adv-x="487" d="M234 -12Q184 -12 141 2T68 41T25 103L168 159Q179 132 199 125T234 117Q250 117 260 124T270 144Q270 158 256 167T213 184L172 194Q105 211 71 253T37 351Q37 428 93 470T247 512Q306 512 346 498T413 457T453 397L314
344Q307 364 291 373T250 382Q233 382 224 374T214 355Q214 343 228 335T273 318L314 308Q360 297 394 275T447 219T466 143Q466 94 437 60T356 7T234 -12Z" />
<glyph unicode="t" horiz-adv-x="425" d="M278 -12Q185 -12 140 32T95 158V656H275V207Q275 179 283 167T310 155Q318 155 330 160T349 170L410 40Q387 20 350 4T278 -12ZM20 350V500H378V350H20Z" />
<glyph unicode="u" horiz-adv-x="578" d="M363 0L353 92V500H533V0H363ZM40 214V500H220V244L40 214ZM220 244Q220 216 226 197T245 168T277 157Q315 156 334 175T353 234H402Q402 155 378 100T313 17T220 -12Q129 -12 85 43T40 214L220 244Z" />
<glyph unicode="v" horiz-adv-x="590" d="M223 0L399 500H585L384 0H223ZM206 0L5 500H191L367 0H206Z" />
<glyph unicode="w" horiz-adv-x="883" d="M527 0L689 500H873L702 0H527ZM201 0L353 500H504L356 0H201ZM180 0L10 500H194L345 0H180ZM526 0L379 500H530L681 0H526Z" />
<glyph unicode="x" horiz-adv-x="592" d="M10 0L216 284L358 500H570L363 213L224 0H10ZM369 0L232 213L23 500H235L377 284L582 0H369Z" />
<glyph unicode="y" horiz-adv-x="622" d="M196 -212Q161 -212 122 -199T60 -170L127 -25Q138 -34 150 -39T174 -45Q190 -45 204 -37T227 -10L287 130L422 500H622L407 -18Q384 -74 359 -118T297 -187T196 -212ZM240 0L0 500H200L349 130L410 0H240Z" />
<glyph unicode="z" horiz-adv-x="464" d="M128 14L20 125L341 490L444 375L128 14ZM20 0V125L123 144H444V0H20ZM20 355V500H444V375L336 355H20Z" />
<glyph unicode="{" horiz-adv-x="402" d="M50 339V415Q86 415 105 423T132 452T140 512Q140 598 149 654T182 742T247 787T352 800V662Q327 662 314 649T295 604T290 513Q290 444 270 406T198 354T50 339ZM352 -100Q288 -100 247 -87T183 -42T150 46T140 188Q140
227 133 248T106 277T50 285V361Q147 361 199 347T271 295T291 187Q291 128 296 96T314 52T352 38V-100Z" />
<glyph unicode="|" horiz-adv-x="255" d="M60 -220V790H195V-220H60Z" />
<glyph unicode="}" horiz-adv-x="402" d="M352 339Q256 339 204 353T132 406T112 513Q112 572 107 604T89 649T50 662V800Q114 800 155 787T219 742T252 654T262 512Q262 473 269 452T296 423T352 415V339ZM50 -100V38Q75 39 88 51T106 96T111 187Q111 257 131
294T203 346T352 361V285Q316 285 297 277T270 248T262 188Q262 102 253 46T220 -42T155 -87T50 -100Z" />
<glyph unicode="~" horiz-adv-x="759" d="M510 145Q464 145 428 160T367 200T326 250Q313 271 298 292T253 313Q223 313 209 294T190 245H50Q50 317 76 371T148 457T249 488Q317 488 365 467T442 383Q452 361 469 341T509 320Q534 320 550 337T569 388H709Q709
317 683 262T611 176T510 145Z" />
<glyph unicode="&#xa0;" horiz-adv-x="230" />
<glyph unicode="&#xa1;" horiz-adv-x="306" d="M248 245L263 -204H63L78 245H248ZM163 512Q205 512 235 482T266 409Q266 367 236 337T163 306Q121 306 91 336T60 409Q60 451 90 481T163 512Z" />
<glyph unicode="&#xa2;" horiz-adv-x="545" d="M248 0V700H331V0H248ZM302 98Q220 98 156 131T56 224T20 360Q20 437 56 496T155 588T300 622Q379 622 445 581T539 462L367 406Q359 426 338 439T290 452Q265 452 246 441T216 408T205 360Q205 333 216 313T247
280T292 268Q317 268 338 281T368 314L540 259Q512 181 447 140T302 98Z" />
<glyph unicode="&#xa3;" horiz-adv-x="613" d="M105 235V476Q105 557 135 609T220 687T348 712Q417 712 470 689T553 617T583 493L403 504Q403 533 386 546T346 560Q318 560 302 539T285 476V245L105 235ZM54 93V175Q75 175 90 192T105 235L285 245Q285 204 254
169T170 114T54 93ZM40 0V175H583V0H40ZM40 272V412H493V272H40Z" />
<glyph unicode="&#xa4;" horiz-adv-x="638" d="M321 131Q254 131 203 159T122 236T93 350Q93 414 122 463T202 541T319 569Q386 569 437 541T517 464T546 350Q546 286 518 237T438 159T321 131ZM158 91L61 188L205 333L305 238L158 91ZM320 281Q349 281 367 300T386
350Q386 380 367 399T319 419Q291 419 272 400T253 350Q253 320 272 301T320 281ZM217 359L60 512L157 609L316 454L217 359ZM481 91L332 238L431 333L578 188L481 91ZM424 368L324 463L481 609L578 512L424 368Z" />
<glyph unicode="&#xa5;" horiz-adv-x="646" d="M409 287L238 318L431 700H641L409 287ZM231 0V336H416V0H231ZM85 164V256H560V164H85ZM85 284V376H560V284H85ZM237 287L5 700H215L408 318L237 287Z" />
<glyph unicode="&#xa6;" horiz-adv-x="335" d="M100 350V790H235V350H100ZM100 -220V220H235V-220H100Z" />
<glyph unicode="&#xa7;" horiz-adv-x="482" d="M244 -91Q191 -91 144 -73T67 -25T30 39L157 78Q165 54 187 38T240 21Q270 20 291 34T312 75Q312 94 298 107T256 128L177 149Q116 166 79 206T42 308Q42 387 96 431T245 476Q296 476 334 462T400 420T444 349L321
310Q315 331 296 347T244 364Q211 364 193 350T175 308Q175 290 189 279T229 261L310 239Q374 222 410 177T447 75Q447 -3 394 -47T244 -91ZM247 145Q198 145 155 164T83 213T49 280L160 313Q165 298 181 285T216 265T244 257Q273 257 294 271T315 310Q315 330
301 343T259 364L180 385Q119 402 82 442T45 544Q45 623 99 667T248 712Q300 712 339 698T406 656T451 586L324 546Q318 567 299 583T247 600Q214 600 196 586T178 544Q178 526 193 514T233 495L313 475Q377 459 413 414T450 310Q450 233 397 189T247 145Z" />
<glyph unicode="&#xa8;" horiz-adv-x="526" d="M654 569Q619 569 593 595T566 657Q566 692 592 718T654 745Q689 745 715 719T742 657Q742 622 716 596T654 569ZM384 569Q348 569 322 595T296 657Q296 693 322 719T384 745Q420 745 446 719T472 657Q472 621 446
595T384 569Z" />
<glyph unicode="&#xa9;" horiz-adv-x="773" d="M387 -11Q308 -11 242 15T127 90T52 205T25 350Q25 430 51 496T126 610T241 685T387 712Q466 712 532 686T646 611T721 496T748 350Q748 271 722 205T647 91T532 16T387 -11ZM388 152Q330 152 288 175T224 243T202
350Q202 412 224 456T287 524T387 548Q435 548 477 523T545 453L557 428L458 391L446 408Q433 422 417 430T387 438Q353 438 335 415T316 350Q316 309 335 286T388 262Q404 262 420 273T452 304L458 314L560 278L551 261Q526 209 483 181T388 152ZM387 99Q460 99
515 131T602 220T634 350Q634 424 603 481T516 570T387 602Q315 602 259 570T171 481T139 350Q139 277 171 220T259 131T387 99Z" />
<glyph unicode="&#xaa;" horiz-adv-x="343" d="M201 400L199 545Q199 563 198 578T187 603T154 612Q144 612 137 608T120 592L14 624Q36 662 70 684T157 707Q231 707 273 669T315 570V400H201ZM124 393Q72 393 43 416T14 485Q14 532 43 554T124 576H208V510H172Q134
510 134 487Q134 482 139 479T155 476Q173 476 184 486T195 515L226 528Q226 463 199 428T124 393Z" />
<glyph unicode="&#xab;" horiz-adv-x="706" d="M318 298L460 500H661L528 298H318ZM460 96L318 298H528L661 96H460ZM45 298L187 500H388L255 298H45ZM187 96L45 298H255L388 96H187Z" />
<glyph unicode="&#xac;" horiz-adv-x="460" d="M40 265V409H410V265H40ZM266 135V409H410V135H266Z" />
<glyph unicode="&#xad;" horiz-adv-x="400" d="M50 223V373H350V223H50Z" />
<glyph unicode="&#xae;" horiz-adv-x="608" d="M304 144Q245 144 194 166T103 227T42 317T20 428Q20 487 42 538T103 629T193 690T304 712Q363 712 414 690T505 629T566 539T588 428Q588 369 566 318T505 227T415 166T304 144ZM304 220Q366 220 412 246T484 319T510
428Q510 491 485 537T413 610T304 636Q242 636 196 610T124 538T98 428Q98 366 123 319T195 246T304 220ZM195 292V583L316 584Q366 584 397 556T428 484Q428 456 414 433T376 398L440 292H352L299 384H272V292H195ZM272 455H312Q327 455 337 463T347 484Q347 497
337 505T312 513H272V455Z" />
<glyph unicode="&#xaf;" horiz-adv-x="300" d="M-20 549V700H320V549H-20Z" />
<glyph unicode="&#xb0;" horiz-adv-x="387" d="M193 403Q149 403 112 424T53 481T30 561Q30 605 52 640T112 695T194 716Q237 716 274 696T334 640T357 561Q357 517 335 481T275 424T193 403ZM193 513Q211 513 224 527T237 561Q237 580 224 593T193 606Q176 606
163 593T150 561Q150 542 163 528T193 513Z" />
<glyph unicode="&#xb1;" horiz-adv-x="550" d="M40 328V458H510V328H40ZM40 30V150H510V30H40ZM205 178V608H345V178H205Z" />
<glyph unicode="&#xb2;" horiz-adv-x="372" d="M150 445L29 465Q29 480 43 502T82 548T137 591L169 611Q185 621 203 635T221 666Q221 679 212 687T179 695Q166 695 156 686T141 661L14 681Q19 715 40 743T97 790T180 808Q259 808 303 769T347 667Q347 618 321
588T255 533L220 511Q207 503 192 490T165 464T150 445ZM29 380V465L120 488H351V380H29Z" />
<glyph unicode="&#xb3;" horiz-adv-x="355" d="M185 373Q118 373 70 404T14 499L134 520Q136 510 143 494T177 478Q192 478 201 486T210 509Q210 514 209 521T198 534T162 540H119V616H157Q201 616 241 600T308 556T334 491Q334 452 312 426T256 387T185 373ZM119
569V638H162Q191 638 198 647T206 673Q206 686 198 694T177 702Q164 702 151 693T136 658L17 679Q21 722 46 750T107 793T179 807Q220 807 254 792T308 751T329 687Q329 645 302 619T235 581T157 569H119Z" />
<glyph unicode="&#xb4;" horiz-adv-x="302" d="M2 554L112 700H302L172 554H2Z" />
<glyph unicode="&#xb5;" horiz-adv-x="578" d="M281 -12Q221 -12 187 43T153 214L220 244Q220 216 226 197T245 168T277 157Q315 156 334 175T353 234H402Q402 116 372 52T281 -12ZM40 -200V500H220V99H200V-200H40ZM363 0L353 92V500H533V0H363Z" />
<glyph unicode="&#xb6;" horiz-adv-x="621" d="M275 210Q196 210 135 241T40 328T5 456Q5 528 39 583T135 669T275 700H316V210H275ZM282 -84V700H399V-84H282ZM444 -84V700H561V-84H444ZM388 530V700H455V530H388Z" />
<glyph unicode="&#xb7;" horiz-adv-x="266" d="M131 246Q89 246 59 276T28 349Q28 391 58 421T131 452Q173 452 203 422T234 349Q234 307 204 277T131 246Z" />
<glyph unicode="&#xb8;" horiz-adv-x="254" d="M106 -210Q75 -210 53 -201T10 -179L31 -103Q45 -110 56 -113T78 -117Q95 -117 105 -112T115 -98Q115 -84 101 -77T60 -69L90 6H187L172 -26Q206 -37 225 -56T244 -108Q244 -165 209 -187T106 -210Z" />
<glyph unicode="&#xb9;" horiz-adv-x="279" d="M107 380V734L120 800H223V380H107ZM25 635V747Q50 744 74 761T120 801L199 728Q156 677 114 654T25 635Z" />
<glyph unicode="&#xba;" horiz-adv-x="359" d="M181 393Q132 393 95 413T36 468T14 550Q14 596 35 631T93 687T179 707Q253 707 299 663T345 550Q345 504 324 469T266 413T181 393ZM181 504Q198 504 210 517T222 550Q222 570 210 583T179 597Q161 597 150 584T138
550Q138 530 150 517T181 504Z" />
<glyph unicode="&#xbb;" horiz-adv-x="706" d="M388 298H178L45 500H246L388 298ZM246 96H45L178 298H388L246 96ZM661 298H451L318 500H519L661 298ZM519 96H318L451 298H661L519 96Z" />
<glyph unicode="&#xbc;" horiz-adv-x="848" d="M107 280V634L120 700H223V280H107ZM25 535V647Q50 644 74 661T120 701L199 628Q156 577 114 554T25 535ZM94 0L575 700H690L209 0H94ZM545 114L457 157L636 420L706 352L545 114ZM457 57V157L521 161H827V57H457ZM654
0V358L637 420H770V0H654Z" />
<glyph unicode="&#xbd;" horiz-adv-x="877" d="M107 280V634L120 700H223V280H107ZM25 535V647Q50 644 74 661T120 701L199 628Q156 577 114 554T25 535ZM94 0L575 700H690L209 0H94ZM655 65L534 85Q534 100 548 122T587 168T642 211L674 231Q690 241 708 255T726
286Q726 299 717 307T684 315Q671 315 661 306T646 281L519 301Q524 335 545 363T602 410T685 428Q764 428 808 389T852 287Q852 238 826 208T760 153L725 131Q712 123 697 110T670 84T655 65ZM534 0V85L625 108H856V0H534Z" />
<glyph unicode="&#xbe;" horiz-adv-x="924" d="M185 273Q118 273 70 304T14 399L134 420Q136 410 143 394T177 378Q192 378 201 386T210 409Q210 414 209 421T198 434T162 440H119V516H157Q201 516 241 500T308 456T334 391Q334 352 312 326T256 287T185 273ZM119
469V538H162Q191 538 198 547T206 573Q206 586 198 594T177 602Q164 602 151 593T136 558L17 579Q21 622 46 650T107 693T179 707Q220 707 254 692T308 651T329 587Q329 545 302 519T235 481T157 469H119ZM170 0L651 700H766L285 0H170ZM621 114L533 157L712 420L782
352L621 114ZM533 57V157L597 161H903V57H533ZM730 0V358L713 420H846V0H730Z" />
<glyph unicode="&#xbf;" horiz-adv-x="476" d="M347 213L352 110L259 101Q219 97 194 79T169 19Q169 -13 192 -34T252 -55Q278 -55 295 -42T320 -8L481 -51Q462 -127 402 -171T252 -215Q178 -215 121 -185T32 -102T-1 19Q-1 79 29 122T111 189T233 213H347ZM261
512Q303 512 333 482T364 409Q364 367 334 337T261 306Q219 306 189 336T158 409Q158 451 188 481T261 512ZM345 284L350 155H172L177 284H345Z" />
<glyph unicode="&#xc0;" horiz-adv-x="749" d="M546 0L290 700H474L742 0H546ZM7 0L275 700H459L203 0H7ZM133 112V275H617V112H133ZM317 754L185 901H375L487 754H317Z" />
<glyph unicode="&#xc1;" horiz-adv-x="749" d="M276 751L386 890H576L446 751H276ZM546 0L290 700H474L742 0H546ZM7 0L275 700H459L203 0H7ZM133 112V275H617V112H133Z" />
<glyph unicode="&#xc2;" horiz-adv-x="749" d="M546 0L290 700H474L742 0H546ZM7 0L275 700H459L203 0H7ZM133 112V275H617V112H133ZM432 765L285 899V912H455L582 765H432ZM157 765L284 912H454V899L307 765H157Z" />
<glyph unicode="&#xc3;" horiz-adv-x="749" d="M546 0L290 700H474L742 0H546ZM7 0L275 700H459L203 0H7ZM133 112V275H617V112H133ZM456 734Q418 734 398 745T366 770T345 795T318 806Q311 806 302 800T287 767H176Q182 820 198 852T243 898T312 912Q353 912
375 901T410 876T431 851T455 840Q469 840 474 851T481 879H592Q583 809 552 772T456 734Z" />
<glyph unicode="&#xc4;" horiz-adv-x="749" d="M546 0L290 700H474L742 0H546ZM7 0L275 700H459L203 0H7ZM133 112V275H617V112H133ZM510 769Q475 769 449 795T422 857Q422 892 448 918T510 945Q545 945 571 919T598 857Q598 822 572 796T510 769ZM240 769Q204
769 178 795T152 857Q152 893 178 919T240 945Q276 945 302 919T328 857Q328 821 302 795T240 769Z" />
<glyph unicode="&#xc5;" horiz-adv-x="749" d="M546 0L290 700H474L742 0H546ZM7 0L275 700H459L203 0H7ZM133 112V275H617V112H133ZM375 720Q338 720 307 737T256 784T237 849Q237 886 256 915T306 961T375 979Q412 979 443 962T493 915T512 849Q512 813 493
784T443 738T375 720ZM375 816Q407 816 407 849Q407 883 375 883Q342 883 342 849Q342 816 375 816Z" />
<glyph unicode="&#xc6;" horiz-adv-x="1033" d="M7 0L375 700H567L217 0H7ZM192 112V275H604V112H192ZM637 0V170H983V0H637ZM507 0V700H697V0H507ZM637 268V433H922V268H637ZM384 530V700H976V530H384Z" />
<glyph unicode="&#xc7;" horiz-adv-x="729" d="M383 -12Q278 -12 198 34T71 162T25 350Q25 456 71 537T197 665T383 712Q464 712 529 684T641 606T713 490L537 434Q523 467 501 491T450 529T383 542Q334 542 296 518T237 450T215 350Q215 294 237 251T297 183T386
158Q425 158 453 171T502 209T538 267L714 211Q690 145 643 95T530 16T383 -12ZM329 -210Q298 -210 276 -201T233 -179L254 -103Q268 -110 279 -113T301 -117Q318 -117 328 -112T338 -98Q338 -84 324 -77T283 -69L313 6H410L395 -26Q429 -37 448 -56T467 -108Q467
-165 432 -187T329 -210Z" />
<glyph unicode="&#xc8;" horiz-adv-x="586" d="M60 0V700H245V0H60ZM190 0V170H536V0H190ZM190 268V433H475V268H190ZM190 530V700H529V530H190ZM230 754L98 901H288L400 754H230Z" />
<glyph unicode="&#xc9;" horiz-adv-x="586" d="M189 751L299 890H489L359 751H189ZM60 0V700H245V0H60ZM190 0V170H536V0H190ZM190 268V433H475V268H190ZM190 530V700H529V530H190Z" />
<glyph unicode="&#xca;" horiz-adv-x="586" d="M60 0V700H245V0H60ZM190 0V170H536V0H190ZM190 268V433H475V268H190ZM190 530V700H529V530H190ZM345 765L198 899V912H368L495 765H345ZM70 765L197 912H367V899L220 765H70Z" />
<glyph unicode="&#xcb;" horiz-adv-x="586" d="M60 0V700H245V0H60ZM190 0V170H536V0H190ZM190 268V433H475V268H190ZM190 530V700H529V530H190ZM423 769Q388 769 362 795T335 857Q335 892 361 918T423 945Q458 945 484 919T511 857Q511 822 485 796T423 769ZM153
769Q117 769 91 795T65 857Q65 893 91 919T153 945Q189 945 215 919T241 857Q241 821 215 795T153 769Z" />
<glyph unicode="&#xcc;" horiz-adv-x="305" d="M60 0V700H245V0H60ZM97 754L-35 901H155L267 754H97Z" />
<glyph unicode="&#xcd;" horiz-adv-x="305" d="M56 751L166 890H356L226 751H56ZM60 0V700H245V0H60Z" />
<glyph unicode="&#xce;" horiz-adv-x="305" d="M60 0V700H245V0H60ZM212 765L65 899V912H235L362 765H212ZM-63 765L64 912H234V899L87 765H-63Z" />
<glyph unicode="&#xcf;" horiz-adv-x="330" d="M265 769Q230 769 204 795T177 857Q177 892 203 918T265 945Q300 945 326 919T353 857Q353 822 327 796T265 769ZM65 769Q29 769 3 795T-23 857Q-23 893 3 919T65 945Q101 945 127 919T153 857Q153 821 127 795T65
769ZM60 0V700H245V0H60Z" />
<glyph unicode="&#xd0;" horiz-adv-x="741" d="M40 287V414H378V287H40ZM324 0V175Q368 175 405 188T469 224T511 279T526 350Q526 389 511 421T469 476T405 512T324 525V700Q439 700 527 655T666 532T716 350Q716 248 666 169T528 45T324 0ZM179 0V175H324V0H179ZM90
0V700H275V0H90ZM179 525V700H324V525H179Z" />
<glyph unicode="&#xd1;" horiz-adv-x="773" d="M528 0L103 599L255 700L677 105L528 0ZM60 0V700H255L245 529V-1L60 0ZM528 0V700H713V0H528ZM468 714Q430 714 410 725T378 750T357 775T330 786Q323 786 314 780T299 747H188Q194 800 210 832T255 878T324 892Q365
892 387 881T422 856T443 831T467 820Q481 820 486 831T493 859H604Q595 789 564 752T468 714Z" />
<glyph unicode="&#xd2;" horiz-adv-x="797" d="M400 -12Q290 -12 206 34T73 162T25 349Q25 455 73 536T205 664T398 711Q508 711 592 665T724 537T772 349Q772 244 725 163T593 35T400 -12ZM400 158Q454 158 495 182T559 250T582 349Q582 405 559 448T494 516T398
541Q345 541 304 517T239 449T215 349Q215 293 239 250T304 183T400 158ZM341 754L209 901H399L511 754H341Z" />
<glyph unicode="&#xd3;" horiz-adv-x="797" d="M300 751L410 890H600L470 751H300ZM400 -12Q290 -12 206 34T73 162T25 349Q25 455 73 536T205 664T398 711Q508 711 592 665T724 537T772 349Q772 244 725 163T593 35T400 -12ZM400 158Q454 158 495 182T559 250T582
349Q582 405 559 448T494 516T398 541Q345 541 304 517T239 449T215 349Q215 293 239 250T304 183T400 158Z" />
<glyph unicode="&#xd4;" horiz-adv-x="797" d="M400 -12Q290 -12 206 34T73 162T25 349Q25 455 73 536T205 664T398 711Q508 711 592 665T724 537T772 349Q772 244 725 163T593 35T400 -12ZM400 158Q454 158 495 182T559 250T582 349Q582 405 559 448T494 516T398
541Q345 541 304 517T239 449T215 349Q215 293 239 250T304 183T400 158ZM456 765L309 899V912H479L606 765H456ZM181 765L308 912H478V899L331 765H181Z" />
<glyph unicode="&#xd5;" horiz-adv-x="797" d="M400 -12Q290 -12 206 34T73 162T25 349Q25 455 73 536T205 664T398 711Q508 711 592 665T724 537T772 349Q772 244 725 163T593 35T400 -12ZM400 158Q454 158 495 182T559 250T582 349Q582 405 559 448T494 516T398
541Q345 541 304 517T239 449T215 349Q215 293 239 250T304 183T400 158ZM480 734Q442 734 422 745T390 770T369 795T342 806Q335 806 326 800T311 767H200Q206 820 222 852T267 898T336 912Q377 912 399 901T434 876T455 851T479 840Q493 840 498 851T505 879H616Q607
809 576 772T480 734Z" />
<glyph unicode="&#xd6;" horiz-adv-x="797" d="M400 -12Q290 -12 206 34T73 162T25 349Q25 455 73 536T205 664T398 711Q508 711 592 665T724 537T772 349Q772 244 725 163T593 35T400 -12ZM400 158Q454 158 495 182T559 250T582 349Q582 405 559 448T494 516T398
541Q345 541 304 517T239 449T215 349Q215 293 239 250T304 183T400 158ZM534 769Q499 769 473 795T446 857Q446 892 472 918T534 945Q569 945 595 919T622 857Q622 822 596 796T534 769ZM264 769Q228 769 202 795T176 857Q176 893 202 919T264 945Q300 945 326
919T352 857Q352 821 326 795T264 769Z" />
<glyph unicode="&#xd7;" horiz-adv-x="536" d="M390 79L49 420L146 517L487 176L390 79ZM146 79L49 176L389 517L486 420L146 79Z" />
<glyph unicode="&#xd8;" horiz-adv-x="814" d="M30 0L632 700H784L181 0H30ZM403 -12Q293 -12 209 34T76 162T28 349Q28 455 76 536T208 664T401 711Q511 711 595 665T727 537T775 349Q775 244 728 163T596 35T403 -12ZM403 158Q457 158 498 182T562 250T585 349Q585
405 562 448T497 516T401 541Q348 541 307 517T242 449T218 349Q218 293 242 250T307 183T403 158Z" />
<glyph unicode="&#xd9;" horiz-adv-x="700" d="M348 -12Q255 -12 188 22T86 119T50 271H235Q235 236 249 211T288 173T350 160Q386 160 412 173T451 211T465 271H650Q650 183 614 120T511 22T348 -12ZM50 271V700H235V271H50ZM465 271V700H650V271H465ZM292 754L160
901H350L462 754H292Z" />
<glyph unicode="&#xda;" horiz-adv-x="709" d="M348 -12Q255 -12 188 22T86 119T50 271H235Q235 236 249 211T288 173T350 160Q386 160 412 173T451 211T465 271H650Q650 183 614 120T511 22T348 -12ZM50 271V700H235V271H50ZM465 271V700H650V271H465ZM315 724L425
870H615L485 724H315Z" />
<glyph unicode="&#xdb;" horiz-adv-x="700" d="M348 -12Q255 -12 188 22T86 119T50 271H235Q235 236 249 211T288 173T350 160Q386 160 412 173T451 211T465 271H650Q650 183 614 120T511 22T348 -12ZM50 271V700H235V271H50ZM465 271V700H650V271H465ZM407 765L260
899V912H430L557 765H407ZM132 765L259 912H429V899L282 765H132Z" />
<glyph unicode="&#xdc;" horiz-adv-x="700" d="M348 -12Q255 -12 188 22T86 119T50 271H235Q235 236 249 211T288 173T350 160Q386 160 412 173T451 211T465 271H650Q650 183 614 120T511 22T348 -12ZM50 271V700H235V271H50ZM465 271V700H650V271H465ZM485 769Q450
769 424 795T397 857Q397 892 423 918T485 945Q520 945 546 919T573 857Q573 822 547 796T485 769ZM215 769Q179 769 153 795T127 857Q127 893 153 919T215 945Q251 945 277 919T303 857Q303 821 277 795T215 769Z" />
<glyph unicode="&#xdd;" horiz-adv-x="686" d="M429 287L248 318L471 700H681L429 287ZM251 0V336H436V0H251ZM257 287L5 700H215L438 318L257 287ZM244 724L354 870H544L414 724H244Z" />
<glyph unicode="&#xde;" horiz-adv-x="645" d="M234 111V281H355Q393 281 416 302T440 357Q440 379 429 396T399 422T355 432H234V601L365 602Q444 602 505 571T600 485T635 357Q635 285 601 230T505 143T365 111H234ZM70 1V701H260V1H70Z" />
<glyph unicode="&#xdf;" horiz-adv-x="604" d="M45 0V476Q45 557 77 609T169 687T306 712Q381 712 438 690T527 620T559 499Q559 463 543 427T496 360T423 312T330 294H294V435H306Q328 435 344 443T370 466T379 502Q379 531 357 545T304 560Q267 560 246 539T225
476V0H45ZM294 0V163H330Q363 163 382 181T402 221Q402 246 382 261T330 276H294V409H305Q403 409 464 390T555 325T584 202Q584 137 555 92T473 24T352 0H294Z" />
<glyph unicode="&#xe0;" horiz-adv-x="546" d="M337 0L332 245Q332 280 328 308T306 352T248 368Q226 368 211 359T180 328L21 378Q45 419 77 449T153 495T252 512Q332 512 389 483T476 402T506 281V0H337ZM204 -12Q117 -12 69 27T20 141Q20 219 68 256T204 294H351V191H273Q238
191 219 179T200 145Q200 130 212 122T247 114Q272 114 289 124T317 152T327 195L379 214Q379 105 333 47T204 -12ZM194 554L62 701H252L364 554H194Z" />
<glyph unicode="&#xe1;" horiz-adv-x="546" d="M337 0L332 245Q332 280 328 308T306 352T248 368Q226 368 211 359T180 328L21 378Q45 419 77 449T153 495T252 512Q332 512 389 483T476 402T506 281V0H337ZM204 -12Q117 -12 69 27T20 141Q20 219 68 256T204 294H351V191H273Q238
191 219 179T200 145Q200 130 212 122T247 114Q272 114 289 124T317 152T327 195L379 214Q379 105 333 47T204 -12ZM409 554L519 700H709L579 554H409Z" />
<glyph unicode="&#xe2;" horiz-adv-x="546" d="M337 0L332 245Q332 280 328 308T306 352T248 368Q226 368 211 359T180 328L21 378Q45 419 77 449T153 495T252 512Q332 512 389 483T476 402T506 281V0H337ZM204 -12Q117 -12 69 27T20 141Q20 219 68 256T204 294H351V191H273Q238
191 219 179T200 145Q200 130 212 122T247 114Q272 114 289 124T317 152T327 195L379 214Q379 105 333 47T204 -12ZM309 565L162 699V712H332L459 565H309ZM34 565L161 712H331V699L184 565H34Z" />
<glyph unicode="&#xe3;" horiz-adv-x="546" d="M337 0L332 245Q332 280 328 308T306 352T248 368Q226 368 211 359T180 328L21 378Q45 419 77 449T153 495T252 512Q332 512 389 483T476 402T506 281V0H337ZM204 -12Q117 -12 69 27T20 141Q20 219 68 256T204 294H351V191H273Q238
191 219 179T200 145Q200 130 212 122T247 114Q272 114 289 124T317 152T327 195L379 214Q379 105 333 47T204 -12ZM589 534Q551 534 531 545T499 570T478 595T451 606Q444 606 435 600T420 567H309Q315 620 331 652T376 698T445 712Q486 712 508 701T543 676T564
651T588 640Q602 640 607 651T614 679H725Q716 609 685 572T589 534Z" />
<glyph unicode="&#xe4;" horiz-adv-x="546" d="M337 0L332 245Q332 280 328 308T306 352T248 368Q226 368 211 359T180 328L21 378Q45 419 77 449T153 495T252 512Q332 512 389 483T476 402T506 281V0H337ZM204 -12Q117 -12 69 27T20 141Q20 219 68 256T204 294H351V191H273Q238
191 219 179T200 145Q200 130 212 122T247 114Q272 114 289 124T317 152T327 195L379 214Q379 105 333 47T204 -12ZM643 569Q608 569 582 595T555 657Q555 692 581 718T643 745Q678 745 704 719T731 657Q731 622 705 596T643 569ZM373 569Q337 569 311 595T285
657Q285 693 311 719T373 745Q409 745 435 719T461 657Q461 621 435 595T373 569Z" />
<glyph unicode="&#xe5;" horiz-adv-x="546" d="M337 0L332 245Q332 280 328 308T306 352T248 368Q226 368 211 359T180 328L21 378Q45 419 77 449T153 495T252 512Q332 512 389 483T476 402T506 281V0H337ZM204 -12Q117 -12 69 27T20 141Q20 219 68 256T204 294H351V191H273Q238
191 219 179T200 145Q200 130 212 122T247 114Q272 114 289 124T317 152T327 195L379 214Q379 105 333 47T204 -12ZM252 520Q215 520 184 537T133 584T114 649Q114 686 133 715T183 761T252 779Q289 779 320 762T370 715T389 649Q389 613 370 584T320 538T252 520ZM252
616Q284 616 284 649Q284 683 252 683Q219 683 219 649Q219 616 252 616Z" />
<glyph unicode="&#xe6;" horiz-adv-x="889" d="M344 116L345 245Q345 278 340 303T317 344T254 359Q222 359 190 349T132 315L28 422Q52 450 89 470T172 501T261 512Q343 512 400 483T488 402T519 281L513 116H344ZM217 -12Q124 -12 72 27T20 141Q20 219 72 256T217
294H364V194H286Q247 194 226 181T204 145Q204 127 218 117T257 107Q295 107 317 131T340 195L432 214Q432 105 375 47T217 -12ZM621 -12Q540 -12 477 21T379 113T343 250Q343 328 378 387T475 479T618 512Q695 512 753 479T845 377T879 205H702Q702 258 696 299T670
363T611 387Q580 387 561 370T534 320T526 241Q526 197 538 172T571 136T616 125Q649 125 673 140T704 179L862 130Q844 78 805 47T717 2T621 -12ZM457 205L458 315H796V205H457Z" />
<glyph unicode="&#xe7;" horiz-adv-x="550" d="M302 -12Q220 -12 156 21T56 114T20 250Q20 327 56 386T155 478T300 512Q379 512 445 471T539 352L367 296Q359 316 338 329T290 342Q265 342 246 331T216 298T205 250Q205 223 216 203T247 170T292 158Q317 158
338 171T368 204L540 149Q512 71 447 30T302 -12ZM504 -210Q473 -210 451 -201T408 -179L429 -103Q443 -110 454 -113T476 -117Q493 -117 503 -112T513 -98Q513 -84 499 -77T458 -69L488 6H585L570 -26Q604 -37 623 -56T642 -108Q642 -165 607 -187T504 -210Z"
/>
<glyph unicode="&#xe8;" horiz-adv-x="566" d="M298 -12Q217 -12 154 21T56 113T20 250Q20 328 55 387T152 479T295 512Q372 512 430 479T522 377T556 205H379Q379 258 373 299T347 363T288 387Q257 387 238 370T211 320T203 241Q203 197 215 172T248 136T293
125Q326 125 350 140T381 179L539 130Q521 78 482 47T394 2T298 -12ZM134 205L135 315H473V205H134ZM237 554L105 701H295L407 554H237Z" />
<glyph unicode="&#xe9;" horiz-adv-x="566" d="M298 -12Q217 -12 154 21T56 113T20 250Q20 328 55 387T152 479T295 512Q372 512 430 479T522 377T556 205H379Q379 258 373 299T347 363T288 387Q257 387 238 370T211 320T203 241Q203 197 215 172T248 136T293
125Q326 125 350 140T381 179L539 130Q521 78 482 47T394 2T298 -12ZM134 205L135 315H473V205H134ZM452 554L562 700H752L622 554H452Z" />
<glyph unicode="&#xea;" horiz-adv-x="566" d="M298 -12Q217 -12 154 21T56 113T20 250Q20 328 55 387T152 479T295 512Q372 512 430 479T522 377T556 205H379Q379 258 373 299T347 363T288 387Q257 387 238 370T211 320T203 241Q203 197 215 172T248 136T293
125Q326 125 350 140T381 179L539 130Q521 78 482 47T394 2T298 -12ZM134 205L135 315H473V205H134ZM352 565L205 699V712H375L502 565H352ZM77 565L204 712H374V699L227 565H77Z" />
<glyph unicode="&#xeb;" horiz-adv-x="566" d="M298 -12Q217 -12 154 21T56 113T20 250Q20 328 55 387T152 479T295 512Q372 512 430 479T522 377T556 205H379Q379 258 373 299T347 363T288 387Q257 387 238 370T211 320T203 241Q203 197 215 172T248 136T293
125Q326 125 350 140T381 179L539 130Q521 78 482 47T394 2T298 -12ZM134 205L135 315H473V205H134ZM430 569Q395 569 369 595T342 657Q342 692 368 718T430 745Q465 745 491 719T518 657Q518 622 492 596T430 569ZM160 569Q124 569 98 595T72 657Q72 693 98 719T160
745Q196 745 222 719T248 657Q248 621 222 595T160 569Z" />
<glyph unicode="&#xec;" horiz-adv-x="290" d="M55 0V500H235V0H55ZM343 554L211 701H401L513 554H343Z" />
<glyph unicode="&#xed;" horiz-adv-x="290" d="M55 0V500H235V0H55ZM46 554L156 700H346L216 554H46Z" />
<glyph unicode="&#xee;" horiz-adv-x="290" d="M55 0V500H235V0H55ZM458 565L311 699V712H481L608 565H458ZM183 565L310 712H480V699L333 565H183Z" />
<glyph unicode="&#xef;" horiz-adv-x="290" d="M245 569Q210 569 184 595T157 657Q157 692 183 718T245 745Q280 745 306 719T333 657Q333 622 307 596T245 569ZM45 569Q9 569 -17 595T-43 657Q-43 693 -17 719T45 745Q81 745 107 719T133 657Q133 621 107 595T45
569ZM55 0V500H235V0H55Z" />
<glyph unicode="&#xf0;" horiz-adv-x="600" d="M293 -12Q213 -12 152 21T55 114T20 250Q20 327 50 386T135 478T265 512Q299 512 335 499T401 464T450 416T469 363L563 250Q563 173 529 114T433 22T293 -12ZM293 154Q318 154 337 166T367 200T378 250Q378 278
367 299T337 333T291 346Q266 346 247 334T216 300T205 250Q205 222 216 201T247 167T293 154ZM401 328Q401 414 390 471T352 569T282 642L360 774Q453 705 501 616T562 424T561 214L401 328ZM353 508L282 577L459 752L531 683L353 508Z" />
<glyph unicode="&#xf1;" horiz-adv-x="578" d="M45 0V500H215L225 408V0H45ZM358 0V256L538 286V0H358ZM358 256Q358 285 352 303T333 332T301 343Q263 345 244 326T225 266H176Q176 345 200 400T265 483T358 512Q450 512 494 457T538 286L358 256ZM365 534Q327
534 307 545T275 570T254 595T227 606Q220 606 211 600T196 567H85Q91 620 107 652T152 698T221 712Q262 712 284 701T319 676T340 651T364 640Q378 640 383 651T390 679H501Q492 609 461 572T365 534Z" />
<glyph unicode="&#xf2;" horiz-adv-x="583" d="M293 -12Q213 -12 152 21T55 114T20 250Q20 327 54 386T150 478T291 512Q371 512 432 479T528 386T563 250Q563 173 529 114T433 22T293 -12ZM293 154Q318 154 337 166T367 200T378 250Q378 278 367 299T337 333T291
346Q266 346 247 334T216 300T205 250Q205 222 216 201T247 167T293 154ZM228 554L96 701H286L398 554H228Z" />
<glyph unicode="&#xf3;" horiz-adv-x="583" d="M293 -12Q213 -12 152 21T55 114T20 250Q20 327 54 386T150 478T291 512Q371 512 432 479T528 386T563 250Q563 173 529 114T433 22T293 -12ZM293 154Q318 154 337 166T367 200T378 250Q378 278 367 299T337 333T291
346Q266 346 247 334T216 300T205 250Q205 222 216 201T247 167T293 154ZM443 554L553 700H743L613 554H443Z" />
<glyph unicode="&#xf4;" horiz-adv-x="583" d="M293 -12Q213 -12 152 21T55 114T20 250Q20 327 54 386T150 478T291 512Q371 512 432 479T528 386T563 250Q563 173 529 114T433 22T293 -12ZM293 154Q318 154 337 166T367 200T378 250Q378 278 367 299T337 333T291
346Q266 346 247 334T216 300T205 250Q205 222 216 201T247 167T293 154ZM343 565L196 699V712H366L493 565H343ZM68 565L195 712H365V699L218 565H68Z" />
<glyph unicode="&#xf5;" horiz-adv-x="583" d="M293 -12Q213 -12 152 21T55 114T20 250Q20 327 54 386T150 478T291 512Q371 512 432 479T528 386T563 250Q563 173 529 114T433 22T293 -12ZM293 154Q318 154 337 166T367 200T378 250Q378 278 367 299T337 333T291
346Q266 346 247 334T216 300T205 250Q205 222 216 201T247 167T293 154ZM367 534Q329 534 309 545T277 570T256 595T229 606Q222 606 213 600T198 567H87Q93 620 109 652T154 698T223 712Q264 712 286 701T321 676T342 651T366 640Q380 640 385 651T392 679H503Q494
609 463 572T367 534Z" />
<glyph unicode="&#xf6;" horiz-adv-x="583" d="M293 -12Q213 -12 152 21T55 114T20 250Q20 327 54 386T150 478T291 512Q371 512 432 479T528 386T563 250Q563 173 529 114T433 22T293 -12ZM293 154Q318 154 337 166T367 200T378 250Q378 278 367 299T337 333T291
346Q266 346 247 334T216 300T205 250Q205 222 216 201T247 167T293 154ZM421 569Q386 569 360 595T333 657Q333 692 359 718T421 745Q456 745 482 719T509 657Q509 622 483 596T421 569ZM151 569Q115 569 89 595T63 657Q63 693 89 719T151 745Q187 745 213 719T239
657Q239 621 213 595T151 569Z" />
<glyph unicode="&#xf7;" horiz-adv-x="490" d="M40 226V370H450V226H40ZM245 50Q216 50 195 72T173 123Q173 152 194 174T245 196Q274 196 296 174T318 123Q318 94 296 72T245 50ZM245 400Q216 400 194 421T172 472Q172 501 194 523T245 545Q274 545 295 523T317
472Q317 443 296 422T245 400Z" />
<glyph unicode="&#xf8;" horiz-adv-x="578" d="M7 0L439 500H571L138 0H7ZM288 -12Q208 -12 147 21T50 114T15 250Q15 327 49 386T145 478T286 512Q366 512 427 479T523 386T558 250Q558 173 524 114T428 22T288 -12ZM288 154Q313 154 332 166T362 200T373 250Q373
278 362 299T332 333T286 346Q261 346 242 334T211 300T200 250Q200 222 211 201T242 167T288 154Z" />
<glyph unicode="&#xf9;" horiz-adv-x="578" d="M363 0L353 92V500H533V0H363ZM40 214V500H220V244L40 214ZM220 244Q220 216 226 197T245 168T277 157Q315 156 334 175T353 234H402Q402 155 378 100T313 17T220 -12Q129 -12 85 43T40 214L220 244ZM228 554L96
701H286L398 554H228Z" />
<glyph unicode="&#xfa;" horiz-adv-x="578" d="M363 0L353 92V500H533V0H363ZM40 214V500H220V244L40 214ZM220 244Q220 216 226 197T245 168T277 157Q315 156 334 175T353 234H402Q402 155 378 100T313 17T220 -12Q129 -12 85 43T40 214L220 244ZM443 554L553
700H743L613 554H443Z" />
<glyph unicode="&#xfb;" horiz-adv-x="578" d="M363 0L353 92V500H533V0H363ZM40 214V500H220V244L40 214ZM220 244Q220 216 226 197T245 168T277 157Q315 156 334 175T353 234H402Q402 155 378 100T313 17T220 -12Q129 -12 85 43T40 214L220 244ZM343 565L196
699V712H366L493 565H343ZM68 565L195 712H365V699L218 565H68Z" />
<glyph unicode="&#xfc;" horiz-adv-x="578" d="M363 0L353 92V500H533V0H363ZM40 214V500H220V244L40 214ZM220 244Q220 216 226 197T245 168T277 157Q315 156 334 175T353 234H402Q402 155 378 100T313 17T220 -12Q129 -12 85 43T40 214L220 244ZM421 569Q386
569 360 595T333 657Q333 692 359 718T421 745Q456 745 482 719T509 657Q509 622 483 596T421 569ZM151 569Q115 569 89 595T63 657Q63 693 89 719T151 745Q187 745 213 719T239 657Q239 621 213 595T151 569Z" />
<glyph unicode="&#xfd;" horiz-adv-x="622" d="M196 -212Q161 -212 122 -199T60 -170L127 -25Q138 -34 150 -39T174 -45Q190 -45 204 -37T227 -10L287 130L422 500H622L407 -18Q384 -74 359 -118T297 -187T196 -212ZM240 0L0 500H200L349 130L410 0H240ZM468 554L578
700H768L638 554H468Z" />
<glyph unicode="&#xfe;" horiz-adv-x="600" d="M55 -200V700H235V-200H55ZM369 -12Q307 -12 267 19T207 109T187 250Q187 333 206 391T266 481T369 512Q440 512 490 481T568 392T595 250Q595 168 568 109T491 19T369 -12ZM321 154Q346 154 365 166T395 200T407
250Q407 278 396 299T366 333T322 345Q297 345 277 333T246 300T235 250Q235 222 246 201T276 167T321 154Z" />
<glyph unicode="&#xff;" horiz-adv-x="622" d="M196 -212Q161 -212 122 -199T60 -170L127 -25Q138 -34 150 -39T174 -45Q190 -45 204 -37T227 -10L287 130L422 500H622L407 -18Q384 -74 359 -118T297 -187T196 -212ZM240 0L0 500H200L349 130L410 0H240ZM446 569Q411
569 385 595T358 657Q358 692 384 718T446 745Q481 745 507 719T534 657Q534 622 508 596T446 569ZM176 569Q140 569 114 595T88 657Q88 693 114 719T176 745Q212 745 238 719T264 657Q264 621 238 595T176 569Z" />
<glyph unicode="&#x2013;" horiz-adv-x="550" d="M0 223V373H550V223H0Z" />
<glyph unicode="&#x2014;" horiz-adv-x="1100" d="M0 223V373H1100V223H0Z" />
<glyph unicode="&#x2018;" horiz-adv-x="254" d="M246 700L180 441H0L116 700H246Z" />
<glyph unicode="&#x2019;" horiz-adv-x="254" d="M8 441L74 700H254L138 441H8Z" />
<glyph unicode="&#x201a;" horiz-adv-x="286" d="M18 -113L84 146H264L148 -113H18Z" />
<glyph unicode="&#x201c;" horiz-adv-x="493" d="M246 704L180 445H0L116 704H246ZM485 704L419 445H239L355 704H485Z" />
<glyph unicode="&#x201d;" horiz-adv-x="493" d="M247 441L313 700H493L377 441H247ZM8 441L74 700H254L138 441H8Z" />
<glyph unicode="&#x201e;" horiz-adv-x="286" d="M18 -113L84 146H264L148 -113H18Z" />
<glyph unicode="&#x2022;" horiz-adv-x="460" d="M223 155Q186 155 156 173T107 221T89 288Q89 325 107 354T155 402T223 420Q261 420 291 402T340 355T358 288Q358 251 340 221T292 173T223 155Z" />
<glyph unicode="&#x2039;" horiz-adv-x="438" d="M45 298L187 500H388L255 298H45ZM187 96L45 298H255L388 96H187Z" />
<glyph unicode="&#x203a;" horiz-adv-x="438" d="M393 298H183L50 500H251L393 298ZM251 96H50L183 298H393L251 96Z" />
</font>
</defs>
</svg>
