<?xml version="1.0" standalone="no"?>
<!DOCTYPE svg PUBLIC "-//W3C//DTD SVG 1.1//EN" "http://www.w3.org/Graphics/SVG/1.1/DTD/svg11.dtd" >
<svg xmlns="http://www.w3.org/2000/svg" xmlns:xlink="http://www.w3.org/1999/xlink" version="1.1">
<metadata>
Created by FontForge 20170731 at Tue Jul  5 13:16:08 2022
 By Aleksey,,,
(c) 2010 Klim Type Foundry. All rights reserved.
</metadata>
<defs>
<font id="TiemposHeadline-BlackItalic" horiz-adv-x="1024" >
  <font-face 
    font-family="Tiempos Headline Black"
    font-weight="900"
    font-style="italic"
    font-stretch="normal"
    units-per-em="2048"
    panose-1="2 2 10 3 6 3 3 13 4 3"
    ascent="1604"
    descent="-444"
    x-height="1133"
    cap-height="1438"
    bbox="-463 -512 2693 2150"
    underline-thickness="61"
    underline-position="-265"
    slope="-12"
    unicode-range="U+0020-FB04"
  />
<missing-glyph horiz-adv-x="1966" 
d="M184 0v1597h1598v-1597h-1598zM983 707l-571 -572h1142zM412 1462l571 -571l571 571h-1142zM891 799l-563 563v-1126zM1075 799l563 -563v1126z" />
    <glyph glyph-name="ff" unicode="ff" horiz-adv-x="1447" 
d="M698 41l187 926h-219l-88 -375q-54 -230 -117 -409t-129.5 -299t-142 -197.5t-150.5 -111.5t-158 -34q-128 0 -209.5 48.5t-81.5 129.5q0 76 48.5 121t123.5 51h78q-17 -260 60 -260q12 0 21.5 4.5t18 16t15 24t13 35t12 43t12 54t12 61t14 72t15.5 79.5l190 947h-141
l18 88l148 37q33 107 82.5 193t120 152.5t167.5 103t213 36.5q97 0 177 -30t125 -81q151 138 356 138q126 0 209.5 -47.5t83.5 -147.5q0 -53 -29 -93t-82 -59h-192q7 36 11 60.5t8 57t3 54t-5 41t-15.5 29.5t-28.5 10q-41 0 -67 -68.5t-34.5 -162t-4.5 -195.5h213l-29 -116
h-203l-96 -443q-45 -204 -104.5 -366t-125 -272.5t-141 -184t-152.5 -106.5t-159 -33q-101 0 -170.5 40t-69.5 117q0 67 43.5 106.5t110.5 45.5h49q-6 -109 5.5 -164t49.5 -55t64 83q15 47 62 281q3 13 5 25zM864 1485q-56 0 -97 -61t-60.5 -150t-20.5 -191h223
q31 110 82 201q0 81 -33.5 141t-93.5 60z" />
    <glyph glyph-name="fi" unicode="fi" horiz-adv-x="1406" 
d="M993 1083l297 50h74l-209 -826q-16 -59 -16 -82q0 -30 28 -30q27 0 65 35t97 108l53 -47q-59 -81 -106.5 -134.5t-101 -95.5t-109.5 -61.5t-121 -19.5q-106 0 -163.5 56.5t-57.5 143.5q0 79 20 164l156 623h-233l-111 -504q-106 -479 -273.5 -700.5t-400.5 -221.5
q-128 0 -209.5 48.5t-81.5 129.5q0 76 48.5 121t123.5 51h78q-17 -260 60 -260q12 0 21.5 4.5t18 16t15 24t13 35t12 43t12 54t12 61t14 72t15.5 79.5l190 947h-141l18 88l148 37q69 244 240 378t440 134q89 0 168.5 -21.5t135.5 -70.5t56 -117q0 -53 -28.5 -93.5
t-81.5 -58.5h-232q15 44 22 89t3.5 85.5t-24 66t-56.5 25.5q-87 0 -143.5 -126t-61.5 -300h307z" />
    <glyph glyph-name="fl" unicode="fl" horiz-adv-x="1402" 
d="M811 967h-141l-113 -504q-106 -479 -273.5 -700.5t-400.5 -221.5q-128 0 -209.5 48.5t-81.5 129.5q0 76 48.5 121t123.5 51h78q-17 -260 60 -260q12 0 21.5 4.5t18 16t15 24t13 35t12 43t12 54t12 61t14 72t15.5 79.5l188 947h-139l18 88l150 37q32 109 82 198.5
t120 161.5t166 112t209 40q157 0 234 -66l336 66h71l-311 -1297q-16 -74 -16 -82q0 -30 28 -30q27 0 65 35t97 108l53 -47q-59 -81 -106.5 -134.5t-101 -95.5t-109.5 -61.5t-121 -19.5q-106 0 -163.5 56.5t-57.5 143.5q0 75 21 164l231 936q-37 229 -152 229
q-45 0 -77 -38.5t-47.5 -102t-20.5 -136t0 -149.5h158z" />
    <glyph glyph-name="ffi" unicode="ffi" horiz-adv-x="2068" 
d="M1561 967h-234l-96 -443q-45 -204 -104.5 -366t-125 -272.5t-141 -184t-152.5 -106.5t-159 -33q-101 0 -170.5 40t-69.5 117q0 67 43.5 106.5t110.5 45.5h49q-6 -109 5.5 -164t49.5 -55t64 83q15 47 62 281q3 13 5 25l187 926h-219l-88 -375q-54 -230 -117 -409
t-129.5 -299t-142 -197.5t-150.5 -111.5t-158 -34q-128 0 -209.5 48.5t-81.5 129.5q0 76 48.5 121t123.5 51h78q-17 -260 60 -260q12 0 21.5 4.5t18 16t15 24t13 35t12 43t12 54t12 61t14 72t15.5 79.5l190 947h-141l18 88l148 37q33 107 82.5 193t120 152.5t167.5 103
t213 36.5q101 0 182 -31.5t124 -85.5q180 144 452 144q89 0 168.5 -21.5t136 -70.5t56.5 -117q0 -53 -29 -93t-82 -59h-231q21 60 26.5 118.5t-14.5 103t-68 44.5q-87 0 -143 -126t-61 -300h307l297 50h73l-208 -826q-17 -63 -17 -82q0 -30 29 -30q27 0 65 35t97 108l53 -47
q-59 -81 -106.5 -134.5t-101 -95.5t-109.5 -61.5t-121 -19.5q-106 0 -164 56.5t-58 143.5q0 75 21 164zM864 1485q-56 0 -97 -61t-60.5 -150t-20.5 -191h223q31 115 82 201q0 82 -33.5 141.5t-93.5 59.5z" />
    <glyph glyph-name="ffl" unicode="ffl" horiz-adv-x="2062" 
d="M1466 967h-139l-96 -443q-45 -204 -104.5 -366t-125 -272.5t-141 -184t-152.5 -106.5t-159 -33q-101 0 -170.5 40t-69.5 117q0 67 43.5 106.5t110.5 45.5h49q-6 -109 5.5 -164t49.5 -55t64 83q15 47 62 281q3 13 5 25l187 926h-219l-88 -375q-54 -230 -117 -409
t-129.5 -299t-142 -197.5t-150.5 -111.5t-158 -34q-128 0 -209.5 48.5t-81.5 129.5q0 76 48.5 121t123.5 51h78q-17 -260 60 -260q12 0 21.5 4.5t18 16t15 24t13 35t12 43t12 54t12 61t14 72t15.5 79.5l190 947h-141l18 88l148 37q33 107 82.5 193t120 152.5t167.5 103
t213 36.5q97 0 177 -30t125 -81q151 138 356 138q156 0 233 -66l336 66h72l-311 -1297q-17 -79 -17 -82q0 -30 29 -30q27 0 65 35t97 108l53 -47q-59 -81 -106.5 -134.5t-101 -95.5t-109.5 -61.5t-121 -19.5q-106 0 -164 56.5t-58 143.5q0 75 21 164l231 936
q-37 229 -151 229q-43 0 -75.5 -40t-48 -102.5t-22.5 -137.5t2 -146h152zM909 1083q31 110 82 201q0 81 -33.5 141t-93.5 60q-56 0 -97 -61t-60.5 -150t-20.5 -191h223z" />
    <glyph glyph-name="f_b" unicode="fb" horiz-adv-x="2035" 
d="M721 225l258 1055q-37 229 -152 229q-45 0 -77 -38.5t-47.5 -102t-20.5 -136t0 -149.5h158l-29 -116h-141l-113 -504q-106 -479 -273.5 -700.5t-400.5 -221.5q-128 0 -209.5 48.5t-81.5 129.5q0 76 48.5 121t123.5 51h78q-17 -260 60 -260q12 0 21.5 4.5t18 16t15 24
t13 35t12 43t12 54t12 61t14 72t15.5 79.5l188 947h-139l18 88l150 37q32 109 82 198.5t120 161.5t166 112t209 40q157 0 234 -66l336 66h71l-237 -986q51 104 107 190.5t124.5 162.5t147.5 119t160 43q237 0 237 -322q0 -162 -58.5 -314t-158.5 -266t-242 -182.5
t-299 -68.5q-167 0 -317 67.5t-213 177.5zM1520 854q-57 0 -141 -113.5t-155.5 -278t-99.5 -308.5q4 -39 30.5 -61.5t64.5 -22.5q67 0 134.5 71.5t114.5 176t77 221.5t30 209q0 106 -55 106z" />
    <glyph glyph-name="f_f_b" unicode="ffb" horiz-adv-x="2695" 
d="M1466 967h-139l-96 -443q-45 -204 -104.5 -366t-125 -272.5t-141 -184t-152.5 -106.5t-159 -33q-101 0 -170.5 40t-69.5 117q0 67 43.5 106.5t110.5 45.5h49q-6 -109 5.5 -164t49.5 -55t64 83q15 47 62 281q3 13 5 25l187 926h-219l-88 -375q-54 -230 -117 -409
t-129.5 -299t-142 -197.5t-150.5 -111.5t-158 -34q-128 0 -209.5 48.5t-81.5 129.5q0 76 48.5 121t123.5 51h78q-17 -260 60 -260q12 0 21.5 4.5t18 16t15 24t13 35t12 43t12 54t12 61t14 72t15.5 79.5l190 947h-141l18 88l148 37q33 107 82.5 193t120 152.5t167.5 103
t213 36.5q97 0 177 -30t125 -81q151 138 356 138q156 0 233 -66l336 66h72l-238 -986q51 104 107 190.5t124.5 162.5t147.5 119t160 43q238 0 238 -322q0 -162 -58.5 -314t-158.5 -266t-242 -182.5t-299 -68.5q-167 0 -317.5 67.5t-213.5 177.5l258 1055q-37 229 -151 229
q-43 0 -75.5 -40t-48 -102.5t-22.5 -137.5t2 -146h152zM2179 854q-57 0 -140.5 -113.5t-155 -278t-99.5 -308.5q4 -39 30 -61.5t64 -22.5q67 0 134.5 71.5t114.5 176t77 221.5t30 209q0 106 -55 106zM909 1083q31 110 82 201q0 81 -33.5 141t-93.5 60q-56 0 -97 -61
t-60.5 -150t-20.5 -191h223z" />
    <glyph glyph-name="f_h" unicode="fh" horiz-adv-x="2045" 
d="M666 0l313 1280q-37 229 -152 229q-45 0 -77 -38.5t-47.5 -102t-20.5 -136t0 -149.5h158l-29 -116h-141l-113 -504q-106 -479 -273.5 -700.5t-400.5 -221.5q-128 0 -209.5 48.5t-81.5 129.5q0 76 48.5 121t123.5 51h78q-17 -260 60 -260q12 0 21.5 4.5t18 16t15 24t13 35
t12 43t12 54t12 61t14 72t15.5 79.5l188 947h-139l18 88l150 37q32 109 82 198.5t120 161.5t166 112t209 40q157 0 234 -66l336 66h71l-233 -969q125 253 268 375.5t293 122.5q82 0 128 -48t46 -131q0 -48 -18 -116l-148 -531q-16 -59 -16 -82q0 -30 29 -30q26 0 64 34.5
t97 108.5l54 -47q-119 -163 -216.5 -237t-222.5 -74q-107 0 -169 57t-62 143q0 64 31 166l121 399q14 47 14 66q0 37 -35 37q-28 0 -74 -47t-94.5 -123t-95.5 -184.5t-76 -219.5l-72 -274h-417z" />
    <glyph glyph-name="f_f_h" unicode="ffh" horiz-adv-x="2705" 
d="M1325 0l313 1280q-37 229 -151 229q-43 0 -75.5 -40t-48 -102.5t-22.5 -137.5t2 -146h152l-29 -116h-139l-96 -443q-45 -204 -104.5 -366t-125 -272.5t-141 -184t-152.5 -106.5t-159 -33q-101 0 -170.5 40t-69.5 117q0 67 43.5 106.5t110.5 45.5h49q-6 -109 5.5 -164
t49.5 -55t64 83q15 47 62 281q3 13 5 25l187 926h-219l-88 -375q-54 -230 -117 -409t-129.5 -299t-142 -197.5t-150.5 -111.5t-158 -34q-128 0 -209.5 48.5t-81.5 129.5q0 76 48.5 121t123.5 51h78q-17 -260 60 -260q12 0 21.5 4.5t18 16t15 24t13 35t12 43t12 54t12 61
t14 72t15.5 79.5l190 947h-141l18 88l148 37q33 107 82.5 193t120 152.5t167.5 103t213 36.5q97 0 177 -30t125 -81q151 138 356 138q156 0 233 -66l336 66h72l-234 -969q125 253 268.5 375.5t293.5 122.5q82 0 128 -48t46 -131q0 -44 -19 -116l-147 -531q-17 -63 -17 -82
q0 -30 29 -30q27 0 65 35t97 108l53 -47q-59 -81 -106.5 -134.5t-101 -95.5t-109.5 -61.5t-121 -19.5q-107 0 -169.5 57t-62.5 143q0 64 31 166l121 399q14 47 14 66q0 37 -35 37q-28 0 -74 -47t-94 -123t-95 -184.5t-76 -219.5l-72 -274h-418zM864 1485q-56 0 -97 -61
t-60.5 -150t-20.5 -191h223q31 110 82 201q0 81 -33.5 141t-93.5 60z" />
    <glyph glyph-name="f_idieresis" unicode="f&#xef;" horiz-adv-x="1406" 
d="M993 1083l297 50h74l-209 -826q-16 -59 -16 -82q0 -30 28 -30q27 0 65 35t97 108l53 -47q-59 -81 -106.5 -134.5t-101 -95.5t-109.5 -61.5t-121 -19.5q-106 0 -163.5 56.5t-57.5 143.5q0 79 20 164l156 623h-233l-111 -504q-106 -479 -273.5 -700.5t-400.5 -221.5
q-128 0 -209.5 48.5t-81.5 129.5q0 76 48.5 121t123.5 51h78q-17 -260 60 -260q12 0 21.5 4.5t18 16t15 24t13 35t12 43t12 54t12 61t14 72t15.5 79.5l190 947h-141l18 88l148 37q34 107 82 193.5t119 161t172.5 116t224.5 41.5q92 0 164.5 -21t121 -72.5t48.5 -126.5
q0 -60 -32.5 -105t-92.5 -65h-215q7 39 12 68.5t9 66.5t3 63t-6 49.5t-17.5 35.5t-31.5 12q-46 0 -78 -68t-43.5 -163t-7.5 -195h313zM1421 1227q-80 0 -128 49.5t-48 120.5q0 79 51.5 134.5t137.5 55.5q80 0 128 -49t48 -119q0 -80 -51.5 -136t-137.5 -56z" />
    <glyph glyph-name="f_f_idieresis" unicode="ff&#xef;" horiz-adv-x="2068" 
d="M1561 967h-234l-96 -443q-45 -204 -104.5 -366t-125 -272.5t-141 -184t-152.5 -106.5t-159 -33q-101 0 -170.5 40t-69.5 117q0 67 43.5 106.5t110.5 45.5h49q-6 -109 5.5 -164t49.5 -55t64 83q15 47 62 281q3 13 5 25l187 926h-219l-88 -375q-54 -230 -117 -409
t-129.5 -299t-142 -197.5t-150.5 -111.5t-158 -34q-128 0 -209.5 48.5t-81.5 129.5q0 76 48.5 121t123.5 51h78q-17 -260 60 -260q12 0 21.5 4.5t18 16t15 24t13 35t12 43t12 54t12 61t14 72t15.5 79.5l190 947h-141l18 88l148 37q33 107 82.5 193t120 152.5t167.5 103
t213 36.5q98 0 178 -30t124 -83q157 140 376 140q92 0 164.5 -21t121 -72.5t48.5 -126.5q0 -60 -32.5 -105t-92.5 -65h-215q7 40 12 69t9 66t3 63t-5.5 49.5t-17 35.5t-31.5 12q-35 0 -62.5 -39.5t-42.5 -102.5t-21.5 -137t-3.5 -147h312l297 50h73l-208 -826
q-17 -63 -17 -82q0 -30 29 -30q27 0 65 35t97 108l53 -47q-59 -81 -106.5 -134.5t-101 -95.5t-109.5 -61.5t-121 -19.5q-106 0 -164 56.5t-58 143.5q0 75 21 164zM2085 1227q-80 0 -128 49.5t-48 120.5q0 79 51 134.5t137 55.5q80 0 128 -49t48 -119q0 -80 -51 -136
t-137 -56zM864 1485q-56 0 -97 -61t-60.5 -150t-20.5 -191h223q34 115 82 199q0 83 -33.5 143t-93.5 60z" />
    <glyph glyph-name="f_j" unicode="fj" horiz-adv-x="1349" 
d="M899 967h-233l-88 -375q-54 -230 -117.5 -409t-130 -299t-141.5 -197.5t-150 -111.5t-158 -34q-128 0 -209.5 48.5t-81.5 129.5q0 76 48.5 121t123.5 51h78q-17 -260 60 -260q12 0 21.5 4.5t18 16t15 24t13 35t12 43t12 54t12 61t14 72t15.5 79.5l190 947h-141l18 88
l148 37q69 244 240 378t440 134q89 0 168.5 -21.5t135.5 -70.5t56 -117q0 -53 -28.5 -93.5t-81.5 -58.5h-232q15 44 22 89t3.5 85.5t-24 66t-56.5 25.5q-87 0 -143.5 -126t-61.5 -300h307l297 50h74l-133 -609q-45 -204 -104 -366t-124.5 -272.5t-141.5 -184t-153 -106.5
t-159 -33q-101 0 -170.5 40t-69.5 117q0 67 43.5 106.5t110.5 45.5h49q-6 -109 5.5 -164t49.5 -55q10 0 18.5 4.5t16.5 16t14 24t12.5 35t12 43t12.5 54t13 61.5t15 71.5t17 79.5z" />
    <glyph glyph-name="f_f_j" unicode="ffj" horiz-adv-x="2011" 
d="M1561 967h-234l-96 -443q-45 -204 -104.5 -366t-125 -272.5t-141 -184t-152.5 -106.5t-159 -33q-101 0 -170.5 40t-69.5 117q0 67 43.5 106.5t110.5 45.5h49q-6 -109 5.5 -164t49.5 -55t64 83q15 47 62 281q3 13 5 25l187 926h-219l-88 -375q-54 -230 -117 -409
t-129.5 -299t-142 -197.5t-150.5 -111.5t-158 -34q-128 0 -209.5 48.5t-81.5 129.5q0 76 48.5 121t123.5 51h78q-17 -260 60 -260q12 0 21.5 4.5t18 16t15 24t13 35t12 43t12 54t12 61t14 72t15.5 79.5l190 947h-141l18 88l148 37q33 107 82.5 193t120 152.5t167.5 103
t213 36.5q101 0 182 -31.5t124 -85.5q180 144 452 144q89 0 168.5 -21.5t136 -70.5t56.5 -117q0 -53 -29 -93t-82 -59h-231q21 60 26.5 118.5t-14.5 103t-68 44.5q-87 0 -143 -126t-61 -300h307l297 50h73l-133 -609q-45 -204 -104 -366t-124.5 -272.5t-141.5 -184
t-153 -106.5t-159 -33q-100 0 -169.5 40t-69.5 117q0 67 43 106.5t110 45.5h50q-6 -109 5.5 -164t49.5 -55q10 0 18.5 4.5t16.5 16t14 24t12.5 35t12 43t12.5 54t13 61.5t15 71.5t17 79.5zM864 1485q-56 0 -97 -61t-60.5 -150t-20.5 -191h223q31 115 82 201
q0 82 -33.5 141.5t-93.5 59.5z" />
    <glyph glyph-name="f_k" unicode="fk" horiz-adv-x="2004" 
d="M811 967h-141l-113 -504q-106 -479 -273.5 -700.5t-400.5 -221.5q-128 0 -209.5 48.5t-81.5 129.5q0 76 48.5 121t123.5 51h78q-17 -260 60 -260q12 0 21.5 4.5t18 16t15 24t13 35t12 43t12 54t12 61t14 72t15.5 79.5l188 947h-139l18 88l150 37q32 109 82 198.5
t120 161.5t166 112t209 40q157 0 234 -66l336 66h71l-387 -1604h-417l313 1280q-37 229 -152 229q-45 0 -77 -38.5t-47.5 -102t-20.5 -136t0 -149.5h158zM1534 784l188 -434q24 -55 42 -78.5t44 -23.5q25 0 51 20.5t72 75.5l51 -45q-120 -169 -212.5 -244t-196.5 -75
q-81 0 -127 44.5t-82 141.5l-133 385l368 438q62 74 119 109t127 35q84 0 132 -51.5t48 -127.5q0 -155 -172 -213h-24q8 76 -23 120t-94 44q-35 0 -65.5 -15.5t-48 -33t-52.5 -57.5z" />
    <glyph glyph-name="f_f_k" unicode="ffk" horiz-adv-x="2664" 
d="M1466 967h-139l-96 -443q-45 -204 -104.5 -366t-125 -272.5t-141 -184t-152.5 -106.5t-159 -33q-101 0 -170.5 40t-69.5 117q0 67 43.5 106.5t110.5 45.5h49q-6 -109 5.5 -164t49.5 -55t64 83q15 47 62 281q3 13 5 25l187 926h-219l-88 -375q-54 -230 -117 -409
t-129.5 -299t-142 -197.5t-150.5 -111.5t-158 -34q-128 0 -209.5 48.5t-81.5 129.5q0 76 48.5 121t123.5 51h78q-17 -260 60 -260q12 0 21.5 4.5t18 16t15 24t13 35t12 43t12 54t12 61t14 72t15.5 79.5l190 947h-141l18 88l148 37q33 107 82.5 193t120 152.5t167.5 103
t213 36.5q97 0 177 -30t125 -81q151 138 356 138q156 0 233 -66l336 66h72l-387 -1604h-418l313 1280q-37 229 -151 229q-43 0 -75.5 -40t-48 -102.5t-22.5 -137.5t2 -146h152zM2193 784l189 -434q24 -55 42 -78.5t44 -23.5q25 0 51 20.5t72 75.5l51 -45
q-120 -169 -213 -244t-197 -75q-81 0 -127 44.5t-82 141.5l-133 385l369 438q62 74 119 109t127 35q84 0 132 -51.5t48 -127.5q0 -155 -172 -213h-25q8 76 -23 120t-93 44q-35 0 -65.5 -15.5t-48 -33t-52.5 -57.5zM909 1083q31 110 82 201q0 81 -33.5 141t-93.5 60
q-56 0 -97 -61t-60.5 -150t-20.5 -191h223z" />
    <glyph glyph-name=".notdef" horiz-adv-x="1966" 
d="M184 0v1597h1598v-1597h-1598zM983 707l-571 -572h1142zM412 1462l571 -571l571 571h-1142zM891 799l-563 563v-1126zM1075 799l563 -563v1126z" />
    <glyph glyph-name=".null" horiz-adv-x="0" 
 />
    <glyph glyph-name="nonmarkingreturn" horiz-adv-x="682" 
 />
    <glyph glyph-name="space" unicode=" " horiz-adv-x="337" 
 />
    <glyph glyph-name="exclam" unicode="!" horiz-adv-x="624" 
d="M793 1438l-445 -944h-137l37 944h545zM16 190q0 90 61 154t146 64q88 0 148.5 -63.5t60.5 -154.5q0 -87 -61 -148.5t-148 -61.5q-85 0 -146 62t-61 148z" />
    <glyph glyph-name="quotedbl" unicode="&#x22;" horiz-adv-x="790" 
d="M268 915h-32l-9 304q-1 63 -2 116t9.5 101t35.5 77q54 64 144 64q71 0 109 -38.5t38 -96.5q0 -31 -11 -63.5t-22 -51.5t-35.5 -56t-33.5 -52zM653 915h-32l-9 304q-1 63 -2 116t9.5 101t35.5 77q54 64 144 64q71 0 109 -38.5t38 -96.5q0 -31 -11 -63.5t-22 -51.5
t-35.5 -56t-33.5 -52z" />
    <glyph glyph-name="numbersign" unicode="#" horiz-adv-x="1071" 
d="M1014 469h-254l-154 -489l-114 36l143 453h-264l-154 -489l-115 36l144 453h-148v104h181l92 291h-219v105h251l156 491l115 -37l-146 -454h265l155 491l115 -37l-145 -454h149v-105h-182l-92 -291h221v-104zM496 864l-93 -291h265l92 291h-264z" />
    <glyph glyph-name="dollar" unicode="$" horiz-adv-x="1204" 
d="M1147 487q0 -119 -46.5 -214t-128.5 -156.5t-191.5 -95.5t-239.5 -39l-43 -213h-92l43 213q-147 8 -269 59.5t-188 116.5l67 350h105q0 -171 81.5 -283.5t227.5 -130.5l86 420l-63 33q-78 38 -132.5 74t-103.5 85.5t-73.5 113t-24.5 141.5q0 229 162 361.5t434 135.5
l43 209h90l-45 -213q121 -11 223 -54.5t160 -99.5l-66 -311h-100q0 139 -61.5 233.5t-178.5 120.5l-86 -417l27 -13q68 -34 112.5 -59.5t101 -67t89.5 -81.5t56.5 -97t23.5 -121zM526 1155q0 -60 31 -101.5t98 -82.5l80 381q-89 -3 -149 -58t-60 -139zM772 295q0 52 -32 93
t-97 81l-78 -375q91 9 149 61.5t58 139.5z" />
    <glyph glyph-name="percent" unicode="%" horiz-adv-x="1615" 
d="M567 1458q130 0 217.5 -76.5t87.5 -218.5q0 -101 -37.5 -183.5t-99 -134t-135.5 -79t-151 -27.5q-130 0 -218 76.5t-88 218.5q0 81 25 151t66.5 119t96.5 84.5t115 52.5t121 17zM561 1382q-47 0 -87 -61t-62.5 -159.5t-22.5 -207.5q0 -69 15 -104t51 -35q47 0 87 61
t62.5 159.5t22.5 207.5q0 69 -15 104t-51 35zM1110 -20q-130 0 -217.5 76t-87.5 218q0 81 25 151t66.5 119t96.5 84.5t115 52.5t121 17q130 0 217.5 -76.5t87.5 -218.5q0 -81 -25 -151t-66.5 -119t-96.5 -84t-115 -52t-121 -17zM1520 1458l-1241 -1478h-123l1243 1478h121z
M1116 55q47 0 87 61t62.5 159.5t22.5 207.5q0 69 -14.5 104.5t-50.5 35.5q-47 0 -87 -61t-62.5 -159.5t-22.5 -207.5q0 -69 14.5 -104.5t50.5 -35.5z" />
    <glyph glyph-name="ampersand" unicode="&#x26;" horiz-adv-x="1519" 
d="M20 365q0 317 412 417q-65 130 -65 271q0 177 141 291t369 114q188 0 294.5 -78.5t106.5 -210.5q0 -67 -30.5 -124.5t-85 -100.5t-121 -74t-148.5 -53l227 -366q51 87 51 174q0 31 -18 44t-61 13l18 94h430l-18 -94q-74 0 -117 -13t-71 -43t-54 -91q-44 -99 -102 -177
l69 -110q26 -41 40 -60t40.5 -46t57 -38.5t69.5 -11.5l-18 -92h-471q-61 45 -99 86q-192 -106 -407 -106q-188 0 -313.5 105.5t-125.5 279.5zM684 164q48 0 104 18q-28 45 -45 74l-266 451q-90 -86 -90 -248q0 -134 80.5 -214.5t216.5 -80.5zM731 1192q0 -120 109 -287
l12 -22q133 90 133 288q0 93 -35 144t-100 51q-58 0 -88.5 -46.5t-30.5 -127.5z" />
    <glyph glyph-name="quotesingle" unicode="'" horiz-adv-x="405" 
d="M268 915h-32l-9 304q-1 63 -2 116t9.5 101t35.5 77q54 64 144 64q71 0 109 -38.5t38 -96.5q0 -31 -11 -63.5t-22 -51.5t-35.5 -56t-33.5 -52z" />
    <glyph glyph-name="parenleft" unicode="(" horiz-adv-x="774" 
d="M141 426q0 170 55.5 339t153 315.5t225 272.5t277.5 224h121q-143 -140 -251 -307.5t-170.5 -336.5t-93 -329.5t-30.5 -312.5q0 -333 147 -582h-120q-151 134 -232.5 321.5t-81.5 395.5z" />
    <glyph glyph-name="parenright" unicode=")" horiz-adv-x="774" 
d="M702 860q0 -170 -55.5 -339t-153 -315.5t-224.5 -272.5t-277 -224h-121q143 140 251 307.5t170.5 336.5t93 329.5t30.5 312.5q0 332 -148 582h121q151 -134 232 -321t81 -396z" />
    <glyph glyph-name="asterisk" unicode="*" horiz-adv-x="925" 
d="M891 1108l-266 20l229 -137q66 -37 76.5 -91t-33.5 -93q-39 -40 -92 -23t-86 84l-115 238l-2 -264q-1 -75 -41.5 -111t-95.5 -18q-57 18 -69.5 69.5t30.5 114.5l149 219l-231 -129q-66 -37 -117.5 -20.5t-62.5 73.5q-12 59 26.5 95t114.5 30l264 -18l-227 135
q-66 37 -76.5 91t33.5 93q39 40 92 23t86 -84l115 -240l2 267q1 75 41.5 111t95.5 18q57 -18 69.5 -70t-30.5 -115l-152 -221l234 131q66 37 117.5 20.5t62.5 -73.5q12 -59 -26.5 -95t-114.5 -30z" />
    <glyph glyph-name="plus" unicode="+" horiz-adv-x="1179" 
d="M651 1210h150l-82 -381h383l-33 -147h-381l-80 -381h-149l80 381h-379l33 147h376z" />
    <glyph glyph-name="comma" unicode="," horiz-adv-x="577" 
d="M240 10h-82q-162 40 -162 193q0 90 60.5 144t152.5 54q105 0 164 -68t59 -179q0 -179 -140.5 -294.5t-361.5 -111.5v92q128 8 214 49.5t96 120.5z" />
    <glyph glyph-name="hyphen" unicode="-" horiz-adv-x="655" 
d="M580 547h-533l41 176h533z" />
    <glyph glyph-name="period" unicode="." horiz-adv-x="577" 
d="M-4 207q0 100 65.5 164.5t161.5 64.5q97 0 162.5 -64.5t65.5 -164.5t-65.5 -163.5t-162.5 -63.5t-162 63.5t-65 163.5z" />
    <glyph glyph-name="slash" unicode="/" horiz-adv-x="735" 
d="M946 1577l-952 -1866h-180l950 1866h182z" />
    <glyph glyph-name="zero" unicode="0" horiz-adv-x="1386" 
d="M600 -20q-227 0 -376.5 162t-149.5 409q0 137 35.5 270t105.5 247.5t165 202t222.5 137.5t269.5 50q150 0 270.5 -73.5t188.5 -204t68 -293.5q0 -114 -25.5 -226.5t-73 -213t-118.5 -186t-158 -148t-196 -98t-228 -35.5zM600 74q60 0 118 85.5t101.5 217.5t78 283.5
t52 289.5t17.5 230q0 89 -20.5 136.5t-74.5 47.5q-60 0 -118 -85.5t-101.5 -217.5t-77.5 -283.5t-51.5 -289.5t-17.5 -230q0 -89 20 -136.5t74 -47.5z" />
    <glyph glyph-name="one" unicode="1" horiz-adv-x="917" 
d="M811 1456h98l-260 -1210q-8 -35 -10.5 -57.5t2 -41t14.5 -28t32.5 -16t50.5 -8.5t73 -3l-20 -92h-822l21 92q35 0 59 1t44.5 5.5t33 7t24 13t17 16.5t12 25t9 30t8.5 39q0 2 0.5 3t1 3t0.5 3l178 837h-211l18 88l92 15q306 49 535 278z" />
    <glyph glyph-name="two" unicode="2" horiz-adv-x="1136" 
d="M362 352h295q60 0 96.5 4t71 14t63.5 34.5t59 58.5t73 92h76l-189 -555h-997l16 72q319 271 483.5 435t233 278.5t68.5 222.5q0 88 -52.5 135t-142.5 47q-178 0 -291 -123l-39 53q90 150 232.5 244t322.5 94q194 0 299 -95.5t105 -260.5q0 -46 -11.5 -90t-29.5 -82
t-50.5 -78t-64 -72.5t-81 -71.5t-90.5 -68t-104 -69.5t-110 -69.5t-119.5 -73.5t-122.5 -75.5z" />
    <glyph glyph-name="three" unicode="3" horiz-adv-x="1136" 
d="M344 743q193 51 293 125.5t100 192.5q0 67 -43.5 109t-120.5 42q-140 0 -262 -122l-41 53q88 141 226 228t305 87q166 0 262 -77.5t96 -202.5q0 -67 -27.5 -123t-70.5 -94.5t-102.5 -69t-117.5 -48.5t-122 -30q152 -12 260 -111.5t108 -236.5q0 -95 -36 -175.5
t-98 -136.5t-145 -95.5t-176 -58.5t-192 -19q-211 0 -334.5 86t-123.5 219q0 66 38 111t99 67h223q-31 -67 -31 -156q0 -61 12.5 -113t44.5 -90t78 -38q45 0 83.5 27t63 68.5t42.5 93t25.5 99.5t7.5 88q0 238 -213 238q-40 0 -101 -14z" />
    <glyph glyph-name="four" unicode="4" horiz-adv-x="1343" 
d="M195 483h438l133 631zM578 227l28 138h-610l16 77l903 996h355l-203 -955h231l-26 -118h-232l-28 -138q-18 -80 4.5 -105.5t124.5 -29.5l-21 -92h-747l20 92q71 3 106 15.5t51 38t28 81.5z" />
    <glyph glyph-name="five" unicode="5" horiz-adv-x="1118" 
d="M432 1077l-37 -119q146 -1 264.5 -28t211.5 -82.5t144.5 -149.5t51.5 -221q0 -153 -80 -267.5t-214.5 -172t-303.5 -57.5q-213 0 -342 78.5t-129 211.5q0 65 35 115.5t96 67.5h205q-21 -73 -21 -131q0 -109 60 -181.5t149 -72.5q86 0 137.5 56.5t51.5 149.5
q0 112 -70 186.5t-190 109t-289 36.5l287 832h569q54 0 77.5 14.5t61.5 71.5h88l-158 -447h-655z" />
    <glyph glyph-name="six" unicode="6" horiz-adv-x="1275" 
d="M1247 1391q-249 -30 -418 -173.5t-256 -373.5q141 98 297 98q178 0 280.5 -102t102.5 -269q0 -127 -51.5 -238t-139.5 -188t-208 -121t-254 -44q-231 0 -378.5 143.5t-147.5 384.5q0 192 92 367.5t246.5 303t368.5 203.5t448 76zM662 807q-52 0 -107 -19
q-66 -204 -66 -452q0 -262 121 -262q64 0 120 69t88 177.5t32 224.5q0 120 -46 191t-142 71z" />
    <glyph glyph-name="seven" unicode="7" horiz-adv-x="1097" 
d="M938 1024h-500q-71 0 -117.5 -34t-99.5 -130h-90l211 578h965l-19 -86l-854 -1352h-260z" />
    <glyph glyph-name="eight" unicode="8" horiz-adv-x="1234" 
d="M1247 1137q0 -68 -29.5 -122t-79 -87t-107.5 -51.5t-120 -20.5l19 -8q105 -58 169 -153t64 -220q0 -151 -80.5 -265t-215.5 -172t-304 -58q-234 0 -389.5 100t-155.5 260q0 91 51 159t133.5 103t186.5 39l-12 8q-168 127 -168 344q0 199 161 332t410 133q210 0 338.5 -90
t128.5 -231zM668 463l-234 147q-125 -74 -125 -270q0 -120 73 -195t193 -75q110 0 179 55t69 143q0 61 -33.5 99.5t-121.5 95.5zM680 999l180 -114q60 37 91.5 116.5t31.5 157.5q0 96 -58 152.5t-157 56.5q-94 0 -152.5 -52t-58.5 -140q0 -57 30 -97.5t93 -79.5z" />
    <glyph glyph-name="nine" unicode="9" horiz-adv-x="1275" 
d="M115 47q248 28 417 172t254 373q-135 -96 -294 -96q-178 0 -280.5 101.5t-102.5 268.5q0 169 88 305.5t237 211.5t328 75q231 0 378.5 -143.5t147.5 -384.5q0 -192 -92 -367.5t-246.5 -303t-368.5 -203.5t-448 -76zM700 631q58 0 107 16q65 210 65 455q0 262 -120 262
q-64 0 -120 -69t-88 -177.5t-32 -224.5q0 -120 46 -191t142 -71z" />
    <glyph glyph-name="colon" unicode=":" horiz-adv-x="577" 
d="M-4 207q0 100 65.5 164.5t161.5 64.5q97 0 162.5 -64.5t65.5 -164.5t-65.5 -163.5t-162.5 -63.5t-162 63.5t-65 163.5zM125 823q0 100 65.5 165t161.5 65t162 -65t66 -165t-65.5 -163.5t-162.5 -63.5t-162 63.5t-65 163.5z" />
    <glyph glyph-name="semicolon" unicode=";" horiz-adv-x="577" 
d="M240 10h-82q-162 40 -162 193q0 90 60.5 144t152.5 54q105 0 164 -68t59 -179q0 -179 -140.5 -294.5t-361.5 -111.5v92q128 8 214 49.5t96 120.5zM125 823q0 100 65.5 165t161.5 65t162 -65t66 -165t-65.5 -163.5t-162.5 -63.5t-162 63.5t-65 163.5z" />
    <glyph glyph-name="less" unicode="&#x3c;" horiz-adv-x="876" 
d="M127 741l6 21l735 399l-39 -182l-446 -231l346 -238l-35 -168z" />
    <glyph glyph-name="equal" unicode="=" horiz-adv-x="1200" 
d="M139 535l31 141h911l-30 -141h-912zM203 836l30 143h912l-31 -143h-911z" />
    <glyph glyph-name="greater" unicode="&#x3e;" horiz-adv-x="876" 
d="M829 762l-6 -21l-735 -399l39 182l446 232l-346 237l35 168z" />
    <glyph glyph-name="question" unicode="?" horiz-adv-x="976" 
d="M547 985q54 31 87 53.5t68.5 55t52.5 71t17 84.5q0 57 -28 89t-82 32q-73 0 -111.5 -59.5t-38.5 -151.5q0 -41 10 -96h-274q-55 49 -55 121q0 87 61 150.5t159.5 93.5t221.5 30q219 0 335.5 -95t116.5 -255q0 -139 -79.5 -229.5t-229.5 -159.5q-53 -25 -81 -39t-65 -36
t-55 -39.5t-31.5 -41t-13.5 -49.5q0 -8 5 -33h-62q-73 28 -114.5 81.5t-41.5 131.5q0 87 51 153.5t177 137.5zM213 190q0 90 61 154t146 64q88 0 148.5 -63.5t60.5 -154.5q0 -87 -61 -148.5t-148 -61.5q-85 0 -146 62t-61 148z" />
    <glyph glyph-name="at" unicode="@" horiz-adv-x="1830" 
d="M1249 158q-64 0 -111.5 17t-74.5 47t-42.5 71t-15 87.5t8.5 96.5q-76 -156 -156.5 -237.5t-187.5 -81.5q-93 0 -154 70t-61 190q0 103 42 208.5t112.5 190t172.5 138t213 53.5q67 0 115 -25.5t74 -60.5l159 65h95l-72 -192l-125 -392q-25 -69 -12 -117t67 -48q40 0 81 23
t78 68t66.5 106.5t46.5 144.5t17 176q0 111 -40.5 214.5t-114 183.5t-186 128.5t-245.5 48.5q-163 0 -299.5 -63t-228 -171t-142 -254.5t-50.5 -312.5q0 -137 36.5 -251.5t101 -194.5t153 -135.5t192 -82t219.5 -26.5q163 0 291 37.5t262 118.5l29 -43q-233 -217 -627 -217
q-134 0 -257.5 31.5t-230 97t-185.5 158t-124 221.5t-45 280q0 247 116.5 451.5t324.5 324t464 119.5q175 0 321 -55t241 -147t147.5 -211t52.5 -250q0 -125 -33.5 -229t-86.5 -170.5t-121.5 -113t-136.5 -66t-134 -19.5zM809 356q55 0 114 74t105.5 190.5t73.5 247.5
q-23 64 -82 64q-54 0 -106 -49t-87.5 -121.5t-57 -156t-21.5 -152.5q0 -97 61 -97z" />
    <glyph glyph-name="A" unicode="A" horiz-adv-x="1546" 
d="M877 264l-31 168h-506l-96 -168q-35 -64 -35 -94q0 -37 34 -54.5t113 -23.5l-20 -92h-449l21 92q47 5 78.5 21t54.5 55l647 1092l-33 178h463l232 -1270q7 -36 32.5 -52t73.5 -24l-20 -92h-754l20 92q88 3 134.5 26t46.5 79q0 36 -6 67zM727 1098l-317 -547h415z" />
    <glyph glyph-name="B" unicode="B" horiz-adv-x="1476" 
d="M750 680h-66l-94 -438q-18 -82 4.5 -111t97.5 -29h15q117 0 199.5 98t82.5 269q0 100 -58 155.5t-181 55.5zM850 1335h-27l-112 -534h28q139 0 226.5 88t87.5 252q0 94 -47 144t-156 50zM-49 0l20 92q54 5 81.5 11.5t46 24t25.5 37.5t17 64l209 979q20 78 1.5 103
t-113.5 35l20 92h774q217 0 325.5 -80t108.5 -217q0 -75 -27.5 -139.5t-73.5 -109t-105.5 -76.5t-122.5 -47.5t-127 -16.5q170 -6 289.5 -95t119.5 -227q0 -106 -49.5 -189.5t-137 -135t-201.5 -78.5t-247 -27h-833z" />
    <glyph glyph-name="C" unicode="C" horiz-adv-x="1421" 
d="M1010 1458q132 0 256.5 -36t195.5 -91l-69 -364h-103q-16 389 -262 389q-96 0 -179.5 -59t-140.5 -153t-98.5 -211t-60.5 -233.5t-19 -220.5q0 -387 232 -387q254 0 471 443h125l-127 -424q-214 -131 -498 -131q-305 0 -482 166.5t-177 437.5q0 252 122.5 452.5t336 311
t477.5 110.5z" />
    <glyph glyph-name="D" unicode="D" horiz-adv-x="1624" 
d="M676 102h12q97 0 189.5 78t156.5 199t103 269t39 286q0 208 -76 304.5t-254 96.5h-23l-231 -1089q-20 -87 -1 -115.5t85 -28.5zM666 0h-715l20 92q54 5 81.5 11.5t46 24t25.5 37.5t17 64l209 979q20 78 1.5 103t-113.5 35l20 92h660q151 0 280 -37.5t225.5 -108.5
t151.5 -182.5t55 -251.5q0 -153 -49 -288.5t-138 -238.5t-208.5 -178t-265 -114t-303.5 -39z" />
    <glyph glyph-name="E" unicode="E" horiz-adv-x="1380" 
d="M1161 0h-1210l20 92q54 5 81.5 11.5t46 24t25.5 37.5t17 64l209 979q20 78 1.5 103t-113.5 35l20 92h1198l-78 -408h-80q-15 68 -24.5 104t-25 77t-32 59.5t-43.5 36t-62 23t-85 5.5h-203l-112 -532h170q70 0 104.5 39.5t71.5 150.5h96l-109 -504h-96q11 112 -6.5 151.5
t-87.5 39.5h-170l-94 -440q-18 -80 13.5 -109t115.5 -29h45q57 0 100 10.5t80 32.5t77 64.5t82.5 96t105.5 137.5q5 7 8.5 12t7.5 10h102z" />
    <glyph glyph-name="F" unicode="F" horiz-adv-x="1288" 
d="M776 0h-825l20 92q54 5 81.5 11.5t46 24t25.5 37.5t17 64l209 979q20 78 1.5 103t-113.5 35l20 92h1184l-80 -424h-80q-15 78 -27.5 123t-32.5 88.5t-47 64t-68.5 33t-100.5 12.5h-183l-116 -547h155q70 0 104.5 40t71.5 151h97l-107 -504h-96q11 112 -6.5 151.5
t-87.5 39.5h-156l-94 -437q-17 -76 27 -103.5t180 -33.5z" />
    <glyph glyph-name="G" unicode="G" horiz-adv-x="1542" 
d="M791 92q47 0 88 10l75 353q20 78 1.5 102.5t-113.5 34.5l20 92h701l-21 -92q-53 -5 -80 -11.5t-45 -24t-24.5 -37t-16.5 -64.5l-73 -340q-124 -69 -254.5 -102t-294.5 -33q-307 0 -493.5 166t-186.5 434q0 189 75 353.5t203 279t304.5 180t373.5 65.5q132 0 257 -36
t196 -91l-70 -364h-102q-16 389 -262 389q-96 0 -181.5 -59.5t-146 -154t-104.5 -212t-65.5 -235t-21.5 -220.5q0 -182 70 -282.5t191 -100.5z" />
    <glyph glyph-name="H" unicode="H" horiz-adv-x="1767" 
d="M141 229l209 979q20 78 1.5 103t-113.5 35l20 92h731l-20 -92q-53 -5 -80.5 -12t-46 -24t-26 -37.5t-17.5 -64.5l-88 -413h473l88 413q20 78 1.5 103t-114.5 35l21 92h731l-21 -92q-53 -5 -80.5 -12t-46 -24t-26 -37.5t-17.5 -64.5l-209 -979q-20 -78 -1.5 -102.5
t114.5 -34.5l-20 -92h-732l21 92q53 5 80.5 11.5t46.5 24t26 37.5t17 64l92 426h-473l-92 -426q-20 -78 -1.5 -102.5t113.5 -34.5l-20 -92h-731l20 92q53 5 80.5 11.5t46.5 24t26 37.5t17 64z" />
    <glyph glyph-name="I" unicode="I" horiz-adv-x="845" 
d="M141 229l209 979q20 78 1.5 103t-113.5 35l20 92h731l-20 -92q-53 -5 -80.5 -12t-46 -24t-26 -37.5t-17.5 -64.5l-209 -979q-20 -78 -1 -102.5t113 -34.5l-20 -92h-731l20 92q54 5 81.5 11.5t46 24t25.5 37.5t17 64z" />
    <glyph glyph-name="J" unicode="J" horiz-adv-x="1245" 
d="M588 344l184 864q20 78 1.5 103t-114.5 35l21 92h731l-20 -92q-53 -5 -80.5 -12t-46 -24t-26 -37.5t-17.5 -64.5l-166 -770q-54 -249 -211 -353.5t-443 -104.5q-207 0 -330.5 75.5t-123.5 198.5q0 162 168 238h274q-67 -163 -67 -279q0 -139 100 -139q30 0 53.5 14
t39.5 35t30 59t23 72.5t20 89.5z" />
    <glyph glyph-name="K" unicode="K" horiz-adv-x="1591" 
d="M1106 874l264 -653q27 -62 55 -91.5t86 -37.5l-18 -92h-485q-68 73 -138 250l-165 446l571 490q28 24 41.5 37t26 33t12.5 38q0 26 -25 37.5t-100 14.5l20 92h504l-20 -92q-66 -5 -103.5 -18.5t-81.5 -53.5zM799 1208l-209 -979q-20 -78 -1 -102.5t113 -34.5l-20 -92
h-731l20 92q54 5 81.5 11.5t46 24t25.5 37.5t17 64l209 979q20 78 1.5 103t-113.5 35l20 92h731l-20 -92q-53 -5 -80.5 -12t-46 -24t-26 -37.5t-17.5 -64.5z" />
    <glyph glyph-name="L" unicode="L" horiz-adv-x="1359" 
d="M797 1208l-207 -968q-17 -81 11 -109.5t110 -28.5h43q100 0 203 82.5t284 321.5h96l-186 -506h-1200l20 92q54 5 81.5 11.5t46 24t25.5 37.5t17 64l209 979q20 78 1.5 103t-113.5 35l20 92h729l-20 -92q-53 -5 -80.5 -12t-46 -24t-26 -37.5t-17.5 -64.5z" />
    <glyph glyph-name="M" unicode="M" horiz-adv-x="2031" 
d="M1362 274l61 746l-569 -1020h-170l-147 1020l-269 -778q-24 -84 9 -112.5t159 -37.5l-20 -92h-522l20 92q91 5 132.5 30.5t66.5 94.5l340 979q17 82 -12.5 114t-131.5 36l21 92h598q-7 -52 4 -135l102 -738l400 740q5 9 18.5 34t18.5 35.5t13 28.5t13 35h600l-20 -92
q-102 -4 -145 -36t-60 -114l-78 -979q-3 -72 28.5 -96t121.5 -29l-21 -92h-788l20 92q115 6 155 39t52 143z" />
    <glyph glyph-name="N" unicode="N" horiz-adv-x="1556" 
d="M1260 639l122 569q17 77 -19 103t-161 35l21 92h497l-20 -92q-53 -5 -81 -11.5t-46.5 -24.5t-25.5 -37.5t-17 -64.5l-256 -1208h-158l-647 1065l-178 -836q-17 -76 18.5 -102t161.5 -35l-20 -92h-498l20 92q54 5 81.5 11.5t46 24t25.5 37.5t17 64l211 994
q-35 68 -55 91.5t-61 31.5l20 92h533z" />
    <glyph glyph-name="O" unicode="O" horiz-adv-x="1576" 
d="M969 1458q140 0 256 -44.5t194 -122t121 -183t43 -227.5q0 -139 -39.5 -271.5t-117.5 -246t-184.5 -199.5t-249.5 -135t-304 -49q-140 0 -256 44.5t-194 122t-121 183t-43 227.5q0 139 39.5 271.5t117.5 246t184.5 199.5t249.5 135t304 49zM956 1352q-78 0 -147.5 -70.5
t-118 -179.5t-84 -240t-52.5 -253.5t-17 -217.5q0 -146 37.5 -225.5t125.5 -79.5q78 0 148 70.5t118 179.5t84 240t53 253.5t17 217.5q0 147 -37.5 226t-126.5 79z" />
    <glyph glyph-name="P" unicode="P" horiz-adv-x="1439" 
d="M258 1438h737q239 0 376.5 -102.5t137.5 -268.5q0 -106 -36 -192.5t-100.5 -147t-155.5 -101.5t-198 -60t-231 -19h-133l-67 -318q-17 -76 28 -103.5t181 -33.5l-21 -92h-825l20 92q54 5 81.5 11.5t46 24t25.5 37.5t17 64l209 979q20 78 1.5 103t-113.5 35zM823 1335
l-143 -671h27q70 0 135 25.5t117 74t83 127t31 176.5q0 126 -57 197t-166 71h-27z" />
    <glyph glyph-name="Q" unicode="Q" horiz-adv-x="1576" 
d="M969 1458q140 0 256 -44.5t194 -122t121 -183t43 -227.5q0 -154 -50 -299.5t-140 -265t-225.5 -204.5t-297.5 -116l146 -123q65 -56 119.5 -77t138.5 -21l-8 -39q-48 -54 -127 -86.5t-176 -32.5q-113 0 -198.5 54.5t-139.5 152.5l-95 172q-212 42 -334 195.5t-122 365.5
q0 139 39.5 271.5t117.5 246t184.5 199.5t249.5 135t304 49zM956 1352q-78 0 -147.5 -70.5t-118 -179.5t-84 -240t-52.5 -253.5t-17 -217.5q0 -323 161 -323q78 0 148 72t118.5 184t84.5 245.5t53.5 258t17.5 219.5q0 147 -37.5 226t-126.5 79z" />
    <glyph glyph-name="R" unicode="R" horiz-adv-x="1562" 
d="M856 1329h-35l-131 -624h45q73 0 135.5 23t113 68.5t79.5 123t29 178.5q0 105 -58 168t-178 63zM666 594l-78 -365q-20 -78 -1 -102.5t113 -34.5l-18 -92h-731l20 92q54 5 81.5 11.5t46 24t25.5 37.5t17 64l209 979q20 78 1.5 103t-113.5 35l20 92h801q120 0 212 -27
t147.5 -75t83.5 -110t28 -136t-27 -140t-69 -112.5t-97 -84t-106 -59.5t-101 -35l191 -401q24 -52 38.5 -78t34 -48t41.5 -30t56 -10l-18 -92h-480q-64 59 -125 225l-133 369h-69z" />
    <glyph glyph-name="S" unicode="S" horiz-adv-x="1226" 
d="M1155 494q0 -124 -50.5 -223t-138.5 -162t-205.5 -96t-254.5 -33q-161 0 -297.5 53.5t-208.5 124.5l68 350h104q0 -186 96 -301t262 -115q104 0 169 52.5t65 150.5q0 76 -58 126t-202 120q-78 38 -132.5 74t-103.5 85t-73.5 112.5t-24.5 141.5q0 232 165.5 368t438.5 136
q145 0 270.5 -46.5t192.5 -111.5l-66 -311h-100q0 163 -82 263t-237 100q-90 0 -145.5 -54.5t-55.5 -142.5q0 -43 11.5 -73.5t42.5 -58.5t66 -49t101 -54q68 -34 112.5 -59.5t101 -67t89.5 -81.5t56.5 -97t23.5 -121z" />
    <glyph glyph-name="T" unicode="T" horiz-adv-x="1509" 
d="M1155 1350l-242 -1131q-6 -27 -7.5 -44.5t4.5 -31.5t14.5 -21.5t29 -13.5t40.5 -9t57 -7l-21 -92h-772l21 92q106 11 137.5 31t48.5 96l242 1131h-50q-37 0 -71 -15.5t-65.5 -41.5t-76 -83t-87 -117t-115.5 -165q-11 -17 -17 -25h-100l145 535h1358l-84 -535h-92
q-67 258 -77 289q-35 111 -80 140q-28 18 -70 18h-70z" />
    <glyph glyph-name="U" unicode="U" horiz-adv-x="1568" 
d="M1255 551l140 657q7 33 7.5 53.5t-6.5 36.5t-27.5 24.5t-51.5 14t-82 9.5l20 92h480l-21 -92q-53 -5 -80.5 -12t-46 -24t-26 -37.5t-17.5 -64.5l-149 -698q-56 -267 -224 -398.5t-434 -131.5q-305 0 -454.5 169t-89.5 443l133 616q20 78 1.5 103t-114.5 35l20 92h732
l-21 -92q-53 -5 -80.5 -12t-46 -24t-26 -37.5t-17.5 -64.5l-137 -637q-20 -81 -13 -154.5t34 -128.5t86.5 -87.5t144.5 -32.5q142 0 232 88t134 295z" />
    <glyph glyph-name="V" unicode="V" horiz-adv-x="1482" 
d="M903 512l408 662q47 78 47 110q0 30 -27 44t-104 18l20 92h434l-20 -92q-53 -6 -82.5 -21.5t-54.5 -54.5l-805 -1276h-131l-301 1276q-8 38 -31 52.5t-72 23.5l21 92h733l-20 -92q-95 -5 -132.5 -26.5t-37.5 -72.5q0 -31 10 -76z" />
    <glyph glyph-name="W" unicode="W" horiz-adv-x="2043" 
d="M1495 1149l64 -578l309 559q53 93 53 148q0 34 -22 49.5t-91 18.5l21 92h414l-21 -92q-53 -6 -83.5 -22.5t-51.5 -53.5l-725 -1276h-137l-109 807l-469 -807h-137l-223 1276q-11 59 -103 76l21 92h678l-21 -92q-62 -6 -87 -31t-25 -80q0 -39 8 -86l96 -584l240 412
l-39 293q-5 34 -24 51.5t-60 24.5l20 92h631l-20 -92q-65 -7 -89 -32.5t-24 -84.5q0 -33 6 -80z" />
    <glyph glyph-name="X" unicode="X" horiz-adv-x="1511" 
d="M809 246l-150 323l-358 -352q-31 -36 -31 -63q0 -31 33.5 -45t110.5 -17l-19 -92h-501l18 92q99 14 151 66l543 528l-272 594q-23 50 -101 66l21 92h719l-21 -92q-114 0 -114 -70q0 -27 24 -84l101 -225l258 254q30 35 30 63q0 31 -26 45t-90 17l18 92h475l-18 -92
q-105 -15 -156 -66l-440 -426l303 -676q20 -42 44 -60t66 -26l-18 -92h-750l19 92q39 2 62 4.5t47.5 10t35.5 21.5t11 36q0 27 -25 82z" />
    <glyph glyph-name="Y" unicode="Y" horiz-adv-x="1454" 
d="M975 528l-66 -309q-6 -27 -7.5 -44.5t4.5 -31.5t14.5 -21.5t29 -13.5t40.5 -9t57 -7l-21 -92h-762l21 92q106 11 137.5 31t48.5 96l64 299l-248 752q-13 40 -34 54t-69 22l21 92h723l-21 -92q-80 -5 -115.5 -28.5t-35.5 -72.5q0 -36 26 -112l154 -457l326 469
q24 35 36 53.5t23.5 43.5t11.5 42q0 59 -123 62l21 92h422l-21 -92q-47 -8 -78.5 -24.5t-56.5 -51.5z" />
    <glyph glyph-name="Z" unicode="Z" horiz-adv-x="1343" 
d="M463 102h215q67 0 116.5 14.5t109.5 60t123 116.5t161 196h98l-178 -489h-1180l17 80l977 1255h-195q-135 0 -205 -61.5t-211 -271.5q-11 -15 -16 -23h-96l118 459h1145l-18 -80z" />
    <glyph glyph-name="bracketleft" unicode="[" horiz-adv-x="700" 
d="M623 1368l-308 -1448q-5 -23 -5 -39.5t3 -29t15 -21t24 -14t37.5 -9.5t48 -5.5t62.5 -4.5l-17 -86h-465l396 1866h465l-19 -86q-133 -8 -176 -27.5t-61 -95.5z" />
    <glyph glyph-name="backslash" unicode="\" horiz-adv-x="735" 
d="M420 -289l-162 1866h164l162 -1866h-164z" />
    <glyph glyph-name="bracketright" unicode="]" horiz-adv-x="700" 
d="M147 -80l308 1448q5 23 5 39.5t-3 29t-15 21t-23.5 14t-37.5 9.5t-48.5 6t-62.5 4l19 86h465l-396 -1866h-464l16 86q135 8 178 27.5t59 95.5z" />
    <glyph glyph-name="asciicircum" unicode="^" horiz-adv-x="962" 
d="M784 1577l213 -594h-149l-162 473l-362 -473h-166l463 594h163z" />
    <glyph glyph-name="underscore" unicode="_" horiz-adv-x="860" 
d="M666 -305h-777l33 170h778z" />
    <glyph glyph-name="grave" unicode="`" 
d="M303 1569h371l45 -334h-119l-297 313v21z" />
    <glyph glyph-name="a" unicode="a" horiz-adv-x="1396" 
d="M518 262q73 0 187 199t196 491q-5 35 -29 59.5t-59 24.5q-67 0 -135.5 -65t-117.5 -162.5t-80 -211.5t-31 -210q0 -125 69 -125zM705 186q0 72 51 240q-115 -224 -223 -335t-246 -111q-121 0 -190.5 88.5t-69.5 244.5q0 93 24.5 190.5t69 188t110.5 171t145.5 140.5
t179 95t204.5 35q163 0 264 -109l254 109h84l-82 -285l-133 -541q-17 -79 -17 -82q0 -30 29 -30q27 0 65 35t97 108l53 -47q-59 -81 -106.5 -134.5t-101 -95.5t-109.5 -61.5t-121 -19.5q-107 0 -169 55.5t-62 150.5z" />
    <glyph glyph-name="b" unicode="b" horiz-adv-x="1339" 
d="M774 1604l-237 -986q51 104 107 190.5t124 162.5t147 119t160 43q238 0 238 -322q0 -162 -58.5 -314t-158.5 -266t-242 -182.5t-299 -68.5q-167 0 -317 67.5t-213 177.5l284 1161l-98 56l14 69l477 93h72zM823 854q-57 0 -140.5 -113.5t-155 -278t-99.5 -308.5
q4 -39 30 -61.5t64 -22.5q67 0 134.5 71.5t115 176t77.5 221.5t30 209q0 106 -56 106z" />
    <glyph glyph-name="c" unicode="c" horiz-adv-x="1005" 
d="M719 1047q-61 0 -123 -93t-100.5 -230.5t-38.5 -262.5q0 -131 38 -194.5t117 -63.5q62 0 122 34.5t136 118.5l48 -47q-91 -156 -218.5 -242.5t-277.5 -86.5q-173 0 -279 110.5t-106 300.5q0 109 34.5 217.5t100 202.5t152 166.5t198 114t230.5 41.5q131 0 211.5 -50.5
t80.5 -156.5q0 -66 -40.5 -114t-108.5 -69h-125q11 66 15 114.5t1.5 94.5t-19.5 70.5t-48 24.5z" />
    <glyph glyph-name="d" unicode="d" horiz-adv-x="1402" 
d="M518 262q73 0 187 199t196 491q-5 35 -29 59.5t-59 24.5q-67 0 -135.5 -65t-117.5 -162.5t-80 -211.5t-31 -210q0 -125 69 -125zM938 1094l68 292l-99 56l15 69l477 93h71l-311 -1297q-16 -74 -16 -82q0 -30 28 -30q27 0 65 35t97 108l53 -47q-59 -81 -106.5 -134.5
t-101 -95.5t-109.5 -61.5t-121 -19.5q-107 0 -169 55.5t-62 150.5q0 79 49 240q-114 -221 -227 -333.5t-252 -112.5q-121 0 -190.5 88.5t-69.5 244.5q0 112 34 228.5t99 221.5t152 188.5t201.5 132.5t238.5 49q109 0 186 -39z" />
    <glyph glyph-name="e" unicode="e" horiz-adv-x="1064" 
d="M1085 889q0 -66 -30.5 -120t-83.5 -94t-134.5 -71t-174.5 -52t-211 -38v-31q0 -134 57 -203t160 -69q75 0 143 38.5t143 119.5l50 -47q-221 -342 -562 -342q-177 0 -290 115t-113 306q0 139 55 271.5t149 234.5t230.5 164t288.5 62q158 0 240.5 -69t82.5 -175zM729 1047
q-56 0 -113.5 -72t-98.5 -177t-58 -212q164 40 249 137.5t85 230.5q0 93 -64 93z" />
    <glyph glyph-name="f" unicode="f" horiz-adv-x="790" 
d="M84 967l18 88l150 37q32 109 82 198.5t120 161.5t166 112t209 40q126 0 209.5 -47.5t83.5 -147.5q0 -53 -28.5 -93.5t-81.5 -58.5h-193q7 37 11 61t8.5 56.5t3.5 53.5t-5 41.5t-15.5 30t-28.5 9.5q-43 0 -71 -67t-37 -162t-3 -197h219l-29 -116h-202l-113 -504
q-106 -479 -273.5 -700.5t-400.5 -221.5q-128 0 -209.5 48.5t-81.5 129.5q0 76 48.5 121t123.5 51h78q-17 -260 60 -260q12 0 21.5 4.5t18 16t15 24t13 35t12 43t12 54t12 61t14 72t15.5 79.5l188 947h-139z" />
    <glyph glyph-name="g" unicode="g" horiz-adv-x="1130" 
d="M1085 805q0 -129 -82 -226.5t-214 -146.5t-291 -49q-99 0 -191 29q-35 -24 -35 -58q0 -21 13.5 -31.5t38.5 -15.5l389 -82q161 -31 242 -93.5t81 -172.5q0 -127 -89.5 -223t-241 -145.5t-340.5 -49.5q-144 0 -266 30.5t-201.5 96t-79.5 154.5q0 45 27 79.5t69.5 53.5
t89 28.5t92.5 8.5q-80 66 -80 174q0 90 61.5 159.5t168.5 114.5q-162 89 -162 281q0 93 47 171.5t127.5 130.5t187 81t224.5 29q98 0 182 -35l401 12l-49 -152h-90l-92 17q63 -78 63 -170zM569 -166l-426 105q-82 -37 -82 -117t87.5 -129t232.5 -49q129 0 211 31.5t82 86.5
q0 30 -23.5 44.5t-81.5 27.5zM705 911q0 131 -56 131q-44 0 -87.5 -63t-71 -166.5t-27.5 -212.5q0 -131 55 -131q44 0 87.5 63t71.5 166.5t28 212.5z" />
    <glyph glyph-name="h" unicode="h" horiz-adv-x="1370" 
d="M795 1604l-234 -969q125 253 268 375.5t293 122.5q82 0 128 -48t46 -131q0 -48 -18 -116l-148 -531q-16 -59 -16 -82q0 -30 29 -30q27 0 65 35t97 108l53 -47q-59 -81 -106.5 -134.5t-101 -95.5t-109.5 -61.5t-121 -19.5q-107 0 -169.5 57t-62.5 143q0 64 31 166l121 399
q14 47 14 66q0 37 -35 37q-28 0 -74 -47t-94.5 -123t-95.5 -184.5t-76 -219.5l-71 -274h-418l340 1386l-99 56l15 69l477 93h72z" />
    <glyph glyph-name="i" unicode="i" horiz-adv-x="737" 
d="M532 1204q-95 0 -152.5 56.5t-57.5 136.5q0 91 61.5 154t165.5 63q95 0 153 -55t58 -136q0 -91 -62 -155t-166 -64zM74 344l139 555l-104 84l14 61l498 89h73l-209 -826q-16 -59 -16 -82q0 -30 29 -30q26 0 64 34.5t97 108.5l54 -47q-119 -163 -216.5 -237t-222.5 -74
q-106 0 -163.5 56.5t-57.5 143.5q0 62 21 164z" />
    <glyph glyph-name="j" unicode="j" horiz-adv-x="671" 
d="M694 1133l-237 -940q-85 -332 -238.5 -492t-390.5 -160q-129 0 -210 48t-81 132q0 75 49 119.5t123 50.5h78q-7 -129 4.5 -194.5t52.5 -65.5t70 74q18 47 68 254q8 33 14 59l217 881l-104 84l14 61l498 89h73zM532 1204q-95 0 -152.5 56.5t-57.5 136.5q0 91 61.5 154
t165.5 63q95 0 153 -55t58 -136q0 -91 -62 -155t-166 -64z" />
    <glyph glyph-name="k" unicode="k" horiz-adv-x="1329" 
d="M858 784l189 -434q24 -55 42 -78.5t44 -23.5q25 0 50.5 20.5t71.5 75.5l52 -45q-120 -169 -213 -244t-197 -75q-81 0 -127 44.5t-82 141.5l-133 385l369 438q63 74 119 109t126 35q84 0 132.5 -51.5t48.5 -127.5q0 -155 -172 -213h-25q8 76 -23 120t-94 44
q-35 0 -65.5 -15.5t-48 -33t-52.5 -57.5zM408 0h-418l340 1386l-99 56l15 69l477 93h72z" />
    <glyph glyph-name="l" unicode="l" horiz-adv-x="712" 
d="M780 1604l-311 -1297q-16 -74 -16 -82q0 -30 28 -30q27 0 65 35t97 108l53 -47q-59 -81 -106.5 -134.5t-101 -95.5t-109.5 -61.5t-121 -19.5q-106 0 -163.5 56.5t-57.5 143.5q0 79 20 164l258 1042l-98 56l14 69l478 93h71z" />
    <glyph glyph-name="m" unicode="m" horiz-adv-x="2025" 
d="M1122 1133q82 0 126 -48t44 -131q0 -75 -69 -317q245 496 555 496q82 0 128 -48t46 -131q0 -44 -19 -116l-147 -531q-17 -63 -17 -82q0 -30 29 -30q27 0 65 35t97 108l53 -47q-59 -81 -106.5 -134.5t-101 -95.5t-109.5 -61.5t-121 -19.5q-107 0 -169.5 57t-62.5 143
q0 64 31 166l121 399q14 47 14 66q0 37 -34 37q-27 0 -71 -47t-91 -123t-93 -184.5t-75 -219.5l-72 -274h-418l185 745q14 47 14 66q0 37 -35 37q-27 0 -71 -47t-91 -123t-93 -184.5t-75 -219.5l-71 -274h-418l225 899l-104 84l14 61l498 89h74l-140 -496q245 496 555 496z
" />
    <glyph glyph-name="n" unicode="n" horiz-adv-x="1380" 
d="M707 1133l-140 -500q125 253 270.5 376.5t295.5 123.5q82 0 128 -48t46 -131q0 -44 -19 -116l-147 -531q-17 -63 -17 -82q0 -30 29 -30q27 0 65 35t97 108l53 -47q-59 -81 -106.5 -134.5t-101 -95.5t-109.5 -61.5t-121 -19.5q-107 0 -169.5 57t-62.5 143q0 64 31 166
l121 399q14 47 14 66q0 37 -35 37q-28 0 -74 -47t-94.5 -123t-95.5 -184.5t-76 -219.5l-71 -274h-418l225 899l-104 84l14 61l498 89h74z" />
    <glyph glyph-name="o" unicode="o" horiz-adv-x="1226" 
d="M436 211q0 -141 64 -141q65 0 134.5 147.5t113 342.5t43.5 341q0 141 -64 141q-65 0 -134.5 -147.5t-113 -342.5t-43.5 -341zM1190 696q0 -191 -90.5 -355t-251 -262.5t-352.5 -98.5q-206 0 -332.5 115.5t-126.5 320.5q0 143 53.5 274.5t145.5 229t221.5 155.5t273.5 58
q206 0 332.5 -116t126.5 -321z" />
    <glyph glyph-name="p" unicode="p" horiz-adv-x="1359" 
d="M707 1133l-150 -515q51 104 107 190.5t124.5 162.5t147.5 119t160 43q237 0 237 -322q0 -161 -57.5 -314t-152 -266t-223 -182t-263.5 -69q-68 0 -121.5 23.5t-79.5 66.5l-86 -326q-6 -21 -6 -35q0 -31 32.5 -41.5t115.5 -15.5l-17 -86h-682l17 86q61 5 85.5 18.5
t34.5 55.5l295 1173l-104 84l14 61l498 89h74zM844 854q-55 0 -137 -108t-153 -267t-97 -297q10 -39 38 -61.5t64 -22.5q64 0 128 67.5t109.5 166t74 212t28.5 204.5q0 106 -55 106z" />
    <glyph glyph-name="q" unicode="q" horiz-adv-x="1331" 
d="M1284 848l-278 -1114q-7 -28 -7 -33q0 -27 21.5 -35.5t77.5 -13.5l-17 -86h-675l16 86q95 8 125 21t43 63l176 690q-114 -221 -227 -333.5t-252 -112.5q-121 0 -190.5 88.5t-69.5 244.5q0 112 34 228.5t99 221.5t152 188.5t201.5 132.5t238.5 49q93 0 165.5 -31
t116.5 -78l248 109h84zM518 262q73 0 187 199t196 491q-5 35 -29 59.5t-59 24.5q-67 0 -135.5 -65t-117.5 -162.5t-80 -211.5t-31 -210q0 -125 69 -125z" />
    <glyph glyph-name="r" unicode="r" horiz-adv-x="1058" 
d="M707 1133l-82 -287l-99 -311q74 152 122.5 244.5t94.5 168t83 112t74.5 55t82.5 18.5q73 0 115.5 -46.5t42.5 -123.5q0 -96 -60.5 -177.5t-146.5 -115.5h-16q0 44 -20 72t-64 28q-64 0 -125 -57.5t-113.5 -162t-97 -243t-80.5 -307.5h-418l225 899l-104 84l14 61l498 89
h74z" />
    <glyph glyph-name="s" unicode="s" horiz-adv-x="964" 
d="M444 63q45 0 72 22t27 60q0 31 -23 65.5t-60 68.5t-81.5 71.5t-89 79.5t-81.5 86.5t-60 98.5t-23 110q0 165 141.5 286.5t345.5 121.5q139 0 231.5 -53t92.5 -156q0 -61 -49.5 -103.5t-110.5 -54.5h-20q-21 117 -85 199t-149 82q-42 0 -68 -23.5t-26 -62.5
q0 -30 32.5 -70t82 -80t106.5 -91t106.5 -101.5t82 -113.5t32.5 -124q0 -111 -66 -203.5t-177.5 -145t-243.5 -52.5q-177 0 -289 66t-112 179q0 68 45 115.5t116 71.5h19q28 -162 102 -255.5t180 -93.5z" />
    <glyph glyph-name="t" unicode="t" horiz-adv-x="858" 
d="M649 967l-155 -621q-17 -69 -17 -102q0 -60 51 -60q94 0 248 178l58 -43q-123 -169 -247.5 -254t-260.5 -85q-118 0 -188 68t-70 169q0 62 16 141l152 609h-125l20 80q144 45 292 144.5t234 205.5h97l-76 -314h223l-29 -116h-223z" />
    <glyph glyph-name="u" unicode="u" horiz-adv-x="1386" 
d="M848 838l63 254l426 20l-202 -805q-17 -70 -17 -82q0 -30 29 -30q27 0 65 35t97 108l53 -47q-59 -81 -106.5 -134.5t-101 -95.5t-109.5 -61.5t-121 -19.5q-107 0 -169.5 55.5t-62.5 150.5q0 72 51 240q-125 -247 -238.5 -346.5t-240.5 -99.5q-98 0 -155.5 61.5
t-57.5 153.5q0 45 17 122l145 582l-104 84l14 61l498 89h73l-192 -760q-17 -66 -17 -84q0 -37 33 -37q39 0 101.5 80.5t127 219t101.5 286.5z" />
    <glyph glyph-name="v" unicode="v" horiz-adv-x="1101" 
d="M158 915l-113 80l16 54l453 84h43l57 -785l113 125q135 150 135 301q0 86 -50.5 130t-137.5 44l4 33q39 66 105.5 109t152.5 43q99 0 148 -59t49 -152q0 -58 -22.5 -117.5t-68 -121t-89.5 -109.5t-111 -115l-471 -465h-115z" />
    <glyph glyph-name="w" unicode="w" horiz-adv-x="1662" 
d="M752 915l-99 74l17 53l438 91h43l53 -752l84 92q135 150 135 301q0 86 -50.5 130t-137.5 44l4 33q39 66 105.5 109t152.5 43q99 0 148 -59t49 -152q0 -34 -9.5 -70t-21 -64.5t-39 -68.5t-44 -63t-56.5 -67.5t-57 -62.5t-64 -67l-447 -465h-106l-53 504l-435 -504h-106
l-98 921l-113 80l16 54l453 84h43l53 -727l174 204z" />
    <glyph glyph-name="x" unicode="x" horiz-adv-x="1179" 
d="M336 360l61 127l-114 420l-154 88l16 56l457 84h43l92 -359l68 119q70 125 129.5 182.5t142.5 57.5q74 0 114 -45t40 -111q0 -142 -199 -211h-28q17 131 -60 131q-31 0 -56 -31.5t-71 -115.5l-49 -88l78 -295q9 -37 14.5 -56t14 -39t19 -28t24.5 -8q32 0 61 21t86 81
l47 -43q-119 -165 -219.5 -241t-202.5 -76q-88 0 -134.5 50.5t-74.5 155.5l-51 183l-78 -154q-64 -124 -132.5 -179.5t-156.5 -55.5q-70 0 -112.5 46.5t-42.5 114.5q0 89 55.5 141t138.5 74h29q-8 -61 9.5 -100t58.5 -39q43 0 68 28.5t69 114.5z" />
    <glyph glyph-name="y" unicode="y" horiz-adv-x="1126" 
d="M139 915l-112 80l16 54l440 84h43l179 -902q105 146 144.5 255t39.5 235q0 119 -61 173t-154 54l4 33q38 65 103 108.5t145 43.5q108 0 164.5 -65t56.5 -169q0 -65 -24.5 -141.5t-60.5 -147t-97.5 -162t-114 -161.5t-131.5 -170q-125 -160 -211.5 -258.5t-175.5 -175.5
t-168 -109.5t-166 -32.5q-98 0 -162.5 50.5t-64.5 140.5q0 70 48 121.5t126 74.5h41q0 -221 157 -221q110 0 236 123z" />
    <glyph glyph-name="z" unicode="z" horiz-adv-x="1079" 
d="M698 762h-368q-31 0 -51.5 -8t-32 -19.5t-37.5 -42.5l-43 -51l-41 14l168 531h51q7 -44 16 -62t29 -18h780v-49l-749 -635l192 -70q1 0 29.5 -7.5t44.5 -11t45.5 -7.5t54.5 -4q27 0 48.5 4.5t52 18.5t65 47t70.5 85l37 -20q-45 -145 -93 -241.5t-104 -152.5t-116 -79
t-138 -23q-77 0 -147 23t-164 69l-209 107l-59 -160q-99 -6 -99 66q0 49 52 96z" />
    <glyph glyph-name="braceleft" unicode="{" horiz-adv-x="763" 
d="M139 623l8 41q178 35 215 204l95 447q28 128 145 195t350 67l-12 -64q-179 -22 -217 -200l-90 -420q-23 -112 -99.5 -169t-201.5 -81q115 -24 167 -81t27 -169l-88 -418q-38 -178 131 -200l-12 -64q-234 0 -323.5 67.5t-61.5 194.5l94 445q35 171 -127 205z" />
    <glyph glyph-name="bar" unicode="|" horiz-adv-x="413" 
d="M526 1577l-395 -1866h-168l395 1866h168z" />
    <glyph glyph-name="braceright" unicode="}" horiz-adv-x="784" 
d="M717 664l-8 -41q-178 -35 -213 -205l-95 -445q-28 -128 -145 -195t-350 -67l12 64q179 22 217 200l88 418q25 113 100.5 169.5t200.5 80.5q-114 24 -165.5 80.5t-28.5 169.5l90 420q38 178 -131 200l12 64q234 0 323.5 -67.5t61.5 -194.5l-94 -447q-38 -169 125 -204z
" />
    <glyph glyph-name="asciitilde" unicode="~" horiz-adv-x="1028" 
d="M899 825l68 -34q-96 -347 -303 -347q-41 0 -89 24.5t-84.5 53.5t-82.5 53.5t-84 24.5q-105 0 -195 -145l-68 34q96 347 304 347q41 0 89 -24.5t84.5 -53.5t82.5 -53.5t84 -24.5q60 0 106.5 39t87.5 106z" />
    <glyph glyph-name="uni00A0" unicode="&#xa0;" horiz-adv-x="337" 
 />
    <glyph glyph-name="exclamdown" unicode="&#xa1;" horiz-adv-x="624" 
d="M-121 -203l445 944h137l-37 -944h-545zM655 1044q0 -90 -60.5 -153.5t-145.5 -63.5q-88 0 -148.5 63t-60.5 154q0 87 61 149t148 62q85 0 145.5 -62.5t60.5 -148.5z" />
    <glyph glyph-name="cent" unicode="&#xa2;" horiz-adv-x="1071" 
d="M424 -240l45 220q-186 6 -306 127t-120 307q0 142 48.5 273t134.5 233t213.5 167t277.5 76l47 223h84l-47 -219q132 -5 216.5 -60.5t84.5 -154.5q0 -61 -34 -105.5t-99 -62.5h-127q24 118 8.5 193t-70.5 90l-184 -891q12 -2 39 -2q80 0 153.5 46t153.5 142l47 -38
q-168 -304 -434 -340l-47 -224h-84zM428 434q0 -157 90 -225l178 854q-83 -26 -145.5 -125.5t-92.5 -230.5t-30 -273z" />
    <glyph glyph-name="sterling" unicode="&#xa3;" horiz-adv-x="1409" 
d="M190 711l21 92h199l28 133q107 522 635 522q163 0 270 -60.5t107 -164.5q0 -72 -43 -123t-113 -72h-198q69 130 69 238q0 44 -17 73t-54 29q-46 0 -73 -36t-46 -107l-119 -432h254l-23 -92h-256l-18 -68q-24 -86 -56 -164.5t-53 -114.5l-20 -36q151 -56 307 -56
q174 0 174 131q0 65 -63 105l28 27q90 -24 151.5 -90t61.5 -162q0 -146 -97.5 -224.5t-256.5 -78.5q-84 0 -168 27.5t-134 57t-120 78.5q-60 -78 -159 -120.5t-197 -42.5q-120 0 -189 63t-69 164q0 98 66.5 158.5t162.5 60.5q65 0 146 -25l63 310h-201zM156 106
q58 0 87.5 40.5t53.5 140.5q-59 47 -115 47q-129 0 -129 -127q0 -44 28.5 -72.5t74.5 -28.5z" />
    <glyph glyph-name="currency" unicode="&#xa4;" horiz-adv-x="1181" 
d="M207 1110l72 64l127 -150q120 86 264 86q146 0 239 -90l170 154l58 -70l-172 -154q51 -82 51 -194q0 -174 -113 -303l129 -150l-71 -63l-130 147q-114 -84 -262 -84q-146 0 -239 90l-170 -153l-58 69l172 152q-51 85 -51 196q0 175 113 304zM582 418q133 0 222 97.5
t89 240.5q0 106 -67 173.5t-171 67.5q-133 0 -221 -98t-88 -242q0 -106 66 -172.5t170 -66.5z" />
    <glyph glyph-name="yen" unicode="&#xa5;" horiz-adv-x="1433" 
d="M215 719l21 98h159l-143 453q-13 40 -34 54t-68 22l20 92h702l-20 -92q-80 -5 -115 -28.5t-35 -72.5q0 -28 25 -112l139 -455l320 467q24 35 36 53.5t23.5 43.5t11.5 42q0 59 -122 62l20 92h422l-21 -92q-47 -8 -78.5 -24.5t-56.5 -51.5l-313 -453h195l-21 -98h-242
l-110 -160h319l-20 -96h-334l-51 -244q-6 -27 -7.5 -44.5t4.5 -31.5t14 -21.5t28.5 -13.5t40.5 -9t57 -7l-20 -92h-742l21 92q106 11 137.5 31t48.5 96l51 244h-315l20 96h293l-49 160h-211z" />
    <glyph glyph-name="brokenbar" unicode="&#xa6;" horiz-adv-x="413" 
d="M526 1577l-164 -770h-167l163 770h168zM293 481l-162 -770h-168l162 770h168z" />
    <glyph glyph-name="section" unicode="&#xa7;" horiz-adv-x="1060" 
d="M883 291q0 -102 -27 -203t-82.5 -191.5t-132.5 -159.5t-184 -110t-230 -41q-124 0 -200 57t-76 156q0 113 141 164h180q-28 -54 -28 -125q0 -78 26.5 -127t77.5 -49q56 0 81.5 52.5t25.5 160.5q0 70 -29.5 149.5t-71.5 157.5t-84.5 162t-72 192t-29.5 218q0 102 27 203
t82.5 191t132 159.5t183.5 110t230 40.5q124 0 200.5 -57t76.5 -156q0 -112 -142 -164h-180q29 56 29 125q0 78 -27 127t-78 49q-56 0 -81 -52.5t-25 -160.5q0 -59 21.5 -126t53 -126.5t69 -133t69 -144t53 -163t21.5 -185.5zM270 754q0 -93 29.5 -191t71.5 -182
t84.5 -166.5t72 -171.5t29.5 -168q0 -80 -16 -111q101 76 170 217.5t69 309.5q0 93 -29.5 191t-71.5 182t-84 166t-71.5 171t-29.5 168q0 80 16 111q-101 -76 -170.5 -217t-69.5 -309z" />
    <glyph glyph-name="dieresis" unicode="&#xa8;" 
d="M293 1227q-80 0 -129 50t-49 120q0 78 52 134t138 56q80 0 128 -49t48 -119q0 -80 -51.5 -136t-136.5 -56zM721 1227q-80 0 -128 49.5t-48 120.5q0 79 51 134.5t137 55.5q80 0 128 -49t48 -119q0 -80 -51 -136t-137 -56z" />
    <glyph glyph-name="copyright" unicode="&#xa9;" horiz-adv-x="1630" 
d="M817 -20q-148 0 -277 53t-218.5 144t-141 218t-51.5 271q0 163 60.5 309.5t164 252.5t248.5 168t307 62q148 0 277 -53t218.5 -144t141 -218t51.5 -271q0 -163 -60.5 -309.5t-164 -252.5t-248.5 -168t-307 -62zM817 289q-170 0 -271.5 97.5t-101.5 248.5q0 147 70 266.5
t190.5 186.5t266.5 67q173 0 272 -92l-43 -205h-78q2 104 -32.5 161.5t-104.5 57.5q-77 0 -140 -74.5t-95.5 -183t-32.5 -219.5q0 -101 32.5 -167t102.5 -66q76 0 123.5 50.5t109.5 174.5h84l-49 -223q-134 -80 -303 -80zM817 59q193 0 352.5 95t250.5 258.5t91 359.5
q0 170 -75.5 308t-213.5 218t-313 80q-193 0 -352.5 -94.5t-250.5 -258t-91 -359.5q0 -170 75.5 -308.5t213.5 -218.5t313 -80z" />
    <glyph glyph-name="ordfeminine" unicode="&#xaa;" horiz-adv-x="1005" 
d="M489 881q39 0 84.5 62t84.5 164.5t59 217.5q-7 31 -20 46t-40 15q-50 0 -101.5 -72.5t-82.5 -169.5t-31 -175q0 -88 47 -88zM776 1376l197 82h74l-54 -186l-92 -340q-10 -38 -10 -55q0 -19 16 -19q48 0 113 84l35 -33q-71 -101 -141.5 -152.5t-159.5 -51.5q-64 0 -104 40
t-40 103q0 50 21 117h-4q-55 -119 -126 -189.5t-171 -70.5q-79 0 -128.5 63t-49.5 170q0 124 58 243t163 198t227 79q117 0 176 -82z" />
    <glyph glyph-name="guillemotleft" unicode="&#xab;" horiz-adv-x="964" 
d="M49 559l2 12l471 414h103l-258 -420l79 -420h-102zM446 559l3 12l471 414h102l-258 -420l80 -420h-103z" />
    <glyph glyph-name="registered" unicode="&#xae;" horiz-adv-x="1136" 
d="M684 1196h-10l-43 -199h10q48 0 84.5 31t36.5 88q0 36 -21 58t-57 22zM494 1245h235q85 0 130.5 -36.5t45.5 -96.5q0 -59 -40 -96.5t-91 -52.5l57 -121q22 -42 62 -45l-10 -39h-129q-26 16 -47 63l-60 131h-26l-25 -108q-6 -26 2 -36t39 -11l-10 -39h-238l10 39
q35 0 45.5 9.5t16.5 41.5l65 297q8 28 0 40t-41 13zM639 526q-192 0 -315 124.5t-123 310.5q0 210 142.5 353.5t352.5 143.5q192 0 315.5 -124t123.5 -310q0 -210 -143 -354t-353 -144zM639 596q184 0 303 122t119 306q0 160 -100.5 262.5t-264.5 102.5q-184 0 -303 -122
t-119 -306q0 -160 100.5 -262.5t264.5 -102.5z" />
    <glyph glyph-name="macron" unicode="&#xaf;" 
d="M188 1280l43 195h603l-43 -195h-603z" />
    <glyph glyph-name="degree" unicode="&#xb0;" horiz-adv-x="589" 
d="M397 1057q65 0 106.5 52.5t41.5 131.5q0 52 -27 84.5t-76 32.5q-65 0 -106 -52.5t-41 -131.5q0 -52 26.5 -84.5t75.5 -32.5zM389 956q-95 0 -156 61t-61 157q0 118 80.5 201t198.5 83q96 0 156.5 -60.5t60.5 -156.5q0 -118 -80.5 -201.5t-198.5 -83.5z" />
    <glyph glyph-name="plusminus" unicode="&#xb1;" horiz-adv-x="1179" 
d="M662 1245h145l-62 -289h381l-30 -143h-381l-62 -287h-145l61 287h-376l30 143h377zM78 276l31 146h903l-31 -146h-903z" />
    <glyph glyph-name="twosuperior" unicode="&#xb2;" horiz-adv-x="849" 
d="M373 823h241q53 0 84.5 15.5t73.5 64.5h51l-82 -285h-655l10 58q147 108 242 189.5t142.5 139t64 96t16.5 77.5q0 104 -104 104q-53 0 -103.5 -27.5t-87.5 -72.5l-45 43q56 101 149.5 163t223.5 62q106 0 173 -52t67 -151q0 -39 -14.5 -77t-36 -69t-59.5 -64t-72 -57.5
t-87.5 -55.5t-92.5 -51t-99 -50z" />
    <glyph glyph-name="threesuperior" unicode="&#xb3;" horiz-adv-x="804" 
d="M553 1092q95 -11 156 -62.5t61 -134.5q0 -85 -57 -149t-142 -94.5t-180 -30.5q-126 0 -207.5 48t-81.5 119q0 84 82 111h156q-23 -42 -23 -96q0 -50 21 -84.5t61 -34.5q52 0 83.5 52t31.5 130q0 66 -27.5 102t-78.5 36q-8 0 -43 -5l-9 48q107 41 152 79.5t45 94.5
q0 36 -23.5 57.5t-62.5 21.5q-98 0 -174 -90l-51 35q55 96 146.5 154.5t203.5 58.5q97 0 155 -41.5t58 -122.5q0 -83 -72 -135t-180 -67z" />
    <glyph glyph-name="acute" unicode="&#xb4;" 
d="M399 1569h398v-19l-449 -315h-123z" />
    <glyph glyph-name="mu" unicode="&#xb5;" horiz-adv-x="1386" 
d="M434 -6l-96 -377l-420 -20l328 1302l-105 84l15 61l497 89h74l-192 -760q-17 -66 -17 -84q0 -37 33 -37q39 0 101.5 80.5t127 219t101.5 286.5l63 254l426 20l-203 -805q-16 -66 -16 -82q0 -30 29 -30q26 0 64 34.5t97 108.5l54 -47q-119 -163 -216.5 -237t-222.5 -74
q-107 0 -169 55.5t-62 150.5q0 72 51 240q-104 -205 -177.5 -296.5t-164.5 -135.5z" />
    <glyph glyph-name="paragraph" unicode="&#xb6;" horiz-adv-x="1257" 
d="M457 -403l170 800q-200 0 -335.5 122t-135.5 312q0 121 51 231.5t140.5 193.5t220 132.5t280.5 49.5h586l-21 -88q-127 0 -174 -31t-70 -139l-335 -1583h-111l371 1753h-156l-371 -1753h-110zM643 481l186 877q-85 -13 -159.5 -91.5t-118 -198.5t-43.5 -251
q0 -133 33 -229.5t102 -106.5z" />
    <glyph glyph-name="periodcentered" unicode="&#xb7;" horiz-adv-x="563" 
d="M61 625q0 95 64 158t156 63q93 0 157 -62.5t64 -158.5t-63.5 -157.5t-157.5 -61.5q-92 0 -156 62t-64 157z" />
    <glyph glyph-name="cedilla" unicode="&#xb8;" 
d="M313 -477l-18 76q106 0 170.5 29.5t64.5 70.5q0 25 -19.5 38.5t-48.5 18t-83 6.5l125 254h82l-49 -94q102 -12 146 -53.5t44 -112.5q0 -113 -117.5 -173t-296.5 -60z" />
    <glyph glyph-name="onesuperior" unicode="&#xb9;" horiz-adv-x="686" 
d="M614 1458h72l-137 -651q-14 -66 2 -84.5t102 -22.5l-16 -73h-535l17 73q82 6 107 21.5t38 73.5l90 419h-129l15 70l59 12q118 24 178.5 55.5t136.5 106.5z" />
    <glyph glyph-name="ordmasculine" unicode="&#xba;" horiz-adv-x="868" 
d="M430 856q0 -94 41 -94q43 0 88.5 95t74 221.5t28.5 221.5t-41 95q-43 0 -88.5 -95.5t-74 -222t-28.5 -221.5zM934 1167q0 -124 -62 -232t-169.5 -172.5t-233.5 -64.5q-137 0 -224 78t-87 213q0 124 62 232t169.5 172.5t233.5 64.5q137 0 224 -78t87 -213z" />
    <glyph glyph-name="guillemotright" unicode="&#xbb;" horiz-adv-x="964" 
d="M932 571l-2 -12l-471 -414h-103l258 420l-79 420h102zM535 571l-3 -12l-471 -414h-102l258 420l-80 420h103z" />
    <glyph glyph-name="onequarter" unicode="&#xbc;" horiz-adv-x="1624" 
d="M877 297h260l71 332zM1446 0h-475l14 74q69 5 90 18.5t33 65.5l12 55h-383l15 70l520 528h241l-110 -514h160l-17 -84h-160l-12 -55q-12 -52 4 -65.5t82 -18.5zM193 -20l1241 1478h122l-1243 -1478h-120zM614 1458h72l-137 -651q-14 -66 2 -84.5t102 -22.5l-16 -73h-535
l17 73q82 6 107 21.5t38 73.5l90 419h-129l15 70l59 12q118 24 178.5 55.5t136.5 106.5z" />
    <glyph glyph-name="onehalf" unicode="&#xbd;" horiz-adv-x="1652" 
d="M193 -20l1241 1478h122l-1243 -1478h-120zM614 1458h72l-137 -651q-14 -66 2 -84.5t102 -22.5l-16 -73h-535l17 73q82 6 107 21.5t38 73.5l90 419h-129l15 70l59 12q118 24 178.5 55.5t136.5 106.5zM1130 205h242q53 0 84.5 15.5t73.5 64.5h51l-82 -285h-655l10 57
q147 108 242 189.5t142.5 139t64 96t16.5 77.5q0 105 -105 105q-53 0 -103 -28t-87 -73l-45 43q56 101 149.5 163t223.5 62q106 0 172.5 -51.5t66.5 -150.5q0 -39 -14.5 -77t-36 -69t-59.5 -64t-72 -57.5t-87.5 -55.5t-92.5 -51t-99 -50z" />
    <glyph glyph-name="threequarters" unicode="&#xbe;" horiz-adv-x="1638" 
d="M891 297h260l72 332zM1460 0h-475l14 74q69 5 90 18.5t33 65.5l13 55h-383l14 70l520 528h242l-111 -514h160l-16 -84h-160l-12 -55q-12 -52 4 -65.5t82 -18.5zM207 -20l1241 1478h123l-1243 -1478h-121zM553 1092q95 -11 156 -62.5t61 -134.5q0 -85 -57 -149t-142 -94.5
t-180 -30.5q-126 0 -207.5 48t-81.5 119q0 84 82 111h156q-23 -42 -23 -96q0 -50 21 -84.5t61 -34.5q52 0 83.5 52t31.5 130q0 66 -27.5 102t-78.5 36q-8 0 -43 -5l-9 48q107 41 152 79.5t45 94.5q0 36 -23.5 57.5t-62.5 21.5q-98 0 -174 -90l-51 35q55 96 146.5 154.5
t203.5 58.5q97 0 155 -41.5t58 -122.5q0 -83 -72 -135t-180 -67z" />
    <glyph glyph-name="questiondown" unicode="&#xbf;" horiz-adv-x="976" 
d="M487 250q-54 -31 -87 -53.5t-68.5 -55t-52.5 -71t-17 -84.5q0 -57 28.5 -89t82.5 -32q73 0 111 59.5t38 151.5q0 41 -10 96h274q56 -50 56 -121q0 -87 -61.5 -150.5t-160 -93.5t-221.5 -30q-219 0 -335.5 95t-116.5 255q0 139 79.5 229.5t229.5 159.5q53 25 81 39t65 36
t55 39.5t31.5 41t13.5 49.5q0 13 -4 33h61q73 -28 114.5 -81.5t41.5 -131.5q0 -87 -51 -153.5t-177 -137.5zM821 1044q0 -90 -61 -153.5t-146 -63.5q-88 0 -148 63t-60 154q0 87 60.5 149t147.5 62q85 0 146 -62.5t61 -148.5z" />
    <glyph glyph-name="Agrave" unicode="&#xc0;" horiz-adv-x="1546" 
d="M877 264l-31 168h-506l-96 -168q-35 -64 -35 -94q0 -37 34 -54.5t113 -23.5l-20 -92h-449l21 92q47 5 78.5 21t54.5 55l647 1092l-33 178h463l232 -1270q7 -36 32.5 -52t73.5 -24l-20 -92h-754l20 92q88 3 134.5 26t46.5 79q0 36 -6 67zM727 1098l-317 -547h415z
M545 1823h370l46 -305h-119l-297 284v21z" />
    <glyph glyph-name="Aacute" unicode="&#xc1;" horiz-adv-x="1546" 
d="M877 264l-31 168h-506l-96 -168q-35 -64 -35 -94q0 -37 34 -54.5t113 -23.5l-20 -92h-449l21 92q47 5 78.5 21t54.5 55l647 1092l-33 178h463l232 -1270q7 -36 32.5 -52t73.5 -24l-20 -92h-754l20 92q88 3 134.5 26t46.5 79q0 36 -6 67zM727 1098l-317 -547h415z
M1014 1823h397v-19l-448 -286h-123z" />
    <glyph glyph-name="Acircumflex" unicode="&#xc2;" horiz-adv-x="1546" 
d="M877 264l-31 168h-506l-96 -168q-35 -64 -35 -94q0 -37 34 -54.5t113 -23.5l-20 -92h-449l21 92q47 5 78.5 21t54.5 55l647 1092l-33 178h463l232 -1270q7 -36 32.5 -52t73.5 -24l-20 -92h-754l20 92q88 3 134.5 26t46.5 79q0 36 -6 67zM1102 1829l168 -311h-127
l-213 133l-283 -133h-139l315 311h279zM727 1098l-317 -547h415z" />
    <glyph glyph-name="Atilde" unicode="&#xc3;" horiz-adv-x="1546" 
d="M877 264l-31 168h-506l-96 -168q-35 -64 -35 -94q0 -37 34 -54.5t113 -23.5l-20 -92h-449l21 92q47 5 78.5 21t54.5 55l647 1092l-33 178h463l232 -1270q7 -36 32.5 -52t73.5 -24l-20 -92h-754l20 92q88 3 134.5 26t46.5 79q0 36 -6 67zM1047 1518q-45 0 -85.5 19t-65 42
t-56 42t-60.5 19q-39 0 -72.5 -28.5t-72.5 -83.5l-78 45q71 145 133.5 215t143.5 70q45 0 85 -19t65 -42.5t56 -42.5t60 -19q39 0 71 28t72 84l78 -45q-69 -145 -131 -214.5t-143 -69.5zM727 1098l-317 -547h415z" />
    <glyph glyph-name="Adieresis" unicode="&#xc4;" horiz-adv-x="1546" 
d="M877 264l-31 168h-506l-96 -168q-35 -64 -35 -94q0 -37 34 -54.5t113 -23.5l-20 -92h-449l21 92q47 5 78.5 21t54.5 55l647 1092l-33 178h463l232 -1270q7 -36 32.5 -52t73.5 -24l-20 -92h-754l20 92q88 3 134.5 26t46.5 79q0 36 -6 67zM727 1098l-317 -547h415z
M719 1505q-80 0 -129 50t-49 120q0 79 52 135t138 56q80 0 128 -49t48 -119q0 -80 -51.5 -136.5t-136.5 -56.5zM1147 1505q-80 0 -128 49.5t-48 120.5q0 79 51 135t137 56q80 0 128 -49t48 -119q0 -80 -51 -136.5t-137 -56.5z" />
    <glyph glyph-name="Aring" unicode="&#xc5;" horiz-adv-x="1546" 
d="M877 264l-31 168h-506l-96 -168q-35 -64 -35 -94q0 -37 34 -54.5t113 -23.5l-20 -92h-449l21 92q47 5 78.5 21t54.5 55l647 1092l-33 178h463l232 -1270q7 -36 32.5 -52t73.5 -24l-20 -92h-754l20 92q88 3 134.5 26t46.5 79q0 36 -6 67zM721 1686q0 95 64.5 161t162.5 66
q93 0 152 -57t59 -144q0 -95 -64.5 -161t-162.5 -66q-93 0 -152 57t-59 144zM727 1098l-317 -547h415zM1040 1708q0 42 -25.5 67t-70.5 25q-50 0 -77 -31t-27 -79q0 -42 25.5 -67.5t70.5 -25.5q50 0 77 31.5t27 79.5z" />
    <glyph glyph-name="AE" unicode="&#xc6;" horiz-adv-x="2150" 
d="M1931 0h-1210l20 92q54 5 81.5 11.5t46 24t25.5 37.5t17 64l60 281h-484l-204 -246q-43 -50 -43 -96q0 -37 37 -53.5t118 -22.5l-20 -92h-488l21 92q42 4 72 21.5t61 54.5l924 1118q-45 41 -201 60l20 92h1442l-78 -408h-80q-15 68 -24.5 104t-25 77t-32 59.5t-43.5 36
t-62 23t-85 5.5h-203l-112 -532h170q70 0 104.5 39.5t71.5 150.5h96l-108 -504h-97q11 112 -6.5 151.5t-87.5 39.5h-170l-94 -440q-18 -80 13.5 -109t115.5 -29h45q57 0 100 10.5t80 32.5t77 64.5t82.5 96t105.5 137.5q5 7 8.5 12t7.5 10h102zM1141 1294l-555 -665h411z" />
    <glyph glyph-name="Ccedilla" unicode="&#xc7;" horiz-adv-x="1421" 
d="M430 -477l-18 76q106 0 170.5 29.5t64.5 70.5q0 25 -19.5 38.5t-48.5 18t-83 6.5l110 226q-250 33 -391 193.5t-141 402.5q0 252 122.5 452.5t336 311t477.5 110.5q132 0 256.5 -36t195.5 -91l-69 -364h-103q-16 389 -262 389q-96 0 -179.5 -59t-140.5 -153t-98.5 -211
t-60.5 -233.5t-19 -220.5q0 -387 232 -387q254 0 471 443h125l-127 -424q-214 -131 -498 -131q-33 0 -49 2l-31 -60q102 -12 146.5 -53.5t44.5 -112.5q0 -113 -117.5 -173t-296.5 -60z" />
    <glyph glyph-name="Egrave" unicode="&#xc8;" horiz-adv-x="1380" 
d="M1161 0h-1210l20 92q54 5 81.5 11.5t46 24t25.5 37.5t17 64l209 979q20 78 1.5 103t-113.5 35l20 92h1198l-78 -408h-80q-15 68 -24.5 104t-25 77t-32 59.5t-43.5 36t-62 23t-85 5.5h-203l-112 -532h170q70 0 104.5 39.5t71.5 150.5h96l-109 -504h-96q11 112 -6.5 151.5
t-87.5 39.5h-170l-94 -440q-18 -80 13.5 -109t115.5 -29h45q57 0 100 10.5t80 32.5t77 64.5t82.5 96t105.5 137.5q5 7 8.5 12t7.5 10h102zM563 1823h371l45 -305h-119l-297 284v21z" />
    <glyph glyph-name="Eacute" unicode="&#xc9;" horiz-adv-x="1380" 
d="M1161 0h-1210l20 92q54 5 81.5 11.5t46 24t25.5 37.5t17 64l209 979q20 78 1.5 103t-113.5 35l20 92h1198l-78 -408h-80q-15 68 -24.5 104t-25 77t-32 59.5t-43.5 36t-62 23t-85 5.5h-203l-112 -532h170q70 0 104.5 39.5t71.5 150.5h96l-109 -504h-96q11 112 -6.5 151.5
t-87.5 39.5h-170l-94 -440q-18 -80 13.5 -109t115.5 -29h45q57 0 100 10.5t80 32.5t77 64.5t82.5 96t105.5 137.5q5 7 8.5 12t7.5 10h102zM1034 1823h398v-19l-449 -286h-123z" />
    <glyph glyph-name="Ecircumflex" unicode="&#xca;" horiz-adv-x="1380" 
d="M1161 0h-1210l20 92q54 5 81.5 11.5t46 24t25.5 37.5t17 64l209 979q20 78 1.5 103t-113.5 35l20 92h1198l-78 -408h-80q-15 68 -24.5 104t-25 77t-32 59.5t-43.5 36t-62 23t-85 5.5h-203l-112 -532h170q70 0 104.5 39.5t71.5 150.5h96l-109 -504h-96q11 112 -6.5 151.5
t-87.5 39.5h-170l-94 -440q-18 -80 13.5 -109t115.5 -29h45q57 0 100 10.5t80 32.5t77 64.5t82.5 96t105.5 137.5q5 7 8.5 12t7.5 10h102zM1120 1829l168 -311h-127l-213 133l-282 -133h-140l316 311h278z" />
    <glyph glyph-name="Edieresis" unicode="&#xcb;" horiz-adv-x="1380" 
d="M1161 0h-1210l20 92q54 5 81.5 11.5t46 24t25.5 37.5t17 64l209 979q20 78 1.5 103t-113.5 35l20 92h1198l-78 -408h-80q-15 68 -24.5 104t-25 77t-32 59.5t-43.5 36t-62 23t-85 5.5h-203l-112 -532h170q70 0 104.5 39.5t71.5 150.5h96l-109 -504h-96q11 112 -6.5 151.5
t-87.5 39.5h-170l-94 -440q-18 -80 13.5 -109t115.5 -29h45q57 0 100 10.5t80 32.5t77 64.5t82.5 96t105.5 137.5q5 7 8.5 12t7.5 10h102zM737 1505q-80 0 -129 50t-49 120q0 78 52.5 134.5t138.5 56.5q80 0 128 -49t48 -119q0 -80 -52 -136.5t-137 -56.5zM1165 1505
q-80 0 -128 49.5t-48 120.5q0 79 51.5 135t137.5 56q80 0 128 -49t48 -119q0 -80 -51.5 -136.5t-137.5 -56.5z" />
    <glyph glyph-name="Igrave" unicode="&#xcc;" horiz-adv-x="845" 
d="M141 229l209 979q20 78 1.5 103t-113.5 35l20 92h731l-20 -92q-53 -5 -80.5 -12t-46 -24t-26 -37.5t-17.5 -64.5l-209 -979q-20 -78 -1 -102.5t113 -34.5l-20 -92h-731l20 92q54 5 81.5 11.5t46 24t25.5 37.5t17 64zM281 1823h370l45 -305h-118l-297 284v21z" />
    <glyph glyph-name="Iacute" unicode="&#xcd;" horiz-adv-x="845" 
d="M141 229l209 979q20 78 1.5 103t-113.5 35l20 92h731l-20 -92q-53 -5 -80.5 -12t-46 -24t-26 -37.5t-17.5 -64.5l-209 -979q-20 -78 -1 -102.5t113 -34.5l-20 -92h-731l20 92q54 5 81.5 11.5t46 24t25.5 37.5t17 64zM752 1823h397v-19l-449 -286h-122z" />
    <glyph glyph-name="Icircumflex" unicode="&#xce;" horiz-adv-x="845" 
d="M141 229l209 979q20 78 1.5 103t-113.5 35l20 92h731l-20 -92q-53 -5 -80.5 -12t-46 -24t-26 -37.5t-17.5 -64.5l-209 -979q-20 -78 -1 -102.5t113 -34.5l-20 -92h-731l20 92q54 5 81.5 11.5t46 24t25.5 37.5t17 64zM838 1829l168 -311h-127l-213 133l-283 -133h-139
l315 311h279z" />
    <glyph glyph-name="Idieresis" unicode="&#xcf;" horiz-adv-x="845" 
d="M141 229l209 979q20 78 1.5 103t-113.5 35l20 92h731l-20 -92q-53 -5 -80.5 -12t-46 -24t-26 -37.5t-17.5 -64.5l-209 -979q-20 -78 -1 -102.5t113 -34.5l-20 -92h-731l20 92q54 5 81.5 11.5t46 24t25.5 37.5t17 64zM463 1505q-80 0 -129 50t-49 120q0 79 52 135t138 56
q80 0 128 -49t48 -119q0 -80 -51.5 -136.5t-136.5 -56.5zM891 1505q-80 0 -128 49.5t-48 120.5q0 79 51 135t137 56q80 0 128 -49t48 -119q0 -80 -51 -136.5t-137 -56.5z" />
    <glyph glyph-name="Eth" unicode="&#xd0;" horiz-adv-x="1624" 
d="M102 655l29 140h131l88 413q20 78 1.5 103t-113.5 35l20 92h660q151 0 280 -37.5t225.5 -108.5t151.5 -182.5t55 -251.5q0 -153 -49 -288.5t-138 -238.5t-208.5 -178t-265 -114t-303.5 -39h-715l20 92q54 5 81.5 11.5t46 24t25.5 37.5t17 64l90 426h-129zM676 102h12
q97 0 189.5 78t156.5 199t103 269t39 286q0 208 -76 304.5t-254 96.5h-23l-114 -540h229l-29 -140h-231l-86 -409q-20 -87 -1 -115.5t85 -28.5z" />
    <glyph glyph-name="Ntilde" unicode="&#xd1;" horiz-adv-x="1556" 
d="M1260 639l122 569q17 77 -19 103t-161 35l21 92h497l-20 -92q-53 -5 -81 -11.5t-46.5 -24.5t-25.5 -37.5t-17 -64.5l-256 -1208h-158l-647 1065l-178 -836q-17 -76 18.5 -102t161.5 -35l-20 -92h-498l20 92q54 5 81.5 11.5t46 24t25.5 37.5t17 64l211 994
q-35 68 -55 91.5t-61 31.5l20 92h533zM1151 1518q-45 0 -85 19t-65 42t-56 42t-60 19q-39 0 -73 -28.5t-73 -83.5l-77 45q71 146 133 215.5t143 69.5q45 0 85 -19t65 -42.5t56 -42.5t60 -19q39 0 71.5 28t72.5 84l77 -45q-69 -145 -131 -214.5t-143 -69.5z" />
    <glyph glyph-name="Ograve" unicode="&#xd2;" horiz-adv-x="1576" 
d="M969 1458q140 0 256 -44.5t194 -122t121 -183t43 -227.5q0 -139 -39.5 -271.5t-117.5 -246t-184.5 -199.5t-249.5 -135t-304 -49q-140 0 -256 44.5t-194 122t-121 183t-43 227.5q0 139 39.5 271.5t117.5 246t184.5 199.5t249.5 135t304 49zM956 1352q-78 0 -147.5 -70.5
t-118 -179.5t-84 -240t-52.5 -253.5t-17 -217.5q0 -146 37.5 -225.5t125.5 -79.5q78 0 148 70.5t118 179.5t84 240t53 253.5t17 217.5q0 147 -37.5 226t-126.5 79zM653 1823h371l45 -305h-119l-297 284v21z" />
    <glyph glyph-name="Oacute" unicode="&#xd3;" horiz-adv-x="1576" 
d="M969 1458q140 0 256 -44.5t194 -122t121 -183t43 -227.5q0 -139 -39.5 -271.5t-117.5 -246t-184.5 -199.5t-249.5 -135t-304 -49q-140 0 -256 44.5t-194 122t-121 183t-43 227.5q0 139 39.5 271.5t117.5 246t184.5 199.5t249.5 135t304 49zM956 1352q-78 0 -147.5 -70.5
t-118 -179.5t-84 -240t-52.5 -253.5t-17 -217.5q0 -146 37.5 -225.5t125.5 -79.5q78 0 148 70.5t118 179.5t84 240t53 253.5t17 217.5q0 147 -37.5 226t-126.5 79zM1124 1823h398v-19l-449 -286h-123z" />
    <glyph glyph-name="Ocircumflex" unicode="&#xd4;" horiz-adv-x="1576" 
d="M969 1458q140 0 256 -44.5t194 -122t121 -183t43 -227.5q0 -139 -39.5 -271.5t-117.5 -246t-184.5 -199.5t-249.5 -135t-304 -49q-140 0 -256 44.5t-194 122t-121 183t-43 227.5q0 139 39.5 271.5t117.5 246t184.5 199.5t249.5 135t304 49zM956 1352q-78 0 -147.5 -70.5
t-118 -179.5t-84 -240t-52.5 -253.5t-17 -217.5q0 -146 37.5 -225.5t125.5 -79.5q78 0 148 70.5t118 179.5t84 240t53 253.5t17 217.5q0 147 -37.5 226t-126.5 79zM1210 1829l168 -311h-127l-213 133l-282 -133h-140l316 311h278z" />
    <glyph glyph-name="Otilde" unicode="&#xd5;" horiz-adv-x="1576" 
d="M969 1458q140 0 256 -44.5t194 -122t121 -183t43 -227.5q0 -139 -39.5 -271.5t-117.5 -246t-184.5 -199.5t-249.5 -135t-304 -49q-140 0 -256 44.5t-194 122t-121 183t-43 227.5q0 139 39.5 271.5t117.5 246t184.5 199.5t249.5 135t304 49zM956 1352q-78 0 -147.5 -70.5
t-118 -179.5t-84 -240t-52.5 -253.5t-17 -217.5q0 -146 37.5 -225.5t125.5 -79.5q78 0 148 70.5t118 179.5t84 240t53 253.5t17 217.5q0 147 -37.5 226t-126.5 79zM1157 1518q-45 0 -85 19t-65 42t-56 42t-60 19q-39 0 -73 -28.5t-73 -83.5l-77 45q71 146 133 215.5
t143 69.5q45 0 85 -19t65 -42.5t56 -42.5t60 -19q39 0 71.5 28t72.5 84l78 -45q-69 -144 -131.5 -214t-143.5 -70z" />
    <glyph glyph-name="Odieresis" unicode="&#xd6;" horiz-adv-x="1576" 
d="M969 1458q140 0 256 -44.5t194 -122t121 -183t43 -227.5q0 -139 -39.5 -271.5t-117.5 -246t-184.5 -199.5t-249.5 -135t-304 -49q-140 0 -256 44.5t-194 122t-121 183t-43 227.5q0 139 39.5 271.5t117.5 246t184.5 199.5t249.5 135t304 49zM956 1352q-78 0 -147.5 -70.5
t-118 -179.5t-84 -240t-52.5 -253.5t-17 -217.5q0 -146 37.5 -225.5t125.5 -79.5q78 0 148 70.5t118 179.5t84 240t53 253.5t17 217.5q0 147 -37.5 226t-126.5 79zM827 1505q-80 0 -129 50t-49 120q0 78 52.5 134.5t138.5 56.5q80 0 128 -49t48 -119q0 -80 -52 -136.5
t-137 -56.5zM1255 1505q-80 0 -128 49.5t-48 120.5q0 79 51.5 135t137.5 56q80 0 128 -49t48 -119q0 -80 -51.5 -136.5t-137.5 -56.5z" />
    <glyph glyph-name="multiply" unicode="&#xd7;" horiz-adv-x="1021" 
d="M449 748l-220 278l125 102l215 -280l340 280l82 -102l-340 -278l221 -279l-124 -100l-220 278l-335 -278l-82 100z" />
    <glyph glyph-name="Oslash" unicode="&#xd8;" horiz-adv-x="1576" 
d="M1505 1423l-102 -116q87 -78 133.5 -188t46.5 -238q0 -139 -39.5 -271.5t-117.5 -246t-184.5 -199.5t-249.5 -135t-304 -49q-205 0 -358 94l-123 -142l-78 66l119 137q-84 78 -129 187t-45 235q0 139 39.5 271.5t117.5 246t184.5 199.5t249.5 135t304 49q197 0 352 -92
l106 123zM692 86q73 0 141 62.5t117.5 161t88.5 220t60 239t27 218.5l-594 -682q20 -219 160 -219zM965 1352q-73 0 -140.5 -61.5t-117 -159t-88.5 -217.5t-61 -237t-28 -218l594 682q-11 103 -48.5 157t-110.5 54z" />
    <glyph glyph-name="Ugrave" unicode="&#xd9;" horiz-adv-x="1568" 
d="M1255 551l140 657q7 33 7.5 53.5t-6.5 36.5t-27.5 24.5t-51.5 14t-82 9.5l20 92h480l-21 -92q-53 -5 -80.5 -12t-46 -24t-26 -37.5t-17.5 -64.5l-149 -698q-56 -267 -224 -398.5t-434 -131.5q-305 0 -454.5 169t-89.5 443l133 616q20 78 1.5 103t-114.5 35l20 92h732
l-21 -92q-53 -5 -80.5 -12t-46 -24t-26 -37.5t-17.5 -64.5l-137 -637q-20 -81 -13 -154.5t34 -128.5t86.5 -87.5t144.5 -32.5q142 0 232 88t134 295zM758 1823h370l46 -305h-119l-297 284v21z" />
    <glyph glyph-name="Uacute" unicode="&#xda;" horiz-adv-x="1568" 
d="M1255 551l140 657q7 33 7.5 53.5t-6.5 36.5t-27.5 24.5t-51.5 14t-82 9.5l20 92h480l-21 -92q-53 -5 -80.5 -12t-46 -24t-26 -37.5t-17.5 -64.5l-149 -698q-56 -267 -224 -398.5t-434 -131.5q-305 0 -454.5 169t-89.5 443l133 616q20 78 1.5 103t-114.5 35l20 92h732
l-21 -92q-53 -5 -80.5 -12t-46 -24t-26 -37.5t-17.5 -64.5l-137 -637q-20 -81 -13 -154.5t34 -128.5t86.5 -87.5t144.5 -32.5q142 0 232 88t134 295zM1229 1823h397v-19l-448 -286h-123z" />
    <glyph glyph-name="Ucircumflex" unicode="&#xdb;" horiz-adv-x="1568" 
d="M1255 551l140 657q7 33 7.5 53.5t-6.5 36.5t-27.5 24.5t-51.5 14t-82 9.5l20 92h480l-21 -92q-53 -5 -80.5 -12t-46 -24t-26 -37.5t-17.5 -64.5l-149 -698q-56 -267 -224 -398.5t-434 -131.5q-305 0 -454.5 169t-89.5 443l133 616q20 78 1.5 103t-114.5 35l20 92h732
l-21 -92q-53 -5 -80.5 -12t-46 -24t-26 -37.5t-17.5 -64.5l-137 -637q-20 -81 -13 -154.5t34 -128.5t86.5 -87.5t144.5 -32.5q142 0 232 88t134 295zM1315 1829l168 -311h-127l-213 133l-283 -133h-139l315 311h279z" />
    <glyph glyph-name="Udieresis" unicode="&#xdc;" horiz-adv-x="1568" 
d="M1255 551l140 657q7 33 7.5 53.5t-6.5 36.5t-27.5 24.5t-51.5 14t-82 9.5l20 92h480l-21 -92q-53 -5 -80.5 -12t-46 -24t-26 -37.5t-17.5 -64.5l-149 -698q-56 -267 -224 -398.5t-434 -131.5q-305 0 -454.5 169t-89.5 443l133 616q20 78 1.5 103t-114.5 35l20 92h732
l-21 -92q-53 -5 -80.5 -12t-46 -24t-26 -37.5t-17.5 -64.5l-137 -637q-20 -81 -13 -154.5t34 -128.5t86.5 -87.5t144.5 -32.5q142 0 232 88t134 295zM932 1505q-80 0 -129 50t-49 120q0 79 52 135t138 56q80 0 128 -49t48 -119q0 -80 -51.5 -136.5t-136.5 -56.5zM1360 1505
q-80 0 -128 49.5t-48 120.5q0 79 51 135t137 56q80 0 128 -49t48 -119q0 -80 -51 -136.5t-137 -56.5z" />
    <glyph glyph-name="Yacute" unicode="&#xdd;" horiz-adv-x="1454" 
d="M975 528l-66 -309q-6 -27 -7.5 -44.5t4.5 -31.5t14.5 -21.5t29 -13.5t40.5 -9t57 -7l-21 -92h-762l21 92q106 11 137.5 31t48.5 96l64 299l-248 752q-13 40 -34 54t-69 22l21 92h723l-21 -92q-80 -5 -115.5 -28.5t-35.5 -72.5q0 -36 26 -112l154 -457l326 469
q24 35 36 53.5t23.5 43.5t11.5 42q0 59 -123 62l21 92h422l-21 -92q-47 -8 -78.5 -24.5t-56.5 -51.5zM1190 1823h397v-19l-448 -286h-123z" />
    <glyph glyph-name="Thorn" unicode="&#xde;" horiz-adv-x="1454" 
d="M768 1077l-143 -671h26q71 0 135.5 25.5t117 74t83.5 127t31 176.5q0 126 -57 197t-166 71h-27zM799 1208l-6 -28h147q233 0 373.5 -97t140.5 -274q0 -106 -36 -192.5t-100.5 -147t-155.5 -101.5t-198 -60t-231 -19h-133l-12 -60q-17 -76 28 -103.5t181 -33.5l-21 -92
h-825l20 92q54 5 81.5 11.5t46 24t25.5 37.5t17 64l209 979q20 78 1.5 103t-113.5 35l20 92h731l-20 -92q-53 -5 -80.5 -12t-46 -24t-26 -37.5t-17.5 -64.5z" />
    <glyph glyph-name="germandbls" unicode="&#xdf;" horiz-adv-x="1507" 
d="M1022 63q98 0 98 91q0 30 -21 63t-55 66t-75 69t-82.5 76.5t-75.5 83.5t-55 96t-21 107q0 30 7 59.5t14.5 51.5t26.5 49t29.5 41.5t38.5 40.5t37.5 34.5t42 35.5t38.5 32q118 98 118 274q0 79 -38.5 129.5t-118.5 50.5q-73 0 -125 -62.5t-76 -174.5l-172 -813
q-100 -478 -269.5 -700t-404.5 -222q-128 0 -209.5 48.5t-81.5 129.5q0 76 48.5 121t123.5 51h78q-17 -266 58 -266q12 0 21.5 4.5t18 16t15 24t13 35t12 43t12 54t12 61t14 72t15.5 79.5l190 953h-139l18 88l150 37q31 107 88.5 198t138.5 162t192 111.5t240 40.5
q192 0 320.5 -80t128.5 -205q0 -95 -51 -154.5t-166 -107.5q-38 -16 -56.5 -25.5t-35.5 -30t-17 -47.5q0 -24 22.5 -55.5t59 -65.5t80.5 -72.5t88 -82.5t80.5 -89.5t59 -99.5t22.5 -106q0 -120 -68 -213.5t-177.5 -141.5t-239.5 -48q-177 0 -289.5 66t-112.5 179
q0 68 45 115.5t117 71.5h18q28 -162 102.5 -255.5t180.5 -93.5z" />
    <glyph glyph-name="agrave" unicode="&#xe0;" horiz-adv-x="1396" 
d="M518 262q73 0 187 199t196 491q-5 35 -29 59.5t-59 24.5q-67 0 -135.5 -65t-117.5 -162.5t-80 -211.5t-31 -210q0 -125 69 -125zM705 186q0 72 51 240q-115 -224 -223 -335t-246 -111q-121 0 -190.5 88.5t-69.5 244.5q0 93 24.5 190.5t69 188t110.5 171t145.5 140.5
t179 95t204.5 35q163 0 264 -109l254 109h84l-82 -285l-133 -541q-17 -79 -17 -82q0 -30 29 -30q27 0 65 35t97 108l53 -47q-59 -81 -106.5 -134.5t-101 -95.5t-109.5 -61.5t-121 -19.5q-107 0 -169 55.5t-62 150.5zM600 1569h371l45 -334h-119l-297 313v21z" />
    <glyph glyph-name="aacute" unicode="&#xe1;" horiz-adv-x="1396" 
d="M518 262q73 0 187 199t196 491q-5 35 -29 59.5t-59 24.5q-67 0 -135.5 -65t-117.5 -162.5t-80 -211.5t-31 -210q0 -125 69 -125zM705 186q0 72 51 240q-115 -224 -223 -335t-246 -111q-121 0 -190.5 88.5t-69.5 244.5q0 93 24.5 190.5t69 188t110.5 171t145.5 140.5
t179 95t204.5 35q163 0 264 -109l254 109h84l-82 -285l-133 -541q-17 -79 -17 -82q0 -30 29 -30q27 0 65 35t97 108l53 -47q-59 -81 -106.5 -134.5t-101 -95.5t-109.5 -61.5t-121 -19.5q-107 0 -169 55.5t-62 150.5zM989 1569h397v-19l-448 -315h-123z" />
    <glyph glyph-name="acircumflex" unicode="&#xe2;" horiz-adv-x="1396" 
d="M518 262q73 0 187 199t196 491q-5 35 -29 59.5t-59 24.5q-67 0 -135.5 -65t-117.5 -162.5t-80 -211.5t-31 -210q0 -125 69 -125zM705 186q0 72 51 240q-115 -224 -223 -335t-246 -111q-121 0 -190.5 88.5t-69.5 244.5q0 93 24.5 190.5t69 188t110.5 171t145.5 140.5
t179 95t204.5 35q163 0 264 -109l254 109h84l-82 -285l-133 -541q-17 -79 -17 -82q0 -30 29 -30q27 0 65 35t97 108l53 -47q-59 -81 -106.5 -134.5t-101 -95.5t-109.5 -61.5t-121 -19.5q-107 0 -169 55.5t-62 150.5zM1114 1569l168 -346h-127l-213 163l-283 -163h-139
l316 346h278z" />
    <glyph glyph-name="atilde" unicode="&#xe3;" horiz-adv-x="1396" 
d="M518 262q73 0 187 199t196 491q-5 35 -29 59.5t-59 24.5q-67 0 -135.5 -65t-117.5 -162.5t-80 -211.5t-31 -210q0 -125 69 -125zM705 186q0 72 51 240q-115 -224 -223 -335t-246 -111q-121 0 -190.5 88.5t-69.5 244.5q0 93 24.5 190.5t69 188t110.5 171t145.5 140.5
t179 95t204.5 35q163 0 264 -109l254 109h84l-82 -285l-133 -541q-17 -79 -17 -82q0 -30 29 -30q27 0 65 35t97 108l53 -47q-59 -81 -106.5 -134.5t-101 -95.5t-109.5 -61.5t-121 -19.5q-107 0 -169 55.5t-62 150.5zM1034 1233q-45 0 -85 19t-65 42.5t-56 42.5t-60 19
q-39 0 -72 -28.5t-73 -84.5l-78 45q71 146 133 215.5t143 69.5q45 0 85 -19t65 -42.5t56 -42.5t60 -19q39 0 71.5 28.5t72.5 84.5l78 -45q-69 -145 -131.5 -215t-143.5 -70z" />
    <glyph glyph-name="adieresis" unicode="&#xe4;" horiz-adv-x="1396" 
d="M518 262q73 0 187 199t196 491q-5 35 -29 59.5t-59 24.5q-67 0 -135.5 -65t-117.5 -162.5t-80 -211.5t-31 -210q0 -125 69 -125zM705 186q0 72 51 240q-115 -224 -223 -335t-246 -111q-121 0 -190.5 88.5t-69.5 244.5q0 93 24.5 190.5t69 188t110.5 171t145.5 140.5
t179 95t204.5 35q163 0 264 -109l254 109h84l-82 -285l-133 -541q-17 -79 -17 -82q0 -30 29 -30q27 0 65 35t97 108l53 -47q-59 -81 -106.5 -134.5t-101 -95.5t-109.5 -61.5t-121 -19.5q-107 0 -169 55.5t-62 150.5zM702 1227q-80 0 -129 50t-49 120q0 78 52.5 134t138.5 56
q80 0 128 -49t48 -119q0 -80 -52 -136t-137 -56zM1130 1227q-80 0 -128 49.5t-48 120.5q0 79 51.5 134.5t137.5 55.5q80 0 128 -49t48 -119q0 -80 -51.5 -136t-137.5 -56z" />
    <glyph glyph-name="aring" unicode="&#xe5;" horiz-adv-x="1396" 
d="M518 262q73 0 187 199t196 491q-5 35 -29 59.5t-59 24.5q-67 0 -135.5 -65t-117.5 -162.5t-80 -211.5t-31 -210q0 -125 69 -125zM705 186q0 72 51 240q-115 -224 -223 -335t-246 -111q-121 0 -190.5 88.5t-69.5 244.5q0 93 24.5 190.5t69 188t110.5 171t145.5 140.5
t179 95t204.5 35q163 0 264 -109l254 109h84l-82 -285l-133 -541q-17 -79 -17 -82q0 -30 29 -30q27 0 65 35t97 108l53 -47q-59 -81 -106.5 -134.5t-101 -95.5t-109.5 -61.5t-121 -19.5q-107 0 -169 55.5t-62 150.5zM1022 1411q0 42 -25.5 67t-70.5 25q-50 0 -77.5 -31
t-27.5 -79q0 -42 26 -67.5t71 -25.5q50 0 77 31.5t27 79.5zM702 1389q0 95 65 161t163 66q93 0 152 -57t59 -144q0 -95 -65 -161t-163 -66q-93 0 -152 57t-59 144z" />
    <glyph glyph-name="ae" unicode="&#xe6;" horiz-adv-x="1744" 
d="M778 1133q92 0 166.5 -29.5t122.5 -79.5q170 109 375 109q158 0 240.5 -69t82.5 -175q0 -82 -45 -145.5t-132.5 -107t-198 -72.5t-259.5 -50v-31q0 -134 57.5 -203t160.5 -69q75 0 143 38.5t143 119.5l49 -47q-221 -342 -561 -342q-167 0 -278.5 102.5t-124.5 275.5
q-104 -190 -204.5 -284t-227.5 -94q-121 0 -190.5 88.5t-69.5 244.5q0 112 34 228t100.5 222t156 189t209.5 132t251 49zM518 262q40 0 94 62.5t113 175.5q39 251 219 428q-47 112 -139 112q-86 0 -170.5 -109.5t-135 -262t-50.5 -281.5q0 -125 69 -125zM1409 1047
q-56 0 -113.5 -72t-98.5 -177t-58 -212q164 40 249 137.5t85 230.5q0 93 -64 93z" />
    <glyph glyph-name="ccedilla" unicode="&#xe7;" horiz-adv-x="1005" 
d="M133 -477l-18 76q106 0 170.5 29.5t64.5 70.5q0 25 -19.5 38.5t-48.5 18t-83 6.5l112 232q-127 31 -200.5 135.5t-73.5 261.5q0 109 34.5 217.5t100 202.5t152 166.5t198 114t230.5 41.5q131 0 211.5 -50.5t80.5 -156.5q0 -66 -40.5 -114t-108.5 -69h-125q11 66 15 114.5
t1.5 94.5t-19.5 70.5t-48 24.5q-61 0 -123 -93t-100.5 -230.5t-38.5 -262.5q0 -131 38 -194.5t117 -63.5q62 0 122 34.5t136 118.5l48 -47q-91 -156 -218.5 -242.5t-277.5 -86.5q-25 0 -35 2l-31 -60q102 -12 146.5 -53.5t44.5 -112.5q0 -113 -117.5 -173t-296.5 -60z" />
    <glyph glyph-name="egrave" unicode="&#xe8;" horiz-adv-x="1064" 
d="M1085 889q0 -66 -30.5 -120t-83.5 -94t-134.5 -71t-174.5 -52t-211 -38v-31q0 -134 57 -203t160 -69q75 0 143 38.5t143 119.5l50 -47q-221 -342 -562 -342q-177 0 -290 115t-113 306q0 139 55 271.5t149 234.5t230.5 164t288.5 62q158 0 240.5 -69t82.5 -175zM461 1569
h370l46 -334h-119l-297 313v21zM729 1047q-56 0 -113.5 -72t-98.5 -177t-58 -212q164 40 249 137.5t85 230.5q0 93 -64 93z" />
    <glyph glyph-name="eacute" unicode="&#xe9;" horiz-adv-x="1064" 
d="M1085 889q0 -66 -30.5 -120t-83.5 -94t-134.5 -71t-174.5 -52t-211 -38v-31q0 -134 57 -203t160 -69q75 0 143 38.5t143 119.5l50 -47q-221 -342 -562 -342q-177 0 -290 115t-113 306q0 139 55 271.5t149 234.5t230.5 164t288.5 62q158 0 240.5 -69t82.5 -175zM829 1569
h398v-19l-449 -315h-123zM729 1047q-56 0 -113.5 -72t-98.5 -177t-58 -212q164 40 249 137.5t85 230.5q0 93 -64 93z" />
    <glyph glyph-name="ecircumflex" unicode="&#xea;" horiz-adv-x="1064" 
d="M1085 889q0 -66 -30.5 -120t-83.5 -94t-134.5 -71t-174.5 -52t-211 -38v-31q0 -134 57 -203t160 -69q75 0 143 38.5t143 119.5l50 -47q-221 -342 -562 -342q-177 0 -290 115t-113 306q0 139 55 271.5t149 234.5t230.5 164t288.5 62q158 0 240.5 -69t82.5 -175zM958 1569
l168 -346h-127l-213 163l-282 -163h-139l315 346h278zM729 1047q-56 0 -113.5 -72t-98.5 -177t-58 -212q164 40 249 137.5t85 230.5q0 93 -64 93z" />
    <glyph glyph-name="edieresis" unicode="&#xeb;" horiz-adv-x="1064" 
d="M1085 889q0 -66 -30.5 -120t-83.5 -94t-134.5 -71t-174.5 -52t-211 -38v-31q0 -134 57 -203t160 -69q75 0 143 38.5t143 119.5l50 -47q-221 -342 -562 -342q-177 0 -290 115t-113 306q0 139 55 271.5t149 234.5t230.5 164t288.5 62q158 0 240.5 -69t82.5 -175zM580 1227
q-80 0 -129.5 50t-49.5 120q0 78 52.5 134t138.5 56q80 0 128 -49t48 -119q0 -80 -51.5 -136t-136.5 -56zM1008 1227q-80 0 -128.5 49.5t-48.5 120.5q0 79 51.5 134.5t137.5 55.5q80 0 128 -49t48 -119q0 -80 -51 -136t-137 -56zM729 1047q-56 0 -113.5 -72t-98.5 -177
t-58 -212q164 40 249 137.5t85 230.5q0 93 -64 93z" />
    <glyph glyph-name="igrave" unicode="&#xec;" horiz-adv-x="737" 
d="M74 344l139 555l-104 84l14 61l498 89h73l-209 -826q-16 -59 -16 -82q0 -30 29 -30q26 0 64 34.5t97 108.5l54 -47q-119 -163 -216.5 -237t-222.5 -74q-106 0 -163.5 56.5t-57.5 143.5q0 62 21 164zM180 1569h371l45 -334h-119l-297 313v21z" />
    <glyph glyph-name="iacute" unicode="&#xed;" horiz-adv-x="737" 
d="M74 344l139 555l-104 84l14 61l498 89h73l-209 -826q-16 -59 -16 -82q0 -30 29 -30q26 0 64 34.5t97 108.5l54 -47q-119 -163 -216.5 -237t-222.5 -74q-106 0 -163.5 56.5t-57.5 143.5q0 62 21 164zM610 1569h398v-19l-449 -315h-123z" />
    <glyph glyph-name="icircumflex" unicode="&#xee;" horiz-adv-x="737" 
d="M74 344l139 555l-104 84l14 61l498 89h73l-209 -826q-16 -59 -16 -82q0 -30 29 -30q26 0 64 34.5t97 108.5l54 -47q-119 -163 -216.5 -237t-222.5 -74q-106 0 -163.5 56.5t-57.5 143.5q0 62 21 164zM719 1569l168 -346h-127l-213 163l-283 -163h-139l315 346h279z" />
    <glyph glyph-name="idieresis" unicode="&#xef;" horiz-adv-x="737" 
d="M74 344l139 555l-104 84l14 61l498 89h73l-209 -826q-16 -59 -16 -82q0 -30 29 -30q26 0 64 34.5t97 108.5l54 -47q-119 -163 -216.5 -237t-222.5 -74q-106 0 -163.5 56.5t-57.5 143.5q0 62 21 164zM324 1227q-80 0 -129.5 50t-49.5 120q0 78 52.5 134t138.5 56
q80 0 128 -49t48 -119q0 -80 -51.5 -136t-136.5 -56zM752 1227q-80 0 -128.5 49.5t-48.5 120.5q0 79 51.5 134.5t137.5 55.5q80 0 128 -49t48 -119q0 -80 -51 -136t-137 -56z" />
    <glyph glyph-name="eth" unicode="&#xf0;" horiz-adv-x="1226" 
d="M301 1200l-27 94l353 109q-80 77 -238 147l47 64q222 -45 377 -154l283 86l26 -94l-215 -66q144 -130 213.5 -303.5t69.5 -345.5q0 -174 -56.5 -318t-153.5 -239.5t-225.5 -147.5t-273.5 -52q-89 0 -168 28t-141 80.5t-98.5 135.5t-36.5 186q0 142 52.5 274t143 231
t221 158.5t277.5 59.5q22 0 43 -3q-22 112 -78 191zM791 922q0 57 -7 129q-3 0 -9.5 1t-8.5 1q-69 0 -133 -93.5t-105.5 -227t-66.5 -272t-25 -237.5q0 -153 62 -153q68 0 138 147.5t112.5 347t42.5 357.5z" />
    <glyph glyph-name="ntilde" unicode="&#xf1;" horiz-adv-x="1380" 
d="M707 1133l-140 -500q125 253 270.5 376.5t295.5 123.5q82 0 128 -48t46 -131q0 -44 -19 -116l-147 -531q-17 -63 -17 -82q0 -30 29 -30q27 0 65 35t97 108l53 -47q-59 -81 -106.5 -134.5t-101 -95.5t-109.5 -61.5t-121 -19.5q-107 0 -169.5 57t-62.5 143q0 64 31 166
l121 399q14 47 14 66q0 37 -35 37q-28 0 -74 -47t-94.5 -123t-95.5 -184.5t-76 -219.5l-71 -274h-418l225 899l-104 84l14 61l498 89h74zM1008 1233q-37 0 -70 12.5t-57 30.5t-46 36.5t-46 31t-48 12.5q-39 0 -72 -28.5t-73 -84.5l-78 45q71 145 133.5 215t143.5 70
q45 0 85 -19t65 -42.5t56 -42.5t60 -19q39 0 71 28t72 85l78 -45q-69 -145 -131 -215t-143 -70z" />
    <glyph glyph-name="ograve" unicode="&#xf2;" horiz-adv-x="1226" 
d="M436 211q0 -141 64 -141q65 0 134.5 147.5t113 342.5t43.5 341q0 141 -64 141q-65 0 -134.5 -147.5t-113 -342.5t-43.5 -341zM1190 696q0 -191 -90.5 -355t-251 -262.5t-352.5 -98.5q-206 0 -332.5 115.5t-126.5 320.5q0 143 53.5 274.5t145.5 229t221.5 155.5t273.5 58
q206 0 332.5 -116t126.5 -321zM436 1569h371l45 -334h-119l-297 313v21z" />
    <glyph glyph-name="oacute" unicode="&#xf3;" horiz-adv-x="1226" 
d="M436 211q0 -141 64 -141q65 0 134.5 147.5t113 342.5t43.5 341q0 141 -64 141q-65 0 -134.5 -147.5t-113 -342.5t-43.5 -341zM1190 696q0 -191 -90.5 -355t-251 -262.5t-352.5 -98.5q-206 0 -332.5 115.5t-126.5 320.5q0 143 53.5 274.5t145.5 229t221.5 155.5t273.5 58
q206 0 332.5 -116t126.5 -321zM866 1569h398v-19l-449 -315h-123z" />
    <glyph glyph-name="ocircumflex" unicode="&#xf4;" horiz-adv-x="1226" 
d="M436 211q0 -141 64 -141q65 0 134.5 147.5t113 342.5t43.5 341q0 141 -64 141q-65 0 -134.5 -147.5t-113 -342.5t-43.5 -341zM1190 696q0 -191 -90.5 -355t-251 -262.5t-352.5 -98.5q-206 0 -332.5 115.5t-126.5 320.5q0 143 53.5 274.5t145.5 229t221.5 155.5t273.5 58
q206 0 332.5 -116t126.5 -321zM975 1569l168 -346h-127l-213 163l-283 -163h-139l315 346h279z" />
    <glyph glyph-name="otilde" unicode="&#xf5;" horiz-adv-x="1226" 
d="M436 211q0 -141 64 -141q65 0 134.5 147.5t113 342.5t43.5 341q0 141 -64 141q-65 0 -134.5 -147.5t-113 -342.5t-43.5 -341zM1190 696q0 -191 -90.5 -355t-251 -262.5t-352.5 -98.5q-206 0 -332.5 115.5t-126.5 320.5q0 143 53.5 274.5t145.5 229t221.5 155.5t273.5 58
q206 0 332.5 -116t126.5 -321zM907 1233q-45 0 -85 19t-65 42.5t-56 42.5t-60 19q-39 0 -72 -28.5t-73 -84.5l-78 45q71 146 133 215.5t143 69.5q37 0 70 -12.5t57 -30.5t46 -36.5t46 -31t48 -12.5q39 0 71 28t72 85l78 -45q-69 -145 -131.5 -215t-143.5 -70z" />
    <glyph glyph-name="odieresis" unicode="&#xf6;" horiz-adv-x="1226" 
d="M436 211q0 -141 64 -141q65 0 134.5 147.5t113 342.5t43.5 341q0 141 -64 141q-65 0 -134.5 -147.5t-113 -342.5t-43.5 -341zM1190 696q0 -191 -90.5 -355t-251 -262.5t-352.5 -98.5q-206 0 -332.5 115.5t-126.5 320.5q0 143 53.5 274.5t145.5 229t221.5 155.5t273.5 58
q206 0 332.5 -116t126.5 -321zM580 1227q-80 0 -129.5 50t-49.5 120q0 78 52.5 134t138.5 56q80 0 128 -49t48 -119q0 -80 -51.5 -136t-136.5 -56zM1008 1227q-80 0 -128.5 49.5t-48.5 120.5q0 79 51.5 134.5t137.5 55.5q80 0 128 -49t48 -119q0 -80 -51 -136t-137 -56z" />
    <glyph glyph-name="divide" unicode="&#xf7;" horiz-adv-x="1179" 
d="M160 682l33 147h909l-33 -147h-909zM428 399q0 54 36 90.5t87 36.5q52 0 89.5 -37t37.5 -90q0 -51 -38 -88t-89 -37t-87 37t-36 88zM582 1112q0 51 36 87t87 36t88.5 -36t37.5 -87t-37.5 -89t-88.5 -38t-87 38t-36 89z" />
    <glyph glyph-name="oslash" unicode="&#xf8;" horiz-adv-x="1226" 
d="M1159 1124l-94 -110q125 -119 125 -318q0 -191 -90.5 -355t-251 -262.5t-352.5 -98.5q-151 0 -258 61l-103 -123l-74 53l103 123q-127 117 -127 322q0 143 53.5 274.5t145.5 229t221.5 155.5t273.5 58q146 0 262 -64l92 109zM727 1042q-52 0 -110.5 -96.5t-103.5 -237
t-69 -286.5l357 420q0 10 1 30t1 29q0 141 -76 141zM424 211q0 -141 76 -141q51 0 108 94.5t102 232.5t70 283l-356 -420v-49z" />
    <glyph glyph-name="ugrave" unicode="&#xf9;" horiz-adv-x="1386" 
d="M848 838l63 254l426 20l-202 -805q-17 -70 -17 -82q0 -30 29 -30q27 0 65 35t97 108l53 -47q-59 -81 -106.5 -134.5t-101 -95.5t-109.5 -61.5t-121 -19.5q-107 0 -169.5 55.5t-62.5 150.5q0 72 51 240q-125 -247 -238.5 -346.5t-240.5 -99.5q-98 0 -155.5 61.5
t-57.5 153.5q0 45 17 122l145 582l-104 84l14 61l498 89h73l-192 -760q-17 -66 -17 -84q0 -37 33 -37q39 0 101.5 80.5t127 219t101.5 286.5zM502 1569h370l46 -334h-119l-297 313v21z" />
    <glyph glyph-name="uacute" unicode="&#xfa;" horiz-adv-x="1386" 
d="M848 838l63 254l426 20l-202 -805q-17 -70 -17 -82q0 -30 29 -30q27 0 65 35t97 108l53 -47q-59 -81 -106.5 -134.5t-101 -95.5t-109.5 -61.5t-121 -19.5q-107 0 -169.5 55.5t-62.5 150.5q0 72 51 240q-125 -247 -238.5 -346.5t-240.5 -99.5q-98 0 -155.5 61.5
t-57.5 153.5q0 45 17 122l145 582l-104 84l14 61l498 89h73l-192 -760q-17 -66 -17 -84q0 -37 33 -37q39 0 101.5 80.5t127 219t101.5 286.5zM932 1569h397v-19l-448 -315h-123z" />
    <glyph glyph-name="ucircumflex" unicode="&#xfb;" horiz-adv-x="1386" 
d="M848 838l63 254l426 20l-202 -805q-17 -70 -17 -82q0 -30 29 -30q27 0 65 35t97 108l53 -47q-59 -81 -106.5 -134.5t-101 -95.5t-109.5 -61.5t-121 -19.5q-107 0 -169.5 55.5t-62.5 150.5q0 72 51 240q-125 -247 -238.5 -346.5t-240.5 -99.5q-98 0 -155.5 61.5
t-57.5 153.5q0 45 17 122l145 582l-104 84l14 61l498 89h73l-192 -760q-17 -66 -17 -84q0 -37 33 -37q39 0 101.5 80.5t127 219t101.5 286.5zM1040 1569l168 -346h-127l-213 163l-282 -163h-140l316 346h278z" />
    <glyph glyph-name="udieresis" unicode="&#xfc;" horiz-adv-x="1386" 
d="M848 838l63 254l426 20l-202 -805q-17 -70 -17 -82q0 -30 29 -30q27 0 65 35t97 108l53 -47q-59 -81 -106.5 -134.5t-101 -95.5t-109.5 -61.5t-121 -19.5q-107 0 -169.5 55.5t-62.5 150.5q0 72 51 240q-125 -247 -238.5 -346.5t-240.5 -99.5q-98 0 -155.5 61.5
t-57.5 153.5q0 45 17 122l145 582l-104 84l14 61l498 89h73l-192 -760q-17 -66 -17 -84q0 -37 33 -37q39 0 101.5 80.5t127 219t101.5 286.5zM645 1227q-80 0 -129 50t-49 120q0 78 52 134t138 56q80 0 128.5 -49t48.5 -119q0 -80 -52 -136t-137 -56zM1073 1227
q-80 0 -128 49.5t-48 120.5q0 79 51 134.5t137 55.5q80 0 128.5 -49t48.5 -119q0 -80 -51.5 -136t-137.5 -56z" />
    <glyph glyph-name="yacute" unicode="&#xfd;" horiz-adv-x="1126" 
d="M139 915l-112 80l16 54l440 84h43l179 -902q105 146 144.5 255t39.5 235q0 119 -61 173t-154 54l4 33q38 65 103 108.5t145 43.5q108 0 164.5 -65t56.5 -169q0 -65 -24.5 -141.5t-60.5 -147t-97.5 -162t-114 -161.5t-131.5 -170q-125 -160 -211.5 -258.5t-175.5 -175.5
t-168 -109.5t-166 -32.5q-98 0 -162.5 50.5t-64.5 140.5q0 70 48 121.5t126 74.5h41q0 -221 157 -221q110 0 236 123zM827 1569h398v-19l-449 -315h-123z" />
    <glyph glyph-name="thorn" unicode="&#xfe;" horiz-adv-x="1339" 
d="M813 854q-55 0 -137 -108t-153 -267t-97 -297q10 -39 38 -61.5t64 -22.5q64 0 128 67.5t109.5 166t74 212t28.5 204.5q0 106 -55 106zM782 1604l-256 -986q51 104 107 190.5t124.5 162.5t147.5 119t160 43q238 0 238 -322q0 -161 -57.5 -314t-152 -266t-223.5 -182
t-264 -69q-68 0 -121 23.5t-79 66.5l-87 -326q-6 -21 -6 -35q0 -31 32.5 -41.5t115.5 -15.5l-17 -86h-682l17 86q61 5 86 18.5t35 55.5l417 1660l-98 56l14 69l478 93h71z" />
    <glyph glyph-name="ydieresis" unicode="&#xff;" horiz-adv-x="1126" 
d="M139 915l-112 80l16 54l440 84h43l179 -902q105 146 144.5 255t39.5 235q0 119 -61 173t-154 54l4 33q38 65 103 108.5t145 43.5q108 0 164.5 -65t56.5 -169q0 -65 -24.5 -141.5t-60.5 -147t-97.5 -162t-114 -161.5t-131.5 -170q-125 -160 -211.5 -258.5t-175.5 -175.5
t-168 -109.5t-166 -32.5q-98 0 -162.5 50.5t-64.5 140.5q0 70 48 121.5t126 74.5h41q0 -221 157 -221q110 0 236 123zM541 1227q-80 0 -129.5 50t-49.5 120q0 78 52.5 134t138.5 56q80 0 128 -49t48 -119q0 -80 -51.5 -136t-136.5 -56zM969 1227q-80 0 -128 49.5t-48 120.5
q0 79 51 134.5t137 55.5q80 0 128 -49t48 -119q0 -80 -51 -136t-137 -56z" />
    <glyph glyph-name="Amacron" unicode="&#x100;" horiz-adv-x="1546" 
d="M877 264l-31 168h-506l-96 -168q-35 -64 -35 -94q0 -37 34 -54.5t113 -23.5l-20 -92h-449l21 92q47 5 78.5 21t54.5 55l647 1092l-33 178h463l232 -1270q7 -36 32.5 -52t73.5 -24l-20 -92h-754l20 92q88 3 134.5 26t46.5 79q0 36 -6 67zM604 1528l43 194h602l-43 -194
h-602zM727 1098l-317 -547h415z" />
    <glyph glyph-name="amacron" unicode="&#x101;" horiz-adv-x="1396" 
d="M518 262q73 0 187 199t196 491q-5 35 -29 59.5t-59 24.5q-67 0 -135.5 -65t-117.5 -162.5t-80 -211.5t-31 -210q0 -125 69 -125zM705 186q0 72 51 240q-115 -224 -223 -335t-246 -111q-121 0 -190.5 88.5t-69.5 244.5q0 93 24.5 190.5t69 188t110.5 171t145.5 140.5
t179 95t204.5 35q163 0 264 -109l254 109h84l-82 -285l-133 -541q-17 -79 -17 -82q0 -30 29 -30q27 0 65 35t97 108l53 -47q-59 -81 -106.5 -134.5t-101 -95.5t-109.5 -61.5t-121 -19.5q-107 0 -169 55.5t-62 150.5zM635 1280l43 195h602l-43 -195h-602z" />
    <glyph glyph-name="Abreve" unicode="&#x102;" horiz-adv-x="1546" 
d="M877 264l-31 168h-506l-96 -168q-35 -64 -35 -94q0 -37 34 -54.5t113 -23.5l-20 -92h-449l21 92q47 5 78.5 21t54.5 55l647 1092l-33 178h463l232 -1270q7 -36 32.5 -52t73.5 -24l-20 -92h-754l20 92q88 3 134.5 26t46.5 79q0 36 -6 67zM903 1511q-139 0 -203.5 81.5
t-27.5 238.5h98q-3 -70 42 -97.5t130 -27.5t144.5 27.5t89.5 97.5h106q-37 -159 -136 -239.5t-243 -80.5zM727 1098l-317 -547h415z" />
    <glyph glyph-name="abreve" unicode="&#x103;" horiz-adv-x="1396" 
d="M518 262q73 0 187 199t196 491q-5 35 -29 59.5t-59 24.5q-67 0 -135.5 -65t-117.5 -162.5t-80 -211.5t-31 -210q0 -125 69 -125zM705 186q0 72 51 240q-115 -224 -223 -335t-246 -111q-121 0 -190.5 88.5t-69.5 244.5q0 93 24.5 190.5t69 188t110.5 171t145.5 140.5
t179 95t204.5 35q163 0 264 -109l254 109h84l-82 -285l-133 -541q-17 -79 -17 -82q0 -30 29 -30q27 0 65 35t97 108l53 -47q-59 -81 -106.5 -134.5t-101 -95.5t-109.5 -61.5t-121 -19.5q-107 0 -169 55.5t-62 150.5zM922 1225q-147 0 -206.5 92t-21.5 256h103
q-7 -78 38.5 -110.5t129.5 -32.5q182 0 237 143h103q-39 -165 -138 -256.5t-245 -91.5z" />
    <glyph glyph-name="Aogonek" unicode="&#x104;" horiz-adv-x="1546" 
d="M877 264l-31 168h-506l-96 -168q-35 -64 -35 -94q0 -37 34 -54.5t113 -23.5l-20 -92h-449l21 92q47 5 78.5 21t54.5 55l647 1092l-33 178h463l232 -1270q7 -36 32.5 -52t73.5 -24l-20 -92h-674q-74 -46 -111 -94t-37 -109q0 -36 21 -60t59 -24q36 0 66 12t74 44l26 -48
q-75 -83 -150 -123t-161 -40q-77 0 -126.5 41.5t-49.5 119.5q0 109 78.5 185.5t240.5 148.5q13 6 37 16t34.5 15t29.5 13.5t27.5 13.5t21 13.5t18 15.5t12 16.5t9 19t2.5 21.5q0 36 -6 67zM727 1098l-317 -547h415z" />
    <glyph glyph-name="aogonek" unicode="&#x105;" horiz-adv-x="1396" 
d="M1374 291q-61 -81 -142 -163.5t-133.5 -130.5t-91 -101.5t-38.5 -98.5q0 -36 21 -60t59 -24q35 0 65 12t74 44l26 -48q-75 -83 -150 -123t-161 -40q-77 0 -126.5 40t-49.5 111q0 152 205 271q-106 2 -166.5 56.5t-60.5 149.5q0 72 51 240q-115 -224 -223 -335t-246 -111
q-121 0 -190.5 88.5t-69.5 244.5q0 93 24.5 190.5t69 188t110.5 171t145.5 140.5t179 95t204.5 35q163 0 264 -109l254 109h84l-82 -285l-133 -541q-17 -79 -17 -82q0 -30 29 -30q27 0 65 35t97 108zM518 262q73 0 187 199t196 491q-5 35 -29 59.5t-59 24.5
q-67 0 -135.5 -65t-117.5 -162.5t-80 -211.5t-31 -210q0 -125 69 -125z" />
    <glyph glyph-name="Cacute" unicode="&#x106;" horiz-adv-x="1421" 
d="M1010 1458q132 0 256.5 -36t195.5 -91l-69 -364h-103q-16 389 -262 389q-96 0 -179.5 -59t-140.5 -153t-98.5 -211t-60.5 -233.5t-19 -220.5q0 -387 232 -387q254 0 471 443h125l-127 -424q-214 -131 -498 -131q-305 0 -482 166.5t-177 437.5q0 252 122.5 452.5t336 311
t477.5 110.5zM1157 1823h397v-19l-448 -286h-123z" />
    <glyph glyph-name="cacute" unicode="&#x107;" horiz-adv-x="1005" 
d="M719 1047q-61 0 -123 -93t-100.5 -230.5t-38.5 -262.5q0 -131 38 -194.5t117 -63.5q62 0 122 34.5t136 118.5l48 -47q-91 -156 -218.5 -242.5t-277.5 -86.5q-173 0 -279 110.5t-106 300.5q0 109 34.5 217.5t100 202.5t152 166.5t198 114t230.5 41.5q131 0 211.5 -50.5
t80.5 -156.5q0 -66 -40.5 -114t-108.5 -69h-125q11 66 15 114.5t1.5 94.5t-19.5 70.5t-48 24.5zM885 1569h397v-19l-448 -315h-123z" />
    <glyph glyph-name="Ccircumflex" unicode="&#x108;" horiz-adv-x="1421" 
d="M1010 1458q132 0 256.5 -36t195.5 -91l-69 -364h-103q-16 389 -262 389q-96 0 -179.5 -59t-140.5 -153t-98.5 -211t-60.5 -233.5t-19 -220.5q0 -387 232 -387q254 0 471 443h125l-127 -424q-214 -131 -498 -131q-305 0 -482 166.5t-177 437.5q0 252 122.5 452.5t336 311
t477.5 110.5zM1243 1829l168 -311h-127l-213 133l-283 -133h-139l316 311h278z" />
    <glyph glyph-name="ccircumflex" unicode="&#x109;" horiz-adv-x="1005" 
d="M719 1047q-61 0 -123 -93t-100.5 -230.5t-38.5 -262.5q0 -131 38 -194.5t117 -63.5q62 0 122 34.5t136 118.5l48 -47q-91 -156 -218.5 -242.5t-277.5 -86.5q-173 0 -279 110.5t-106 300.5q0 109 34.5 217.5t100 202.5t152 166.5t198 114t230.5 41.5q131 0 211.5 -50.5
t80.5 -156.5q0 -66 -40.5 -114t-108.5 -69h-125q11 66 15 114.5t1.5 94.5t-19.5 70.5t-48 24.5zM993 1569l168 -346h-127l-213 163l-282 -163h-140l316 346h278z" />
    <glyph glyph-name="Cdotaccent" unicode="&#x10a;" horiz-adv-x="1421" 
d="M1010 1458q132 0 256.5 -36t195.5 -91l-69 -364h-103q-16 389 -262 389q-96 0 -179.5 -59t-140.5 -153t-98.5 -211t-60.5 -233.5t-19 -220.5q0 -387 232 -387q254 0 471 443h125l-127 -424q-214 -131 -498 -131q-305 0 -482 166.5t-177 437.5q0 252 122.5 452.5t336 311
t477.5 110.5zM1075 1509q-89 0 -142.5 53t-53.5 128q0 85 57.5 143.5t155.5 58.5q88 0 142 -51.5t54 -126.5q0 -86 -58 -145.5t-155 -59.5z" />
    <glyph glyph-name="cdotaccent" unicode="&#x10b;" horiz-adv-x="1005" 
d="M719 1047q-61 0 -123 -93t-100.5 -230.5t-38.5 -262.5q0 -131 38 -194.5t117 -63.5q62 0 122 34.5t136 118.5l48 -47q-91 -156 -218.5 -242.5t-277.5 -86.5q-173 0 -279 110.5t-106 300.5q0 109 34.5 217.5t100 202.5t152 166.5t198 114t230.5 41.5q131 0 211.5 -50.5
t80.5 -156.5q0 -66 -40.5 -114t-108.5 -69h-125q11 66 15 114.5t1.5 94.5t-19.5 70.5t-48 24.5zM809 1217q-89 0 -143 52.5t-54 127.5q0 85 57.5 143.5t155.5 58.5q88 0 142.5 -52t54.5 -126q0 -86 -58 -145t-155 -59z" />
    <glyph glyph-name="Ccaron" unicode="&#x10c;" horiz-adv-x="1421" 
d="M1010 1458q132 0 256.5 -36t195.5 -91l-69 -364h-103q-16 389 -262 389q-96 0 -179.5 -59t-140.5 -153t-98.5 -211t-60.5 -233.5t-19 -220.5q0 -387 232 -387q254 0 471 443h125l-127 -424q-214 -131 -498 -131q-305 0 -482 166.5t-177 437.5q0 252 122.5 452.5t336 311
t477.5 110.5zM909 1520l-168 311h127l213 -133l283 133h139l-315 -311h-279z" />
    <glyph glyph-name="ccaron" unicode="&#x10d;" horiz-adv-x="1005" 
d="M719 1047q-61 0 -123 -93t-100.5 -230.5t-38.5 -262.5q0 -131 38 -194.5t117 -63.5q62 0 122 34.5t136 118.5l48 -47q-91 -156 -218.5 -242.5t-277.5 -86.5q-173 0 -279 110.5t-106 300.5q0 109 34.5 217.5t100 202.5t152 166.5t198 114t230.5 41.5q131 0 211.5 -50.5
t80.5 -156.5q0 -66 -40.5 -114t-108.5 -69h-125q11 66 15 114.5t1.5 94.5t-19.5 70.5t-48 24.5zM649 1233l-168 346h127l213 -164l283 164h139l-315 -346h-279z" />
    <glyph glyph-name="Dcaron" unicode="&#x10e;" horiz-adv-x="1624" 
d="M676 102h12q97 0 189.5 78t156.5 199t103 269t39 286q0 208 -76 304.5t-254 96.5h-23l-231 -1089q-20 -87 -1 -115.5t85 -28.5zM666 0h-715l20 92q54 5 81.5 11.5t46 24t25.5 37.5t17 64l209 979q20 78 1.5 103t-113.5 35l20 92h660q151 0 280 -37.5t225.5 -108.5
t151.5 -182.5t55 -251.5q0 -153 -49 -288.5t-138 -238.5t-208.5 -178t-265 -114t-303.5 -39zM825 1520l-168 311h127l213 -133l283 133h139l-315 -311h-279z" />
    <glyph glyph-name="dcaron" unicode="&#x10f;" horiz-adv-x="1402" 
d="M518 262q73 0 187 199t196 491q-5 35 -29 59.5t-59 24.5q-67 0 -135.5 -65t-117.5 -162.5t-80 -211.5t-31 -210q0 -125 69 -125zM938 1094l68 292l-99 56l15 69l477 93h71l-311 -1297q-16 -74 -16 -82q0 -30 28 -30q27 0 65 35t97 108l53 -47q-59 -81 -106.5 -134.5
t-101 -95.5t-109.5 -61.5t-121 -19.5q-107 0 -169 55.5t-62 150.5q0 79 49 240q-114 -221 -227 -333.5t-252 -112.5q-121 0 -190.5 88.5t-69.5 244.5q0 112 34 228.5t99 221.5t152 188.5t201.5 132.5t238.5 49q109 0 186 -39zM1894 1579l-327 -395h-97l113 420h318z" />
    <glyph glyph-name="Dcroat" unicode="&#x110;" horiz-adv-x="1624" 
d="M102 655l29 140h131l88 413q20 78 1.5 103t-113.5 35l20 92h660q151 0 280 -37.5t225.5 -108.5t151.5 -182.5t55 -251.5q0 -153 -49 -288.5t-138 -238.5t-208.5 -178t-265 -114t-303.5 -39h-715l20 92q54 5 81.5 11.5t46 24t25.5 37.5t17 64l90 426h-129zM676 102h12
q97 0 189.5 78t156.5 199t103 269t39 286q0 208 -76 304.5t-254 96.5h-23l-114 -540h229l-29 -140h-231l-86 -409q-20 -87 -1 -115.5t85 -28.5z" />
    <glyph glyph-name="dcroat" unicode="&#x111;" horiz-adv-x="1421" 
d="M938 1094l25 108h-236l25 115h237l17 69l-99 56l15 69l477 93h71l-69 -287h123l-25 -115h-125l-215 -895q-16 -74 -16 -82q0 -30 28 -30q27 0 65 35t97 108l53 -47q-59 -81 -106.5 -134.5t-101 -95.5t-109.5 -61.5t-121 -19.5q-107 0 -169 55.5t-62 150.5q0 79 49 240
q-114 -221 -227 -333.5t-252 -112.5q-121 0 -190.5 88.5t-69.5 244.5q0 112 34 228.5t99 221.5t152 188.5t201.5 132.5t238.5 49q109 0 186 -39zM518 262q73 0 187 199t196 491q-5 35 -29 59.5t-59 24.5q-67 0 -135.5 -65t-117.5 -162.5t-80 -211.5t-31 -210q0 -125 69 -125
z" />
    <glyph glyph-name="Emacron" unicode="&#x112;" horiz-adv-x="1380" 
d="M1161 0h-1210l20 92q54 5 81.5 11.5t46 24t25.5 37.5t17 64l209 979q20 78 1.5 103t-113.5 35l20 92h1198l-78 -408h-80q-15 68 -24.5 104t-25 77t-32 59.5t-43.5 36t-62 23t-85 5.5h-203l-112 -532h170q70 0 104.5 39.5t71.5 150.5h96l-109 -504h-96q11 112 -6.5 151.5
t-87.5 39.5h-170l-94 -440q-18 -80 13.5 -109t115.5 -29h45q57 0 100 10.5t80 32.5t77 64.5t82.5 96t105.5 137.5q5 7 8.5 12t7.5 10h102zM623 1528l43 194h602l-43 -194h-602z" />
    <glyph glyph-name="emacron" unicode="&#x113;" horiz-adv-x="1064" 
d="M1085 889q0 -66 -30.5 -120t-83.5 -94t-134.5 -71t-174.5 -52t-211 -38v-31q0 -134 57 -203t160 -69q75 0 143 38.5t143 119.5l50 -47q-221 -342 -562 -342q-177 0 -290 115t-113 306q0 139 55 271.5t149 234.5t230.5 164t288.5 62q158 0 240.5 -69t82.5 -175zM496 1280
l43 195h602l-43 -195h-602zM729 1047q-56 0 -113.5 -72t-98.5 -177t-58 -212q164 40 249 137.5t85 230.5q0 93 -64 93z" />
    <glyph glyph-name="Ebreve" unicode="&#x114;" horiz-adv-x="1380" 
d="M1161 0h-1210l20 92q54 5 81.5 11.5t46 24t25.5 37.5t17 64l209 979q20 78 1.5 103t-113.5 35l20 92h1198l-78 -408h-80q-15 68 -24.5 104t-25 77t-32 59.5t-43.5 36t-62 23t-85 5.5h-203l-112 -532h170q70 0 104.5 39.5t71.5 150.5h96l-109 -504h-96q11 112 -6.5 151.5
t-87.5 39.5h-170l-94 -440q-18 -80 13.5 -109t115.5 -29h45q57 0 100 10.5t80 32.5t77 64.5t82.5 96t105.5 137.5q5 7 8.5 12t7.5 10h102zM924 1511q-139 0 -204 81.5t-28 238.5h99q-3 -70 42 -97.5t130 -27.5t144 27.5t89 97.5h107q-37 -159 -136 -239.5t-243 -80.5z" />
    <glyph glyph-name="ebreve" unicode="&#x115;" horiz-adv-x="1064" 
d="M1085 889q0 -66 -30.5 -120t-83.5 -94t-134.5 -71t-174.5 -52t-211 -38v-31q0 -134 57 -203t160 -69q75 0 143 38.5t143 119.5l50 -47q-221 -342 -562 -342q-177 0 -290 115t-113 306q0 139 55 271.5t149 234.5t230.5 164t288.5 62q158 0 240.5 -69t82.5 -175zM782 1225
q-147 0 -206 92t-21 256h102q-7 -78 38.5 -110.5t129.5 -32.5q183 0 238 143h102q-39 -165 -138 -256.5t-245 -91.5zM729 1047q-56 0 -113.5 -72t-98.5 -177t-58 -212q164 40 249 137.5t85 230.5q0 93 -64 93z" />
    <glyph glyph-name="Edotaccent" unicode="&#x116;" horiz-adv-x="1380" 
d="M1161 0h-1210l20 92q54 5 81.5 11.5t46 24t25.5 37.5t17 64l209 979q20 78 1.5 103t-113.5 35l20 92h1198l-78 -408h-80q-15 68 -24.5 104t-25 77t-32 59.5t-43.5 36t-62 23t-85 5.5h-203l-112 -532h170q70 0 104.5 39.5t71.5 150.5h96l-109 -504h-96q11 112 -6.5 151.5
t-87.5 39.5h-170l-94 -440q-18 -80 13.5 -109t115.5 -29h45q57 0 100 10.5t80 32.5t77 64.5t82.5 96t105.5 137.5q5 7 8.5 12t7.5 10h102zM952 1509q-89 0 -142.5 53t-53.5 128q0 85 57.5 143.5t155.5 58.5q88 0 142 -51.5t54 -126.5q0 -86 -58 -145.5t-155 -59.5z" />
    <glyph glyph-name="edotaccent" unicode="&#x117;" horiz-adv-x="1064" 
d="M1085 889q0 -66 -30.5 -120t-83.5 -94t-134.5 -71t-174.5 -52t-211 -38v-31q0 -134 57 -203t160 -69q75 0 143 38.5t143 119.5l50 -47q-221 -342 -562 -342q-177 0 -290 115t-113 306q0 139 55 271.5t149 234.5t230.5 164t288.5 62q158 0 240.5 -69t82.5 -175zM815 1217
q-89 0 -143 52.5t-54 127.5q0 85 57.5 143.5t155.5 58.5q88 0 142.5 -52t54.5 -126q0 -86 -58 -145t-155 -59zM729 1047q-56 0 -113.5 -72t-98.5 -177t-58 -212q164 40 249 137.5t85 230.5q0 93 -64 93z" />
    <glyph glyph-name="Eogonek" unicode="&#x118;" horiz-adv-x="1380" 
d="M1161 0h-188q-131 -100 -131 -203q0 -36 21 -60t59 -24q35 0 65 12t74 44l26 -48q-75 -83 -150 -123t-161 -40q-77 0 -126.5 40t-49.5 111q0 166 242 291h-891l20 92q54 5 81.5 11.5t46 24t25.5 37.5t17 64l209 979q20 78 1.5 103t-113.5 35l20 92h1198l-78 -408h-80
q-15 68 -24.5 104t-25 77t-32 59.5t-43.5 36t-62 23t-85 5.5h-203l-112 -532h170q70 0 104.5 39.5t71.5 150.5h96l-109 -504h-96q11 112 -6.5 151.5t-87.5 39.5h-170l-94 -440q-18 -80 13.5 -109t115.5 -29h45q57 0 100 10.5t80 32.5t77 64.5t82.5 96t105.5 137.5
q5 7 8.5 12t7.5 10h102z" />
    <glyph glyph-name="eogonek" unicode="&#x119;" horiz-adv-x="1064" 
d="M481 -18q-118 0 -218 50t-162 147t-62 222q0 139 55 271.5t149 234.5t230.5 164t288.5 62q158 0 240.5 -69t82.5 -175q0 -66 -30.5 -120t-83.5 -94t-134.5 -71t-174.5 -52t-211 -38v-31q0 -134 59 -205t162 -71q75 0 143.5 38.5t145.5 119.5l45 -43q-125 -186 -328 -295
q-80 -43 -122 -103.5t-42 -126.5q0 -36 21 -60t59 -24q35 0 65 12t74 44l27 -48q-75 -83 -150 -123t-161 -40q-77 0 -127 40t-50 111q0 154 209 273zM729 1047q-56 0 -113.5 -72t-98.5 -177t-58 -212q164 40 249 137.5t85 230.5q0 93 -64 93z" />
    <glyph glyph-name="Ecaron" unicode="&#x11a;" horiz-adv-x="1380" 
d="M1161 0h-1210l20 92q54 5 81.5 11.5t46 24t25.5 37.5t17 64l209 979q20 78 1.5 103t-113.5 35l20 92h1198l-78 -408h-80q-15 68 -24.5 104t-25 77t-32 59.5t-43.5 36t-62 23t-85 5.5h-203l-112 -532h170q70 0 104.5 39.5t71.5 150.5h96l-109 -504h-96q11 112 -6.5 151.5
t-87.5 39.5h-170l-94 -440q-18 -80 13.5 -109t115.5 -29h45q57 0 100 10.5t80 32.5t77 64.5t82.5 96t105.5 137.5q5 7 8.5 12t7.5 10h102zM786 1520l-168 311h127l213 -133l283 133h139l-315 -311h-279z" />
    <glyph glyph-name="ecaron" unicode="&#x11b;" horiz-adv-x="1064" 
d="M1085 889q0 -66 -30.5 -120t-83.5 -94t-134.5 -71t-174.5 -52t-211 -38v-31q0 -134 57 -203t160 -69q75 0 143 38.5t143 119.5l50 -47q-221 -342 -562 -342q-177 0 -290 115t-113 306q0 139 55 271.5t149 234.5t230.5 164t288.5 62q158 0 240.5 -69t82.5 -175zM621 1233
l-168 346h127l213 -164l282 164h139l-315 -346h-278zM729 1047q-56 0 -113.5 -72t-98.5 -177t-58 -212q164 40 249 137.5t85 230.5q0 93 -64 93z" />
    <glyph glyph-name="Gcircumflex" unicode="&#x11c;" horiz-adv-x="1542" 
d="M791 92q47 0 88 10l75 353q20 78 1.5 102.5t-113.5 34.5l20 92h701l-21 -92q-53 -5 -80 -11.5t-45 -24t-24.5 -37t-16.5 -64.5l-73 -340q-124 -69 -254.5 -102t-294.5 -33q-307 0 -493.5 166t-186.5 434q0 189 75 353.5t203 279t304.5 180t373.5 65.5q132 0 257 -36
t196 -91l-70 -364h-102q-16 389 -262 389q-96 0 -181.5 -59.5t-146 -154t-104.5 -212t-65.5 -235t-21.5 -220.5q0 -182 70 -282.5t191 -100.5zM1276 1829l168 -311h-127l-213 133l-283 -133h-139l315 311h279z" />
    <glyph glyph-name="gcircumflex" unicode="&#x11d;" horiz-adv-x="1130" 
d="M1085 805q0 -129 -82 -226.5t-214 -146.5t-291 -49q-99 0 -191 29q-35 -24 -35 -58q0 -21 13.5 -31.5t38.5 -15.5l389 -82q161 -31 242 -93.5t81 -172.5q0 -127 -89.5 -223t-241 -145.5t-340.5 -49.5q-144 0 -266 30.5t-201.5 96t-79.5 154.5q0 45 27 79.5t69.5 53.5
t89 28.5t92.5 8.5q-80 66 -80 174q0 90 61.5 159.5t168.5 114.5q-162 89 -162 281q0 93 47 171.5t127.5 130.5t187 81t224.5 29q98 0 182 -35l401 12l-49 -152h-90l-92 17q63 -78 63 -170zM948 1569l168 -346h-127l-213 163l-282 -163h-140l316 346h278zM569 -166l-426 105
q-82 -37 -82 -117t87.5 -129t232.5 -49q129 0 211 31.5t82 86.5q0 30 -23.5 44.5t-81.5 27.5zM705 911q0 131 -56 131q-44 0 -87.5 -63t-71 -166.5t-27.5 -212.5q0 -131 55 -131q44 0 87.5 63t71.5 166.5t28 212.5z" />
    <glyph glyph-name="Gbreve" unicode="&#x11e;" horiz-adv-x="1542" 
d="M791 92q47 0 88 10l75 353q20 78 1.5 102.5t-113.5 34.5l20 92h701l-21 -92q-53 -5 -80 -11.5t-45 -24t-24.5 -37t-16.5 -64.5l-73 -340q-124 -69 -254.5 -102t-294.5 -33q-307 0 -493.5 166t-186.5 434q0 189 75 353.5t203 279t304.5 180t373.5 65.5q132 0 257 -36
t196 -91l-70 -364h-102q-16 389 -262 389q-96 0 -181.5 -59.5t-146 -154t-104.5 -212t-65.5 -235t-21.5 -220.5q0 -182 70 -282.5t191 -100.5zM1079 1511q-139 0 -203.5 81.5t-27.5 238.5h98q-3 -70 42 -97.5t130 -27.5t144.5 27.5t89.5 97.5h106q-37 -159 -136 -239.5
t-243 -80.5z" />
    <glyph glyph-name="gbreve" unicode="&#x11f;" horiz-adv-x="1130" 
d="M1085 805q0 -129 -82 -226.5t-214 -146.5t-291 -49q-99 0 -191 29q-35 -24 -35 -58q0 -21 13.5 -31.5t38.5 -15.5l389 -82q161 -31 242 -93.5t81 -172.5q0 -127 -89.5 -223t-241 -145.5t-340.5 -49.5q-144 0 -266 30.5t-201.5 96t-79.5 154.5q0 45 27 79.5t69.5 53.5
t89 28.5t92.5 8.5q-80 66 -80 174q0 90 61.5 159.5t168.5 114.5q-162 89 -162 281q0 93 47 171.5t127.5 130.5t187 81t224.5 29q98 0 182 -35l401 12l-49 -152h-90l-92 17q63 -78 63 -170zM733 1225q-147 0 -206 92t-21 256h102q-7 -78 38.5 -110.5t129.5 -32.5
q183 0 238 143h102q-39 -165 -138 -256.5t-245 -91.5zM569 -166l-426 105q-82 -37 -82 -117t87.5 -129t232.5 -49q129 0 211 31.5t82 86.5q0 30 -23.5 44.5t-81.5 27.5zM705 911q0 131 -56 131q-44 0 -87.5 -63t-71 -166.5t-27.5 -212.5q0 -131 55 -131q44 0 87.5 63
t71.5 166.5t28 212.5z" />
    <glyph glyph-name="Gdotaccent" unicode="&#x120;" horiz-adv-x="1542" 
d="M791 92q47 0 88 10l75 353q20 78 1.5 102.5t-113.5 34.5l20 92h701l-21 -92q-53 -5 -80 -11.5t-45 -24t-24.5 -37t-16.5 -64.5l-73 -340q-124 -69 -254.5 -102t-294.5 -33q-307 0 -493.5 166t-186.5 434q0 189 75 353.5t203 279t304.5 180t373.5 65.5q132 0 257 -36
t196 -91l-70 -364h-102q-16 389 -262 389q-96 0 -181.5 -59.5t-146 -154t-104.5 -212t-65.5 -235t-21.5 -220.5q0 -182 70 -282.5t191 -100.5zM1108 1509q-89 0 -143 53t-54 128q0 85 57.5 143.5t155.5 58.5q88 0 142.5 -52t54.5 -126q0 -86 -58 -145.5t-155 -59.5z" />
    <glyph glyph-name="gdotaccent" unicode="&#x121;" horiz-adv-x="1130" 
d="M1085 805q0 -129 -82 -226.5t-214 -146.5t-291 -49q-99 0 -191 29q-35 -24 -35 -58q0 -21 13.5 -31.5t38.5 -15.5l389 -82q161 -31 242 -93.5t81 -172.5q0 -127 -89.5 -223t-241 -145.5t-340.5 -49.5q-144 0 -266 30.5t-201.5 96t-79.5 154.5q0 45 27 79.5t69.5 53.5
t89 28.5t92.5 8.5q-80 66 -80 174q0 90 61.5 159.5t168.5 114.5q-162 89 -162 281q0 93 47 171.5t127.5 130.5t187 81t224.5 29q98 0 182 -35l401 12l-49 -152h-90l-92 17q63 -78 63 -170zM569 -166l-426 105q-82 -37 -82 -117t87.5 -129t232.5 -49q129 0 211 31.5t82 86.5
q0 30 -23.5 44.5t-81.5 27.5zM766 1217q-89 0 -143 52.5t-54 127.5q0 85 57.5 143.5t155.5 58.5q88 0 142.5 -52t54.5 -126q0 -86 -58 -145t-155 -59zM705 911q0 131 -56 131q-44 0 -87.5 -63t-71 -166.5t-27.5 -212.5q0 -131 55 -131q44 0 87.5 63t71.5 166.5t28 212.5z
" />
    <glyph glyph-name="Gcommaaccent" unicode="&#x122;" horiz-adv-x="1542" 
d="M791 92q47 0 88 10l75 353q20 78 1.5 102.5t-113.5 34.5l20 92h701l-21 -92q-53 -5 -80 -11.5t-45 -24t-24.5 -37t-16.5 -64.5l-73 -340q-124 -69 -254.5 -102t-294.5 -33q-307 0 -493.5 166t-186.5 434q0 189 75 353.5t203 279t304.5 180t373.5 65.5q132 0 257 -36
t196 -91l-70 -364h-102q-16 389 -262 389q-96 0 -181.5 -59.5t-146 -154t-104.5 -212t-65.5 -235t-21.5 -220.5q0 -182 70 -282.5t191 -100.5zM727 -324h-125q-84 22 -84 103q0 67 50.5 111t138.5 44q85 0 132.5 -47t47.5 -123q0 -125 -93.5 -200.5t-295.5 -75.5v82
q98 0 158.5 31t70.5 75z" />
    <glyph glyph-name="gcommaaccent" unicode="&#x123;" horiz-adv-x="1130" 
d="M1085 805q0 -129 -82 -226.5t-214 -146.5t-291 -49q-99 0 -191 29q-35 -24 -35 -58q0 -21 13.5 -31.5t38.5 -15.5l389 -82q161 -31 242 -93.5t81 -172.5q0 -127 -89.5 -223t-241 -145.5t-340.5 -49.5q-144 0 -266 30.5t-201.5 96t-79.5 154.5q0 45 27 79.5t69.5 53.5
t89 28.5t92.5 8.5q-80 66 -80 174q0 90 61.5 159.5t168.5 114.5q-162 89 -162 281q0 93 47 171.5t127.5 130.5t187 81t224.5 29q98 0 182 -35l401 12l-49 -152h-90l-92 17q63 -78 63 -170zM569 -166l-426 105q-82 -37 -82 -117t87.5 -129t232.5 -49q129 0 211 31.5t82 86.5
q0 30 -23.5 44.5t-81.5 27.5zM745 1464h125q84 -22 84 -102q0 -67 -50 -111.5t-138 -44.5q-85 0 -132.5 47t-47.5 123q0 125 93.5 201t295.5 76v-82q-98 0 -159 -31.5t-71 -75.5zM705 911q0 131 -56 131q-44 0 -87.5 -63t-71 -166.5t-27.5 -212.5q0 -131 55 -131
q44 0 87.5 63t71.5 166.5t28 212.5z" />
    <glyph glyph-name="Hcircumflex" unicode="&#x124;" horiz-adv-x="1767" 
d="M141 229l209 979q20 78 1.5 103t-113.5 35l20 92h731l-20 -92q-53 -5 -80.5 -12t-46 -24t-26 -37.5t-17.5 -64.5l-88 -413h473l88 413q20 78 1.5 103t-114.5 35l21 92h731l-21 -92q-53 -5 -80.5 -12t-46 -24t-26 -37.5t-17.5 -64.5l-209 -979q-20 -78 -1.5 -102.5
t114.5 -34.5l-20 -92h-732l21 92q53 5 80.5 11.5t46.5 24t26 37.5t17 64l92 426h-473l-92 -426q-20 -78 -1.5 -102.5t113.5 -34.5l-20 -92h-731l20 92q53 5 80.5 11.5t46.5 24t26 37.5t17 64zM1298 1829l168 -311h-127l-213 133l-282 -133h-139l315 311h278z" />
    <glyph glyph-name="hcircumflex" unicode="&#x125;" horiz-adv-x="1370" 
d="M795 1604l-234 -969q125 253 268 375.5t293 122.5q82 0 128 -48t46 -131q0 -48 -18 -116l-148 -531q-16 -59 -16 -82q0 -30 29 -30q27 0 65 35t97 108l53 -47q-59 -81 -106.5 -134.5t-101 -95.5t-109.5 -61.5t-121 -19.5q-107 0 -169.5 57t-62.5 143q0 64 31 166l121 399
q14 47 14 66q0 37 -35 37q-28 0 -74 -47t-94.5 -123t-95.5 -184.5t-76 -219.5l-71 -274h-418l340 1386l-99 56l15 69l477 93h72zM1155 1935l168 -311h-127l-213 133l-283 -133h-139l316 311h278z" />
    <glyph glyph-name="Hbar" unicode="&#x126;" horiz-adv-x="1767" 
d="M172 997l29 140h133l16 71q20 78 1.5 103t-113.5 35l20 92h731l-20 -92q-53 -5 -80.5 -12t-46 -24t-26 -37.5t-17.5 -64.5l-17 -71h473l17 71q20 78 1.5 103t-114.5 35l21 92h731l-21 -92q-53 -5 -80.5 -12t-46 -24t-26 -37.5t-17.5 -64.5l-16 -71h145l-28 -140h-146
l-164 -768q-20 -78 -1.5 -102.5t114.5 -34.5l-20 -92h-732l21 92q53 5 80.5 11.5t46.5 24t26 37.5t17 64l92 426h-473l-92 -426q-20 -78 -1.5 -102.5t113.5 -34.5l-20 -92h-731l20 92q53 5 80.5 11.5t46.5 24t26 37.5t17 64l164 768h-133zM711 795h473l43 202h-473z" />
    <glyph glyph-name="hbar" unicode="&#x127;" horiz-adv-x="1380" 
d="M954 1202h-245l-138 -567q125 253 268.5 375.5t293.5 122.5q82 0 128 -48t46 -131q0 -44 -19 -116l-147 -531q-17 -63 -17 -82q0 -30 29 -30q27 0 65 35t97 108l53 -47q-59 -81 -106.5 -134.5t-101 -95.5t-109.5 -61.5t-121 -19.5q-107 0 -169.5 57t-62.5 143
q0 64 31 166l121 399q14 47 14 66q0 37 -35 37q-28 0 -74 -47t-94.5 -123t-95.5 -184.5t-76 -219.5l-71 -274h-418l295 1202h-113l25 115h115l18 69l-98 56l14 69l477 93h72l-70 -287h244z" />
    <glyph glyph-name="Itilde" unicode="&#x128;" horiz-adv-x="845" 
d="M141 229l209 979q20 78 1.5 103t-113.5 35l20 92h731l-20 -92q-53 -5 -80.5 -12t-46 -24t-26 -37.5t-17.5 -64.5l-209 -979q-20 -78 -1 -102.5t113 -34.5l-20 -92h-731l20 92q54 5 81.5 11.5t46 24t25.5 37.5t17 64zM797 1518q-45 0 -85.5 19t-65 42t-56 42t-60.5 19
q-39 0 -72.5 -28.5t-72.5 -83.5l-78 45q71 145 133.5 215t143.5 70q45 0 85 -19t65 -42.5t56 -42.5t60 -19q39 0 71 28t72 84l78 -45q-69 -145 -131 -214.5t-143 -69.5z" />
    <glyph glyph-name="itilde" unicode="&#x129;" horiz-adv-x="737" 
d="M639 1233q-36 0 -66 12.5t-50 30.5t-38.5 36.5t-39.5 31t-44 12.5q-38 0 -71 -29t-70 -84l-76 45q69 145 130 215t139 70q43 0 79 -19t56.5 -42.5t47 -42.5t54.5 -19q38 0 69.5 28.5t69.5 84.5l76 -45q-68 -145 -128 -215t-138 -70zM74 344l139 555l-104 84l14 61l498 89
h73l-209 -826q-16 -59 -16 -82q0 -30 29 -30q26 0 64 34.5t97 108.5l54 -47q-119 -163 -216.5 -237t-222.5 -74q-106 0 -163.5 56.5t-57.5 143.5q0 62 21 164z" />
    <glyph glyph-name="Imacron" unicode="&#x12a;" horiz-adv-x="845" 
d="M141 229l209 979q20 78 1.5 103t-113.5 35l20 92h731l-20 -92q-53 -5 -80.5 -12t-46 -24t-26 -37.5t-17.5 -64.5l-209 -979q-20 -78 -1 -102.5t113 -34.5l-20 -92h-731l20 92q54 5 81.5 11.5t46 24t25.5 37.5t17 64zM340 1528l43 194h602l-43 -194h-602z" />
    <glyph glyph-name="imacron" unicode="&#x12b;" horiz-adv-x="737" 
d="M236 1280l43 195h561l-43 -195h-561zM74 344l139 555l-104 84l14 61l498 89h73l-209 -826q-16 -59 -16 -82q0 -30 29 -30q26 0 64 34.5t97 108.5l54 -47q-119 -163 -216.5 -237t-222.5 -74q-106 0 -163.5 56.5t-57.5 143.5q0 62 21 164z" />
    <glyph glyph-name="Ibreve" unicode="&#x12c;" horiz-adv-x="845" 
d="M141 229l209 979q20 78 1.5 103t-113.5 35l20 92h731l-20 -92q-53 -5 -80.5 -12t-46 -24t-26 -37.5t-17.5 -64.5l-209 -979q-20 -78 -1 -102.5t113 -34.5l-20 -92h-731l20 92q54 5 81.5 11.5t46 24t25.5 37.5t17 64zM641 1511q-139 0 -203.5 81.5t-27.5 238.5h98
q-3 -70 42 -97.5t130 -27.5t144 27.5t89 97.5h107q-37 -159 -136 -239.5t-243 -80.5z" />
    <glyph glyph-name="ibreve" unicode="&#x12d;" horiz-adv-x="737" 
d="M74 344l139 555l-104 84l14 61l498 89h73l-209 -826q-16 -59 -16 -82q0 -30 29 -30q26 0 64 34.5t97 108.5l54 -47q-119 -163 -216.5 -237t-222.5 -74q-106 0 -163.5 56.5t-57.5 143.5q0 62 21 164zM502 1225q-147 0 -206.5 92t-21.5 256h103q-7 -78 38.5 -110.5
t129.5 -32.5q182 0 237 143h103q-39 -165 -138 -256.5t-245 -91.5z" />
    <glyph glyph-name="Iogonek" unicode="&#x12e;" horiz-adv-x="845" 
d="M141 229l209 979q20 78 1.5 103t-113.5 35l20 92h731l-20 -92q-53 -5 -80.5 -12t-46 -24t-26 -37.5t-17.5 -64.5l-209 -979q-20 -78 -1 -102.5t113 -34.5l-20 -92h-274q-132 -100 -132 -203q0 -36 21 -60t59 -24q36 0 66 12t74 44l26 -48q-75 -83 -150 -123t-161 -40
q-77 0 -126.5 40t-49.5 111q0 166 241 291h-325l20 92q54 5 81.5 11.5t46 24t25.5 37.5t17 64z" />
    <glyph glyph-name="iogonek" unicode="&#x12f;" horiz-adv-x="737" 
d="M532 1204q-95 0 -152.5 56.5t-57.5 136.5q0 91 61.5 154t165.5 63q95 0 153 -55t58 -136q0 -91 -62 -155t-166 -64zM53 180q0 75 21 164l139 555l-104 84l14 61l498 89h73l-209 -826q-16 -59 -16 -82q0 -30 29 -30q26 0 64 34.5t97 108.5l54 -47q-61 -81 -142 -163.5
t-134 -130.5t-91.5 -101.5t-38.5 -98.5q0 -36 21 -60t59 -24q35 0 65 12t74 44l27 -48q-75 -83 -150 -123t-161 -40q-77 0 -126.5 40t-49.5 111q0 152 204 271q-106 1 -161.5 53t-55.5 147z" />
    <glyph glyph-name="Idotaccent" unicode="&#x130;" horiz-adv-x="845" 
d="M141 229l209 979q20 78 1.5 103t-113.5 35l20 92h731l-20 -92q-53 -5 -80.5 -12t-46 -24t-26 -37.5t-17.5 -64.5l-209 -979q-20 -78 -1 -102.5t113 -34.5l-20 -92h-731l20 92q54 5 81.5 11.5t46 24t25.5 37.5t17 64zM670 1509q-89 0 -143 53t-54 128q0 85 57.5 143.5
t155.5 58.5q88 0 142.5 -52t54.5 -126q0 -86 -58 -145.5t-155 -59.5z" />
    <glyph glyph-name="dotlessi" unicode="&#x131;" horiz-adv-x="737" 
d="M74 344l139 555l-104 84l14 61l498 89h73l-209 -826q-16 -59 -16 -82q0 -30 29 -30q26 0 64 34.5t97 108.5l54 -47q-119 -163 -216.5 -237t-222.5 -74q-106 0 -163.5 56.5t-57.5 143.5q0 62 21 164z" />
    <glyph glyph-name="IJ" unicode="&#x132;" horiz-adv-x="2011" 
d="M141 229l209 979q20 78 1.5 103t-113.5 35l20 92h731l-20 -92q-53 -5 -80.5 -12t-46 -24t-26 -37.5t-17.5 -64.5l-209 -979q-20 -78 -1 -102.5t113 -34.5l-20 -92h-731l20 92q54 5 81.5 11.5t46 24t25.5 37.5t17 64zM1354 344l184 864q20 78 1.5 103t-114.5 35l21 92h731
l-20 -92q-53 -5 -80.5 -12t-46 -24t-26 -37.5t-17.5 -64.5l-166 -770q-54 -249 -211 -353.5t-443 -104.5q-207 0 -330.5 75.5t-123.5 198.5q0 162 168 238h274q-34 -82 -51 -145t-17 -134q0 -60 23.5 -99.5t77.5 -39.5q30 0 53.5 14t39.5 35t30 59t23 72.5t20 89.5z" />
    <glyph glyph-name="ij" unicode="&#x133;" horiz-adv-x="1368" 
d="M532 1204q-95 0 -152.5 56.5t-57.5 136.5q0 91 61.5 154t165.5 63q95 0 153 -55t58 -136q0 -91 -62 -155t-166 -64zM74 344l139 555l-104 84l14 61l498 89h73l-209 -826q-16 -59 -16 -82q0 -30 29 -30q26 0 64 34.5t97 108.5l54 -47q-119 -163 -216.5 -237t-222.5 -74
q-106 0 -163.5 56.5t-57.5 143.5q0 62 21 164zM1391 1133l-238 -940q-85 -332 -238.5 -492t-390.5 -160q-129 0 -210 48t-81 132q0 75 49 119.5t124 50.5h77q-7 -128 5 -194t53 -66t64 59.5t62 223.5q5 22 8 34t8 32.5t9 37.5l217 881l-104 84l14 61l498 89h74zM1229 1204
q-95 0 -153 56.5t-58 136.5q0 91 61.5 154t165.5 63q95 0 153 -55t58 -136q0 -92 -61.5 -155.5t-165.5 -63.5z" />
    <glyph glyph-name="Jcircumflex" unicode="&#x134;" horiz-adv-x="1245" 
d="M588 344l184 864q20 78 1.5 103t-114.5 35l21 92h731l-20 -92q-53 -5 -80.5 -12t-46 -24t-26 -37.5t-17.5 -64.5l-166 -770q-54 -249 -211 -353.5t-443 -104.5q-207 0 -330.5 75.5t-123.5 198.5q0 162 168 238h274q-67 -163 -67 -279q0 -139 100 -139q30 0 53.5 14
t39.5 35t30 59t23 72.5t20 89.5zM1264 1829l168 -311h-127l-213 133l-283 -133h-139l315 311h279z" />
    <glyph glyph-name="jcircumflex" unicode="&#x135;" horiz-adv-x="671" 
d="M694 1133l-237 -940q-85 -332 -238.5 -492t-390.5 -160q-129 0 -210 48t-81 132q0 75 49 119.5t123 50.5h78q-7 -129 4.5 -194.5t52.5 -65.5t70 74q18 47 68 254q8 33 14 59l217 881l-104 84l14 61l498 89h73zM692 1569l168 -346h-127l-213 163l-282 -163h-140l316 346
h278z" />
    <glyph glyph-name="Kcommaaccent" unicode="&#x136;" horiz-adv-x="1591" 
d="M1106 874l264 -653q27 -62 55 -91.5t86 -37.5l-18 -92h-485q-68 73 -138 250l-165 446l571 490q28 24 41.5 37t26 33t12.5 38q0 26 -25 37.5t-100 14.5l20 92h504l-20 -92q-66 -5 -103.5 -18.5t-81.5 -53.5zM799 1208l-209 -979q-20 -78 -1 -102.5t113 -34.5l-20 -92
h-731l20 92q54 5 81.5 11.5t46 24t25.5 37.5t17 64l209 979q20 78 1.5 103t-113.5 35l20 92h731l-20 -92q-53 -5 -80.5 -12t-46 -24t-26 -37.5t-17.5 -64.5zM717 -324h-125q-84 22 -84 103q0 67 50 111t138 44q86 0 133.5 -47t47.5 -123q0 -125 -94 -200.5t-296 -75.5v82
q98 0 159 31t71 75z" />
    <glyph glyph-name="kcommaaccent" unicode="&#x137;" horiz-adv-x="1329" 
d="M858 784l189 -434q24 -55 42 -78.5t44 -23.5q25 0 50.5 20.5t71.5 75.5l52 -45q-120 -169 -213 -244t-197 -75q-81 0 -127 44.5t-82 141.5l-133 385l369 438q63 74 119 109t126 35q84 0 132.5 -51.5t48.5 -127.5q0 -155 -172 -213h-25q8 76 -23 120t-94 44
q-35 0 -65.5 -15.5t-48 -33t-52.5 -57.5zM408 0h-418l340 1386l-99 56l15 69l477 93h72zM541 -324h-125q-84 22 -84 103q0 67 50 111t138 44q85 0 132.5 -47t47.5 -123q0 -125 -93.5 -200.5t-295.5 -75.5v82q98 0 159 31t71 75z" />
    <glyph glyph-name="kgreenlandic" unicode="&#x138;" horiz-adv-x="1339" 
d="M868 784l189 -434q24 -55 42 -78.5t44 -23.5q25 0 51 20.5t72 75.5l51 -45q-120 -169 -213 -244t-197 -75q-81 0 -127 44.5t-82 141.5l-133 385l369 438q62 74 119 109t127 35q84 0 132 -51.5t48 -127.5q0 -155 -172 -213h-25q8 76 -23 120t-93 44q-35 0 -65.5 -15.5
t-48 -33t-52.5 -57.5zM418 0h-418l225 899l-104 84l14 61l483 89h72z" />
    <glyph glyph-name="Lacute" unicode="&#x139;" horiz-adv-x="1359" 
d="M797 1208l-207 -968q-17 -81 11 -109.5t110 -28.5h43q100 0 203 82.5t284 321.5h96l-186 -506h-1200l20 92q54 5 81.5 11.5t46 24t25.5 37.5t17 64l209 979q20 78 1.5 103t-113.5 35l20 92h729l-20 -92q-53 -5 -80.5 -12t-46 -24t-26 -37.5t-17.5 -64.5zM766 1823h397
v-19l-448 -286h-123z" />
    <glyph glyph-name="lacute" unicode="&#x13a;" horiz-adv-x="712" 
d="M780 1604l-311 -1297q-16 -74 -16 -82q0 -30 28 -30q27 0 65 35t97 108l53 -47q-59 -81 -106.5 -134.5t-101 -95.5t-109.5 -61.5t-121 -19.5q-106 0 -163.5 56.5t-57.5 143.5q0 79 20 164l258 1042l-98 56l14 69l478 93h71zM694 1942h398v-19l-449 -287h-123z" />
    <glyph glyph-name="Lcommaaccent" unicode="&#x13b;" horiz-adv-x="1359" 
d="M797 1208l-207 -968q-17 -81 11 -109.5t110 -28.5h43q100 0 203 82.5t284 321.5h96l-186 -506h-1200l20 92q54 5 81.5 11.5t46 24t25.5 37.5t17 64l209 979q20 78 1.5 103t-113.5 35l20 92h729l-20 -92q-53 -5 -80.5 -12t-46 -24t-26 -37.5t-17.5 -64.5zM553 -324h-125
q-84 22 -84 103q0 67 50 111t138 44q86 0 133.5 -47t47.5 -123q0 -125 -93.5 -200.5t-295.5 -75.5v82q98 0 158.5 31t70.5 75z" />
    <glyph glyph-name="lcommaaccent" unicode="&#x13c;" horiz-adv-x="712" 
d="M780 1604l-311 -1297q-16 -74 -16 -82q0 -30 28 -30q27 0 65 35t97 108l53 -47q-59 -81 -106.5 -134.5t-101 -95.5t-109.5 -61.5t-121 -19.5q-106 0 -163.5 56.5t-57.5 143.5q0 79 20 164l258 1042l-98 56l14 69l478 93h71zM213 -324h-125q-84 22 -84 103q0 67 50.5 111
t138.5 44q85 0 132.5 -47t47.5 -123q0 -125 -93.5 -200.5t-295.5 -75.5v82q98 0 158.5 31t70.5 75z" />
    <glyph glyph-name="Lcaron" unicode="&#x13d;" horiz-adv-x="1359" 
d="M797 1208l-207 -968q-17 -81 11 -109.5t110 -28.5h43q100 0 203 82.5t284 321.5h96l-186 -506h-1200l20 92q54 5 81.5 11.5t46 24t25.5 37.5t17 64l209 979q20 78 1.5 103t-113.5 35l20 92h729l-20 -92q-53 -5 -80.5 -12t-46 -24t-26 -37.5t-17.5 -64.5zM1421 1413
l-327 -395h-97l113 420h317z" />
    <glyph glyph-name="lcaron" unicode="&#x13e;" horiz-adv-x="712" 
d="M780 1604l-311 -1297q-16 -74 -16 -82q0 -30 28 -30q27 0 65 35t97 108l53 -47q-59 -81 -106.5 -134.5t-101 -95.5t-109.5 -61.5t-121 -19.5q-106 0 -163.5 56.5t-57.5 143.5q0 79 20 164l258 1042l-98 56l14 69l478 93h71zM1202 1579l-328 -395h-96l113 420h317z" />
    <glyph glyph-name="Ldot" unicode="&#x13f;" horiz-adv-x="1359" 
d="M797 1208l-207 -968q-17 -81 11 -109.5t110 -28.5h43q100 0 203 82.5t284 321.5h96l-186 -506h-1200l20 92q54 5 81.5 11.5t46 24t25.5 37.5t17 64l209 979q20 78 1.5 103t-113.5 35l20 92h729l-20 -92q-53 -5 -80.5 -12t-46 -24t-26 -37.5t-17.5 -64.5zM1128 631
q-89 0 -142.5 52.5t-53.5 127.5q0 85 57.5 144t155.5 59q88 0 142 -51.5t54 -126.5q0 -86 -58 -145.5t-155 -59.5z" />
    <glyph glyph-name="ldot" unicode="&#x140;" horiz-adv-x="956" 
d="M780 1604l-311 -1297q-16 -74 -16 -82q0 -30 28 -30q27 0 65 35t97 108l53 -47q-59 -81 -106.5 -134.5t-101 -95.5t-109.5 -61.5t-121 -19.5q-106 0 -163.5 56.5t-57.5 143.5q0 79 20 164l258 1042l-98 56l14 69l478 93h71zM846 600q-89 0 -143 52.5t-54 127.5
q0 85 57.5 144t155.5 59q88 0 142.5 -52t54.5 -126q0 -86 -58 -145.5t-155 -59.5z" />
    <glyph glyph-name="Lslash" unicode="&#x141;" horiz-adv-x="1359" 
d="M952 797l-264 -92l-98 -465q-17 -81 11 -109.5t110 -28.5h43q100 0 203 82.5t284 321.5h96l-186 -506h-1200l20 92q54 5 81.5 11.5t46 24t25.5 37.5t17 64l70 334l-150 -53l31 143l150 52l108 503q20 78 1.5 103t-113.5 35l20 92h729l-20 -92q-53 -5 -80.5 -12t-46 -24
t-26 -37.5t-17.5 -64.5l-78 -360l264 92z" />
    <glyph glyph-name="lslash" unicode="&#x142;" horiz-adv-x="733" 
d="M784 954l-166 -67l-139 -580q-16 -74 -16 -82q0 -30 29 -30q26 0 64 34.5t97 108.5l54 -47q-119 -163 -216.5 -237t-222.5 -74q-106 0 -163.5 56.5t-57.5 143.5q0 75 21 164l100 404l-148 -58l33 135l148 60l125 501l-99 56l15 69l477 93h72l-140 -582l166 68z" />
    <glyph glyph-name="Nacute" unicode="&#x143;" horiz-adv-x="1556" 
d="M1260 639l122 569q17 77 -19 103t-161 35l21 92h497l-20 -92q-53 -5 -81 -11.5t-46.5 -24.5t-25.5 -37.5t-17 -64.5l-256 -1208h-158l-647 1065l-178 -836q-17 -76 18.5 -102t161.5 -35l-20 -92h-498l20 92q54 5 81.5 11.5t46 24t25.5 37.5t17 64l211 994
q-35 68 -55 91.5t-61 31.5l20 92h533zM1118 1823h398v-19l-449 -286h-123z" />
    <glyph glyph-name="nacute" unicode="&#x144;" horiz-adv-x="1380" 
d="M707 1133l-140 -500q125 253 270.5 376.5t295.5 123.5q82 0 128 -48t46 -131q0 -44 -19 -116l-147 -531q-17 -63 -17 -82q0 -30 29 -30q27 0 65 35t97 108l53 -47q-59 -81 -106.5 -134.5t-101 -95.5t-109.5 -61.5t-121 -19.5q-107 0 -169.5 57t-62.5 143q0 64 31 166
l121 399q14 47 14 66q0 37 -35 37q-28 0 -74 -47t-94.5 -123t-95.5 -184.5t-76 -219.5l-71 -274h-418l225 899l-104 84l14 61l498 89h74zM967 1569h397v-19l-449 -315h-122z" />
    <glyph glyph-name="Ncommaaccent" unicode="&#x145;" horiz-adv-x="1556" 
d="M1260 639l122 569q17 77 -19 103t-161 35l21 92h497l-20 -92q-53 -5 -81 -11.5t-46.5 -24.5t-25.5 -37.5t-17 -64.5l-256 -1208h-158l-647 1065l-178 -836q-17 -76 18.5 -102t161.5 -35l-20 -92h-498l20 92q54 5 81.5 11.5t46 24t25.5 37.5t17 64l211 994
q-35 68 -55 91.5t-61 31.5l20 92h533zM688 -324h-125q-84 22 -84 103q0 67 50.5 111t138.5 44q85 0 132.5 -47t47.5 -123q0 -125 -93.5 -200.5t-295.5 -75.5v82q98 0 158.5 31t70.5 75z" />
    <glyph glyph-name="ncommaaccent" unicode="&#x146;" horiz-adv-x="1380" 
d="M707 1133l-140 -500q125 253 270.5 376.5t295.5 123.5q82 0 128 -48t46 -131q0 -44 -19 -116l-147 -531q-17 -63 -17 -82q0 -30 29 -30q27 0 65 35t97 108l53 -47q-59 -81 -106.5 -134.5t-101 -95.5t-109.5 -61.5t-121 -19.5q-107 0 -169.5 57t-62.5 143q0 64 31 166
l121 399q14 47 14 66q0 37 -35 37q-28 0 -74 -47t-94.5 -123t-95.5 -184.5t-76 -219.5l-71 -274h-418l225 899l-104 84l14 61l498 89h74zM573 -324h-124q-84 22 -84 103q0 67 50 111t138 44q85 0 132.5 -47t47.5 -123q0 -125 -93.5 -200.5t-295.5 -75.5v82q98 0 158.5 31
t70.5 75z" />
    <glyph glyph-name="Ncaron" unicode="&#x147;" horiz-adv-x="1556" 
d="M1260 639l122 569q17 77 -19 103t-161 35l21 92h497l-20 -92q-53 -5 -81 -11.5t-46.5 -24.5t-25.5 -37.5t-17 -64.5l-256 -1208h-158l-647 1065l-178 -836q-17 -76 18.5 -102t161.5 -35l-20 -92h-498l20 92q54 5 81.5 11.5t46 24t25.5 37.5t17 64l211 994
q-35 68 -55 91.5t-61 31.5l20 92h533zM870 1520l-168 311h127l213 -133l283 133h139l-315 -311h-279z" />
    <glyph glyph-name="ncaron" unicode="&#x148;" horiz-adv-x="1380" 
d="M707 1133l-140 -500q125 253 270.5 376.5t295.5 123.5q82 0 128 -48t46 -131q0 -44 -19 -116l-147 -531q-17 -63 -17 -82q0 -30 29 -30q27 0 65 35t97 108l53 -47q-59 -81 -106.5 -134.5t-101 -95.5t-109.5 -61.5t-121 -19.5q-107 0 -169.5 57t-62.5 143q0 64 31 166
l121 399q14 47 14 66q0 37 -35 37q-28 0 -74 -47t-94.5 -123t-95.5 -184.5t-76 -219.5l-71 -274h-418l225 899l-104 84l14 61l498 89h74zM731 1233l-168 346h127l213 -164l283 164h139l-315 -346h-279z" />
    <glyph glyph-name="Eng" unicode="&#x14a;" horiz-adv-x="1556" 
d="M1001 182l-532 883l-178 -836q-17 -76 18.5 -102t161.5 -35l-20 -92h-498l20 92q54 5 81.5 11.5t46 24t25.5 37.5t17 64l211 994q-35 68 -55 91.5t-61 31.5l20 92h533l469 -799l122 569q17 77 -19 103t-161 35l21 92h497l-20 -92q-53 -5 -81 -11.5t-46.5 -24.5
t-25.5 -37.5t-17 -64.5l-207 -981q-30 -136 -76 -233t-124 -174t-180 -134.5t-257 -117.5l-27 45l127 127q90 92 137 195t78 247z" />
    <glyph glyph-name="eng" unicode="&#x14b;" horiz-adv-x="1327" 
d="M1288 838l-180 -645q-93 -332 -249.5 -492t-393.5 -160q-129 0 -210 48t-81 132q0 75 49 119.5t123 50.5h78q-7 -129 4.5 -194.5t52.5 -65.5q48 0 81.5 84t92.5 303l195 727q14 47 14 66q0 37 -35 37q-28 0 -74 -47t-94.5 -123t-95.5 -184.5t-76 -219.5l-71 -274h-418
l225 899l-104 84l14 61l498 89h74l-140 -500q125 253 270.5 376.5t295.5 123.5q82 0 128 -48t46 -131q0 -44 -19 -116z" />
    <glyph glyph-name="Omacron" unicode="&#x14c;" horiz-adv-x="1576" 
d="M969 1458q140 0 256 -44.5t194 -122t121 -183t43 -227.5q0 -139 -39.5 -271.5t-117.5 -246t-184.5 -199.5t-249.5 -135t-304 -49q-140 0 -256 44.5t-194 122t-121 183t-43 227.5q0 139 39.5 271.5t117.5 246t184.5 199.5t249.5 135t304 49zM956 1352q-78 0 -147.5 -70.5
t-118 -179.5t-84 -240t-52.5 -253.5t-17 -217.5q0 -146 37.5 -225.5t125.5 -79.5q78 0 148 70.5t118 179.5t84 240t53 253.5t17 217.5q0 147 -37.5 226t-126.5 79zM713 1528l43 194h602l-43 -194h-602z" />
    <glyph glyph-name="omacron" unicode="&#x14d;" horiz-adv-x="1226" 
d="M436 211q0 -141 64 -141q65 0 134.5 147.5t113 342.5t43.5 341q0 141 -64 141q-65 0 -134.5 -147.5t-113 -342.5t-43.5 -341zM1190 696q0 -191 -90.5 -355t-251 -262.5t-352.5 -98.5q-206 0 -332.5 115.5t-126.5 320.5q0 143 53.5 274.5t145.5 229t221.5 155.5t273.5 58
q206 0 332.5 -116t126.5 -321zM471 1280l43 195h602l-43 -195h-602z" />
    <glyph glyph-name="Obreve" unicode="&#x14e;" horiz-adv-x="1576" 
d="M969 1458q140 0 256 -44.5t194 -122t121 -183t43 -227.5q0 -139 -39.5 -271.5t-117.5 -246t-184.5 -199.5t-249.5 -135t-304 -49q-140 0 -256 44.5t-194 122t-121 183t-43 227.5q0 139 39.5 271.5t117.5 246t184.5 199.5t249.5 135t304 49zM956 1352q-78 0 -147.5 -70.5
t-118 -179.5t-84 -240t-52.5 -253.5t-17 -217.5q0 -146 37.5 -225.5t125.5 -79.5q78 0 148 70.5t118 179.5t84 240t53 253.5t17 217.5q0 147 -37.5 226t-126.5 79zM1014 1511q-139 0 -204 81.5t-28 238.5h99q-3 -70 42 -97.5t130 -27.5t144 27.5t89 97.5h107
q-37 -159 -136 -239.5t-243 -80.5z" />
    <glyph glyph-name="obreve" unicode="&#x14f;" horiz-adv-x="1226" 
d="M436 211q0 -141 64 -141q65 0 134.5 147.5t113 342.5t43.5 341q0 141 -64 141q-65 0 -134.5 -147.5t-113 -342.5t-43.5 -341zM1190 696q0 -191 -90.5 -355t-251 -262.5t-352.5 -98.5q-206 0 -332.5 115.5t-126.5 320.5q0 143 53.5 274.5t145.5 229t221.5 155.5t273.5 58
q206 0 332.5 -116t126.5 -321zM758 1225q-147 0 -206.5 92t-21.5 256h103q-7 -78 38.5 -110.5t129.5 -32.5q182 0 237 143h103q-39 -165 -138 -256.5t-245 -91.5z" />
    <glyph glyph-name="Ohungarumlaut" unicode="&#x150;" horiz-adv-x="1576" 
d="M969 1458q140 0 256 -44.5t194 -122t121 -183t43 -227.5q0 -139 -39.5 -271.5t-117.5 -246t-184.5 -199.5t-249.5 -135t-304 -49q-140 0 -256 44.5t-194 122t-121 183t-43 227.5q0 139 39.5 271.5t117.5 246t184.5 199.5t249.5 135t304 49zM956 1352q-78 0 -147.5 -70.5
t-118 -179.5t-84 -240t-52.5 -253.5t-17 -217.5q0 -146 37.5 -225.5t125.5 -79.5q78 0 148 70.5t118 179.5t84 240t53 253.5t17 217.5q0 147 -37.5 226t-126.5 79zM887 1823h332l-5 -21l-346 -284h-125zM1272 1823h332l-5 -21l-346 -284h-125z" />
    <glyph glyph-name="ohungarumlaut" unicode="&#x151;" horiz-adv-x="1226" 
d="M436 211q0 -141 64 -141q65 0 134.5 147.5t113 342.5t43.5 341q0 141 -64 141q-65 0 -134.5 -147.5t-113 -342.5t-43.5 -341zM1190 696q0 -191 -90.5 -355t-251 -262.5t-352.5 -98.5q-206 0 -332.5 115.5t-126.5 320.5q0 143 53.5 274.5t145.5 229t221.5 155.5t273.5 58
q206 0 332.5 -116t126.5 -321zM621 1569h331l-4 -21l-370 -313h-125zM1006 1569h331l-4 -21l-370 -313h-125z" />
    <glyph glyph-name="OE" unicode="&#x152;" horiz-adv-x="2181" 
d="M858 102h57l263 1233h-115q-114 0 -216.5 -77.5t-170.5 -199t-108 -268t-40 -286.5q0 -208 76 -305t254 -97zM1962 0h-1176q-151 0 -280 37.5t-225.5 108.5t-151.5 182.5t-55 251.5q0 153 49 288.5t138 238.5t208.5 178t265 114t303.5 39h1219l-78 -408h-80
q-15 68 -24.5 104t-25 77t-32 59.5t-43.5 36t-62 23t-85 5.5h-203l-113 -532h170q70 0 105.5 39.5t71.5 150.5h96l-109 -504h-96q11 112 -6.5 151.5t-87.5 39.5h-170l-94 -440q-18 -80 13.5 -109t115.5 -29h45q57 0 99.5 10.5t79 32t76 63.5t82 95t104.5 136q12 17 19 26
h103z" />
    <glyph glyph-name="oe" unicode="&#x153;" horiz-adv-x="1773" 
d="M733 1133q100 0 185.5 -42t146.5 -114q200 156 405 156q158 0 241 -69t83 -175q0 -82 -45 -145.5t-132.5 -107t-198 -72.5t-259.5 -50v-31q0 -134 57 -203t160 -69q75 0 143.5 38.5t143.5 119.5l49 -47q-221 -342 -561 -342q-168 0 -281 139q-184 -139 -372 -139
q-206 0 -332.5 115.5t-126.5 320.5q0 143 53.5 274.5t145.5 229t221.5 155.5t273.5 58zM438 211q0 -141 64 -141q65 0 134.5 147.5t113 342.5t43.5 341q0 141 -64 141q-65 0 -134.5 -147.5t-113 -342.5t-43.5 -341zM1438 1047q-56 0 -114 -71.5t-99 -177t-58 -212.5
q164 40 249 137.5t85 230.5q0 93 -63 93z" />
    <glyph glyph-name="Racute" unicode="&#x154;" horiz-adv-x="1562" 
d="M856 1329h-35l-131 -624h45q73 0 135.5 23t113 68.5t79.5 123t29 178.5q0 105 -58 168t-178 63zM666 594l-78 -365q-20 -78 -1 -102.5t113 -34.5l-18 -92h-731l20 92q54 5 81.5 11.5t46 24t25.5 37.5t17 64l209 979q20 78 1.5 103t-113.5 35l20 92h801q120 0 212 -27
t147.5 -75t83.5 -110t28 -136t-27 -140t-69 -112.5t-97 -84t-106 -59.5t-101 -35l191 -401q24 -52 38.5 -78t34 -48t41.5 -30t56 -10l-18 -92h-480q-64 59 -125 225l-133 369h-69zM1022 1823h397v-19l-448 -286h-123z" />
    <glyph glyph-name="racute" unicode="&#x155;" horiz-adv-x="1058" 
d="M707 1133l-82 -287l-99 -311q74 152 122.5 244.5t94.5 168t83 112t74.5 55t82.5 18.5q73 0 115.5 -46.5t42.5 -123.5q0 -96 -60.5 -177.5t-146.5 -115.5h-16q0 44 -20 72t-64 28q-64 0 -125 -57.5t-113.5 -162t-97 -243t-80.5 -307.5h-418l225 899l-104 84l14 61l498 89
h74zM836 1569h397v-19l-449 -315h-122z" />
    <glyph glyph-name="Rcommaaccent" unicode="&#x156;" horiz-adv-x="1562" 
d="M856 1329h-35l-131 -624h45q73 0 135.5 23t113 68.5t79.5 123t29 178.5q0 105 -58 168t-178 63zM666 594l-78 -365q-20 -78 -1 -102.5t113 -34.5l-18 -92h-731l20 92q54 5 81.5 11.5t46 24t25.5 37.5t17 64l209 979q20 78 1.5 103t-113.5 35l20 92h801q120 0 212 -27
t147.5 -75t83.5 -110t28 -136t-27 -140t-69 -112.5t-97 -84t-106 -59.5t-101 -35l191 -401q24 -52 38.5 -78t34 -48t41.5 -30t56 -10l-18 -92h-480q-64 59 -125 225l-133 369h-69zM670 -324h-125q-84 22 -84 103q0 67 50 111t138 44q85 0 132.5 -47t47.5 -123
q0 -125 -93.5 -200.5t-295.5 -75.5v82q98 0 159 31t71 75z" />
    <glyph glyph-name="rcommaaccent" unicode="&#x157;" horiz-adv-x="1058" 
d="M707 1133l-82 -287l-99 -311q74 152 122.5 244.5t94.5 168t83 112t74.5 55t82.5 18.5q73 0 115.5 -46.5t42.5 -123.5q0 -96 -60.5 -177.5t-146.5 -115.5h-16q0 44 -20 72t-64 28q-64 0 -125 -57.5t-113.5 -162t-97 -243t-80.5 -307.5h-418l225 899l-104 84l14 61l498 89
h74zM180 -324h-125q-84 22 -84 103q0 67 50.5 111t138.5 44q85 0 132.5 -47t47.5 -123q0 -125 -93.5 -200.5t-295.5 -75.5v82q98 0 158.5 31t70.5 75z" />
    <glyph glyph-name="Rcaron" unicode="&#x158;" horiz-adv-x="1562" 
d="M856 1329h-35l-131 -624h45q73 0 135.5 23t113 68.5t79.5 123t29 178.5q0 105 -58 168t-178 63zM666 594l-78 -365q-20 -78 -1 -102.5t113 -34.5l-18 -92h-731l20 92q54 5 81.5 11.5t46 24t25.5 37.5t17 64l209 979q20 78 1.5 103t-113.5 35l20 92h801q120 0 212 -27
t147.5 -75t83.5 -110t28 -136t-27 -140t-69 -112.5t-97 -84t-106 -59.5t-101 -35l191 -401q24 -52 38.5 -78t34 -48t41.5 -30t56 -10l-18 -92h-480q-64 59 -125 225l-133 369h-69zM774 1520l-168 311h127l213 -133l283 133h139l-315 -311h-279z" />
    <glyph glyph-name="rcaron" unicode="&#x159;" horiz-adv-x="1058" 
d="M707 1133l-82 -287l-99 -311q74 152 122.5 244.5t94.5 168t83 112t74.5 55t82.5 18.5q73 0 115.5 -46.5t42.5 -123.5q0 -96 -60.5 -177.5t-146.5 -115.5h-16q0 44 -20 72t-64 28q-64 0 -125 -57.5t-113.5 -162t-97 -243t-80.5 -307.5h-418l225 899l-104 84l14 61l498 89
h74zM600 1233l-168 346h127l213 -164l283 164h139l-315 -346h-279z" />
    <glyph glyph-name="Sacute" unicode="&#x15a;" horiz-adv-x="1226" 
d="M1155 494q0 -124 -50.5 -223t-138.5 -162t-205.5 -96t-254.5 -33q-161 0 -297.5 53.5t-208.5 124.5l68 350h104q0 -186 96 -301t262 -115q104 0 169 52.5t65 150.5q0 76 -58 126t-202 120q-78 38 -132.5 74t-103.5 85t-73.5 112.5t-24.5 141.5q0 232 165.5 368t438.5 136
q145 0 270.5 -46.5t192.5 -111.5l-66 -311h-100q0 163 -82 263t-237 100q-90 0 -145.5 -54.5t-55.5 -142.5q0 -43 11.5 -73.5t42.5 -58.5t66 -49t101 -54q68 -34 112.5 -59.5t101 -67t89.5 -81.5t56.5 -97t23.5 -121zM938 1823h397v-19l-448 -286h-123z" />
    <glyph glyph-name="sacute" unicode="&#x15b;" horiz-adv-x="964" 
d="M444 63q45 0 72 22t27 60q0 31 -23 65.5t-60 68.5t-81.5 71.5t-89 79.5t-81.5 86.5t-60 98.5t-23 110q0 165 141.5 286.5t345.5 121.5q139 0 231.5 -53t92.5 -156q0 -61 -49.5 -103.5t-110.5 -54.5h-20q-21 117 -85 199t-149 82q-42 0 -68 -23.5t-26 -62.5
q0 -30 32.5 -70t82 -80t106.5 -91t106.5 -101.5t82 -113.5t32.5 -124q0 -111 -66 -203.5t-177.5 -145t-243.5 -52.5q-177 0 -289 66t-112 179q0 68 45 115.5t116 71.5h19q28 -162 102 -255.5t180 -93.5zM737 1569h398v-19l-449 -315h-123z" />
    <glyph glyph-name="Scircumflex" unicode="&#x15c;" horiz-adv-x="1226" 
d="M1155 494q0 -124 -50.5 -223t-138.5 -162t-205.5 -96t-254.5 -33q-161 0 -297.5 53.5t-208.5 124.5l68 350h104q0 -186 96 -301t262 -115q104 0 169 52.5t65 150.5q0 76 -58 126t-202 120q-78 38 -132.5 74t-103.5 85t-73.5 112.5t-24.5 141.5q0 232 165.5 368t438.5 136
q145 0 270.5 -46.5t192.5 -111.5l-66 -311h-100q0 163 -82 263t-237 100q-90 0 -145.5 -54.5t-55.5 -142.5q0 -43 11.5 -73.5t42.5 -58.5t66 -49t101 -54q68 -34 112.5 -59.5t101 -67t89.5 -81.5t56.5 -97t23.5 -121zM1024 1829l168 -311h-127l-213 133l-283 -133h-139
l315 311h279z" />
    <glyph glyph-name="scircumflex" unicode="&#x15d;" horiz-adv-x="964" 
d="M444 63q45 0 72 22t27 60q0 31 -23 65.5t-60 68.5t-81.5 71.5t-89 79.5t-81.5 86.5t-60 98.5t-23 110q0 165 141.5 286.5t345.5 121.5q139 0 231.5 -53t92.5 -156q0 -61 -49.5 -103.5t-110.5 -54.5h-20q-21 117 -85 199t-149 82q-42 0 -68 -23.5t-26 -62.5
q0 -30 32.5 -70t82 -80t106.5 -91t106.5 -101.5t82 -113.5t32.5 -124q0 -111 -66 -203.5t-177.5 -145t-243.5 -52.5q-177 0 -289 66t-112 179q0 68 45 115.5t116 71.5h19q28 -162 102 -255.5t180 -93.5zM862 1569l168 -346h-127l-213 163l-282 -163h-140l316 346h278z" />
    <glyph glyph-name="Scedilla" unicode="&#x15e;" horiz-adv-x="1226" 
d="M219 -477l-18 76q106 0 170.5 29.5t64.5 70.5q0 25 -19.5 38.5t-48.5 18t-83 6.5l110 226q-128 16 -232.5 64t-162.5 106l68 350h104q0 -186 96 -301t262 -115q104 0 169 52.5t65 150.5q0 76 -58 126t-202 120q-78 38 -132.5 74t-103.5 85t-73.5 112.5t-24.5 141.5
q0 232 165.5 368t438.5 136q145 0 270.5 -46.5t192.5 -111.5l-66 -311h-100q0 163 -82 263t-237 100q-90 0 -145.5 -54.5t-55.5 -142.5q0 -43 11.5 -73.5t42.5 -58.5t66 -49t101 -54q68 -34 112.5 -59.5t101 -67t89.5 -81.5t56.5 -97t23.5 -121q0 -124 -50.5 -223
t-138.5 -162t-205.5 -96t-254.5 -33q-6 0 -17 1t-16 1l-31 -60q102 -12 146.5 -53.5t44.5 -112.5q0 -113 -117.5 -173t-296.5 -60z" />
    <glyph glyph-name="scedilla" unicode="&#x15f;" horiz-adv-x="964" 
d="M109 -477l-19 76q107 0 171.5 29.5t64.5 70.5q0 35 -35.5 47.5t-116.5 15.5l109 224q-137 18 -219 80.5t-82 158.5q0 68 45 115.5t116 71.5h19q28 -162 102 -255.5t180 -93.5q45 0 72 22t27 60q0 31 -23 65.5t-60 68.5t-81.5 71.5t-89 79.5t-81.5 86.5t-60 98.5t-23 110
q0 165 141.5 286.5t345.5 121.5q139 0 231.5 -53t92.5 -156q0 -61 -49.5 -103.5t-110.5 -54.5h-20q-21 117 -85 199t-149 82q-42 0 -68 -23.5t-26 -62.5q0 -30 32.5 -70t82 -80t106.5 -91t106.5 -101.5t82 -113.5t32.5 -124q0 -111 -66 -203.5t-177.5 -145t-243.5 -52.5h-23
l-28 -58q102 -12 146 -53.5t44 -112.5q0 -113 -117 -173t-296 -60z" />
    <glyph glyph-name="Scaron" unicode="&#x160;" horiz-adv-x="1226" 
d="M1155 494q0 -124 -50.5 -223t-138.5 -162t-205.5 -96t-254.5 -33q-161 0 -297.5 53.5t-208.5 124.5l68 350h104q0 -186 96 -301t262 -115q104 0 169 52.5t65 150.5q0 76 -58 126t-202 120q-78 38 -132.5 74t-103.5 85t-73.5 112.5t-24.5 141.5q0 232 165.5 368t438.5 136
q145 0 270.5 -46.5t192.5 -111.5l-66 -311h-100q0 163 -82 263t-237 100q-90 0 -145.5 -54.5t-55.5 -142.5q0 -43 11.5 -73.5t42.5 -58.5t66 -49t101 -54q68 -34 112.5 -59.5t101 -67t89.5 -81.5t56.5 -97t23.5 -121zM690 1520l-168 311h127l213 -133l283 133h139l-315 -311
h-279z" />
    <glyph glyph-name="scaron" unicode="&#x161;" horiz-adv-x="964" 
d="M444 63q45 0 72 22t27 60q0 31 -23 65.5t-60 68.5t-81.5 71.5t-89 79.5t-81.5 86.5t-60 98.5t-23 110q0 165 141.5 286.5t345.5 121.5q139 0 231.5 -53t92.5 -156q0 -61 -49.5 -103.5t-110.5 -54.5h-20q-21 117 -85 199t-149 82q-42 0 -68 -23.5t-26 -62.5
q0 -30 32.5 -70t82 -80t106.5 -91t106.5 -101.5t82 -113.5t32.5 -124q0 -111 -66 -203.5t-177.5 -145t-243.5 -52.5q-177 0 -289 66t-112 179q0 68 45 115.5t116 71.5h19q28 -162 102 -255.5t180 -93.5zM522 1233l-168 346h127l213 -164l283 164h139l-315 -346h-279z" />
    <glyph glyph-name="Tcedilla" unicode="&#x162;" horiz-adv-x="1509" 
d="M1155 1350l-242 -1131q-6 -27 -7.5 -44.5t4.5 -31.5t14.5 -21.5t29 -13.5t40.5 -9t57 -7l-21 -92h-772l21 92q106 11 137.5 31t48.5 96l242 1131h-50q-37 0 -71 -15.5t-65.5 -41.5t-76 -83t-87 -117t-115.5 -165q-11 -17 -17 -25h-100l145 535h1358l-84 -535h-92
q-67 258 -77 289q-35 111 -80 140q-28 18 -70 18h-70zM610 -324h-125q-84 22 -84 103q0 67 50.5 111t138.5 44q85 0 132.5 -47t47.5 -123q0 -125 -93.5 -200.5t-295.5 -75.5v82q98 0 158.5 31t70.5 75z" />
    <glyph glyph-name="tcedilla" unicode="&#x163;" horiz-adv-x="858" 
d="M649 967l-155 -621q-17 -69 -17 -102q0 -60 51 -60q94 0 248 178l58 -43q-123 -169 -247.5 -254t-260.5 -85q-118 0 -188 68t-70 169q0 62 16 141l152 609h-125l20 80q144 45 292 144.5t234 205.5h97l-76 -314h223l-29 -116h-223zM254 -324h-125q-84 22 -84 103
q0 67 50 111t138 44q86 0 133.5 -47t47.5 -123q0 -125 -93.5 -200.5t-295.5 -75.5v82q98 0 158.5 31t70.5 75z" />
    <glyph glyph-name="Tcaron" unicode="&#x164;" horiz-adv-x="1509" 
d="M1155 1350l-242 -1131q-6 -27 -7.5 -44.5t4.5 -31.5t14.5 -21.5t29 -13.5t40.5 -9t57 -7l-21 -92h-772l21 92q106 11 137.5 31t48.5 96l242 1131h-50q-37 0 -71 -15.5t-65.5 -41.5t-76 -83t-87 -117t-115.5 -165q-11 -17 -17 -25h-100l145 535h1358l-84 -535h-92
q-67 258 -77 289q-35 111 -80 140q-28 18 -70 18h-70zM823 1520l-168 311h127l213 -133l283 133h139l-315 -311h-279z" />
    <glyph glyph-name="tcaron" unicode="&#x165;" horiz-adv-x="858" 
d="M649 967l-155 -621q-17 -69 -17 -102q0 -60 51 -60q94 0 248 178l58 -43q-123 -169 -247.5 -254t-260.5 -85q-118 0 -188 68t-70 169q0 62 16 141l152 609h-125l20 80q144 45 292 144.5t234 205.5h97l-76 -314h223l-29 -116h-223zM1186 1550l-328 -395h-96l112 420h318z
" />
    <glyph glyph-name="Tbar" unicode="&#x166;" horiz-adv-x="1509" 
d="M365 655l28 140h195l119 555h-50q-37 0 -71 -15.5t-65.5 -41.5t-76 -83t-87 -117t-115.5 -165q-11 -17 -17 -25h-100l145 535h1358l-84 -535h-92q-67 258 -77 289q-35 111 -80 140q-28 18 -70 18h-70l-119 -555h224l-29 -140h-225l-93 -436q-6 -27 -7.5 -44.5t4.5 -31.5
t14.5 -21.5t29 -13.5t40.5 -9t57 -7l-21 -92h-772l21 92q106 11 137.5 31t48.5 96l92 436h-192z" />
    <glyph glyph-name="tbar" unicode="&#x167;" horiz-adv-x="890" 
d="M664 967l-48 -183h236l-27 -116h-237l-80 -322q-16 -65 -16 -102q0 -60 51 -60q94 0 248 178l57 -43q-123 -169 -247.5 -254t-260.5 -85q-118 0 -188 68t-70 169q0 62 16 141l76 310h-115l27 116h117l47 183h-125l20 80q144 45 292.5 144.5t234.5 205.5h96l-76 -314h223
l-28 -116h-223z" />
    <glyph glyph-name="Utilde" unicode="&#x168;" horiz-adv-x="1568" 
d="M1255 551l140 657q7 33 7.5 53.5t-6.5 36.5t-27.5 24.5t-51.5 14t-82 9.5l20 92h480l-21 -92q-53 -5 -80.5 -12t-46 -24t-26 -37.5t-17.5 -64.5l-149 -698q-56 -267 -224 -398.5t-434 -131.5q-305 0 -454.5 169t-89.5 443l133 616q20 78 1.5 103t-114.5 35l20 92h732
l-21 -92q-53 -5 -80.5 -12t-46 -24t-26 -37.5t-17.5 -64.5l-137 -637q-20 -81 -13 -154.5t34 -128.5t86.5 -87.5t144.5 -32.5q142 0 232 88t134 295zM1262 1518q-45 0 -85.5 19t-65 42t-56 42t-60.5 19q-39 0 -72.5 -28.5t-72.5 -83.5l-78 45q71 145 133.5 215t143.5 70
q45 0 85 -19t65 -42.5t56 -42.5t60 -19q39 0 71 28t72 84l78 -45q-69 -145 -131 -214.5t-143 -69.5z" />
    <glyph glyph-name="utilde" unicode="&#x169;" horiz-adv-x="1386" 
d="M848 838l63 254l426 20l-202 -805q-17 -70 -17 -82q0 -30 29 -30q27 0 65 35t97 108l53 -47q-59 -81 -106.5 -134.5t-101 -95.5t-109.5 -61.5t-121 -19.5q-107 0 -169.5 55.5t-62.5 150.5q0 72 51 240q-125 -247 -238.5 -346.5t-240.5 -99.5q-98 0 -155.5 61.5
t-57.5 153.5q0 45 17 122l145 582l-104 84l14 61l498 89h73l-192 -760q-17 -66 -17 -84q0 -37 33 -37q39 0 101.5 80.5t127 219t101.5 286.5zM973 1233q-45 0 -85 19t-65 42.5t-56 42.5t-60 19q-39 0 -73 -29t-73 -84l-78 45q71 145 133.5 215t143.5 70q45 0 85 -19
t65 -42.5t56 -42.5t60 -19q39 0 71 28t72 85l78 -45q-69 -145 -131 -215t-143 -70z" />
    <glyph glyph-name="Umacron" unicode="&#x16a;" horiz-adv-x="1568" 
d="M1255 551l140 657q7 33 7.5 53.5t-6.5 36.5t-27.5 24.5t-51.5 14t-82 9.5l20 92h480l-21 -92q-53 -5 -80.5 -12t-46 -24t-26 -37.5t-17.5 -64.5l-149 -698q-56 -267 -224 -398.5t-434 -131.5q-305 0 -454.5 169t-89.5 443l133 616q20 78 1.5 103t-114.5 35l20 92h732
l-21 -92q-53 -5 -80.5 -12t-46 -24t-26 -37.5t-17.5 -64.5l-137 -637q-20 -81 -13 -154.5t34 -128.5t86.5 -87.5t144.5 -32.5q142 0 232 88t134 295zM817 1528l43 194h602l-43 -194h-602z" />
    <glyph glyph-name="umacron" unicode="&#x16b;" horiz-adv-x="1386" 
d="M848 838l63 254l426 20l-202 -805q-17 -70 -17 -82q0 -30 29 -30q27 0 65 35t97 108l53 -47q-59 -81 -106.5 -134.5t-101 -95.5t-109.5 -61.5t-121 -19.5q-107 0 -169.5 55.5t-62.5 150.5q0 72 51 240q-125 -247 -238.5 -346.5t-240.5 -99.5q-98 0 -155.5 61.5
t-57.5 153.5q0 45 17 122l145 582l-104 84l14 61l498 89h73l-192 -760q-17 -66 -17 -84q0 -37 33 -37q39 0 101.5 80.5t127 219t101.5 286.5zM537 1280l43 195h602l-43 -195h-602z" />
    <glyph glyph-name="Ubreve" unicode="&#x16c;" horiz-adv-x="1568" 
d="M1255 551l140 657q7 33 7.5 53.5t-6.5 36.5t-27.5 24.5t-51.5 14t-82 9.5l20 92h480l-21 -92q-53 -5 -80.5 -12t-46 -24t-26 -37.5t-17.5 -64.5l-149 -698q-56 -267 -224 -398.5t-434 -131.5q-305 0 -454.5 169t-89.5 443l133 616q20 78 1.5 103t-114.5 35l20 92h732
l-21 -92q-53 -5 -80.5 -12t-46 -24t-26 -37.5t-17.5 -64.5l-137 -637q-20 -81 -13 -154.5t34 -128.5t86.5 -87.5t144.5 -32.5q142 0 232 88t134 295zM1118 1511q-139 0 -203.5 81.5t-27.5 238.5h98q-3 -70 42 -97.5t130 -27.5t144.5 27.5t89.5 97.5h106
q-37 -159 -136 -239.5t-243 -80.5z" />
    <glyph glyph-name="ubreve" unicode="&#x16d;" horiz-adv-x="1386" 
d="M848 838l63 254l426 20l-202 -805q-17 -70 -17 -82q0 -30 29 -30q27 0 65 35t97 108l53 -47q-59 -81 -106.5 -134.5t-101 -95.5t-109.5 -61.5t-121 -19.5q-107 0 -169.5 55.5t-62.5 150.5q0 72 51 240q-125 -247 -238.5 -346.5t-240.5 -99.5q-98 0 -155.5 61.5
t-57.5 153.5q0 45 17 122l145 582l-104 84l14 61l498 89h73l-192 -760q-17 -66 -17 -84q0 -37 33 -37q39 0 101.5 80.5t127 219t101.5 286.5zM823 1225q-147 0 -206 92t-21 256h102q-7 -78 38.5 -110.5t129.5 -32.5q183 0 238 143h102q-39 -165 -138 -256.5t-245 -91.5z" />
    <glyph glyph-name="Uring" unicode="&#x16e;" horiz-adv-x="1568" 
d="M1255 551l140 657q7 33 7.5 53.5t-6.5 36.5t-27.5 24.5t-51.5 14t-82 9.5l20 92h480l-21 -92q-53 -5 -80.5 -12t-46 -24t-26 -37.5t-17.5 -64.5l-149 -698q-56 -267 -224 -398.5t-434 -131.5q-305 0 -454.5 169t-89.5 443l133 616q20 78 1.5 103t-114.5 35l20 92h732
l-21 -92q-53 -5 -80.5 -12t-46 -24t-26 -37.5t-17.5 -64.5l-137 -637q-20 -81 -13 -154.5t34 -128.5t86.5 -87.5t144.5 -32.5q142 0 232 88t134 295zM1255 1708q0 42 -25.5 67t-70.5 25q-50 0 -77 -31t-27 -79q0 -42 25.5 -67.5t70.5 -25.5q50 0 77 31.5t27 79.5zM936 1686
q0 95 64.5 161t162.5 66q93 0 152 -57t59 -144q0 -95 -64.5 -161t-162.5 -66q-93 0 -152 57t-59 144z" />
    <glyph glyph-name="uring" unicode="&#x16f;" horiz-adv-x="1386" 
d="M848 838l63 254l426 20l-202 -805q-17 -70 -17 -82q0 -30 29 -30q27 0 65 35t97 108l53 -47q-59 -81 -106.5 -134.5t-101 -95.5t-109.5 -61.5t-121 -19.5q-107 0 -169.5 55.5t-62.5 150.5q0 72 51 240q-125 -247 -238.5 -346.5t-240.5 -99.5q-98 0 -155.5 61.5
t-57.5 153.5q0 45 17 122l145 582l-104 84l14 61l498 89h73l-192 -760q-17 -66 -17 -84q0 -37 33 -37q39 0 101.5 80.5t127 219t101.5 286.5zM965 1411q0 42 -26 67t-71 25q-50 0 -77 -31t-27 -79q0 -42 25.5 -67.5t70.5 -25.5q50 0 77.5 31.5t27.5 79.5zM645 1389
q0 95 64.5 161t162.5 66q93 0 152 -57t59 -144q0 -95 -64.5 -161t-162.5 -66q-93 0 -152 57t-59 144z" />
    <glyph glyph-name="Uhungarumlaut" unicode="&#x170;" horiz-adv-x="1568" 
d="M1255 551l140 657q7 33 7.5 53.5t-6.5 36.5t-27.5 24.5t-51.5 14t-82 9.5l20 92h480l-21 -92q-53 -5 -80.5 -12t-46 -24t-26 -37.5t-17.5 -64.5l-149 -698q-56 -267 -224 -398.5t-434 -131.5q-305 0 -454.5 169t-89.5 443l133 616q20 78 1.5 103t-114.5 35l20 92h732
l-21 -92q-53 -5 -80.5 -12t-46 -24t-26 -37.5t-17.5 -64.5l-137 -637q-20 -81 -13 -154.5t34 -128.5t86.5 -87.5t144.5 -32.5q142 0 232 88t134 295zM991 1823h332l-4 -21l-346 -284h-125zM1376 1823h332l-4 -21l-346 -284h-125z" />
    <glyph glyph-name="uhungarumlaut" unicode="&#x171;" horiz-adv-x="1386" 
d="M848 838l63 254l426 20l-202 -805q-17 -70 -17 -82q0 -30 29 -30q27 0 65 35t97 108l53 -47q-59 -81 -106.5 -134.5t-101 -95.5t-109.5 -61.5t-121 -19.5q-107 0 -169.5 55.5t-62.5 150.5q0 72 51 240q-125 -247 -238.5 -346.5t-240.5 -99.5q-98 0 -155.5 61.5
t-57.5 153.5q0 45 17 122l145 582l-104 84l14 61l498 89h73l-192 -760q-17 -66 -17 -84q0 -37 33 -37q39 0 101.5 80.5t127 219t101.5 286.5zM686 1569h332l-4 -21l-371 -313h-125zM1071 1569h332l-4 -21l-371 -313h-125z" />
    <glyph glyph-name="Uogonek" unicode="&#x172;" horiz-adv-x="1568" 
d="M1255 551l140 657q7 33 7.5 53.5t-6.5 36.5t-27.5 24.5t-51.5 14t-82 9.5l20 92h480l-21 -92q-53 -5 -80.5 -12t-46 -24t-26 -37.5t-17.5 -64.5l-149 -698q-72 -345 -336 -469q-98 -57 -146.5 -121t-48.5 -123q0 -36 21 -60t59 -24q35 0 65 12t74 44l27 -48
q-75 -83 -150 -123t-161 -40q-77 0 -126.5 40t-49.5 111q0 86 56.5 152.5t158.5 124.5q-50 -6 -101 -6q-305 0 -454.5 169t-89.5 443l133 616q20 78 1.5 103t-114.5 35l20 92h732l-21 -92q-53 -5 -80.5 -12t-46 -24t-26 -37.5t-17.5 -64.5l-137 -637q-20 -81 -13 -154.5
t34 -128.5t86.5 -87.5t144.5 -32.5q142 0 232 88t134 295z" />
    <glyph glyph-name="uogonek" unicode="&#x173;" horiz-adv-x="1386" 
d="M692 186q0 72 51 240q-125 -247 -238.5 -346.5t-240.5 -99.5q-98 0 -155.5 61.5t-57.5 153.5q0 45 17 122l145 582l-104 84l14 61l498 89h73l-192 -760q-17 -66 -17 -84q0 -37 33 -37q39 0 101.5 80.5t127 219t101.5 286.5l63 254l426 20l-202 -805q-17 -63 -17 -82
q0 -30 29 -30q27 0 65 35t97 108l53 -47q-61 -81 -142 -163.5t-134 -130.5t-91.5 -101.5t-38.5 -98.5q0 -36 21 -60t59 -24q36 0 66 12t74 44l26 -48q-75 -83 -150 -123t-161 -40q-77 0 -126.5 40t-49.5 111q0 152 205 271q-106 2 -167 56.5t-61 149.5z" />
    <glyph glyph-name="Wcircumflex" unicode="&#x174;" horiz-adv-x="2043" 
d="M1495 1149l64 -578l309 559q53 93 53 148q0 34 -22 49.5t-91 18.5l21 92h414l-21 -92q-53 -6 -83.5 -22.5t-51.5 -53.5l-725 -1276h-137l-109 807l-469 -807h-137l-223 1276q-11 59 -103 76l21 92h678l-21 -92q-62 -6 -87 -31t-25 -80q0 -39 8 -86l96 -584l240 412
l-39 293q-5 34 -24 51.5t-60 24.5l20 92h631l-20 -92q-65 -7 -89 -32.5t-24 -84.5q0 -33 6 -80zM1475 1829l167 -311h-126l-213 133l-283 -133h-139l315 311h279z" />
    <glyph glyph-name="wcircumflex" unicode="&#x175;" horiz-adv-x="1662" 
d="M752 915l-99 74l17 53l438 91h43l53 -752l84 92q135 150 135 301q0 86 -50.5 130t-137.5 44l4 33q39 66 105.5 109t152.5 43q99 0 148 -59t49 -152q0 -34 -9.5 -70t-21 -64.5t-39 -68.5t-44 -63t-56.5 -67.5t-57 -62.5t-64 -67l-447 -465h-106l-53 504l-435 -504h-106
l-98 921l-113 80l16 54l453 84h43l53 -727l174 204zM1217 1569l167 -346h-127l-213 163l-282 -163h-139l315 346h279z" />
    <glyph glyph-name="Ycircumflex" unicode="&#x176;" horiz-adv-x="1454" 
d="M975 528l-66 -309q-6 -27 -7.5 -44.5t4.5 -31.5t14.5 -21.5t29 -13.5t40.5 -9t57 -7l-21 -92h-762l21 92q106 11 137.5 31t48.5 96l64 299l-248 752q-13 40 -34 54t-69 22l21 92h723l-21 -92q-80 -5 -115.5 -28.5t-35.5 -72.5q0 -36 26 -112l154 -457l326 469
q24 35 36 53.5t23.5 43.5t11.5 42q0 59 -123 62l21 92h422l-21 -92q-47 -8 -78.5 -24.5t-56.5 -51.5zM1276 1829l168 -311h-127l-213 133l-283 -133h-139l315 311h279z" />
    <glyph glyph-name="ycircumflex" unicode="&#x177;" horiz-adv-x="1126" 
d="M139 915l-112 80l16 54l440 84h43l179 -902q105 146 144.5 255t39.5 235q0 119 -61 173t-154 54l4 33q38 65 103 108.5t145 43.5q108 0 164.5 -65t56.5 -169q0 -65 -24.5 -141.5t-60.5 -147t-97.5 -162t-114 -161.5t-131.5 -170q-125 -160 -211.5 -258.5t-175.5 -175.5
t-168 -109.5t-166 -32.5q-98 0 -162.5 50.5t-64.5 140.5q0 70 48 121.5t126 74.5h41q0 -221 157 -221q110 0 236 123zM934 1569l168 -346h-127l-213 163l-283 -163h-139l315 346h279z" />
    <glyph glyph-name="Ydieresis" unicode="&#x178;" horiz-adv-x="1454" 
d="M975 528l-66 -309q-6 -27 -7.5 -44.5t4.5 -31.5t14.5 -21.5t29 -13.5t40.5 -9t57 -7l-21 -92h-762l21 92q106 11 137.5 31t48.5 96l64 299l-248 752q-13 40 -34 54t-69 22l21 92h723l-21 -92q-80 -5 -115.5 -28.5t-35.5 -72.5q0 -36 26 -112l154 -457l326 469
q24 35 36 53.5t23.5 43.5t11.5 42q0 59 -123 62l21 92h422l-21 -92q-47 -8 -78.5 -24.5t-56.5 -51.5zM893 1505q-80 0 -129 50t-49 120q0 79 52 135t138 56q80 0 128 -49t48 -119q0 -80 -51.5 -136.5t-136.5 -56.5zM1321 1505q-80 0 -128 49.5t-48 120.5q0 79 51 135t137 56
q80 0 128 -49t48 -119q0 -80 -51 -136.5t-137 -56.5z" />
    <glyph glyph-name="Zacute" unicode="&#x179;" horiz-adv-x="1327" 
d="M463 102h215q67 0 116.5 14.5t109.5 60t123 116.5t161 196h98l-178 -489h-1180l17 80l977 1255h-195q-135 0 -205 -61.5t-211 -271.5q-11 -15 -16 -23h-96l118 459h1145l-18 -80zM1059 1823h397v-19l-448 -286h-123z" />
    <glyph glyph-name="zacute" unicode="&#x17a;" horiz-adv-x="1079" 
d="M698 762h-368q-31 0 -51.5 -8t-32 -19.5t-37.5 -42.5l-43 -51l-41 14l168 531h51q7 -44 16 -62t29 -18h780v-49l-749 -635l192 -70q1 0 29.5 -7.5t44.5 -11t45.5 -7.5t54.5 -4q27 0 48.5 4.5t52 18.5t65 47t70.5 85l37 -20q-45 -145 -93 -241.5t-104 -152.5t-116 -79
t-138 -23q-77 0 -147 23t-164 69l-209 107l-59 -160q-99 -6 -99 66q0 49 52 96zM836 1569h397v-19l-449 -315h-122z" />
    <glyph glyph-name="Zdotaccent" unicode="&#x17b;" horiz-adv-x="1327" 
d="M463 102h215q67 0 116.5 14.5t109.5 60t123 116.5t161 196h98l-178 -489h-1180l17 80l977 1255h-195q-135 0 -205 -61.5t-211 -271.5q-11 -15 -16 -23h-96l118 459h1145l-18 -80zM977 1509q-89 0 -143 53t-54 128q0 85 57.5 143.5t155.5 58.5q88 0 142.5 -52t54.5 -126
q0 -86 -58 -145.5t-155 -59.5z" />
    <glyph glyph-name="zdotaccent" unicode="&#x17c;" horiz-adv-x="1079" 
d="M698 762h-368q-31 0 -51.5 -8t-32 -19.5t-37.5 -42.5l-43 -51l-41 14l168 531h51q7 -44 16 -62t29 -18h780v-49l-749 -635l192 -70q1 0 29.5 -7.5t44.5 -11t45.5 -7.5t54.5 -4q27 0 48.5 4.5t52 18.5t65 47t70.5 85l37 -20q-45 -145 -93 -241.5t-104 -152.5t-116 -79
t-138 -23q-77 0 -147 23t-164 69l-209 107l-59 -160q-99 -6 -99 66q0 49 52 96zM760 1217q-89 0 -143 52.5t-54 127.5q0 85 57.5 143.5t155.5 58.5q88 0 142.5 -52t54.5 -126q0 -86 -58 -145t-155 -59z" />
    <glyph glyph-name="Zcaron" unicode="&#x17d;" horiz-adv-x="1327" 
d="M463 102h215q67 0 116.5 14.5t109.5 60t123 116.5t161 196h98l-178 -489h-1180l17 80l977 1255h-195q-135 0 -205 -61.5t-211 -271.5q-11 -15 -16 -23h-96l118 459h1145l-18 -80zM811 1520l-168 311h127l213 -133l283 133h139l-315 -311h-279z" />
    <glyph glyph-name="zcaron" unicode="&#x17e;" horiz-adv-x="1079" 
d="M698 762h-368q-31 0 -51.5 -8t-32 -19.5t-37.5 -42.5l-43 -51l-41 14l168 531h51q7 -44 16 -62t29 -18h780v-49l-749 -635l192 -70q1 0 29.5 -7.5t44.5 -11t45.5 -7.5t54.5 -4q27 0 48.5 4.5t52 18.5t65 47t70.5 85l37 -20q-45 -145 -93 -241.5t-104 -152.5t-116 -79
t-138 -23q-77 0 -147 23t-164 69l-209 107l-59 -160q-99 -6 -99 66q0 49 52 96zM600 1233l-168 346h127l213 -164l283 164h139l-315 -346h-279z" />
    <glyph glyph-name="florin" unicode="&#x192;" horiz-adv-x="1071" 
d="M96 711l25 92h198l3 8q71 319 235 483t418 164q87 0 152 -16.5t108 -58.5t43 -107q0 -52 -29 -89t-82 -52h-127q35 251 -65 251q-74 0 -101 -122l-102 -461h227l-24 -92h-223l-82 -379q-73 -333 -237.5 -517t-422.5 -184q-135 0 -222 44t-87 137q0 108 111 143h127
q-7 -61 -7 -116.5t19.5 -94.5t58.5 -39q67 0 94 123l195 883h-203z" />
    <glyph glyph-name="Aringacute" unicode="&#x1fa;" horiz-adv-x="1546" 
d="M877 264l-31 168h-506l-96 -168q-35 -64 -35 -94q0 -37 34 -54.5t113 -23.5l-20 -92h-449l21 92q47 5 78.5 21t54.5 55l647 1092l-33 178h463l232 -1270q7 -36 32.5 -52t73.5 -24l-20 -92h-754l20 92q88 3 134.5 26t46.5 79q0 36 -6 67zM1159 1683q0 -86 -65.5 -144
t-165.5 -58q-96 0 -156.5 50.5t-60.5 129.5q0 86 65.5 144.5t165.5 58.5q96 0 156.5 -51t60.5 -130zM727 1098l-317 -547h415zM1047 2150h397v-18l-408 -227h-123zM1038 1679q0 37 -26.5 59.5t-73.5 22.5q-51 0 -79 -27t-28 -69q0 -37 27 -59.5t74 -22.5q51 0 78.5 27
t27.5 69z" />
    <glyph glyph-name="aringacute" unicode="&#x1fb;" horiz-adv-x="1396" 
d="M1030 1358q0 37 -26.5 59.5t-73.5 22.5q-51 0 -79 -27.5t-28 -69.5q0 -37 27 -59t74 -22q51 0 78.5 27t27.5 69zM1038 1829h398v-19l-408 -227h-123zM1151 1362q0 -86 -65.5 -144.5t-165.5 -58.5q-96 0 -157 51t-61 129q0 86 66 144.5t166 58.5q96 0 156.5 -50.5
t60.5 -129.5zM518 262q73 0 187 199t196 491q-5 35 -29 59.5t-59 24.5q-67 0 -135.5 -65t-117.5 -162.5t-80 -211.5t-31 -210q0 -125 69 -125zM705 186q0 72 51 240q-115 -224 -223 -335t-246 -111q-121 0 -190.5 88.5t-69.5 244.5q0 93 24.5 190.5t69 188t110.5 171
t145.5 140.5t179 95t204.5 35q163 0 264 -109l254 109h84l-82 -285l-133 -541q-17 -79 -17 -82q0 -30 29 -30q27 0 65 35t97 108l53 -47q-59 -81 -106.5 -134.5t-101 -95.5t-109.5 -61.5t-121 -19.5q-107 0 -169 55.5t-62 150.5z" />
    <glyph glyph-name="AEacute" unicode="&#x1fc;" horiz-adv-x="2150" 
d="M1931 0h-1210l20 92q54 5 81.5 11.5t46 24t25.5 37.5t17 64l60 281h-484l-204 -246q-43 -50 -43 -96q0 -37 37 -53.5t118 -22.5l-20 -92h-488l21 92q42 4 72 21.5t61 54.5l924 1118q-45 41 -201 60l20 92h1442l-78 -408h-80q-15 68 -24.5 104t-25 77t-32 59.5t-43.5 36
t-62 23t-85 5.5h-203l-112 -532h170q70 0 104.5 39.5t71.5 150.5h96l-108 -504h-97q11 112 -6.5 151.5t-87.5 39.5h-170l-94 -440q-18 -80 13.5 -109t115.5 -29h45q57 0 100 10.5t80 32.5t77 64.5t82.5 96t105.5 137.5q5 7 8.5 12t7.5 10h102zM1141 1294l-555 -665h411z
M1556 1823h398v-19l-449 -286h-123z" />
    <glyph glyph-name="aeacute" unicode="&#x1fd;" horiz-adv-x="1744" 
d="M778 1133q92 0 166.5 -29.5t122.5 -79.5q170 109 375 109q158 0 240.5 -69t82.5 -175q0 -82 -45 -145.5t-132.5 -107t-198 -72.5t-259.5 -50v-31q0 -134 57.5 -203t160.5 -69q75 0 143 38.5t143 119.5l49 -47q-221 -342 -561 -342q-167 0 -278.5 102.5t-124.5 275.5
q-104 -190 -204.5 -284t-227.5 -94q-121 0 -190.5 88.5t-69.5 244.5q0 112 34 228t100.5 222t156 189t209.5 132t251 49zM518 262q40 0 94 62.5t113 175.5q39 251 219 428q-47 112 -139 112q-86 0 -170.5 -109.5t-135 -262t-50.5 -281.5q0 -125 69 -125zM1212 1569h398v-19
l-449 -315h-123zM1409 1047q-56 0 -113.5 -72t-98.5 -177t-58 -212q164 40 249 137.5t85 230.5q0 93 -64 93z" />
    <glyph glyph-name="Oslashacute" unicode="&#x1fe;" horiz-adv-x="1576" 
d="M1505 1423l-102 -116q87 -78 133.5 -188t46.5 -238q0 -139 -39.5 -271.5t-117.5 -246t-184.5 -199.5t-249.5 -135t-304 -49q-205 0 -358 94l-123 -142l-78 66l119 137q-84 78 -129 187t-45 235q0 139 39.5 271.5t117.5 246t184.5 199.5t249.5 135t304 49q197 0 352 -92
l106 123zM692 86q73 0 141 62.5t117.5 161t88.5 220t60 239t27 218.5l-594 -682q20 -219 160 -219zM965 1352q-73 0 -140.5 -61.5t-117 -159t-88.5 -217.5t-61 -237t-28 -218l594 682q-11 103 -48.5 157t-110.5 54zM1126 1823h398v-19l-449 -286h-123z" />
    <glyph glyph-name="oslashacute" unicode="&#x1ff;" horiz-adv-x="1226" 
d="M1159 1124l-94 -110q125 -119 125 -318q0 -191 -90.5 -355t-251 -262.5t-352.5 -98.5q-151 0 -258 61l-103 -123l-74 53l103 123q-127 117 -127 322q0 143 53.5 274.5t145.5 229t221.5 155.5t273.5 58q146 0 262 -64l92 109zM868 1569h398v-19l-449 -315h-123zM727 1042
q-52 0 -110.5 -96.5t-103.5 -237t-69 -286.5l357 420q0 10 1 30t1 29q0 141 -76 141zM424 211q0 -141 76 -141q51 0 108 94.5t102 232.5t70 283l-356 -420v-49z" />
    <glyph glyph-name="Scommaaccent" unicode="&#x218;" horiz-adv-x="1226" 
d="M1155 494q0 -124 -50.5 -223t-138.5 -162t-205.5 -96t-254.5 -33q-161 0 -297.5 53.5t-208.5 124.5l68 350h104q0 -186 96 -301t262 -115q104 0 169 52.5t65 150.5q0 76 -58 126t-202 120q-78 38 -132.5 74t-103.5 85t-73.5 112.5t-24.5 141.5q0 232 165.5 368t438.5 136
q145 0 270.5 -46.5t192.5 -111.5l-66 -311h-100q0 163 -82 263t-237 100q-90 0 -145.5 -54.5t-55.5 -142.5q0 -43 11.5 -73.5t42.5 -58.5t66 -49t101 -54q68 -34 112.5 -59.5t101 -67t89.5 -81.5t56.5 -97t23.5 -121zM475 -324h-125q-84 22 -84 103q0 67 50.5 111t138.5 44
q85 0 132.5 -47t47.5 -123q0 -125 -93.5 -200.5t-295.5 -75.5v82q98 0 158.5 31t70.5 75z" />
    <glyph glyph-name="scommaaccent" unicode="&#x219;" horiz-adv-x="964" 
d="M444 63q45 0 72 22t27 60q0 31 -23 65.5t-60 68.5t-81.5 71.5t-89 79.5t-81.5 86.5t-60 98.5t-23 110q0 165 141.5 286.5t345.5 121.5q139 0 231.5 -53t92.5 -156q0 -61 -49.5 -103.5t-110.5 -54.5h-20q-21 117 -85 199t-149 82q-42 0 -68 -23.5t-26 -62.5
q0 -30 32.5 -70t82 -80t106.5 -91t106.5 -101.5t82 -113.5t32.5 -124q0 -111 -66 -203.5t-177.5 -145t-243.5 -52.5q-177 0 -289 66t-112 179q0 68 45 115.5t116 71.5h19q28 -162 102 -255.5t180 -93.5zM315 -324h-125q-84 22 -84 103q0 67 50.5 111t138.5 44
q85 0 132.5 -47t47.5 -123q0 -125 -93.5 -200.5t-295.5 -75.5v82q98 0 158.5 31t70.5 75z" />
    <glyph glyph-name="uni0237" unicode="&#x237;" horiz-adv-x="671" 
d="M694 1133l-237 -940q-85 -332 -238.5 -492t-390.5 -160q-129 0 -210 48t-81 132q0 75 49 119.5t123 50.5h78q-7 -129 4.5 -194.5t52.5 -65.5t70 74q18 47 68 254q8 33 14 59l217 881l-104 84l14 61l498 89h73z" />
    <glyph glyph-name="circumflex" unicode="&#x2c6;" 
d="M725 1569l168 -346h-127l-213 163l-283 -163h-139l315 346h279z" />
    <glyph glyph-name="caron" unicode="&#x2c7;" 
d="M299 1233l-168 346h127l213 -164l283 164h139l-315 -346h-279z" />
    <glyph glyph-name="breve" unicode="&#x2d8;" 
d="M442 1225q-147 0 -206 92t-21 256h102q-7 -78 38.5 -110.5t129.5 -32.5q183 0 238 143h102q-39 -165 -138 -256.5t-245 -91.5z" />
    <glyph glyph-name="dotaccent" unicode="&#x2d9;" 
d="M504 1217q-89 0 -143 52.5t-54 127.5q0 85 57.5 143.5t155.5 58.5q88 0 142.5 -52t54.5 -126q0 -86 -58 -145t-155 -59z" />
    <glyph glyph-name="ring" unicode="&#x2da;" 
d="M612 1411q0 42 -25.5 67t-70.5 25q-50 0 -77 -31t-27 -79q0 -42 25.5 -67.5t70.5 -25.5q50 0 77 31.5t27 79.5zM293 1389q0 95 64.5 161t162.5 66q93 0 152 -57t59 -144q0 -95 -64.5 -161t-162.5 -66q-93 0 -152 57t-59 144z" />
    <glyph glyph-name="ogonek" unicode="&#x2db;" 
d="M707 88l14 -37q-107 -60 -159 -126.5t-52 -127.5q0 -36 21 -60t59 -24q35 0 65 12t74 44l27 -48q-75 -83 -150 -123t-162 -40q-77 0 -126.5 40t-49.5 111q0 46 17 87.5t51.5 77t71.5 63.5t93.5 57.5t99 48.5t106.5 45z" />
    <glyph glyph-name="tilde" unicode="&#x2dc;" 
d="M618 1233q-45 0 -85 19t-65 42.5t-56 42.5t-60 19q-39 0 -72 -28.5t-73 -84.5l-78 45q71 145 133.5 215t143.5 70q45 0 85 -19t65 -42.5t56 -42.5t60 -19q39 0 71 28t72 85l78 -45q-69 -145 -131.5 -215t-143.5 -70z" />
    <glyph glyph-name="hungarumlaut" unicode="&#x2dd;" 
d="M238 1569h331l-4 -21l-370 -313h-125zM623 1569h331l-4 -21l-370 -313h-125z" />
    <glyph glyph-name="pi" unicode="&#x3c0;" horiz-adv-x="1413" 
d="M926 864h-273q-64 -304 -118.5 -479.5t-145.5 -384.5h-391l18 96q18 23 76.5 93.5t85.5 105.5t76.5 108.5t78.5 133t61 147t52 180.5h-268l55 262h1209l-90 -262h-164q-50 -196 -87.5 -380.5t-37.5 -254.5q0 -33 17.5 -53t49.5 -20q45 0 89 20l-2 -74
q-154 -122 -312 -122q-97 0 -152 49.5t-55 140.5q0 181 228 694z" />
    <glyph glyph-name="Wgrave" unicode="&#x1e80;" horiz-adv-x="2043" 
d="M1495 1149l64 -578l309 559q53 93 53 148q0 34 -22 49.5t-91 18.5l21 92h414l-21 -92q-53 -6 -83.5 -22.5t-51.5 -53.5l-725 -1276h-137l-109 807l-469 -807h-137l-223 1276q-11 59 -103 76l21 92h678l-21 -92q-62 -6 -87 -31t-25 -80q0 -39 8 -86l96 -584l240 412
l-39 293q-5 34 -24 51.5t-60 24.5l20 92h631l-20 -92q-65 -7 -89 -32.5t-24 -84.5q0 -33 6 -80zM915 1823h371l45 -305h-119l-297 284v21z" />
    <glyph glyph-name="wgrave" unicode="&#x1e81;" horiz-adv-x="1662" 
d="M752 915l-99 74l17 53l438 91h43l53 -752l84 92q135 150 135 301q0 86 -50.5 130t-137.5 44l4 33q39 66 105.5 109t152.5 43q99 0 148 -59t49 -152q0 -34 -9.5 -70t-21 -64.5t-39 -68.5t-44 -63t-56.5 -67.5t-57 -62.5t-64 -67l-447 -465h-106l-53 504l-435 -504h-106
l-98 921l-113 80l16 54l453 84h43l53 -727l174 204zM680 1569h371l45 -334h-119l-297 313v21z" />
    <glyph glyph-name="Wacute" unicode="&#x1e82;" horiz-adv-x="2043" 
d="M1495 1149l64 -578l309 559q53 93 53 148q0 34 -22 49.5t-91 18.5l21 92h414l-21 -92q-53 -6 -83.5 -22.5t-51.5 -53.5l-725 -1276h-137l-109 807l-469 -807h-137l-223 1276q-11 59 -103 76l21 92h678l-21 -92q-62 -6 -87 -31t-25 -80q0 -39 8 -86l96 -584l240 412
l-39 293q-5 34 -24 51.5t-60 24.5l20 92h631l-20 -92q-65 -7 -89 -32.5t-24 -84.5q0 -33 6 -80zM1386 1823h398v-19l-449 -286h-123z" />
    <glyph glyph-name="wacute" unicode="&#x1e83;" horiz-adv-x="1662" 
d="M752 915l-99 74l17 53l438 91h43l53 -752l84 92q135 150 135 301q0 86 -50.5 130t-137.5 44l4 33q39 66 105.5 109t152.5 43q99 0 148 -59t49 -152q0 -34 -9.5 -70t-21 -64.5t-39 -68.5t-44 -63t-56.5 -67.5t-57 -62.5t-64 -67l-447 -465h-106l-53 504l-435 -504h-106
l-98 921l-113 80l16 54l453 84h43l53 -727l174 204zM1110 1569h397v-19l-448 -315h-123z" />
    <glyph glyph-name="Wdieresis" unicode="&#x1e84;" horiz-adv-x="2043" 
d="M1495 1149l64 -578l309 559q53 93 53 148q0 34 -22 49.5t-91 18.5l21 92h414l-21 -92q-53 -6 -83.5 -22.5t-51.5 -53.5l-725 -1276h-137l-109 807l-469 -807h-137l-223 1276q-11 59 -103 76l21 92h678l-21 -92q-62 -6 -87 -31t-25 -80q0 -39 8 -86l96 -584l240 412
l-39 293q-5 34 -24 51.5t-60 24.5l20 92h631l-20 -92q-65 -7 -89 -32.5t-24 -84.5q0 -33 6 -80zM1092 1505q-80 0 -129.5 50t-49.5 120q0 78 52.5 134.5t138.5 56.5q80 0 128 -49t48 -119q0 -80 -51.5 -136.5t-136.5 -56.5zM1520 1505q-80 0 -128.5 49.5t-48.5 120.5
q0 79 51.5 135t137.5 56q80 0 128 -49t48 -119q0 -80 -51 -136.5t-137 -56.5z" />
    <glyph glyph-name="wdieresis" unicode="&#x1e85;" horiz-adv-x="1662" 
d="M752 915l-99 74l17 53l438 91h43l53 -752l84 92q135 150 135 301q0 86 -50.5 130t-137.5 44l4 33q39 66 105.5 109t152.5 43q99 0 148 -59t49 -152q0 -34 -9.5 -70t-21 -64.5t-39 -68.5t-44 -63t-56.5 -67.5t-57 -62.5t-64 -67l-447 -465h-106l-53 504l-435 -504h-106
l-98 921l-113 80l16 54l453 84h43l53 -727l174 204zM823 1227q-80 0 -129 50t-49 120q0 78 52.5 134t138.5 56q80 0 128 -49t48 -119q0 -80 -52 -136t-137 -56zM1251 1227q-80 0 -128 49.5t-48 120.5q0 79 51.5 134.5t137.5 55.5q80 0 128 -49t48 -119q0 -80 -51.5 -136
t-137.5 -56z" />
    <glyph glyph-name="Ygrave" unicode="&#x1ef2;" horiz-adv-x="1454" 
d="M975 528l-66 -309q-6 -27 -7.5 -44.5t4.5 -31.5t14.5 -21.5t29 -13.5t40.5 -9t57 -7l-21 -92h-762l21 92q106 11 137.5 31t48.5 96l64 299l-248 752q-13 40 -34 54t-69 22l21 92h723l-21 -92q-80 -5 -115.5 -28.5t-35.5 -72.5q0 -36 26 -112l154 -457l326 469
q24 35 36 53.5t23.5 43.5t11.5 42q0 59 -123 62l21 92h422l-21 -92q-47 -8 -78.5 -24.5t-56.5 -51.5zM719 1823h371l45 -305h-119l-297 284v21z" />
    <glyph glyph-name="ygrave" unicode="&#x1ef3;" horiz-adv-x="1126" 
d="M139 915l-112 80l16 54l440 84h43l179 -902q105 146 144.5 255t39.5 235q0 119 -61 173t-154 54l4 33q38 65 103 108.5t145 43.5q108 0 164.5 -65t56.5 -169q0 -65 -24.5 -141.5t-60.5 -147t-97.5 -162t-114 -161.5t-131.5 -170q-125 -160 -211.5 -258.5t-175.5 -175.5
t-168 -109.5t-166 -32.5q-98 0 -162.5 50.5t-64.5 140.5q0 70 48 121.5t126 74.5h41q0 -221 157 -221q110 0 236 123zM397 1569h371l45 -334h-119l-297 313v21z" />
    <glyph glyph-name="endash" unicode="&#x2013;" horiz-adv-x="1105" 
d="M1030 557h-983l33 135h983z" />
    <glyph glyph-name="emdash" unicode="&#x2014;" horiz-adv-x="1966" 
d="M1923 692l-33 -135h-1843l33 135h1843z" />
    <glyph glyph-name="quoteleft" unicode="&#x2018;" horiz-adv-x="612" 
d="M408 1290h81q162 -40 162 -192q0 -90 -60.5 -144.5t-152.5 -54.5q-105 0 -164 71t-59 183q0 178 140.5 290.5t361.5 108.5v-92q-128 -8 -213.5 -49.5t-95.5 -120.5z" />
    <glyph glyph-name="quoteright" unicode="&#x2019;" horiz-adv-x="612" 
d="M506 1159h-82q-162 40 -162 193q0 90 60.5 144t152.5 54q105 0 164 -71t59 -183q0 -178 -140 -290.5t-361 -108.5v92q128 8 213.5 49.5t95.5 120.5z" />
    <glyph glyph-name="quotesinglbase" unicode="&#x201a;" horiz-adv-x="612" 
d="M256 -2h-82q-162 40 -162 192q0 90 60.5 144.5t152.5 54.5q105 0 164.5 -71t59.5 -183q0 -178 -140.5 -290.5t-361.5 -108.5v92q128 8 213.5 49.5t95.5 120.5z" />
    <glyph glyph-name="quotedblleft" unicode="&#x201c;" horiz-adv-x="1105" 
d="M408 1290h81q162 -40 162 -192q0 -90 -60.5 -144.5t-152.5 -54.5q-105 0 -164 71t-59 183q0 178 140.5 290.5t361.5 108.5v-92q-128 -8 -213.5 -49.5t-95.5 -120.5zM901 1290h82q162 -40 162 -192q0 -90 -60.5 -144.5t-152.5 -54.5q-105 0 -164 71t-59 183
q0 178 140 290.5t361 108.5v-92q-128 -8 -213.5 -49.5t-95.5 -120.5z" />
    <glyph glyph-name="quotedblright" unicode="&#x201d;" horiz-adv-x="1105" 
d="M999 1157h-81q-162 40 -162 193q0 90 60.5 144t152.5 54q105 0 164 -71t59 -183q0 -178 -140.5 -290.5t-361.5 -108.5v92q128 8 213.5 49.5t95.5 120.5zM506 1157h-82q-162 40 -162 193q0 90 60.5 144t152.5 54q105 0 164 -71t59 -183q0 -178 -140 -290.5t-361 -108.5v92
q128 8 213.5 49.5t95.5 120.5z" />
    <glyph glyph-name="quotedblbase" unicode="&#x201e;" horiz-adv-x="1105" 
d="M750 -2h-82q-162 40 -162 192q0 90 60.5 144.5t152.5 54.5q105 0 164 -71t59 -183q0 -178 -140.5 -290.5t-361.5 -108.5v92q128 8 214 49.5t96 120.5zM256 -2h-82q-162 40 -162 192q0 90 60.5 144.5t152.5 54.5q105 0 164.5 -71t59.5 -183q0 -178 -140.5 -290.5
t-361.5 -108.5v92q128 8 213.5 49.5t95.5 120.5z" />
    <glyph glyph-name="dagger" unicode="&#x2020;" horiz-adv-x="786" 
d="M549 1178q-14 -63 12.5 -116.5t67.5 -80.5l-4 -18q-58 -65 -141 -262.5t-136 -417.5h-29q27 148 36.5 293.5t2 245.5t-27.5 141l4 18q54 27 103 80t63 117q-33 0 -66.5 -14.5t-56 -32t-52.5 -32t-59 -14.5q-39 0 -66.5 28t-27.5 75q0 58 37 92.5t84 34.5q29 0 56 -14.5
t46 -31.5t49.5 -31.5t63.5 -14.5q9 57 -16 124.5t-25 94.5q0 52 34.5 81t86.5 29q51 0 79.5 -29t28.5 -67q0 -30 -18.5 -60.5t-42 -52t-47 -54.5t-31.5 -66q42 0 82.5 23t78.5 46t73 23q39 0 66.5 -28t27.5 -75q0 -58 -37 -92.5t-84 -34.5q-29 0 -56 14.5t-46 32t-49.5 32
t-63.5 14.5z" />
    <glyph glyph-name="daggerdbl" unicode="&#x2021;" horiz-adv-x="786" 
d="M432 618q33 0 66.5 14.5t56 32t52.5 32t59 14.5q39 0 66.5 -28t27.5 -75q0 -58 -37 -92.5t-84 -34.5q-29 0 -56 14.5t-46 31.5t-49.5 31.5t-63.5 14.5q-3 -39 21 -88.5t24 -83.5q0 -52 -34.5 -81t-86.5 -29q-47 0 -74.5 29t-27.5 67q0 29 18 55t40 43t43.5 40.5
t27.5 47.5q-42 0 -82.5 -23t-78.5 -46t-73 -23q-39 0 -66.5 28t-27.5 75q0 58 37 92.5t84 34.5q29 0 56 -14.5t46 -32t49.5 -32t63.5 -14.5q21 109 -86 177l4 18q61 4 100 34t48 75q9 46 -17 75t-86 33l4 19q139 68 162 176q-33 0 -66 -14.5t-55.5 -31.5t-52.5 -31.5
t-59 -14.5q-39 0 -67 27.5t-28 74.5q0 58 37 92.5t84 34.5q29 0 56 -14.5t46 -31.5t49.5 -31.5t63.5 -14.5q3 39 -21 88.5t-24 83.5q0 52 34.5 81t86.5 29q45 0 73.5 -29.5t28.5 -66.5q0 -29 -18 -55t-40 -43t-43.5 -40.5t-27.5 -47.5q42 0 82.5 23t78.5 46t73 23
q39 0 66.5 -27.5t27.5 -74.5q0 -58 -37 -92.5t-84 -34.5q-29 0 -56 14.5t-46 31.5t-49.5 31.5t-63.5 14.5q-23 -105 84 -176l-4 -19q-60 -4 -99 -33.5t-48 -74.5t17 -75t85 -34l-4 -18q-139 -71 -160 -177z" />
    <glyph glyph-name="bullet" unicode="&#x2022;" horiz-adv-x="782" 
d="M61 633q0 139 97.5 238.5t232.5 99.5q136 0 233 -99t97 -239q0 -137 -97 -236.5t-233 -99.5q-135 0 -232.5 99.5t-97.5 236.5z" />
    <glyph glyph-name="ellipsis" unicode="&#x2026;" horiz-adv-x="1650" 
d="M-4 207q0 100 65.5 164.5t161.5 64.5q97 0 162.5 -64.5t65.5 -164.5t-65.5 -163.5t-162.5 -63.5t-162 63.5t-65 163.5zM532 207q0 100 65.5 164.5t162.5 64.5q96 0 161.5 -64.5t65.5 -164.5t-65 -163.5t-162 -63.5t-162.5 63.5t-65.5 163.5zM1069 207q0 100 65.5 164.5
t161.5 64.5q97 0 162.5 -64.5t65.5 -164.5t-65.5 -163.5t-162.5 -63.5t-162 63.5t-65 163.5z" />
    <glyph glyph-name="perthousand" unicode="&#x2030;" horiz-adv-x="2396" 
d="M567 1458q130 0 217.5 -76.5t87.5 -218.5q0 -101 -37.5 -183.5t-99 -134t-135.5 -79t-151 -27.5q-130 0 -218 76.5t-88 218.5q0 81 25 151t66.5 119t96.5 84.5t115 52.5t121 17zM561 1382q-47 0 -87 -61t-62.5 -159.5t-22.5 -207.5q0 -69 15 -104t51 -35q47 0 87 61
t62.5 159.5t22.5 207.5q0 69 -15 104t-51 35zM1110 -20q-130 0 -217.5 76t-87.5 218q0 81 25 151t66.5 119t96.5 84.5t115 52.5t121 17q130 0 217.5 -76.5t87.5 -218.5q0 -81 -25 -151t-66.5 -119t-96.5 -84t-115 -52t-121 -17zM1520 1458l-1241 -1478h-123l1243 1478h121z
M1116 55q47 0 87 61t62.5 159.5t22.5 207.5q0 69 -14.5 104.5t-50.5 35.5q-47 0 -87 -61t-62.5 -159.5t-22.5 -207.5q0 -69 14.5 -104.5t50.5 -35.5zM1890 -20q-130 0 -217.5 76t-87.5 218q0 81 25 151t66.5 119t96.5 84.5t115 52.5t121 17q130 0 217.5 -76.5t87.5 -218.5
q0 -81 -25 -151t-66.5 -119t-96.5 -84t-115 -52t-121 -17zM1896 55q47 0 87 61t62.5 159.5t22.5 207.5q0 69 -14.5 104.5t-50.5 35.5q-47 0 -87 -61t-62.5 -159.5t-22.5 -207.5q0 -69 14.5 -104.5t50.5 -35.5z" />
    <glyph glyph-name="guilsinglleft" unicode="&#x2039;" horiz-adv-x="567" 
d="M49 559l2 12l471 414h103l-258 -420l79 -420h-102z" />
    <glyph glyph-name="guilsinglright" unicode="&#x203a;" horiz-adv-x="567" 
d="M535 571l-3 -12l-471 -414h-102l258 420l-80 420h103z" />
    <glyph glyph-name="fraction" unicode="&#x2044;" horiz-adv-x="579" 
d="M-340 -20l1241 1478h123l-1243 -1478h-121z" />
    <glyph glyph-name="Euro" unicode="&#x20ac;" horiz-adv-x="1406" 
d="M1079 1458q116 0 220.5 -35.5t168.5 -91.5l-63 -342h-102q-8 190 -54.5 278.5t-154.5 88.5q-60 0 -117 -36.5t-104 -100.5t-84.5 -143.5t-67.5 -172.5h340l-37 -98h-330q-17 -72 -30 -152h292l-36 -100h-267q-2 -27 -2 -74q0 -387 201 -387q48 0 92 20t79 50t75.5 85.5
t71 106t75.5 131.5h117l-121 -387q-173 -118 -420 -118q-288 0 -448 148t-160 407v18h-154l29 100h131q9 74 31 152h-137l28 98h144q101 249 316.5 402t477.5 153z" />
    <glyph glyph-name="uni2117" unicode="&#x2117;" horiz-adv-x="1630" 
d="M907 623h-98l-37 -168q-10 -41 13.5 -53.5t86.5 -14.5l-16 -72h-442l16 72q56 1 73.5 15.5t28.5 62.5l119 528q8 40 -5.5 50.5t-63.5 13.5l16 71h414q145 0 216.5 -60.5t71.5 -162.5q0 -120 -110 -201t-283 -81zM905 1051l-80 -361h31q92 0 150.5 56t58.5 157
q0 68 -32 108t-97 40h-31zM817 -20q-148 0 -277 53t-218.5 144t-141 218t-51.5 271q0 163 60.5 309.5t164 252.5t248.5 168t307 62q148 0 277 -53t218.5 -144t141 -218t51.5 -271q0 -163 -60.5 -309.5t-164 -252.5t-248.5 -168t-307 -62zM817 59q193 0 352.5 95t250.5 258.5
t91 359.5q0 170 -75.5 308t-213.5 218t-313 80q-193 0 -352.5 -94.5t-250.5 -258t-91 -359.5q0 -170 75.5 -308.5t213.5 -218.5t313 -80z" />
    <glyph glyph-name="trademark" unicode="&#x2122;" horiz-adv-x="1959" 
d="M330 1438h669l-38 -240h-72q-12 91 -36 133.5t-79 42.5h-16l-107 -487q-8 -38 6.5 -52.5t65.5 -17.5l-12 -59h-383l12 59q49 3 69 16.5t29 53.5l105 487h-13q-60 0 -104 -43t-90 -133h-72zM1438 1036l166 322q20 42 28 80h344l-32 -66q-48 0 -69 -15.5t-30 -56.5
l-28 -419q-3 -36 11.5 -48.5t57.5 -15.5l-12 -59h-387l12 59q28 1 47 4t32 12.5t20 17t11 27.5t5.5 33.5t3.5 44.5l16 295l-260 -493h-98l-62 493l-106 -295q-3 -8 -9.5 -25.5t-9 -24.5t-6.5 -21t-3 -19.5t2 -15.5t7.5 -14t16 -9.5t24.5 -7.5t35 -2l-12 -59h-279l13 59
q46 3 66.5 15t33.5 49l152 419q0 39 -11 55.5t-53 16.5l12 66h308q-4 -44 0 -78z" />
    <glyph glyph-name="Omega" unicode="&#x2126;" horiz-adv-x="1548" 
d="M948 1368q-86 0 -160.5 -71.5t-122.5 -185t-75 -248.5t-27 -267q0 -253 68 -412l-39 -184h-561l35 406h71q16 -47 25 -70.5t24 -48t28.5 -33.5t40 -17.5t56 -10t78.5 -1.5h148q-65 21 -129 68t-117 113t-86 155t-33 184q0 146 65.5 279t172.5 227.5t248.5 150.5t289.5 56
q128 0 231.5 -39.5t170 -109t102 -161.5t35.5 -200q0 -103 -33.5 -200.5t-92 -177t-138 -147t-171.5 -117t-192 -81.5h148q49 0 79 1.5t60.5 10t47 17.5t42.5 34t44.5 48t55.5 70h72l-137 -406h-561l39 184q156 184 249 419t93 487q0 51 -6.5 96t-22 88t-45 68.5t-70.5 25.5
z" />
    <glyph glyph-name="uni2153" unicode="&#x2153;" horiz-adv-x="1642" 
d="M193 -20l1241 1478h122l-1243 -1478h-120zM614 1458h72l-137 -651q-14 -66 2 -84.5t102 -22.5l-16 -73h-535l17 73q82 6 107 21.5t38 73.5l90 419h-129l15 70l59 12q118 24 178.5 55.5t136.5 106.5zM1309 455q95 -11 156 -62.5t61 -134.5q0 -85 -57 -149t-142 -94.5
t-180 -30.5q-126 0 -207.5 48.5t-81.5 119.5q0 83 82 110h156q-23 -42 -23 -96q0 -50 21 -84.5t61 -34.5q52 0 83.5 52t31.5 130q0 66 -28 102t-79 36q-8 0 -43 -5l-8 48q107 41 152 79.5t45 94.5q0 36 -23.5 58t-62.5 22q-97 0 -174 -91l-52 35q55 96 147 154.5t204 58.5
q97 0 155 -41.5t58 -122.5q0 -83 -72 -135t-180 -67z" />
    <glyph glyph-name="uni2154" unicode="&#x2154;" horiz-adv-x="1761" 
d="M311 -20l1241 1478h123l-1243 -1478h-121zM1427 455q95 -11 156.5 -62.5t61.5 -134.5q0 -85 -57 -149t-142 -94.5t-180 -30.5q-126 0 -207.5 48.5t-81.5 119.5q0 83 82 110h155q-22 -40 -22 -96q0 -50 21 -84.5t61 -34.5q52 0 83.5 52t31.5 130q0 66 -28 102t-79 36
q-8 0 -43 -5l-8 48q106 41 151 79.5t45 94.5q0 36 -23.5 58t-62.5 22q-97 0 -174 -91l-51 35q55 96 146.5 154.5t203.5 58.5q97 0 155 -41.5t58 -122.5q0 -83 -72 -135t-180 -67zM373 823h241q53 0 84.5 15.5t73.5 64.5h51l-82 -285h-655l10 58q147 108 242 189.5t142.5 139
t64 96t16.5 77.5q0 104 -104 104q-53 0 -103.5 -27.5t-87.5 -72.5l-45 43q56 101 149.5 163t223.5 62q106 0 173 -52t67 -151q0 -39 -14.5 -77t-36 -69t-59.5 -64t-72 -57.5t-87.5 -55.5t-92.5 -51t-99 -50z" />
    <glyph glyph-name="uni215B" unicode="&#x215b;" horiz-adv-x="1761" 
d="M1679 635q0 -71 -62.5 -112.5t-164.5 -41.5q180 -75 180 -229q0 -70 -29.5 -123.5t-79.5 -85t-111 -47.5t-130 -16q-143 0 -244.5 56t-101.5 148q0 149 233 160q-133 79 -133 215q0 126 95.5 199t238.5 73t226 -53.5t83 -142.5zM1352 244l-162 84q-66 -44 -66 -125
q0 -70 44 -111t114 -41q58 0 97.5 27t39.5 78q0 32 -15.5 50.5t-51.5 37.5zM1321 551l96 -49q80 55 80 141q0 51 -33.5 84t-93.5 33q-56 0 -89.5 -30.5t-33.5 -78.5q0 -37 18 -59t56 -41zM193 -20l1241 1478h122l-1243 -1478h-120zM614 1458h72l-137 -651q-14 -66 2 -84.5
t102 -22.5l-16 -73h-535l17 73q82 6 107 21.5t38 73.5l90 419h-129l15 70l59 12q118 24 178.5 55.5t136.5 106.5z" />
    <glyph glyph-name="uni215C" unicode="&#x215c;" horiz-adv-x="1755" 
d="M553 1092q95 -11 156 -62.5t61 -134.5q0 -85 -57 -149t-142 -94.5t-180 -30.5q-126 0 -207.5 48t-81.5 119q0 84 82 111h156q-23 -42 -23 -96q0 -50 21 -84.5t61 -34.5q52 0 83.5 52t31.5 130q0 66 -27.5 102t-78.5 36q-8 0 -43 -5l-9 48q107 41 152 79.5t45 94.5
q0 36 -23.5 57.5t-62.5 21.5q-98 0 -174 -90l-51 35q55 96 146.5 154.5t203.5 58.5q97 0 155 -41.5t58 -122.5q0 -83 -72 -135t-180 -67zM1673 635q0 -71 -62.5 -112.5t-164.5 -41.5q180 -75 180 -229q0 -70 -29.5 -123.5t-79.5 -85t-111 -47.5t-130 -16q-143 0 -244.5 56
t-101.5 148q0 149 233 160q-133 79 -133 215q0 126 95.5 199t238.5 73t226 -53.5t83 -142.5zM1346 244l-162 84q-66 -44 -66 -125q0 -70 44 -111t114 -41q58 0 97.5 27t39.5 78q0 32 -15.5 50.5t-51.5 37.5zM1315 551l96 -49q80 55 80 141q0 51 -33.5 84t-93.5 33
q-56 0 -89.5 -30.5t-33.5 -78.5q0 -37 18 -59t56 -41zM207 -20l1241 1478h123l-1243 -1478h-121z" />
    <glyph glyph-name="uni215D" unicode="&#x215d;" horiz-adv-x="1746" 
d="M395 1438h297q36 0 50 8.5t36 42.5h60l-86 -268h-363l-27 -72q396 18 396 -248q0 -126 -97.5 -204.5t-248.5 -78.5q-135 0 -207 41.5t-72 108.5q0 41 23.5 70t56.5 41h135q-18 -40 -18 -84q0 -52 25 -81.5t75 -29.5t82.5 36t32.5 89q0 87 -79.5 122.5t-250.5 35.5z
M1665 635q0 -71 -62.5 -112.5t-164.5 -41.5q180 -75 180 -229q0 -70 -29.5 -123.5t-79.5 -85t-111 -47.5t-130 -16q-143 0 -244.5 56t-101.5 148q0 149 233 160q-133 79 -133 215q0 126 95.5 199t238.5 73t226 -53.5t83 -142.5zM1337 244l-161 84q-66 -44 -66 -125
q0 -70 44 -111t114 -41q58 0 97.5 27t39.5 78q0 31 -16 50t-52 38zM1307 551l96 -49q80 55 80 141q0 51 -33.5 84t-93.5 33q-56 0 -89.5 -30.5t-33.5 -78.5q0 -37 18 -59t56 -41zM199 -20l1241 1478h123l-1244 -1478h-120z" />
    <glyph glyph-name="uni215E" unicode="&#x215e;" horiz-adv-x="1630" 
d="M709 1198h-275q-45 0 -82 -29t-73 -96h-80l145 365h617l-17 -70l-565 -741h-172zM1548 635q0 -71 -62.5 -112.5t-164.5 -41.5q180 -75 180 -229q0 -70 -29.5 -123.5t-79.5 -85t-111 -47.5t-130 -16q-143 0 -244.5 56t-101.5 148q0 149 233 160q-133 79 -133 215
q0 126 95.5 199t238.5 73t226 -53.5t83 -142.5zM1221 244l-162 84q-66 -44 -66 -125q0 -70 44 -111t114 -41q58 0 97.5 27t39.5 78q0 32 -15.5 50.5t-51.5 37.5zM1190 551l96 -49q80 55 80 141q0 51 -33.5 84t-93.5 33q-56 0 -89.5 -30.5t-33.5 -78.5q0 -37 18 -59t56 -41z
M82 -20l1241 1478h123l-1243 -1478h-121z" />
    <glyph glyph-name="partialdiff" unicode="&#x2202;" horiz-adv-x="1259" 
d="M748 1133q22 0 43 -3q-29 144 -114.5 245t-254.5 175l47 64q162 -33 292.5 -102t215 -157t141.5 -195.5t81 -214t24 -216.5q0 -340 -186 -544.5t-492 -204.5q-132 0 -240 58t-171.5 166.5t-63.5 246.5q0 142 52 268t141.5 217t215.5 144t269 53zM811 895q0 77 -6 147
q-4 0 -12 1t-11 1q-63 0 -122.5 -88.5t-99 -217t-63.5 -267.5t-24 -246q0 -78 13 -116.5t49 -38.5q67 0 132 133.5t104.5 326t39.5 365.5z" />
    <glyph glyph-name="Delta" unicode="&#x2206;" horiz-adv-x="1345" 
d="M1251 0h-1314l16 84l893 1354h92l330 -1354zM629 905l-520 -786h708z" />
    <glyph glyph-name="product" unicode="&#x220f;" horiz-adv-x="1703" 
d="M1227 1331h-410l-321 -1505q-16 -81 1 -104t111 -33l-18 -92h-729l18 92q99 10 126 33.5t42 103.5l295 1382q20 78 1.5 103t-114.5 35l21 92h1589l-20 -92q-53 -5 -80.5 -12t-46 -24t-26 -37.5t-17.5 -64.5l-295 -1382q-16 -81 1 -104t111 -33l-18 -92h-731l18 92
q71 7 102 20t44 36.5t24 80.5z" />
    <glyph glyph-name="summation" unicode="&#x2211;" horiz-adv-x="1284" 
d="M170 -68h448q75 0 114.5 4t91.5 22t98.5 58t103.5 109h94l-207 -528h-1120l23 106l698 752l-332 860l27 123h1137l-84 -394h-93q-11 40 -16 57.5t-15 49t-16 45.5t-17 37t-20.5 32.5l-24.5 24.5t-30.5 20.5t-36 13t-45 9.5t-53.5 2h-262l244 -635l-7 -28z" />
    <glyph glyph-name="minus" unicode="&#x2212;" horiz-adv-x="1179" 
d="M160 682l33 147h909l-33 -147h-909z" />
    <glyph glyph-name="radical" unicode="&#x221a;" horiz-adv-x="1243" 
d="M756 547l549 911h122l-882 -1458h-158l-104 909q-7 61 -28 86t-71 31l-49 6l19 94h553z" />
    <glyph glyph-name="infinity" unicode="&#x221e;" horiz-adv-x="1556" 
d="M743 709l-63 90q-43 63 -88.5 94t-104.5 31q-97 0 -162 -69.5t-65 -186.5q0 -77 47 -123.5t117 -46.5q57 0 105.5 26.5t103.5 79.5zM889 713l63 -90q43 -62 89 -92.5t106 -30.5q97 0 162 69.5t65 186.5q0 77 -47 123.5t-117 46.5q-57 0 -105 -27t-104 -80zM803 596
l-74 -74q-75 -78 -147 -117.5t-162 -39.5q-129 0 -212 80t-83 221q0 115 52.5 206t138.5 139t188 48q86 0 148 -41.5t122 -120.5l55 -72l76 76q75 79 147 118.5t162 39.5q129 0 212 -80t83 -221q0 -115 -52.5 -206t-138.5 -139t-188 -48q-87 0 -148 39.5t-124 119.5z" />
    <glyph glyph-name="integral" unicode="&#x222b;" horiz-adv-x="935" 
d="M696 1016l-174 -840q-29 -140 -74.5 -243t-116.5 -179.5t-172 -115.5t-233 -39q-118 0 -191 44t-73 138q0 51 28.5 88.5t82.5 54.5h127q-20 -144 -14 -187q8 -54 46 -54q53 0 84 74q25 57 70 273v1v1v1v1l1 1v1v1v1l1 1v1v1l172 836q30 140 75.5 243.5t116 181t171.5 117
t233 39.5q118 0 191 -44t73 -138q0 -51 -28 -88.5t-82 -54.5h-127q19 142 15 183q-7 58 -46 58q-53 0 -84 -74q-25 -57 -70 -273v-1v-1v-1v-1l-1 -1v-1v-1v-1l-1 -1v-1v-1z" />
    <glyph glyph-name="approxequal" unicode="&#x2248;" horiz-adv-x="1200" 
d="M193 784l30 150q148 84 264 84q79 0 200.5 -41t199.5 -41q123 0 266 84l-31 -150q-146 -84 -268 -84q-78 0 -198 41t-199 41q-119 0 -264 -84zM133 504l31 147q140 84 264 84q79 0 200 -40t199 -40q127 0 267 82l-31 -149q-142 -82 -268 -82q-78 0 -199.5 39t-200.5 39
q-119 0 -262 -80z" />
    <glyph glyph-name="notequal" unicode="&#x2260;" horiz-adv-x="1200" 
d="M203 836l30 141h523l192 213h174l-192 -213h215l-31 -141h-311l-148 -162h424l-28 -139h-521l-192 -213h-174l192 213h-217l29 139h313l148 162h-426z" />
    <glyph glyph-name="lessequal" unicode="&#x2264;" horiz-adv-x="917" 
d="M166 821l4 19l725 352l-35 -174l-414 -193l332 -194l-37 -162zM47 262l31 146h651l-31 -146h-651z" />
    <glyph glyph-name="greaterequal" unicode="&#x2265;" horiz-adv-x="917" 
d="M866 840l-4 -19l-725 -352l35 174l414 193l-332 194l37 162zM774 408l-31 -146h-651l31 146h651z" />
    <glyph glyph-name="lozenge" unicode="&#x25ca;" horiz-adv-x="1169" 
d="M489 111l490 618l-219 598l-490 -618zM569 0h-194l-269 719l574 719h194l269 -719z" />
    <glyph glyph-name="i.dot" horiz-adv-x="737" 
d="M74 344l139 555l-104 84l14 61l498 89h73l-209 -826q-16 -59 -16 -82q0 -30 29 -30q26 0 64 34.5t97 108.5l54 -47q-119 -163 -216.5 -237t-222.5 -74q-106 0 -163.5 56.5t-57.5 143.5q0 62 21 164zM535 1217q-89 0 -143 52.5t-54 127.5q0 85 57.5 143.5t155.5 58.5
q88 0 142.5 -52t54.5 -126q0 -86 -58 -145t-155 -59z" />
    <glyph glyph-name="space_uni0326" 
d="M547 -324h-125q-84 22 -84 103q0 67 50 111t138 44q86 0 133.5 -47t47.5 -123q0 -125 -94 -200.5t-296 -75.5v82q98 0 159 31t71 75z" />
    <glyph glyph-name="space_uni0326.alt" 
d="M477 1464h125q84 -22 84 -102q0 -67 -50 -111.5t-138 -44.5q-86 0 -133.5 47t-47.5 123q0 125 94 201t296 76v-82q-98 0 -159 -31.5t-71 -75.5z" />
    <glyph glyph-name="space_dotbelowcomb" 
d="M504 -426q-89 0 -143 52.5t-54 127.5q0 85 57.5 144t155.5 59q88 0 142.5 -52t54.5 -126q0 -86 -58 -145.5t-155 -59.5z" />
    <glyph glyph-name="caron.Slovak" 
d="M721 1579l-328 -395h-96l113 420h317z" />
    <glyph glyph-name="cedilla.alt" 
d="M457 -78h80q102 -12 146 -53.5t44 -112.5q0 -113 -117.5 -173t-296.5 -60l-18 76q106 0 170.5 29.5t64.5 70.5q0 25 -19.5 38.5t-48.5 18t-83 6.5z" />
    <glyph glyph-name="grave.cap" 
d="M303 1823h371l45 -305h-119l-297 284v21z" />
    <glyph glyph-name="acute.cap" 
d="M399 1823h398v-19l-449 -286h-123z" />
    <glyph glyph-name="circumflex.cap" 
d="M725 1829l168 -311h-127l-213 133l-283 -133h-139l315 311h279z" />
    <glyph glyph-name="tilde.cap" 
d="M618 1518q-45 0 -85 19t-65 42t-56 42t-60 19q-39 0 -72.5 -28.5t-72.5 -83.5l-78 45q71 145 133.5 215t143.5 70q45 0 85 -19t65 -42.5t56 -42.5t60 -19q39 0 71 28t72 84l78 -45q-69 -144 -131.5 -214t-143.5 -70z" />
    <glyph glyph-name="macron.cap" 
d="M188 1528l43 194h603l-43 -194h-603z" />
    <glyph glyph-name="breve.cap" 
d="M444 1511q-139 0 -203.5 81.5t-27.5 238.5h98q-3 -70 42 -97.5t130 -27.5t144.5 27.5t89.5 97.5h106q-37 -159 -136 -239.5t-243 -80.5z" />
    <glyph glyph-name="dotaccent.cap" 
d="M504 1509q-89 0 -143 53t-54 128q0 85 57.5 143.5t155.5 58.5q88 0 142.5 -52t54.5 -126q0 -86 -58 -145.5t-155 -59.5z" />
    <glyph glyph-name="dieresis.cap" 
d="M293 1505q-80 0 -129 50t-49 120q0 79 52 135t138 56q80 0 128 -49t48 -119q0 -80 -51.5 -136.5t-136.5 -56.5zM721 1505q-80 0 -128 49.5t-48 120.5q0 79 51 135t137 56q80 0 128 -49t48 -119q0 -80 -51 -136.5t-137 -56.5z" />
    <glyph glyph-name="ring.cap" 
d="M612 1708q0 42 -25.5 67t-70.5 25q-50 0 -77 -31t-27 -79q0 -42 25.5 -67.5t70.5 -25.5q50 0 77 31.5t27 79.5zM293 1686q0 95 64.5 161t162.5 66q93 0 152 -57t59 -144q0 -95 -64.5 -161t-162.5 -66q-93 0 -152 57t-59 144z" />
    <glyph glyph-name="hungarumlaut.cap" 
d="M225 1823h332l-4 -21l-346 -284h-125zM610 1823h332l-4 -21l-346 -284h-125z" />
    <glyph glyph-name="caron.cap" 
d="M299 1520l-168 311h127l213 -133l283 133h139l-315 -311h-279z" />
    <glyph glyph-name="exclamdown.cap" horiz-adv-x="624" 
d="M-63 0l444 944h137l-37 -944h-544zM713 1247q0 -90 -61 -153.5t-146 -63.5q-88 0 -148.5 63t-60.5 154q0 87 61 149t148 62q85 0 146 -62.5t61 -148.5z" />
    <glyph glyph-name="questiondown.cap" horiz-adv-x="976" 
d="M510 453q-53 -30 -86.5 -53t-69 -56t-52.5 -71.5t-17 -84.5q0 -57 28 -88.5t82 -31.5q73 0 111.5 59.5t38.5 151.5q0 41 -10 96h274q55 -49 55 -121q0 -87 -61 -150.5t-159.5 -93.5t-221.5 -30q-219 0 -336 95t-117 255q0 138 80 229t230 160q52 24 80.5 38.5t65 36.5
t55 39.5t31.5 41t13 49.5q0 12 -4 32h62q155 -59 155 -213q0 -87 -50.5 -153t-176.5 -137zM844 1247q0 -90 -61 -153.5t-146 -63.5q-88 0 -148.5 63t-60.5 154q0 87 61 149t148 62q85 0 146 -62.5t61 -148.5z" />
    <glyph glyph-name="guilsinglleft.cap" horiz-adv-x="567" 
d="M88 713l2 12l471 414h103l-258 -420l79 -420h-102z" />
    <glyph glyph-name="guilsinglright.cap" horiz-adv-x="567" 
d="M573 725l-2 -12l-471 -414h-102l258 420l-80 420h103z" />
    <glyph glyph-name="guillemotleft.cap" horiz-adv-x="964" 
d="M88 713l2 12l471 414h103l-258 -420l79 -420h-102zM485 713l2 12l471 414h103l-258 -420l80 -420h-103z" />
    <glyph glyph-name="guillemotright.cap" horiz-adv-x="964" 
d="M971 725l-2 -12l-471 -414h-103l258 420l-80 420h103zM573 725l-2 -12l-471 -414h-102l258 420l-80 420h103z" />
    <glyph glyph-name="slash.cap" horiz-adv-x="731" 
d="M952 1577l-911 -1784h-178l909 1784h180z" />
    <glyph glyph-name="backslash.cap" horiz-adv-x="731" 
d="M410 -207l-154 1784h170l154 -1784h-170z" />
    <glyph glyph-name="bar.cap" horiz-adv-x="413" 
d="M528 1577l-378 -1784h-168l378 1784h168z" />
    <glyph glyph-name="brokenbar.cap" horiz-adv-x="413" 
d="M526 1577l-161 -760h-168l161 760h168zM309 553l-162 -760h-167l161 760h168z" />
    <glyph glyph-name="periodcentered.cap" horiz-adv-x="563" 
d="M102 707q0 95 64 158t156 63q93 0 157 -62.5t64 -158.5t-64 -158t-157 -62q-92 0 -156 62.5t-64 157.5z" />
    <glyph glyph-name="bullet.cap" horiz-adv-x="782" 
d="M102 715q0 139 97.5 238.5t232.5 99.5q136 0 233 -99t97 -239q0 -137 -97 -236.5t-233 -99.5q-135 0 -232.5 99.5t-97.5 236.5z" />
    <glyph glyph-name="hyphen.cap" horiz-adv-x="655" 
d="M614 629h-532l41 176h532z" />
    <glyph glyph-name="endash.cap" horiz-adv-x="1105" 
d="M1065 639h-983l33 135h983z" />
    <glyph glyph-name="emdash.cap" horiz-adv-x="1966" 
d="M1958 774l-33 -135h-1843l33 135h1843z" />
    <glyph glyph-name="parenleft.cap" horiz-adv-x="774" 
d="M131 475q0 162 55.5 323.5t153.5 302t225.5 261t278.5 215.5h121q-143 -134 -251.5 -294.5t-171 -322t-93.5 -315.5t-31 -299q0 -321 149 -557h-123q-151 128 -232 307t-81 379z" />
    <glyph glyph-name="parenright.cap" horiz-adv-x="774" 
d="M686 891q0 -162 -55.5 -323.5t-153.5 -302t-225.5 -261t-278.5 -215.5h-120q143 134 251 294.5t171 322t93.5 315.5t30.5 299q0 321 -149 557h123q151 -128 232 -307t81 -379z" />
    <glyph glyph-name="bracketleft.cap" horiz-adv-x="700" 
d="M625 1368l-291 -1366q-5 -23 -5 -39.5t3 -29t15 -21t23.5 -14t37.5 -9.5t48 -5.5t62 -4.5l-16 -86h-465l379 1784h465l-19 -86q-133 -8 -176 -27.5t-61 -95.5z" />
    <glyph glyph-name="bracketright.cap" horiz-adv-x="700" 
d="M158 2l291 1366q5 23 5 39.5t-3 29t-15 21t-23.5 14t-37.5 9.5t-48.5 6t-62.5 4l19 86h465l-379 -1784h-465l16 86q59 3 88.5 6.5t60.5 10.5t45 20t25.5 33.5t18.5 52.5z" />
    <glyph glyph-name="braceleft.cap" horiz-adv-x="763" 
d="M147 664l9 41q178 35 215 204l86 406q28 128 145 195t350 67l-12 -64q-179 -22 -217 -200l-82 -379q-25 -113 -100.5 -169.5t-200.5 -80.5q115 -24 167.5 -81t27.5 -169l-80 -375q-38 -178 131 -200l-13 -64q-234 0 -323.5 67.5t-61.5 194.5l86 402q35 171 -127 205z" />
    <glyph glyph-name="braceright.cap" horiz-adv-x="784" 
d="M717 709l-8 -41q-177 -35 -215 -205l-86 -406q-28 -128 -145 -195t-351 -67l12 64q179 22 217 200l82 379q25 113 100.5 169.5t200.5 80.5q-115 24 -167 81t-27 169l80 375q38 178 -131 200l12 64q234 0 323.5 -67.5t61.5 -194.5l-86 -402q-35 -170 127 -204z" />
    <glyph glyph-name="at.cap" horiz-adv-x="1830" 
d="M1280 285q-64 0 -111.5 17t-75 47t-43 71t-15 87.5t8.5 96.5q-76 -156 -156.5 -237.5t-187.5 -81.5q-93 0 -154 70t-61 190q0 103 42 208.5t112.5 190t173 138t213.5 53.5q67 0 114.5 -25.5t73.5 -60.5l160 65h94l-71 -192l-125 -392q-25 -69 -12 -117t67 -48q40 0 81 23
t78 68t66.5 106.5t46.5 144.5t17 176q0 111 -40.5 214.5t-114 183.5t-186 128.5t-245.5 48.5q-216 0 -382 -108t-252.5 -289t-86.5 -404q0 -171 56 -305t153.5 -217t222.5 -125.5t271 -42.5q163 0 291 37.5t262 118.5l28 -43q-233 -217 -626 -217q-134 0 -257.5 31.5
t-230 97t-185.5 158t-124 221.5t-45 280q0 247 116.5 451.5t324.5 324t464 119.5q175 0 321 -55t241 -147t147.5 -211t52.5 -250q0 -125 -33.5 -229t-86.5 -170.5t-121.5 -113t-136.5 -66t-134 -19.5zM840 483q55 0 114 74t105.5 190.5t73.5 247.5q-23 64 -82 64
q-72 0 -137 -82t-100.5 -192.5t-35.5 -204.5q0 -97 62 -97z" />
    </font>
</defs>
</svg>
