<?xml version="1.0" standalone="no"?>
<!DOCTYPE svg PUBLIC "-//W3C//DTD SVG 1.1//EN" "http://www.w3.org/Graphics/SVG/1.1/DTD/svg11.dtd" >
<svg xmlns="http://www.w3.org/2000/svg" xmlns:xlink="http://www.w3.org/1999/xlink" version="1.1">
<metadata>
Created by FontForge 20170731 at Tue Jul  5 13:16:08 2022
 By Aleksey,,,
(c) 2010 Klim Type Foundry. All rights reserved.
</metadata>
<defs>
<font id="TiemposHeadline-Light" horiz-adv-x="1024" >
  <font-face 
    font-family="Tiempos Headline Light"
    font-weight="300"
    font-stretch="normal"
    units-per-em="2048"
    panose-1="2 2 3 3 6 3 3 6 4 3"
    ascent="1604"
    descent="-444"
    x-height="1065"
    cap-height="1438"
    bbox="-195 -461 2404 2116"
    underline-thickness="61"
    underline-position="-265"
    unicode-range="U+0020-FB04"
  />
<missing-glyph horiz-adv-x="1966" 
d="M184 0v1597h1598v-1597h-1598zM983 707l-571 -572h1142zM412 1462l571 -571l571 571h-1142zM891 799l-563 563v-1126zM1075 799l563 -563v1126z" />
    <glyph glyph-name="ff" unicode="ff" horiz-adv-x="1265" 
d="M184 1077v49q0 198 121.5 318.5t306.5 120.5q168 0 279 -78q97 117 278 117q105 0 160 -38t55 -110q0 -70 -59 -102h-106q6 30 6 69q0 131 -99 131q-65 0 -100 -57.5t-35 -167.5v-264h264v-78h-264v-831q0 -58 39 -78t144 -25v-53h-508v53q84 5 112.5 24.5t28.5 78.5v831
h-438v-831q0 -59 28.5 -78.5t112.5 -24.5v-53h-467v53q84 5 112.5 24.5t28.5 78.5v831h-151v29zM807 1214q0 92 24 166q-86 133 -225 133q-237 0 -237 -319v-129h438v149z" />
    <glyph glyph-name="fi" unicode="fi" horiz-adv-x="1163" 
d="M991 1085v-929q0 -59 29 -78.5t113 -24.5v-53h-467v53q84 5 112.5 24.5t28.5 78.5v831h-438v-831q0 -59 28.5 -78.5t112.5 -24.5v-53h-467v53q84 5 112.5 24.5t28.5 78.5v831h-151v29l151 61v72q0 219 117.5 337t308.5 118q124 0 197.5 -40.5t73.5 -119.5q0 -67 -66 -103
h-117q7 35 7 66q0 64 -33.5 103.5t-106.5 39.5q-96 0 -146 -82t-50 -231v-172h510l79 20h33z" />
    <glyph glyph-name="fl" unicode="fl" horiz-adv-x="1163" 
d="M991 1604v-1448q0 -59 29 -78.5t113 -24.5v-53h-467v53q84 5 112.5 24.5t28.5 78.5v1216q-33 80 -92 130t-146 50q-102 0 -151 -70t-49 -216v-201h264v-78h-264v-831q0 -59 28.5 -78.5t112.5 -24.5v-53h-467v53q84 5 112.5 24.5t28.5 78.5v831h-151v29l151 61v137
q0 183 108 286.5t281 103.5q131 0 232 -66l162 66h24z" />
    <glyph glyph-name="ffi" unicode="ffi" horiz-adv-x="1785" 
d="M184 1077v49q0 198 121.5 318.5t306.5 120.5q180 0 299 -92q119 131 322 131q123 0 196.5 -40.5t73.5 -119.5q0 -68 -65 -103h-117q6 30 6 66q0 64 -33 103.5t-106 39.5q-96 0 -146.5 -82t-50.5 -231v-172h510l80 20h33v-929q0 -59 28.5 -78.5t112.5 -24.5v-53h-467v53
q84 5 113 24.5t29 78.5v831h-439v-831q0 -59 29 -78.5t113 -24.5v-53h-467v53q84 5 112.5 24.5t28.5 78.5v831h-438v-831q0 -59 28.5 -78.5t112.5 -24.5v-53h-467v53q84 5 112.5 24.5t28.5 78.5v831h-151v29zM807 1149q0 124 37 211q-41 71 -102.5 112t-135.5 41
q-237 0 -237 -319v-129h438v84z" />
    <glyph glyph-name="ffl" unicode="ffl" horiz-adv-x="1785" 
d="M612 1565q169 0 285 -82q109 121 299 121q130 0 231 -66l162 66h25v-1448q0 -59 28.5 -78.5t112.5 -24.5v-53h-467v53q84 5 113 24.5t29 78.5v1216q-33 80 -92 130t-146 50q-102 0 -151.5 -70t-49.5 -216v-201h264v-78h-264v-831q0 -59 29 -78.5t113 -24.5v-53h-467v53
q84 5 112.5 24.5t28.5 78.5v831h-438v-831q0 -59 28.5 -78.5t112.5 -24.5v-53h-467v53q84 5 112.5 24.5t28.5 78.5v831h-151v29l151 61v49q0 198 121.5 318.5t306.5 120.5zM807 1065v149q0 92 27 162q-86 137 -228 137q-237 0 -237 -319v-129h438z" />
    <glyph glyph-name="f_b" unicode="fb" horiz-adv-x="1787" 
d="M807 127v1245q-33 80 -92 130t-146 50q-102 0 -151 -70t-49 -216v-201h264v-78h-264v-831q0 -59 28.5 -78.5t112.5 -24.5v-53h-467v53q84 5 112.5 24.5t28.5 78.5v831h-151v29l151 61v137q0 183 108 286.5t281 103.5q131 0 232 -66l162 66h24v-701q134 182 344 182
q191 0 297.5 -133t106.5 -358q0 -185 -69.5 -326t-185.5 -214.5t-259 -73.5q-126 0 -233.5 39t-184.5 108zM1225 35q98 0 173.5 64t115.5 171.5t40 239.5q0 91 -17.5 169.5t-54 144.5t-100 104.5t-147.5 38.5q-68 0 -134.5 -30.5t-109.5 -80.5v-563q0 -258 234 -258z" />
    <glyph glyph-name="f_f_b" unicode="ffb" horiz-adv-x="2410" 
d="M1430 127v1245q-33 80 -92 130t-146 50q-102 0 -151.5 -70t-49.5 -216v-201h264v-78h-264v-831q0 -59 29 -78.5t113 -24.5v-53h-467v53q84 5 112.5 24.5t28.5 78.5v831h-438v-831q0 -59 28.5 -78.5t112.5 -24.5v-53h-467v53q84 5 112.5 24.5t28.5 78.5v831h-151v29
l151 61v49q0 198 121.5 318.5t306.5 120.5q169 0 285 -82q109 121 299 121q130 0 231 -66l162 66h25v-701q134 182 344 182q191 0 297 -133t106 -358q0 -185 -69.5 -326t-185.5 -214.5t-259 -73.5q-254 0 -417 147zM1847 35q98 0 174 64t116 171.5t40 239.5
q0 91 -17.5 169.5t-54 144.5t-100 104.5t-147.5 38.5q-68 0 -134.5 -30.5t-109.5 -80.5v-563q0 -258 233 -258zM807 1214q0 92 27 162q-86 137 -228 137q-237 0 -237 -319v-129h438v149z" />
    <glyph glyph-name="f_h" unicode="fh" horiz-adv-x="1806" 
d="M807 156v1216q-33 80 -92 130t-146 50q-102 0 -151 -70t-49 -216v-201h264v-78h-264v-831q0 -59 28.5 -78.5t112.5 -24.5v-53h-467v53q84 5 112.5 24.5t28.5 78.5v831h-151v29l151 61v137q0 183 108 286.5t281 103.5q131 0 232 -66l162 66h24v-713q176 194 373 194
q276 0 276 -335v-594q0 -59 29 -78.5t113 -24.5v-53h-467v53q84 5 112.5 24.5t28.5 78.5v596q0 112 -45 163.5t-137 51.5q-140 0 -283 -125v-686q0 -59 29 -78.5t113 -24.5v-53h-467v53q84 5 112.5 24.5t28.5 78.5z" />
    <glyph glyph-name="f_f_h" unicode="ffh" horiz-adv-x="2428" 
d="M1430 156v1216q-33 80 -92 130t-146 50q-102 0 -151.5 -70t-49.5 -216v-201h264v-78h-264v-831q0 -59 29 -78.5t113 -24.5v-53h-467v53q84 5 112.5 24.5t28.5 78.5v831h-438v-831q0 -59 28.5 -78.5t112.5 -24.5v-53h-467v53q84 5 112.5 24.5t28.5 78.5v831h-151v29
l151 61v49q0 198 121.5 318.5t306.5 120.5q169 0 285 -82q109 121 299 121q130 0 231 -66l162 66h25v-713q176 194 373 194q276 0 276 -335v-594q0 -59 28.5 -78.5t112.5 -24.5v-53h-467v53q84 5 113 24.5t29 78.5v596q0 112 -45.5 163.5t-137.5 51.5q-139 0 -282 -125v-686
q0 -59 28.5 -78.5t112.5 -24.5v-53h-467v53q84 5 113 24.5t29 78.5zM807 1214q0 92 27 162q-86 137 -228 137q-237 0 -237 -319v-129h438v149z" />
    <glyph glyph-name="f_idieresis" unicode="f&#xef;" horiz-adv-x="1163" 
d="M991 1085v-929q0 -59 29 -78.5t113 -24.5v-53h-467v53q84 5 112.5 24.5t28.5 78.5v831h-438v-831q0 -59 28.5 -78.5t112.5 -24.5v-53h-467v53q84 5 112.5 24.5t28.5 78.5v831h-151v29l151 61v72q0 217 109.5 336t290.5 119q124 0 198 -58.5t74 -150.5q0 -40 -20.5 -73.5
t-49.5 -49.5h-112q14 47 14 94q0 184 -139 184q-92 0 -136 -83t-44 -230v-172h510l79 20h33zM944 1372q0 53 36.5 90t88.5 37q54 0 90.5 -37t36.5 -90t-36.5 -90t-90.5 -37q-52 0 -88.5 37t-36.5 90z" />
    <glyph glyph-name="f_f_idieresis" unicode="ff&#xef;" horiz-adv-x="1785" 
d="M612 1565q176 0 297 -90q107 129 297 129q124 0 198.5 -58.5t74.5 -150.5q0 -40 -20.5 -73.5t-49.5 -49.5h-113q15 50 15 94q0 184 -140 184q-92 0 -136 -83t-44 -230v-172h510l80 20h33v-929q0 -59 28.5 -78.5t112.5 -24.5v-53h-467v53q84 5 113 24.5t29 78.5v831h-439
v-831q0 -59 29 -78.5t113 -24.5v-53h-467v53q84 5 112.5 24.5t28.5 78.5v831h-438v-831q0 -59 28.5 -78.5t112.5 -24.5v-53h-467v53q84 5 112.5 24.5t28.5 78.5v831h-151v29l151 61v49q0 198 121.5 318.5t306.5 120.5zM807 1065v84q0 123 35 213q-87 151 -236 151
q-237 0 -237 -319v-129h438zM1567 1372q0 53 36.5 90t88.5 37q54 0 90.5 -37t36.5 -90t-36.5 -90t-90.5 -37q-52 0 -88.5 37t-36.5 90z" />
    <glyph glyph-name="f_j" unicode="fj" horiz-adv-x="1142" 
d="M807 987h-438v-831q0 -59 28.5 -78.5t112.5 -24.5v-53h-467v53q84 5 112.5 24.5t28.5 78.5v831h-151v29l151 61v72q0 219 117.5 337t308.5 118q124 0 197.5 -40.5t73.5 -119.5q0 -67 -66 -103h-117q7 35 7 66q0 64 -33.5 103.5t-106.5 39.5q-96 0 -146 -82t-50 -231v-172
h510l79 20h33v-913q0 -136 -10.5 -200t-42.5 -132q-35 -70 -97.5 -141t-154.5 -156l-31 23l84 147q45 78 56.5 162t11.5 231v881z" />
    <glyph glyph-name="f_f_j" unicode="ffj" horiz-adv-x="1765" 
d="M1430 987h-439v-831q0 -59 29 -78.5t113 -24.5v-53h-467v53q84 5 112.5 24.5t28.5 78.5v831h-438v-831q0 -59 28.5 -78.5t112.5 -24.5v-53h-467v53q84 5 112.5 24.5t28.5 78.5v831h-151v29l151 61v49q0 198 121.5 318.5t306.5 120.5q180 0 299 -92q119 131 322 131
q123 0 196.5 -40.5t73.5 -119.5q0 -68 -65 -103h-117q6 30 6 66q0 64 -33 103.5t-106 39.5q-96 0 -146.5 -82t-50.5 -231v-172h510l80 20h33v-913q0 -136 -10.5 -200t-42.5 -132q-35 -70 -97.5 -141t-154.5 -156l-31 23l84 147q45 78 56.5 162t11.5 231v881zM807 1149
q0 124 37 211q-41 71 -102.5 112t-135.5 41q-237 0 -237 -319v-129h438v84z" />
    <glyph glyph-name="f_k" unicode="fk" horiz-adv-x="1714" 
d="M1016 584l330 301q15 14 20 19t14.5 16t13 19.5t3.5 18.5q0 26 -22.5 34.5t-90.5 16.5l-24 3v53h405v-53q-59 -13 -93.5 -30t-68.5 -48l-311 -283l522 -612v-39h-207zM807 156v1216q-33 80 -92 130t-146 50q-102 0 -151 -70t-49 -216v-201h264v-78h-264v-831
q0 -59 28.5 -78.5t112.5 -24.5v-53h-467v53q84 5 112.5 24.5t28.5 78.5v831h-151v29l151 61v137q0 183 108 286.5t281 103.5q131 0 232 -66l162 66h24v-1448q0 -59 29 -78.5t113 -24.5v-53h-467v53q84 5 112.5 24.5t28.5 78.5z" />
    <glyph glyph-name="f_f_k" unicode="ffk" horiz-adv-x="2336" 
d="M1430 156v1216q-33 80 -92 130t-146 50q-102 0 -151.5 -70t-49.5 -216v-201h264v-78h-264v-831q0 -59 29 -78.5t113 -24.5v-53h-467v53q84 5 112.5 24.5t28.5 78.5v831h-438v-831q0 -59 28.5 -78.5t112.5 -24.5v-53h-467v53q84 5 112.5 24.5t28.5 78.5v831h-151v29
l151 61v49q0 198 121.5 318.5t306.5 120.5q169 0 285 -82q109 121 299 121q130 0 231 -66l162 66h25v-1448q0 -59 28.5 -78.5t112.5 -24.5v-53h-467v53q84 5 113 24.5t29 78.5zM1638 584l330 301q15 14 20 19t14.5 16t13 19.5t3.5 18.5q0 26 -22.5 34.5t-90.5 16.5l-24 3v53
h406v-53q-59 -13 -93.5 -30t-68.5 -48l-311 -283l522 -612v-39h-207zM807 1214q0 92 27 162q-86 137 -228 137q-237 0 -237 -319v-129h438v149z" />
    <glyph glyph-name=".notdef" horiz-adv-x="1966" 
d="M184 0v1597h1598v-1597h-1598zM983 707l-571 -572h1142zM412 1462l571 -571l571 571h-1142zM891 799l-563 563v-1126zM1075 799l563 -563v1126z" />
    <glyph glyph-name=".null" horiz-adv-x="0" 
 />
    <glyph glyph-name="nonmarkingreturn" horiz-adv-x="682" 
 />
    <glyph glyph-name="space" unicode=" " horiz-adv-x="430" 
 />
    <glyph glyph-name="exclam" unicode="!" horiz-adv-x="487" 
d="M102 121q0 58 41.5 99.5t100.5 41.5q58 0 99.5 -41t41.5 -100t-41.5 -100t-99.5 -41q-59 0 -100.5 41.5t-41.5 99.5zM260 416h-35l-106 1022h248z" />
    <glyph glyph-name="quotedbl" unicode="&#x22;" horiz-adv-x="530" 
d="M147 1008h-16l-53 254q-31 142 -31 190t24 78.5t68 30.5t68 -30.5t24 -78.5q0 -52 -30 -190zM399 1008h-16l-53 254q-31 142 -31 190t24 78.5t68 30.5t68 -30.5t24 -78.5q0 -52 -30 -190z" />
    <glyph glyph-name="numbersign" unicode="#" horiz-adv-x="1116" 
d="M930 479h-223l-158 -497l-66 20l150 477h-303l-158 -497l-66 20l150 477h-215v60h233l132 411h-220v60h238l143 450l66 -20l-137 -430h305l143 450l66 -20l-138 -430h203v-60h-221l-129 -411h205v-60zM477 950l-129 -411h303l131 411h-305z" />
    <glyph glyph-name="dollar" unicode="$" horiz-adv-x="1050" 
d="M498 -20q-32 0 -86 4l-37 -215h-58l37 223q-183 30 -284 121l-13 346h60q58 -316 252 -391l98 585q-6 1 -25 11q-72 30 -120.5 54.5t-99.5 61t-80.5 76t-48.5 96t-19 125.5q0 165 116.5 273t313.5 108q48 0 98 -6l35 199h57l-35 -207q142 -27 254 -105v-301h-59
q-35 257 -209 328l-90 -537q110 -46 181.5 -87t128 -93t82.5 -116.5t26 -147.5q0 -124 -65.5 -217.5t-172 -140.5t-237.5 -47zM799 313q0 113 -60 179t-219 137l-98 -578q37 -6 76 -6q139 0 220 74.5t81 193.5zM246 1149q0 -109 54 -170.5t202 -126.5l90 530q-53 11 -88 11
q-120 0 -189 -68.5t-69 -175.5z" />
    <glyph glyph-name="percent" unicode="%" horiz-adv-x="1519" 
d="M61 1118q0 153 98 246.5t236 93.5q136 0 234 -93.5t98 -246.5t-98 -246.5t-234 -93.5q-138 0 -236 93.5t-98 246.5zM209 1118q0 -126 46.5 -207.5t139.5 -81.5t139 81.5t46 207.5t-46 206.5t-139 80.5t-139.5 -80.5t-46.5 -206.5zM272 -20l897 1478h78l-897 -1478h-78z
M1458 319q0 -153 -98 -246t-236 -93q-136 0 -233.5 93t-97.5 246t97.5 246.5t233.5 93.5q138 0 236 -93.5t98 -246.5zM1311 319q0 126 -47 207.5t-140 81.5q-63 0 -105.5 -40.5t-60.5 -103.5t-18 -145q0 -126 45.5 -206t138.5 -80t140 80t47 206z" />
    <glyph glyph-name="ampersand" unicode="&#x26;" horiz-adv-x="1359" 
d="M20 367q0 273 316 399l-12 14q-142 151 -142 320q0 166 107.5 262t277.5 96q165 0 260 -86.5t95 -216.5q0 -127 -95 -213.5t-270 -150.5l428 -461q76 130 76 284q0 81 -46.5 108t-156.5 32v53h488v-53q-104 -5 -147 -33t-56 -115q-27 -178 -115 -323l102 -109
q53 -59 107 -86t123 -33v-55h-273q-42 21 -78.5 52.5t-90.5 90.5q-174 -163 -437 -163q-68 0 -132.5 14t-124.5 44.5t-105 74.5t-72 109.5t-27 144.5zM563 78q175 0 309 112l-503 541q-162 -86 -162 -303q0 -166 96.5 -258t259.5 -92zM338 1161q0 -37 9 -73t18 -58.5t33 -56
t32.5 -44t41 -44.5t34.5 -37l18 -23q69 27 116.5 62.5t73 78.5t36 88.5t10.5 102.5q0 104 -52.5 173t-156.5 69q-97 0 -155 -64t-58 -174z" />
    <glyph glyph-name="quotesingle" unicode="'" horiz-adv-x="278" 
d="M147 1008h-16l-53 254q-31 142 -31 190t24 78.5t68 30.5t68 -30.5t24 -78.5q0 -52 -30 -190z" />
    <glyph glyph-name="parenleft" unicode="(" horiz-adv-x="692" 
d="M123 643q0 255 108.5 491.5t319.5 442.5h80q-185 -198 -261.5 -430t-76.5 -504t76.5 -504t261.5 -430h-80q-211 206 -319.5 442.5t-108.5 491.5z" />
    <glyph glyph-name="parenright" unicode=")" horiz-adv-x="692" 
d="M569 643q0 -255 -108.5 -491.5t-319.5 -442.5h-80q185 198 261.5 430t76.5 504t-76.5 504t-261.5 430h80q211 -206 319.5 -442.5t108.5 -491.5z" />
    <glyph glyph-name="asterisk" unicode="*" horiz-adv-x="823" 
d="M692 1305l-260 -101l260 -100q34 -13 44.5 -38t-3.5 -48t-39 -26t-55 20l-219 176l45 -277q6 -37 -9.5 -57t-43.5 -20t-44 20t-10 57l43 277l-217 -176q-30 -23 -55 -20t-39 26t-3.5 48t44.5 38l260 100l-260 101q-34 13 -44.5 38t3.5 48t39 26t55 -20l217 -176l-43 276
q-6 37 10 57.5t44 20.5t43.5 -20.5t9.5 -57.5l-45 -276l219 176q30 23 55 20t39 -26t3.5 -48t-44.5 -38z" />
    <glyph glyph-name="plus" unicode="+" horiz-adv-x="1155" 
d="M524 1208h105v-395h397v-106h-397v-396h-105v396h-395v106h395v395z" />
    <glyph glyph-name="comma" unicode="," horiz-adv-x="405" 
d="M246 0h-74q-41 8 -67.5 38t-26.5 77q0 56 37 90.5t92 34.5q64 0 100.5 -47t36.5 -123q0 -127 -76.5 -212.5t-214.5 -95.5v48q81 14 133.5 64t59.5 126z" />
    <glyph glyph-name="hyphen" unicode="-" horiz-adv-x="655" 
d="M594 569h-533v93h533v-93z" />
    <glyph glyph-name="period" unicode="." horiz-adv-x="405" 
d="M61 121q0 58 41.5 99.5t100.5 41.5t100 -41t41 -100t-41 -100t-100 -41t-100.5 41.5t-41.5 99.5z" />
    <glyph glyph-name="slash" unicode="/" horiz-adv-x="772" 
d="M715 1577l-615 -1866h-80l615 1866h80z" />
    <glyph glyph-name="zero" unicode="0" horiz-adv-x="1228" 
d="M614 39q76 0 135 40.5t95 105.5t59 156t32 183t9 195t-9 195t-32 183t-59 156t-95 105.5t-135 40.5t-134.5 -40.5t-94.5 -105.5t-59 -156t-32 -183t-9 -195t9 -195t32 -183t59 -156t94.5 -105.5t134.5 -40.5zM614 -20q-170 0 -295.5 99.5t-188 265.5t-62.5 374t62.5 374
t188 265.5t295.5 99.5q128 0 232.5 -57.5t172.5 -157.5t105 -234.5t37 -289.5t-37 -289.5t-105 -234.5t-172.5 -157.5t-232.5 -57.5z" />
    <glyph glyph-name="one" unicode="1" horiz-adv-x="751" 
d="M723 0h-672v55q71 4 111 10t69 15t41 28t16.5 41.5t4.5 63.5v981h-244v49l82 17q133 26 200.5 64.5t125.5 131.5h37v-1243q0 -50 6 -76t32.5 -44.5t67.5 -25t123 -12.5v-55z" />
    <glyph glyph-name="two" unicode="2" horiz-adv-x="1042" 
d="M219 174h383q57 0 92 3.5t71 15t62 35t53.5 61t57.5 96.5h51l-84 -385h-897v45l359 367q206 211 279 336t73 270q0 132 -72.5 208.5t-204.5 76.5q-205 0 -352 -195l-37 25q173 325 473 325q183 0 287.5 -97.5t104.5 -264.5q0 -78 -34.5 -163t-86 -158t-130.5 -159
t-147.5 -150.5t-158 -150t-142.5 -141.5z" />
    <glyph glyph-name="three" unicode="3" horiz-adv-x="1011" 
d="M547 821q183 -19 298.5 -131t115.5 -264q0 -206 -137.5 -326t-346.5 -120q-215 0 -341 85.5t-126 202.5q0 51 25.5 89.5t64.5 56.5h119q-12 -44 -12 -105q0 -122 73 -196t197 -74q138 0 215.5 92t77.5 231q0 165 -115 255t-301 90h-71l-11 45q76 23 129.5 42t111 49.5
t92 64t57 82t22.5 106.5q0 102 -60 164.5t-173 62.5q-183 0 -304 -164l-32 27q60 127 164 199.5t249 72.5q157 0 249.5 -84t92.5 -225q0 -70 -30.5 -128.5t-81 -97t-102.5 -63t-109 -39.5z" />
    <glyph glyph-name="four" unicode="4" horiz-adv-x="1167" 
d="M129 475h557v723zM686 190v216h-666v40l760 992h99v-963h247v-69h-247v-216q0 -31 2.5 -50.5t11 -35t19 -24t34 -16t47 -11t66.5 -8.5v-45h-553v45q43 5 66.5 8.5t47 11t34 16t19 24t11 35t2.5 50.5z" />
    <glyph glyph-name="five" unicode="5" horiz-adv-x="987" 
d="M860 1249h-561l-53 -319q153 -6 275 -36.5t217 -88.5t146.5 -152t51.5 -219q0 -201 -129.5 -327.5t-339.5 -126.5q-209 0 -328 85t-119 203q0 50 25.5 88t60.5 58h123q-14 -61 -14 -115q0 -260 252 -260q139 0 225 86.5t86 230.5q0 201 -167.5 305.5t-467.5 106.5
l117 670h465q59 0 82.5 13.5t58.5 76.5h45z" />
    <glyph glyph-name="six" unicode="6" horiz-adv-x="1132" 
d="M891 1413q-275 -75 -427.5 -250t-184.5 -428q59 65 159 115.5t224 50.5q179 0 294 -111.5t115 -306.5q0 -225 -135 -364t-340 -139q-166 0 -287.5 79.5t-181 212t-59.5 299.5q0 218 93 402t271.5 311t417.5 170zM559 793q-84 0 -161 -31.5t-126 -73.5q-2 -29 -2 -90
q0 -260 88.5 -408.5t237.5 -148.5q137 0 215 100t78 265q0 179 -85.5 283t-244.5 104z" />
    <glyph glyph-name="seven" unicode="7" horiz-adv-x="978" 
d="M850 1255h-561q-72 0 -111 -37.5t-88 -138.5h-59l88 359h850v-58l-584 -1380h-195z" />
    <glyph glyph-name="eight" unicode="8" horiz-adv-x="1089" 
d="M971 1118q0 -63 -28 -118.5t-74 -95t-97 -66.5t-106 -43l96 -45q266 -128 266 -369q0 -83 -30 -154.5t-88 -127t-152 -87.5t-213 -32q-215 0 -349.5 103.5t-134.5 268.5q0 70 27 130t74.5 104.5t105 77t127.5 55.5l-49 24q-106 52 -167.5 134t-61.5 213q0 75 28 141
t80.5 117t135 80.5t184.5 29.5q194 0 310 -93t116 -247zM645 600l-209 100q-109 -62 -153.5 -146.5t-44.5 -193.5q0 -139 84 -229t223 -90q147 0 230 74t83 213q0 175 -213 272zM481 893l152 -78q91 58 134.5 129t43.5 172q0 126 -71.5 203.5t-196.5 77.5
q-119 0 -189.5 -68.5t-70.5 -179.5q0 -54 12.5 -92.5t42.5 -68.5t60 -49t83 -46z" />
    <glyph glyph-name="nine" unicode="9" horiz-adv-x="1132" 
d="M242 25q274 73 426.5 247.5t185.5 427.5q-61 -65 -160 -114t-223 -49q-179 0 -294.5 111t-115.5 306q0 225 135.5 364.5t340.5 139.5q166 0 287.5 -80t181 -212.5t59.5 -299.5q0 -218 -93 -402t-271.5 -310.5t-417.5 -169.5zM573 645q83 0 160 30.5t125 72.5q4 62 4 92
q0 260 -88 408.5t-237 148.5q-137 0 -215 -100t-78 -265q0 -179 85 -283t244 -104z" />
    <glyph glyph-name="colon" unicode=":" horiz-adv-x="405" 
d="M61 121q0 58 41.5 99.5t100.5 41.5t100 -41t41 -100t-41 -100t-100 -41t-100.5 41.5t-41.5 99.5zM61 821q0 59 41.5 100.5t100.5 41.5q58 0 99.5 -41.5t41.5 -100.5t-41 -100t-100 -41t-100.5 41.5t-41.5 99.5z" />
    <glyph glyph-name="semicolon" unicode=";" horiz-adv-x="405" 
d="M246 0h-74q-41 8 -67.5 38t-26.5 77q0 56 37 90.5t92 34.5q64 0 100.5 -47t36.5 -123q0 -127 -76.5 -212.5t-214.5 -95.5v48q81 14 133.5 64t59.5 126zM61 821q0 59 41.5 100.5t100.5 41.5q58 0 99.5 -41.5t41.5 -100.5t-41 -100t-100 -41t-100.5 41.5t-41.5 99.5z" />
    <glyph glyph-name="less" unicode="&#x3c;" horiz-adv-x="845" 
d="M82 750v16l635 387v-125l-455 -270l455 -271v-125z" />
    <glyph glyph-name="equal" unicode="=" horiz-adv-x="1175" 
d="M139 565v105h897v-105h-897zM139 848v106h897v-106h-897z" />
    <glyph glyph-name="greater" unicode="&#x3e;" horiz-adv-x="845" 
d="M764 766v-16l-635 -388v125l455 271l-455 270v125z" />
    <glyph glyph-name="question" unicode="?" horiz-adv-x="868" 
d="M649 1180q0 108 -55 169.5t-158 61.5q-99 0 -151 -63t-52 -158v-90h-149q-43 40 -43 98q0 113 113 186.5t278 73.5q180 0 287.5 -87.5t107.5 -254.5q0 -49 -16.5 -95.5t-40 -82t-65.5 -76.5t-75.5 -67.5t-88.5 -67.5q-87 -63 -122.5 -120t-35.5 -146v-66h-21
q-65 119 -65 201q0 87 40 152.5t130 136.5q40 31 59.5 47.5t47.5 46.5t41 55.5t23.5 63.5t10.5 82zM248 121q0 59 41 100t100 41t100 -41t41 -100t-41 -100t-100 -41t-100 41t-41 100z" />
    <glyph glyph-name="at" unicode="@" horiz-adv-x="1734" 
d="M1202 154q-74 0 -123 31t-69.5 83.5t-22.5 123t19 149.5q-79 -178 -173.5 -281.5t-195.5 -103.5q-88 0 -139.5 67.5t-51.5 190.5q0 148 73 291t191 233t242 90q114 0 187 -70l131 76h28l-53 -176l-102 -420q-56 -227 69 -227q85 0 150.5 50.5t103.5 134t57 180t19 200.5
q0 265 -141.5 420.5t-413.5 155.5q-140 0 -265.5 -50t-219 -137.5t-161.5 -202t-103 -247t-35 -269.5q0 -280 169 -450t451 -170q171 0 293 34t266 115l19 -28q-110 -89 -268.5 -144t-325.5 -55q-348 0 -547 186t-199 512q0 146 43 287.5t125.5 263t193.5 214t257.5 145.5
t306.5 53q322 0 504 -170.5t182 -462.5q0 -111 -31.5 -220t-89.5 -199.5t-149.5 -146.5t-200.5 -56zM705 256q92 0 205.5 186.5t185.5 456.5q-19 38 -56.5 57t-78.5 19q-73 0 -139.5 -54t-111.5 -137t-71.5 -182.5t-26.5 -191.5q0 -67 24.5 -110.5t68.5 -43.5z" />
    <glyph glyph-name="A" unicode="A" horiz-adv-x="1425" 
d="M1055 225l-115 279h-584l-108 -277q-21 -54 -21 -82q0 -47 41.5 -67t145.5 -23v-55h-404v55q49 7 78 22.5t43 53.5l471 1190l-57 135h205l544 -1325q16 -38 44.5 -53.5t76.5 -22.5v-55h-524v55q103 3 143.5 22t40.5 66q0 30 -20 82zM643 1235l-262 -666h532z" />
    <glyph glyph-name="B" unicode="B" horiz-adv-x="1273" 
d="M627 709h-197v-504q0 -80 45.5 -108.5t155.5 -28.5h24q166 0 247 82t81 235q0 69 -20.5 126.5t-62.5 102.5t-111.5 70t-161.5 25zM582 1370h-152v-594h152q170 0 251.5 75t81.5 226q0 140 -85.5 216.5t-247.5 76.5zM678 0h-621v55q43 5 67 9t47 11t33.5 15.5t19.5 24.5
t11.5 36t2.5 50v1036q0 85 -31 108t-150 37v56h574q236 0 360.5 -90.5t124.5 -264.5q0 -75 -33.5 -136.5t-89.5 -102t-123 -65.5t-141 -34q205 -8 330 -104.5t125 -255.5q0 -176 -132.5 -280.5t-373.5 -104.5z" />
    <glyph glyph-name="C" unicode="C" horiz-adv-x="1286" 
d="M741 1458q259 0 445 -121v-299h-56q-34 173 -133 263t-256 90q-113 0 -202.5 -51t-146.5 -140t-86.5 -205t-29.5 -250q0 -196 55 -352.5t166 -251t261 -94.5q165 0 264.5 97t144.5 311h62l-27 -365q-193 -110 -444 -110q-209 0 -366 90t-240.5 250.5t-83.5 367.5
q0 173 51 318t140.5 243.5t213.5 153.5t268 55z" />
    <glyph glyph-name="D" unicode="D" horiz-adv-x="1447" 
d="M602 1370h-172v-1157q0 -87 40.5 -116t141.5 -29h56q109 0 199.5 41t157.5 120t104.5 203t37.5 281q0 105 -18 198.5t-60.5 178.5t-106.5 146.5t-161 97.5t-219 36zM668 0h-611v55q43 5 67 9t47 11t33.5 15.5t19.5 24.5t11.5 36t2.5 50v1036q0 85 -31 108t-150 37v56h582
q151 0 275 -36.5t209.5 -99.5t144 -149.5t85.5 -185t27 -207.5q0 -177 -56.5 -322.5t-154 -240t-226 -146t-275.5 -51.5z" />
    <glyph glyph-name="E" unicode="E" horiz-adv-x="1257" 
d="M57 0v55q43 5 67 9t47 11t33.5 15.5t19.5 24.5t11.5 36t2.5 50v1036q0 85 -31 108t-150 37v56h1069l11 -342h-41q-68 162 -130 218t-169 56h-367v-594h326q63 0 95 44t50 141h55v-437h-55q-18 97 -50 141t-95 44h-326v-502q0 -81 45.5 -110t155.5 -29h188
q104 0 173.5 64.5t170.5 236.5h49l-61 -369h-1094z" />
    <glyph glyph-name="F" unicode="F" horiz-adv-x="1153" 
d="M430 688v-461q0 -92 50 -124t204 -44v-59h-627v55q43 5 67 9t47 11t33.5 15.5t19.5 24.5t11.5 36t2.5 50v1036q0 85 -31 108t-150 37v56h1030l9 -348h-41q-54 160 -121 220t-176 60h-328v-614h283q63 0 93 46.5t46 145.5h55v-452h-55q-16 99 -46 145.5t-93 46.5h-283z
" />
    <glyph glyph-name="G" unicode="G" horiz-adv-x="1427" 
d="M1047 133v334q0 85 -31 108t-150 37v56h545v-56q-43 -5 -66.5 -8.5t-47 -11t-34 -16t-19 -24t-11 -35t-2.5 -50.5v-340q-217 -147 -488 -147q-205 0 -360 95t-235 255t-80 358q0 173 51.5 317.5t142 243.5t218 154t276.5 55q270 0 448 -117v-303h-55q-34 175 -132.5 265
t-260.5 90q-121 0 -214.5 -51.5t-150.5 -141.5t-86 -205.5t-29 -251.5q0 -141 29.5 -264t87.5 -221t153 -154.5t216 -56.5q191 0 285 86z" />
    <glyph glyph-name="H" unicode="H" horiz-adv-x="1579" 
d="M430 1237v-459h719v459q0 31 -2.5 50.5t-11 35t-19 24t-34 16t-47 11t-66.5 8.5v56h553v-56q-119 -14 -150 -37t-31 -108v-1036q0 -30 2.5 -50t11.5 -36t19.5 -24.5t33.5 -15.5t47 -11t67 -9v-55h-553v55q51 6 77.5 11t50.5 14t33 24.5t14 37.5t5 59v508h-719v-508
q0 -37 5 -59t14 -37.5t33 -24.5t50.5 -14t77.5 -11v-55h-553v55q43 5 67 9t47 11t33.5 15.5t19.5 24.5t11.5 36t2.5 50v1036q0 85 -31 108t-150 37v56h553v-56q-43 -5 -66.5 -8.5t-47 -11t-34 -16t-19 -24t-11 -35t-2.5 -50.5z" />
    <glyph glyph-name="I" unicode="I" horiz-adv-x="667" 
d="M430 1237v-1036q0 -37 5 -59t14 -37.5t33 -24.5t50.5 -14t77.5 -11v-55h-553v55q43 5 67 9t47 11t33.5 15.5t19.5 24.5t11.5 36t2.5 50v1036q0 85 -31 108t-150 37v56h553v-56q-43 -5 -66.5 -8.5t-47 -11t-34 -16t-19 -24t-11 -35t-2.5 -50.5z" />
    <glyph glyph-name="J" unicode="J" horiz-adv-x="980" 
d="M571 342v895q0 31 -2.5 50.5t-11 35t-19 24t-34 16t-47 11t-66.5 8.5v56h553v-56q-43 -5 -66.5 -8.5t-47 -11t-34 -16t-19 -24t-11 -35t-2.5 -50.5v-825q0 -214 -107 -323t-301 -109q-168 0 -268 67.5t-100 190.5q0 81 57 131h137q-10 -58 -10 -101q0 -117 52 -174
t145 -57q202 0 202 305z" />
    <glyph glyph-name="K" unicode="K" horiz-adv-x="1353" 
d="M631 793l459 -574q83 -104 129 -132.5t135 -31.5v-55h-299q-84 65 -172 176l-424 537l520 542q45 45 45 76q0 27 -29 35t-135 16v56h430v-56q-64 -3 -100 -24.5t-92 -79.5zM430 1237v-1036q0 -37 5 -59t14 -37.5t33 -24.5t50.5 -14t77.5 -11v-55h-553v55q43 5 67 9t47 11
t33.5 15.5t19.5 24.5t11.5 36t2.5 50v1036q0 85 -31 108t-150 37v56h553v-56q-43 -5 -66.5 -8.5t-47 -11t-34 -16t-19 -24t-11 -35t-2.5 -50.5z" />
    <glyph glyph-name="L" unicode="L" horiz-adv-x="1191" 
d="M430 1237v-1030q0 -81 45.5 -110t155.5 -29h121q43 0 78 8.5t66.5 31t54.5 45t51.5 67t48.5 80t53 99.5h51l-65 -399h-1033v55q43 5 67 9t47 11t33.5 15.5t19.5 24.5t11.5 36t2.5 50v1036q0 85 -31 108t-150 37v56h553v-56q-43 -5 -66.5 -8.5t-47 -11t-34 -16t-19 -24
t-11 -35t-2.5 -50.5z" />
    <glyph glyph-name="M" unicode="M" horiz-adv-x="1822" 
d="M1419 236l-108 923l-420 -1159h-47l-453 1159l-104 -923q-4 -28 -4 -50q0 -72 39 -97t149 -34v-55h-434v55q89 6 124 30t42 93l125 1055q0 81 -37 112t-137 37v56h350q4 -44 31 -117l395 -1010l360 1010q27 73 31 117h348v-56q-98 -6 -135 -37t-37 -112l123 -1055
q9 -69 44 -93t122 -30v-55h-553v55q111 9 149.5 34t38.5 97q0 2 -1 22t-1 28z" />
    <glyph glyph-name="N" unicode="N" horiz-adv-x="1513" 
d="M1217 342v891q0 86 -35.5 111.5t-165.5 37.5v56h461v-56q-117 -14 -149 -38.5t-32 -110.5v-1241h-51l-923 1190v-977q0 -87 35.5 -112.5t164.5 -37.5v-55h-461v55q117 14 149 39t32 111v1052q-58 74 -91.5 98t-93.5 27v56h318z" />
    <glyph glyph-name="O" unicode="O" horiz-adv-x="1425" 
d="M721 47q133 0 230.5 92.5t145.5 242.5t48 337q0 97 -16.5 191.5t-52.5 182t-87 153.5t-125 105.5t-162 39.5q-133 0 -230.5 -92.5t-145 -242.5t-47.5 -337q0 -123 27 -239.5t79.5 -214.5t139.5 -158t196 -60zM705 -20q-149 0 -271.5 58.5t-201.5 157.5t-121.5 226.5
t-42.5 267.5q0 172 51 317t139 243.5t207 153t254 54.5q149 0 272 -58.5t202 -157.5t122 -226.5t43 -267.5q0 -172 -51 -317t-139.5 -243.5t-208 -153t-254.5 -54.5z" />
    <glyph glyph-name="P" unicode="P" horiz-adv-x="1189" 
d="M430 588v-361q0 -92 50 -124t204 -44v-59h-627v55q43 5 67 9t47 11t33.5 15.5t19.5 24.5t11.5 36t2.5 50v1036q0 85 -31 108t-150 37v56h541q134 0 240 -34.5t171 -93t98.5 -133t33.5 -159.5q0 -195 -138 -312.5t-397 -117.5h-176zM430 1370v-715h135q365 0 365 355
q0 75 -21 139t-64 114t-114.5 78.5t-165.5 28.5h-135z" />
    <glyph glyph-name="Q" unicode="Q" horiz-adv-x="1425" 
d="M801 -209l-125 191q-143 5 -260 65.5t-192 158.5t-115.5 222.5t-40.5 261.5q0 172 51 317t139 243.5t207 153t254 54.5q149 0 272 -58.5t202 -157.5t122 -226.5t43 -267.5q0 -295 -140 -495.5t-364 -254.5l115 -127q65 -73 132 -119.5t154 -54.5v-21q-92 -43 -182 -43
q-168 0 -272 158zM721 47q133 0 230.5 92.5t145.5 242.5t48 337q0 97 -16.5 191.5t-52.5 182t-87 153.5t-125 105.5t-162 39.5q-133 0 -230.5 -92.5t-145 -242.5t-47.5 -337q0 -123 27 -239.5t79.5 -214.5t139.5 -158t196 -60z" />
    <glyph glyph-name="R" unicode="R" horiz-adv-x="1380" 
d="M561 1370h-131v-674h139q178 0 264.5 90.5t86.5 260.5q0 141 -91 232t-268 91zM430 629v-428q0 -37 5 -59t14 -37.5t33 -24.5t50.5 -14t77.5 -11v-55h-553v55q43 5 67 9t47 11t33.5 15.5t19.5 24.5t11.5 36t2.5 50v1036q0 85 -31 108t-150 37v56h549q253 0 386.5 -107
t133.5 -284q0 -86 -34 -157t-90 -117t-116 -74t-122 -40l336 -432q74 -96 134 -133.5t146 -38.5v-55h-305q-72 50 -170 182l-334 447h-141z" />
    <glyph glyph-name="S" unicode="S" horiz-adv-x="1062" 
d="M506 -20q-134 0 -247.5 37t-180.5 96l-12 346h59q36 -200 131.5 -307t249.5 -107q139 0 220 74.5t81 193.5q0 65 -17 111t-62.5 87t-107.5 74.5t-169 78.5q-72 30 -120.5 54.5t-99.5 61t-81 76t-49 96t-19 125.5q0 165 116.5 273t313.5 108q117 0 224 -31.5t186 -87.5
v-301h-60q-23 174 -112.5 264.5t-237.5 90.5q-120 0 -189 -68.5t-69 -175.5q0 -116 62 -178.5t239 -136.5q112 -47 185.5 -88.5t131 -94t83.5 -117.5t26 -149q0 -124 -65.5 -217.5t-172 -140.5t-237.5 -47z" />
    <glyph glyph-name="T" unicode="T" horiz-adv-x="1312" 
d="M59 1438h1194l31 -428h-45q-33 82 -52.5 127t-45 93t-46 70t-50.5 42t-63 26t-79 6h-149v-1177q0 -25 4.5 -44t9.5 -32t20 -23t26 -16t38 -11.5t44 -8t56 -7.5v-55h-592v55q45 6 64.5 9t49 10t41 15t25 23t17.5 35.5t4 49.5v1177h-151q-46 0 -79 -6t-63 -26t-50.5 -42
t-46 -70t-45 -93t-52.5 -127h-45z" />
    <glyph glyph-name="U" unicode="U" horiz-adv-x="1456" 
d="M391 1237v-733q0 -197 93 -308.5t261 -111.5q207 0 319 107.5t112 328.5v713q0 86 -35.5 111.5t-165.5 37.5v56h461v-56q-117 -14 -149 -38.5t-32 -110.5v-748q0 -126 -40 -223.5t-110.5 -158.5t-162.5 -92t-201 -31q-256 0 -399 127.5t-143 384.5v745q0 85 -31 108
t-150 37v56h553v-56q-43 -5 -66.5 -8.5t-47 -11t-34 -16t-19 -24t-11 -35t-2.5 -50.5z" />
    <glyph glyph-name="V" unicode="V" horiz-adv-x="1406" 
d="M791 266l366 944q21 54 21 82q0 47 -42 67t-145 23v56h406v-56q-49 -7 -77 -22t-44 -53l-526 -1325h-41l-578 1325q-17 39 -44 53.5t-77 21.5v56h529v-56q-105 -3 -146 -22t-41 -66q0 -31 23 -84z" />
    <glyph glyph-name="W" unicode="W" horiz-adv-x="1880" 
d="M1247 -18l-284 864l-312 -864h-49l-471 1325q-12 37 -41.5 52.5t-79.5 22.5v56h522v-56q-103 -3 -143.5 -22t-40.5 -66q0 -11 2.5 -23.5t8.5 -31t8 -27.5l323 -925l238 663l-117 357q-8 28 -28.5 44t-39 21t-53.5 10v56h504v-56q-103 -3 -143.5 -22t-40.5 -66
q0 -19 18 -82l301 -915l309 913q21 65 21 82q0 47 -41 67t-145 23v56h397v-56q-35 -5 -52 -9.5t-37.5 -20.5t-29.5 -45l-457 -1325h-47z" />
    <glyph glyph-name="X" unicode="X" horiz-adv-x="1384" 
d="M928 217l-287 436l-303 -422q-47 -66 -47 -104t42.5 -54t127.5 -18v-55h-451v55q62 0 101.5 21t83.5 82l405 557l-369 565q-35 56 -79 79t-105 23v56h576v-56q-97 0 -137 -10t-40 -43q0 -35 54 -117l237 -364l262 358q52 73 52 113q0 36 -40.5 49.5t-129.5 13.5v56h446
v-56q-62 0 -105 -22.5t-83 -79.5l-361 -494l412 -628q67 -103 184 -103v-55h-575v55q83 0 126.5 14t43.5 52q0 34 -41 96z" />
    <glyph glyph-name="Y" unicode="Y" horiz-adv-x="1271" 
d="M723 580v-383q0 -20 2.5 -35.5t6 -27.5t12.5 -22t15 -16.5t22.5 -12.5t26 -9t33 -7t37 -6t44.5 -6v-55h-582v55q45 6 64.5 9t49 10t41 15t25 23t17.5 35.5t4 49.5v381l-410 729q-22 38 -48.5 53.5t-72.5 21.5v56h522v-56q-105 -3 -143.5 -18.5t-38.5 -56.5q0 -12 4 -25
t7 -20.5t13 -26t13 -23.5l309 -544l308 542q34 66 34 99q0 41 -37 55.5t-143 17.5v56h404v-56q-44 -6 -72 -22.5t-49 -52.5z" />
    <glyph glyph-name="Z" unicode="Z" horiz-adv-x="1189" 
d="M289 68h450q32 0 58 3.5t50.5 15t42.5 21.5t40.5 36t37 44.5t40 60t41.5 70t49 87.5h49l-66 -406h-1038v33l831 1337h-444q-30 0 -54 -3t-45.5 -13.5t-37 -20t-33.5 -32.5t-29.5 -40.5t-29.5 -55.5t-29.5 -65l-34.5 -81h-47l10 379h1014v-35z" />
    <glyph glyph-name="bracketleft" unicode="[" horiz-adv-x="638" 
d="M315 1401v-1514q0 -26 5 -45t19.5 -32t29 -20.5t46 -12.5t57.5 -7.5t75 -5.5v-53h-373v1866h373v-53q-49 -3 -75 -5.5t-57.5 -7.5t-46 -12.5t-29 -20.5t-19.5 -32t-5 -45z" />
    <glyph glyph-name="backslash" unicode="\" horiz-adv-x="772" 
d="M672 -289l-615 1866h80l615 -1866h-80z" />
    <glyph glyph-name="bracketright" unicode="]" horiz-adv-x="638" 
d="M324 -113v1514q0 26 -5 45t-19.5 32t-29 20.5t-46 12.5t-57.5 7.5t-75 5.5v53h373v-1866h-373v53q49 3 75 5.5t57.5 7.5t46 12.5t29 20.5t19.5 32t5 45z" />
    <glyph glyph-name="asciicircum" unicode="^" horiz-adv-x="946" 
d="M526 1577l338 -594h-96l-293 524l-297 -524h-96l338 594h106z" />
    <glyph glyph-name="underscore" unicode="_" horiz-adv-x="798" 
d="M758 -215h-717v80h717v-80z" />
    <glyph glyph-name="grave" unicode="`" 
d="M348 1559h205l123 -347h-35l-293 336v11z" />
    <glyph glyph-name="a" unicode="a" horiz-adv-x="1007" 
d="M418 100q59 0 109.5 25.5t119.5 83.5v385l-246 -100q-81 -32 -121 -80.5t-40 -126.5q0 -85 46 -136t132 -51zM834 770v-543q0 -70 18 -102.5t61 -32.5q35 0 95 27l10 -31q-72 -108 -197 -108q-74 0 -118 49.5t-52 136.5q-159 -186 -329 -186q-119 0 -190 70.5t-71 185.5
q0 62 21.5 110.5t64.5 84.5t90 60t115 50l295 110v140q0 112 -45.5 177.5t-142.5 65.5q-84 0 -125 -49.5t-41 -132.5q0 -50 14 -107l-108 -16q-80 25 -80 113q0 113 103 178t263 65q176 0 262.5 -77.5t86.5 -237.5z" />
    <glyph glyph-name="b" unicode="b" horiz-adv-x="1114" 
d="M133 1407l-133 72v22l293 103h24v-701q134 182 345 182q191 0 297 -133t106 -358q0 -185 -69.5 -326t-185.5 -214.5t-259 -73.5q-126 0 -233.5 39t-184.5 108v1280zM551 35q98 0 174 64t116 171.5t40 239.5q0 90 -18 169.5t-54.5 145t-100 104t-147.5 38.5
q-68 0 -134.5 -30.5t-109.5 -80.5v-563q0 -258 234 -258z" />
    <glyph glyph-name="c" unicode="c" horiz-adv-x="901" 
d="M213 586q0 -207 92.5 -334t249.5 -127q187 0 299 170l25 -12q-46 -146 -144.5 -224.5t-238.5 -78.5q-199 0 -323 142.5t-124 373.5q0 168 59.5 301t173.5 210.5t263 77.5q144 0 224.5 -58t80.5 -159q0 -40 -17.5 -74t-48.5 -51h-116q8 46 8 86q0 193 -168 193
q-135 0 -215 -124t-80 -312z" />
    <glyph glyph-name="d" unicode="d" horiz-adv-x="1144" 
d="M549 1028q-149 0 -237.5 -127.5t-88.5 -337.5q0 -127 36.5 -227t112.5 -160.5t181 -60.5q146 0 235 100v512q0 138 -66.5 219.5t-172.5 81.5zM788 1407l-133 72v22l293 103h25v-1405q0 -55 15 -71.5t81 -23.5l53 -6v-43l-311 -75h-31l8 188q-69 -89 -147 -138.5
t-180 -49.5q-188 0 -300 140.5t-112 360.5q0 275 141 439.5t359 164.5q151 0 239 -81v403z" />
    <glyph glyph-name="e" unicode="e" horiz-adv-x="946" 
d="M512 1085q183 0 284 -113.5t101 -291.5v-43h-680q-10 -241 93.5 -380.5t269.5 -139.5q105 0 177 46t130 136l24 -12q-38 -139 -143 -223t-260 -84q-141 0 -246.5 71t-158 188.5t-52.5 262.5q0 252 131.5 417.5t329.5 165.5zM496 1020q-114 0 -185.5 -90.5t-87.5 -233.5
h496q0 147 -54.5 235.5t-168.5 88.5z" />
    <glyph glyph-name="f" unicode="f" horiz-adv-x="643" 
d="M369 987v-831q0 -58 38.5 -78t143.5 -25v-53h-508v53q84 5 112.5 24.5t28.5 78.5v831h-151v29l151 61v137q0 186 97.5 288t265.5 102q105 0 160 -38t55 -110q0 -70 -60 -102h-106q6 30 6 69q0 131 -98 131q-65 0 -100 -57.5t-35 -167.5v-264h264v-78h-264z" />
    <glyph glyph-name="g" unicode="g" horiz-adv-x="1011" 
d="M475 391q-99 0 -184 31q-82 -82 -82 -148q0 -79 84 -79h395q152 0 238 -64t86 -192q0 -121 -79 -212t-207 -136.5t-284 -45.5q-205 0 -322.5 69t-117.5 193q0 141 195 224q-117 45 -117 168q0 37 14.5 71.5t43.5 65t54.5 52t63.5 48.5q-83 41 -130.5 114.5t-47.5 174.5
q0 165 112 262.5t285 97.5q78 0 170 -30l328 8v-96h-76l-162 8q54 -34 92.5 -100.5t38.5 -139.5q0 -157 -107 -250.5t-284 -93.5zM664 23h-445q-59 -62 -59 -166q0 -116 79.5 -183t223.5 -67q113 0 203 28t147 88t57 144t-52.5 120t-153.5 36zM485 442q96 0 147.5 78
t51.5 197q0 136 -56.5 225.5t-160.5 89.5q-97 0 -149 -77.5t-52 -196.5q0 -137 57 -226.5t162 -89.5z" />
    <glyph glyph-name="h" unicode="h" horiz-adv-x="1177" 
d="M178 156v1251l-133 72v22l293 103h24v-713q176 194 373 194q277 0 277 -335v-594q0 -59 28.5 -78.5t112.5 -24.5v-53h-467v53q84 5 112.5 24.5t28.5 78.5v596q0 112 -45 163.5t-137 51.5q-140 0 -283 -125v-686q0 -59 29 -78.5t113 -24.5v-53h-467v53q84 5 112.5 24.5
t28.5 78.5z" />
    <glyph glyph-name="i" unicode="i" horiz-adv-x="540" 
d="M369 1085v-929q0 -59 28.5 -78.5t112.5 -24.5v-53h-467v53q84 5 112.5 24.5t28.5 78.5v733l-133 72v22l293 102h25zM266 1245q-54 0 -91.5 38.5t-37.5 92.5t37.5 92.5t91.5 38.5q55 0 93 -38.5t38 -92.5t-38 -92.5t-93 -38.5z" />
    <glyph glyph-name="j" unicode="j" horiz-adv-x="497" 
d="M162 889l-133 72v22l293 102h24v-913q0 -136 -10.5 -200t-42.5 -132q-35 -70 -97.5 -141t-154.5 -156l-31 23l84 147q45 78 56.5 162t11.5 231v783zM244 1245q-54 0 -91.5 38.5t-37.5 92.5t37.5 92.5t91.5 38.5q55 0 93 -38.5t38 -92.5t-38 -92.5t-93 -38.5z" />
    <glyph glyph-name="k" unicode="k" horiz-adv-x="1087" 
d="M389 584l330 301q15 14 20 19t14.5 16t13 19.5t3.5 18.5q0 26 -22.5 34.5t-90.5 16.5l-24 3v53h405v-53q-59 -13 -92.5 -30t-68.5 -48l-312 -283l522 -612v-39h-206zM180 156v1251l-133 72v22l293 103h25v-1448q0 -59 28.5 -78.5t112.5 -24.5v-53h-467v53
q84 5 112.5 24.5t28.5 78.5z" />
    <glyph glyph-name="l" unicode="l" horiz-adv-x="536" 
d="M365 1604v-1448q0 -59 28.5 -78.5t112.5 -24.5v-53h-467v53q84 5 112.5 24.5t28.5 78.5v1251l-133 72v22l293 103h25z" />
    <glyph glyph-name="m" unicode="m" horiz-adv-x="1779" 
d="M1430 156v596q0 111 -41.5 163t-131.5 52q-72 0 -135 -33t-131 -92v-686q0 -59 29 -78.5t113 -24.5v-53h-467v53q84 5 112.5 24.5t28.5 78.5v596q0 111 -41 163t-131 52q-72 0 -135 -33t-131 -92v-686q0 -59 28.5 -78.5t112.5 -24.5v-53h-467v53q84 5 112.5 24.5
t28.5 78.5v733l-133 72v22l301 102h25l-8 -194q85 94 167 144t193 50q107 0 167.5 -49t82.5 -151q84 93 173 146.5t200 53.5q136 0 199 -83.5t63 -251.5v-594q0 -59 28.5 -78.5t112.5 -24.5v-53h-467v53q84 5 113 24.5t29 78.5z" />
    <glyph glyph-name="n" unicode="n" horiz-adv-x="1183" 
d="M834 156v596q0 112 -45.5 163.5t-137.5 51.5q-139 0 -282 -125v-686q0 -59 28.5 -78.5t112.5 -24.5v-53h-467v53q84 5 112.5 24.5t28.5 78.5v733l-133 72v22l301 102h25l-8 -194q176 194 372 194q141 0 209 -81.5t68 -247.5v-600q0 -59 28.5 -78.5t112.5 -24.5v-53h-467
v53q84 5 113 24.5t29 78.5z" />
    <glyph glyph-name="o" unicode="o" horiz-adv-x="1060" 
d="M535 43q134 0 208 127t74 338q0 104 -18 195t-52.5 163t-91.5 114t-129 42q-134 0 -208 -127t-74 -338q0 -104 18 -195t52.5 -163t91.5 -114t129 -42zM524 -20q-214 0 -344.5 145t-130.5 381q0 259 140 419t348 160q214 0 344.5 -146.5t130.5 -379.5q0 -259 -140 -419
t-348 -160z" />
    <glyph glyph-name="p" unicode="p" horiz-adv-x="1144" 
d="M582 39q148 0 238.5 134.5t90.5 336.5q0 91 -17.5 169.5t-54 144.5t-100 104.5t-147.5 38.5q-68 0 -134.5 -30.5t-109.5 -80.5v-559q0 -258 234 -258zM164 -279v1168l-133 72v22l301 102h24l-8 -182q134 182 344 182q191 0 297.5 -133t106.5 -358q0 -185 -69.5 -326
t-185.5 -214.5t-259 -73.5q-149 0 -234 73v-327q0 -61 35.5 -80t146.5 -27v-53h-507v53q84 5 112.5 24t28.5 78z" />
    <glyph glyph-name="q" unicode="q" horiz-adv-x="1114" 
d="M549 1028q-149 0 -237.5 -127.5t-88.5 -337.5q0 -127 36.5 -227t112.5 -160.5t181 -60.5q146 0 235 100v512q0 138 -66.5 219.5t-172.5 81.5zM788 -274v442q-69 -89 -147 -138.5t-180 -49.5q-188 0 -300 140.5t-112 360.5q0 275 141 439.5t359 164.5q95 0 174 -34.5
t127 -92.5l98 127h37l-12 -213v-1151q0 -59 28.5 -78t112.5 -24v-53h-508v53q111 8 146.5 27t35.5 80z" />
    <glyph glyph-name="r" unicode="r" horiz-adv-x="743" 
d="M369 750v-594q0 -58 38.5 -78t143.5 -25v-53h-508v53q84 5 112.5 24.5t28.5 78.5v733l-133 72v22l301 102h25l-8 -290q40 74 62 112t50 79t50.5 58.5t51 29t62.5 11.5q53 0 78 -32v-154h-29q-109 0 -177.5 -26.5t-147.5 -122.5z" />
    <glyph glyph-name="s" unicode="s" horiz-adv-x="884" 
d="M434 -20q-102 0 -194 27.5t-150 72.5l-12 282h55q41 -149 118 -237t191 -88q95 0 155 48.5t60 141.5q0 85 -56.5 135t-201.5 107q-164 64 -234.5 134.5t-70.5 193.5q0 132 92 210t246 78q175 0 311 -86v-247h-49q-72 276 -272 276q-87 0 -134.5 -47t-47.5 -123
q0 -78 54.5 -127.5t192.5 -101.5q162 -61 241 -135.5t79 -198.5q0 -146 -101.5 -230.5t-271.5 -84.5z" />
    <glyph glyph-name="t" unicode="t" horiz-adv-x="669" 
d="M319 1319v-254h293v-78h-293v-678q0 -113 41.5 -163t128.5 -50q82 0 162 60l19 -25q-45 -66 -113.5 -108.5t-157.5 -42.5q-119 0 -189.5 71.5t-70.5 227.5v708h-139v29q167 90 279 303h40z" />
    <glyph glyph-name="u" unicode="u" horiz-adv-x="1130" 
d="M958 866v-667q0 -55 15 -71.5t82 -23.5l53 -6v-43l-309 -75h-31l8 192q-91 -91 -172 -141.5t-178 -50.5q-281 0 -281 319v567q0 57 -20.5 77.5t-91.5 29.5l-33 4v47l315 57h23l-10 -223v-522q0 -236 182 -236q72 0 133 30.5t133 86.5v649q0 57 -20 77.5t-92 29.5l-31 4
v47l311 57h23z" />
    <glyph glyph-name="v" unicode="v" horiz-adv-x="1081" 
d="M1071 1065v-53q-54 -13 -71.5 -27t-32.5 -49l-387 -956h-45l-420 956q-14 35 -32.5 49t-72.5 27v53h455v-53q-85 -10 -114 -22t-29 -46q0 -19 12 -57l272 -666l262 668q15 41 15 55q0 34 -27 44.5t-115 22.5q-3 1 -4 1v53h334z" />
    <glyph glyph-name="w" unicode="w" horiz-adv-x="1587" 
d="M1128 242l248 647q8 21 8 49q0 19 -8.5 32t-29.5 21t-41 12t-60 9v53h332v-53q-54 -13 -72.5 -27.5t-31.5 -48.5l-373 -956h-49l-248 694l-260 -694h-47l-381 956q-14 35 -32.5 49t-72.5 27v53h449v-53q-32 -4 -49.5 -7t-38 -8.5t-30 -13t-16 -18.5t-6.5 -27q0 -22 9 -49
l243 -651l199 538l-57 160q-11 33 -30.5 48t-74.5 28v53h428v-53q-34 -5 -50 -7.5t-37 -8t-30 -12.5t-15.5 -18.5t-6.5 -27.5q0 -22 8 -49z" />
    <glyph glyph-name="x" unicode="x" horiz-adv-x="1087" 
d="M717 168l-217 311l-236 -311q-28 -38 -28 -62t30 -35t96 -18v-53h-352v53q99 22 140 76l309 408l-279 399q-25 36 -50.5 52.5t-78.5 23.5v53h449v-53q-64 -5 -91.5 -15t-27.5 -34t29 -66l172 -250l188 250q31 45 31 66q0 23 -28 33.5t-89 15.5v53h344v-53
q-101 -18 -145 -76l-262 -344l323 -463q26 -37 52.5 -53t80.5 -23v-53h-450v53q70 5 97.5 12.5t27.5 28.5t-35 74z" />
    <glyph glyph-name="y" unicode="y" horiz-adv-x="1075" 
d="M610 193l256 696q13 37 13 55q0 34 -29.5 46t-114.5 22v53h330v-53q-54 -13 -72.5 -28t-31.5 -48l-435 -1149q-46 -120 -99.5 -176.5t-141.5 -56.5q-49 0 -93 27.5t-55 74.5v59q63 -18 119 -18q88 0 142 35.5t89 134.5l39 104l-411 965q-14 35 -32.5 49t-72.5 27v53h453
v-53q-85 -10 -114.5 -22t-29.5 -46q0 -16 13 -57z" />
    <glyph glyph-name="z" unicode="z" horiz-adv-x="978" 
d="M68 0v25l616 968h-299q-91 0 -141.5 -60.5t-98.5 -219.5h-49l33 415h45l21 -69h708v-33l-604 -960h319q81 0 138 68t106 239h49l-32 -373h-811z" />
    <glyph glyph-name="braceleft" unicode="{" horiz-adv-x="698" 
d="M102 635v20q170 35 170 205v455q0 120 93 191t241 71v-43q-92 -9 -139 -55.5t-47 -145.5v-459q0 -99 -48.5 -147.5t-158.5 -81.5q110 -33 158.5 -81.5t48.5 -147.5v-459q0 -99 47 -145.5t139 -55.5v-43q-148 0 -241 71t-93 191v455q0 170 -170 205z" />
    <glyph glyph-name="bar" unicode="|" horiz-adv-x="444" 
d="M260 1577v-1866h-76v1866h76z" />
    <glyph glyph-name="braceright" unicode="}" horiz-adv-x="698" 
d="M596 655v-20q-170 -35 -170 -205v-455q0 -120 -93 -191t-241 -71v43q93 9 140 55.5t47 145.5v459q0 99 48 147.5t158 81.5q-110 33 -158 81.5t-48 147.5v459q0 99 -47 145.5t-140 55.5v43q148 0 241 -71t93 -191v-455q0 -170 170 -205z" />
    <glyph glyph-name="asciitilde" unicode="~" horiz-adv-x="923" 
d="M811 748l51 -13q-45 -133 -99 -192.5t-147 -59.5q-43 0 -93.5 22t-89.5 48t-86 48t-85 22q-48 0 -79.5 -29t-69.5 -98l-52 12q45 133 99 192.5t147 59.5q43 0 94 -21.5t89.5 -48t86 -48t85.5 -21.5q48 0 79.5 29t69.5 98z" />
    <glyph glyph-name="uni00A0" unicode="&#xa0;" horiz-adv-x="430" 
 />
    <glyph glyph-name="exclamdown" unicode="&#xa1;" horiz-adv-x="487" 
d="M102 1079q0 59 42 100.5t100 41.5t99.5 -41.5t41.5 -100.5t-41.5 -100t-99.5 -41q-59 0 -100.5 41.5t-41.5 99.5zM225 784h35l107 -1022h-248z" />
    <glyph glyph-name="cent" unicode="&#xa2;" horiz-adv-x="1058" 
d="M375 -221l47 221q-156 43 -247 177.5t-91 328.5q0 171 64.5 307t188 215.5t284.5 79.5q24 0 36 -2l45 211h58l-47 -217q119 -17 187.5 -73t68.5 -140q0 -86 -72 -123h-125q8 46 8 86q0 123 -84 170l-188 -879q53 -20 123 -20q110 0 187.5 44t139.5 136l23 -12
q-45 -152 -152.5 -230.5t-261.5 -78.5q-51 0 -92 8l-43 -209h-57zM258 598q0 -153 52.5 -265.5t146.5 -166.5l186 874q-31 7 -63 7q-146 0 -234 -127.5t-88 -321.5z" />
    <glyph glyph-name="sterling" unicode="&#xa3;" horiz-adv-x="1265" 
d="M209 723v63h203l22 168q32 257 158 380.5t319 123.5q135 0 214 -53.5t79 -149.5q0 -44 -23.5 -80.5t-56.5 -50.5h-125q13 76 13 121q0 79 -28.5 121.5t-98.5 42.5q-51 0 -92 -32t-68.5 -91.5t-45.5 -124.5t-32 -151l-39 -224h344v-63h-354l-45 -279q-17 -97 -39 -174
q90 -53 202.5 -86.5t221.5 -33.5q219 0 219 184q0 29 -6 59h18q66 -76 66 -172q0 -117 -75 -179t-206 -62t-261.5 55.5t-215.5 134.5q-81 -190 -270 -190q-87 0 -137 52.5t-50 129.5q0 89 61.5 140.5t145.5 51.5q69 0 127 -18l49 387h-194zM188 55q53 0 95.5 46.5
t58.5 146.5q-72 37 -133 37q-55 0 -89 -32t-34 -91q0 -51 28 -79t74 -28z" />
    <glyph glyph-name="currency" unicode="&#xa4;" horiz-adv-x="1191" 
d="M139 1116l54 53l147 -151q113 92 256 92q144 0 254 -92l149 151l54 -53l-152 -151q88 -112 88 -258q0 -149 -88 -258l152 -152l-54 -53l-149 151q-106 -92 -254 -92q-147 0 -256 92l-147 -151l-54 53l152 152q-88 109 -88 258q0 146 88 258zM276 707q0 -147 92 -242.5
t228 -95.5t227.5 95.5t91.5 242.5t-91.5 242t-227.5 95t-228 -95.5t-92 -241.5z" />
    <glyph glyph-name="yen" unicode="&#xa5;" horiz-adv-x="1282" 
d="M733 580v-123h348v-66h-348v-194q0 -20 2.5 -35.5t6 -27.5t12.5 -22t15 -16.5t22.5 -12.5t26 -9t33 -7t37 -6t44.5 -6v-55h-592v55q45 6 64.5 9t49 10t41 15t25 23t17.5 35.5t4 49.5v194h-348v66h348v121l-29 49h-319v63h284l-346 617q-22 38 -48.5 53.5t-72.5 21.5v56
h533v-56q-105 -3 -144 -18.5t-39 -56.5q0 -12 4 -25t7 -20.5t13 -26t13 -23.5l303 -544l308 542q34 66 34 99q0 41 -37 55.5t-143 17.5v56h410v-56q-44 -6 -72 -22.5t-49 -52.5l-354 -617h284v-63h-321z" />
    <glyph glyph-name="brokenbar" unicode="&#xa6;" horiz-adv-x="444" 
d="M260 1577v-770h-76v770h76zM260 481v-770h-76v770h76z" />
    <glyph glyph-name="section" unicode="&#xa7;" horiz-adv-x="1062" 
d="M307 1290q-131 -121 -131 -321q0 -153 62.5 -294.5t179.5 -299.5q25 -34 82 -105.5t96 -125t82 -123t63 -137.5t15 -130q131 121 131 322q0 153 -62.5 294.5t-179.5 299.5q-25 34 -82 105.5t-96 125t-82 122.5t-63 137t-15 130zM483 -414q-152 0 -229.5 55t-77.5 140
q0 72 78 104h123v-32q0 -31 3.5 -58t14 -56.5t28 -50.5t47.5 -34.5t69 -13.5q77 0 116 45.5t39 113.5q0 52 -34.5 123.5t-71 123t-113 151t-106.5 141.5q-123 169 -188.5 318t-65.5 313q0 106 38 198.5t102 155.5t148.5 99t176.5 36q152 0 229.5 -54.5t77.5 -139.5
q0 -73 -78 -105h-123v33q0 31 -3.5 58t-14 56.5t-28 50.5t-47.5 34.5t-69 13.5q-77 0 -116 -46t-39 -114q0 -52 34.5 -123.5t71.5 -123t112.5 -150.5t106.5 -141q123 -169 188.5 -318t65.5 -313q0 -141 -65 -254.5t-171 -174.5t-229 -61z" />
    <glyph glyph-name="dieresis" unicode="&#xa8;" 
d="M201 1372q0 53 36.5 90t88.5 37q54 0 90.5 -37t36.5 -90t-36.5 -90t-90.5 -37q-52 0 -88.5 37t-36.5 90zM571 1372q0 53 36.5 90t88.5 37q54 0 90.5 -37t36.5 -90t-36.5 -90t-90.5 -37q-52 0 -88.5 37t-36.5 90z" />
    <glyph glyph-name="copyright" unicode="&#xa9;" horiz-adv-x="1630" 
d="M125 719q0 -143 51.5 -271.5t141.5 -222.5t219.5 -149.5t277.5 -55.5t277.5 55.5t219.5 149.5t141.5 222.5t51.5 271.5q0 191 -87.5 350.5t-246.5 253.5t-356 94t-356 -94t-246.5 -253.5t-87.5 -350.5zM82 719q0 203 93 371.5t262 268t378 99.5t378 -99.5t262 -268
t93 -371.5t-93 -371.5t-262 -268t-378 -99.5t-378 99.5t-262 268t-93 371.5zM842 348q100 0 151.5 57.5t91.5 178.5h41l-18 -222q-71 -36 -129.5 -53.5t-136.5 -17.5q-187 0 -302.5 116t-115.5 298q0 103 33.5 188.5t91.5 142.5t135 88t164 31q153 0 258 -82v-194h-39
q-48 219 -219 219q-124 0 -195 -105t-71 -252q0 -174 70.5 -283.5t189.5 -109.5z" />
    <glyph glyph-name="ordfeminine" unicode="&#xaa;" horiz-adv-x="714" 
d="M291 834q68 0 147 67v232l-143 -58q-55 -22 -80 -53.5t-25 -79.5q0 -51 26 -79.5t75 -28.5zM569 1255v-346q0 -88 52 -88q29 0 67 19l6 -25q-49 -70 -133 -70q-48 0 -81.5 33t-37.5 88q-103 -121 -213 -121q-76 0 -122 45.5t-46 116.5q0 79 48.5 122.5t140.5 78.5l188 70
v67q0 170 -121 170q-46 0 -71 -29.5t-25 -80.5q0 -34 8 -70l-79 -10q-52 16 -52 75q0 73 66.5 115.5t169.5 42.5q235 0 235 -203z" />
    <glyph glyph-name="guillemotleft" unicode="&#xab;" horiz-adv-x="915" 
d="M72 555v12l389 394h57l-256 -400l256 -399h-57zM397 555v12l389 394h58l-256 -400l256 -399h-58z" />
    <glyph glyph-name="registered" unicode="&#xae;" horiz-adv-x="1054" 
d="M520 1204h-53v-209h53q54 0 82.5 28t28.5 81q0 46 -29 73t-82 27zM315 1241h222q89 0 137.5 -38t48.5 -99q0 -51 -36 -87t-85 -46l82 -113q19 -27 29 -38t30 -20t48 -9v-31h-125q-35 25 -78 88l-76 113h-45v-121q0 -30 12.5 -39.5t46.5 -9.5v-31h-211v31q35 0 48.5 9.5
t13.5 39.5v319q0 31 -12 39.5t-50 11.5v31zM104 991q0 -177 120 -300.5t302 -123.5q183 0 303.5 123.5t120.5 300.5q0 179 -120 302.5t-304 123.5q-182 0 -302 -123.5t-120 -302.5zM61 991q0 196 132.5 331.5t332.5 135.5q133 0 240.5 -63t167 -169.5t59.5 -234.5
q0 -195 -133 -330t-334 -135q-200 0 -332.5 135.5t-132.5 329.5z" />
    <glyph glyph-name="macron" unicode="&#xaf;" 
d="M244 1276v100h514v-100h-514z" />
    <glyph glyph-name="degree" unicode="&#xb0;" horiz-adv-x="561" 
d="M115 1221q0 -79 45 -128t121 -49t120.5 49t44.5 128t-44.5 127.5t-120.5 48.5t-121 -48.5t-45 -127.5zM41 1221q0 99 70 168t170 69t169.5 -68.5t69.5 -168.5t-69.5 -169t-169.5 -69t-170 69t-70 169z" />
    <glyph glyph-name="plusminus" unicode="&#xb1;" horiz-adv-x="1155" 
d="M526 1233h101v-305h399v-101h-399v-303h-101v303h-397v101h397v305zM129 299v100h897v-100h-897z" />
    <glyph glyph-name="twosuperior" unicode="&#xb2;" horiz-adv-x="753" 
d="M240 766h211q74 0 104.5 19.5t75.5 99.5h31l-27 -254h-574v26l211 205q109 110 151 181.5t42 150.5q0 74 -40.5 114t-113.5 40q-113 0 -205 -101l-24 21q45 81 120.5 134.5t176.5 53.5q111 0 171 -61t60 -168q0 -35 -8.5 -67.5t-30 -66.5t-41 -59.5t-59.5 -63.5
t-66 -61.5t-80.5 -70t-84.5 -72.5z" />
    <glyph glyph-name="threesuperior" unicode="&#xb3;" horiz-adv-x="733" 
d="M397 1081q117 -9 185.5 -72.5t68.5 -160.5q0 -111 -88 -175.5t-215 -64.5q-129 0 -202.5 51.5t-73.5 124.5q0 28 15 51.5t36 34.5h92q-8 -24 -8 -51q0 -166 153 -166q72 0 113 47t41 131q0 93 -60.5 140t-168.5 47h-31l-4 33q104 32 157.5 76.5t53.5 109.5q0 53 -33.5 86
t-97.5 33q-60 0 -107.5 -31t-75.5 -80l-38 21q37 87 110 139.5t174 52.5q102 0 154.5 -48.5t52.5 -125.5q0 -76 -59.5 -126t-143.5 -77z" />
    <glyph glyph-name="acute" unicode="&#xb4;" 
d="M471 1559h205v-11l-293 -336h-35z" />
    <glyph glyph-name="mu" unicode="&#xb5;" horiz-adv-x="1130" 
d="M309 39l25 -397v-25l-189 -20v1269q0 57 -20.5 77.5t-91.5 29.5l-33 4v47l315 57h23l-10 -223v-522q0 -236 182 -236q72 0 133 30.5t133 86.5v649q0 57 -20 77.5t-92 29.5l-31 4v47l311 57h23l-9 -215v-667q0 -55 15 -71.5t82 -23.5l53 -6v-43l-309 -75h-31l8 192
q-90 -90 -169 -141t-165 -51q-43 0 -80.5 16.5t-52.5 42.5z" />
    <glyph glyph-name="paragraph" unicode="&#xb6;" horiz-adv-x="1249" 
d="M662 -403v862q-133 0 -237.5 38.5t-169.5 106.5t-98.5 158t-33.5 196q0 218 137 349t402 131h538v-60q-111 -3 -160 -32.5t-49 -116.5v-1632h-78v1775h-174v-1775h-77zM662 524v848q-68 0 -123 -24t-90.5 -63.5t-59 -94t-33.5 -112t-10 -120.5q0 -80 17 -153.5t52 -138
t98.5 -103.5t148.5 -39z" />
    <glyph glyph-name="periodcentered" unicode="&#xb7;" horiz-adv-x="421" 
d="M61 618q0 63 43.5 106.5t106.5 43.5t106 -43.5t43 -106.5t-43 -106t-106 -43t-106.5 43t-43.5 106z" />
    <glyph glyph-name="cedilla" unicode="&#xb8;" 
d="M334 -453l-10 54q109 0 173 30t64 78q0 45 -43.5 67t-134.5 25l88 215h53l-45 -114q97 -2 151 -40t54 -112q0 -101 -95 -152t-255 -51z" />
    <glyph glyph-name="onesuperior" unicode="&#xb9;" horiz-adv-x="659" 
d="M365 1458h38v-696q0 -22 7 -36t17 -22.5t35.5 -13.5t47.5 -7t68 -5v-47h-496v47q46 3 67.5 5t47.5 7t35.5 13.5t16.5 22.5t7 36v510h-174v33l51 10q81 11 130 43.5t102 99.5z" />
    <glyph glyph-name="ordmasculine" unicode="&#xba;" horiz-adv-x="759" 
d="M383 801q83 0 128.5 76.5t45.5 207.5q0 87 -18.5 157t-60 115.5t-101.5 45.5q-83 0 -128.5 -77t-45.5 -208q0 -137 45.5 -227t134.5 -90zM377 745q-140 0 -228 94t-88 246q0 166 92 269.5t230 103.5q140 0 227.5 -94.5t87.5 -245.5q0 -167 -91.5 -270t-229.5 -103z" />
    <glyph glyph-name="guillemotright" unicode="&#xbb;" horiz-adv-x="915" 
d="M844 567v-12l-389 -393h-58l256 399l-256 400h58zM518 567v-12l-389 -393h-57l256 399l-256 400h57z" />
    <glyph glyph-name="onequarter" unicode="&#xbc;" horiz-adv-x="1544" 
d="M836 274h307v373zM365 1458h38v-696q0 -22 7 -36t17 -22.5t35.5 -13.5t47.5 -7t68 -5v-47h-496v47q46 3 67.5 5t47.5 7t35.5 13.5t16.5 22.5t7 36v510h-174v33l51 10q82 17 132 48t100 95zM301 -20l897 1478h78l-897 -1478h-78zM1423 0h-413v47q85 6 109 19.5t24 64.5v88
h-395v35l466 571h76v-551h162v-55h-162v-88q0 -51 24 -64.5t109 -19.5v-47z" />
    <glyph glyph-name="onehalf" unicode="&#xbd;" horiz-adv-x="1593" 
d="M365 1458h38v-696q0 -22 7 -36t17 -22.5t35.5 -13.5t47.5 -7t68 -5v-47h-496v47q46 3 67.5 5t47.5 7t35.5 13.5t16.5 22.5t7 36v510h-174v33l51 10q81 11 130 43.5t102 99.5zM301 -20l897 1478h78l-897 -1478h-78zM1079 135h211q74 0 104.5 19.5t75.5 99.5h31l-26 -254
h-574v27l211 204q109 110 151 181.5t42 150.5q0 74 -40.5 114t-113.5 40q-113 0 -205 -101l-24 21q45 81 120.5 134.5t176.5 53.5q111 0 171 -61t60 -168q0 -35 -8.5 -67.5t-30 -66.5t-41 -59.5t-59.5 -63.5t-66.5 -61.5t-80.5 -69.5t-85 -73z" />
    <glyph glyph-name="threequarters" unicode="&#xbe;" horiz-adv-x="1558" 
d="M399 1090q119 -7 185.5 -72t66.5 -164q0 -112 -88 -179t-215 -67q-129 0 -202.5 51.5t-73.5 124.5q0 28 15 51.5t36 34.5h92q-8 -24 -8 -51q0 -166 153 -166q72 0 113 47t41 131q0 93 -60.5 140t-168.5 47h-31l-4 33q103 32 156 76.5t53 109.5q0 52 -33 85.5t-96 33.5
q-60 0 -107.5 -31t-75.5 -80l-38 21q37 87 110 139.5t174 52.5q102 0 154.5 -48.5t52.5 -125.5q0 -129 -201 -194zM850 274h307v373zM315 -20l897 1478h78l-897 -1478h-78zM1438 0h-414v47q85 6 109 19.5t24 64.5v88h-395v35l467 571h76v-551h161v-55h-161v-88
q0 -51 24 -64.5t109 -19.5v-47z" />
    <glyph glyph-name="questiondown" unicode="&#xbf;" horiz-adv-x="868" 
d="M240 20q0 -108 55 -169.5t158 -61.5q99 0 150.5 62.5t51.5 158.5v90h150q43 -40 43 -98q0 -113 -113 -186.5t-278 -73.5q-180 0 -288 87.5t-108 254.5q0 49 16.5 95.5t40 82t66 76.5t76 67.5t88.5 67.5q87 63 122.5 120t35.5 146v66h20q66 -121 66 -201q0 -87 -40 -152.5
t-130 -136.5q-40 -31 -59.5 -47.5t-47.5 -46.5t-41 -55.5t-23.5 -63.5t-10.5 -82zM641 1079q0 -59 -41.5 -100t-99.5 -41q-59 0 -100.5 41.5t-41.5 99.5q0 59 42 100.5t100 41.5t99.5 -41.5t41.5 -100.5z" />
    <glyph glyph-name="Agrave" unicode="&#xc0;" horiz-adv-x="1425" 
d="M1055 225l-115 279h-584l-108 -277q-21 -54 -21 -82q0 -47 41.5 -67t145.5 -23v-55h-404v55q49 7 78 22.5t43 53.5l471 1190l-57 135h205l544 -1325q16 -38 44.5 -53.5t76.5 -22.5v-55h-524v55q103 3 143.5 22t40.5 66q0 30 -20 82zM643 1235l-262 -666h532zM397 1843
h215l113 -305h-35l-293 295v10z" />
    <glyph glyph-name="Aacute" unicode="&#xc1;" horiz-adv-x="1425" 
d="M1055 225l-115 279h-584l-108 -277q-21 -54 -21 -82q0 -47 41.5 -67t145.5 -23v-55h-404v55q49 7 78 22.5t43 53.5l471 1190l-57 135h205l544 -1325q16 -38 44.5 -53.5t76.5 -22.5v-55h-524v55q103 3 143.5 22t40.5 66q0 30 -20 82zM643 1235l-262 -666h532zM735 1843
h215v-10l-293 -295h-34z" />
    <glyph glyph-name="Acircumflex" unicode="&#xc2;" horiz-adv-x="1425" 
d="M1055 225l-115 279h-584l-108 -277q-21 -54 -21 -82q0 -47 41.5 -67t145.5 -23v-55h-404v55q49 7 78 22.5t43 53.5l471 1190l-57 135h205l544 -1325q16 -38 44.5 -53.5t76.5 -22.5v-55h-524v55q103 3 143.5 22t40.5 66q0 30 -20 82zM643 1235l-262 -666h532zM754 1864
l266 -326h-47l-289 193l-289 -193h-47l266 326h140z" />
    <glyph glyph-name="Atilde" unicode="&#xc3;" horiz-adv-x="1425" 
d="M1055 225l-115 279h-584l-108 -277q-21 -54 -21 -82q0 -47 41.5 -67t145.5 -23v-55h-404v55q49 7 78 22.5t43 53.5l471 1190l-57 135h205l544 -1325q16 -38 44.5 -53.5t76.5 -22.5v-55h-524v55q103 3 143.5 22t40.5 66q0 30 -20 82zM643 1235l-262 -666h532zM815 1538
q-37 0 -79.5 19t-74.5 41.5t-71.5 41.5t-69.5 19q-45 0 -80.5 -27.5t-68.5 -89.5l-37 21q58 136 104 186.5t115 50.5q37 0 79.5 -19t74.5 -41.5t71.5 -41.5t69.5 -19q45 0 80.5 27.5t68.5 89.5l37 -20q-58 -136 -104 -187t-115 -51z" />
    <glyph glyph-name="Adieresis" unicode="&#xc4;" horiz-adv-x="1425" 
d="M1055 225l-115 279h-584l-108 -277q-21 -54 -21 -82q0 -47 41.5 -67t145.5 -23v-55h-404v55q49 7 78 22.5t43 53.5l471 1190l-57 135h205l544 -1325q16 -38 44.5 -53.5t76.5 -22.5v-55h-524v55q103 3 143.5 22t40.5 66q0 30 -20 82zM643 1235l-262 -666h532zM362 1683
q0 53 36.5 90t88.5 37q54 0 90.5 -37t36.5 -90t-36.5 -90t-90.5 -37q-52 0 -88.5 37t-36.5 90zM754 1683q0 53 36.5 90t88.5 37q54 0 90.5 -37t36.5 -90t-36.5 -90t-90.5 -37q-52 0 -88.5 37t-36.5 90z" />
    <glyph glyph-name="Aring" unicode="&#xc5;" horiz-adv-x="1425" 
d="M1055 225l-115 279h-584l-108 -277q-21 -54 -21 -82q0 -47 41.5 -67t145.5 -23v-55h-404v55q49 7 78 22.5t43 53.5l471 1190l-57 135h205l544 -1325q16 -38 44.5 -53.5t76.5 -22.5v-55h-524v55q103 3 143.5 22t40.5 66q0 30 -20 82zM643 1235l-262 -666h532zM485 1679
q0 75 51 125.5t126 50.5t125.5 -50.5t50.5 -125.5t-50.5 -125.5t-125.5 -50.5t-126 50.5t-51 125.5zM551 1679q0 -52 30 -85t81 -33t80.5 33t29.5 85t-29.5 85.5t-80.5 33.5t-81 -33.5t-30 -85.5z" />
    <glyph glyph-name="AE" unicode="&#xc6;" horiz-adv-x="2048" 
d="M131 131l768 1165q-11 42 -64.5 60.5t-150.5 25.5v56h1233l10 -342h-41q-68 162 -130 218t-169 56h-366v-594h325q63 0 95.5 44t50.5 141h55v-437h-55q-18 97 -50.5 141t-95.5 44h-325v-502q0 -81 45 -110t155 -29h189q104 0 173.5 64.5t170.5 236.5h49l-61 -369h-1094
v55q51 6 77.5 11t50.5 14t33 24.5t14 37.5t5 59v303h-563l-182 -277q-33 -51 -33 -84q0 -88 199 -88v-55h-439v55q42 6 68 23t53 53zM1028 1360l-520 -791h520v791z" />
    <glyph glyph-name="Ccedilla" unicode="&#xc7;" horiz-adv-x="1286" 
d="M530 -453l-10 54q109 0 173.5 30t64.5 78q0 45 -43.5 67t-134.5 25l75 185q-272 32 -429.5 223t-157.5 479q0 173 51 318t140.5 243.5t213.5 153.5t268 55q259 0 445 -121v-299h-56q-34 173 -133 263t-256 90q-113 0 -202.5 -51t-146.5 -140t-86.5 -205t-29.5 -250
q0 -196 55 -352.5t166 -251t261 -94.5q165 0 264.5 97t144.5 311h62l-27 -365q-193 -110 -444 -110q-9 0 -26 1t-25 1l-31 -80q97 -2 151 -40t54 -112q0 -101 -95.5 -152t-255.5 -51z" />
    <glyph glyph-name="Egrave" unicode="&#xc8;" horiz-adv-x="1257" 
d="M57 0v55q43 5 67 9t47 11t33.5 15.5t19.5 24.5t11.5 36t2.5 50v1036q0 85 -31 108t-150 37v56h1069l11 -342h-41q-68 162 -130 218t-169 56h-367v-594h326q63 0 95 44t50 141h55v-437h-55q-18 97 -50 141t-95 44h-326v-502q0 -81 45.5 -110t155.5 -29h188
q104 0 173.5 64.5t170.5 236.5h49l-61 -369h-1094zM426 1843h215l113 -305h-35l-293 295v10z" />
    <glyph glyph-name="Eacute" unicode="&#xc9;" horiz-adv-x="1257" 
d="M57 0v55q43 5 67 9t47 11t33.5 15.5t19.5 24.5t11.5 36t2.5 50v1036q0 85 -31 108t-150 37v56h1069l11 -342h-41q-68 162 -130 218t-169 56h-367v-594h326q63 0 95 44t50 141h55v-437h-55q-18 97 -50 141t-95 44h-326v-502q0 -81 45.5 -110t155.5 -29h188
q104 0 173.5 64.5t170.5 236.5h49l-61 -369h-1094zM723 1843h215v-10l-293 -295h-35z" />
    <glyph glyph-name="Ecircumflex" unicode="&#xca;" horiz-adv-x="1257" 
d="M57 0v55q43 5 67 9t47 11t33.5 15.5t19.5 24.5t11.5 36t2.5 50v1036q0 85 -31 108t-150 37v56h1069l11 -342h-41q-68 162 -130 218t-169 56h-367v-594h326q63 0 95 44t50 141h55v-437h-55q-18 97 -50 141t-95 44h-326v-502q0 -81 45.5 -110t155.5 -29h188
q104 0 173.5 64.5t170.5 236.5h49l-61 -369h-1094zM741 1864l267 -326h-47l-289 193l-289 -193h-47l266 326h139z" />
    <glyph glyph-name="Edieresis" unicode="&#xcb;" horiz-adv-x="1257" 
d="M57 0v55q43 5 67 9t47 11t33.5 15.5t19.5 24.5t11.5 36t2.5 50v1036q0 85 -31 108t-150 37v56h1069l11 -342h-41q-68 162 -130 218t-169 56h-367v-594h326q63 0 95 44t50 141h55v-437h-55q-18 97 -50 141t-95 44h-326v-502q0 -81 45.5 -110t155.5 -29h188
q104 0 173.5 64.5t170.5 236.5h49l-61 -369h-1094zM350 1683q0 53 36.5 90t88.5 37q54 0 90.5 -37t36.5 -90t-36.5 -90t-90.5 -37q-52 0 -88.5 37t-36.5 90zM741 1683q0 53 36.5 90t88.5 37q54 0 90.5 -37t36.5 -90t-36.5 -90t-90.5 -37q-52 0 -88.5 37t-36.5 90z" />
    <glyph glyph-name="Igrave" unicode="&#xcc;" horiz-adv-x="667" 
d="M430 1237v-1036q0 -37 5 -59t14 -37.5t33 -24.5t50.5 -14t77.5 -11v-55h-553v55q43 5 67 9t47 11t33.5 15.5t19.5 24.5t11.5 36t2.5 50v1036q0 85 -31 108t-150 37v56h553v-56q-43 -5 -66.5 -8.5t-47 -11t-34 -16t-19 -24t-11 -35t-2.5 -50.5zM88 1843h215l113 -305h-35
l-293 295v10z" />
    <glyph glyph-name="Iacute" unicode="&#xcd;" horiz-adv-x="667" 
d="M430 1237v-1036q0 -37 5 -59t14 -37.5t33 -24.5t50.5 -14t77.5 -11v-55h-553v55q43 5 67 9t47 11t33.5 15.5t19.5 24.5t11.5 36t2.5 50v1036q0 85 -31 108t-150 37v56h553v-56q-43 -5 -66.5 -8.5t-47 -11t-34 -16t-19 -24t-11 -35t-2.5 -50.5zM385 1843h215v-10
l-293 -295h-35z" />
    <glyph glyph-name="Icircumflex" unicode="&#xce;" horiz-adv-x="667" 
d="M430 1237v-1036q0 -37 5 -59t14 -37.5t33 -24.5t50.5 -14t77.5 -11v-55h-553v55q43 5 67 9t47 11t33.5 15.5t19.5 24.5t11.5 36t2.5 50v1036q0 85 -31 108t-150 37v56h553v-56q-43 -5 -66.5 -8.5t-47 -11t-34 -16t-19 -24t-11 -35t-2.5 -50.5zM397 1864l242 -328h-43
l-262 193l-262 -193h-43l241 328h127z" />
    <glyph glyph-name="Idieresis" unicode="&#xcf;" horiz-adv-x="667" 
d="M430 1237v-1036q0 -37 5 -59t14 -37.5t33 -24.5t50.5 -14t77.5 -11v-55h-553v55q43 5 67 9t47 11t33.5 15.5t19.5 24.5t11.5 36t2.5 50v1036q0 85 -31 108t-150 37v56h553v-56q-43 -5 -66.5 -8.5t-47 -11t-34 -16t-19 -24t-11 -35t-2.5 -50.5zM12 1683q0 53 36.5 90
t88.5 37q54 0 90.5 -37t36.5 -90t-36.5 -90t-90.5 -37q-52 0 -88.5 37t-36.5 90zM403 1683q0 53 36.5 90t88.5 37q54 0 90.5 -37t36.5 -90t-36.5 -90t-90.5 -37q-52 0 -88.5 37t-36.5 90z" />
    <glyph glyph-name="Eth" unicode="&#xd0;" horiz-adv-x="1468" 
d="M78 709v69h180v459q0 31 -2.5 50.5t-11 35t-19 24t-34 16t-47 11t-66.5 8.5v56h581q151 0 275 -36.5t209.5 -99.5t144.5 -149.5t86 -185t27 -207.5q0 -177 -56.5 -322.5t-154 -240t-226.5 -146t-276 -51.5h-610v55q51 6 77.5 11t50.5 14t33 24.5t14 37.5t5 59v508h-180z
M623 1370h-172v-592h292v-69h-292v-496q0 -87 40.5 -116t141.5 -29h55q109 0 199.5 41t158 120t105 203t37.5 281q0 105 -18 198.5t-60.5 178.5t-106.5 146.5t-161 97.5t-219 36z" />
    <glyph glyph-name="Ntilde" unicode="&#xd1;" horiz-adv-x="1513" 
d="M1217 342v891q0 86 -35.5 111.5t-165.5 37.5v56h461v-56q-117 -14 -149 -38.5t-32 -110.5v-1241h-51l-923 1190v-977q0 -87 35.5 -112.5t164.5 -37.5v-55h-461v55q117 14 149 39t32 111v1052q-58 74 -91.5 98t-93.5 27v56h318zM926 1538q-37 0 -79.5 19t-74.5 41.5
t-71.5 41.5t-69.5 19q-45 0 -81 -27.5t-69 -89.5l-37 21q58 135 104 186t116 51q37 0 79 -19t74.5 -41.5t71.5 -41.5t69 -19q45 0 81 27.5t69 89.5l37 -20q-58 -136 -104 -187t-115 -51z" />
    <glyph glyph-name="Ograve" unicode="&#xd2;" horiz-adv-x="1425" 
d="M721 47q133 0 230.5 92.5t145.5 242.5t48 337q0 97 -16.5 191.5t-52.5 182t-87 153.5t-125 105.5t-162 39.5q-133 0 -230.5 -92.5t-145 -242.5t-47.5 -337q0 -123 27 -239.5t79.5 -214.5t139.5 -158t196 -60zM705 -20q-149 0 -271.5 58.5t-201.5 157.5t-121.5 226.5
t-42.5 267.5q0 172 51 317t139 243.5t207 153t254 54.5q149 0 272 -58.5t202 -157.5t122 -226.5t43 -267.5q0 -172 -51 -317t-139.5 -243.5t-208 -153t-254.5 -54.5zM467 1843h215l113 -305h-35l-293 295v10z" />
    <glyph glyph-name="Oacute" unicode="&#xd3;" horiz-adv-x="1425" 
d="M721 47q133 0 230.5 92.5t145.5 242.5t48 337q0 97 -16.5 191.5t-52.5 182t-87 153.5t-125 105.5t-162 39.5q-133 0 -230.5 -92.5t-145 -242.5t-47.5 -337q0 -123 27 -239.5t79.5 -214.5t139.5 -158t196 -60zM705 -20q-149 0 -271.5 58.5t-201.5 157.5t-121.5 226.5
t-42.5 267.5q0 172 51 317t139 243.5t207 153t254 54.5q149 0 272 -58.5t202 -157.5t122 -226.5t43 -267.5q0 -172 -51 -317t-139.5 -243.5t-208 -153t-254.5 -54.5zM764 1843h215v-10l-293 -295h-35z" />
    <glyph glyph-name="Ocircumflex" unicode="&#xd4;" horiz-adv-x="1425" 
d="M721 47q133 0 230.5 92.5t145.5 242.5t48 337q0 97 -16.5 191.5t-52.5 182t-87 153.5t-125 105.5t-162 39.5q-133 0 -230.5 -92.5t-145 -242.5t-47.5 -337q0 -123 27 -239.5t79.5 -214.5t139.5 -158t196 -60zM705 -20q-149 0 -271.5 58.5t-201.5 157.5t-121.5 226.5
t-42.5 267.5q0 172 51 317t139 243.5t207 153t254 54.5q149 0 272 -58.5t202 -157.5t122 -226.5t43 -267.5q0 -172 -51 -317t-139.5 -243.5t-208 -153t-254.5 -54.5zM782 1864l267 -326h-48l-288 193l-289 -193h-47l266 326h139z" />
    <glyph glyph-name="Otilde" unicode="&#xd5;" horiz-adv-x="1425" 
d="M721 47q133 0 230.5 92.5t145.5 242.5t48 337q0 97 -16.5 191.5t-52.5 182t-87 153.5t-125 105.5t-162 39.5q-133 0 -230.5 -92.5t-145 -242.5t-47.5 -337q0 -123 27 -239.5t79.5 -214.5t139.5 -158t196 -60zM705 -20q-149 0 -271.5 58.5t-201.5 157.5t-121.5 226.5
t-42.5 267.5q0 172 51 317t139 243.5t207 153t254 54.5q149 0 272 -58.5t202 -157.5t122 -226.5t43 -267.5q0 -172 -51 -317t-139.5 -243.5t-208 -153t-254.5 -54.5zM856 1538q-37 0 -79.5 19t-74.5 41.5t-71.5 41.5t-69.5 19q-45 0 -80.5 -27.5t-68.5 -89.5l-37 21
q58 136 104 186.5t115 50.5q37 0 79.5 -19t74.5 -41.5t71.5 -41.5t69.5 -19q45 0 80.5 27.5t68.5 89.5l37 -20q-58 -136 -104 -187t-115 -51z" />
    <glyph glyph-name="Odieresis" unicode="&#xd6;" horiz-adv-x="1425" 
d="M721 47q133 0 230.5 92.5t145.5 242.5t48 337q0 97 -16.5 191.5t-52.5 182t-87 153.5t-125 105.5t-162 39.5q-133 0 -230.5 -92.5t-145 -242.5t-47.5 -337q0 -123 27 -239.5t79.5 -214.5t139.5 -158t196 -60zM705 -20q-149 0 -271.5 58.5t-201.5 157.5t-121.5 226.5
t-42.5 267.5q0 172 51 317t139 243.5t207 153t254 54.5q149 0 272 -58.5t202 -157.5t122 -226.5t43 -267.5q0 -172 -51 -317t-139.5 -243.5t-208 -153t-254.5 -54.5zM391 1683q0 53 36.5 90t88.5 37q54 0 90.5 -37t36.5 -90t-36.5 -90t-90.5 -37q-52 0 -88.5 37t-36.5 90z
M782 1683q0 53 36.5 90t88.5 37q54 0 90.5 -37t36.5 -90t-36.5 -90t-90.5 -37q-52 0 -88.5 37t-36.5 90z" />
    <glyph glyph-name="multiply" unicode="&#xd7;" horiz-adv-x="999" 
d="M430 750l-293 292l70 70l293 -295l293 295l69 -70l-293 -292l293 -293l-69 -70l-293 295l-293 -295l-70 70z" />
    <glyph glyph-name="Oslash" unicode="&#xd8;" horiz-adv-x="1425" 
d="M705 -20q-205 0 -355 106l-125 -195l-53 35l129 199q-113 98 -173 247t-60 318q0 172 51 317t139 243.5t207 153t254 54.5q213 0 371 -119l116 181l54 -35l-121 -187q106 -100 162.5 -244t56.5 -306q0 -172 -51 -317t-139.5 -243.5t-208 -153t-254.5 -54.5zM279 719
q0 -271 108 -459l623 957q-120 174 -308 174q-133 0 -230.5 -92.5t-145 -242.5t-47.5 -337zM721 47q133 0 230.5 92.5t145.5 242.5t48 337q0 250 -98 436l-621 -954q121 -154 295 -154z" />
    <glyph glyph-name="Ugrave" unicode="&#xd9;" horiz-adv-x="1456" 
d="M391 1237v-733q0 -197 93 -308.5t261 -111.5q207 0 319 107.5t112 328.5v713q0 86 -35.5 111.5t-165.5 37.5v56h461v-56q-117 -14 -149 -38.5t-32 -110.5v-748q0 -126 -40 -223.5t-110.5 -158.5t-162.5 -92t-201 -31q-256 0 -399 127.5t-143 384.5v745q0 85 -31 108
t-150 37v56h553v-56q-43 -5 -66.5 -8.5t-47 -11t-34 -16t-19 -24t-11 -35t-2.5 -50.5zM526 1843h215l113 -305h-35l-293 295v10z" />
    <glyph glyph-name="Uacute" unicode="&#xda;" horiz-adv-x="1456" 
d="M391 1237v-733q0 -197 93 -308.5t261 -111.5q207 0 319 107.5t112 328.5v713q0 86 -35.5 111.5t-165.5 37.5v56h461v-56q-117 -14 -149 -38.5t-32 -110.5v-748q0 -126 -40 -223.5t-110.5 -158.5t-162.5 -92t-201 -31q-256 0 -399 127.5t-143 384.5v745q0 85 -31 108
t-150 37v56h553v-56q-43 -5 -66.5 -8.5t-47 -11t-34 -16t-19 -24t-11 -35t-2.5 -50.5zM823 1843h215v-10l-293 -295h-34z" />
    <glyph glyph-name="Ucircumflex" unicode="&#xdb;" horiz-adv-x="1456" 
d="M391 1237v-733q0 -197 93 -308.5t261 -111.5q207 0 319 107.5t112 328.5v713q0 86 -35.5 111.5t-165.5 37.5v56h461v-56q-117 -14 -149 -38.5t-32 -110.5v-748q0 -126 -40 -223.5t-110.5 -158.5t-162.5 -92t-201 -31q-256 0 -399 127.5t-143 384.5v745q0 85 -31 108
t-150 37v56h553v-56q-43 -5 -66.5 -8.5t-47 -11t-34 -16t-19 -24t-11 -35t-2.5 -50.5zM842 1864l266 -326h-47l-289 193l-289 -193h-47l266 326h140z" />
    <glyph glyph-name="Udieresis" unicode="&#xdc;" horiz-adv-x="1456" 
d="M391 1237v-733q0 -197 93 -308.5t261 -111.5q207 0 319 107.5t112 328.5v713q0 86 -35.5 111.5t-165.5 37.5v56h461v-56q-117 -14 -149 -38.5t-32 -110.5v-748q0 -126 -40 -223.5t-110.5 -158.5t-162.5 -92t-201 -31q-256 0 -399 127.5t-143 384.5v745q0 85 -31 108
t-150 37v56h553v-56q-43 -5 -66.5 -8.5t-47 -11t-34 -16t-19 -24t-11 -35t-2.5 -50.5zM451 1683q0 53 36 90t88 37q54 0 90.5 -37t36.5 -90t-36.5 -90t-90.5 -37q-52 0 -88 37t-36 90zM842 1683q0 53 36.5 90t88.5 37q54 0 90.5 -37t36.5 -90t-36.5 -90t-90.5 -37
q-52 0 -88.5 37t-36.5 90z" />
    <glyph glyph-name="Yacute" unicode="&#xdd;" horiz-adv-x="1271" 
d="M723 580v-383q0 -20 2.5 -35.5t6 -27.5t12.5 -22t15 -16.5t22.5 -12.5t26 -9t33 -7t37 -6t44.5 -6v-55h-582v55q45 6 64.5 9t49 10t41 15t25 23t17.5 35.5t4 49.5v381l-410 729q-22 38 -48.5 53.5t-72.5 21.5v56h522v-56q-105 -3 -143.5 -18.5t-38.5 -56.5q0 -12 4 -25
t7 -20.5t13 -26t13 -23.5l309 -544l308 542q34 66 34 99q0 41 -37 55.5t-143 17.5v56h404v-56q-44 -6 -72 -22.5t-49 -52.5zM715 1843h215v-10l-293 -295h-35z" />
    <glyph glyph-name="Thorn" unicode="&#xde;" horiz-adv-x="1189" 
d="M430 1237v-82h168q134 0 240 -34.5t171 -93t98.5 -133t33.5 -159.5q0 -195 -138 -312.5t-397 -117.5h-176v-78q0 -92 50 -124t204 -44v-59h-627v55q43 5 67 9t47 11t33.5 15.5t19.5 24.5t11.5 36t2.5 50v1036q0 85 -31 108t-150 37v56h553v-56q-43 -5 -66.5 -8.5t-47 -11
t-34 -16t-19 -24t-11 -35t-2.5 -50.5zM430 1087v-714h135q189 0 277 90t88 264q0 75 -21 139t-64 114t-114.5 78.5t-165.5 28.5h-135z" />
    <glyph glyph-name="germandbls" unicode="&#xdf;" horiz-adv-x="1253" 
d="M614 1604q167 0 272 -88.5t105 -217.5q0 -69 -30 -127.5t-73.5 -98t-86.5 -74t-73 -72t-30 -76.5q0 -16 5.5 -31t19 -29.5t27.5 -26.5t39.5 -27.5t45 -27t54.5 -31.5t59 -34q61 -36 99 -64.5t74.5 -68.5t53.5 -90t17 -113q0 -141 -105 -234t-249 -93q-196 0 -312 110
l-12 272h57q32 -147 98.5 -235t172.5 -88q96 0 147 52t51 145q0 23 -4.5 44t-9 37.5t-18.5 35t-21.5 29.5t-30.5 29t-33.5 26t-41.5 26.5t-43 25.5t-50 29q-110 63 -156 117t-46 137q0 47 26 94t63 89.5t74 89.5t63 112.5t26 140.5q0 119 -55.5 187.5t-168.5 68.5
q-119 0 -182 -95t-63 -273v-1186h-326v53q84 5 112.5 24.5t28.5 78.5v831h-151v29l151 61v64q0 118 36 209t97.5 145.5t136.5 81.5t160 27z" />
    <glyph glyph-name="agrave" unicode="&#xe0;" horiz-adv-x="1007" 
d="M418 100q59 0 109.5 25.5t119.5 83.5v385l-246 -100q-81 -32 -121 -80.5t-40 -126.5q0 -85 46 -136t132 -51zM834 770v-543q0 -70 18 -102.5t61 -32.5q35 0 95 27l10 -31q-72 -108 -197 -108q-74 0 -118 49.5t-52 136.5q-159 -186 -329 -186q-119 0 -190 70.5t-71 185.5
q0 62 21.5 110.5t64.5 84.5t90 60t115 50l295 110v140q0 112 -45.5 177.5t-142.5 65.5q-84 0 -125 -49.5t-41 -132.5q0 -50 14 -107l-108 -16q-80 25 -80 113q0 113 103 178t263 65q176 0 262.5 -77.5t86.5 -237.5zM244 1559h205l122 -347h-34l-293 336v11z" />
    <glyph glyph-name="aacute" unicode="&#xe1;" horiz-adv-x="1007" 
d="M418 100q59 0 109.5 25.5t119.5 83.5v385l-246 -100q-81 -32 -121 -80.5t-40 -126.5q0 -85 46 -136t132 -51zM834 770v-543q0 -70 18 -102.5t61 -32.5q35 0 95 27l10 -31q-72 -108 -197 -108q-74 0 -118 49.5t-52 136.5q-159 -186 -329 -186q-119 0 -190 70.5t-71 185.5
q0 62 21.5 110.5t64.5 84.5t90 60t115 50l295 110v140q0 112 -45.5 177.5t-142.5 65.5q-84 0 -125 -49.5t-41 -132.5q0 -50 14 -107l-108 -16q-80 25 -80 113q0 113 103 178t263 65q176 0 262.5 -77.5t86.5 -237.5zM551 1559h205v-11l-293 -336h-35z" />
    <glyph glyph-name="acircumflex" unicode="&#xe2;" horiz-adv-x="1007" 
d="M418 100q59 0 109.5 25.5t119.5 83.5v385l-246 -100q-81 -32 -121 -80.5t-40 -126.5q0 -85 46 -136t132 -51zM834 770v-543q0 -70 18 -102.5t61 -32.5q35 0 95 27l10 -31q-72 -108 -197 -108q-74 0 -118 49.5t-52 136.5q-159 -186 -329 -186q-119 0 -190 70.5t-71 185.5
q0 62 21.5 110.5t64.5 84.5t90 60t115 50l295 110v140q0 112 -45.5 177.5t-142.5 65.5q-84 0 -125 -49.5t-41 -132.5q0 -50 14 -107l-108 -16q-80 25 -80 113q0 113 103 178t263 65q176 0 262.5 -77.5t86.5 -237.5zM559 1567l225 -355h-53l-242 222l-241 -222h-53l225 355
h139z" />
    <glyph glyph-name="atilde" unicode="&#xe3;" horiz-adv-x="1007" 
d="M418 100q59 0 109.5 25.5t119.5 83.5v385l-246 -100q-81 -32 -121 -80.5t-40 -126.5q0 -85 46 -136t132 -51zM834 770v-543q0 -70 18 -102.5t61 -32.5q35 0 95 27l10 -31q-72 -108 -197 -108q-74 0 -118 49.5t-52 136.5q-159 -186 -329 -186q-119 0 -190 70.5t-71 185.5
q0 62 21.5 110.5t64.5 84.5t90 60t115 50l295 110v140q0 112 -45.5 177.5t-142.5 65.5q-84 0 -125 -49.5t-41 -132.5q0 -50 14 -107l-108 -16q-80 25 -80 113q0 113 103 178t263 65q176 0 262.5 -77.5t86.5 -237.5zM610 1231q-37 0 -76 19t-67.5 41.5t-64.5 41.5t-66 19
q-43 0 -74 -26.5t-65 -90.5l-37 20q60 140 100.5 189t108.5 49q37 0 76 -19t67.5 -41.5t64.5 -41.5t66 -19q43 0 74 26.5t65 90.5l37 -21q-60 -140 -100.5 -188.5t-108.5 -48.5z" />
    <glyph glyph-name="adieresis" unicode="&#xe4;" horiz-adv-x="1007" 
d="M418 100q59 0 109.5 25.5t119.5 83.5v385l-246 -100q-81 -32 -121 -80.5t-40 -126.5q0 -85 46 -136t132 -51zM834 770v-543q0 -70 18 -102.5t61 -32.5q35 0 95 27l10 -31q-72 -108 -197 -108q-74 0 -118 49.5t-52 136.5q-159 -186 -329 -186q-119 0 -190 70.5t-71 185.5
q0 62 21.5 110.5t64.5 84.5t90 60t115 50l295 110v140q0 112 -45.5 177.5t-142.5 65.5q-84 0 -125 -49.5t-41 -132.5q0 -50 14 -107l-108 -16q-80 25 -80 113q0 113 103 178t263 65q176 0 262.5 -77.5t86.5 -237.5zM178 1372q0 53 36.5 90t88.5 37q54 0 90.5 -37t36.5 -90
t-36.5 -90t-90.5 -37q-52 0 -88.5 37t-36.5 90zM549 1372q0 53 36.5 90t88.5 37q54 0 90.5 -37t36.5 -90t-36.5 -90t-90.5 -37q-52 0 -88.5 37t-36.5 90z" />
    <glyph glyph-name="aring" unicode="&#xe5;" horiz-adv-x="1007" 
d="M418 100q59 0 109.5 25.5t119.5 83.5v385l-246 -100q-81 -32 -121 -80.5t-40 -126.5q0 -85 46 -136t132 -51zM834 770v-543q0 -70 18 -102.5t61 -32.5q35 0 95 27l10 -31q-72 -108 -197 -108q-74 0 -118 49.5t-52 136.5q-159 -186 -329 -186q-119 0 -190 70.5t-71 185.5
q0 62 21.5 110.5t64.5 84.5t90 60t115 50l295 110v140q0 112 -45.5 177.5t-142.5 65.5q-84 0 -125 -49.5t-41 -132.5q0 -50 14 -107l-108 -16q-80 25 -80 113q0 113 103 178t263 65q176 0 262.5 -77.5t86.5 -237.5zM379 1335q0 -52 29.5 -85t80.5 -33t81 33t30 85t-30 85.5
t-81 33.5t-80.5 -33.5t-29.5 -85.5zM313 1335q0 75 50.5 125.5t125.5 50.5t126 -50.5t51 -125.5t-51 -125.5t-126 -50.5t-125.5 50.5t-50.5 125.5z" />
    <glyph glyph-name="ae" unicode="&#xe6;" horiz-adv-x="1497" 
d="M1063 1085q182 0 283.5 -117t101.5 -296v-43h-672q-10 -242 89.5 -377t264.5 -135q105 0 178 46t130 136l24 -12q-38 -139 -143 -223t-260 -84q-121 0 -213.5 52t-151.5 144q-62 -81 -160 -138.5t-212 -57.5q-119 0 -190 70.5t-71 185.5q0 62 21.5 110.5t64.5 84.5t90 60
t115 50l269 94q9 53 24 102q-1 83 -19.5 147t-64.5 107t-115 43q-75 0 -114 -50t-39 -132q0 -50 14 -107l-108 -16q-80 25 -80 113q0 111 99.5 177t242.5 66q102 0 177 -38.5t114 -108.5q128 147 311 147zM418 100q60 0 128 28t130 81q-66 129 -66 293q0 46 2 71l-211 -79
q-81 -32 -121 -80.5t-40 -126.5q0 -85 46 -136t132 -51zM1047 1020q-113 0 -181 -93t-84 -239h488q0 96 -21.5 168.5t-73 118t-128.5 45.5z" />
    <glyph glyph-name="ccedilla" unicode="&#xe7;" horiz-adv-x="901" 
d="M289 -453l-10 54q109 0 173 30t64 78q0 45 -43.5 67t-134.5 25l76 187q-165 28 -265 165t-100 343q0 168 59.5 301t173.5 210.5t263 77.5q144 0 224.5 -58t80.5 -159q0 -40 -17.5 -74t-48.5 -51h-116q8 46 8 86q0 193 -168 193q-135 0 -215 -124t-80 -312
q0 -207 92.5 -334t249.5 -127q187 0 299 170l25 -12q-46 -146 -144.5 -224.5t-238.5 -78.5q-21 0 -31 2l-31 -80q97 -2 151 -40t54 -112q0 -101 -95 -152t-255 -51z" />
    <glyph glyph-name="egrave" unicode="&#xe8;" horiz-adv-x="946" 
d="M512 1085q183 0 284 -113.5t101 -291.5v-43h-680q-10 -241 93.5 -380.5t269.5 -139.5q105 0 177 46t130 136l24 -12q-38 -139 -143 -223t-260 -84q-141 0 -246.5 71t-158 188.5t-52.5 262.5q0 252 131.5 417.5t329.5 165.5zM496 1020q-114 0 -185.5 -90.5t-87.5 -233.5
h496q0 147 -54.5 235.5t-168.5 88.5zM289 1559h205l122 -347h-34l-293 336v11z" />
    <glyph glyph-name="eacute" unicode="&#xe9;" horiz-adv-x="946" 
d="M512 1085q183 0 284 -113.5t101 -291.5v-43h-680q-10 -241 93.5 -380.5t269.5 -139.5q105 0 177 46t130 136l24 -12q-38 -139 -143 -223t-260 -84q-141 0 -246.5 71t-158 188.5t-52.5 262.5q0 252 131.5 417.5t329.5 165.5zM496 1020q-114 0 -185.5 -90.5t-87.5 -233.5
h496q0 147 -54.5 235.5t-168.5 88.5zM596 1559h205v-11l-293 -336h-35z" />
    <glyph glyph-name="ecircumflex" unicode="&#xea;" horiz-adv-x="946" 
d="M512 1085q183 0 284 -113.5t101 -291.5v-43h-680q-10 -241 93.5 -380.5t269.5 -139.5q105 0 177 46t130 136l24 -12q-38 -139 -143 -223t-260 -84q-141 0 -246.5 71t-158 188.5t-52.5 262.5q0 252 131.5 417.5t329.5 165.5zM496 1020q-114 0 -185.5 -90.5t-87.5 -233.5
h496q0 147 -54.5 235.5t-168.5 88.5zM594 1567l225 -355h-53l-242 222l-241 -222h-54l226 355h139z" />
    <glyph glyph-name="edieresis" unicode="&#xeb;" horiz-adv-x="946" 
d="M512 1085q183 0 284 -113.5t101 -291.5v-43h-680q-10 -241 93.5 -380.5t269.5 -139.5q105 0 177 46t130 136l24 -12q-38 -139 -143 -223t-260 -84q-141 0 -246.5 71t-158 188.5t-52.5 262.5q0 252 131.5 417.5t329.5 165.5zM496 1020q-114 0 -185.5 -90.5t-87.5 -233.5
h496q0 147 -54.5 235.5t-168.5 88.5zM213 1372q0 53 36.5 90t88.5 37q54 0 90.5 -37t36.5 -90t-36.5 -90t-90.5 -37q-52 0 -88.5 37t-36.5 90zM584 1372q0 53 36.5 90t88.5 37q54 0 90.5 -37t36.5 -90t-36.5 -90t-90.5 -37q-52 0 -88.5 37t-36.5 90z" />
    <glyph glyph-name="igrave" unicode="&#xec;" horiz-adv-x="540" 
d="M369 1085v-929q0 -59 28.5 -78.5t112.5 -24.5v-53h-467v53q84 5 112.5 24.5t28.5 78.5v733l-133 72v22l293 102h25zM31 1559h205l122 -347h-34l-293 336v11z" />
    <glyph glyph-name="iacute" unicode="&#xed;" horiz-adv-x="540" 
d="M369 1085v-929q0 -59 28.5 -78.5t112.5 -24.5v-53h-467v53q84 5 112.5 24.5t28.5 78.5v733l-133 72v22l293 102h25zM338 1559h205v-11l-293 -336h-35z" />
    <glyph glyph-name="icircumflex" unicode="&#xee;" horiz-adv-x="540" 
d="M369 1085v-929q0 -59 28.5 -78.5t112.5 -24.5v-53h-467v53q84 5 112.5 24.5t28.5 78.5v733l-133 72v22l293 102h25zM332 1567l205 -357h-50l-217 224l-219 -224h-47l203 357h125z" />
    <glyph glyph-name="idieresis" unicode="&#xef;" horiz-adv-x="540" 
d="M-29 1372q0 53 36.5 90t88.5 37q54 0 90.5 -37t36.5 -90t-36.5 -90t-90.5 -37q-52 0 -88.5 37t-36.5 90zM322 1372q0 53 36 90t88 37q54 0 90.5 -37t36.5 -90t-36.5 -90t-90.5 -37q-52 0 -88 37t-36 90zM369 1085v-929q0 -59 28.5 -78.5t112.5 -24.5v-53h-467v53
q84 5 112.5 24.5t28.5 78.5v733l-133 72v22l293 102h25z" />
    <glyph glyph-name="eth" unicode="&#xf0;" horiz-adv-x="1060" 
d="M236 1198l-23 57l309 119q-134 127 -293 185l25 45q207 -70 364 -193l205 78l23 -57l-172 -66q163 -147 250.5 -342t87.5 -408q0 -286 -131.5 -461t-341.5 -175q-221 0 -355.5 146.5t-134.5 389.5q0 127 39.5 235.5t105 180.5t151.5 112.5t179 40.5q168 0 262 -145
q-26 94 -82 195.5t-135 189.5zM537 43q134 0 208 127t74 338q0 104 -18 195t-52.5 163t-91.5 114t-129 42q-134 0 -208 -127t-74 -338q0 -104 18 -195t52.5 -163t91.5 -114t129 -42z" />
    <glyph glyph-name="ntilde" unicode="&#xf1;" horiz-adv-x="1183" 
d="M834 156v596q0 112 -45.5 163.5t-137.5 51.5q-139 0 -282 -125v-686q0 -59 28.5 -78.5t112.5 -24.5v-53h-467v53q84 5 112.5 24.5t28.5 78.5v733l-133 72v22l301 102h25l-8 -194q176 194 372 194q141 0 209 -81.5t68 -247.5v-600q0 -59 28.5 -78.5t112.5 -24.5v-53h-467
v53q84 5 113 24.5t29 78.5zM735 1231q-37 0 -76 19t-67.5 41.5t-64.5 41.5t-66 19q-43 0 -74 -26.5t-65 -90.5l-37 20q60 140 100.5 189t108.5 49q37 0 76 -19t67.5 -41.5t64.5 -41.5t66 -19q43 0 74 26.5t65 90.5l37 -21q-60 -140 -100.5 -188.5t-108.5 -48.5z" />
    <glyph glyph-name="ograve" unicode="&#xf2;" horiz-adv-x="1060" 
d="M535 43q134 0 208 127t74 338q0 104 -18 195t-52.5 163t-91.5 114t-129 42q-134 0 -208 -127t-74 -338q0 -104 18 -195t52.5 -163t91.5 -114t129 -42zM524 -20q-214 0 -344.5 145t-130.5 381q0 259 140 419t348 160q214 0 344.5 -146.5t130.5 -379.5q0 -259 -140 -419
t-348 -160zM285 1559h204l123 -347h-34l-293 336v11z" />
    <glyph glyph-name="oacute" unicode="&#xf3;" horiz-adv-x="1060" 
d="M535 43q134 0 208 127t74 338q0 104 -18 195t-52.5 163t-91.5 114t-129 42q-134 0 -208 -127t-74 -338q0 -104 18 -195t52.5 -163t91.5 -114t129 -42zM524 -20q-214 0 -344.5 145t-130.5 381q0 259 140 419t348 160q214 0 344.5 -146.5t130.5 -379.5q0 -259 -140 -419
t-348 -160zM592 1559h205v-11l-293 -336h-35z" />
    <glyph glyph-name="ocircumflex" unicode="&#xf4;" horiz-adv-x="1060" 
d="M535 43q134 0 208 127t74 338q0 104 -18 195t-52.5 163t-91.5 114t-129 42q-134 0 -208 -127t-74 -338q0 -104 18 -195t52.5 -163t91.5 -114t129 -42zM524 -20q-214 0 -344.5 145t-130.5 381q0 259 140 419t348 160q214 0 344.5 -146.5t130.5 -379.5q0 -259 -140 -419
t-348 -160zM600 1567l225 -355h-53l-242 222l-241 -222h-53l225 355h139z" />
    <glyph glyph-name="otilde" unicode="&#xf5;" horiz-adv-x="1060" 
d="M535 43q134 0 208 127t74 338q0 104 -18 195t-52.5 163t-91.5 114t-129 42q-134 0 -208 -127t-74 -338q0 -104 18 -195t52.5 -163t91.5 -114t129 -42zM524 -20q-214 0 -344.5 145t-130.5 381q0 259 140 419t348 160q214 0 344.5 -146.5t130.5 -379.5q0 -259 -140 -419
t-348 -160zM662 1231q-37 0 -76 19t-67.5 41.5t-65 41.5t-66.5 19q-43 0 -74 -26.5t-65 -90.5l-37 20q60 140 100.5 189t108.5 49q37 0 76 -19t67.5 -41.5t64.5 -41.5t66 -19q44 0 75 26.5t65 90.5l36 -21q-60 -140 -100 -188.5t-108 -48.5z" />
    <glyph glyph-name="odieresis" unicode="&#xf6;" horiz-adv-x="1060" 
d="M535 43q134 0 208 127t74 338q0 104 -18 195t-52.5 163t-91.5 114t-129 42q-134 0 -208 -127t-74 -338q0 -104 18 -195t52.5 -163t91.5 -114t129 -42zM524 -20q-214 0 -344.5 145t-130.5 381q0 259 140 419t348 160q214 0 344.5 -146.5t130.5 -379.5q0 -259 -140 -419
t-348 -160zM219 1372q0 53 36.5 90t88.5 37q54 0 90.5 -37t36.5 -90t-36.5 -90t-90.5 -37q-52 0 -88.5 37t-36.5 90zM590 1372q0 53 36.5 90t88.5 37q54 0 90.5 -37t36.5 -90t-36.5 -90t-90.5 -37q-52 0 -88.5 37t-36.5 90z" />
    <glyph glyph-name="divide" unicode="&#xf7;" horiz-adv-x="1155" 
d="M129 707v106h897v-106h-897zM469 426q0 44 31 75t75 31t75.5 -31t31.5 -75t-31.5 -75.5t-75.5 -31.5t-75 31.5t-31 75.5zM469 1094q0 44 31 75t75 31t75.5 -31t31.5 -75t-31.5 -75.5t-75.5 -31.5t-75 31.5t-31 75.5z" />
    <glyph glyph-name="oslash" unicode="&#xf8;" horiz-adv-x="1060" 
d="M524 -20q-153 0 -266 75l-96 -151l-51 30l100 158q-77 70 -119.5 176.5t-42.5 237.5q0 259 140 419t348 160q147 0 262 -75l102 157l51 -30l-106 -164q79 -71 122.5 -178t43.5 -236q0 -259 -140 -419t-348 -160zM535 43q134 0 208 127t74 338q0 196 -57 328l-430 -668
q75 -125 205 -125zM244 557q0 -191 55 -328l428 668q-77 125 -201 125q-134 0 -208 -127t-74 -338z" />
    <glyph glyph-name="ugrave" unicode="&#xf9;" horiz-adv-x="1130" 
d="M958 866v-667q0 -55 15 -71.5t82 -23.5l53 -6v-43l-309 -75h-31l8 192q-91 -91 -172 -141.5t-178 -50.5q-281 0 -281 319v567q0 57 -20.5 77.5t-91.5 29.5l-33 4v47l315 57h23l-10 -223v-522q0 -236 182 -236q72 0 133 30.5t133 86.5v649q0 57 -20 77.5t-92 29.5l-31 4
v47l311 57h23zM315 1559h205l123 -347h-35l-293 336v11z" />
    <glyph glyph-name="uacute" unicode="&#xfa;" horiz-adv-x="1130" 
d="M958 866v-667q0 -55 15 -71.5t82 -23.5l53 -6v-43l-309 -75h-31l8 192q-91 -91 -172 -141.5t-178 -50.5q-281 0 -281 319v567q0 57 -20.5 77.5t-91.5 29.5l-33 4v47l315 57h23l-10 -223v-522q0 -236 182 -236q72 0 133 30.5t133 86.5v649q0 57 -20 77.5t-92 29.5l-31 4
v47l311 57h23zM623 1559h204v-11l-292 -336h-35z" />
    <glyph glyph-name="ucircumflex" unicode="&#xfb;" horiz-adv-x="1130" 
d="M958 866v-667q0 -55 15 -71.5t82 -23.5l53 -6v-43l-309 -75h-31l8 192q-91 -91 -172 -141.5t-178 -50.5q-281 0 -281 319v567q0 57 -20.5 77.5t-91.5 29.5l-33 4v47l315 57h23l-10 -223v-522q0 -236 182 -236q72 0 133 30.5t133 86.5v649q0 57 -20 77.5t-92 29.5l-31 4
v47l311 57h23zM631 1567l225 -355h-53l-242 222l-242 -222h-53l226 355h139z" />
    <glyph glyph-name="udieresis" unicode="&#xfc;" horiz-adv-x="1130" 
d="M958 866v-667q0 -55 15 -71.5t82 -23.5l53 -6v-43l-309 -75h-31l8 192q-91 -91 -172 -141.5t-178 -50.5q-281 0 -281 319v567q0 57 -20.5 77.5t-91.5 29.5l-33 4v47l315 57h23l-10 -223v-522q0 -236 182 -236q72 0 133 30.5t133 86.5v649q0 57 -20 77.5t-92 29.5l-31 4
v47l311 57h23zM250 1372q0 53 36.5 90t88.5 37q54 0 90.5 -37t36.5 -90t-36.5 -90t-90.5 -37q-52 0 -88.5 37t-36.5 90zM621 1372q0 53 36 90t88 37q54 0 90.5 -37t36.5 -90t-36.5 -90t-90.5 -37q-52 0 -88 37t-36 90z" />
    <glyph glyph-name="yacute" unicode="&#xfd;" horiz-adv-x="1075" 
d="M610 193l256 696q13 37 13 55q0 34 -29.5 46t-114.5 22v53h330v-53q-54 -13 -72.5 -28t-31.5 -48l-435 -1149q-46 -120 -99.5 -176.5t-141.5 -56.5q-49 0 -93 27.5t-55 74.5v59q63 -18 119 -18q88 0 142 35.5t89 134.5l39 104l-411 965q-14 35 -32.5 49t-72.5 27v53h453
v-53q-85 -10 -114.5 -22t-29.5 -46q0 -16 13 -57zM643 1559h205v-11l-293 -336h-35z" />
    <glyph glyph-name="thorn" unicode="&#xfe;" horiz-adv-x="1136" 
d="M903 510q0 91 -17.5 169.5t-54 144.5t-100 104.5t-147.5 38.5q-68 0 -134.5 -30.5t-109.5 -80.5v-559q0 -258 233 -258q148 0 239 134.5t91 336.5zM156 -279v1686l-133 72v22l292 103h25v-701q134 182 344 182q191 0 297 -133t106 -358q0 -185 -69.5 -326t-185.5 -214.5
t-259 -73.5q-148 0 -233 73v-327q0 -61 35.5 -80t146.5 -27v-53h-508v53q84 5 113 24.5t29 77.5z" />
    <glyph glyph-name="ydieresis" unicode="&#xff;" horiz-adv-x="1075" 
d="M610 193l256 696q13 37 13 55q0 34 -29.5 46t-114.5 22v53h330v-53q-54 -13 -72.5 -28t-31.5 -48l-435 -1149q-46 -120 -99.5 -176.5t-141.5 -56.5q-49 0 -93 27.5t-55 74.5v59q63 -18 119 -18q88 0 142 35.5t89 134.5l39 104l-411 965q-14 35 -32.5 49t-72.5 27v53h453
v-53q-85 -10 -114.5 -22t-29.5 -46q0 -16 13 -57zM270 1372q0 53 36.5 90t88.5 37q54 0 90.5 -37t36.5 -90t-36.5 -90t-90.5 -37q-52 0 -88.5 37t-36.5 90zM641 1372q0 53 36.5 90t88.5 37q54 0 90.5 -37t36.5 -90t-36.5 -90t-90.5 -37q-52 0 -88.5 37t-36.5 90z" />
    <glyph glyph-name="Amacron" unicode="&#x100;" horiz-adv-x="1425" 
d="M1055 225l-115 279h-584l-108 -277q-21 -54 -21 -82q0 -47 41.5 -67t145.5 -23v-55h-404v55q49 7 78 22.5t43 53.5l471 1190l-57 135h205l544 -1325q16 -38 44.5 -53.5t76.5 -22.5v-55h-524v55q103 3 143.5 22t40.5 66q0 30 -20 82zM643 1235l-262 -666h532zM395 1583
v100h578v-100h-578z" />
    <glyph glyph-name="amacron" unicode="&#x101;" horiz-adv-x="1007" 
d="M418 100q59 0 109.5 25.5t119.5 83.5v385l-246 -100q-81 -32 -121 -80.5t-40 -126.5q0 -85 46 -136t132 -51zM834 770v-543q0 -70 18 -102.5t61 -32.5q35 0 95 27l10 -31q-72 -108 -197 -108q-74 0 -118 49.5t-52 136.5q-159 -186 -329 -186q-119 0 -190 70.5t-71 185.5
q0 62 21.5 110.5t64.5 84.5t90 60t115 50l295 110v140q0 112 -45.5 177.5t-142.5 65.5q-84 0 -125 -49.5t-41 -132.5q0 -50 14 -107l-108 -16q-80 25 -80 113q0 113 103 178t263 65q176 0 262.5 -77.5t86.5 -237.5zM233 1276v100h515v-100h-515z" />
    <glyph glyph-name="Abreve" unicode="&#x102;" horiz-adv-x="1425" 
d="M1055 225l-115 279h-584l-108 -277q-21 -54 -21 -82q0 -47 41.5 -67t145.5 -23v-55h-404v55q49 7 78 22.5t43 53.5l471 1190l-57 135h205l544 -1325q16 -38 44.5 -53.5t76.5 -22.5v-55h-524v55q103 3 143.5 22t40.5 66q0 30 -20 82zM643 1235l-262 -666h532zM684 1532
q-135 0 -212 80.5t-77 240.5h54q26 -192 235 -192q210 0 236 192h53q0 -160 -77 -240.5t-212 -80.5z" />
    <glyph glyph-name="abreve" unicode="&#x103;" horiz-adv-x="1007" 
d="M418 100q59 0 109.5 25.5t119.5 83.5v385l-246 -100q-81 -32 -121 -80.5t-40 -126.5q0 -85 46 -136t132 -51zM834 770v-543q0 -70 18 -102.5t61 -32.5q35 0 95 27l10 -31q-72 -108 -197 -108q-74 0 -118 49.5t-52 136.5q-159 -186 -329 -186q-119 0 -190 70.5t-71 185.5
q0 62 21.5 110.5t64.5 84.5t90 60t115 50l295 110v140q0 112 -45.5 177.5t-142.5 65.5q-84 0 -125 -49.5t-41 -132.5q0 -50 14 -107l-108 -16q-80 25 -80 113q0 113 103 178t263 65q176 0 262.5 -77.5t86.5 -237.5zM489 1221q-258 0 -258 325h60q13 -196 198 -196
q186 0 199 196h60q0 -325 -259 -325z" />
    <glyph glyph-name="Aogonek" unicode="&#x104;" horiz-adv-x="1425" 
d="M643 1235l-262 -666h532zM928 29q86 20 116.5 43.5t30.5 70.5q0 30 -20 82l-115 279h-584l-108 -277q-21 -54 -21 -82q0 -47 41.5 -67t145.5 -23v-55h-404v55q49 7 78 22.5t43 53.5l471 1190l-57 135h205l544 -1325q16 -38 44.5 -53.5t76.5 -22.5v-55h-438
q-110 -15 -178 -76t-68 -153q0 -50 24.5 -78.5t75.5 -28.5q50 0 89.5 17t85.5 57l20 -23q-115 -145 -254 -145q-77 0 -124.5 46.5t-47.5 119.5q0 112 91 184.5t237 108.5z" />
    <glyph glyph-name="aogonek" unicode="&#x105;" horiz-adv-x="1007" 
d="M834 770v-543q0 -70 18 -102.5t61 -32.5q35 0 95 27l10 -31q-24 -21 -63 -44t-74 -40.5t-73 -42t-65.5 -49.5t-45 -61.5t-17.5 -79.5q0 -50 24.5 -78.5t75.5 -28.5q50 0 88.5 17t85.5 57l21 -23q-115 -145 -254 -145q-78 0 -126 46t-48 118q0 82 61 141.5t168 110.5
q-51 18 -85 65.5t-40 114.5q-159 -186 -329 -186q-119 0 -190 70.5t-71 185.5q0 62 21.5 110.5t64.5 84.5t90 60t115 50l295 110v140q0 112 -45.5 177.5t-142.5 65.5q-84 0 -125 -49.5t-41 -132.5q0 -50 14 -107l-108 -16q-80 25 -80 113q0 113 103 178t263 65
q176 0 262.5 -77.5t86.5 -237.5zM418 100q59 0 109.5 25.5t119.5 83.5v385l-246 -100q-81 -32 -121 -80.5t-40 -126.5q0 -85 46 -136t132 -51z" />
    <glyph glyph-name="Cacute" unicode="&#x106;" horiz-adv-x="1286" 
d="M741 1458q259 0 445 -121v-299h-56q-34 173 -133 263t-256 90q-113 0 -202.5 -51t-146.5 -140t-86.5 -205t-29.5 -250q0 -196 55 -352.5t166 -251t261 -94.5q165 0 264.5 97t144.5 311h62l-27 -365q-193 -110 -444 -110q-209 0 -366 90t-240.5 250.5t-83.5 367.5
q0 173 51 318t140.5 243.5t213.5 153.5t268 55zM813 1843h215v-10l-293 -295h-35z" />
    <glyph glyph-name="cacute" unicode="&#x107;" horiz-adv-x="901" 
d="M213 586q0 -207 92.5 -334t249.5 -127q187 0 299 170l25 -12q-46 -146 -144.5 -224.5t-238.5 -78.5q-199 0 -323 142.5t-124 373.5q0 168 59.5 301t173.5 210.5t263 77.5q144 0 224.5 -58t80.5 -159q0 -40 -17.5 -74t-48.5 -51h-116q8 46 8 86q0 193 -168 193
q-135 0 -215 -124t-80 -312zM594 1559h205v-11l-293 -336h-35z" />
    <glyph glyph-name="Ccircumflex" unicode="&#x108;" horiz-adv-x="1286" 
d="M741 1458q259 0 445 -121v-299h-56q-34 173 -133 263t-256 90q-113 0 -202.5 -51t-146.5 -140t-86.5 -205t-29.5 -250q0 -196 55 -352.5t166 -251t261 -94.5q165 0 264.5 97t144.5 311h62l-27 -365q-193 -110 -444 -110q-209 0 -366 90t-240.5 250.5t-83.5 367.5
q0 173 51 318t140.5 243.5t213.5 153.5t268 55zM831 1864l267 -326h-47l-289 193l-289 -193h-47l266 326h139z" />
    <glyph glyph-name="ccircumflex" unicode="&#x109;" horiz-adv-x="901" 
d="M213 586q0 -207 92.5 -334t249.5 -127q187 0 299 170l25 -12q-46 -146 -144.5 -224.5t-238.5 -78.5q-199 0 -323 142.5t-124 373.5q0 168 59.5 301t173.5 210.5t263 77.5q144 0 224.5 -58t80.5 -159q0 -40 -17.5 -74t-48.5 -51h-116q8 46 8 86q0 193 -168 193
q-135 0 -215 -124t-80 -312zM602 1567l225 -355h-53l-242 222l-241 -222h-53l225 355h139z" />
    <glyph glyph-name="Cdotaccent" unicode="&#x10a;" horiz-adv-x="1286" 
d="M741 1458q259 0 445 -121v-299h-56q-34 173 -133 263t-256 90q-113 0 -202.5 -51t-146.5 -140t-86.5 -205t-29.5 -250q0 -196 55 -352.5t166 -251t261 -94.5q165 0 264.5 97t144.5 311h62l-27 -365q-193 -110 -444 -110q-209 0 -366 90t-240.5 250.5t-83.5 367.5
q0 173 51 318t140.5 243.5t213.5 153.5t268 55zM762 1550q-54 0 -91.5 38.5t-37.5 92.5t37.5 92.5t91.5 38.5q55 0 93 -38.5t38 -92.5t-38 -92.5t-93 -38.5z" />
    <glyph glyph-name="cdotaccent" unicode="&#x10b;" horiz-adv-x="901" 
d="M213 586q0 -207 92.5 -334t249.5 -127q187 0 299 170l25 -12q-46 -146 -144.5 -224.5t-238.5 -78.5q-199 0 -323 142.5t-124 373.5q0 168 59.5 301t173.5 210.5t263 77.5q144 0 224.5 -58t80.5 -159q0 -40 -17.5 -74t-48.5 -51h-116q8 46 8 86q0 193 -168 193
q-135 0 -215 -124t-80 -312zM532 1245q-54 0 -91.5 38.5t-37.5 92.5t37.5 92.5t91.5 38.5q55 0 93.5 -38.5t38.5 -92.5t-38.5 -92.5t-93.5 -38.5z" />
    <glyph glyph-name="Ccaron" unicode="&#x10c;" horiz-adv-x="1286" 
d="M741 1458q259 0 445 -121v-299h-56q-34 173 -133 263t-256 90q-113 0 -202.5 -51t-146.5 -140t-86.5 -205t-29.5 -250q0 -196 55 -352.5t166 -251t261 -94.5q165 0 264.5 97t144.5 311h62l-27 -365q-193 -110 -444 -110q-209 0 -366 90t-240.5 250.5t-83.5 367.5
q0 173 51 318t140.5 243.5t213.5 153.5t268 55zM1098 1864l-267 -326h-139l-266 326h47l289 -193l289 193h47z" />
    <glyph glyph-name="ccaron" unicode="&#x10d;" horiz-adv-x="901" 
d="M213 586q0 -207 92.5 -334t249.5 -127q187 0 299 170l25 -12q-46 -146 -144.5 -224.5t-238.5 -78.5q-199 0 -323 142.5t-124 373.5q0 168 59.5 301t173.5 210.5t263 77.5q144 0 224.5 -58t80.5 -159q0 -40 -17.5 -74t-48.5 -51h-116q8 46 8 86q0 193 -168 193
q-135 0 -215 -124t-80 -312zM827 1569l-225 -355h-139l-225 355h53l241 -221l242 221h53z" />
    <glyph glyph-name="Dcaron" unicode="&#x10e;" horiz-adv-x="1447" 
d="M602 1370h-172v-1157q0 -87 40.5 -116t141.5 -29h56q109 0 199.5 41t157.5 120t104.5 203t37.5 281q0 105 -18 198.5t-60.5 178.5t-106.5 146.5t-161 97.5t-219 36zM668 0h-611v55q43 5 67 9t47 11t33.5 15.5t19.5 24.5t11.5 36t2.5 50v1036q0 85 -31 108t-150 37v56h582
q151 0 275 -36.5t209.5 -99.5t144 -149.5t85.5 -185t27 -207.5q0 -177 -56.5 -322.5t-154 -240t-226 -146t-275.5 -51.5zM1006 1864l-267 -326h-139l-266 326h47l289 -193l288 193h48z" />
    <glyph glyph-name="dcaron" unicode="&#x10f;" horiz-adv-x="1144" 
d="M549 1028q-149 0 -237.5 -127.5t-88.5 -337.5q0 -127 36.5 -227t112.5 -160.5t181 -60.5q146 0 235 100v512q0 138 -66.5 219.5t-172.5 81.5zM788 1407l-133 72v22l293 103h25v-1405q0 -55 15 -71.5t81 -23.5l53 -6v-43l-311 -75h-31l8 188q-69 -89 -147 -138.5
t-180 -49.5q-188 0 -300 140.5t-112 360.5q0 275 141 439.5t359 164.5q151 0 239 -81v403zM1290 1593l-213 -409h-22l41 420h194v-11z" />
    <glyph glyph-name="Dcroat" unicode="&#x110;" horiz-adv-x="1468" 
d="M78 709v69h180v459q0 31 -2.5 50.5t-11 35t-19 24t-34 16t-47 11t-66.5 8.5v56h581q151 0 275 -36.5t209.5 -99.5t144.5 -149.5t86 -185t27 -207.5q0 -177 -56.5 -322.5t-154 -240t-226.5 -146t-276 -51.5h-610v55q51 6 77.5 11t50.5 14t33 24.5t14 37.5t5 59v508h-180z
M623 1370h-172v-592h292v-69h-292v-496q0 -87 40.5 -116t141.5 -29h55q109 0 199.5 41t158 120t105 203t37.5 281q0 105 -18 198.5t-60.5 178.5t-106.5 146.5t-161 97.5t-219 36z" />
    <glyph glyph-name="dcroat" unicode="&#x111;" horiz-adv-x="1144" 
d="M788 1407l-133 72v22l293 103h25v-318h149v-65h-149v-1022q0 -55 15 -71.5t81 -23.5l53 -6v-43l-311 -75h-31l8 188q-69 -89 -147 -138.5t-180 -49.5q-188 0 -300 140.5t-112 360.5q0 275 141 439.5t359 164.5q151 0 239 -81v217h-262v65h262v121zM549 1028
q-149 0 -237.5 -127.5t-88.5 -337.5q0 -127 36.5 -227t112.5 -160.5t181 -60.5q146 0 235 100v512q0 138 -66.5 219.5t-172.5 81.5z" />
    <glyph glyph-name="Emacron" unicode="&#x112;" horiz-adv-x="1257" 
d="M57 0v55q43 5 67 9t47 11t33.5 15.5t19.5 24.5t11.5 36t2.5 50v1036q0 85 -31 108t-150 37v56h1069l11 -342h-41q-68 162 -130 218t-169 56h-367v-594h326q63 0 95 44t50 141h55v-437h-55q-18 97 -50 141t-95 44h-326v-502q0 -81 45.5 -110t155.5 -29h188
q104 0 173.5 64.5t170.5 236.5h49l-61 -369h-1094zM383 1583v100h578v-100h-578z" />
    <glyph glyph-name="emacron" unicode="&#x113;" horiz-adv-x="946" 
d="M512 1085q183 0 284 -113.5t101 -291.5v-43h-680q-10 -241 93.5 -380.5t269.5 -139.5q105 0 177 46t130 136l24 -12q-38 -139 -143 -223t-260 -84q-141 0 -246.5 71t-158 188.5t-52.5 262.5q0 252 131.5 417.5t329.5 165.5zM496 1020q-114 0 -185.5 -90.5t-87.5 -233.5
h496q0 147 -54.5 235.5t-168.5 88.5zM258 1276v100h514v-100h-514z" />
    <glyph glyph-name="Ebreve" unicode="&#x114;" horiz-adv-x="1257" 
d="M57 0v55q43 5 67 9t47 11t33.5 15.5t19.5 24.5t11.5 36t2.5 50v1036q0 85 -31 108t-150 37v56h1069l11 -342h-41q-68 162 -130 218t-169 56h-367v-594h326q63 0 95 44t50 141h55v-437h-55q-18 97 -50 141t-95 44h-326v-502q0 -81 45.5 -110t155.5 -29h188
q104 0 173.5 64.5t170.5 236.5h49l-61 -369h-1094zM672 1532q-135 0 -212 80.5t-77 240.5h53q26 -192 236 -192q209 0 235 192h54q0 -160 -77 -240.5t-212 -80.5z" />
    <glyph glyph-name="ebreve" unicode="&#x115;" horiz-adv-x="946" 
d="M512 1085q183 0 284 -113.5t101 -291.5v-43h-680q-10 -241 93.5 -380.5t269.5 -139.5q105 0 177 46t130 136l24 -12q-38 -139 -143 -223t-260 -84q-141 0 -246.5 71t-158 188.5t-52.5 262.5q0 252 131.5 417.5t329.5 165.5zM496 1020q-114 0 -185.5 -90.5t-87.5 -233.5
h496q0 147 -54.5 235.5t-168.5 88.5zM535 1221q-259 0 -259 325h60q13 -196 199 -196q185 0 198 196h60q0 -325 -258 -325z" />
    <glyph glyph-name="Edotaccent" unicode="&#x116;" horiz-adv-x="1257" 
d="M57 0v55q43 5 67 9t47 11t33.5 15.5t19.5 24.5t11.5 36t2.5 50v1036q0 85 -31 108t-150 37v56h1069l11 -342h-41q-68 162 -130 218t-169 56h-367v-594h326q63 0 95 44t50 141h55v-437h-55q-18 97 -50 141t-95 44h-326v-502q0 -81 45.5 -110t155.5 -29h188
q104 0 173.5 64.5t170.5 236.5h49l-61 -369h-1094zM672 1550q-54 0 -91.5 38.5t-37.5 92.5t37.5 92.5t91.5 38.5q55 0 93 -38.5t38 -92.5t-38 -92.5t-93 -38.5z" />
    <glyph glyph-name="edotaccent" unicode="&#x117;" horiz-adv-x="946" 
d="M512 1085q183 0 284 -113.5t101 -291.5v-43h-680q-10 -241 93.5 -380.5t269.5 -139.5q105 0 177 46t130 136l24 -12q-38 -139 -143 -223t-260 -84q-141 0 -246.5 71t-158 188.5t-52.5 262.5q0 252 131.5 417.5t329.5 165.5zM496 1020q-114 0 -185.5 -90.5t-87.5 -233.5
h496q0 147 -54.5 235.5t-168.5 88.5zM518 1245q-54 0 -91.5 38.5t-37.5 92.5t37.5 92.5t91.5 38.5q55 0 93 -38.5t38 -92.5t-38 -92.5t-93 -38.5z" />
    <glyph glyph-name="Eogonek" unicode="&#x118;" horiz-adv-x="1257" 
d="M57 0v55q43 5 67 9t47 11t33.5 15.5t19.5 24.5t11.5 36t2.5 50v1036q0 85 -31 108t-150 37v56h1069l11 -342h-41q-68 162 -130 218t-169 56h-367v-594h326q63 0 95 44t50 141h55v-437h-55q-18 97 -50 141t-95 44h-326v-502q0 -81 45.5 -110t155.5 -29h188
q104 0 173.5 64.5t170.5 236.5h49l-61 -369h-193q-206 -93 -206 -229q0 -50 24.5 -78.5t75.5 -28.5q50 0 88.5 17t85.5 57l21 -23q-115 -145 -254 -145q-78 0 -126.5 46t-48.5 118q0 89 70 152t193 114h-824z" />
    <glyph glyph-name="eogonek" unicode="&#x119;" horiz-adv-x="946" 
d="M512 1085q183 0 284 -113.5t101 -291.5v-43h-680q-10 -241 93.5 -380.5t269.5 -139.5q105 0 177 46t130 136l24 -12q-57 -207 -258 -285q-211 -82 -211 -231q0 -49 25 -78t76 -29q50 0 88.5 17t85.5 57l20 -23q-115 -145 -254 -145q-78 0 -126 46t-48 118q0 81 59.5 140
t166.5 106h-27q-141 0 -246.5 71t-158 188.5t-52.5 262.5q0 252 131.5 417.5t329.5 165.5zM496 1020q-114 0 -185.5 -90.5t-87.5 -233.5h496q0 147 -54.5 235.5t-168.5 88.5z" />
    <glyph glyph-name="Ecaron" unicode="&#x11a;" horiz-adv-x="1257" 
d="M57 0v55q43 5 67 9t47 11t33.5 15.5t19.5 24.5t11.5 36t2.5 50v1036q0 85 -31 108t-150 37v56h1069l11 -342h-41q-68 162 -130 218t-169 56h-367v-594h326q63 0 95 44t50 141h55v-437h-55q-18 97 -50 141t-95 44h-326v-502q0 -81 45.5 -110t155.5 -29h188
q104 0 173.5 64.5t170.5 236.5h49l-61 -369h-1094zM1008 1864l-267 -326h-139l-266 326h47l289 -193l289 193h47z" />
    <glyph glyph-name="ecaron" unicode="&#x11b;" horiz-adv-x="946" 
d="M512 1085q183 0 284 -113.5t101 -291.5v-43h-680q-10 -241 93.5 -380.5t269.5 -139.5q105 0 177 46t130 136l24 -12q-38 -139 -143 -223t-260 -84q-141 0 -246.5 71t-158 188.5t-52.5 262.5q0 252 131.5 417.5t329.5 165.5zM496 1020q-114 0 -185.5 -90.5t-87.5 -233.5
h496q0 147 -54.5 235.5t-168.5 88.5zM809 1569l-225 -355h-140l-225 355h53l242 -221l242 221h53z" />
    <glyph glyph-name="Gcircumflex" unicode="&#x11c;" horiz-adv-x="1427" 
d="M1047 133v334q0 85 -31 108t-150 37v56h545v-56q-43 -5 -66.5 -8.5t-47 -11t-34 -16t-19 -24t-11 -35t-2.5 -50.5v-340q-217 -147 -488 -147q-205 0 -360 95t-235 255t-80 358q0 173 51.5 317.5t142 243.5t218 154t276.5 55q270 0 448 -117v-303h-55q-34 175 -132.5 265
t-260.5 90q-121 0 -214.5 -51.5t-150.5 -141.5t-86 -205.5t-29 -251.5q0 -141 29.5 -264t87.5 -221t153 -154.5t216 -56.5q191 0 285 86zM829 1864l267 -326h-47l-289 193l-289 -193h-47l266 326h139z" />
    <glyph glyph-name="gcircumflex" unicode="&#x11d;" horiz-adv-x="1011" 
d="M475 391q-99 0 -184 31q-82 -82 -82 -148q0 -79 84 -79h395q152 0 238 -64t86 -192q0 -121 -79 -212t-207 -136.5t-284 -45.5q-205 0 -322.5 69t-117.5 193q0 141 195 224q-117 45 -117 168q0 37 14.5 71.5t43.5 65t54.5 52t63.5 48.5q-83 41 -130.5 114.5t-47.5 174.5
q0 165 112 262.5t285 97.5q78 0 170 -30l328 8v-96h-76l-162 8q54 -34 92.5 -100.5t38.5 -139.5q0 -157 -107 -250.5t-284 -93.5zM664 23h-445q-59 -62 -59 -166q0 -116 79.5 -183t223.5 -67q113 0 203 28t147 88t57 144t-52.5 120t-153.5 36zM485 442q96 0 147.5 78
t51.5 197q0 136 -56.5 225.5t-160.5 89.5q-97 0 -149 -77.5t-52 -196.5q0 -137 57 -226.5t162 -89.5zM575 1567l226 -355h-53l-242 222l-242 -222h-53l225 355h139z" />
    <glyph glyph-name="Gbreve" unicode="&#x11e;" horiz-adv-x="1427" 
d="M1047 133v334q0 85 -31 108t-150 37v56h545v-56q-43 -5 -66.5 -8.5t-47 -11t-34 -16t-19 -24t-11 -35t-2.5 -50.5v-340q-217 -147 -488 -147q-205 0 -360 95t-235 255t-80 358q0 173 51.5 317.5t142 243.5t218 154t276.5 55q270 0 448 -117v-303h-55q-34 175 -132.5 265
t-260.5 90q-121 0 -214.5 -51.5t-150.5 -141.5t-86 -205.5t-29 -251.5q0 -141 29.5 -264t87.5 -221t153 -154.5t216 -56.5q191 0 285 86zM760 1532q-135 0 -212 80.5t-77 240.5h53q26 -192 236 -192q209 0 235 192h54q0 -160 -77 -240.5t-212 -80.5z" />
    <glyph glyph-name="gbreve" unicode="&#x11f;" horiz-adv-x="1011" 
d="M475 391q-99 0 -184 31q-82 -82 -82 -148q0 -79 84 -79h395q152 0 238 -64t86 -192q0 -121 -79 -212t-207 -136.5t-284 -45.5q-205 0 -322.5 69t-117.5 193q0 141 195 224q-117 45 -117 168q0 37 14.5 71.5t43.5 65t54.5 52t63.5 48.5q-83 41 -130.5 114.5t-47.5 174.5
q0 165 112 262.5t285 97.5q78 0 170 -30l328 8v-96h-76l-162 8q54 -34 92.5 -100.5t38.5 -139.5q0 -157 -107 -250.5t-284 -93.5zM664 23h-445q-59 -62 -59 -166q0 -116 79.5 -183t223.5 -67q113 0 203 28t147 88t57 144t-52.5 120t-153.5 36zM485 442q96 0 147.5 78
t51.5 197q0 136 -56.5 225.5t-160.5 89.5q-97 0 -149 -77.5t-52 -196.5q0 -137 57 -226.5t162 -89.5zM506 1221q-258 0 -258 325h59q13 -196 199 -196t199 196h59q0 -325 -258 -325z" />
    <glyph glyph-name="Gdotaccent" unicode="&#x120;" horiz-adv-x="1427" 
d="M1047 133v334q0 85 -31 108t-150 37v56h545v-56q-43 -5 -66.5 -8.5t-47 -11t-34 -16t-19 -24t-11 -35t-2.5 -50.5v-340q-217 -147 -488 -147q-205 0 -360 95t-235 255t-80 358q0 173 51.5 317.5t142 243.5t218 154t276.5 55q270 0 448 -117v-303h-55q-34 175 -132.5 265
t-260.5 90q-121 0 -214.5 -51.5t-150.5 -141.5t-86 -205.5t-29 -251.5q0 -141 29.5 -264t87.5 -221t153 -154.5t216 -56.5q191 0 285 86zM760 1550q-54 0 -91.5 38.5t-37.5 92.5t37.5 92.5t91.5 38.5q55 0 93 -38.5t38 -92.5t-38 -92.5t-93 -38.5z" />
    <glyph glyph-name="gdotaccent" unicode="&#x121;" horiz-adv-x="1011" 
d="M475 391q-99 0 -184 31q-82 -82 -82 -148q0 -79 84 -79h395q152 0 238 -64t86 -192q0 -121 -79 -212t-207 -136.5t-284 -45.5q-205 0 -322.5 69t-117.5 193q0 141 195 224q-117 45 -117 168q0 37 14.5 71.5t43.5 65t54.5 52t63.5 48.5q-83 41 -130.5 114.5t-47.5 174.5
q0 165 112 262.5t285 97.5q78 0 170 -30l328 8v-96h-76l-162 8q54 -34 92.5 -100.5t38.5 -139.5q0 -157 -107 -250.5t-284 -93.5zM664 23h-445q-59 -62 -59 -166q0 -116 79.5 -183t223.5 -67q113 0 203 28t147 88t57 144t-52.5 120t-153.5 36zM485 442q96 0 147.5 78
t51.5 197q0 136 -56.5 225.5t-160.5 89.5q-97 0 -149 -77.5t-52 -196.5q0 -137 57 -226.5t162 -89.5zM506 1245q-54 0 -91.5 38.5t-37.5 92.5t37.5 92.5t91.5 38.5q55 0 93 -38.5t38 -92.5t-38 -92.5t-93 -38.5z" />
    <glyph glyph-name="Gcommaaccent" unicode="&#x122;" horiz-adv-x="1427" 
d="M1047 133v334q0 85 -31 108t-150 37v56h545v-56q-43 -5 -66.5 -8.5t-47 -11t-34 -16t-19 -24t-11 -35t-2.5 -50.5v-340q-217 -147 -488 -147q-205 0 -360 95t-235 255t-80 358q0 173 51.5 317.5t142 243.5t218 154t276.5 55q270 0 448 -117v-303h-55q-34 175 -132.5 265
t-260.5 90q-121 0 -214.5 -51.5t-150.5 -141.5t-86 -205.5t-29 -251.5q0 -141 29.5 -264t87.5 -221t153 -154.5t216 -56.5q191 0 285 86zM801 -303h-94q-82 17 -82 98q0 49 34.5 79t88.5 30q69 0 108 -44t39 -112q0 -95 -63 -152t-185 -57v45q71 0 112.5 33.5t41.5 79.5z
" />
    <glyph glyph-name="gcommaaccent" unicode="&#x123;" horiz-adv-x="1011" 
d="M475 391q-99 0 -184 31q-82 -82 -82 -148q0 -79 84 -79h395q152 0 238 -64t86 -192q0 -121 -79 -212t-207 -136.5t-284 -45.5q-205 0 -322.5 69t-117.5 193q0 141 195 224q-117 45 -117 168q0 37 14.5 71.5t43.5 65t54.5 52t63.5 48.5q-83 41 -130.5 114.5t-47.5 174.5
q0 165 112 262.5t285 97.5q78 0 170 -30l328 8v-96h-76l-162 8q54 -34 92.5 -100.5t38.5 -139.5q0 -157 -107 -250.5t-284 -93.5zM664 23h-445q-59 -62 -59 -166q0 -116 79.5 -183t223.5 -67q113 0 203 28t147 88t57 144t-52.5 120t-153.5 36zM485 442q96 0 147.5 78
t51.5 197q0 136 -56.5 225.5t-160.5 89.5q-97 0 -149 -77.5t-52 -196.5q0 -137 57 -226.5t162 -89.5zM465 1450h94q82 -17 82 -98q0 -49 -34.5 -79t-88.5 -30q-69 0 -108 44t-39 112q0 95 62.5 152t184.5 57v-45q-71 0 -112 -33.5t-41 -79.5z" />
    <glyph glyph-name="Hcircumflex" unicode="&#x124;" horiz-adv-x="1579" 
d="M430 1237v-459h719v459q0 31 -2.5 50.5t-11 35t-19 24t-34 16t-47 11t-66.5 8.5v56h553v-56q-119 -14 -150 -37t-31 -108v-1036q0 -30 2.5 -50t11.5 -36t19.5 -24.5t33.5 -15.5t47 -11t67 -9v-55h-553v55q51 6 77.5 11t50.5 14t33 24.5t14 37.5t5 59v508h-719v-508
q0 -37 5 -59t14 -37.5t33 -24.5t50.5 -14t77.5 -11v-55h-553v55q43 5 67 9t47 11t33.5 15.5t19.5 24.5t11.5 36t2.5 50v1036q0 85 -31 108t-150 37v56h553v-56q-43 -5 -66.5 -8.5t-47 -11t-34 -16t-19 -24t-11 -35t-2.5 -50.5zM858 1864l266 -326h-47l-289 193l-288 -193
h-47l266 326h139z" />
    <glyph glyph-name="hcircumflex" unicode="&#x125;" horiz-adv-x="1177" 
d="M178 156v1251l-133 72v22l293 103h24v-713q176 194 373 194q277 0 277 -335v-594q0 -59 28.5 -78.5t112.5 -24.5v-53h-467v53q84 5 112.5 24.5t28.5 78.5v596q0 112 -45 163.5t-137 51.5q-140 0 -283 -125v-686q0 -59 29 -78.5t113 -24.5v-53h-467v53q84 5 112.5 24.5
t28.5 78.5zM643 1968l266 -326h-47l-289 193l-288 -193h-47l266 326h139z" />
    <glyph glyph-name="Hbar" unicode="&#x126;" horiz-adv-x="1619" 
d="M451 1237v-143h718v143q0 31 -2.5 50.5t-11 35t-19 24t-34 16t-47 11t-66.5 8.5v56h553v-56q-43 -5 -66.5 -8.5t-47 -11t-34 -16t-19 -24t-11 -35t-2.5 -50.5v-143h180v-70h-180v-823q0 -37 5 -59t14 -37.5t33 -24.5t50.5 -14t77.5 -11v-55h-553v55q51 6 77.5 11t50.5 14
t33 24.5t14 37.5t5 59v508h-718v-508q0 -37 5 -59t14 -37.5t33 -24.5t50.5 -14t77.5 -11v-55h-553v55q51 6 77.5 11t50.5 14t33 24.5t14 37.5t5 59v823h-180v70h180v143q0 31 -2.5 50.5t-11 35t-19 24t-34 16t-47 11t-66.5 8.5v56h553v-56q-43 -5 -66.5 -8.5t-47 -11
t-34 -16t-19 -24t-11 -35t-2.5 -50.5zM451 778h718v246h-718v-246z" />
    <glyph glyph-name="hbar" unicode="&#x127;" horiz-adv-x="1177" 
d="M178 156v1065h-133v65h133v121l-133 72v22l293 103h24v-318h279v-65h-279v-330q176 194 373 194q277 0 277 -335v-594q0 -59 28.5 -78.5t112.5 -24.5v-53h-467v53q84 5 112.5 24.5t28.5 78.5v596q0 112 -45 163.5t-137 51.5q-140 0 -283 -125v-686q0 -59 29 -78.5
t113 -24.5v-53h-467v53q84 5 112.5 24.5t28.5 78.5z" />
    <glyph glyph-name="Itilde" unicode="&#x128;" horiz-adv-x="667" 
d="M430 1237v-1036q0 -37 5 -59t14 -37.5t33 -24.5t50.5 -14t77.5 -11v-55h-553v55q43 5 67 9t47 11t33.5 15.5t19.5 24.5t11.5 36t2.5 50v1036q0 85 -31 108t-150 37v56h553v-56q-43 -5 -66.5 -8.5t-47 -11t-34 -16t-19 -24t-11 -35t-2.5 -50.5zM465 1534q-33 0 -71.5 19
t-68 42.5t-65 42.5t-63.5 19q-78 0 -136 -119l-34 21q54 138 95.5 189.5t104.5 51.5q41 0 91 -31t96.5 -61.5t81.5 -30.5q40 0 72.5 28t62.5 91l33 -20q-52 -139 -93.5 -190.5t-105.5 -51.5z" />
    <glyph glyph-name="itilde" unicode="&#x129;" horiz-adv-x="540" 
d="M375 1231q-41 0 -118.5 57.5t-115.5 57.5q-43 0 -68.5 -23t-60.5 -88l-43 20q52 142 89 190t104 48q37 0 80 -28.5t83 -57.5t70 -29q43 0 68.5 23t60.5 88l43 -21q-53 -142 -89 -189.5t-103 -47.5zM369 1085v-929q0 -59 28.5 -78.5t112.5 -24.5v-53h-467v53
q84 5 112.5 24.5t28.5 78.5v733l-133 72v22l293 102h25z" />
    <glyph glyph-name="Imacron" unicode="&#x12a;" horiz-adv-x="667" 
d="M430 1237v-1036q0 -37 5 -59t14 -37.5t33 -24.5t50.5 -14t77.5 -11v-55h-553v55q43 5 67 9t47 11t33.5 15.5t19.5 24.5t11.5 36t2.5 50v1036q0 85 -31 108t-150 37v56h553v-56q-43 -5 -66.5 -8.5t-47 -11t-34 -16t-19 -24t-11 -35t-2.5 -50.5zM45 1583v100h578v-100h-578
z" />
    <glyph glyph-name="imacron" unicode="&#x12b;" horiz-adv-x="540" 
d="M369 1085v-929q0 -59 28.5 -78.5t112.5 -24.5v-53h-467v53q84 5 112.5 24.5t28.5 78.5v733l-133 72v22l293 102h25zM55 1278v98h424v-98h-424z" />
    <glyph glyph-name="Ibreve" unicode="&#x12c;" horiz-adv-x="667" 
d="M430 1237v-1036q0 -37 5 -59t14 -37.5t33 -24.5t50.5 -14t77.5 -11v-55h-553v55q43 5 67 9t47 11t33.5 15.5t19.5 24.5t11.5 36t2.5 50v1036q0 85 -31 108t-150 37v56h553v-56q-43 -5 -66.5 -8.5t-47 -11t-34 -16t-19 -24t-11 -35t-2.5 -50.5zM338 1530q-124 0 -194 81
t-70 242h49q13 -106 68.5 -150t146.5 -44t146.5 44t68.5 150h47q0 -161 -69.5 -242t-192.5 -81z" />
    <glyph glyph-name="ibreve" unicode="&#x12d;" horiz-adv-x="540" 
d="M369 1085v-929q0 -59 28.5 -78.5t112.5 -24.5v-53h-467v53q84 5 112.5 24.5t28.5 78.5v733l-133 72v22l293 102h25zM276 1221q-235 0 -235 325h55q11 -196 180 -196q170 0 183 196h53q0 -325 -236 -325z" />
    <glyph glyph-name="Iogonek" unicode="&#x12e;" horiz-adv-x="667" 
d="M430 1237v-1036q0 -37 5 -59t14 -37.5t33 -24.5t50.5 -14t77.5 -11v-55h-149q-207 -93 -207 -229q0 -50 24.5 -78.5t75.5 -28.5q50 0 88.5 17t85.5 57l21 -23q-115 -145 -254 -145q-78 0 -126 46t-48 118q0 89 70 152.5t192 113.5h-326v55q43 5 67 9t47 11t33.5 15.5
t19.5 24.5t11.5 36t2.5 50v1036q0 85 -31 108t-150 37v56h553v-56q-43 -5 -66.5 -8.5t-47 -11t-34 -16t-19 -24t-11 -35t-2.5 -50.5z" />
    <glyph glyph-name="iogonek" unicode="&#x12f;" horiz-adv-x="540" 
d="M369 1085v-929q0 -59 28.5 -78.5t112.5 -24.5v-53h-123q-207 -93 -207 -229q0 -49 25 -78t76 -29q50 0 88.5 17t85.5 57l20 -23q-115 -145 -254 -145q-78 0 -126 46t-48 118q0 89 70 152.5t192 113.5h-266v53q84 5 112.5 24.5t28.5 78.5v733l-133 72v22l293 102h25z
M266 1245q-54 0 -91.5 38.5t-37.5 92.5t37.5 92.5t91.5 38.5q55 0 93 -38.5t38 -92.5t-38 -92.5t-93 -38.5z" />
    <glyph glyph-name="Idotaccent" unicode="&#x130;" horiz-adv-x="667" 
d="M430 1237v-1036q0 -37 5 -59t14 -37.5t33 -24.5t50.5 -14t77.5 -11v-55h-553v55q43 5 67 9t47 11t33.5 15.5t19.5 24.5t11.5 36t2.5 50v1036q0 85 -31 108t-150 37v56h553v-56q-43 -5 -66.5 -8.5t-47 -11t-34 -16t-19 -24t-11 -35t-2.5 -50.5zM334 1550q-54 0 -91.5 38.5
t-37.5 92.5t37.5 92.5t91.5 38.5q55 0 93 -38.5t38 -92.5t-38 -92.5t-93 -38.5z" />
    <glyph glyph-name="dotlessi" unicode="&#x131;" horiz-adv-x="540" 
d="M369 1085v-929q0 -59 28.5 -78.5t112.5 -24.5v-53h-467v53q84 5 112.5 24.5t28.5 78.5v733l-133 72v22l293 102h25z" />
    <glyph glyph-name="IJ" unicode="&#x132;" horiz-adv-x="1650" 
d="M430 1237v-1036q0 -37 5 -59t14 -37.5t33 -24.5t50.5 -14t77.5 -11v-55h-553v55q43 5 67 9t47 11t33.5 15.5t19.5 24.5t11.5 36t2.5 50v1036q0 85 -31 108t-150 37v56h553v-56q-43 -5 -66.5 -8.5t-47 -11t-34 -16t-19 -24t-11 -35t-2.5 -50.5zM1241 342v895
q0 31 -2.5 50.5t-11 35t-19 24t-34 16t-47 11t-66.5 8.5v56h553v-56q-43 -5 -66.5 -8.5t-47 -11t-34 -16t-19 -24t-11 -35t-2.5 -50.5v-825q0 -214 -107 -323t-301 -109q-168 0 -268.5 67.5t-100.5 190.5q0 80 58 131h137q-10 -58 -10 -101q0 -118 51.5 -174.5t144.5 -56.5
q203 0 203 305z" />
    <glyph glyph-name="ij" unicode="&#x133;" horiz-adv-x="1038" 
d="M369 1085v-929q0 -59 28.5 -78.5t112.5 -24.5v-53h-467v53q84 5 112.5 24.5t28.5 78.5v733l-133 72v22l293 102h25zM266 1245q-54 0 -91.5 38.5t-37.5 92.5t37.5 92.5t91.5 38.5q55 0 93 -38.5t38 -92.5t-38 -92.5t-93 -38.5zM702 889l-133 72v22l293 102h25v-913
q0 -136 -10.5 -200t-42.5 -132q-35 -70 -97.5 -141t-154.5 -156l-31 23l84 147q31 55 46.5 121.5t18 118.5t2.5 153v783zM784 1245q-54 0 -91.5 38.5t-37.5 92.5t37.5 92.5t91.5 38.5q55 0 93 -38.5t38 -92.5t-38 -92.5t-93 -38.5z" />
    <glyph glyph-name="Jcircumflex" unicode="&#x134;" horiz-adv-x="980" 
d="M571 342v895q0 31 -2.5 50.5t-11 35t-19 24t-34 16t-47 11t-66.5 8.5v56h553v-56q-43 -5 -66.5 -8.5t-47 -11t-34 -16t-19 -24t-11 -35t-2.5 -50.5v-825q0 -214 -107 -323t-301 -109q-168 0 -268 67.5t-100 190.5q0 81 57 131h137q-10 -58 -10 -101q0 -117 52 -174
t145 -57q202 0 202 305zM735 1864l266 -326h-47l-288 193l-289 -193h-47l266 326h139z" />
    <glyph glyph-name="jcircumflex" unicode="&#x135;" horiz-adv-x="497" 
d="M162 889l-133 72v22l293 102h24v-913q0 -136 -10.5 -200t-42.5 -132q-35 -70 -97.5 -141t-154.5 -156l-31 23l84 147q45 78 56.5 162t11.5 231v783zM307 1567l205 -357h-49l-217 224l-219 -224h-47l202 357h125z" />
    <glyph glyph-name="Kcommaaccent" unicode="&#x136;" horiz-adv-x="1353" 
d="M631 793l459 -574q83 -104 129 -132.5t135 -31.5v-55h-299q-84 65 -172 176l-424 537l520 542q45 45 45 76q0 27 -29 35t-135 16v56h430v-56q-64 -3 -100 -24.5t-92 -79.5zM430 1237v-1036q0 -37 5 -59t14 -37.5t33 -24.5t50.5 -14t77.5 -11v-55h-553v55q43 5 67 9t47 11
t33.5 15.5t19.5 24.5t11.5 36t2.5 50v1036q0 85 -31 108t-150 37v56h553v-56q-43 -5 -66.5 -8.5t-47 -11t-34 -16t-19 -24t-11 -35t-2.5 -50.5zM745 -303h-94q-82 17 -82 98q0 49 34.5 79t88.5 30q69 0 108.5 -44t39.5 -112q0 -95 -63 -152t-185 -57v45q71 0 112 33.5
t41 79.5z" />
    <glyph glyph-name="kcommaaccent" unicode="&#x137;" horiz-adv-x="1087" 
d="M389 584l330 301q15 14 20 19t14.5 16t13 19.5t3.5 18.5q0 26 -22.5 34.5t-90.5 16.5l-24 3v53h405v-53q-59 -13 -92.5 -30t-68.5 -48l-312 -283l522 -612v-39h-206zM180 156v1251l-133 72v22l293 103h25v-1448q0 -59 28.5 -78.5t112.5 -24.5v-53h-467v53
q84 5 112.5 24.5t28.5 78.5zM633 -303h-94q-82 17 -82 98q0 49 34.5 79t88.5 30q69 0 108 -44t39 -112q0 -95 -63 -152t-185 -57v45q71 0 112.5 33.5t41.5 79.5z" />
    <glyph glyph-name="kgreenlandic" unicode="&#x138;" horiz-adv-x="1091" 
d="M393 584l330 301q15 14 20 19t14.5 16t13 19.5t3.5 18.5q0 26 -22.5 34.5t-90.5 16.5l-24 3v53h405v-53q-59 -13 -92.5 -30t-68.5 -48l-312 -283l523 -612v-39h-207zM184 156v733l-133 72v22l293 102h25v-929q0 -59 28.5 -78.5t112.5 -24.5v-53h-467v53q84 5 112.5 24.5
t28.5 78.5z" />
    <glyph glyph-name="Lacute" unicode="&#x139;" horiz-adv-x="1191" 
d="M430 1237v-1030q0 -81 45.5 -110t155.5 -29h121q43 0 78 8.5t66.5 31t54.5 45t51.5 67t48.5 80t53 99.5h51l-65 -399h-1033v55q43 5 67 9t47 11t33.5 15.5t19.5 24.5t11.5 36t2.5 50v1036q0 85 -31 108t-150 37v56h553v-56q-43 -5 -66.5 -8.5t-47 -11t-34 -16t-19 -24
t-11 -35t-2.5 -50.5zM449 1843h215v-10l-293 -295h-35z" />
    <glyph glyph-name="lacute" unicode="&#x13a;" horiz-adv-x="536" 
d="M365 1604v-1448q0 -59 28.5 -78.5t112.5 -24.5v-53h-467v53q84 5 112.5 24.5t28.5 78.5v1251l-133 72v22l293 103h25zM324 1931h215v-10l-293 -295h-35z" />
    <glyph glyph-name="Lcommaaccent" unicode="&#x13b;" horiz-adv-x="1191" 
d="M430 1237v-1030q0 -81 45.5 -110t155.5 -29h121q43 0 78 8.5t66.5 31t54.5 45t51.5 67t48.5 80t53 99.5h51l-65 -399h-1033v55q43 5 67 9t47 11t33.5 15.5t19.5 24.5t11.5 36t2.5 50v1036q0 85 -31 108t-150 37v56h553v-56q-43 -5 -66.5 -8.5t-47 -11t-34 -16t-19 -24
t-11 -35t-2.5 -50.5zM647 -303h-94q-82 17 -82 98q0 49 34.5 79t88.5 30q69 0 108 -44t39 -112q0 -95 -62.5 -152t-184.5 -57v45q71 0 112 33.5t41 79.5z" />
    <glyph glyph-name="lcommaaccent" unicode="&#x13c;" horiz-adv-x="536" 
d="M365 1604v-1448q0 -59 28.5 -78.5t112.5 -24.5v-53h-467v53q84 5 112.5 24.5t28.5 78.5v1251l-133 72v22l293 103h25zM313 -303h-94q-82 17 -82 98q0 49 34.5 79t88.5 30q69 0 108.5 -44t39.5 -112q0 -95 -63 -152t-185 -57v45q71 0 112 33.5t41 79.5z" />
    <glyph glyph-name="Lcaron" unicode="&#x13d;" horiz-adv-x="1191" 
d="M430 1237v-1030q0 -81 45.5 -110t155.5 -29h121q43 0 78 8.5t66.5 31t54.5 45t51.5 67t48.5 80t53 99.5h51l-65 -399h-1033v55q43 5 67 9t47 11t33.5 15.5t19.5 24.5t11.5 36t2.5 50v1036q0 85 -31 108t-150 37v56h553v-56q-43 -5 -66.5 -8.5t-47 -11t-34 -16t-19 -24
t-11 -35t-2.5 -50.5zM1008 1427l-213 -409h-23l41 420h195v-11z" />
    <glyph glyph-name="lcaron" unicode="&#x13e;" horiz-adv-x="536" 
d="M365 1604v-1448q0 -59 28.5 -78.5t112.5 -24.5v-53h-467v53q84 5 112.5 24.5t28.5 78.5v1251l-133 72v22l293 103h25zM682 1591l-213 -409h-23l41 420h195v-11z" />
    <glyph glyph-name="Ldot" unicode="&#x13f;" horiz-adv-x="1191" 
d="M430 1237v-1030q0 -81 45.5 -110t155.5 -29h121q43 0 78 8.5t66.5 31t54.5 45t51.5 67t48.5 80t53 99.5h51l-65 -399h-1033v55q43 5 67 9t47 11t33.5 15.5t19.5 24.5t11.5 36t2.5 50v1036q0 85 -31 108t-150 37v56h553v-56q-43 -5 -66.5 -8.5t-47 -11t-34 -16t-19 -24
t-11 -35t-2.5 -50.5zM831 793q0 58 41.5 99.5t100.5 41.5t100 -41t41 -100t-41.5 -100.5t-99.5 -41.5q-59 0 -100.5 41.5t-41.5 100.5z" />
    <glyph glyph-name="ldot" unicode="&#x140;" horiz-adv-x="630" 
d="M365 1604v-1448q0 -59 28.5 -78.5t112.5 -24.5v-53h-467v53q84 5 112.5 24.5t28.5 78.5v1251l-133 72v22l293 103h25zM455 760q0 54 39 93.5t94 39.5t94 -39.5t39 -93.5q0 -56 -38.5 -94.5t-94.5 -38.5t-94.5 38.5t-38.5 94.5z" />
    <glyph glyph-name="Lslash" unicode="&#x141;" horiz-adv-x="1191" 
d="M430 1237v-492l318 148v-74l-318 -145v-467q0 -81 45.5 -110t155.5 -29h121q43 0 78 8.5t66.5 31t54.5 45t51.5 67t48.5 80t53 99.5h51l-65 -399h-1033v55q43 5 67 9t47 11t33.5 15.5t19.5 24.5t11.5 36t2.5 50v395l-156 -72v74l156 72v567q0 85 -31 108t-150 37v56h553
v-56q-43 -5 -66.5 -8.5t-47 -11t-34 -16t-19 -24t-11 -35t-2.5 -50.5z" />
    <glyph glyph-name="lslash" unicode="&#x142;" horiz-adv-x="569" 
d="M375 1604v-660l174 111v-78l-174 -113v-708q0 -59 28.5 -78.5t112.5 -24.5v-53h-467v53q84 5 112.5 24.5t28.5 78.5v612l-161 -100v77l161 101v561l-133 72v22l293 103h25z" />
    <glyph glyph-name="Nacute" unicode="&#x143;" horiz-adv-x="1513" 
d="M1217 342v891q0 86 -35.5 111.5t-165.5 37.5v56h461v-56q-117 -14 -149 -38.5t-32 -110.5v-1241h-51l-923 1190v-977q0 -87 35.5 -112.5t164.5 -37.5v-55h-461v55q117 14 149 39t32 111v1052q-58 74 -91.5 98t-93.5 27v56h318zM825 1843h215v-10l-292 -295h-35z" />
    <glyph glyph-name="nacute" unicode="&#x144;" horiz-adv-x="1183" 
d="M834 156v596q0 112 -45.5 163.5t-137.5 51.5q-139 0 -282 -125v-686q0 -59 28.5 -78.5t112.5 -24.5v-53h-467v53q84 5 112.5 24.5t28.5 78.5v733l-133 72v22l301 102h25l-8 -194q176 194 372 194q141 0 209 -81.5t68 -247.5v-600q0 -59 28.5 -78.5t112.5 -24.5v-53h-467
v53q84 5 113 24.5t29 78.5zM670 1559h204v-11l-292 -336h-35z" />
    <glyph glyph-name="Ncommaaccent" unicode="&#x145;" horiz-adv-x="1513" 
d="M1217 342v891q0 86 -35.5 111.5t-165.5 37.5v56h461v-56q-117 -14 -149 -38.5t-32 -110.5v-1241h-51l-923 1190v-977q0 -87 35.5 -112.5t164.5 -37.5v-55h-461v55q117 14 149 39t32 111v1052q-58 74 -91.5 98t-93.5 27v56h318zM836 -303h-95q-82 17 -82 98q0 49 34.5 79
t88.5 30q69 0 108.5 -44t39.5 -112q0 -95 -63 -152t-185 -57v45q71 0 112.5 33.5t41.5 79.5z" />
    <glyph glyph-name="ncommaaccent" unicode="&#x146;" horiz-adv-x="1183" 
d="M834 156v596q0 112 -45.5 163.5t-137.5 51.5q-139 0 -282 -125v-686q0 -59 28.5 -78.5t112.5 -24.5v-53h-467v53q84 5 112.5 24.5t28.5 78.5v733l-133 72v22l301 102h25l-8 -194q176 194 372 194q141 0 209 -81.5t68 -247.5v-600q0 -59 28.5 -78.5t112.5 -24.5v-53h-467
v53q84 5 113 24.5t29 78.5zM649 -303h-94q-82 17 -82 98q0 49 34.5 79t88.5 30q69 0 108 -44t39 -112q0 -95 -62.5 -152t-184.5 -57v45q71 0 112 33.5t41 79.5z" />
    <glyph glyph-name="Ncaron" unicode="&#x147;" horiz-adv-x="1513" 
d="M1217 342v891q0 86 -35.5 111.5t-165.5 37.5v56h461v-56q-117 -14 -149 -38.5t-32 -110.5v-1241h-51l-923 1190v-977q0 -87 35.5 -112.5t164.5 -37.5v-55h-461v55q117 14 149 39t32 111v1052q-58 74 -91.5 98t-93.5 27v56h318zM1130 1864l-266 -326h-139l-266 326h47
l289 -193l288 193h47z" />
    <glyph glyph-name="ncaron" unicode="&#x148;" horiz-adv-x="1183" 
d="M834 156v596q0 112 -45.5 163.5t-137.5 51.5q-139 0 -282 -125v-686q0 -59 28.5 -78.5t112.5 -24.5v-53h-467v53q84 5 112.5 24.5t28.5 78.5v733l-133 72v22l301 102h25l-8 -194q176 194 372 194q141 0 209 -81.5t68 -247.5v-600q0 -59 28.5 -78.5t112.5 -24.5v-53h-467
v53q84 5 113 24.5t29 78.5zM903 1569l-225 -355h-139l-226 355h54l241 -221l242 221h53z" />
    <glyph glyph-name="Eng" unicode="&#x14a;" horiz-adv-x="1513" 
d="M1141 125l-819 1057v-977q0 -87 35.5 -112.5t164.5 -37.5v-55h-461v55q117 14 149 39t32 111v1052q-58 74 -91.5 98t-93.5 27v56h322l838 -1092v887q0 86 -35.5 111.5t-165.5 37.5v56h461v-56q-117 -14 -149 -38.5t-32 -110.5v-1061q0 -136 -10.5 -199t-42.5 -131
q-35 -71 -85.5 -124.5t-139.5 -127.5l-31 23l43 68q62 98 86.5 205t24.5 239z" />
    <glyph glyph-name="eng" unicode="&#x14b;" horiz-adv-x="1169" 
d="M834 106v646q0 112 -45.5 163.5t-137.5 51.5q-139 0 -282 -125v-686q0 -59 28.5 -78.5t112.5 -24.5v-53h-467v53q84 5 112.5 24.5t28.5 78.5v733l-133 72v22l301 102h25l-8 -194q176 194 372 194q141 0 209 -81.5t68 -247.5v-584q0 -136 -10.5 -200t-42.5 -132
q-35 -70 -97.5 -141t-154.5 -156l-31 23l84 147q45 78 56.5 162t11.5 231z" />
    <glyph glyph-name="Omacron" unicode="&#x14c;" horiz-adv-x="1425" 
d="M721 47q133 0 230.5 92.5t145.5 242.5t48 337q0 97 -16.5 191.5t-52.5 182t-87 153.5t-125 105.5t-162 39.5q-133 0 -230.5 -92.5t-145 -242.5t-47.5 -337q0 -123 27 -239.5t79.5 -214.5t139.5 -158t196 -60zM705 -20q-149 0 -271.5 58.5t-201.5 157.5t-121.5 226.5
t-42.5 267.5q0 172 51 317t139 243.5t207 153t254 54.5q149 0 272 -58.5t202 -157.5t122 -226.5t43 -267.5q0 -172 -51 -317t-139.5 -243.5t-208 -153t-254.5 -54.5zM424 1583v100h577v-100h-577z" />
    <glyph glyph-name="omacron" unicode="&#x14d;" horiz-adv-x="1060" 
d="M535 43q134 0 208 127t74 338q0 104 -18 195t-52.5 163t-91.5 114t-129 42q-134 0 -208 -127t-74 -338q0 -104 18 -195t52.5 -163t91.5 -114t129 -42zM524 -20q-214 0 -344.5 145t-130.5 381q0 259 140 419t348 160q214 0 344.5 -146.5t130.5 -379.5q0 -259 -140 -419
t-348 -160zM274 1276v100h514v-100h-514z" />
    <glyph glyph-name="Obreve" unicode="&#x14e;" horiz-adv-x="1425" 
d="M721 47q133 0 230.5 92.5t145.5 242.5t48 337q0 97 -16.5 191.5t-52.5 182t-87 153.5t-125 105.5t-162 39.5q-133 0 -230.5 -92.5t-145 -242.5t-47.5 -337q0 -123 27 -239.5t79.5 -214.5t139.5 -158t196 -60zM705 -20q-149 0 -271.5 58.5t-201.5 157.5t-121.5 226.5
t-42.5 267.5q0 172 51 317t139 243.5t207 153t254 54.5q149 0 272 -58.5t202 -157.5t122 -226.5t43 -267.5q0 -172 -51 -317t-139.5 -243.5t-208 -153t-254.5 -54.5zM713 1532q-135 0 -212 80.5t-77 240.5h53q26 -192 236 -192q209 0 235 192h53q0 -160 -76.5 -240.5
t-211.5 -80.5z" />
    <glyph glyph-name="obreve" unicode="&#x14f;" horiz-adv-x="1060" 
d="M535 43q134 0 208 127t74 338q0 104 -18 195t-52.5 163t-91.5 114t-129 42q-134 0 -208 -127t-74 -338q0 -104 18 -195t52.5 -163t91.5 -114t129 -42zM524 -20q-214 0 -344.5 145t-130.5 381q0 259 140 419t348 160q214 0 344.5 -146.5t130.5 -379.5q0 -259 -140 -419
t-348 -160zM530 1221q-258 0 -258 325h60q13 -196 198 -196q186 0 199 196h59q0 -325 -258 -325z" />
    <glyph glyph-name="Ohungarumlaut" unicode="&#x150;" horiz-adv-x="1425" 
d="M721 47q133 0 230.5 92.5t145.5 242.5t48 337q0 97 -16.5 191.5t-52.5 182t-87 153.5t-125 105.5t-162 39.5q-133 0 -230.5 -92.5t-145 -242.5t-47.5 -337q0 -123 27 -239.5t79.5 -214.5t139.5 -158t196 -60zM705 -20q-149 0 -271.5 58.5t-201.5 157.5t-121.5 226.5
t-42.5 267.5q0 172 51 317t139 243.5t207 153t254 54.5q149 0 272 -58.5t202 -157.5t122 -226.5t43 -267.5q0 -172 -51 -317t-139.5 -243.5t-208 -153t-254.5 -54.5zM655 1843h199v-10l-283 -295h-39zM948 1843h199v-10l-283 -295h-39z" />
    <glyph glyph-name="ohungarumlaut" unicode="&#x151;" horiz-adv-x="1060" 
d="M535 43q134 0 208 127t74 338q0 104 -18 195t-52.5 163t-91.5 114t-129 42q-134 0 -208 -127t-74 -338q0 -104 18 -195t52.5 -163t91.5 -114t129 -42zM524 -20q-214 0 -344.5 145t-130.5 381q0 259 140 419t348 160q214 0 344.5 -146.5t130.5 -379.5q0 -259 -140 -419
t-348 -160zM461 1559h198v-11l-286 -336h-35zM754 1559h198v-11l-286 -336h-35z" />
    <glyph glyph-name="OE" unicode="&#x152;" horiz-adv-x="2025" 
d="M1006 1370h-150q-126 0 -230.5 -41t-181.5 -120.5t-120 -203t-43 -280.5q0 -104 21.5 -198.5t70 -179t119 -146t175.5 -97.5t234 -36h105v1302zM1919 0h-1051q-159 0 -292 36.5t-225.5 99.5t-157 149.5t-95 185.5t-30.5 207q0 177 62 322.5t168 240t246.5 146t299.5 51.5
h1061v-342h-41q-68 162 -130 218t-169 56h-367v-594h326q63 0 95 44t50 141h55v-437h-55q-18 97 -50 141t-95 44h-326v-502q0 -81 45.5 -110t155.5 -29h188q104 0 173.5 64.5t170.5 236.5h49z" />
    <glyph glyph-name="oe" unicode="&#x153;" horiz-adv-x="1701" 
d="M539 1085q121 0 219.5 -54t159.5 -150q62 93 154.5 148.5t195.5 55.5q183 0 284 -113.5t101 -291.5v-43h-680q-10 -241 93 -380.5t269 -139.5q105 0 177 46t130 136l25 -12q-38 -139 -143 -223t-260 -84q-118 0 -212.5 54.5t-152.5 147.5q-65 -94 -164 -148t-209 -54
q-214 0 -344.5 145t-130.5 381q0 259 140 419t348 160zM537 43q134 0 208 127t74 338q0 104 -18 195t-52.5 163t-91.5 114t-129 42q-134 0 -208 -127t-74 -338q0 -104 18 -195t52.5 -163t91.5 -114t129 -42zM1251 1020q-114 0 -185 -90.5t-87 -233.5h496q0 147 -55 235.5
t-169 88.5z" />
    <glyph glyph-name="Racute" unicode="&#x154;" horiz-adv-x="1380" 
d="M561 1370h-131v-674h139q178 0 264.5 90.5t86.5 260.5q0 141 -91 232t-268 91zM430 629v-428q0 -37 5 -59t14 -37.5t33 -24.5t50.5 -14t77.5 -11v-55h-553v55q43 5 67 9t47 11t33.5 15.5t19.5 24.5t11.5 36t2.5 50v1036q0 85 -31 108t-150 37v56h549q253 0 386.5 -107
t133.5 -284q0 -86 -34 -157t-90 -117t-116 -74t-122 -40l336 -432q74 -96 134 -133.5t146 -38.5v-55h-305q-72 50 -170 182l-334 447h-141zM684 1843h215v-10l-293 -295h-35z" />
    <glyph glyph-name="racute" unicode="&#x155;" horiz-adv-x="743" 
d="M369 750v-594q0 -58 38.5 -78t143.5 -25v-53h-508v53q84 5 112.5 24.5t28.5 78.5v733l-133 72v22l301 102h25l-8 -290q40 74 62 112t50 79t50.5 58.5t51 29t62.5 11.5q53 0 78 -32v-154h-29q-109 0 -177.5 -26.5t-147.5 -122.5zM526 1559h205v-11l-293 -336h-35z" />
    <glyph glyph-name="Rcommaaccent" unicode="&#x156;" horiz-adv-x="1380" 
d="M561 1370h-131v-674h139q178 0 264.5 90.5t86.5 260.5q0 141 -91 232t-268 91zM430 629v-428q0 -37 5 -59t14 -37.5t33 -24.5t50.5 -14t77.5 -11v-55h-553v55q43 5 67 9t47 11t33.5 15.5t19.5 24.5t11.5 36t2.5 50v1036q0 85 -31 108t-150 37v56h549q253 0 386.5 -107
t133.5 -284q0 -86 -34 -157t-90 -117t-116 -74t-122 -40l336 -432q74 -96 134 -133.5t146 -38.5v-55h-305q-72 50 -170 182l-334 447h-141zM776 -303h-94q-82 17 -82 98q0 49 34.5 79t88.5 30q69 0 108 -44t39 -112q0 -95 -62.5 -152t-184.5 -57v45q71 0 112 33.5t41 79.5z
" />
    <glyph glyph-name="rcommaaccent" unicode="&#x157;" horiz-adv-x="743" 
d="M369 750v-594q0 -58 38.5 -78t143.5 -25v-53h-508v53q84 5 112.5 24.5t28.5 78.5v733l-133 72v22l301 102h25l-8 -290q40 74 62 112t50 79t50.5 58.5t51 29t62.5 11.5q53 0 78 -32v-154h-29q-109 0 -177.5 -26.5t-147.5 -122.5zM334 -303h-94q-82 17 -82 98q0 49 34.5 79
t88.5 30q69 0 108 -44t39 -112q0 -95 -63 -152t-185 -57v45q71 0 112.5 33.5t41.5 79.5z" />
    <glyph glyph-name="Rcaron" unicode="&#x158;" horiz-adv-x="1380" 
d="M561 1370h-131v-674h139q178 0 264.5 90.5t86.5 260.5q0 141 -91 232t-268 91zM430 629v-428q0 -37 5 -59t14 -37.5t33 -24.5t50.5 -14t77.5 -11v-55h-553v55q43 5 67 9t47 11t33.5 15.5t19.5 24.5t11.5 36t2.5 50v1036q0 85 -31 108t-150 37v56h549q253 0 386.5 -107
t133.5 -284q0 -86 -34 -157t-90 -117t-116 -74t-122 -40l336 -432q74 -96 134 -133.5t146 -38.5v-55h-305q-72 50 -170 182l-334 447h-141zM969 1864l-267 -326h-139l-266 326h47l289 -193l289 193h47z" />
    <glyph glyph-name="rcaron" unicode="&#x159;" horiz-adv-x="743" 
d="M369 750v-594q0 -58 38.5 -78t143.5 -25v-53h-508v53q84 5 112.5 24.5t28.5 78.5v733l-133 72v22l301 102h25l-8 -290q40 74 62 112t50 79t50.5 58.5t51 29t62.5 11.5q53 0 78 -32v-154h-29q-109 0 -177.5 -26.5t-147.5 -122.5zM760 1569l-225 -355h-140l-225 355h53
l242 -221l242 221h53z" />
    <glyph glyph-name="Sacute" unicode="&#x15a;" horiz-adv-x="1062" 
d="M506 -20q-134 0 -247.5 37t-180.5 96l-12 346h59q36 -200 131.5 -307t249.5 -107q139 0 220 74.5t81 193.5q0 65 -17 111t-62.5 87t-107.5 74.5t-169 78.5q-72 30 -120.5 54.5t-99.5 61t-81 76t-49 96t-19 125.5q0 165 116.5 273t313.5 108q117 0 224 -31.5t186 -87.5
v-301h-60q-23 174 -112.5 264.5t-237.5 90.5q-120 0 -189 -68.5t-69 -175.5q0 -116 62 -178.5t239 -136.5q112 -47 185.5 -88.5t131 -94t83.5 -117.5t26 -149q0 -124 -65.5 -217.5t-172 -140.5t-237.5 -47zM598 1843h215v-10l-293 -295h-35z" />
    <glyph glyph-name="sacute" unicode="&#x15b;" horiz-adv-x="884" 
d="M434 -20q-102 0 -194 27.5t-150 72.5l-12 282h55q41 -149 118 -237t191 -88q95 0 155 48.5t60 141.5q0 85 -56.5 135t-201.5 107q-164 64 -234.5 134.5t-70.5 193.5q0 132 92 210t246 78q175 0 311 -86v-247h-49q-72 276 -272 276q-87 0 -134.5 -47t-47.5 -123
q0 -78 54.5 -127.5t192.5 -101.5q162 -61 241 -135.5t79 -198.5q0 -146 -101.5 -230.5t-271.5 -84.5zM516 1559h205v-11l-293 -336h-35z" />
    <glyph glyph-name="Scircumflex" unicode="&#x15c;" horiz-adv-x="1062" 
d="M506 -20q-134 0 -247.5 37t-180.5 96l-12 346h59q36 -200 131.5 -307t249.5 -107q139 0 220 74.5t81 193.5q0 65 -17 111t-62.5 87t-107.5 74.5t-169 78.5q-72 30 -120.5 54.5t-99.5 61t-81 76t-49 96t-19 125.5q0 165 116.5 273t313.5 108q117 0 224 -31.5t186 -87.5
v-301h-60q-23 174 -112.5 264.5t-237.5 90.5q-120 0 -189 -68.5t-69 -175.5q0 -116 62 -178.5t239 -136.5q112 -47 185.5 -88.5t131 -94t83.5 -117.5t26 -149q0 -124 -65.5 -217.5t-172 -140.5t-237.5 -47zM616 1864l267 -326h-47l-289 193l-289 -193h-47l266 326h139z" />
    <glyph glyph-name="scircumflex" unicode="&#x15d;" horiz-adv-x="884" 
d="M434 -20q-102 0 -194 27.5t-150 72.5l-12 282h55q41 -149 118 -237t191 -88q95 0 155 48.5t60 141.5q0 85 -56.5 135t-201.5 107q-164 64 -234.5 134.5t-70.5 193.5q0 132 92 210t246 78q175 0 311 -86v-247h-49q-72 276 -272 276q-87 0 -134.5 -47t-47.5 -123
q0 -78 54.5 -127.5t192.5 -101.5q162 -61 241 -135.5t79 -198.5q0 -146 -101.5 -230.5t-271.5 -84.5zM524 1567l226 -355h-54l-241 222l-242 -222h-53l225 355h139z" />
    <glyph glyph-name="Scedilla" unicode="&#x15e;" horiz-adv-x="1062" 
d="M332 -453l-10 54q109 0 173 30t64 78q0 45 -43.5 67t-134.5 25l74 181q-119 7 -218 42t-159 89l-12 346h59q36 -200 131.5 -307t249.5 -107q139 0 220 74.5t81 193.5q0 65 -17 111t-62.5 87t-107.5 74.5t-169 78.5q-72 30 -120.5 54.5t-99.5 61t-81 76t-49 96t-19 125.5
q0 165 116.5 273t313.5 108q117 0 224 -31.5t186 -87.5v-301h-60q-23 174 -112.5 264.5t-237.5 90.5q-120 0 -189 -68.5t-69 -175.5q0 -116 62 -178.5t239 -136.5q112 -47 185.5 -88.5t131 -94t83.5 -117.5t26 -149q0 -185 -136.5 -294t-336.5 -111l-31 -78q97 -2 151 -40
t54 -112q0 -101 -95 -152t-255 -51z" />
    <glyph glyph-name="scedilla" unicode="&#x15f;" horiz-adv-x="884" 
d="M244 -453l-11 54q109 0 173.5 30t64.5 78q0 45 -43.5 67t-134.5 25l74 183q-178 16 -277 96l-12 282h55q41 -149 118 -237t191 -88q95 0 155 48.5t60 141.5q0 85 -56.5 135t-201.5 107q-164 64 -234.5 134.5t-70.5 193.5q0 132 92 210t246 78q175 0 311 -86v-247h-49
q-72 276 -272 276q-87 0 -134.5 -47t-47.5 -123q0 -78 54.5 -127.5t192.5 -101.5q162 -61 241 -135.5t79 -198.5q0 -146 -101.5 -230.5t-271.5 -84.5h-14l-31 -78q97 -2 151 -40t54 -112q0 -101 -95 -152t-255 -51z" />
    <glyph glyph-name="Scaron" unicode="&#x160;" horiz-adv-x="1062" 
d="M506 -20q-134 0 -247.5 37t-180.5 96l-12 346h59q36 -200 131.5 -307t249.5 -107q139 0 220 74.5t81 193.5q0 65 -17 111t-62.5 87t-107.5 74.5t-169 78.5q-72 30 -120.5 54.5t-99.5 61t-81 76t-49 96t-19 125.5q0 165 116.5 273t313.5 108q117 0 224 -31.5t186 -87.5
v-301h-60q-23 174 -112.5 264.5t-237.5 90.5q-120 0 -189 -68.5t-69 -175.5q0 -116 62 -178.5t239 -136.5q112 -47 185.5 -88.5t131 -94t83.5 -117.5t26 -149q0 -124 -65.5 -217.5t-172 -140.5t-237.5 -47zM883 1864l-267 -326h-139l-266 326h47l289 -193l289 193h47z" />
    <glyph glyph-name="scaron" unicode="&#x161;" horiz-adv-x="884" 
d="M434 -20q-102 0 -194 27.5t-150 72.5l-12 282h55q41 -149 118 -237t191 -88q95 0 155 48.5t60 141.5q0 85 -56.5 135t-201.5 107q-164 64 -234.5 134.5t-70.5 193.5q0 132 92 210t246 78q175 0 311 -86v-247h-49q-72 276 -272 276q-87 0 -134.5 -47t-47.5 -123
q0 -78 54.5 -127.5t192.5 -101.5q162 -61 241 -135.5t79 -198.5q0 -146 -101.5 -230.5t-271.5 -84.5zM750 1569l-226 -355h-139l-225 355h53l242 -221l241 221h54z" />
    <glyph glyph-name="Tcedilla" unicode="&#x162;" horiz-adv-x="1312" 
d="M59 1438h1194l31 -428h-45q-33 82 -52.5 127t-45 93t-46 70t-50.5 42t-63 26t-79 6h-149v-1177q0 -25 4.5 -44t9.5 -32t20 -23t26 -16t38 -11.5t44 -8t56 -7.5v-55h-592v55q45 6 64.5 9t49 10t41 15t25 23t17.5 35.5t4 49.5v1177h-151q-46 0 -79 -6t-63 -26t-50.5 -42
t-46 -70t-45 -93t-52.5 -127h-45zM696 -303h-94q-82 17 -82 98q0 49 34.5 79t88.5 30q69 0 108.5 -44t39.5 -112q0 -95 -63 -152t-185 -57v45q71 0 112 33.5t41 79.5z" />
    <glyph glyph-name="tcedilla" unicode="&#x163;" horiz-adv-x="669" 
d="M319 1319v-254h293v-78h-293v-678q0 -113 41.5 -163t128.5 -50q82 0 162 60l19 -25q-45 -66 -113.5 -108.5t-157.5 -42.5q-119 0 -189.5 71.5t-70.5 227.5v708h-139v29q167 90 279 303h40zM375 -303h-94q-82 17 -82 98q0 49 34.5 79t88.5 30q69 0 108 -44t39 -112
q0 -95 -63 -152t-185 -57v45q71 0 112.5 33.5t41.5 79.5z" />
    <glyph glyph-name="Tcaron" unicode="&#x164;" horiz-adv-x="1312" 
d="M59 1438h1194l31 -428h-45q-33 82 -52.5 127t-45 93t-46 70t-50.5 42t-63 26t-79 6h-149v-1177q0 -25 4.5 -44t9.5 -32t20 -23t26 -16t38 -11.5t44 -8t56 -7.5v-55h-592v55q45 6 64.5 9t49 10t41 15t25 23t17.5 35.5t4 49.5v1177h-151q-46 0 -79 -6t-63 -26t-50.5 -42
t-46 -70t-45 -93t-52.5 -127h-45zM991 1864l-266 -326h-139l-267 326h48l288 -193l289 193h47z" />
    <glyph glyph-name="tcaron" unicode="&#x165;" horiz-adv-x="669" 
d="M319 1319v-254h293v-78h-293v-678q0 -113 41.5 -163t128.5 -50q82 0 162 60l19 -25q-45 -66 -113.5 -108.5t-157.5 -42.5q-119 0 -189.5 71.5t-70.5 227.5v708h-139v29q167 90 279 303h40zM657 1593l-213 -409h-22l41 420h194v-11z" />
    <glyph glyph-name="Tbar" unicode="&#x166;" horiz-adv-x="1312" 
d="M59 1438h1194l31 -428h-45q-33 82 -52.5 127t-45 93t-46 70t-50.5 42t-63 26t-79 6h-149v-596h245v-69h-245v-512q0 -25 4.5 -44t9.5 -32t20 -23t26 -16t38 -11.5t44 -8t56 -7.5v-55h-592v55q45 6 64.5 9t49 10t41 15t25 23t17.5 35.5t4 49.5v512h-246v69h246v596h-151
q-46 0 -79 -6t-63 -26t-50.5 -42t-46 -70t-45 -93t-52.5 -127h-45z" />
    <glyph glyph-name="tbar" unicode="&#x167;" horiz-adv-x="704" 
d="M334 1319v-254h293v-78h-293v-229h293v-74h-293v-375q0 -113 41.5 -163t128.5 -50q82 0 162 60l18 -25q-45 -66 -113.5 -108.5t-156.5 -42.5q-119 0 -189.5 71.5t-70.5 227.5v405h-140v74h140v229h-140v29q167 90 279 303h41z" />
    <glyph glyph-name="Utilde" unicode="&#x168;" horiz-adv-x="1456" 
d="M391 1237v-733q0 -197 93 -308.5t261 -111.5q207 0 319 107.5t112 328.5v713q0 86 -35.5 111.5t-165.5 37.5v56h461v-56q-117 -14 -149 -38.5t-32 -110.5v-748q0 -126 -40 -223.5t-110.5 -158.5t-162.5 -92t-201 -31q-256 0 -399 127.5t-143 384.5v745q0 85 -31 108
t-150 37v56h553v-56q-43 -5 -66.5 -8.5t-47 -11t-34 -16t-19 -24t-11 -35t-2.5 -50.5zM903 1538q-37 0 -79.5 19t-74.5 41.5t-71.5 41.5t-69.5 19q-45 0 -80.5 -27.5t-68.5 -89.5l-37 21q58 136 104 186.5t115 50.5q37 0 79.5 -19t74.5 -41.5t71.5 -41.5t69.5 -19
q45 0 80.5 27.5t68.5 89.5l37 -20q-58 -136 -104 -187t-115 -51z" />
    <glyph glyph-name="utilde" unicode="&#x169;" horiz-adv-x="1130" 
d="M958 866v-667q0 -55 15 -71.5t82 -23.5l53 -6v-43l-309 -75h-31l8 192q-91 -91 -172 -141.5t-178 -50.5q-281 0 -281 319v567q0 57 -20.5 77.5t-91.5 29.5l-33 4v47l315 57h23l-10 -223v-522q0 -236 182 -236q72 0 133 30.5t133 86.5v649q0 57 -20 77.5t-92 29.5l-31 4
v47l311 57h23zM682 1231q-37 0 -76 19t-67.5 41.5t-64.5 41.5t-66 19q-44 0 -75 -26.5t-65 -90.5l-37 20q60 140 100.5 189t108.5 49q37 0 76 -19t67.5 -41.5t65 -41.5t66.5 -19q43 0 74 26.5t65 90.5l37 -21q-60 -140 -100.5 -188.5t-108.5 -48.5z" />
    <glyph glyph-name="Umacron" unicode="&#x16a;" horiz-adv-x="1456" 
d="M391 1237v-733q0 -197 93 -308.5t261 -111.5q207 0 319 107.5t112 328.5v713q0 86 -35.5 111.5t-165.5 37.5v56h461v-56q-117 -14 -149 -38.5t-32 -110.5v-748q0 -126 -40 -223.5t-110.5 -158.5t-162.5 -92t-201 -31q-256 0 -399 127.5t-143 384.5v745q0 85 -31 108
t-150 37v56h553v-56q-43 -5 -66.5 -8.5t-47 -11t-34 -16t-19 -24t-11 -35t-2.5 -50.5zM483 1583v100h578v-100h-578z" />
    <glyph glyph-name="umacron" unicode="&#x16b;" horiz-adv-x="1130" 
d="M958 866v-667q0 -55 15 -71.5t82 -23.5l53 -6v-43l-309 -75h-31l8 192q-91 -91 -172 -141.5t-178 -50.5q-281 0 -281 319v567q0 57 -20.5 77.5t-91.5 29.5l-33 4v47l315 57h23l-10 -223v-522q0 -236 182 -236q72 0 133 30.5t133 86.5v649q0 57 -20 77.5t-92 29.5l-31 4
v47l311 57h23zM305 1276v100h514v-100h-514z" />
    <glyph glyph-name="Ubreve" unicode="&#x16c;" horiz-adv-x="1456" 
d="M391 1237v-733q0 -197 93 -308.5t261 -111.5q207 0 319 107.5t112 328.5v713q0 86 -35.5 111.5t-165.5 37.5v56h461v-56q-117 -14 -149 -38.5t-32 -110.5v-748q0 -126 -40 -223.5t-110.5 -158.5t-162.5 -92t-201 -31q-256 0 -399 127.5t-143 384.5v745q0 85 -31 108
t-150 37v56h553v-56q-43 -5 -66.5 -8.5t-47 -11t-34 -16t-19 -24t-11 -35t-2.5 -50.5zM772 1532q-135 0 -212 80.5t-77 240.5h54q26 -192 235 -192q210 0 236 192h53q0 -160 -77 -240.5t-212 -80.5z" />
    <glyph glyph-name="ubreve" unicode="&#x16d;" horiz-adv-x="1130" 
d="M958 866v-667q0 -55 15 -71.5t82 -23.5l53 -6v-43l-309 -75h-31l8 192q-91 -91 -172 -141.5t-178 -50.5q-281 0 -281 319v567q0 57 -20.5 77.5t-91.5 29.5l-33 4v47l315 57h23l-10 -223v-522q0 -236 182 -236q72 0 133 30.5t133 86.5v649q0 57 -20 77.5t-92 29.5l-31 4
v47l311 57h23zM561 1221q-258 0 -258 325h59q13 -196 199 -196t199 196h59q0 -325 -258 -325z" />
    <glyph glyph-name="Uring" unicode="&#x16e;" horiz-adv-x="1456" 
d="M391 1237v-733q0 -197 93 -308.5t261 -111.5q207 0 319 107.5t112 328.5v713q0 86 -35.5 111.5t-165.5 37.5v56h461v-56q-117 -14 -149 -38.5t-32 -110.5v-748q0 -126 -40 -223.5t-110.5 -158.5t-162.5 -92t-201 -31q-256 0 -399 127.5t-143 384.5v745q0 85 -31 108
t-150 37v56h553v-56q-43 -5 -66.5 -8.5t-47 -11t-34 -16t-19 -24t-11 -35t-2.5 -50.5zM662 1679q0 -52 29.5 -85t80.5 -33t81 33t30 85t-30 85.5t-81 33.5t-80.5 -33.5t-29.5 -85.5zM596 1679q0 75 50.5 125.5t125.5 50.5t125.5 -50.5t50.5 -125.5t-50.5 -125.5
t-125.5 -50.5t-125.5 50.5t-50.5 125.5z" />
    <glyph glyph-name="uring" unicode="&#x16f;" horiz-adv-x="1130" 
d="M958 866v-667q0 -55 15 -71.5t82 -23.5l53 -6v-43l-309 -75h-31l8 192q-91 -91 -172 -141.5t-178 -50.5q-281 0 -281 319v567q0 57 -20.5 77.5t-91.5 29.5l-33 4v47l315 57h23l-10 -223v-522q0 -236 182 -236q72 0 133 30.5t133 86.5v649q0 57 -20 77.5t-92 29.5l-31 4
v47l311 57h23zM451 1335q0 -52 29.5 -85t80.5 -33t81 33t30 85t-30 85.5t-81 33.5t-80.5 -33.5t-29.5 -85.5zM385 1335q0 75 50.5 125.5t125.5 50.5t125.5 -50.5t50.5 -125.5t-50.5 -125.5t-125.5 -50.5t-125.5 50.5t-50.5 125.5z" />
    <glyph glyph-name="Uhungarumlaut" unicode="&#x170;" horiz-adv-x="1456" 
d="M391 1237v-733q0 -197 93 -308.5t261 -111.5q207 0 319 107.5t112 328.5v713q0 86 -35.5 111.5t-165.5 37.5v56h461v-56q-117 -14 -149 -38.5t-32 -110.5v-748q0 -126 -40 -223.5t-110.5 -158.5t-162.5 -92t-201 -31q-256 0 -399 127.5t-143 384.5v745q0 85 -31 108
t-150 37v56h553v-56q-43 -5 -66.5 -8.5t-47 -11t-34 -16t-19 -24t-11 -35t-2.5 -50.5zM715 1843h198v-10l-282 -295h-39zM1008 1843h198v-10l-282 -295h-39z" />
    <glyph glyph-name="uhungarumlaut" unicode="&#x171;" horiz-adv-x="1130" 
d="M958 866v-667q0 -55 15 -71.5t82 -23.5l53 -6v-43l-309 -75h-31l8 192q-91 -91 -172 -141.5t-178 -50.5q-281 0 -281 319v567q0 57 -20.5 77.5t-91.5 29.5l-33 4v47l315 57h23l-10 -223v-522q0 -236 182 -236q72 0 133 30.5t133 86.5v649q0 57 -20 77.5t-92 29.5l-31 4
v47l311 57h23zM492 1559h198v-11l-287 -336h-34zM784 1559h199v-11l-287 -336h-34z" />
    <glyph glyph-name="Uogonek" unicode="&#x172;" horiz-adv-x="1456" 
d="M391 1237v-733q0 -197 93 -308.5t261 -111.5q207 0 319 107.5t112 328.5v713q0 86 -35.5 111.5t-165.5 37.5v56h461v-56q-117 -14 -149 -38.5t-32 -110.5v-748q0 -196 -93 -319t-251 -166q-209 -93 -209 -229q0 -49 25 -78t76 -29q50 0 88.5 17t85.5 57l20 -23
q-115 -145 -254 -145q-78 0 -126 46t-48 118q0 82 57.5 141.5t161.5 106.5q-8 0 -23.5 -1t-23.5 -1q-256 0 -399 127.5t-143 384.5v745q0 85 -31 108t-150 37v56h553v-56q-43 -5 -66.5 -8.5t-47 -11t-34 -16t-19 -24t-11 -35t-2.5 -50.5z" />
    <glyph glyph-name="uogonek" unicode="&#x173;" horiz-adv-x="1130" 
d="M958 866v-667q0 -55 15 -71.5t82 -23.5l53 -6v-43q-162 -39 -256.5 -84t-130 -91.5t-35.5 -108.5q0 -50 24.5 -78.5t75.5 -28.5q50 0 89.5 17t85.5 57l20 -23q-115 -145 -254 -145q-78 0 -126 46t-48 118q0 81 55 136.5t160 104.5l8 197q-91 -91 -172 -141.5t-178 -50.5
q-281 0 -281 319v567q0 57 -20.5 77.5t-91.5 29.5l-33 4v47l315 57h23l-10 -223v-522q0 -236 182 -236q72 0 133 30.5t133 86.5v649q0 57 -20 77.5t-92 29.5l-31 4v47l311 57h23z" />
    <glyph glyph-name="Wcircumflex" unicode="&#x174;" horiz-adv-x="1880" 
d="M1247 -18l-284 864l-312 -864h-49l-471 1325q-12 37 -41.5 52.5t-79.5 22.5v56h522v-56q-103 -3 -143.5 -22t-40.5 -66q0 -11 2.5 -23.5t8.5 -31t8 -27.5l323 -925l238 663l-117 357q-8 28 -28.5 44t-39 21t-53.5 10v56h504v-56q-103 -3 -143.5 -22t-40.5 -66
q0 -19 18 -82l301 -915l309 913q21 65 21 82q0 47 -41 67t-145 23v56h397v-56q-35 -5 -52 -9.5t-37.5 -20.5t-29.5 -45l-457 -1325h-47zM1026 1864l266 -326h-47l-289 193l-288 -193h-47l266 326h139z" />
    <glyph glyph-name="wcircumflex" unicode="&#x175;" horiz-adv-x="1587" 
d="M1128 242l248 647q8 21 8 49q0 19 -8.5 32t-29.5 21t-41 12t-60 9v53h332v-53q-54 -13 -72.5 -27.5t-31.5 -48.5l-373 -956h-49l-248 694l-260 -694h-47l-381 956q-14 35 -32.5 49t-72.5 27v53h449v-53q-32 -4 -49.5 -7t-38 -8.5t-30 -13t-16 -18.5t-6.5 -27q0 -22 9 -49
l243 -651l199 538l-57 160q-11 33 -30.5 48t-74.5 28v53h428v-53q-34 -5 -50 -7.5t-37 -8t-30 -12.5t-15.5 -18.5t-6.5 -27.5q0 -22 8 -49zM874 1567l226 -355h-53l-242 222l-242 -222h-53l225 355h139z" />
    <glyph glyph-name="Ycircumflex" unicode="&#x176;" horiz-adv-x="1271" 
d="M723 580v-383q0 -20 2.5 -35.5t6 -27.5t12.5 -22t15 -16.5t22.5 -12.5t26 -9t33 -7t37 -6t44.5 -6v-55h-582v55q45 6 64.5 9t49 10t41 15t25 23t17.5 35.5t4 49.5v381l-410 729q-22 38 -48.5 53.5t-72.5 21.5v56h522v-56q-105 -3 -143.5 -18.5t-38.5 -56.5q0 -12 4 -25
t7 -20.5t13 -26t13 -23.5l309 -544l308 542q34 66 34 99q0 41 -37 55.5t-143 17.5v56h404v-56q-44 -6 -72 -22.5t-49 -52.5zM733 1864l266 -326h-47l-288 193l-289 -193h-47l266 326h139z" />
    <glyph glyph-name="ycircumflex" unicode="&#x177;" horiz-adv-x="1075" 
d="M610 193l256 696q13 37 13 55q0 34 -29.5 46t-114.5 22v53h330v-53q-54 -13 -72.5 -28t-31.5 -48l-435 -1149q-46 -120 -99.5 -176.5t-141.5 -56.5q-49 0 -93 27.5t-55 74.5v59q63 -18 119 -18q88 0 142 35.5t89 134.5l39 104l-411 965q-14 35 -32.5 49t-72.5 27v53h453
v-53q-85 -10 -114.5 -22t-29.5 -46q0 -16 13 -57zM651 1567l226 -355h-54l-241 222l-242 -222h-53l225 355h139z" />
    <glyph glyph-name="Ydieresis" unicode="&#x178;" horiz-adv-x="1271" 
d="M723 580v-383q0 -20 2.5 -35.5t6 -27.5t12.5 -22t15 -16.5t22.5 -12.5t26 -9t33 -7t37 -6t44.5 -6v-55h-582v55q45 6 64.5 9t49 10t41 15t25 23t17.5 35.5t4 49.5v381l-410 729q-22 38 -48.5 53.5t-72.5 21.5v56h522v-56q-105 -3 -143.5 -18.5t-38.5 -56.5q0 -12 4 -25
t7 -20.5t13 -26t13 -23.5l309 -544l308 542q34 66 34 99q0 41 -37 55.5t-143 17.5v56h404v-56q-44 -6 -72 -22.5t-49 -52.5zM342 1683q0 53 36.5 90t88.5 37q54 0 90.5 -37t36.5 -90t-36.5 -90t-90.5 -37q-52 0 -88.5 37t-36.5 90zM733 1683q0 53 36.5 90t88.5 37
q54 0 90.5 -37t36.5 -90t-36.5 -90t-90.5 -37q-52 0 -88.5 37t-36.5 90z" />
    <glyph glyph-name="Zacute" unicode="&#x179;" horiz-adv-x="1189" 
d="M289 68h450q32 0 58 3.5t50.5 15t42.5 21.5t40.5 36t37 44.5t40 60t41.5 70t49 87.5h49l-66 -406h-1038v33l831 1337h-444q-30 0 -54 -3t-45.5 -13.5t-37 -20t-33.5 -32.5t-29.5 -40.5t-29.5 -55.5t-29.5 -65l-34.5 -81h-47l10 379h1014v-35zM645 1843h215v-10l-293 -295
h-35z" />
    <glyph glyph-name="zacute" unicode="&#x17a;" horiz-adv-x="978" 
d="M68 0v25l616 968h-299q-91 0 -141.5 -60.5t-98.5 -219.5h-49l33 415h45l21 -69h708v-33l-604 -960h319q81 0 138 68t106 239h49l-32 -373h-811zM575 1559h205v-11l-293 -336h-34z" />
    <glyph glyph-name="Zdotaccent" unicode="&#x17b;" horiz-adv-x="1189" 
d="M289 68h450q32 0 58 3.5t50.5 15t42.5 21.5t40.5 36t37 44.5t40 60t41.5 70t49 87.5h49l-66 -406h-1038v33l831 1337h-444q-30 0 -54 -3t-45.5 -13.5t-37 -20t-33.5 -32.5t-29.5 -40.5t-29.5 -55.5t-29.5 -65l-34.5 -81h-47l10 379h1014v-35zM594 1550q-54 0 -91.5 38.5
t-37.5 92.5t37.5 92.5t91.5 38.5q55 0 93 -38.5t38 -92.5t-38 -92.5t-93 -38.5z" />
    <glyph glyph-name="zdotaccent" unicode="&#x17c;" horiz-adv-x="978" 
d="M68 0v25l616 968h-299q-91 0 -141.5 -60.5t-98.5 -219.5h-49l33 415h45l21 -69h708v-33l-604 -960h319q81 0 138 68t106 239h49l-32 -373h-811zM514 1245q-54 0 -91.5 38.5t-37.5 92.5t37.5 92.5t91.5 38.5q55 0 93 -38.5t38 -92.5t-38 -92.5t-93 -38.5z" />
    <glyph glyph-name="Zcaron" unicode="&#x17d;" horiz-adv-x="1189" 
d="M289 68h450q32 0 58 3.5t50.5 15t42.5 21.5t40.5 36t37 44.5t40 60t41.5 70t49 87.5h49l-66 -406h-1038v33l831 1337h-444q-30 0 -54 -3t-45.5 -13.5t-37 -20t-33.5 -32.5t-29.5 -40.5t-29.5 -55.5t-29.5 -65l-34.5 -81h-47l10 379h1014v-35zM930 1864l-266 -326h-140
l-266 326h47l289 -193l289 193h47z" />
    <glyph glyph-name="zcaron" unicode="&#x17e;" horiz-adv-x="978" 
d="M68 0v25l616 968h-299q-91 0 -141.5 -60.5t-98.5 -219.5h-49l33 415h45l21 -69h708v-33l-604 -960h319q81 0 138 68t106 239h49l-32 -373h-811zM809 1569l-225 -355h-140l-225 355h53l242 -221l242 221h53z" />
    <glyph glyph-name="florin" unicode="&#x192;" horiz-adv-x="1026" 
d="M180 664l8 57h191l24 178q36 274 133 416.5t267 142.5q104 0 153.5 -41t49.5 -108q0 -90 -101 -119h-39q-1 47 -4.5 80.5t-13.5 68t-30.5 52.5t-51.5 18q-103 0 -129 -190l-68 -498h224l-9 -57h-223l-55 -418q-36 -274 -133 -416.5t-267 -142.5q-104 0 -153 41t-49 108
q0 90 100 119h39q1 -47 4.5 -80.5t13.5 -68t30.5 -52.5t51.5 -18q103 0 129 190l99 738h-191z" />
    <glyph glyph-name="Aringacute" unicode="&#x1fa;" horiz-adv-x="1425" 
d="M1055 225l-115 279h-584l-108 -277q-21 -54 -21 -82q0 -47 41.5 -67t145.5 -23v-55h-404v55q49 7 78 22.5t43 53.5l471 1190l-57 135h205l544 -1325q16 -38 44.5 -53.5t76.5 -22.5v-55h-524v55q103 3 143.5 22t40.5 66q0 30 -20 82zM643 1235l-262 -666h532zM487 1667
q0 70 51 117t126 47t125.5 -47t50.5 -117t-50.5 -117t-125.5 -47t-126 47t-51 117zM553 1667q0 -48 29.5 -78t81.5 -30q51 0 80.5 30t29.5 78t-29.5 78.5t-80.5 30.5t-81 -30.5t-30 -78.5zM696 2116h215v-11l-270 -235h-35z" />
    <glyph glyph-name="aringacute" unicode="&#x1fb;" horiz-adv-x="1007" 
d="M313 1292q0 70 50.5 117t125.5 47t126 -47t51 -117t-51 -117t-126 -47t-125.5 47t-50.5 117zM522 1743h215v-10l-270 -236h-35zM379 1292q0 -48 29.5 -78t80.5 -30q52 0 81.5 30t29.5 78t-30 78.5t-81 30.5t-80.5 -30.5t-29.5 -78.5zM418 100q59 0 109.5 25.5t119.5 83.5
v385l-246 -100q-81 -32 -121 -80.5t-40 -126.5q0 -85 46 -136t132 -51zM834 770v-543q0 -70 18 -102.5t61 -32.5q35 0 95 27l10 -31q-72 -108 -197 -108q-74 0 -118 49.5t-52 136.5q-159 -186 -329 -186q-119 0 -190 70.5t-71 185.5q0 62 21.5 110.5t64.5 84.5t90 60t115 50
l295 110v140q0 112 -45.5 177.5t-142.5 65.5q-84 0 -125 -49.5t-41 -132.5q0 -50 14 -107l-108 -16q-80 25 -80 113q0 113 103 178t263 65q176 0 262.5 -77.5t86.5 -237.5z" />
    <glyph glyph-name="AEacute" unicode="&#x1fc;" horiz-adv-x="2048" 
d="M131 131l768 1165q-11 42 -64.5 60.5t-150.5 25.5v56h1233l10 -342h-41q-68 162 -130 218t-169 56h-366v-594h325q63 0 95.5 44t50.5 141h55v-437h-55q-18 97 -50.5 141t-95.5 44h-325v-502q0 -81 45 -110t155 -29h189q104 0 173.5 64.5t170.5 236.5h49l-61 -369h-1094
v55q51 6 77.5 11t50.5 14t33 24.5t14 37.5t5 59v303h-563l-182 -277q-33 -51 -33 -84q0 -88 199 -88v-55h-439v55q42 6 68 23t53 53zM1028 1360l-520 -791h520v791zM1364 1843h215v-10l-293 -295h-35z" />
    <glyph glyph-name="aeacute" unicode="&#x1fd;" horiz-adv-x="1497" 
d="M1063 1085q182 0 283.5 -117t101.5 -296v-43h-672q-10 -242 89.5 -377t264.5 -135q105 0 178 46t130 136l24 -12q-38 -139 -143 -223t-260 -84q-121 0 -213.5 52t-151.5 144q-62 -81 -160 -138.5t-212 -57.5q-119 0 -190 70.5t-71 185.5q0 62 21.5 110.5t64.5 84.5t90 60
t115 50l269 94q9 53 24 102q-1 83 -19.5 147t-64.5 107t-115 43q-75 0 -114 -50t-39 -132q0 -50 14 -107l-108 -16q-80 25 -80 113q0 111 99.5 177t242.5 66q102 0 177 -38.5t114 -108.5q128 147 311 147zM418 100q60 0 128 28t130 81q-66 129 -66 293q0 46 2 71l-211 -79
q-81 -32 -121 -80.5t-40 -126.5q0 -85 46 -136t132 -51zM1047 1020q-113 0 -181 -93t-84 -239h488q0 96 -21.5 168.5t-73 118t-128.5 45.5zM868 1559h205v-11l-293 -336h-35z" />
    <glyph glyph-name="Oslashacute" unicode="&#x1fe;" horiz-adv-x="1425" 
d="M705 -20q-205 0 -355 106l-125 -195l-53 35l129 199q-113 98 -173 247t-60 318q0 172 51 317t139 243.5t207 153t254 54.5q213 0 371 -119l116 181l54 -35l-121 -187q106 -100 162.5 -244t56.5 -306q0 -172 -51 -317t-139.5 -243.5t-208 -153t-254.5 -54.5zM279 719
q0 -271 108 -459l623 957q-120 174 -308 174q-133 0 -230.5 -92.5t-145 -242.5t-47.5 -337zM721 47q133 0 230.5 92.5t145.5 242.5t48 337q0 250 -98 436l-621 -954q121 -154 295 -154zM764 1843h215v-10l-293 -295h-35z" />
    <glyph glyph-name="oslashacute" unicode="&#x1ff;" horiz-adv-x="1060" 
d="M524 -20q-153 0 -266 75l-96 -151l-51 30l100 158q-77 70 -119.5 176.5t-42.5 237.5q0 259 140 419t348 160q147 0 262 -75l102 157l51 -30l-106 -164q79 -71 122.5 -178t43.5 -236q0 -259 -140 -419t-348 -160zM535 43q134 0 208 127t74 338q0 196 -57 328l-430 -668
q75 -125 205 -125zM244 557q0 -191 55 -328l428 668q-77 125 -201 125q-134 0 -208 -127t-74 -338zM592 1559h205v-11l-293 -336h-35z" />
    <glyph glyph-name="Scommaaccent" unicode="&#x218;" horiz-adv-x="1062" 
d="M506 -20q-134 0 -247.5 37t-180.5 96l-12 346h59q36 -200 131.5 -307t249.5 -107q139 0 220 74.5t81 193.5q0 65 -17 111t-62.5 87t-107.5 74.5t-169 78.5q-72 30 -120.5 54.5t-99.5 61t-81 76t-49 96t-19 125.5q0 165 116.5 273t313.5 108q117 0 224 -31.5t186 -87.5
v-301h-60q-23 174 -112.5 264.5t-237.5 90.5q-120 0 -189 -68.5t-69 -175.5q0 -116 62 -178.5t239 -136.5q112 -47 185.5 -88.5t131 -94t83.5 -117.5t26 -149q0 -124 -65.5 -217.5t-172 -140.5t-237.5 -47zM567 -303h-94q-82 17 -82 98q0 49 34.5 79t88.5 30q69 0 108.5 -44
t39.5 -112q0 -95 -63 -152t-185 -57v45q71 0 112 33.5t41 79.5z" />
    <glyph glyph-name="scommaaccent" unicode="&#x219;" horiz-adv-x="884" 
d="M434 -20q-102 0 -194 27.5t-150 72.5l-12 282h55q41 -149 118 -237t191 -88q95 0 155 48.5t60 141.5q0 85 -56.5 135t-201.5 107q-164 64 -234.5 134.5t-70.5 193.5q0 132 92 210t246 78q175 0 311 -86v-247h-49q-72 276 -272 276q-87 0 -134.5 -47t-47.5 -123
q0 -78 54.5 -127.5t192.5 -101.5q162 -61 241 -135.5t79 -198.5q0 -146 -101.5 -230.5t-271.5 -84.5zM496 -303h-95q-82 17 -82 98q0 49 34.5 79t88.5 30q69 0 108.5 -44t39.5 -112q0 -95 -63 -152t-185 -57v45q71 0 112.5 33.5t41.5 79.5z" />
    <glyph glyph-name="uni0237" unicode="&#x237;" horiz-adv-x="497" 
d="M162 889l-133 72v22l293 102h24v-913q0 -136 -10.5 -200t-42.5 -132q-35 -70 -97.5 -141t-154.5 -156l-31 23l84 147q45 78 56.5 162t11.5 231v783z" />
    <glyph glyph-name="circumflex" unicode="&#x2c6;" 
d="M582 1567l225 -355h-53l-242 222l-242 -222h-53l225 355h140z" />
    <glyph glyph-name="caron" unicode="&#x2c7;" 
d="M807 1569l-225 -355h-140l-225 355h53l242 -221l242 221h53z" />
    <glyph glyph-name="breve" unicode="&#x2d8;" 
d="M512 1221q-258 0 -258 325h59q13 -196 199 -196t199 196h59q0 -325 -258 -325z" />
    <glyph glyph-name="dotaccent" unicode="&#x2d9;" 
d="M510 1245q-54 0 -91.5 38.5t-37.5 92.5t37.5 92.5t91.5 38.5q55 0 93 -38.5t38 -92.5t-38 -92.5t-93 -38.5z" />
    <glyph glyph-name="ring" unicode="&#x2da;" 
d="M401 1335q0 -52 30 -85t81 -33t81 33t30 85t-30 85.5t-81 33.5t-81 -33.5t-30 -85.5zM336 1335q0 75 50.5 125.5t125.5 50.5t125.5 -50.5t50.5 -125.5t-50.5 -125.5t-125.5 -50.5t-125.5 50.5t-50.5 125.5z" />
    <glyph glyph-name="ogonek" unicode="&#x2db;" 
d="M666 41l10 -25q-122 -49 -184 -108.5t-62 -136.5q0 -50 24.5 -78.5t75.5 -28.5q50 0 89.5 17t85.5 57l20 -23q-115 -145 -254 -145q-78 0 -126 46t-48 118q0 46 21.5 87t53.5 70.5t85 58.5t98 48t111 43z" />
    <glyph glyph-name="tilde" unicode="&#x2dc;" 
d="M643 1231q-37 0 -76 19t-67.5 41.5t-64.5 41.5t-66 19q-44 0 -75 -26.5t-65 -90.5l-36 20q60 141 100 189.5t108 48.5q37 0 76 -19t67.5 -41.5t65 -41.5t66.5 -19q43 0 74 26.5t65 90.5l37 -21q-60 -140 -100.5 -188.5t-108.5 -48.5z" />
    <glyph glyph-name="hungarumlaut" unicode="&#x2dd;" 
d="M328 1559h198v-11l-286 -336h-35zM621 1559h198v-11l-287 -336h-34z" />
    <glyph glyph-name="pi" unicode="&#x3c0;" horiz-adv-x="1118" 
d="M682 315l66 619h-396q0 -315 -18 -524.5t-64 -409.5h-207v23q88 179 149.5 413t61.5 498h-233v151h1008l-35 -151h-164v-703q0 -143 121 -143q53 0 100 12l6 -22q-98 -98 -205 -98q-91 0 -144.5 52t-53.5 161q0 43 8 122z" />
    <glyph glyph-name="Wgrave" unicode="&#x1e80;" horiz-adv-x="1880" 
d="M1247 -18l-284 864l-312 -864h-49l-471 1325q-12 37 -41.5 52.5t-79.5 22.5v56h522v-56q-103 -3 -143.5 -22t-40.5 -66q0 -11 2.5 -23.5t8.5 -31t8 -27.5l323 -925l238 663l-117 357q-8 28 -28.5 44t-39 21t-53.5 10v56h504v-56q-103 -3 -143.5 -22t-40.5 -66
q0 -19 18 -82l301 -915l309 913q21 65 21 82q0 47 -41 67t-145 23v56h397v-56q-35 -5 -52 -9.5t-37.5 -20.5t-29.5 -45l-457 -1325h-47zM711 1843h215l112 -305h-34l-293 295v10z" />
    <glyph glyph-name="wgrave" unicode="&#x1e81;" horiz-adv-x="1587" 
d="M1128 242l248 647q8 21 8 49q0 19 -8.5 32t-29.5 21t-41 12t-60 9v53h332v-53q-54 -13 -72.5 -27.5t-31.5 -48.5l-373 -956h-49l-248 694l-260 -694h-47l-381 956q-14 35 -32.5 49t-72.5 27v53h449v-53q-32 -4 -49.5 -7t-38 -8.5t-30 -13t-16 -18.5t-6.5 -27q0 -22 9 -49
l243 -651l199 538l-57 160q-11 33 -30.5 48t-74.5 28v53h428v-53q-34 -5 -50 -7.5t-37 -8t-30 -12.5t-15.5 -18.5t-6.5 -27.5q0 -22 8 -49zM559 1559h205l123 -347h-35l-293 336v11z" />
    <glyph glyph-name="Wacute" unicode="&#x1e82;" horiz-adv-x="1880" 
d="M1247 -18l-284 864l-312 -864h-49l-471 1325q-12 37 -41.5 52.5t-79.5 22.5v56h522v-56q-103 -3 -143.5 -22t-40.5 -66q0 -11 2.5 -23.5t8.5 -31t8 -27.5l323 -925l238 663l-117 357q-8 28 -28.5 44t-39 21t-53.5 10v56h504v-56q-103 -3 -143.5 -22t-40.5 -66
q0 -19 18 -82l301 -915l309 913q21 65 21 82q0 47 -41 67t-145 23v56h397v-56q-35 -5 -52 -9.5t-37.5 -20.5t-29.5 -45l-457 -1325h-47zM1008 1843h215v-10l-293 -295h-35z" />
    <glyph glyph-name="wacute" unicode="&#x1e83;" horiz-adv-x="1587" 
d="M1128 242l248 647q8 21 8 49q0 19 -8.5 32t-29.5 21t-41 12t-60 9v53h332v-53q-54 -13 -72.5 -27.5t-31.5 -48.5l-373 -956h-49l-248 694l-260 -694h-47l-381 956q-14 35 -32.5 49t-72.5 27v53h449v-53q-32 -4 -49.5 -7t-38 -8.5t-30 -13t-16 -18.5t-6.5 -27q0 -22 9 -49
l243 -651l199 538l-57 160q-11 33 -30.5 48t-74.5 28v53h428v-53q-34 -5 -50 -7.5t-37 -8t-30 -12.5t-15.5 -18.5t-6.5 -27.5q0 -22 8 -49zM866 1559h205v-11l-293 -336h-35z" />
    <glyph glyph-name="Wdieresis" unicode="&#x1e84;" horiz-adv-x="1880" 
d="M1247 -18l-284 864l-312 -864h-49l-471 1325q-12 37 -41.5 52.5t-79.5 22.5v56h522v-56q-103 -3 -143.5 -22t-40.5 -66q0 -11 2.5 -23.5t8.5 -31t8 -27.5l323 -925l238 663l-117 357q-8 28 -28.5 44t-39 21t-53.5 10v56h504v-56q-103 -3 -143.5 -22t-40.5 -66
q0 -19 18 -82l301 -915l309 913q21 65 21 82q0 47 -41 67t-145 23v56h397v-56q-35 -5 -52 -9.5t-37.5 -20.5t-29.5 -45l-457 -1325h-47zM1026 1683q0 53 36.5 90t88.5 37q54 0 90.5 -37t36.5 -90t-36.5 -90t-90.5 -37q-52 0 -88.5 37t-36.5 90zM635 1683q0 53 36.5 90
t88.5 37q54 0 90.5 -37t36.5 -90t-36.5 -90t-90.5 -37q-52 0 -88.5 37t-36.5 90z" />
    <glyph glyph-name="wdieresis" unicode="&#x1e85;" horiz-adv-x="1587" 
d="M1128 242l248 647q8 21 8 49q0 19 -8.5 32t-29.5 21t-41 12t-60 9v53h332v-53q-54 -13 -72.5 -27.5t-31.5 -48.5l-373 -956h-49l-248 694l-260 -694h-47l-381 956q-14 35 -32.5 49t-72.5 27v53h449v-53q-32 -4 -49.5 -7t-38 -8.5t-30 -13t-16 -18.5t-6.5 -27q0 -22 9 -49
l243 -651l199 538l-57 160q-11 33 -30.5 48t-74.5 28v53h428v-53q-34 -5 -50 -7.5t-37 -8t-30 -12.5t-15.5 -18.5t-6.5 -27.5q0 -22 8 -49zM494 1372q0 53 36 90t88 37q54 0 90.5 -37t36.5 -90t-36.5 -90t-90.5 -37q-52 0 -88 37t-36 90zM864 1372q0 53 36.5 90t88.5 37
q54 0 90.5 -37t36.5 -90t-36.5 -90t-90.5 -37q-52 0 -88.5 37t-36.5 90z" />
    <glyph glyph-name="Ygrave" unicode="&#x1ef2;" horiz-adv-x="1271" 
d="M723 580v-383q0 -20 2.5 -35.5t6 -27.5t12.5 -22t15 -16.5t22.5 -12.5t26 -9t33 -7t37 -6t44.5 -6v-55h-582v55q45 6 64.5 9t49 10t41 15t25 23t17.5 35.5t4 49.5v381l-410 729q-22 38 -48.5 53.5t-72.5 21.5v56h522v-56q-105 -3 -143.5 -18.5t-38.5 -56.5q0 -12 4 -25
t7 -20.5t13 -26t13 -23.5l309 -544l308 542q34 66 34 99q0 41 -37 55.5t-143 17.5v56h404v-56q-44 -6 -72 -22.5t-49 -52.5zM418 1843h215l112 -305h-34l-293 295v10z" />
    <glyph glyph-name="ygrave" unicode="&#x1ef3;" horiz-adv-x="1075" 
d="M610 193l256 696q13 37 13 55q0 34 -29.5 46t-114.5 22v53h330v-53q-54 -13 -72.5 -28t-31.5 -48l-435 -1149q-46 -120 -99.5 -176.5t-141.5 -56.5q-49 0 -93 27.5t-55 74.5v59q63 -18 119 -18q88 0 142 35.5t89 134.5l39 104l-411 965q-14 35 -32.5 49t-72.5 27v53h453
v-53q-85 -10 -114.5 -22t-29.5 -46q0 -16 13 -57zM336 1559h205l123 -347h-35l-293 336v11z" />
    <glyph glyph-name="endash" unicode="&#x2013;" horiz-adv-x="1105" 
d="M1044 578h-983v73h983v-73z" />
    <glyph glyph-name="emdash" unicode="&#x2014;" horiz-adv-x="1966" 
d="M1905 651v-73h-1844v73h1844z" />
    <glyph glyph-name="quoteleft" unicode="&#x2018;" horiz-adv-x="405" 
d="M180 1331h74q41 -8 67.5 -37.5t26.5 -76.5q0 -56 -37 -90.5t-92 -34.5q-64 0 -100.5 47t-36.5 123q0 115 72 191.5t202 88.5v-47q-79 -12 -124.5 -55.5t-51.5 -108.5z" />
    <glyph glyph-name="quoteright" unicode="&#x2019;" horiz-adv-x="405" 
d="M238 1292h-74q-41 8 -67.5 38t-26.5 77q0 56 37 90.5t92 34.5q64 0 100.5 -47t36.5 -123q0 -115 -72.5 -192t-202.5 -89v47q79 12 125 55.5t52 108.5z" />
    <glyph glyph-name="quotesinglbase" unicode="&#x201a;" horiz-adv-x="405" 
d="M238 0h-74q-41 8 -67.5 38t-26.5 77q0 56 37 90.5t92 34.5q64 0 100.5 -47t36.5 -123q0 -115 -72.5 -192t-202.5 -89v47q79 12 125 55.5t52 108.5z" />
    <glyph glyph-name="quotedblleft" unicode="&#x201c;" horiz-adv-x="722" 
d="M498 1331h73q41 -8 68 -37.5t27 -76.5q0 -56 -37 -90.5t-92 -34.5q-65 0 -101.5 47.5t-36.5 122.5q0 115 72 191.5t203 88.5v-47q-79 -12 -124.5 -55.5t-51.5 -108.5zM180 1331h74q41 -8 67.5 -37.5t26.5 -76.5q0 -56 -37 -90.5t-92 -34.5q-64 0 -100.5 47t-36.5 123
q0 115 72 191.5t202 88.5v-47q-79 -12 -124.5 -55.5t-51.5 -108.5z" />
    <glyph glyph-name="quotedblright" unicode="&#x201d;" horiz-adv-x="722" 
d="M238 1292h-74q-41 8 -67.5 38t-26.5 77q0 56 37 90.5t92 34.5q64 0 100.5 -47t36.5 -123q0 -115 -72.5 -192t-202.5 -89v47q79 12 125 55.5t52 108.5zM555 1292h-74q-41 8 -67.5 38t-26.5 77q0 56 37 90.5t92 34.5q64 0 100.5 -47t36.5 -123q0 -116 -72 -192.5
t-202 -88.5v47q79 12 124.5 55.5t51.5 108.5z" />
    <glyph glyph-name="quotedblbase" unicode="&#x201e;" horiz-adv-x="722" 
d="M238 0h-74q-41 8 -67.5 38t-26.5 77q0 56 37 90.5t92 34.5q64 0 100.5 -47t36.5 -123q0 -115 -72.5 -192t-202.5 -89v47q79 12 125 55.5t52 108.5zM555 0h-74q-41 8 -67.5 38t-26.5 77q0 56 37 90.5t92 34.5q64 0 100.5 -47t36.5 -123q0 -116 -72 -192.5t-202 -88.5v47
q79 12 124.5 55.5t51.5 108.5z" />
    <glyph glyph-name="dagger" unicode="&#x2020;" horiz-adv-x="720" 
d="M375 1219q0 -63 22.5 -113t59.5 -72v-16q-69 -105 -84 -617h-25q-15 512 -84 617v16q37 22 59.5 72t22.5 113q-48 0 -121 -27t-108 -27q-36 0 -56 19t-20 49t20 48.5t56 18.5q35 0 108 -26.5t121 -26.5q0 48 -26.5 121.5t-26.5 108.5q0 36 18.5 55.5t48.5 19.5t49 -19.5
t19 -55.5q0 -35 -26.5 -108.5t-26.5 -121.5q48 0 121 26.5t108 26.5q36 0 56 -18.5t20 -48.5t-20 -49t-56 -19q-35 0 -108 27t-121 27z" />
    <glyph glyph-name="daggerdbl" unicode="&#x2021;" horiz-adv-x="720" 
d="M348 977q0 33 -24.5 66t-59.5 42v17q41 24 61.5 56t20.5 91q-48 0 -121 -26.5t-108 -26.5q-36 0 -56 19t-20 49t20 48.5t56 18.5q35 0 108 -26.5t121 -26.5q0 48 -26.5 106t-26.5 93q0 36 18.5 55.5t48.5 19.5t49 -19.5t19 -55.5q0 -35 -26.5 -93t-26.5 -106
q48 0 121 26.5t108 26.5q36 0 56 -18.5t20 -48.5t-20 -49t-56 -19q-35 0 -108 26.5t-121 26.5q0 -59 20.5 -91t61.5 -56v-17q-35 -9 -59.5 -42t-24.5 -66t24.5 -66.5t59.5 -42.5v-16q-41 -24 -61.5 -56t-20.5 -91q48 0 121 26.5t108 26.5q36 0 56 -19t20 -49t-20 -48.5
t-56 -18.5q-35 0 -108 26.5t-121 26.5q0 -48 26.5 -106t26.5 -93q0 -36 -19 -56t-49 -20t-48.5 20t-18.5 56q0 35 26.5 93t26.5 106q-48 0 -121 -26.5t-108 -26.5q-36 0 -56 18.5t-20 48.5t20 49t56 19q35 0 108 -26.5t121 -26.5q0 59 -20.5 91t-61.5 56v16q35 9 59.5 42.5
t24.5 66.5z" />
    <glyph glyph-name="bullet" unicode="&#x2022;" horiz-adv-x="622" 
d="M61 616q0 103 73.5 176.5t176.5 73.5t176.5 -73.5t73.5 -176.5t-73.5 -176t-176.5 -73t-176.5 73t-73.5 176z" />
    <glyph glyph-name="ellipsis" unicode="&#x2026;" horiz-adv-x="1216" 
d="M61 121q0 58 41.5 99.5t100.5 41.5t100 -41t41 -100t-41 -100t-100 -41t-100.5 41.5t-41.5 99.5zM467 121q0 59 41.5 100t99.5 41q59 0 100.5 -41.5t41.5 -99.5t-41.5 -99.5t-100.5 -41.5q-58 0 -99.5 41t-41.5 100zM872 121q0 58 41.5 99.5t100.5 41.5q58 0 99.5 -41
t41.5 -100t-41.5 -100t-99.5 -41q-59 0 -100.5 41.5t-41.5 99.5z" />
    <glyph glyph-name="perthousand" unicode="&#x2030;" horiz-adv-x="2256" 
d="M1458 319q0 -153 -98 -246t-236 -93q-136 0 -233.5 93t-97.5 246t97.5 246.5t233.5 93.5q138 0 236 -93.5t98 -246.5zM272 -20l897 1478h78l-897 -1478h-78zM61 1118q0 153 98 246.5t236 93.5q136 0 234 -93.5t98 -246.5t-98 -246.5t-234 -93.5q-138 0 -236 93.5
t-98 246.5zM1311 319q0 126 -47 207.5t-140 81.5q-63 0 -105.5 -40.5t-60.5 -103.5t-18 -145q0 -126 45.5 -206t138.5 -80t140 80t47 206zM209 1118q0 -126 46.5 -207.5t139.5 -81.5t139 81.5t46 207.5t-46 206.5t-139 80.5t-139.5 -80.5t-46.5 -206.5zM2048 319
q0 126 -46.5 207.5t-139.5 81.5t-139 -81.5t-46 -207.5t46 -206t139 -80t139.5 80t46.5 206zM2195 319q0 -153 -97.5 -246t-235.5 -93q-136 0 -234 93t-98 246t98 246.5t234 93.5q138 0 235.5 -93.5t97.5 -246.5z" />
    <glyph glyph-name="guilsinglleft" unicode="&#x2039;" horiz-adv-x="589" 
d="M72 555v12l389 394h57l-256 -400l256 -399h-57z" />
    <glyph glyph-name="guilsinglright" unicode="&#x203a;" horiz-adv-x="589" 
d="M518 567v-12l-389 -393h-57l256 399l-256 400h57z" />
    <glyph glyph-name="fraction" unicode="&#x2044;" horiz-adv-x="579" 
d="M-195 -20l897 1478h78l-897 -1478h-78z" />
    <glyph glyph-name="Euro" unicode="&#x20ac;" horiz-adv-x="1302" 
d="M20 811v63h189q41 270 196.5 427t382.5 157q130 0 222.5 -31t171.5 -92v-315h-52q-20 89 -47 154.5t-66.5 117t-97 77.5t-131.5 26q-108 0 -190 -74.5t-126.5 -189t-59.5 -257.5h553l-29 -63h-528q-2 -23 -2 -68q0 -67 2 -100h471l-29 -63h-438q11 -120 38.5 -215
t74 -168.5t117.5 -113.5t163 -40q79 0 140.5 27t106 82.5t75.5 123.5t59 164h55l-37 -350q-104 -56 -193.5 -83t-205.5 -27q-268 0 -421.5 161.5t-180.5 438.5h-183v63h177v55q0 39 4 113h-181z" />
    <glyph glyph-name="uni2117" unicode="&#x2117;" horiz-adv-x="1630" 
d="M852 655h-102v-221q0 -49 32.5 -64t110.5 -18v-37h-391v37q62 2 85 17t23 65v574q0 51 -23 66.5t-85 17.5v36h350q153 0 231 -66t78 -167q0 -112 -76.5 -176t-232.5 -64zM750 1079v-374h90q91 0 138.5 48.5t47.5 139.5q0 81 -51.5 133.5t-147.5 52.5h-77zM125 719
q0 -143 51.5 -271.5t141.5 -222.5t219.5 -149.5t277.5 -55.5t277.5 55.5t219.5 149.5t141.5 222.5t51.5 271.5q0 191 -87.5 350.5t-246.5 253.5t-356 94t-356 -94t-246.5 -253.5t-87.5 -350.5zM82 719q0 203 93 371.5t262 268t378 99.5t378 -99.5t262 -268t93 -371.5
t-93 -371.5t-262 -268t-378 -99.5t-378 99.5t-262 268t-93 371.5z" />
    <glyph glyph-name="trademark" unicode="&#x2122;" horiz-adv-x="1699" 
d="M692 1438l17 -201h-29q-41 86 -75.5 122t-94.5 36h-53v-537q0 -34 23.5 -46t78.5 -15v-39h-338v39q54 3 78.5 15t24.5 46v537h-54q-60 0 -94 -36t-74 -122h-30l14 201h606zM1167 946l168 434q13 47 15 58h186v-39q-45 -3 -61.5 -23t-18.5 -53l60 -477q3 -26 21 -36
t60 -13v-39h-301v39q55 3 74 13t19 38q0 5 -4 28.5t-5 36.5l-41 344l-194 -505h-23l-213 505l-41 -342q-6 -41 -6 -67q0 -28 19 -38t73 -13v-39h-229v39q74 3 80 49l59 477q-4 71 -82 76v39h195q6 -39 14 -58z" />
    <glyph glyph-name="Omega" unicode="&#x2126;" horiz-adv-x="1425" 
d="M713 1405q-82 0 -146 -37.5t-102.5 -96.5t-63.5 -138.5t-34 -155t-9 -154.5q0 -220 70.5 -396t198.5 -284v-143h-494l-51 356h43q28 -54 45.5 -84t40 -57t39.5 -39t46.5 -21t59.5 -10.5t80 -1.5h121q-74 37 -146.5 104t-133.5 154.5t-98.5 198.5t-37.5 223q0 185 68 328
t198.5 225t305.5 82t306 -82t199 -225t68 -328q0 -112 -38 -223t-99 -198.5t-134 -154.5t-147 -104h121q50 0 80 1.5t59.5 10.5t46.5 21t39.5 39t40 57t45.5 84h43l-51 -356h-493v143q129 108 199.5 284.5t70.5 395.5q0 79 -9.5 154.5t-34.5 155t-63.5 138.5t-102.5 96.5
t-146 37.5z" />
    <glyph glyph-name="uni2153" unicode="&#x2153;" horiz-adv-x="1570" 
d="M365 1458h38v-696q0 -22 7 -36t17 -22.5t35.5 -13.5t47.5 -7t68 -5v-47h-496v47q46 3 67.5 5t47.5 7t35.5 13.5t16.5 22.5t7 36v510h-174v33l51 10q82 17 132 48t100 95zM301 -20l897 1478h78l-897 -1478h-78zM1237 461q119 -7 185.5 -72t66.5 -164q0 -112 -88 -178.5
t-215 -66.5q-129 0 -203 51.5t-74 124.5q0 28 15 51.5t37 34.5h92q-9 -27 -9 -52q0 -165 154 -165q72 0 113 47t41 131q0 93 -60.5 139.5t-169.5 46.5h-30l-5 33q103 32 156 76.5t53 109.5q0 52 -33 85.5t-96 33.5q-60 0 -107 -31t-75 -80l-39 21q37 87 110.5 139.5
t174.5 52.5q102 0 154.5 -48.5t52.5 -125.5q0 -129 -201 -194z" />
    <glyph glyph-name="uni2154" unicode="&#x2154;" horiz-adv-x="1636" 
d="M367 -20l897 1478h77l-897 -1478h-77zM1303 461q119 -7 185 -72t66 -164q0 -112 -88 -178.5t-215 -66.5q-129 0 -202.5 51.5t-73.5 124.5q0 28 15 51.5t36 34.5h92q-8 -24 -8 -52q0 -165 154 -165q72 0 112.5 46.5t40.5 131.5q0 93 -60 139.5t-169 46.5h-31l-4 33
q103 32 156 76.5t53 109.5q0 52 -33 85.5t-96 33.5q-60 0 -107 -31t-75 -80l-39 21q37 87 110 139.5t174 52.5q102 0 154.5 -48.5t52.5 -125.5q0 -130 -200 -194zM240 766h211q74 0 104.5 19.5t75.5 99.5h31l-27 -254h-574v26l211 205q109 110 151 181.5t42 150.5
q0 74 -40.5 114t-113.5 40q-113 0 -205 -101l-24 21q45 81 120.5 134.5t176.5 53.5q111 0 171 -61t60 -168q0 -35 -8.5 -67.5t-30 -66.5t-41 -59.5t-59.5 -63.5t-66 -61.5t-80.5 -70t-84.5 -72.5z" />
    <glyph glyph-name="uni215B" unicode="&#x215b;" horiz-adv-x="1611" 
d="M365 1458h38v-696q0 -22 7 -36t17 -22.5t35.5 -13.5t47.5 -7t68 -5v-47h-496v47q46 3 67.5 5t47.5 7t35.5 13.5t16.5 22.5t7 36v510h-174v33l51 10q82 17 132 48t100 95zM301 -20l897 1478h78l-897 -1478h-78zM1491 635q0 -66 -53.5 -120.5t-118.5 -70.5
q103 -46 152 -101.5t49 -129.5q0 -111 -82 -172t-207 -61q-134 0 -215.5 58t-81.5 155q0 73 54 126t136 76q-157 79 -157 207q0 96 72 161.5t188 65.5q120 0 192 -52t72 -142zM1278 315l-125 68q-100 -58 -100 -180q0 -73 50.5 -123.5t127.5 -50.5q74 0 120 37.5t46 95.5
q0 54 -30.5 87.5t-88.5 65.5zM1194 508l98 -51q45 29 65.5 77.5t20.5 96.5q0 70 -41.5 109.5t-109.5 39.5q-64 0 -100.5 -34.5t-36.5 -86.5q0 -96 104 -151z" />
    <glyph glyph-name="uni215C" unicode="&#x215c;" horiz-adv-x="1626" 
d="M1505 635q0 -66 -53.5 -120.5t-118.5 -70.5q103 -46 152 -101.5t49 -129.5q0 -111 -82 -172t-207 -61q-134 0 -215.5 58t-81.5 155q0 73 54.5 126t136.5 76q-158 79 -158 207q0 96 72 161.5t188 65.5q120 0 192 -52t72 -142zM1292 315l-125 68q-100 -58 -100 -180
q0 -73 50.5 -123.5t127.5 -50.5q74 0 120 37.5t46 95.5q0 54 -30.5 87.5t-88.5 65.5zM1208 508l99 -51q45 29 65.5 77.5t20.5 96.5q0 69 -41.5 109t-110.5 40q-64 0 -100.5 -34.5t-36.5 -86.5q0 -96 104 -151zM315 -20l897 1478h78l-897 -1478h-78zM399 1090
q119 -7 185.5 -72t66.5 -164q0 -112 -88 -179t-215 -67q-129 0 -202.5 51.5t-73.5 124.5q0 28 15 51.5t36 34.5h92q-8 -24 -8 -51q0 -166 153 -166q72 0 113 47t41 131q0 93 -60.5 140t-168.5 47h-31l-4 33q103 32 156 76.5t53 109.5q0 52 -33 85.5t-96 33.5
q-60 0 -107.5 -31t-75.5 -80l-38 21q37 87 110 139.5t174 52.5q102 0 154.5 -48.5t52.5 -125.5q0 -129 -201 -194z" />
    <glyph glyph-name="uni215D" unicode="&#x215d;" horiz-adv-x="1613" 
d="M303 -20l897 1478h78l-897 -1478h-78zM618 1483l-43 -191h-333l-21 -127q182 -8 293 -82.5t111 -208.5q0 -123 -79 -194.5t-206 -71.5t-197.5 51t-70.5 123q0 30 14.5 54.5t36.5 33.5h90q-8 -24 -8 -51q0 -166 151 -166q77 0 117.5 46.5t40.5 121.5q0 106 -94.5 163
t-274.5 60l68 394h266q43 0 62.5 8.5t33.5 36.5h43zM1493 635q0 -66 -53.5 -120.5t-118.5 -70.5q103 -46 152 -101.5t49 -129.5q0 -111 -82 -172t-207 -61q-134 0 -215.5 58t-81.5 155q0 73 54 126t136 76q-157 79 -157 207q0 96 72 161.5t188 65.5q120 0 192 -52t72 -142z
M1280 315l-125 68q-100 -58 -100 -180q0 -73 50.5 -123.5t127.5 -50.5q74 0 120 37.5t46 95.5q0 54 -30.5 87.5t-88.5 65.5zM1196 508l98 -51q45 29 65.5 77.5t20.5 96.5q0 70 -41.5 109.5t-109.5 39.5q-64 0 -100.5 -34.5t-36.5 -86.5q0 -96 104 -151z" />
    <glyph glyph-name="uni215E" unicode="&#x215e;" horiz-adv-x="1519" 
d="M592 1288h-338q-43 0 -68.5 -30t-52.5 -101h-51l57 281h580v-25l-397 -805h-119zM209 -20l897 1478h78l-897 -1478h-78zM1399 635q0 -66 -53.5 -120.5t-118.5 -70.5q103 -46 151.5 -101.5t48.5 -129.5q0 -111 -81.5 -172t-206.5 -61q-134 0 -215.5 58t-81.5 155
q0 73 54 126t136 76q-158 79 -158 207q0 96 72.5 161.5t188.5 65.5q120 0 192 -52t72 -142zM1186 315l-125 68q-100 -58 -100 -180q0 -73 50.5 -123.5t127.5 -50.5q74 0 120 37.5t46 95.5q0 54 -30.5 87.5t-88.5 65.5zM1102 508l98 -51q45 29 65.5 77.5t20.5 96.5
q0 70 -41.5 109.5t-109.5 39.5q-64 0 -101 -34.5t-37 -86.5q0 -95 105 -151z" />
    <glyph glyph-name="partialdiff" unicode="&#x2202;" horiz-adv-x="1060" 
d="M522 1085q168 0 262 -145q-23 83 -70 171.5t-115 176t-165.5 160.5t-206.5 111l25 45q238 -78 412 -230.5t262 -347t88 -410.5q0 -285 -133 -460.5t-344 -175.5q-221 0 -355.5 146.5t-134.5 389.5q0 127 39.5 235.5t105 180.5t151.5 112.5t179 40.5zM535 43
q134 0 208 127t74 338q0 104 -18 195t-52.5 163t-91.5 114t-129 42q-134 0 -208 -127t-74 -338q0 -104 18 -195t52.5 -163t91.5 -114t129 -42z" />
    <glyph glyph-name="Delta" unicode="&#x2206;" horiz-adv-x="1273" 
d="M1253 0h-1233v63l564 1375h96l573 -1375v-63zM578 1229l-469 -1159h931z" />
    <glyph glyph-name="product" unicode="&#x220f;" horiz-adv-x="1495" 
d="M1081 1372h-667v-1575q0 -31 2.5 -50.5t11 -35t19 -24t34 -16t47 -11t66.5 -8.5v-55h-553v55q43 5 66.5 8.5t47 11t34 16t19 24t11 35t2.5 50.5v1440q0 31 -2.5 50.5t-11 35t-19 24t-34 16t-47 11t-66.5 8.5v56h1413v-56q-43 -5 -66.5 -8.5t-47 -11t-34 -16t-19 -24
t-11 -35t-2.5 -50.5v-1440q0 -31 2.5 -50.5t11 -35t19 -24t34 -16t47 -11t66.5 -8.5v-55h-553v55q43 5 66.5 8.5t47 11t34 16t19 24t11 35t2.5 50.5v1575z" />
    <glyph glyph-name="summation" unicode="&#x2211;" horiz-adv-x="1081" 
d="M176 -233h481q57 0 89.5 1.5t68 10t55.5 21.5t47 40.5t49.5 61.5t55.5 90h39l-60 -395h-1001v53l627 815l-604 911v62h985v-342h-33q-21 50 -36.5 83t-36 67.5t-41.5 55.5t-48.5 39t-60.5 25.5t-74 7.5h-426l534 -805v-12z" />
    <glyph glyph-name="minus" unicode="&#x2212;" horiz-adv-x="1155" 
d="M129 707v106h897v-106h-897z" />
    <glyph glyph-name="radical" unicode="&#x221a;" horiz-adv-x="1161" 
d="M608 256l439 1202h83l-534 -1458h-102l-267 911q-20 65 -45 88t-86 23h-55v63h346z" />
    <glyph glyph-name="infinity" unicode="&#x221e;" horiz-adv-x="1501" 
d="M698 721l-84 98q-109 125 -227 125q-92 0 -151.5 -60.5t-59.5 -162.5t59.5 -162.5t151.5 -60.5q118 0 227 125zM750 662l-78 -91q-123 -143 -285 -143q-123 0 -209 79t-86 214t86 214t209 79q88 0 156 -37.5t129 -106.5l78 -92l79 92q123 144 285 144q123 0 209 -79
t86 -214t-86 -214t-209 -79q-162 0 -285 143zM887 819l-86 -98l86 -98q109 -125 227 -125q92 0 151.5 60.5t59.5 162.5t-59.5 162.5t-151.5 60.5q-121 0 -227 -125z" />
    <glyph glyph-name="integral" unicode="&#x222b;" horiz-adv-x="802" 
d="M420 1161v-1169q0 -187 -85.5 -290t-234.5 -103q-106 0 -169.5 42t-63.5 117q0 34 18 62.5t47 44.5h103v-82q0 -135 86 -135q69 0 94 64t25 184v1169q0 187 85 290t234 103q106 0 170 -42.5t64 -117.5q0 -34 -18.5 -62t-47.5 -44h-102v82q0 135 -86 135q-69 0 -94 -64
t-25 -184z" />
    <glyph glyph-name="approxequal" unicode="&#x2248;" horiz-adv-x="1175" 
d="M139 817v107q127 82 242 82q78 0 205.5 -40t204.5 -40q120 0 245 82v-107q-125 -82 -245 -82q-77 0 -204.5 40t-205.5 40q-115 0 -242 -82zM139 524v105q122 82 242 82q78 0 205.5 -39t204.5 -39q123 0 245 80v-107q-122 -80 -245 -80q-77 0 -204.5 39t-205.5 39
q-118 0 -242 -80z" />
    <glyph glyph-name="notequal" unicode="&#x2260;" horiz-adv-x="1175" 
d="M139 852v102h541l170 222h117l-170 -222h239v-102h-317l-144 -186h461v-101h-536l-170 -223h-117l170 223h-244v101h322l141 186h-463z" />
    <glyph glyph-name="lessequal" unicode="&#x2264;" horiz-adv-x="886" 
d="M102 819v17l635 340v-117l-440 -232l440 -231v-117zM102 295v104h635v-104h-635z" />
    <glyph glyph-name="greaterequal" unicode="&#x2265;" horiz-adv-x="886" 
d="M784 836v-17l-634 -340v117l440 231l-440 232v117zM784 399v-104h-634v104h634z" />
    <glyph glyph-name="lozenge" unicode="&#x25ca;" horiz-adv-x="1073" 
d="M61 719l412 719h127l412 -719l-412 -719h-127zM920 719l-383 663l-383 -663l383 -664z" />
    <glyph glyph-name="i.dot" horiz-adv-x="540" 
d="M369 1085v-929q0 -59 28.5 -78.5t112.5 -24.5v-53h-467v53q84 5 112.5 24.5t28.5 78.5v733l-133 72v22l293 102h25zM276 1245q-54 0 -91.5 38.5t-37.5 92.5t37.5 92.5t91.5 38.5q55 0 93.5 -38.5t38.5 -92.5t-38.5 -92.5t-93.5 -38.5z" />
    <glyph glyph-name="space_uni0326" 
d="M547 -303h-94q-82 17 -82 98q0 49 34.5 79t88.5 30q69 0 108 -44t39 -112q0 -95 -63 -152t-185 -57v45q71 0 112.5 33.5t41.5 79.5z" />
    <glyph glyph-name="space_uni0326.alt" 
d="M465 1450h94q82 -17 82 -98q0 -49 -34.5 -79t-88.5 -30q-69 0 -108 44t-39 112q0 95 62.5 152t184.5 57v-45q-71 0 -112 -33.5t-41 -79.5z" />
    <glyph glyph-name="space_dotbelowcomb" 
d="M510 -358q-54 0 -91.5 38.5t-37.5 92.5t37.5 92.5t91.5 38.5q55 0 93 -38.5t38 -92.5t-38 -92.5t-93 -38.5z" />
    <glyph glyph-name="caron.Slovak" 
d="M627 1593l-213 -409h-23l41 420h195v-11z" />
    <glyph glyph-name="cedilla.alt" 
d="M334 -453l-10 54q109 0 173 30t64 78q0 45 -43.5 67t-134.5 25l41 101h39q107 0 164 -38t57 -114q0 -101 -95 -152t-255 -51z" />
    <glyph glyph-name="grave.cap" 
d="M348 1843h215l113 -305h-35l-293 295v10z" />
    <glyph glyph-name="acute.cap" 
d="M461 1843h215v-10l-293 -295h-35z" />
    <glyph glyph-name="circumflex.cap" 
d="M582 1864l266 -326h-47l-289 193l-289 -193h-47l266 326h140z" />
    <glyph glyph-name="tilde.cap" 
d="M633 1538q-37 0 -79.5 19t-74.5 41.5t-71.5 41.5t-69.5 19q-45 0 -81 -27.5t-69 -89.5l-36 21q58 136 104 186.5t115 50.5q37 0 79.5 -19t74.5 -41.5t71.5 -41.5t69.5 -19q45 0 80.5 27.5t68.5 89.5l37 -20q-58 -136 -104 -187t-115 -51z" />
    <glyph glyph-name="macron.cap" 
d="M223 1583v100h578v-100h-578z" />
    <glyph glyph-name="breve.cap" 
d="M512 1532q-135 0 -212 80.5t-77 240.5h53q26 -192 236 -192t236 192h53q0 -160 -77 -240.5t-212 -80.5z" />
    <glyph glyph-name="dotaccent.cap" 
d="M510 1550q-54 0 -91.5 38.5t-37.5 92.5t37.5 92.5t91.5 38.5q55 0 93 -38.5t38 -92.5t-38 -92.5t-93 -38.5z" />
    <glyph glyph-name="dieresis.cap" 
d="M190 1683q0 53 36.5 90t88.5 37q54 0 90.5 -37t36.5 -90t-36.5 -90t-90.5 -37q-52 0 -88.5 37t-36.5 90zM582 1683q0 53 36.5 90t88.5 37q54 0 90.5 -37t36.5 -90t-36.5 -90t-90.5 -37q-52 0 -88.5 37t-36.5 90z" />
    <glyph glyph-name="ring.cap" 
d="M401 1679q0 -52 30 -85t81 -33t81 33t30 85t-30 85.5t-81 33.5t-81 -33.5t-30 -85.5zM336 1679q0 75 50.5 125.5t125.5 50.5t125.5 -50.5t50.5 -125.5t-50.5 -125.5t-125.5 -50.5t-125.5 50.5t-50.5 125.5z" />
    <glyph glyph-name="hungarumlaut.cap" 
d="M328 1843h198v-10l-282 -295h-39zM621 1843h198v-10l-282 -295h-39z" />
    <glyph glyph-name="caron.cap" 
d="M848 1864l-266 -326h-140l-266 326h47l289 -193l289 193h47z" />
    <glyph glyph-name="exclamdown.cap" horiz-adv-x="487" 
d="M102 1317q0 58 41.5 99.5t100.5 41.5q58 0 99.5 -41t41.5 -100t-41.5 -100t-99.5 -41q-59 0 -100.5 41.5t-41.5 99.5zM225 1022h35l107 -1022h-248z" />
    <glyph glyph-name="questiondown.cap" horiz-adv-x="868" 
d="M219 258q0 -108 55 -169.5t158 -61.5q99 0 151 63t52 158v90h149q43 -40 43 -98q0 -113 -113 -186.5t-278 -73.5q-180 0 -287.5 87.5t-107.5 254.5q0 49 16.5 95.5t40 82t66 76.5t76 67.5t88.5 67.5q86 62 121.5 119.5t35.5 146.5v65h21q65 -119 65 -200
q0 -87 -40 -152.5t-130 -136.5q-40 -31 -59.5 -47.5t-47.5 -46.5t-41 -55.5t-23.5 -63.5t-10.5 -82zM621 1317q0 -58 -41.5 -99.5t-100.5 -41.5t-100 41t-41 100t41 100t100 41t100.5 -41.5t41.5 -99.5z" />
    <glyph glyph-name="guilsinglleft.cap" horiz-adv-x="589" 
d="M72 729v12l389 394h57l-256 -400l256 -399h-57z" />
    <glyph glyph-name="guilsinglright.cap" horiz-adv-x="589" 
d="M518 741v-12l-389 -393h-57l256 399l-256 400h57z" />
    <glyph glyph-name="guillemotleft.cap" horiz-adv-x="915" 
d="M72 729v12l389 394h57l-256 -400l256 -399h-57zM397 729v12l389 394h58l-256 -400l256 -399h-58z" />
    <glyph glyph-name="guillemotright.cap" horiz-adv-x="915" 
d="M844 741v-12l-389 -393h-58l256 399l-256 400h58zM518 741v-12l-389 -393h-57l256 399l-256 400h57z" />
    <glyph glyph-name="slash.cap" horiz-adv-x="770" 
d="M719 1577l-588 -1784h-80l588 1784h80z" />
    <glyph glyph-name="backslash.cap" horiz-adv-x="770" 
d="M639 -207l-588 1784h80l588 -1784h-80z" />
    <glyph glyph-name="bar.cap" horiz-adv-x="444" 
d="M260 1577v-1784h-76v1784h76z" />
    <glyph glyph-name="brokenbar.cap" horiz-adv-x="444" 
d="M260 1577v-760h-76v760h76zM260 553v-760h-76v760h76z" />
    <glyph glyph-name="periodcentered.cap" horiz-adv-x="421" 
d="M61 739q0 63 43.5 106.5t106.5 43.5t106 -43.5t43 -106.5t-43 -106t-106 -43t-106.5 43t-43.5 106z" />
    <glyph glyph-name="bullet.cap" horiz-adv-x="622" 
d="M61 737q0 103 73.5 176.5t176.5 73.5t176.5 -73.5t73.5 -176.5t-73.5 -176.5t-176.5 -73.5t-176.5 73.5t-73.5 176.5z" />
    <glyph glyph-name="hyphen.cap" horiz-adv-x="655" 
d="M594 692h-533v92h533v-92z" />
    <glyph glyph-name="endash.cap" horiz-adv-x="1105" 
d="M1044 700h-983v74h983v-74z" />
    <glyph glyph-name="emdash.cap" horiz-adv-x="1966" 
d="M1905 774v-74h-1844v74h1844z" />
    <glyph glyph-name="parenleft.cap" horiz-adv-x="692" 
d="M295 684q0 -263 75.5 -480.5t260.5 -412.5h-80q-192 174 -309 411.5t-117 481.5t117 481.5t309 411.5h80q-185 -195 -260.5 -412.5t-75.5 -480.5z" />
    <glyph glyph-name="parenright.cap" horiz-adv-x="692" 
d="M397 684q0 263 -75.5 480.5t-260.5 412.5h80q192 -174 309 -411.5t117 -481.5t-117 -481.5t-309 -411.5h-80q185 195 260.5 412.5t75.5 480.5z" />
    <glyph glyph-name="bracketleft.cap" horiz-adv-x="638" 
d="M315 1401v-1432q0 -26 5 -45t19.5 -32t29 -20.5t46 -12.5t57.5 -7.5t75 -5.5v-53h-373v1784h373v-53q-49 -3 -75 -5.5t-57.5 -7.5t-46 -12.5t-29 -20.5t-19.5 -32t-5 -45z" />
    <glyph glyph-name="bracketright.cap" horiz-adv-x="638" 
d="M324 -31v1432q0 26 -5 45t-19.5 32t-29 20.5t-46 12.5t-57.5 7.5t-75 5.5v53h373v-1784h-373v53q49 3 75 5.5t57.5 7.5t46 12.5t29 20.5t19.5 32t5 45z" />
    <glyph glyph-name="braceleft.cap" horiz-adv-x="698" 
d="M102 676v20q170 35 170 205v414q0 120 93 191t241 71v-43q-92 -9 -139 -55.5t-47 -145.5v-418q0 -99 -48.5 -147.5t-158.5 -81.5q110 -33 158.5 -81.5t48.5 -147.5v-418q0 -99 47 -145.5t139 -55.5v-43q-148 0 -241 71t-93 191v414q0 170 -170 205z" />
    <glyph glyph-name="braceright.cap" horiz-adv-x="698" 
d="M596 696v-20q-170 -35 -170 -205v-414q0 -120 -93 -191t-241 -71v43q93 9 140 55.5t47 145.5v418q0 99 48 147.5t158 81.5q-110 33 -158 81.5t-48 147.5v418q0 99 -47 145.5t-140 55.5v43q148 0 241 -71t93 -191v-414q0 -170 170 -205z" />
    <glyph glyph-name="at.cap" horiz-adv-x="1734" 
d="M1202 268q-74 0 -123 31t-69.5 83.5t-22.5 123t19 149.5q-79 -178 -173.5 -281.5t-195.5 -103.5q-88 0 -139.5 67.5t-51.5 190.5q0 148 73 291t191 233.5t242 90.5q114 0 187 -70l131 76h28l-53 -176l-102 -420q-56 -227 69 -227q85 0 150.5 50.5t103.5 134t57 180
t19 200.5q0 265 -141.5 420t-413.5 155q-140 0 -265.5 -50t-219 -137t-161.5 -201.5t-103 -247t-35 -269.5q0 -280 169 -450t451 -170q171 0 293 34t266 115l19 -29q-110 -88 -268.5 -143t-325.5 -55q-348 0 -547 186t-199 512q0 146 43 287.5t125.5 263t193.5 214
t257.5 145.5t306.5 53q322 0 504 -170.5t182 -462.5q0 -88 -19.5 -176.5t-59.5 -168.5t-95 -142t-132 -99t-165 -37zM705 371q92 0 205.5 186.5t185.5 456.5q-19 38 -56.5 57t-78.5 19q-73 0 -139.5 -54t-111.5 -137.5t-71.5 -183t-26.5 -191.5q0 -67 24.5 -110t68.5 -43z
" />
    </font>
</defs>
</svg>
