<?xml version="1.0" standalone="no"?>
<!DOCTYPE svg PUBLIC "-//W3C//DTD SVG 1.1//EN" "http://www.w3.org/Graphics/SVG/1.1/DTD/svg11.dtd" >
<svg xmlns="http://www.w3.org/2000/svg" xmlns:xlink="http://www.w3.org/1999/xlink" version="1.1">
<metadata>
Created by FontForge 20170731 at Tue Jul  5 13:16:09 2022
 By Aleksey,,,
(c) 2010 Klim Type Foundry. All rights reserved.
</metadata>
<defs>
<font id="TiemposHeadline-MediumItalic" horiz-adv-x="1024" >
  <font-face 
    font-family="Tiempos Headline Medium"
    font-weight="500"
    font-style="italic"
    font-stretch="normal"
    units-per-em="2048"
    panose-1="2 2 6 3 6 3 3 13 4 3"
    ascent="1604"
    descent="-444"
    x-height="1106"
    cap-height="1438"
    bbox="-412 -483 2429 2130"
    underline-thickness="61"
    underline-position="-265"
    slope="-12"
    unicode-range="U+0020-FB04"
  />
<missing-glyph horiz-adv-x="1966" 
d="M184 0v1597h1598v-1597h-1598zM983 707l-571 -572h1142zM412 1462l571 -571l571 571h-1142zM891 799l-563 563v-1126zM1075 799l563 -563v1126z" />
    <glyph glyph-name="ff" unicode="ff" horiz-adv-x="1286" 
d="M696 127l164 838h-328l-122 -537q-74 -319 -161.5 -512t-186 -273.5t-224.5 -80.5q-99 0 -162 40t-63 109q0 62 39.5 98t97.5 44h43q2 -101 26.5 -160.5t69.5 -59.5q36 0 62 38t52.5 135.5t64.5 291.5l165 867h-153l16 65l158 39q57 225 202.5 362.5t342.5 137.5
q91 0 163.5 -29t116.5 -78q135 142 310 142q108 0 174.5 -44t66.5 -126q0 -51 -30 -87t-84 -51h-95q16 234 -84 234q-63 0 -108.5 -134.5t-59.5 -336.5h230l-23 -94h-219l-123 -545q-51 -226 -111.5 -386.5t-131.5 -257.5t-149.5 -141.5t-172.5 -44.5q-86 0 -139.5 37
t-53.5 105q0 57 37.5 90t94.5 43h30q-2 -96 18 -149.5t58 -53.5t65 39.5t53.5 136.5t63.5 289zM793 1493q-98 0 -163 -119t-83 -315h332q26 123 84 235q-13 86 -56.5 142.5t-113.5 56.5z" />
    <glyph glyph-name="fi" unicode="fi" horiz-adv-x="1245" 
d="M920 1059l217 47h43l-211 -840q-19 -70 -19 -86q0 -30 29 -30q56 0 176 149l39 -33q-105 -153 -184 -219.5t-172 -66.5q-78 0 -121 45.5t-43 119.5t26 170l164 650h-332l-133 -590q-66 -295 -148 -475t-181.5 -259t-231.5 -79q-99 0 -162 40t-63 109q0 62 39.5 98
t97.5 44h43q2 -101 26.5 -160.5t69.5 -59.5q36 0 62 38t52.5 135.5t64.5 291.5l165 867h-153l16 65l158 39q59 241 213 388t373 147q122 0 203 -47.5t81 -129.5q0 -52 -32 -87.5t-91 -49.5h-112q20 97 -3.5 167.5t-92.5 70.5q-99 0 -163.5 -128t-82.5 -341h373z" />
    <glyph glyph-name="fl" unicode="fl" horiz-adv-x="1245" 
d="M737 965h-202l-134 -590q-100 -439 -232 -626t-329 -187q-100 0 -163.5 40t-63.5 109q0 62 40 98t99 44h43q2 -101 26.5 -160.5t67.5 -59.5q37 0 63 38.5t52 134.5t64 292l165 867h-151l14 65l158 37q28 114 77 210t116.5 169.5t157.5 115.5t192 42q64 0 124 -18.5
t99 -51.5l235 70h41l-325 -1338q-17 -79 -17 -86q0 -30 29 -30q54 0 174 149l41 -33q-108 -154 -186 -220t-172 -66q-77 0 -119.5 45.5t-42.5 119.5q0 71 24 170l256 1028q-21 89 -66.5 137t-105.5 48q-58 0 -102 -35t-72 -100t-44.5 -147.5t-22.5 -186.5h215z" />
    <glyph glyph-name="ffi" unicode="ffi" horiz-adv-x="1871" 
d="M1489 965h-332l-123 -545q-52 -226 -112.5 -386.5t-131 -257.5t-149 -141.5t-172.5 -44.5q-86 0 -139.5 37t-53.5 105q0 57 37.5 90t94.5 43h30q-2 -96 18 -149.5t58 -53.5t65 39t54 137t63 289l162 838h-326l-122 -537q-74 -319 -161.5 -512t-186 -273.5t-224.5 -80.5
q-99 0 -162 40t-63 109q0 62 39.5 98t97.5 44h43q2 -101 26.5 -160.5t69.5 -59.5q36 0 62 38t52.5 135.5t64.5 291.5l165 867h-153l16 65l158 39q57 225 202.5 362.5t342.5 137.5q96 0 171 -31.5t117 -85.5q155 152 379 152q122 0 203.5 -47.5t81.5 -129.5
q0 -52 -32.5 -87.5t-92.5 -49.5h-110q20 96 -4.5 167t-92.5 71q-99 0 -163 -128t-82 -341h372l217 47h43l-211 -840q-18 -67 -18 -86q0 -30 29 -30q54 0 174 149l41 -33q-108 -154 -186.5 -220t-172.5 -66q-77 0 -119.5 45.5t-42.5 119.5q0 67 25 170zM793 1493
q-98 0 -163 -119t-83 -315h330l2 4q26 118 84 225q-11 88 -55.5 146.5t-114.5 58.5z" />
    <glyph glyph-name="ffl" unicode="ffl" horiz-adv-x="1869" 
d="M1360 965h-203l-123 -545q-52 -226 -112.5 -386.5t-131 -257.5t-149 -141.5t-172.5 -44.5q-86 0 -139.5 37t-53.5 105q0 57 37.5 90t94.5 43h30q-2 -96 18 -149.5t58 -53.5t65 39t54 137t63 289l162 838h-326l-122 -537q-74 -319 -161.5 -512t-186 -273.5t-224.5 -80.5
q-99 0 -162 40t-63 109q0 62 39.5 98t97.5 44h43q2 -101 26.5 -160.5t69.5 -59.5q36 0 62 38t52.5 135.5t64.5 291.5l165 867h-153l16 65l158 39q57 225 202.5 362.5t342.5 137.5q94 0 168 -30.5t116 -82.5q148 148 338 148q142 0 224 -70l235 70h43l-326 -1338
q-18 -67 -18 -86q0 -30 29 -30q54 0 174 149l41 -33q-108 -154 -186.5 -220t-172.5 -66q-77 0 -119 45.5t-42 119.5q0 59 24 170l256 1028q-21 89 -66.5 137t-105.5 48q-75 0 -128 -64.5t-78.5 -167t-30.5 -237.5h210zM879 1063q27 120 84 225q-11 89 -55.5 147t-114.5 58
q-98 0 -163 -119t-83 -315h330z" />
    <glyph glyph-name="f_b" unicode="fb" horiz-adv-x="1830" 
d="M680 227l278 1116q-21 89 -66.5 137t-105.5 48q-58 0 -102 -35t-72 -100t-44.5 -147.5t-22.5 -186.5h215l-23 -94h-202l-134 -590q-100 -439 -232 -626t-329 -187q-100 0 -163.5 40t-63.5 109q0 62 40 98t99 44h43q2 -101 26.5 -160.5t67.5 -59.5q37 0 63 38.5t52 134.5
t64 292l165 867h-151l14 65l158 37q28 114 77 210t116.5 169.5t157.5 115.5t192 42q64 0 124 -18.5t99 -51.5l235 70h41l-247 -1012q63 134 145.5 248t182.5 190t190 76q110 0 168.5 -81t58.5 -228q0 -159 -59 -310t-154.5 -261.5t-222 -178t-256.5 -67.5
q-141 0 -261.5 67.5t-160.5 179.5zM1423 913q-53 0 -125 -63.5t-141 -166t-129.5 -245.5t-89.5 -288q11 -47 52 -72t91 -25q81 0 160.5 69t136.5 173.5t92.5 229.5t36.5 235q0 153 -84 153z" />
    <glyph glyph-name="f_f_b" unicode="ffb" horiz-adv-x="2457" 
d="M1360 965h-201l-125 -545q-52 -226 -112.5 -386.5t-131 -257.5t-149 -141.5t-172.5 -44.5q-86 0 -139.5 37t-53.5 105q0 57 37.5 90t94.5 43h30q-2 -96 18 -149.5t58 -53.5t65 39t54 137t63 289l162 838h-326l-122 -537q-74 -319 -161.5 -512t-186 -273.5t-224.5 -80.5
q-99 0 -162 40t-63 109q0 62 39.5 98t97.5 44h43q2 -101 26.5 -160.5t69.5 -59.5q36 0 62 38t52.5 135.5t64.5 291.5l165 867h-153l16 65l158 39q57 225 202.5 362.5t342.5 137.5q94 0 168 -30.5t116 -82.5q148 148 338 148q142 0 224 -70l235 70h43l-250 -1012
q63 134 146 248t183.5 190t190.5 76q108 0 167 -81t59 -228q0 -159 -59 -310t-155 -261.5t-222.5 -178t-256.5 -67.5q-141 0 -261 67.5t-160 179.5l278 1116q-21 89 -66.5 137t-105.5 48q-75 0 -128 -64.5t-78.5 -167t-30.5 -237.5h210zM2048 913q-53 0 -125 -63.5
t-141 -166t-129.5 -245.5t-89.5 -288q11 -47 52.5 -72t92.5 -25q107 0 207.5 115.5t158.5 279.5t58 312q0 153 -84 153zM879 1063q27 120 84 225q-11 89 -55.5 147t-114.5 58q-98 0 -163 -119t-83 -315h330z" />
    <glyph glyph-name="f_h" unicode="fh" horiz-adv-x="1839" 
d="M625 0l333 1343q-21 89 -66.5 137t-105.5 48q-58 0 -102 -35t-72 -100t-44.5 -147.5t-22.5 -186.5h215l-23 -94h-202l-134 -590q-100 -439 -232 -626t-329 -187q-100 0 -163.5 40t-63.5 109q0 62 40 98t99 44h43q2 -101 26.5 -160.5t67.5 -59.5q37 0 63 38.5t52 134.5
t64 292l165 867h-151l14 65l158 37q28 114 77 210t116.5 169.5t157.5 115.5t192 42q64 0 124 -18.5t99 -51.5l235 70h41l-249 -1002q52 101 116.5 190.5t136 160t150 112t149.5 41.5q148 0 148 -160q0 -47 -14 -102l-156 -578q-16 -59 -16 -86q0 -30 28 -30q54 0 174 149
l41 -33q-107 -153 -186 -219.5t-172 -66.5q-78 0 -123 46t-45 119q0 57 31 172l137 494q12 50 12 66q0 21 -7.5 31t-27.5 10q-40 0 -102.5 -50.5t-127.5 -133t-125 -203t-91 -244.5l-74 -287h-278z" />
    <glyph glyph-name="f_f_h" unicode="ffh" horiz-adv-x="2463" 
d="M1249 0l334 1343q-21 89 -66.5 137t-105.5 48q-75 0 -128 -64.5t-78.5 -167t-30.5 -237.5h210l-24 -94h-203l-123 -545q-52 -226 -112.5 -386.5t-131 -257.5t-149 -141.5t-172.5 -44.5q-86 0 -139.5 37t-53.5 105q0 57 37.5 90t94.5 43h30q-2 -96 18 -149.5t58 -53.5
t65 39t54 137t63 289l162 838h-326l-122 -537q-74 -319 -161.5 -512t-186 -273.5t-224.5 -80.5q-99 0 -162 40t-63 109q0 62 39.5 98t97.5 44h43q2 -101 26.5 -160.5t69.5 -59.5q36 0 62 38t52.5 135.5t64.5 291.5l165 867h-153l16 65l158 39q57 225 202.5 362.5
t342.5 137.5q94 0 168 -30.5t116 -82.5q148 148 338 148q142 0 224 -70l235 70h43l-252 -1002q110 212 261.5 358t291.5 146q76 0 113 -42t37 -118q0 -36 -17 -102l-155 -578q-17 -63 -17 -86q0 -30 29 -30q54 0 174 149l41 -33q-108 -154 -186 -220t-172 -66q-78 0 -123 46
t-45 119q0 61 30 172l140 494q10 42 10 66q0 21 -7.5 31t-27.5 10q-40 0 -102.5 -50.5t-127.5 -133t-125 -203t-91 -244.5l-74 -287h-279zM793 1493q-98 0 -163 -119t-83 -315h330l2 4q27 120 84 225q-11 89 -55.5 147t-114.5 58z" />
    <glyph glyph-name="f_idieresis" unicode="f&#xef;" horiz-adv-x="1245" 
d="M920 1059l217 47h43l-211 -840q-19 -70 -19 -86q0 -30 29 -30q56 0 176 149l39 -33q-105 -153 -184 -219.5t-172 -66.5q-78 0 -121 45.5t-43 119.5t26 170l164 650h-332l-133 -590q-66 -295 -148 -475t-181.5 -259t-231.5 -79q-99 0 -162 40t-63 109q0 62 39.5 98
t97.5 44h43q2 -101 26.5 -160.5t69.5 -59.5q36 0 62 38t52.5 135.5t64.5 291.5l165 867h-153l16 65l156 39q27 113 69.5 206t104 169t148.5 118t192 42q126 0 202 -56t76 -153q0 -63 -37.5 -107.5t-107.5 -56.5h-106q13 51 16 102t-3.5 95.5t-30 72t-60.5 27.5
q-151 0 -170 -469h375zM1268 1237q-63 0 -103.5 40.5t-40.5 100.5q0 64 45 110t111 46q63 0 102 -40t39 -99q0 -65 -43.5 -111.5t-109.5 -46.5z" />
    <glyph glyph-name="f_f_idieresis" unicode="ff&#xef;" horiz-adv-x="1871" 
d="M1489 965h-332l-123 -545q-52 -226 -112.5 -386.5t-131 -257.5t-149 -141.5t-172.5 -44.5q-86 0 -139.5 37t-53.5 105q0 57 37.5 90t94.5 43h30q-2 -96 18 -149.5t58 -53.5t65 39t54 137t63 289l162 838h-326l-122 -537q-74 -319 -161.5 -512t-186 -273.5t-224.5 -80.5
q-99 0 -162 40t-63 109q0 62 39.5 98t97.5 44h43q2 -101 26.5 -160.5t69.5 -59.5q36 0 62 38t52.5 135.5t64.5 291.5l165 867h-153l16 65l158 39q57 225 202.5 362.5t342.5 137.5q88 0 159 -28t115 -75q135 138 320 138q126 0 202 -56t76 -153q0 -63 -37.5 -107.5
t-107.5 -56.5h-107q13 51 16 102t-3.5 95.5t-30 72t-60.5 27.5q-151 0 -170 -469h375l217 47h43l-211 -840q-18 -67 -18 -86q0 -30 29 -30q54 0 174 149l41 -33q-108 -154 -186.5 -220t-172.5 -66q-77 0 -119.5 45.5t-42.5 119.5q0 67 25 170zM793 1493q-98 0 -163 -119
t-83 -315h330l2 4q26 123 82 242q-14 82 -57.5 135t-110.5 53zM1894 1237q-63 0 -102 40.5t-39 100.5q0 64 44 110t110 46q63 0 102 -40t39 -99q0 -64 -44 -111t-110 -47z" />
    <glyph glyph-name="f_j" unicode="fj" horiz-adv-x="1181" 
d="M864 965h-332l-122 -537q-74 -319 -161.5 -512t-186 -273.5t-224.5 -80.5q-99 0 -162 40t-63 109q0 62 39.5 98t97.5 44h43q2 -101 26.5 -160.5t69.5 -59.5q36 0 62 38t52.5 135.5t64.5 291.5l165 867h-153l16 65l158 39q59 241 213 388t373 147q122 0 203 -47.5
t81 -129.5q0 -52 -32 -87.5t-91 -49.5h-112q20 97 -3.5 167.5t-92.5 70.5q-99 0 -163.5 -128t-82.5 -341h373l217 47h43l-156 -703q-48 -219 -109.5 -378t-134 -254t-152 -139t-171.5 -44q-83 0 -139 38t-56 104q0 57 38 91t93 42h31q-3 -201 78 -201q47 0 76.5 74.5
t78.5 292.5z" />
    <glyph glyph-name="f_f_j" unicode="ffj" horiz-adv-x="1806" 
d="M1489 965h-332l-123 -545q-52 -226 -112.5 -386.5t-131 -257.5t-149 -141.5t-172.5 -44.5q-86 0 -139.5 37t-53.5 105q0 57 37.5 90t94.5 43h30q-2 -96 18 -149.5t58 -53.5t65 39t54 137t63 289l162 838h-326l-122 -537q-74 -319 -161.5 -512t-186 -273.5t-224.5 -80.5
q-99 0 -162 40t-63 109q0 62 39.5 98t97.5 44h43q2 -101 26.5 -160.5t69.5 -59.5q36 0 62 38t52.5 135.5t64.5 291.5l165 867h-153l16 65l158 39q57 225 202.5 362.5t342.5 137.5q96 0 171 -31.5t117 -85.5q155 152 379 152q122 0 203.5 -47.5t81.5 -129.5
q0 -52 -32.5 -87.5t-92.5 -49.5h-110q20 96 -4.5 167t-92.5 71q-99 0 -163 -128t-82 -341h370l217 47h43l-155 -703q-48 -219 -110 -378t-134.5 -254t-152 -139t-171.5 -44q-82 0 -138 38t-56 104q0 57 38 91t93 42h31q-3 -201 77 -201q47 0 77.5 75t78.5 292zM793 1493
q-98 0 -163 -119t-83 -315h330l2 4q26 118 84 225q-11 88 -55.5 146.5t-114.5 58.5z" />
    <glyph glyph-name="f_k" unicode="fk" horiz-adv-x="1771" 
d="M737 965h-202l-134 -590q-100 -439 -232 -626t-329 -187q-100 0 -163.5 40t-63.5 109q0 62 40 98t99 44h43q2 -101 26.5 -160.5t67.5 -59.5q37 0 63 38.5t52 134.5t64 292l165 867h-151l14 65l158 37q28 114 77 210t116.5 169.5t157.5 115.5t192 42q64 0 124 -18.5
t99 -51.5l235 70h41l-393 -1604h-280l335 1343q-21 89 -66.5 137t-105.5 48q-58 0 -102 -35t-72 -100t-44.5 -147.5t-22.5 -186.5h215zM1282 715l176 -436q36 -83 49 -100q18 -23 43 -23q30 0 59.5 27t88.5 98l39 -33q-95 -143 -167 -205.5t-159 -62.5q-78 0 -123 49.5
t-82 154.5l-135 387l359 406q60 68 108.5 98.5t106.5 30.5q70 0 108.5 -42t38.5 -103q0 -118 -139 -170h-19q3 57 -21.5 95t-74.5 38q-43 0 -76 -23t-82 -78z" />
    <glyph glyph-name="f_f_k" unicode="ffk" horiz-adv-x="2396" 
d="M1360 965h-201l-125 -545q-52 -226 -112.5 -386.5t-131 -257.5t-149 -141.5t-172.5 -44.5q-86 0 -139.5 37t-53.5 105q0 57 37.5 90t94.5 43h30q-2 -96 18 -149.5t58 -53.5t65 39t54 137t63 289l162 838h-326l-122 -537q-74 -319 -161.5 -512t-186 -273.5t-224.5 -80.5
q-99 0 -162 40t-63 109q0 62 39.5 98t97.5 44h43q2 -101 26.5 -160.5t69.5 -59.5q36 0 62 38t52.5 135.5t64.5 291.5l165 867h-153l16 65l158 39q57 225 202.5 362.5t342.5 137.5q94 0 168 -30.5t116 -82.5q148 148 338 148q142 0 224 -70l235 70h43l-395 -1604h-281
l336 1343q-21 89 -66.5 137t-105.5 48q-75 0 -128 -64.5t-78.5 -167t-30.5 -237.5h210zM1907 715l178 -436q35 -85 49 -103q18 -20 41 -20q30 0 60.5 28t86.5 97l39 -33q-95 -143 -166.5 -205.5t-158.5 -62.5q-77 0 -122.5 50t-82.5 154l-133 387l356 406q60 68 108.5 98.5
t106.5 30.5q71 0 109.5 -42t38.5 -103q0 -118 -140 -170h-18q3 58 -21 95.5t-75 37.5q-43 0 -76 -23t-82 -78zM879 1063q27 120 84 225q-11 89 -55.5 147t-114.5 58q-98 0 -163 -119t-83 -315h330z" />
    <glyph glyph-name=".notdef" horiz-adv-x="1966" 
d="M184 0v1597h1598v-1597h-1598zM983 707l-571 -572h1142zM412 1462l571 -571l571 571h-1142zM891 799l-563 563v-1126zM1075 799l563 -563v1126z" />
    <glyph glyph-name=".null" horiz-adv-x="0" 
 />
    <glyph glyph-name="nonmarkingreturn" horiz-adv-x="682" 
 />
    <glyph glyph-name="space" unicode=" " horiz-adv-x="378" 
 />
    <glyph glyph-name="exclam" unicode="!" horiz-adv-x="544" 
d="M668 1438l-392 -989h-75l94 989h373zM14 150q0 72 50.5 123t119.5 51q70 0 120 -51t50 -123q0 -69 -50 -119.5t-120 -50.5q-69 0 -119.5 50.5t-50.5 119.5z" />
    <glyph glyph-name="quotedbl" unicode="&#x22;" horiz-adv-x="632" 
d="M242 969h-25l12 288q0 10 1.5 45t2 46t2 39t4.5 41l7.5 32.5t10.5 33t15 24.5q42 49 107 49q53 0 79.5 -29.5t26.5 -75.5q0 -21 -4.5 -42.5t-16 -47.5t-19 -40.5t-25.5 -46.5t-23 -42zM543 969h-25l12 288q0 10 1.5 45t2 46t2 39t4.5 41l7.5 32.5t10.5 33t15 24.5
q36 49 105 49q54 0 81 -29.5t27 -75.5q0 -21 -4.5 -42.5t-16 -47.5t-19 -40.5t-25.5 -46.5t-23 -42z" />
    <glyph glyph-name="numbersign" unicode="#" horiz-adv-x="1097" 
d="M979 475h-238l-155 -493l-86 26l147 467h-287l-155 -493l-86 26l147 467h-188v78h213l112 360h-219v80h246l148 467l86 -26l-140 -441h287l147 467l86 -26l-139 -441h180v-80h-206l-113 -360h213v-78zM498 913l-113 -360h287l112 360h-286z" />
    <glyph glyph-name="dollar" unicode="$" horiz-adv-x="1146" 
d="M1044 453q0 -110 -45.5 -200t-123.5 -148.5t-179 -90.5t-215 -34l-45 -211h-71l47 213q-135 10 -242.5 55t-167.5 102l59 346h74q4 -183 80.5 -290.5t214.5 -126.5l117 526l-49 24q-151 73 -229.5 164t-78.5 224q0 204 146.5 328t390.5 124h10l43 199h70l-45 -203
q102 -10 190 -45.5t148 -87.5l-60 -305h-71q-3 310 -226 352l-110 -504q0 -2 4 -2q64 -30 113 -58t98.5 -66.5t81 -78.5t51.5 -93t20 -113zM778 324q0 77 -40 130.5t-130 104.5l-108 -493q124 3 201 71.5t77 186.5zM446 1124q0 -77 39 -128.5t127 -100.5l107 481h-8
q-118 0 -191.5 -71t-73.5 -181z" />
    <glyph glyph-name="percent" unicode="%" horiz-adv-x="1550" 
d="M526 1458q125 0 208 -79.5t83 -215.5q0 -92 -34 -169.5t-89 -127t-123 -77t-139 -27.5q-125 0 -208 79.5t-83 215.5q0 92 34 169.5t89 127t123 77t139 27.5zM522 1397q-58 0 -104.5 -59.5t-70 -149.5t-23.5 -189q0 -83 24.5 -129.5t87.5 -46.5q58 0 104.5 59.5
t70.5 149.5t24 189q0 83 -24.5 129.5t-88.5 46.5zM1063 -20q-126 0 -208.5 79t-82.5 215q0 92 34 169.5t89 127.5t123 77.5t139 27.5q125 0 208 -79.5t83 -215.5q0 -92 -34 -169.5t-89 -127t-123 -77t-139 -27.5zM1458 1458l-1229 -1478h-100l1231 1478h98zM1067 41
q58 0 104.5 59t70.5 149t24 189q0 83 -24.5 129.5t-88.5 46.5q-58 0 -104.5 -59t-70.5 -149t-24 -189q0 -176 113 -176z" />
    <glyph glyph-name="ampersand" unicode="&#x26;" horiz-adv-x="1421" 
d="M20 354q0 169 113 277t303 157q-78 139 -78 277q0 169 126.5 281t322.5 112q163 0 258.5 -77.5t95.5 -198.5q0 -137 -108 -225t-303 -142l272 -430q90 137 90 270q0 68 -98 68l12 72h422l-12 -72q-79 0 -121.5 -13t-66.5 -42.5t-48 -92.5q-60 -150 -137 -256l67 -104
q46 -68 97.5 -105.5t124.5 -37.5l-17 -72h-348q-68 44 -123 115q-191 -135 -422 -135q-115 0 -209.5 42.5t-153.5 129t-59 202.5zM592 113q107 0 223 69l-22 37l-328 524q-88 -44 -133 -132t-45 -195q0 -140 85 -221.5t220 -81.5zM606 1153q0 -52 18.5 -108t36 -87t48.5 -79
l12 -21q112 44 167.5 122t55.5 202q0 94 -42 148t-122 54q-81 0 -127.5 -62.5t-46.5 -168.5z" />
    <glyph glyph-name="quotesingle" unicode="'" horiz-adv-x="331" 
d="M242 969h-25l12 288q0 10 1.5 45t2 46t2 39t4.5 41l7.5 32.5t10.5 33t15 24.5q42 49 107 49q53 0 79.5 -29.5t26.5 -75.5q0 -21 -4.5 -42.5t-16 -47.5t-19 -40.5t-25.5 -46.5t-23 -42z" />
    <glyph glyph-name="parenleft" unicode="(" horiz-adv-x="727" 
d="M147 414q0 169 52 336t145.5 313.5t214 275t266.5 238.5h97q-114 -103 -209 -230t-159 -256.5t-108.5 -265.5t-65 -260.5t-20.5 -238.5q0 -372 164 -617h-96q-137 148 -209 328.5t-72 376.5z" />
    <glyph glyph-name="parenright" unicode=")" horiz-adv-x="727" 
d="M637 872q0 -169 -52 -336t-145.5 -313.5t-214 -275t-266.5 -238.5h-96q142 128 252.5 291.5t176 330t99 326.5t33.5 304q0 371 -164 616h96q138 -147 209.5 -327.5t71.5 -377.5z" />
    <glyph glyph-name="asterisk" unicode="*" horiz-adv-x="868" 
d="M874 1159l-272 8l217 -166q43 -30 47.5 -69t-26.5 -64q-28 -27 -65.5 -16t-61.5 59l-129 242l-35 -270q-4 -52 -34.5 -75.5t-68.5 -10.5q-40 14 -48.5 50t20.5 81l143 231l-252 -102q-48 -22 -82.5 -7.5t-42.5 54.5q-6 40 20.5 65.5t80.5 22.5l272 -6l-215 166
q-43 28 -48.5 67t25.5 64q28 27 66.5 16t63.5 -59l126 -242l37 272q4 51 34.5 73.5t68.5 10.5q38 -14 47 -49.5t-19 -81.5l-145 -233l252 104q50 22 84.5 8.5t40.5 -53.5q8 -40 -19.5 -66.5t-81.5 -23.5z" />
    <glyph glyph-name="plus" unicode="+" horiz-adv-x="1165" 
d="M647 1208h127l-84 -389h389l-26 -123h-389l-82 -389h-127l82 389h-387l26 123h387z" />
    <glyph glyph-name="comma" unicode="," horiz-adv-x="479" 
d="M178 4h-69q-56 11 -89.5 48.5t-33.5 99.5q0 69 47 112t117 43q82 0 128 -53.5t46 -144.5q0 -150 -116.5 -249.5t-297.5 -105.5v68q116 14 188.5 59t79.5 123z" />
    <glyph glyph-name="hyphen" unicode="-" horiz-adv-x="655" 
d="M582 559h-533l29 129h532z" />
    <glyph glyph-name="period" unicode="." horiz-adv-x="479" 
d="M-20 158q0 75 52 126.5t126 51.5t126 -51.5t52 -126.5q0 -76 -52 -127t-126 -51t-126 51t-52 127z" />
    <glyph glyph-name="slash" unicode="/" horiz-adv-x="755" 
d="M942 1577l-987 -1866h-123l983 1866h127z" />
    <glyph glyph-name="zero" unicode="0" horiz-adv-x="1290" 
d="M539 -20q-142 0 -248.5 72t-160.5 194.5t-54 275.5q0 138 33.5 274t99 255t154 210t207.5 144t251 53q142 0 248.5 -72.5t160.5 -195t54 -275.5q0 -138 -33.5 -274t-99.5 -254.5t-154.5 -210t-207.5 -144t-250 -52.5zM539 53q92 0 177.5 105t142 259.5t90.5 325t34 308.5
q0 333 -166 333q-74 0 -144 -69t-122 -179t-92.5 -242.5t-61 -265t-20.5 -241.5q0 -74 7 -130.5t24.5 -104.5t50.5 -73.5t80 -25.5z" />
    <glyph glyph-name="one" unicode="1" horiz-adv-x="864" 
d="M737 1456h64l-258 -1210q-7 -39 -8 -66t7 -46.5t21 -30.5t41 -18t58.5 -9.5t80.5 -3.5l-16 -72h-762l17 72q81 3 121 8t70 21.5t41.5 41.5t23.5 74l196 928h-252l15 65l79 13q146 24 253 76.5t208 156.5z" />
    <glyph glyph-name="two" unicode="2" horiz-adv-x="1107" 
d="M262 246h332q75 0 117 5.5t85.5 28t78.5 63t83 114.5h62l-152 -457h-948l10 51q276 227 433.5 367t260 256.5t137 196t34.5 169.5q0 99 -62.5 157t-169.5 58q-188 0 -344 -170l-33 41q201 332 519 332q181 0 285 -95t104 -257q0 -60 -18.5 -117.5t-48.5 -107t-81 -104
t-102 -98.5t-126.5 -101.5t-139 -102.5t-155.5 -111t-161 -118z" />
    <glyph glyph-name="three" unicode="3" horiz-adv-x="1091" 
d="M362 754q431 110 431 348q0 78 -51.5 128t-139.5 50q-170 0 -323 -166l-35 43q90 138 215.5 219.5t285.5 81.5q155 0 245.5 -77t90.5 -197q0 -65 -26 -121t-65.5 -94.5t-95 -70t-106.5 -50.5t-108 -33q147 -14 245.5 -110.5t98.5 -229.5q0 -97 -35.5 -179.5t-95 -139.5
t-137 -97.5t-160.5 -59.5t-166 -19q-216 0 -327 85.5t-111 210.5q0 64 36 109.5t93 69.5h149q-34 -69 -34 -152q0 -109 49.5 -181.5t148.5 -72.5q86 0 156 56.5t106.5 142.5t36.5 178q0 134 -64 207.5t-177 73.5q-55 0 -119 -17z" />
    <glyph glyph-name="four" unicode="4" horiz-adv-x="1282" 
d="M164 479h510l143 678zM616 211l37 178h-651l12 55l953 994h207l-207 -959h239l-20 -90h-238l-37 -178q-6 -36 -6 -57t6 -37.5t25 -24.5t45 -12.5t72 -7.5l-17 -72h-635l17 72q113 9 147 32.5t51 106.5z" />
    <glyph glyph-name="five" unicode="5" horiz-adv-x="1085" 
d="M414 1171l-70 -239q133 3 248 -21.5t208 -77t147 -144.5t54 -214q0 -222 -156.5 -358.5t-393.5 -136.5q-209 0 -330 79.5t-121 208.5q0 65 34 113.5t89 69.5h145q-30 -73 -30 -146q0 -111 63 -182.5t172 -71.5q121 0 200 82.5t79 216.5q0 357 -576 342l240 740h524
q57 0 81 14t66 74h64l-127 -349h-610z" />
    <glyph glyph-name="six" unicode="6" horiz-adv-x="1189" 
d="M1169 1403q-267 -56 -459.5 -213t-281.5 -393q146 129 326 129q178 0 281.5 -107.5t103.5 -273.5q0 -161 -79 -291.5t-211 -202t-288 -71.5q-224 0 -354.5 140t-130.5 363q0 183 80 352t219.5 298.5t339 215.5t428.5 107zM618 815q-117 0 -206 -70q-50 -155 -50 -333
q0 -162 49.5 -259.5t155.5 -97.5q87 0 154 64.5t101 166t34 218.5q0 139 -59 225t-179 86z" />
    <glyph glyph-name="seven" unicode="7" horiz-adv-x="1058" 
d="M971 1157h-520q-87 0 -141 -38.5t-113 -131.5h-70l182 451h912l-13 -60l-854 -1378h-227z" />
    <glyph glyph-name="eight" unicode="8" horiz-adv-x="1165" 
d="M1155 1137q0 -72 -31 -132t-82.5 -99.5t-113 -64t-127.5 -32.5l47 -31q221 -139 221 -350q0 -203 -148.5 -325.5t-383.5 -122.5q-222 0 -363 103t-141 265q0 143 108.5 233t278.5 115l-25 19q-168 118 -168 319q0 180 139.5 302t358.5 122q189 0 309.5 -86.5
t120.5 -234.5zM662 543l-205 129q-102 -44 -150.5 -133.5t-48.5 -188.5q0 -132 77.5 -214.5t205.5 -82.5q119 0 199.5 68.5t80.5 187.5q0 71 -39 126t-120 108zM608 932l156 -101q88 43 137 128.5t49 185.5q0 106 -61 172.5t-170 66.5q-105 0 -173.5 -63t-68.5 -172
q0 -133 131 -217z" />
    <glyph glyph-name="nine" unicode="9" horiz-adv-x="1189" 
d="M88 35q266 56 459 213t280 393q-142 -129 -323 -129q-178 0 -281.5 107.5t-103.5 273.5q0 161 79 291.5t210.5 202t287.5 71.5q224 0 355 -140.5t131 -363.5q0 -183 -80 -352t-219.5 -298t-339 -215t-428.5 -107zM639 623q119 0 207 67q49 151 49 336q0 161 -49.5 258.5
t-155.5 97.5q-87 0 -154 -64.5t-101 -165.5t-34 -218q0 -139 59 -225t179 -86z" />
    <glyph glyph-name="colon" unicode=":" horiz-adv-x="479" 
d="M-20 158q0 75 52 126.5t126 51.5t126 -51.5t52 -126.5q0 -76 -52 -127t-126 -51t-126 51t-52 127zM119 821q0 76 51 128t125 52t126 -52t52 -128q0 -74 -52 -125t-126 -51t-125 50.5t-51 125.5z" />
    <glyph glyph-name="semicolon" unicode=";" horiz-adv-x="479" 
d="M178 4h-72q-55 11 -88.5 48.5t-33.5 99.5q0 69 47 112t116 43q83 0 129 -53.5t46 -144.5q0 -150 -116.5 -249.5t-295.5 -105.5v68q116 14 187.5 59t80.5 123zM119 821q0 76 51 128t125 52t126 -52t52 -128q0 -74 -52 -125t-126 -51t-125 50.5t-51 125.5z" />
    <glyph glyph-name="less" unicode="&#x3c;" horiz-adv-x="858" 
d="M125 745l6 19l725 393l-33 -153l-483 -254l375 -256l-31 -140z" />
    <glyph glyph-name="equal" unicode="=" horiz-adv-x="1185" 
d="M129 553l27 119h903l-27 -119h-903zM190 842l27 123h903l-26 -123h-904z" />
    <glyph glyph-name="greater" unicode="&#x3e;" horiz-adv-x="858" 
d="M807 764l-4 -19l-725 -391l33 152l483 254l-375 258l29 139z" />
    <glyph glyph-name="question" unicode="?" horiz-adv-x="933" 
d="M563 938q115 66 170 128t55 159q0 77 -42.5 123.5t-118.5 46.5q-84 0 -131 -60t-47 -159q0 -55 10 -97h-199q-51 41 -51 117q0 121 114 191.5t291 70.5q191 0 299.5 -89t108.5 -239q0 -71 -21.5 -127.5t-65.5 -102t-93.5 -78.5t-124.5 -72q-126 -65 -188 -121t-62 -135
q0 -22 12 -62h-45q-112 71 -112 201q0 94 57.5 163.5t183.5 141.5zM201 150q0 72 49.5 123t118.5 51q70 0 120 -51t50 -123q0 -69 -50 -119.5t-120 -50.5q-69 0 -118.5 50.5t-49.5 119.5z" />
    <glyph glyph-name="at" unicode="@" horiz-adv-x="1775" 
d="M1223 156q-77 0 -128.5 27t-73 74t-25 111t15.5 138q-161 -350 -355 -350q-90 0 -145 69t-55 191q0 144 72.5 284t196 230t259.5 90q115 0 186 -78l148 72h55l-65 -183l-125 -407q-54 -203 63 -203q94 0 168 76.5t113 201t39 269.5q0 122 -37 226t-107 182t-179 122.5
t-245 44.5t-256.5 -46t-211 -127t-156.5 -189.5t-99.5 -236t-33.5 -263.5q0 -202 85 -350.5t232 -223.5t338 -75q168 0 292 35.5t265 116.5l23 -35q-113 -96 -271 -151.5t-338 -55.5q-229 0 -405.5 85t-278.5 253.5t-102 398.5q0 147 43 286.5t125 256t193 204.5
t254.5 137.5t301.5 49.5q166 0 302.5 -49t227.5 -135t140 -204.5t49 -256.5q0 -129 -40.5 -243.5t-108.5 -195t-158.5 -127t-187.5 -46.5zM752 299q60 0 129.5 80.5t130 215t100.5 292.5q-17 34 -48.5 51.5t-68.5 17.5q-85 0 -161 -87t-117 -208t-41 -233q0 -58 20 -93.5
t56 -35.5z" />
    <glyph glyph-name="A" unicode="A" horiz-adv-x="1476" 
d="M950 242l-45 231h-551l-137 -229q-37 -66 -37 -101q0 -36 37.5 -52t122.5 -19l-14 -72h-430l14 72q49 5 80.5 20.5t54.5 54.5l698 1151l-30 150h307l250 -1301q7 -38 32.5 -54t73.5 -21l-16 -72h-615l15 72q38 1 63.5 3.5t53 10t43 19t26 31.5t10.5 48q0 20 -6 58z
M774 1176l-368 -615h483z" />
    <glyph glyph-name="B" unicode="B" horiz-adv-x="1353" 
d="M702 696h-141l-102 -475q-18 -81 14.5 -110t128.5 -29h21q154 0 254 96.5t100 278.5q0 109 -70.5 174t-204.5 65zM801 1356h-101l-120 -570h100q166 0 266.5 87.5t100.5 265.5q0 217 -246 217zM-51 0l16 72q112 12 144 35t49 106l217 1012q6 30 8 50t-3 35.5t-13 24
t-28 15t-40.5 9.5t-58.5 7l14 72h659q213 0 316.5 -78.5t103.5 -214.5q0 -78 -27.5 -143t-72.5 -110t-104.5 -77t-123 -48t-128.5 -19q177 -6 287 -93t110 -221q0 -140 -84.5 -240t-221 -147t-309.5 -47h-710z" />
    <glyph glyph-name="C" unicode="C" horiz-adv-x="1361" 
d="M965 1458q134 0 249 -33t189 -90l-66 -327h-75q-2 179 -75 273.5t-214 94.5q-92 0 -175 -39.5t-145 -106.5t-111.5 -153.5t-80.5 -183t-47.5 -192.5t-16.5 -185q0 -218 74 -334t221 -116q153 0 274 102t222 319h88l-115 -389q-213 -118 -479 -118q-282 0 -440 157
t-158 422q0 139 41.5 272.5t121 246t186 198t244 134t288.5 48.5z" />
    <glyph glyph-name="D" unicode="D" horiz-adv-x="1513" 
d="M584 82h24q161 0 297 111t213.5 296.5t77.5 401.5q0 229 -99 347t-309 118h-88l-239 -1129q-19 -87 9 -116t114 -29zM586 0h-637l16 72q112 12 144 35t49 106l217 1012q6 30 8 50t-3 35.5t-13 24t-28 15t-40.5 9.5t-58.5 7l16 72h578q305 0 489 -154t184 -424
q0 -193 -72 -355.5t-196.5 -272.5t-293 -171t-359.5 -61z" />
    <glyph glyph-name="E" unicode="E" horiz-adv-x="1308" 
d="M1092 0h-1143l16 72q112 12 144 35t49 106l217 1012q6 30 8 50t-3 35.5t-13 24t-28 15t-40.5 9.5t-58.5 7l16 72h1122l-69 -369h-58q-36 172 -84 229.5t-168 57.5h-299l-120 -570h260q66 0 104.5 42.5t77.5 146.5h72l-99 -465h-73q6 102 -15 144t-86 42h-260l-102 -475
q-18 -80 18.5 -109.5t134.5 -29.5h129q50 0 91.5 12t75.5 31.5t78.5 65t81.5 90t103 129.5h72z" />
    <glyph glyph-name="F" unicode="F" horiz-adv-x="1210" 
d="M659 0h-710l16 72q112 12 144 35t49 106l217 1012q6 30 8 50t-3 35.5t-13 24t-28 15t-40.5 9.5t-58.5 7l16 72h1094l-72 -381h-57q-25 171 -78.5 235t-175.5 64h-267l-125 -586h230q66 0 103 43t75 148h74l-101 -474h-73q8 104 -11.5 147.5t-85.5 43.5h-229l-96 -451
q-18 -84 26 -114t189 -39z" />
    <glyph glyph-name="G" unicode="G" horiz-adv-x="1476" 
d="M715 66q132 0 213 55l76 340q6 30 8 50t-3 35.5t-13 24t-28.5 15.5t-41 10t-58.5 8l17 70h594l-17 -70q-98 -7 -128 -33t-48 -110l-72 -340q-126 -70 -245.5 -105.5t-268.5 -35.5q-285 0 -450.5 155.5t-165.5 417.5q0 174 68 338.5t184 289.5t283.5 201t355.5 76
q132 0 250.5 -34t193.5 -89l-67 -327h-74q-2 178 -76.5 273t-218.5 95q-92 0 -176 -40t-146.5 -107.5t-113.5 -155t-83.5 -184.5t-49.5 -194t-17 -185q0 -214 84 -329t234 -115z" />
    <glyph glyph-name="H" unicode="H" horiz-adv-x="1658" 
d="M158 213l217 1012q6 30 8 50t-3 35.5t-13 24t-28 15t-40.5 9.5t-58.5 7l16 72h627l-15 -72q-112 -12 -143.5 -34.5t-50.5 -106.5l-94 -441h616l94 441q6 30 8 50t-3 35.5t-13 24t-28 15t-40.5 9.5t-58.5 7l16 72h629l-16 -72q-112 -12 -144.5 -34.5t-50.5 -106.5
l-215 -1012q-6 -30 -8.5 -50t2.5 -35.5t12.5 -24t27.5 -15t40.5 -9.5t58.5 -7l-14 -72h-629l17 72q111 12 143 35t49 106l103 473h-617l-100 -473q-6 -30 -8.5 -50t2.5 -35.5t12.5 -24t27.5 -15t40.5 -9.5t58.5 -7l-17 -72h-626l16 72q111 12 143.5 35t49.5 106z" />
    <glyph glyph-name="I" unicode="I" horiz-adv-x="743" 
d="M158 213l217 1012q6 30 8 50t-3 35.5t-13 24t-28 15t-40.5 9.5t-58.5 7l16 72h627l-15 -72q-112 -12 -143.5 -34.5t-50.5 -106.5l-215 -1012q-6 -30 -8.5 -50t2.5 -35.5t12.5 -24t27.5 -15t40.5 -9.5t58.5 -7l-17 -72h-626l16 72q112 12 144 35t49 106z" />
    <glyph glyph-name="J" unicode="J" horiz-adv-x="1105" 
d="M569 342l189 883q6 30 8.5 50t-2.5 35.5t-12.5 24t-27.5 15t-40.5 9.5t-58.5 7l14 72h629l-17 -72q-112 -12 -143.5 -34.5t-48.5 -106.5l-176 -819q-50 -227 -187 -326.5t-370 -99.5q-171 0 -274 66t-103 175q0 65 32 116.5t89 82.5h196q-51 -120 -51 -209
q0 -71 33 -114.5t98 -43.5q87 0 139.5 69.5t83.5 219.5z" />
    <glyph glyph-name="K" unicode="K" horiz-adv-x="1454" 
d="M862 817l305 -608q40 -73 80.5 -103t114.5 -34l-14 -72h-379q-23 23 -48.5 61.5t-39.5 63.5t-45 82l-250 500l604 520q24 21 33.5 30.5t21.5 27.5t12 34q0 25 -26 34.5t-109 12.5l15 72h467l-15 -72q-65 -3 -108.5 -22.5t-98.5 -67.5zM674 1225l-215 -1012
q-6 -30 -8.5 -50t2.5 -35.5t12.5 -24t27.5 -15t40.5 -9.5t58.5 -7l-17 -72h-626l16 72q112 12 144 35t49 106l217 1012q6 30 8 50t-3 35.5t-13 24t-28 15t-40.5 9.5t-58.5 7l14 72h629l-15 -72q-112 -12 -143.5 -34.5t-50.5 -106.5z" />
    <glyph glyph-name="L" unicode="L" horiz-adv-x="1261" 
d="M674 1225l-215 -1004q-17 -81 17.5 -110t133.5 -29h88q111 0 203 77.5t246 284.5h70l-164 -444h-1104l16 72q112 12 144 35t49 106l217 1012q6 30 8 50t-3 35.5t-13 24t-28 15t-40.5 9.5t-58.5 7l16 72h627l-17 -72q-111 -12 -143 -35t-49 -106z" />
    <glyph glyph-name="M" unicode="M" horiz-adv-x="1910" 
d="M1356 233l78 867l-625 -1100h-94l-180 1100l-287 -862q-30 -94 -0.5 -127t155.5 -39l-14 -72h-475l16 72q90 5 130.5 29.5t64.5 93.5l344 1022q19 81 -11.5 112.5t-129.5 36.5l14 72h449q-7 -52 6 -125l145 -893l504 895q44 79 57 123h451l-15 -72q-100 -5 -143.5 -36.5
t-60.5 -112.5l-93 -1022q-3 -71 28 -94.5t118 -28.5l-16 -72h-648l17 72q66 4 100 10t60.5 23.5t37.5 46.5t17 81z" />
    <glyph glyph-name="N" unicode="N" horiz-adv-x="1519" 
d="M1196 442l164 783q17 81 -22 108t-164 33l14 72h491l-16 -72q-112 -12 -144.5 -34.5t-50.5 -106.5l-260 -1229h-96l-649 1137l-195 -920q-17 -81 22.5 -108t164.5 -33l-15 -72h-491l16 72q112 12 144.5 34.5t50.5 106.5l219 1030q-39 71 -66 95t-88 28l17 72h403z" />
    <glyph glyph-name="O" unicode="O" horiz-adv-x="1488" 
d="M915 1458q135 0 244 -44.5t179 -121.5t107.5 -179t37.5 -220q0 -132 -37 -263.5t-110 -248t-172 -206.5t-232 -142.5t-281 -52.5q-135 0 -244 44.5t-178.5 121.5t-107 179t-37.5 220q0 132 37 263.5t110 248t171.5 206.5t231.5 142.5t281 52.5zM909 1374
q-79 0 -151 -42.5t-126.5 -114.5t-99.5 -164t-73.5 -193t-44 -199.5t-15.5 -185.5q0 -123 25 -212.5t84 -144.5t149 -55q79 0 151 43t126.5 114.5t99.5 164t73.5 193.5t44 199.5t15.5 185.5q0 189 -62 300t-196 111z" />
    <glyph glyph-name="P" unicode="P" horiz-adv-x="1294" 
d="M256 1438h616q235 0 360.5 -101.5t125.5 -263.5q0 -122 -51.5 -218t-143.5 -158t-216 -94t-273 -32h-139l-74 -344q-19 -85 25 -115t190 -38l-17 -74h-710l16 72q112 12 144 35t49 106l217 1012q6 30 8 50t-3 35.5t-13 24t-28 15t-40.5 9.5t-58.5 7zM700 1356l-147 -697
h90q183 0 301.5 107t118.5 307q0 131 -72 207t-211 76h-80z" />
    <glyph glyph-name="Q" unicode="Q" horiz-adv-x="1488" 
d="M915 1458q135 0 244 -44.5t179 -121.5t107.5 -179t37.5 -220q0 -152 -50 -301.5t-139 -274t-223.5 -213t-292.5 -114.5l113 -123q58 -69 111.5 -101.5t138.5 -35.5l-6 -29q-95 -74 -230 -74q-191 0 -276 178l-86 183q-218 33 -338.5 186t-120.5 371q0 132 37 263.5
t110 248t171.5 206.5t231.5 142.5t281 52.5zM909 1374q-79 0 -151 -42.5t-126.5 -114.5t-99.5 -164t-73.5 -193t-44 -199.5t-15.5 -185.5q0 -92 14 -166.5t43.5 -133.5t80 -91.5t118.5 -32.5q94 0 178.5 62t144 160.5t103.5 220.5t65 243t21 226q0 189 -62 300t-196 111z
" />
    <glyph glyph-name="R" unicode="R" horiz-adv-x="1456" 
d="M791 1354h-91l-139 -654h86q183 0 296.5 102t113.5 294q0 118 -65 188t-201 70zM543 612l-86 -399q-6 -30 -8 -50t3 -35.5t13 -24t28 -15t40.5 -9.5t58.5 -7l-17 -72h-626l16 72q112 12 144 35t49 106l217 1012q6 30 8 50t-3 35.5t-13 24t-28 15t-40.5 9.5t-58.5 7l16 72
h655q118 0 207 -27.5t141 -75.5t77.5 -108t25.5 -131q0 -78 -29.5 -147t-75 -116t-105 -85t-113 -58.5t-105.5 -32.5l221 -417q52 -95 95 -131t118 -37l-14 -72h-371q-36 30 -65.5 77.5t-65.5 123.5l-193 411h-116z" />
    <glyph glyph-name="S" unicode="S" horiz-adv-x="1142" 
d="M1055 455q0 -90 -30.5 -167t-84 -133t-126 -96t-157.5 -59.5t-178 -19.5q-153 0 -276.5 48t-190.5 111l60 346h73q6 -200 97.5 -309.5t255.5 -109.5q128 0 205 68t77 190q0 98 -59 157.5t-213 134.5q-150 73 -227.5 163.5t-77.5 224.5q0 205 146 329.5t388 124.5
q125 0 235 -37.5t181 -99.5l-59 -305h-72q-3 360 -301 360q-115 0 -185.5 -71t-70.5 -181q0 -90 50 -144t175 -114q82 -38 141 -75t113.5 -87t82.5 -112.5t28 -136.5z" />
    <glyph glyph-name="T" unicode="T" horiz-adv-x="1394" 
d="M1028 1364l-246 -1153q-6 -30 -7 -50t6.5 -35t16.5 -23.5t33.5 -14.5t45.5 -9t63 -7l-16 -72h-670l16 72q122 12 158.5 34.5t54.5 104.5l244 1153h-104q-30 0 -55 -4t-50.5 -16t-45.5 -25t-46 -41t-46.5 -52t-53 -70.5t-58 -85t-69.5 -105.5h-70l133 473h1264l-72 -473
h-65q-44 220 -65 278q-32 85 -88 108q-32 13 -81 13h-127z" />
    <glyph glyph-name="U" unicode="U" horiz-adv-x="1492" 
d="M1206 532l148 693q6 30 8 50t-4.5 35.5t-15.5 24t-31.5 15t-45.5 9.5t-65 7l14 72h457l-14 -72q-112 -12 -144.5 -34.5t-50.5 -106.5l-155 -729q-54 -258 -212 -387t-397 -129q-277 0 -417.5 157.5t-83.5 429.5l141 658q7 30 9 50t-3 35.5t-13 24t-28 15t-41 9.5t-59 7
l16 72h629l-17 -72q-112 -12 -143.5 -34.5t-50.5 -106.5l-143 -672q-40 -192 34 -313t250 -121q174 0 277.5 97.5t150.5 315.5z" />
    <glyph glyph-name="V" unicode="V" horiz-adv-x="1421" 
d="M788 365l500 829q43 71 43 106q0 34 -34 48.5t-119 17.5l16 72h420l-17 -72q-51 -7 -82 -22.5t-55 -53.5l-796 -1302h-80l-291 1302q-8 39 -32 54t-71 22l17 72h602l-16 -72q-101 -3 -147 -25t-46 -81q0 -24 10 -66z" />
    <glyph glyph-name="W" unicode="W" horiz-adv-x="1945" 
d="M1303 1186l88 -783l426 775q43 84 43 118t-29.5 50.5t-114.5 19.5l15 72h407l-16 -72q-52 -7 -83 -22t-52 -54l-732 -1302h-81l-107 843l-485 -843h-84l-205 1302q-7 62 -103 76l17 72h577l-14 -72q-96 -6 -132 -28.5t-36 -75.5q0 -38 6 -76l115 -789l328 576l-39 317
q-4 36 -28.5 52.5t-68.5 23.5l15 72h549l-15 -72q-97 -6 -132.5 -29.5t-35.5 -79.5q0 -31 7 -71z" />
    <glyph glyph-name="X" unicode="X" horiz-adv-x="1433" 
d="M848 229l-174 385l-373 -389q-30 -33 -41.5 -52t-11.5 -40q0 -32 35 -45.5t114 -15.5l-14 -72h-479l14 72q62 3 101.5 21.5t82.5 64.5l531 547l-258 575q-20 43 -52 63t-83 23l16 72h618l-14 -72q-81 0 -120.5 -14t-39.5 -52q0 -24 29 -96l135 -305l299 313q56 66 56 97
q0 32 -32 44.5t-108 12.5l15 72h465l-15 -72q-61 -3 -103.5 -23t-84.5 -63l-453 -467l289 -647q21 -49 53.5 -70t85.5 -24l-14 -72h-633l14 72q47 2 73.5 4.5t53 9.5t38 21t11.5 36q0 30 -26 86z" />
    <glyph glyph-name="Y" unicode="Y" horiz-adv-x="1347" 
d="M838 557l-74 -346q-6 -30 -7.5 -50t6 -35t16.5 -23t33 -14.5t45.5 -9.5t62.5 -7l-17 -72h-657l14 72q123 12 159.5 34.5t53.5 104.5l72 342l-252 737q-13 39 -35.5 54.5t-67.5 21.5l17 72h596l-17 -72q-101 -3 -139.5 -23t-38.5 -65q0 -30 21 -98l178 -512l387 516
q63 86 63 119q0 32 -33 47t-114 16l14 72h416l-16 -72q-89 -12 -135 -76z" />
    <glyph glyph-name="Z" unicode="Z" horiz-adv-x="1280" 
d="M324 82h350q43 0 77.5 6.5t70.5 25t65.5 42t71.5 68.5t80 92t98 124h69l-162 -440h-1097l10 53l1061 1303h-338q-44 0 -77.5 -6t-64.5 -24t-55 -39t-55.5 -62t-58.5 -80.5t-71 -107.5q-2 -3 -2.5 -4t-2 -3t-2.5 -4h-68l103 412h1069l-13 -54z" />
    <glyph glyph-name="bracketleft" unicode="[" horiz-adv-x="665" 
d="M565 1386l-315 -1484q-4 -20 -5 -35.5t3.5 -27.5t10 -20t20.5 -14.5t27.5 -10t37.5 -7t45.5 -5t56.5 -3.5l-12 -68h-411l395 1866h411l-14 -68q-49 -3 -75 -5.5t-57 -7.5t-46.5 -12.5t-31.5 -20.5t-25 -31.5t-15 -45.5z" />
    <glyph glyph-name="backslash" unicode="\" horiz-adv-x="755" 
d="M467 -289l-197 1866h113l195 -1866h-111z" />
    <glyph glyph-name="bracketright" unicode="]" horiz-adv-x="665" 
d="M160 -98l315 1484q5 23 4.5 40t-4 29t-16.5 20.5t-25.5 14t-39.5 9.5t-49.5 5.5t-63.5 4.5l12 68h412l-396 -1866h-411l14 68q49 3 75 5.5t57 7.5t46.5 12.5t31.5 20.5t24 31.5t14 45.5z" />
    <glyph glyph-name="asciicircum" unicode="^" horiz-adv-x="952" 
d="M760 1577l213 -594h-117l-174 502l-387 -502h-129l463 594h131z" />
    <glyph glyph-name="underscore" unicode="_" horiz-adv-x="825" 
d="M641 -254h-741l22 119h744z" />
    <glyph glyph-name="grave" unicode="`" horiz-adv-x="851" 
d="M330 1563h274l90 -340h-69l-295 325v15z" />
    <glyph glyph-name="a" unicode="a" horiz-adv-x="1226" 
d="M403 174q104 0 236.5 213.5t220.5 548.5q-14 43 -49 69.5t-80 26.5q-79 0 -156 -66t-133 -168t-90.5 -229t-34.5 -245q0 -150 86 -150zM666 147q0 41 20.5 132.5t46.5 171.5q-103 -215 -221.5 -343t-243.5 -128q-109 0 -170 83t-61 230q0 150 55 298.5t145 261.5t213 183
t252 70q139 0 230 -94l192 102h60l-78 -252l-143 -596q-19 -70 -19 -86q0 -30 29 -30q54 0 174 149l41 -33q-108 -154 -186.5 -220t-172.5 -66q-77 0 -120 45t-43 122z" />
    <glyph glyph-name="b" unicode="b" horiz-adv-x="1200" 
d="M666 1604l-250 -1012q47 99 107 189.5t128 164t142.5 117t142.5 43.5q110 0 168.5 -81t58.5 -228q0 -159 -59 -310t-154.5 -261.5t-222 -178t-256.5 -67.5q-141 0 -261.5 67.5t-160.5 179.5l295 1186l-123 62l10 43l394 86h41zM793 913q-53 0 -125 -63.5t-141.5 -166
t-130 -245.5t-89.5 -288q11 -47 52.5 -72t91.5 -25q81 0 160.5 69t136.5 173.5t92.5 229.5t36.5 235q0 153 -84 153z" />
    <glyph glyph-name="c" unicode="c" horiz-adv-x="913" 
d="M641 1034q-83 0 -158.5 -101t-118 -246.5t-42.5 -283.5q0 -123 45.5 -196.5t138.5 -73.5q77 0 140 42.5t140 137.5l39 -37q-80 -133 -192 -214.5t-248 -81.5q-160 0 -252 104.5t-92 273.5q0 136 51 271.5t136.5 240.5t206.5 170.5t251 65.5q118 0 187 -48t69 -138
q0 -60 -35.5 -99t-97.5 -53h-59q19 266 -109 266z" />
    <glyph glyph-name="d" unicode="d" horiz-adv-x="1257" 
d="M406 174q105 0 243.5 215.5t222.5 546.5q-15 43 -51.5 69.5t-81.5 26.5q-107 0 -206.5 -112t-156.5 -273.5t-57 -312.5q0 -160 87 -160zM897 1044l90 369l-121 62l8 43l394 86h43l-328 -1338q-18 -67 -18 -86q0 -30 28 -30q54 0 174 149l41 -33q-108 -154 -186 -220
t-172 -66q-77 0 -120.5 45t-43.5 122q0 41 23 140.5t51 179.5q-67 -138 -145 -245t-169 -174.5t-176 -67.5q-110 0 -171.5 83t-61.5 230q0 150 56.5 298.5t148 261.5t215.5 183t252 70q112 0 188 -62z" />
    <glyph glyph-name="e" unicode="e" horiz-adv-x="950" 
d="M961 887q0 -72 -35 -130.5t-90.5 -99t-142 -74t-172.5 -55t-199 -41.5q-3 -35 -3 -63q0 -137 57 -211t159 -74q81 0 154 46t149 139l43 -35q-102 -154 -219.5 -231.5t-262.5 -77.5q-162 0 -259 107t-97 284q0 134 51 267t135.5 236.5t204.5 167.5t250 64q135 0 206 -62
t71 -157zM649 1032q-73 0 -141.5 -73.5t-114 -184.5t-63.5 -231q207 47 309 141t102 238q0 50 -22.5 80t-69.5 30z" />
    <glyph glyph-name="f" unicode="f" horiz-adv-x="661" 
d="M80 965l16 65l160 39q28 114 73.5 209.5t108.5 169t147.5 115t180.5 41.5q107 0 173.5 -44t66.5 -126q0 -51 -30.5 -87t-84.5 -51h-94q20 234 -82 234q-70 0 -113.5 -127t-54.5 -344h229l-22 -94h-219l-134 -590q-66 -295 -148 -475t-181.5 -259t-231.5 -79
q-100 0 -163.5 40t-63.5 109q0 62 40 98t99 44h43q2 -101 26.5 -160.5t67.5 -59.5q37 0 63 38t52.5 135.5t63.5 291.5l165 867h-153z" />
    <glyph glyph-name="g" unicode="g" horiz-adv-x="1026" 
d="M967 795q0 -127 -69 -226t-182.5 -150.5t-250.5 -51.5q-85 0 -146 20q-63 -37 -63 -78q0 -16 11.5 -28t23.5 -16.5t37 -12.5l342 -90q129 -33 200.5 -92t71.5 -164q0 -113 -80 -196.5t-212.5 -125t-297.5 -41.5q-135 0 -252 34t-190.5 99.5t-73.5 149.5q0 172 314 227
q-70 54 -70 133q0 136 192 222q-78 40 -120.5 111t-42.5 163q0 125 68 223t181 149.5t248 51.5q89 0 170 -33l369 12l-35 -122h-96l-117 18q70 -82 70 -186zM567 -94l-381 112q-149 -57 -149 -180q0 -97 91.5 -157t240.5 -60q155 0 243 45t88 117q0 49 -30 74t-103 49z
M709 856q0 81 -26.5 131.5t-84.5 50.5q-92 0 -162.5 -127.5t-70.5 -296.5q0 -81 26 -130.5t84 -49.5q60 0 114.5 58t87 156t32.5 208z" />
    <glyph glyph-name="h" unicode="h" horiz-adv-x="1222" 
d="M680 1604l-250 -1002q110 212 261.5 358t291.5 146q147 0 147 -160q0 -47 -14 -102l-155 -578q-17 -63 -17 -86q0 -30 29 -30q54 0 174 149l41 -33q-107 -153 -186.5 -219.5t-172.5 -66.5q-78 0 -122.5 45.5t-44.5 119.5q0 61 30 172l137 494q13 54 13 66q0 21 -7.5 31
t-27.5 10q-40 0 -103 -50.5t-128 -133t-126 -203t-92 -244.5l-71 -287h-279l350 1413l-122 62l10 43l393 86h41z" />
    <glyph glyph-name="i" unicode="i" horiz-adv-x="632" 
d="M485 1231q-69 0 -113 43.5t-44 105.5q0 70 48 119t122 49q69 0 113 -43t44 -106q0 -69 -48.5 -118.5t-121.5 -49.5zM86 315l150 590l-117 72l10 41l395 88h43l-211 -840q-18 -67 -18 -86q0 -30 29 -30t70 35t106 114l39 -33q-105 -153 -184.5 -219.5t-172.5 -66.5
q-79 0 -121.5 45t-42.5 120q0 54 25 170z" />
    <glyph glyph-name="j" unicode="j" horiz-adv-x="567" 
d="M569 1106l-204 -862q-85 -361 -217.5 -521.5t-333.5 -160.5q-99 0 -162.5 40t-63.5 109q0 62 40 98t98 44h43q3 -102 27 -161t67 -59q51 0 81.5 73t84.5 294l211 905l-115 72l8 41l393 88h43zM477 1231q-69 0 -113.5 43.5t-44.5 105.5q0 70 48 119t122 49q69 0 113.5 -43
t44.5 -106q0 -69 -48.5 -118.5t-121.5 -49.5z" />
    <glyph glyph-name="k" unicode="k" horiz-adv-x="1155" 
d="M668 715l176 -436q34 -84 49 -102q18 -21 43 -21q29 0 59 28t86 97l41 -33q-97 -144 -168 -206t-157 -62q-78 0 -124 50t-83 154l-133 387l356 406q62 69 110 99t105 30q71 0 109.5 -42t38.5 -103q0 -118 -138 -170h-18q3 58 -22 95.5t-76 37.5q-43 0 -76 -23t-82 -78z
M287 0h-279l350 1413l-120 62l10 43l391 86h43z" />
    <glyph glyph-name="l" unicode="l" horiz-adv-x="614" 
d="M668 1604l-326 -1338q-18 -67 -18 -86q0 -30 28 -30q56 0 176 149l39 -33q-105 -153 -184 -219.5t-172 -66.5q-78 0 -121 45.5t-43 119.5q0 70 27 170l270 1098l-121 62l10 43l392 86h43z" />
    <glyph glyph-name="m" unicode="m" horiz-adv-x="1826" 
d="M983 1106q147 0 147 -156q0 -87 -79 -348q53 103 114.5 191.5t130.5 159.5t144.5 112t146.5 41q76 0 113 -42t37 -118q0 -44 -15 -102l-155 -578q-19 -70 -19 -86q0 -30 29 -30t70 35t106 114l39 -33q-105 -153 -184 -219.5t-172 -66.5q-80 0 -124 45.5t-44 119.5
q0 68 28 172l140 494q12 50 12 66q0 41 -37 41q-38 0 -98 -51.5t-122.5 -134.5t-120.5 -203t-89 -242l-74 -287h-278l202 811q13 54 13 66q0 41 -37 41q-38 0 -98 -51.5t-122.5 -134.5t-120.5 -203t-89 -242l-74 -287h-278l227 905l-117 72l10 41l396 88h43l-138 -504
q112 217 255 360.5t282 143.5z" />
    <glyph glyph-name="n" unicode="n" horiz-adv-x="1239" 
d="M584 1106l-138 -506q110 214 261.5 360t291.5 146q76 0 113 -42t37 -118q0 -34 -14 -102l-156 -578q-18 -67 -18 -86q0 -30 28 -30q54 0 174 149l41 -33q-108 -154 -186 -220t-172 -66q-78 0 -122 45.5t-44 119.5q0 65 29 172l139 494q12 50 12 66q0 41 -37 41
q-31 0 -77.5 -31.5t-100 -91t-104 -135.5t-95 -174.5t-69.5 -198.5l-74 -287h-278l227 905l-117 72l10 41l396 88h43z" />
    <glyph glyph-name="o" unicode="o" horiz-adv-x="1085" 
d="M313 285q0 -234 123 -234q64 0 127 76.5t108 190t73 244.5t28 239q0 233 -123 233q-64 0 -127 -76.5t-108 -190t-73 -244.5t-28 -238zM1044 702q0 -131 -48 -260.5t-129 -232t-198.5 -166t-246.5 -63.5q-174 0 -277.5 106t-103.5 295q0 104 30.5 209.5t87.5 197.5
t132.5 163.5t172.5 113t200 41.5q174 0 277 -107t103 -297z" />
    <glyph glyph-name="p" unicode="p" horiz-adv-x="1222" 
d="M584 1106l-140 -516q63 135 144 248.5t180.5 190.5t189.5 77q109 0 168.5 -81t59.5 -228q0 -158 -59 -310t-152.5 -262t-215 -177.5t-241.5 -67.5q-135 0 -196 83l-82 -321q-11 -37 -11 -47q0 -34 36.5 -46.5t137.5 -15.5l-14 -67h-594l12 67q76 5 106.5 21.5t43.5 69.5
l295 1181l-115 72l8 41l396 88h43zM815 913q-70 0 -164.5 -102.5t-181 -280t-127.5 -370.5q17 -44 54 -70.5t83 -26.5q80 0 158 67.5t134 170t91 226t35 233.5q0 153 -82 153z" />
    <glyph glyph-name="q" unicode="q" horiz-adv-x="1187" 
d="M1126 862l-290 -1124q-9 -40 -9 -47q0 -32 26.5 -43.5t90.5 -14.5l-14 -67h-580l15 67q107 6 141 22t49 73l199 731q-101 -212 -229.5 -345.5t-254.5 -133.5q-110 0 -171.5 83t-61.5 230q0 150 56.5 298.5t148 261.5t215.5 183t252 70q154 0 245 -94l189 102h59zM406 174
q105 0 243.5 215.5t222.5 546.5q-15 43 -51.5 69.5t-81.5 26.5q-107 0 -206.5 -112t-156.5 -273.5t-57 -312.5q0 -160 87 -160z" />
    <glyph glyph-name="r" unicode="r" horiz-adv-x="905" 
d="M584 1106l-95 -344l-90 -277q66 136 112.5 225t95.5 171t88.5 127t82 71.5t84.5 26.5q60 0 93.5 -37.5t33.5 -99.5q0 -75 -44.5 -131.5t-117.5 -87.5h-16q0 90 -68 90t-149.5 -104.5t-159.5 -299t-131 -436.5h-278l227 905l-117 72l10 41l396 88h43z" />
    <glyph glyph-name="s" unicode="s" horiz-adv-x="847" 
d="M395 59q66 0 101.5 32.5t35.5 92.5q0 42 -40.5 94t-98 104.5t-114.5 109.5t-97.5 127t-40.5 139q0 143 116 245.5t286 102.5q126 0 204 -49.5t78 -138.5q0 -49 -36.5 -84.5t-83.5 -49.5h-13q-32 106 -92 173t-143 67q-57 0 -89 -32t-32 -87q0 -31 30 -72.5t74.5 -82.5
t97 -92t97 -99.5t74.5 -108t30 -114.5q0 -103 -56.5 -185t-149 -126.5t-201.5 -44.5q-153 0 -249.5 64.5t-96.5 164.5q0 54 32.5 95.5t85.5 62.5h15q30 -142 102 -225t174 -83z" />
    <glyph glyph-name="t" unicode="t" horiz-adv-x="729" 
d="M528 965l-166 -666q-16 -60 -16 -102q0 -56 51 -56q49 0 105.5 41.5t144.5 141.5l41 -33q-112 -158 -215.5 -234.5t-210.5 -76.5q-88 0 -140 52.5t-52 135.5q0 62 20 149l162 648h-131l14 57q121 38 228.5 122t191.5 195h66l-68 -280h227l-24 -94h-228z" />
    <glyph glyph-name="u" unicode="u" horiz-adv-x="1241" 
d="M815 809l64 262l290 16l-202 -821q-19 -74 -19 -86q0 -30 29 -30t70 35t106 114l39 -33q-105 -153 -184 -219.5t-172 -66.5q-79 0 -122.5 45t-43.5 122q0 76 69 326q-48 -100 -105.5 -187t-122 -156.5t-135 -109.5t-136.5 -40q-84 0 -131.5 51.5t-47.5 130.5q0 42 17 112
l162 631l-117 72l10 41l395 88h43l-206 -805q-17 -66 -17 -90q0 -49 47 -49q40 0 98.5 51.5t118 136.5t115.5 208t88 251z" />
    <glyph glyph-name="v" unicode="v" horiz-adv-x="1001" 
d="M160 918l-117 65l12 37l346 86h23l59 -864l187 227q149 176 149 328q0 84 -51.5 125.5t-140.5 35.5l2 25q34 50 88.5 86.5t120.5 36.5q91 0 133.5 -55t42.5 -136q0 -101 -64.5 -208t-199.5 -258l-420 -463h-86z" />
    <glyph glyph-name="w" unicode="w" horiz-adv-x="1509" 
d="M700 918l-110 61l10 37l342 90h21l57 -848l164 211q143 175 143 328q0 84 -51.5 125.5t-140.5 35.5l2 25q34 50 88.5 86.5t120.5 36.5q91 0 133.5 -55t42.5 -136q0 -69 -35 -147.5t-85 -146.5t-138 -172l-398 -463h-82l-47 514l-411 -514h-82l-84 932l-117 65l12 37
l346 86h23l57 -832l248 314z" />
    <glyph glyph-name="x" unicode="x" horiz-adv-x="1138" 
d="M313 293l119 199l-108 421l-156 74l12 39l352 80h25l96 -393l117 186q44 71 78 112.5t78.5 68t95.5 26.5q64 0 100.5 -38t36.5 -97q0 -113 -145 -168h-17q6 123 -73 123q-36 0 -67 -30t-79 -103l-104 -162l92 -365q6 -24 8 -32.5t7 -24.5t8.5 -22t10 -14t14 -10.5
t17.5 -2.5q38 0 81.5 30.5t109.5 100.5l35 -35q-113 -148 -200 -212t-171 -64q-71 0 -109 47.5t-63 146.5l-59 229l-129 -217q-62 -106 -121.5 -156t-138.5 -50q-64 0 -103 40t-39 101q0 118 137 174h19q-4 -63 18.5 -98t61.5 -35t72 28.5t81 102.5z" />
    <glyph glyph-name="y" unicode="y" horiz-adv-x="1042" 
d="M154 918l-121 65l12 37l342 86h23l165 -969l58 82q134 200 181.5 322.5t47.5 232.5q0 97 -56.5 143.5t-148.5 40.5l2 25q34 50 88 86.5t117 36.5q95 0 141 -57.5t46 -143.5q0 -117 -90.5 -287t-284.5 -452q-123 -177 -223 -296t-184 -186t-153 -94.5t-141 -27.5
q-85 0 -142.5 44.5t-57.5 127.5q0 56 36 99t93 58h20q0 -92 39.5 -143t114.5 -51q69 0 133.5 35t148.5 127z" />
    <glyph glyph-name="z" unicode="z" horiz-adv-x="993" 
d="M741 844h-381q-46 0 -68 -14t-54 -56l-54 -78l-37 15l154 446h39q5 -41 16 -60.5t37 -19.5h674v-35l-782 -718l174 -64q49 -16 68.5 -21.5t54.5 -11.5t71 -6q69 0 124.5 37.5t111.5 138.5l37 -16q-76 -231 -157 -320.5t-212 -89.5q-65 0 -124 20.5t-154 69.5l-189 105
l-72 -176q-86 0 -86 65q0 47 48 95z" />
    <glyph glyph-name="braceleft" unicode="{" horiz-adv-x="724" 
d="M143 629l7 30q177 35 215 205l94 451q27 123 139 192.5t295 69.5l-10 -51q-90 -10 -146.5 -56.5t-77.5 -144.5l-96 -442q-21 -104 -87 -157t-187 -81q109 -30 153 -81.5t21 -157.5l-94 -441q-21 -98 16.5 -144.5t122.5 -56.5l-10 -51q-184 0 -267.5 69.5t-56.5 192.5
l96 449q35 171 -127 205z" />
    <glyph glyph-name="bar" unicode="|" horiz-adv-x="432" 
d="M506 1577l-395 -1866h-115l395 1866h115z" />
    <glyph glyph-name="braceright" unicode="}" horiz-adv-x="735" 
d="M651 659l-6 -30q-178 -35 -213 -205l-96 -449q-27 -124 -138.5 -193t-295.5 -69l10 51q187 20 225 201l92 441q23 106 88.5 157.5t186.5 81.5q-106 28 -150 81t-22 157l94 442q38 181 -139 201l10 51q185 0 268 -69.5t56 -192.5l-95 -451q-38 -170 125 -205z" />
    <glyph glyph-name="asciitilde" unicode="~" horiz-adv-x="966" 
d="M852 780l57 -22q-46 -150 -109 -220.5t-161 -70.5q-42 0 -91.5 22.5t-87.5 50t-84.5 50t-84.5 22.5q-53 0 -91 -33t-77 -100l-57 21q46 150 109 221.5t161 71.5q42 0 91.5 -23t87.5 -51t84.5 -51t84.5 -23q53 0 91 33.5t77 101.5z" />
    <glyph glyph-name="uni00A0" unicode="&#xa0;" horiz-adv-x="378" 
 />
    <glyph glyph-name="exclamdown" unicode="&#xa1;" horiz-adv-x="544" 
d="M-80 -223l391 989h76l-94 -989h-373zM573 1065q0 -72 -50.5 -123t-119.5 -51q-70 0 -120 51t-50 123q0 69 50 119.5t120 50.5q69 0 119.5 -50.5t50.5 -119.5z" />
    <glyph glyph-name="cent" unicode="&#xa2;" horiz-adv-x="995" 
d="M358 -236l48 216q-168 4 -265.5 113t-97.5 278q0 177 78.5 343t220 279.5t311.5 134.5l47 211h68l-45 -204h4q127 0 203 -50t76 -139q0 -59 -36 -96t-100 -49h-59q16 108 -10 177t-94 79l-203 -934h22q90 0 162.5 46.5t155.5 145.5l41 -32q-78 -125 -182.5 -205
t-229.5 -94l-47 -220h-68zM309 393q0 -96 33 -162t98 -92l197 914q-89 -23 -165.5 -127.5t-119.5 -248t-43 -284.5z" />
    <glyph glyph-name="sterling" unicode="&#xa3;" horiz-adv-x="1339" 
d="M186 717l17 76h223l53 192q62 238 196.5 355.5t352.5 117.5q147 0 238.5 -59.5t91.5 -159.5q0 -57 -33.5 -101.5t-85.5 -62.5h-160q41 92 41 174q0 148 -96 148q-29 0 -53.5 -15.5t-43 -39t-38 -65.5t-33.5 -79.5t-33 -97.5l-96 -307h322l-19 -76h-325l-48 -154
q-22 -72 -47.5 -137.5t-39.5 -95.5l-15 -29q213 -100 379 -100q188 0 188 147q0 68 -65 119l22 22q73 -27 122.5 -86.5t49.5 -144.5q0 -133 -85 -205.5t-226 -72.5q-35 0 -72 6t-66 13.5t-65.5 23.5t-58 26t-57.5 32t-49.5 31t-48 32.5t-40.5 27.5q-48 -86 -132 -139
t-179 -53q-108 0 -167.5 57t-59.5 143q0 95 63.5 154t159.5 59q75 0 143 -28l95 352h-220zM127 78q59 0 95.5 47.5t66.5 155.5q-59 41 -121 41q-69 0 -105 -38t-36 -104q0 -44 28 -73t72 -29z" />
    <glyph glyph-name="currency" unicode="&#xa4;" horiz-adv-x="1181" 
d="M205 1116l63 55l129 -151q121 90 267 90q143 0 241 -92l168 153l51 -61l-170 -152q56 -88 56 -198q0 -180 -121 -311l131 -152l-64 -55l-129 149q-118 -88 -264 -88t-241 92l-168 -153l-54 61l170 152q-53 83 -53 198q0 178 121 312zM571 389q146 0 245 108t99 259
q0 118 -73 193t-189 75q-146 0 -244 -108t-98 -259q0 -119 72.5 -193.5t187.5 -74.5z" />
    <glyph glyph-name="yen" unicode="&#xa5;" horiz-adv-x="1304" 
d="M778 557l-12 -57h346l-16 -78h-346l-45 -211q-6 -30 -7.5 -50t6 -35t16.5 -23t33 -14.5t45 -9.5t62 -7l-14 -72h-651l16 72q122 12 158.5 34.5t54.5 104.5l43 211h-336l16 78h336l13 53l-37 113h-277l17 77h235l-174 547q-11 39 -34.5 54t-69.5 22l16 72h590l-17 -72
q-102 -3 -141 -23t-39 -65q0 -23 23 -98l160 -512l372 516q62 85 62 119q0 32 -33 47t-115 16l17 72h415l-16 -72q-48 -7 -79.5 -23t-57.5 -53l-400 -547h250l-16 -77h-291z" />
    <glyph glyph-name="brokenbar" unicode="&#xa6;" horiz-adv-x="432" 
d="M506 1577l-164 -770h-115l164 770h115zM272 481l-161 -770h-115l162 770h114z" />
    <glyph glyph-name="section" unicode="&#xa7;" horiz-adv-x="1060" 
d="M860 291q0 -102 -26 -203t-79.5 -191.5t-127.5 -159.5t-178 -110t-224 -41q-133 0 -204.5 54t-71.5 141q0 106 125 151h137q-23 -44 -23 -96q0 -73 33.5 -129.5t104.5 -56.5q70 0 109.5 60.5t39.5 164.5q0 70 -29.5 149.5t-71.5 157.5t-84.5 162t-72 192t-29.5 218
q0 102 26 202.5t79.5 191t127.5 160t177.5 110t222.5 40.5q134 0 205.5 -53.5t71.5 -140.5q0 -107 -123 -152h-137q20 39 20 96q0 33 -7 64t-21.5 59.5t-42 46t-64.5 17.5q-70 0 -110 -61t-40 -165q0 -70 29.5 -149.5t71.5 -157t84.5 -161.5t72 -192t29.5 -218zM266 754
q0 -98 29.5 -199.5t71.5 -185.5t84.5 -164.5t72 -167t29.5 -162.5q0 -87 -43 -149q119 81 195.5 233.5t76.5 331.5q0 98 -29.5 199t-71.5 185t-84 165t-71.5 167t-29.5 162q0 88 43 150q-120 -81 -196.5 -233.5t-76.5 -331.5z" />
    <glyph glyph-name="dieresis" unicode="&#xa8;" 
d="M305 1237q-63 0 -103 40.5t-40 100.5q0 64 44.5 110t110.5 46q63 0 103.5 -40.5t40.5 -98.5q0 -64 -45 -111t-111 -47zM682 1237q-63 0 -102 40.5t-39 100.5q0 64 43.5 110t109.5 46q63 0 103.5 -40.5t40.5 -98.5q0 -65 -44.5 -111.5t-111.5 -46.5z" />
    <glyph glyph-name="copyright" unicode="&#xa9;" horiz-adv-x="1630" 
d="M809 -20q-148 0 -277 53t-218.5 144t-141 218t-51.5 271q0 163 60.5 309.5t164 252.5t248.5 168t307 62q148 0 277 -53t218.5 -144t141 -218t51.5 -271q0 -163 -60.5 -309.5t-164 -252.5t-248.5 -168t-307 -62zM811 291q-164 0 -264.5 94.5t-100.5 247.5
q0 143 69.5 263.5t188.5 189.5t259 69q162 0 260 -88l-43 -197h-54q-5 107 -41 163.5t-112 56.5q-67 0 -127 -42.5t-101.5 -110.5t-65.5 -152t-24 -167q0 -117 43.5 -189.5t128.5 -72.5q83 0 144 57t121 177h59l-55 -221q-133 -78 -285 -78zM809 37q150 0 284 57.5t230 156
t151.5 234.5t55.5 287q0 132 -47 248t-129 200t-199.5 132.5t-253.5 48.5q-150 0 -284 -57.5t-230 -156t-151.5 -234.5t-55.5 -287q0 -132 47 -248t129 -200t199.5 -132.5t253.5 -48.5z" />
    <glyph glyph-name="ordfeminine" unicode="&#xaa;" horiz-adv-x="880" 
d="M397 856q67 0 151 141t130 344q-27 58 -86 58q-60 0 -119 -70t-95 -174.5t-36 -202.5q0 -96 55 -96zM725 1393l147 71h50l-50 -161l-104 -381q-10 -42 -10 -58q0 -18 16 -18q48 0 117 92l31 -25q-124 -186 -254 -186q-49 0 -78 31t-29 82q0 53 39 176h-4
q-59 -129 -136 -209t-163 -80q-74 0 -118 57t-44 156q0 129 62 249.5t162.5 194.5t207.5 74q103 0 158 -65z" />
    <glyph glyph-name="guillemotleft" unicode="&#xab;" horiz-adv-x="929" 
d="M70 557l2 12l475 402h76l-308 -408l131 -407h-75zM418 557l2 12l475 402h76l-307 -408l131 -407h-76z" />
    <glyph glyph-name="registered" unicode="&#xae;" horiz-adv-x="1136" 
d="M684 1202h-27l-43 -203h33q54 0 89.5 30.5t35.5 86.5q0 36 -23 61t-65 25zM498 1245h227q83 0 122.5 -37t39.5 -88q0 -65 -43.5 -101.5t-100.5 -47.5l60 -117q27 -55 78 -59l-9 -33h-116q-33 22 -60 78l-55 118h-37l-24 -112q-6 -28 3 -39t42 -12l-9 -33h-223l10 33
q35 0 48.5 10.5t19.5 40.5l66 305q6 30 -1.5 40t-46.5 13zM633 526q-192 0 -315 124.5t-123 310.5q0 210 142.5 353.5t352.5 143.5q192 0 315 -124t123 -310q0 -210 -142.5 -354t-352.5 -144zM633 580q189 0 314.5 127.5t125.5 316.5q0 165 -106.5 273t-276.5 108
q-188 0 -314 -128t-126 -316q0 -164 107 -272.5t276 -108.5z" />
    <glyph glyph-name="macron" unicode="&#xaf;" 
d="M221 1278l29 139h551l-29 -139h-551z" />
    <glyph glyph-name="degree" unicode="&#xb0;" horiz-adv-x="561" 
d="M369 1049q76 0 122 56t46 140q0 60 -32.5 97.5t-88.5 37.5q-76 0 -122 -56t-46 -140q0 -60 32.5 -97.5t88.5 -37.5zM365 971q-93 0 -152 59t-59 154q0 112 76 193t190 81q93 0 152 -59t59 -154q0 -112 -76 -193t-190 -81z" />
    <glyph glyph-name="plusminus" unicode="&#xb1;" horiz-adv-x="1165" 
d="M655 1239h119l-63 -299h393l-27 -119h-391l-61 -297h-121l61 297h-387l27 119h387zM66 289l24 121h901l-26 -121h-899z" />
    <glyph glyph-name="twosuperior" unicode="&#xb2;" horiz-adv-x="806" 
d="M328 791h213q67 0 100.5 18.5t87.5 85.5h43l-92 -270h-592l8 41q124 98 209 172t137 127.5t80 98t37.5 76.5t9.5 70q0 53 -31 84t-87 31t-109.5 -29.5t-91.5 -74.5l-31 32q49 86 134.5 143.5t195.5 57.5q102 0 164.5 -53t62.5 -148q0 -39 -10.5 -74.5t-36 -69.5
t-50.5 -61t-72 -62.5t-80.5 -59t-97 -66t-101.5 -69.5z" />
    <glyph glyph-name="threesuperior" unicode="&#xb3;" horiz-adv-x="765" 
d="M524 1090q94 -12 151.5 -64.5t57.5 -134.5q0 -67 -31 -121.5t-81.5 -87.5t-111 -50.5t-124.5 -17.5q-129 0 -201.5 49.5t-72.5 118.5q0 74 77 105h111q-16 -44 -16 -92q0 -55 26.5 -92t77.5 -37q67 0 109.5 53.5t42.5 138.5q0 72 -34 115t-97 43q-10 0 -60 -4l-6 39
q110 37 169.5 82t59.5 110q0 40 -25 65t-71 25q-98 0 -190 -96l-37 29q49 88 131 140t186 52q93 0 147 -42t54 -118q0 -44 -21 -80.5t-57.5 -61.5t-77 -41t-86.5 -25z" />
    <glyph glyph-name="acute" unicode="&#xb4;" 
d="M455 1563h293v-15l-402 -325h-72z" />
    <glyph glyph-name="mu" unicode="&#xb5;" horiz-adv-x="1261" 
d="M315 -12l-92 -369l-280 -20l325 1306l-116 72l10 41l395 88h43l-205 -813q-14 -58 -14 -82q0 -49 47 -49q40 0 98.5 51.5t118 136.5t115.5 208t88 251l63 262l291 16l-203 -821q-18 -70 -18 -86q0 -30 29 -30t70 35t106 114l39 -33q-105 -153 -184.5 -219.5t-172.5 -66.5
q-79 0 -122.5 45t-43.5 122q0 72 70 326q-43 -90 -95.5 -171.5t-112 -149.5t-124.5 -112t-125 -52z" />
    <glyph glyph-name="paragraph" unicode="&#xb6;" horiz-adv-x="1263" 
d="M446 -403l177 835q-211 0 -334 117t-123 297q0 125 48 233.5t134 188t212.5 125t277.5 45.5h569l-16 -72q-115 -2 -169 -34.5t-73 -127.5l-342 -1607h-90l375 1765h-181l-374 -1765h-91zM639 506l182 860q-87 -4 -160.5 -53t-120 -125t-72.5 -166.5t-26 -181.5
q0 -87 17.5 -158t63.5 -122t116 -54z" />
    <glyph glyph-name="periodcentered" unicode="&#xb7;" horiz-adv-x="481" 
d="M61 621q0 77 52.5 128.5t126.5 51.5q76 0 128 -51.5t52 -128.5q0 -76 -52.5 -127.5t-127.5 -51.5q-74 0 -126.5 51.5t-52.5 127.5z" />
    <glyph glyph-name="cedilla" unicode="&#xb8;" 
d="M324 -463l-15 64q116 0 183 30.5t67 77.5q0 70 -170 76l121 231h65l-57 -106q94 -6 144.5 -44.5t50.5 -107.5q0 -108 -108 -164.5t-281 -56.5z" />
    <glyph glyph-name="onesuperior" unicode="&#xb9;" horiz-adv-x="667" 
d="M586 1458h53l-141 -667q-13 -63 11 -80.5t120 -22.5l-13 -59h-514l13 59q98 6 128.5 21.5t41.5 72.5l98 465h-156l11 49l49 11q111 23 173 52.5t126 98.5z" />
    <glyph glyph-name="ordmasculine" unicode="&#xba;" horiz-adv-x="751" 
d="M346 932q0 -150 74 -150q52 0 101.5 80.5t77.5 189.5t28 201q0 148 -74 148q-52 0 -101.5 -80.5t-77.5 -189t-28 -199.5zM825 1194q0 -113 -55 -221t-153 -178t-209 -70q-115 0 -188 71.5t-73 194.5q0 112 55.5 219.5t153.5 177.5t209 70q115 0 187.5 -70.5t72.5 -193.5z
" />
    <glyph glyph-name="guillemotright" unicode="&#xbb;" horiz-adv-x="929" 
d="M877 569l-3 -12l-475 -401h-75l307 407l-131 408h75zM528 569l-2 -12l-475 -401h-76l308 407l-133 408h77z" />
    <glyph glyph-name="onequarter" unicode="&#xbc;" horiz-adv-x="1617" 
d="M850 285h289l75 354zM1399 0h-441l11 57q80 6 104.5 19.5t34.5 64.5l16 76h-391l12 49l560 553h147l-115 -534h162l-14 -68h-162l-14 -76q-11 -51 7 -64.5t95 -19.5zM199 -20l1231 1478h100l-1233 -1478h-98zM586 1458h53l-141 -667q-13 -63 11 -80.5t120 -22.5l-13 -59
h-514l13 59q98 6 128.5 21.5t41.5 72.5l98 465h-156l11 49l49 11q111 23 173 52.5t126 98.5z" />
    <glyph glyph-name="onehalf" unicode="&#xbd;" horiz-adv-x="1640" 
d="M199 -20l1231 1478h100l-1233 -1478h-98zM586 1458h53l-141 -667q-13 -63 11 -80.5t120 -22.5l-13 -59h-514l13 59q98 6 128.5 21.5t41.5 72.5l98 465h-156l11 49l49 11q111 23 173 52.5t126 98.5zM1092 164h213q67 0 100.5 18.5t85.5 85.5h43l-90 -268h-592l8 39
q154 122 249 207t144 147t64.5 103.5t15.5 89.5q0 52 -31.5 82t-89.5 30q-55 0 -107.5 -29.5t-90.5 -74.5l-31 33q49 86 134.5 143t195.5 57q102 0 164.5 -52.5t62.5 -147.5q0 -39 -10.5 -74.5t-36 -69.5t-50.5 -61t-71.5 -62t-81 -59t-96.5 -66.5t-102 -70.5z" />
    <glyph glyph-name="threequarters" unicode="&#xbe;" horiz-adv-x="1622" 
d="M856 285h289l76 354zM1405 0h-440l10 57q80 6 104.5 19.5t34.5 64.5l16 76h-391l11 49l561 553h147l-115 -534h162l-14 -68h-162l-16 -76q-10 -51 8.5 -64.5t95.5 -19.5zM205 -20l1231 1478h100l-1233 -1478h-98zM524 1090q94 -12 151.5 -64.5t57.5 -134.5
q0 -67 -31 -121.5t-81.5 -87.5t-111 -50.5t-124.5 -17.5q-129 0 -201.5 49.5t-72.5 118.5q0 74 77 105h111q-16 -44 -16 -92q0 -55 26.5 -92t77.5 -37q67 0 109.5 53.5t42.5 138.5q0 72 -34 115t-97 43q-10 0 -60 -4l-6 39q110 37 169.5 82t59.5 110q0 40 -25 65t-71 25
q-98 0 -190 -96l-37 29q49 88 131 140t186 52q93 0 147 -42t54 -118q0 -44 -21 -80.5t-57.5 -61.5t-77 -41t-86.5 -25z" />
    <glyph glyph-name="questiondown" unicode="&#xbf;" horiz-adv-x="909" 
d="M410 276q-56 -33 -91.5 -58t-69.5 -59.5t-49.5 -76t-15.5 -92.5q0 -77 43 -123.5t119 -46.5q84 0 131 60t47 159q0 54 -10 96h199q51 -41 51 -117q0 -121 -114.5 -191.5t-291.5 -70.5q-191 0 -299 89t-108 239q0 71 21.5 128t65.5 102.5t94 79t124 71.5q126 65 188 121
t62 135q0 21 -12 61h45q112 -71 112 -200q0 -94 -57.5 -164t-183.5 -142zM772 1065q0 -72 -49.5 -123t-118.5 -51q-70 0 -120 51t-50 123q0 69 50 119.5t120 50.5q69 0 118.5 -50.5t49.5 -119.5z" />
    <glyph glyph-name="Agrave" unicode="&#xc0;" horiz-adv-x="1476" 
d="M950 242l-45 231h-551l-137 -229q-37 -66 -37 -101q0 -36 37.5 -52t122.5 -19l-14 -72h-430l14 72q49 5 80.5 20.5t54.5 54.5l698 1151l-30 150h307l250 -1301q7 -38 32.5 -54t73.5 -21l-16 -72h-615l15 72q38 1 63.5 3.5t53 10t43 19t26 31.5t10.5 48q0 20 -6 58z
M774 1176l-368 -615h483zM582 1835h280l74 -305h-72l-282 291v14z" />
    <glyph glyph-name="Aacute" unicode="&#xc1;" horiz-adv-x="1476" 
d="M950 242l-45 231h-551l-137 -229q-37 -66 -37 -101q0 -36 37.5 -52t122.5 -19l-14 -72h-430l14 72q49 5 80.5 20.5t54.5 54.5l698 1151l-30 150h307l250 -1301q7 -38 32.5 -54t73.5 -21l-16 -72h-615l15 72q38 1 63.5 3.5t53 10t43 19t26 31.5t10.5 48q0 20 -6 58z
M774 1176l-368 -615h483zM997 1835h299v-14l-378 -291h-72z" />
    <glyph glyph-name="Acircumflex" unicode="&#xc2;" horiz-adv-x="1476" 
d="M950 242l-45 231h-551l-137 -229q-37 -66 -37 -101q0 -36 37.5 -52t122.5 -19l-14 -72h-430l14 72q49 5 80.5 20.5t54.5 54.5l698 1151l-30 150h307l250 -1301q7 -38 32.5 -54t73.5 -21l-16 -72h-615l15 72q38 1 63.5 3.5t53 10t43 19t26 31.5t10.5 48q0 20 -6 58z
M774 1176l-368 -615h483zM1061 1849l158 -319h-82l-203 168l-287 -168h-92l307 319h199z" />
    <glyph glyph-name="Atilde" unicode="&#xc3;" horiz-adv-x="1476" 
d="M950 242l-45 231h-551l-137 -229q-37 -66 -37 -101q0 -36 37.5 -52t122.5 -19l-14 -72h-430l14 72q49 5 80.5 20.5t54.5 54.5l698 1151l-30 150h307l250 -1301q7 -38 32.5 -54t73.5 -21l-16 -72h-615l15 72q38 1 63.5 3.5t53 10t43 19t26 31.5t10.5 48q0 20 -6 58z
M774 1176l-368 -615h483zM1034 1534q-39 0 -77 18.5t-63.5 40t-58.5 40t-63 18.5q-41 0 -75 -27.5t-74 -87.5l-52 31q71 140 125 197t129 57q39 0 76.5 -18.5t63 -41t58 -41t62.5 -18.5q42 0 76.5 28.5t73.5 88.5l53 -33q-71 -139 -125 -195.5t-129 -56.5z" />
    <glyph glyph-name="Adieresis" unicode="&#xc4;" horiz-adv-x="1476" 
d="M950 242l-45 231h-551l-137 -229q-37 -66 -37 -101q0 -36 37.5 -52t122.5 -19l-14 -72h-430l14 72q49 5 80.5 20.5t54.5 54.5l698 1151l-30 150h307l250 -1301q7 -38 32.5 -54t73.5 -21l-16 -72h-615l15 72q38 1 63.5 3.5t53 10t43 19t26 31.5t10.5 48q0 20 -6 58z
M774 1176l-368 -615h483zM723 1534q-63 0 -103 40.5t-40 100.5q0 64 44.5 110t110.5 46q64 0 104 -40t40 -99q0 -64 -45 -111t-111 -47zM1124 1534q-63 0 -103 40.5t-40 100.5q0 64 44 110t110 46q65 0 104 -39.5t39 -99.5q0 -64 -44 -111t-110 -47z" />
    <glyph glyph-name="Aring" unicode="&#xc5;" horiz-adv-x="1476" 
d="M950 242l-45 231h-551l-137 -229q-37 -66 -37 -101q0 -36 37.5 -52t122.5 -19l-14 -72h-430l14 72q49 5 80.5 20.5t54.5 54.5l698 1151l-30 150h307l250 -1301q7 -38 32.5 -54t73.5 -21l-16 -72h-615l15 72q38 1 63.5 3.5t53 10t43 19t26 31.5t10.5 48q0 20 -6 58z
M774 1176l-368 -615h483zM737 1671q0 88 59 148.5t146 60.5q85 0 134.5 -49t49.5 -127q0 -88 -58.5 -148.5t-145.5 -60.5q-85 0 -135 49t-50 127zM1038 1702q0 44 -26 70t-72 26q-55 0 -85 -35.5t-30 -89.5q0 -44 26.5 -70t72.5 -26q55 0 84.5 35.5t29.5 89.5z" />
    <glyph glyph-name="AE" unicode="&#xc6;" horiz-adv-x="2066" 
d="M1849 0h-1132l16 72q112 12 144.5 34.5t50.5 106.5l61 293h-516l-217 -262q-49 -57 -49 -101q0 -37 38.5 -52.5t125.5 -18.5l-15 -72h-460l14 72q47 5 82 24t74 66l954 1147q-44 39 -193 57l17 72h1292l-70 -369h-57q-36 172 -84.5 229.5t-169.5 57.5h-285l-120 -570h247
q66 0 105 43t76 146h73l-100 -465h-72q6 102 -14.5 144t-87.5 42h-248l-100 -475q-18 -80 18 -109.5t135 -29.5h117q50 0 91 12t75.5 32t78.5 64.5t82 90.5t103 129h70zM1167 1339l-620 -745h461z" />
    <glyph glyph-name="Ccedilla" unicode="&#xc7;" horiz-adv-x="1361" 
d="M434 -463l-14 64q116 0 183 30.5t67 77.5q0 70 -170 76l102 199q-246 22 -382 175.5t-136 399.5q0 139 41.5 272.5t121 246t186 198t244 134t288.5 48.5q134 0 249 -33t189 -90l-66 -327h-75q-2 179 -75 273.5t-214 94.5q-92 0 -175 -39.5t-145 -106.5t-111.5 -153.5
t-80.5 -183t-47.5 -192.5t-16.5 -185q0 -218 74 -334t221 -116q153 0 274 102t222 319h88l-115 -389q-213 -118 -479 -118h-16l-37 -70q94 -6 144 -44.5t50 -107.5q0 -108 -108 -164.5t-281 -56.5z" />
    <glyph glyph-name="Egrave" unicode="&#xc8;" horiz-adv-x="1308" 
d="M580 1835h280l74 -305h-72l-282 291v14zM1092 0h-1143l16 72q112 12 144 35t49 106l217 1012q6 30 8 50t-3 35.5t-13 24t-28 15t-40.5 9.5t-58.5 7l16 72h1122l-69 -369h-58q-36 172 -84 229.5t-168 57.5h-299l-120 -570h260q66 0 104.5 42.5t77.5 146.5h72l-99 -465h-73
q6 102 -15 144t-86 42h-260l-102 -475q-18 -80 18.5 -109.5t134.5 -29.5h129q50 0 91.5 12t75.5 31.5t78.5 65t81.5 90t103 129.5h72z" />
    <glyph glyph-name="Eacute" unicode="&#xc9;" horiz-adv-x="1308" 
d="M999 1835h299v-14l-378 -291h-72zM1092 0h-1143l16 72q112 12 144 35t49 106l217 1012q6 30 8 50t-3 35.5t-13 24t-28 15t-40.5 9.5t-58.5 7l16 72h1122l-69 -369h-58q-36 172 -84 229.5t-168 57.5h-299l-120 -570h260q66 0 104.5 42.5t77.5 146.5h72l-99 -465h-73
q6 102 -15 144t-86 42h-260l-102 -475q-18 -80 18.5 -109.5t134.5 -29.5h129q50 0 91.5 12t75.5 31.5t78.5 65t81.5 90t103 129.5h72z" />
    <glyph glyph-name="Ecircumflex" unicode="&#xca;" horiz-adv-x="1308" 
d="M1092 0h-1143l16 72q112 12 144 35t49 106l217 1012q6 30 8 50t-3 35.5t-13 24t-28 15t-40.5 9.5t-58.5 7l16 72h1122l-69 -369h-58q-36 172 -84 229.5t-168 57.5h-299l-120 -570h260q66 0 104.5 42.5t77.5 146.5h72l-99 -465h-73q6 102 -15 144t-86 42h-260l-102 -475
q-18 -80 18.5 -109.5t134.5 -29.5h129q50 0 91.5 12t75.5 31.5t78.5 65t81.5 90t103 129.5h72zM1059 1849l158 -319h-82l-203 168l-287 -168h-92l307 319h199z" />
    <glyph glyph-name="Edieresis" unicode="&#xcb;" horiz-adv-x="1308" 
d="M721 1534q-63 0 -103 40.5t-40 100.5q0 64 44.5 110t110.5 46q64 0 104 -40t40 -99q0 -64 -45 -111t-111 -47zM1122 1534q-63 0 -103 40.5t-40 100.5q0 64 44 110t110 46q65 0 104 -39.5t39 -99.5q0 -64 -44 -111t-110 -47zM1092 0h-1143l16 72q112 12 144 35t49 106
l217 1012q6 30 8 50t-3 35.5t-13 24t-28 15t-40.5 9.5t-58.5 7l16 72h1122l-69 -369h-58q-36 172 -84 229.5t-168 57.5h-299l-120 -570h260q66 0 104.5 42.5t77.5 146.5h72l-99 -465h-73q6 102 -15 144t-86 42h-260l-102 -475q-18 -80 18.5 -109.5t134.5 -29.5h129
q50 0 91.5 12t75.5 31.5t78.5 65t81.5 90t103 129.5h72z" />
    <glyph glyph-name="Igrave" unicode="&#xcc;" horiz-adv-x="743" 
d="M158 213l217 1012q6 30 8 50t-3 35.5t-13 24t-28 15t-40.5 9.5t-58.5 7l16 72h627l-15 -72q-112 -12 -143.5 -34.5t-50.5 -106.5l-215 -1012q-6 -30 -8.5 -50t2.5 -35.5t12.5 -24t27.5 -15t40.5 -9.5t58.5 -7l-17 -72h-626l16 72q112 12 144 35t49 106zM272 1835h281
l74 -305h-72l-283 291v14z" />
    <glyph glyph-name="Iacute" unicode="&#xcd;" horiz-adv-x="743" 
d="M158 213l217 1012q6 30 8 50t-3 35.5t-13 24t-28 15t-40.5 9.5t-58.5 7l16 72h627l-15 -72q-112 -12 -143.5 -34.5t-50.5 -106.5l-215 -1012q-6 -30 -8.5 -50t2.5 -35.5t12.5 -24t27.5 -15t40.5 -9.5t58.5 -7l-17 -72h-626l16 72q112 12 144 35t49 106zM702 1835h299v-14
l-378 -291h-72z" />
    <glyph glyph-name="Icircumflex" unicode="&#xce;" horiz-adv-x="743" 
d="M158 213l217 1012q6 30 8 50t-3 35.5t-13 24t-28 15t-40.5 9.5t-58.5 7l16 72h627l-15 -72q-112 -12 -143.5 -34.5t-50.5 -106.5l-215 -1012q-6 -30 -8.5 -50t2.5 -35.5t12.5 -24t27.5 -15t40.5 -9.5t58.5 -7l-17 -72h-626l16 72q112 12 144 35t49 106zM750 1849
l157 -319h-82l-202 168l-287 -168h-92l307 319h199z" />
    <glyph glyph-name="Idieresis" unicode="&#xcf;" horiz-adv-x="743" 
d="M158 213l217 1012q6 30 8 50t-3 35.5t-13 24t-28 15t-40.5 9.5t-58.5 7l16 72h627l-15 -72q-112 -12 -143.5 -34.5t-50.5 -106.5l-215 -1012q-6 -30 -8.5 -50t2.5 -35.5t12.5 -24t27.5 -15t40.5 -9.5t58.5 -7l-17 -72h-626l16 72q112 12 144 35t49 106zM420 1534
q-63 0 -103.5 40.5t-40.5 100.5q0 64 45 110t111 46q64 0 103.5 -39.5t39.5 -99.5q0 -64 -44.5 -111t-110.5 -47zM821 1534q-63 0 -103 40.5t-40 100.5q0 64 43.5 110t109.5 46q65 0 104.5 -39.5t39.5 -99.5q0 -64 -44 -111t-110 -47z" />
    <glyph glyph-name="Eth" unicode="&#xd0;" horiz-adv-x="1513" 
d="M104 686l21 98h156l94 441q6 30 8 50t-3 35.5t-13 24t-28 15t-40.5 9.5t-58.5 7l16 72h578q305 0 489 -154t184 -424q0 -193 -72 -355.5t-196.5 -272.5t-293 -171t-359.5 -61h-637l16 72q112 12 144 35t49 106l100 473h-154zM584 82h24q161 0 297 111t213.5 296.5
t77.5 401.5q0 229 -99 347t-309 118h-88l-122 -572h272l-21 -98h-272l-96 -459q-19 -87 9 -116t114 -29z" />
    <glyph glyph-name="Ntilde" unicode="&#xd1;" horiz-adv-x="1519" 
d="M1122 1534q-39 0 -77 18.5t-63.5 40t-58.5 40t-63 18.5q-41 0 -75 -27.5t-74 -87.5l-52 31q71 140 125 197t129 57q39 0 77 -18.5t63 -41t58 -41t63 -18.5q42 0 76 28t73 89l53 -33q-71 -139 -125 -195.5t-129 -56.5zM1196 442l164 783q17 81 -22 108t-164 33l14 72h491
l-16 -72q-112 -12 -144.5 -34.5t-50.5 -106.5l-260 -1229h-96l-649 1137l-195 -920q-17 -81 22.5 -108t164.5 -33l-15 -72h-491l16 72q112 12 144.5 34.5t50.5 106.5l219 1030q-39 71 -66 95t-88 28l17 72h403z" />
    <glyph glyph-name="Ograve" unicode="&#xd2;" horiz-adv-x="1488" 
d="M653 1835h281l74 -305h-72l-283 291v14zM915 1458q135 0 244 -44.5t179 -121.5t107.5 -179t37.5 -220q0 -132 -37 -263.5t-110 -248t-172 -206.5t-232 -142.5t-281 -52.5q-135 0 -244 44.5t-178.5 121.5t-107 179t-37.5 220q0 132 37 263.5t110 248t171.5 206.5
t231.5 142.5t281 52.5zM909 1374q-79 0 -151 -42.5t-126.5 -114.5t-99.5 -164t-73.5 -193t-44 -199.5t-15.5 -185.5q0 -123 25 -212.5t84 -144.5t149 -55q79 0 151 43t126.5 114.5t99.5 164t73.5 193.5t44 199.5t15.5 185.5q0 189 -62 300t-196 111z" />
    <glyph glyph-name="Oacute" unicode="&#xd3;" horiz-adv-x="1488" 
d="M1085 1835h299v-14l-378 -291h-72zM915 1458q135 0 244 -44.5t179 -121.5t107.5 -179t37.5 -220q0 -132 -37 -263.5t-110 -248t-172 -206.5t-232 -142.5t-281 -52.5q-135 0 -244 44.5t-178.5 121.5t-107 179t-37.5 220q0 132 37 263.5t110 248t171.5 206.5t231.5 142.5
t281 52.5zM909 1374q-79 0 -151 -42.5t-126.5 -114.5t-99.5 -164t-73.5 -193t-44 -199.5t-15.5 -185.5q0 -123 25 -212.5t84 -144.5t149 -55q79 0 151 43t126.5 114.5t99.5 164t73.5 193.5t44 199.5t15.5 185.5q0 189 -62 300t-196 111z" />
    <glyph glyph-name="Ocircumflex" unicode="&#xd4;" horiz-adv-x="1488" 
d="M915 1458q135 0 244 -44.5t179 -121.5t107.5 -179t37.5 -220q0 -132 -37 -263.5t-110 -248t-172 -206.5t-232 -142.5t-281 -52.5q-135 0 -244 44.5t-178.5 121.5t-107 179t-37.5 220q0 132 37 263.5t110 248t171.5 206.5t231.5 142.5t281 52.5zM909 1374
q-79 0 -151 -42.5t-126.5 -114.5t-99.5 -164t-73.5 -193t-44 -199.5t-15.5 -185.5q0 -123 25 -212.5t84 -144.5t149 -55q79 0 151 43t126.5 114.5t99.5 164t73.5 193.5t44 199.5t15.5 185.5q0 189 -62 300t-196 111zM1133 1849l157 -319h-82l-202 168l-287 -168h-92l307 319
h199z" />
    <glyph glyph-name="Otilde" unicode="&#xd5;" horiz-adv-x="1488" 
d="M1108 1534q-39 0 -77 18.5t-63.5 40t-58.5 40t-63 18.5q-41 0 -75.5 -27.5t-74.5 -87.5l-51 31q71 140 125 197t129 57q39 0 76.5 -18.5t63 -41t58 -41t62.5 -18.5q42 0 76.5 28.5t73.5 88.5l53 -33q-71 -139 -125 -195.5t-129 -56.5zM915 1458q135 0 244 -44.5
t179 -121.5t107.5 -179t37.5 -220q0 -132 -37 -263.5t-110 -248t-172 -206.5t-232 -142.5t-281 -52.5q-135 0 -244 44.5t-178.5 121.5t-107 179t-37.5 220q0 132 37 263.5t110 248t171.5 206.5t231.5 142.5t281 52.5zM909 1374q-79 0 -151 -42.5t-126.5 -114.5t-99.5 -164
t-73.5 -193t-44 -199.5t-15.5 -185.5q0 -123 25 -212.5t84 -144.5t149 -55q79 0 151 43t126.5 114.5t99.5 164t73.5 193.5t44 199.5t15.5 185.5q0 189 -62 300t-196 111z" />
    <glyph glyph-name="Odieresis" unicode="&#xd6;" horiz-adv-x="1488" 
d="M795 1534q-63 0 -103.5 40.5t-40.5 100.5q0 64 45 110t111 46q63 0 103 -39.5t40 -99.5q0 -64 -44.5 -111t-110.5 -47zM1196 1534q-63 0 -103 40.5t-40 100.5q0 64 43.5 110t109.5 46q65 0 104.5 -39.5t39.5 -99.5q0 -64 -44 -111t-110 -47zM915 1458q135 0 244 -44.5
t179 -121.5t107.5 -179t37.5 -220q0 -132 -37 -263.5t-110 -248t-172 -206.5t-232 -142.5t-281 -52.5q-135 0 -244 44.5t-178.5 121.5t-107 179t-37.5 220q0 132 37 263.5t110 248t171.5 206.5t231.5 142.5t281 52.5zM909 1374q-79 0 -151 -42.5t-126.5 -114.5t-99.5 -164
t-73.5 -193t-44 -199.5t-15.5 -185.5q0 -123 25 -212.5t84 -144.5t149 -55q79 0 151 43t126.5 114.5t99.5 164t73.5 193.5t44 199.5t15.5 185.5q0 189 -62 300t-196 111z" />
    <glyph glyph-name="multiply" unicode="&#xd7;" horiz-adv-x="1009" 
d="M451 750l-226 286l103 82l221 -287l350 289l68 -88l-351 -287l228 -282l-101 -84l-227 287l-346 -289l-68 86z" />
    <glyph glyph-name="Oslash" unicode="&#xd8;" horiz-adv-x="1488" 
d="M1425 1436l-104 -127q79 -78 120.5 -185t41.5 -231q0 -132 -37 -263.5t-110 -248t-172 -206.5t-232 -142.5t-281 -52.5q-203 0 -344 98l-121 -146l-63 48l123 147q-162 159 -162 418q0 132 37 263.5t110 248t171.5 206.5t231.5 142.5t281 52.5q205 0 345 -100l102 125z
M913 1374q-94 0 -179 -60.5t-145.5 -157.5t-105 -216.5t-66.5 -239.5t-22 -225q0 -78 13 -151l727 882q-61 168 -222 168zM1171 963q0 81 -12 149l-727 -883q63 -166 221 -166q94 0 179 60.5t145.5 158t105 217t66.5 239.5t22 225z" />
    <glyph glyph-name="Ugrave" unicode="&#xd9;" horiz-adv-x="1492" 
d="M729 1835h281l73 -305h-71l-283 291v14zM1206 532l148 693q6 30 8 50t-4.5 35.5t-15.5 24t-31.5 15t-45.5 9.5t-65 7l14 72h457l-14 -72q-112 -12 -144.5 -34.5t-50.5 -106.5l-155 -729q-54 -258 -212 -387t-397 -129q-277 0 -417.5 157.5t-83.5 429.5l141 658q7 30 9 50
t-3 35.5t-13 24t-28 15t-41 9.5t-59 7l16 72h629l-17 -72q-112 -12 -143.5 -34.5t-50.5 -106.5l-143 -672q-40 -192 34 -313t250 -121q174 0 277.5 97.5t150.5 315.5z" />
    <glyph glyph-name="Uacute" unicode="&#xda;" horiz-adv-x="1492" 
d="M1139 1835h299v-14l-379 -291h-72zM1206 532l148 693q6 30 8 50t-4.5 35.5t-15.5 24t-31.5 15t-45.5 9.5t-65 7l14 72h457l-14 -72q-112 -12 -144.5 -34.5t-50.5 -106.5l-155 -729q-54 -258 -212 -387t-397 -129q-277 0 -417.5 157.5t-83.5 429.5l141 658q7 30 9 50
t-3 35.5t-13 24t-28 15t-41 9.5t-59 7l16 72h629l-17 -72q-112 -12 -143.5 -34.5t-50.5 -106.5l-143 -672q-40 -192 34 -313t250 -121q174 0 277.5 97.5t150.5 315.5z" />
    <glyph glyph-name="Ucircumflex" unicode="&#xdb;" horiz-adv-x="1492" 
d="M1206 532l148 693q6 30 8 50t-4.5 35.5t-15.5 24t-31.5 15t-45.5 9.5t-65 7l14 72h457l-14 -72q-112 -12 -144.5 -34.5t-50.5 -106.5l-155 -729q-54 -258 -212 -387t-397 -129q-277 0 -417.5 157.5t-83.5 429.5l141 658q7 30 9 50t-3 35.5t-13 24t-28 15t-41 9.5t-59 7
l16 72h629l-17 -72q-112 -12 -143.5 -34.5t-50.5 -106.5l-143 -672q-40 -192 34 -313t250 -121q174 0 277.5 97.5t150.5 315.5zM1206 1849l158 -319h-82l-203 168l-286 -168h-93l308 319h198z" />
    <glyph glyph-name="Udieresis" unicode="&#xdc;" horiz-adv-x="1492" 
d="M868 1534q-63 0 -103 40.5t-40 100.5q0 64 45 110t111 46q63 0 103 -39.5t40 -99.5q0 -64 -45 -111t-111 -47zM1270 1534q-63 0 -103.5 40.5t-40.5 100.5q0 64 44 110t110 46q65 0 104 -39.5t39 -99.5q0 -65 -43.5 -111.5t-109.5 -46.5zM1206 532l148 693q6 30 8 50
t-4.5 35.5t-15.5 24t-31.5 15t-45.5 9.5t-65 7l14 72h457l-14 -72q-112 -12 -144.5 -34.5t-50.5 -106.5l-155 -729q-54 -258 -212 -387t-397 -129q-277 0 -417.5 157.5t-83.5 429.5l141 658q7 30 9 50t-3 35.5t-13 24t-28 15t-41 9.5t-59 7l16 72h629l-17 -72
q-112 -12 -143.5 -34.5t-50.5 -106.5l-143 -672q-40 -192 34 -313t250 -121q174 0 277.5 97.5t150.5 315.5z" />
    <glyph glyph-name="Yacute" unicode="&#xdd;" horiz-adv-x="1347" 
d="M838 557l-74 -346q-6 -30 -7.5 -50t6 -35t16.5 -23t33 -14.5t45.5 -9.5t62.5 -7l-17 -72h-657l14 72q123 12 159.5 34.5t53.5 104.5l72 342l-252 737q-13 39 -35.5 54.5t-67.5 21.5l17 72h596l-17 -72q-101 -3 -139.5 -23t-38.5 -65q0 -30 21 -98l178 -512l387 516
q63 86 63 119q0 32 -33 47t-114 16l14 72h416l-16 -72q-89 -12 -135 -76zM1087 1835h299v-14l-378 -291h-72z" />
    <glyph glyph-name="Thorn" unicode="&#xde;" horiz-adv-x="1318" 
d="M643 1083l-147 -696h90q119 0 212 44.5t150.5 140t57.5 231.5q0 130 -72 205t-211 75h-80zM674 1225l-12 -60l153 2q230 1 357.5 -99t127.5 -265q0 -162 -90 -277t-242.5 -171t-351.5 -56h-139l-16 -72q-19 -85 25 -115t190 -38l-17 -74h-710l16 72q112 12 144 35t49 106
l217 1012q6 30 8 50t-3 35.5t-13 24t-28 15t-40.5 9.5t-58.5 7l16 72h627l-15 -72q-112 -12 -143.5 -34.5t-50.5 -106.5z" />
    <glyph glyph-name="germandbls" unicode="&#xdf;" horiz-adv-x="1302" 
d="M885 59q135 0 135 129q0 41 -26.5 89t-66 91t-85.5 93.5t-85.5 96.5t-66 100.5t-26.5 105.5q0 41 11.5 75.5t41.5 69.5t54.5 57t76.5 66q8 7 12 10q133 110 133 295q0 83 -45 139t-127 56q-95 0 -150 -79.5t-85 -225.5l-185 -852q-64 -295 -146 -475t-182.5 -259
t-232.5 -79q-100 0 -163.5 40t-63.5 109q0 62 40 98t99 44h43q2 -102 26 -162t68 -60q36 0 61.5 37.5t52.5 135t65 292.5l165 869h-153l16 65l160 39q28 111 78 206t121 169.5t168.5 117t210.5 42.5q163 0 267.5 -75t104.5 -192q0 -54 -17.5 -100t-53 -83.5t-73.5 -65.5
t-93 -60q-52 -33 -74.5 -57.5t-22.5 -63.5q0 -35 37 -84.5t89 -103t104.5 -112t89.5 -129.5t37 -138q0 -107 -56.5 -190.5t-149.5 -126.5t-206 -43q-152 0 -248 64.5t-96 164.5q0 54 33 95.5t86 62.5h14q30 -142 103 -225t176 -83z" />
    <glyph glyph-name="agrave" unicode="&#xe0;" horiz-adv-x="1226" 
d="M403 174q104 0 236.5 213.5t220.5 548.5q-14 43 -49 69.5t-80 26.5q-79 0 -156 -66t-133 -168t-90.5 -229t-34.5 -245q0 -150 86 -150zM666 147q0 41 20.5 132.5t46.5 171.5q-103 -215 -221.5 -343t-243.5 -128q-109 0 -170 83t-61 230q0 150 55 298.5t145 261.5t213 183
t252 70q139 0 230 -94l192 102h60l-78 -252l-143 -596q-19 -70 -19 -86q0 -30 29 -30q54 0 174 149l41 -33q-108 -154 -186.5 -220t-172.5 -66q-77 0 -120 45t-43 122zM516 1563h275l90 -340h-70l-295 325v15z" />
    <glyph glyph-name="aacute" unicode="&#xe1;" horiz-adv-x="1226" 
d="M403 174q104 0 236.5 213.5t220.5 548.5q-14 43 -49 69.5t-80 26.5q-79 0 -156 -66t-133 -168t-90.5 -229t-34.5 -245q0 -150 86 -150zM666 147q0 41 20.5 132.5t46.5 171.5q-103 -215 -221.5 -343t-243.5 -128q-109 0 -170 83t-61 230q0 150 55 298.5t145 261.5t213 183
t252 70q139 0 230 -94l192 102h60l-78 -252l-143 -596q-19 -70 -19 -86q0 -30 29 -30q54 0 174 149l41 -33q-108 -154 -186.5 -220t-172.5 -66q-77 0 -120 45t-43 122zM940 1563h293v-15l-402 -325h-71z" />
    <glyph glyph-name="acircumflex" unicode="&#xe2;" horiz-adv-x="1226" 
d="M403 174q104 0 236.5 213.5t220.5 548.5q-14 43 -49 69.5t-80 26.5q-79 0 -156 -66t-133 -168t-90.5 -229t-34.5 -245q0 -150 86 -150zM666 147q0 41 20.5 132.5t46.5 171.5q-103 -215 -221.5 -343t-243.5 -128q-109 0 -170 83t-61 230q0 150 55 298.5t145 261.5t213 183
t252 70q139 0 230 -94l192 102h60l-78 -252l-143 -596q-19 -70 -19 -86q0 -30 29 -30q54 0 174 149l41 -33q-108 -154 -186.5 -220t-172.5 -66q-77 0 -120 45t-43 122zM973 1567l157 -350h-81l-203 196l-287 -196h-92l307 350h199z" />
    <glyph glyph-name="atilde" unicode="&#xe3;" horiz-adv-x="1226" 
d="M403 174q104 0 236.5 213.5t220.5 548.5q-14 43 -49 69.5t-80 26.5q-79 0 -156 -66t-133 -168t-90.5 -229t-34.5 -245q0 -150 86 -150zM666 147q0 41 20.5 132.5t46.5 171.5q-103 -215 -221.5 -343t-243.5 -128q-109 0 -170 83t-61 230q0 150 55 298.5t145 261.5t213 183
t252 70q139 0 230 -94l192 102h60l-78 -252l-143 -596q-19 -70 -19 -86q0 -30 29 -30q54 0 174 149l41 -33q-108 -154 -186.5 -220t-172.5 -66q-77 0 -120 45t-43 122zM952 1235q-39 0 -77 18.5t-63.5 41t-58.5 41t-63 18.5q-41 0 -74.5 -27.5t-74.5 -87.5l-52 31
q72 140 125.5 197t128.5 57q39 0 77 -18.5t63 -41t58 -41t63 -18.5q42 0 76 27.5t73 87.5l53 -31q-72 -140 -125.5 -197t-128.5 -57z" />
    <glyph glyph-name="adieresis" unicode="&#xe4;" horiz-adv-x="1226" 
d="M403 174q104 0 236.5 213.5t220.5 548.5q-14 43 -49 69.5t-80 26.5q-79 0 -156 -66t-133 -168t-90.5 -229t-34.5 -245q0 -150 86 -150zM666 147q0 41 20.5 132.5t46.5 171.5q-103 -215 -221.5 -343t-243.5 -128q-109 0 -170 83t-61 230q0 150 55 298.5t145 261.5t213 183
t252 70q139 0 230 -94l192 102h60l-78 -252l-143 -596q-19 -70 -19 -86q0 -30 29 -30q54 0 174 149l41 -33q-108 -154 -186.5 -220t-172.5 -66q-77 0 -120 45t-43 122zM639 1237q-63 0 -103 40.5t-40 100.5q0 64 44.5 110t110.5 46q63 0 103.5 -40.5t40.5 -98.5
q0 -64 -45 -111t-111 -47zM1016 1237q-63 0 -102.5 40.5t-39.5 100.5q0 64 44 110t110 46q63 0 103 -40.5t40 -98.5q0 -65 -44 -111.5t-111 -46.5z" />
    <glyph glyph-name="aring" unicode="&#xe5;" horiz-adv-x="1226" 
d="M403 174q104 0 236.5 213.5t220.5 548.5q-14 43 -49 69.5t-80 26.5q-79 0 -156 -66t-133 -168t-90.5 -229t-34.5 -245q0 -150 86 -150zM666 147q0 41 20.5 132.5t46.5 171.5q-103 -215 -221.5 -343t-243.5 -128q-109 0 -170 83t-61 230q0 150 55 298.5t145 261.5t213 183
t252 70q139 0 230 -94l192 102h60l-78 -252l-143 -596q-19 -70 -19 -86q0 -30 29 -30q54 0 174 149l41 -33q-108 -154 -186.5 -220t-172.5 -66q-77 0 -120 45t-43 122zM936 1378q0 44 -26 70.5t-72 26.5q-55 0 -85 -35.5t-30 -89.5q0 -45 26.5 -72t71.5 -27q55 0 85 36
t30 91zM635 1348q0 88 58.5 147t146.5 59q85 0 134.5 -48.5t49.5 -125.5q0 -88 -59 -148.5t-146 -60.5q-85 0 -134.5 49.5t-49.5 127.5z" />
    <glyph glyph-name="ae" unicode="&#xe6;" horiz-adv-x="1583" 
d="M725 1106q160 0 258 -117q156 117 334 117q133 0 203.5 -62t70.5 -157q0 -72 -35 -130.5t-90.5 -99t-142 -74t-172.5 -55t-199 -41.5q-2 -23 -2 -63q0 -137 56.5 -211t158.5 -74q81 0 154 46t149 139l43 -35q-102 -154 -219 -231.5t-262 -77.5q-155 0 -251 97.5
t-105 260.5q-200 -358 -406 -358q-109 0 -170 83t-61 230q0 151 55.5 299t147.5 261t220 183t265 70zM403 174q60 0 131.5 74t143.5 209q15 128 74.5 250t150.5 213q-59 114 -168 114q-106 0 -204.5 -111t-156 -275.5t-57.5 -323.5q0 -150 86 -150zM1280 1032
q-72 0 -141 -73.5t-115.5 -185t-65.5 -232.5q208 50 311 143.5t103 237.5q0 50 -22.5 80t-69.5 30z" />
    <glyph glyph-name="ccedilla" unicode="&#xe7;" horiz-adv-x="913" 
d="M127 -463l-14 64q115 0 182 30.5t67 77.5q0 38 -42.5 55.5t-126.5 20.5l106 205q-122 26 -190 125t-68 243q0 136 51 271.5t136.5 240.5t206.5 170.5t251 65.5q118 0 187 -48t69 -138q0 -60 -35.5 -99t-97.5 -53h-59q19 266 -109 266q-83 0 -158.5 -101t-118 -246.5
t-42.5 -283.5q0 -123 45.5 -196.5t138.5 -73.5q77 0 140 42.5t140 137.5l39 -37q-80 -133 -192 -214.5t-248 -81.5q-4 0 -13.5 1t-13.5 1l-36 -72q94 -6 144 -44.5t50 -107.5q0 -108 -108 -164.5t-281 -56.5z" />
    <glyph glyph-name="egrave" unicode="&#xe8;" horiz-adv-x="950" 
d="M961 887q0 -72 -35 -130.5t-90.5 -99t-142 -74t-172.5 -55t-199 -41.5q-3 -35 -3 -63q0 -137 57 -211t159 -74q81 0 154 46t149 139l43 -35q-102 -154 -219.5 -231.5t-262.5 -77.5q-162 0 -259 107t-97 284q0 134 51 267t135.5 236.5t204.5 167.5t250 64q135 0 206 -62
t71 -157zM649 1032q-73 0 -141.5 -73.5t-114 -184.5t-63.5 -231q207 47 309 141t102 238q0 50 -22.5 80t-69.5 30zM422 1563h274l90 -340h-69l-295 325v15z" />
    <glyph glyph-name="eacute" unicode="&#xe9;" horiz-adv-x="950" 
d="M961 887q0 -72 -35 -130.5t-90.5 -99t-142 -74t-172.5 -55t-199 -41.5q-3 -35 -3 -63q0 -137 57 -211t159 -74q81 0 154 46t149 139l43 -35q-102 -154 -219.5 -231.5t-262.5 -77.5q-162 0 -259 107t-97 284q0 134 51 267t135.5 236.5t204.5 167.5t250 64q135 0 206 -62
t71 -157zM649 1032q-73 0 -141.5 -73.5t-114 -184.5t-63.5 -231q207 47 309 141t102 238q0 50 -22.5 80t-69.5 30zM809 1563h293v-15l-402 -325h-71z" />
    <glyph glyph-name="ecircumflex" unicode="&#xea;" horiz-adv-x="950" 
d="M961 887q0 -72 -35 -130.5t-90.5 -99t-142 -74t-172.5 -55t-199 -41.5q-3 -35 -3 -63q0 -137 57 -211t159 -74q81 0 154 46t149 139l43 -35q-102 -154 -219.5 -231.5t-262.5 -77.5q-162 0 -259 107t-97 284q0 134 51 267t135.5 236.5t204.5 167.5t250 64q135 0 206 -62
t71 -157zM649 1032q-73 0 -141.5 -73.5t-114 -184.5t-63.5 -231q207 47 309 141t102 238q0 50 -22.5 80t-69.5 30zM874 1567l158 -350h-82l-202 196l-287 -196h-92l307 350h198z" />
    <glyph glyph-name="edieresis" unicode="&#xeb;" horiz-adv-x="950" 
d="M961 887q0 -72 -35 -130.5t-90.5 -99t-142 -74t-172.5 -55t-199 -41.5q-3 -35 -3 -63q0 -137 57 -211t159 -74q81 0 154 46t149 139l43 -35q-102 -154 -219.5 -231.5t-262.5 -77.5q-162 0 -259 107t-97 284q0 134 51 267t135.5 236.5t204.5 167.5t250 64q135 0 206 -62
t71 -157zM649 1032q-73 0 -141.5 -73.5t-114 -184.5t-63.5 -231q207 47 309 141t102 238q0 50 -22.5 80t-69.5 30zM537 1237q-63 0 -103.5 40.5t-40.5 100.5q0 64 45 110t111 46q63 0 103 -40.5t40 -98.5q0 -64 -44.5 -111t-110.5 -47zM913 1237q-63 0 -102 40.5t-39 100.5
q0 64 44 110t110 46q63 0 103 -40.5t40 -98.5q0 -65 -44.5 -111.5t-111.5 -46.5z" />
    <glyph glyph-name="igrave" unicode="&#xec;" horiz-adv-x="632" 
d="M86 315l150 590l-117 72l10 41l395 88h43l-211 -840q-18 -67 -18 -86q0 -30 29 -30t70 35t106 114l39 -33q-105 -153 -184.5 -219.5t-172.5 -66.5q-79 0 -121.5 45t-42.5 120q0 54 25 170zM137 1563h275l90 -340h-70l-295 325v15z" />
    <glyph glyph-name="iacute" unicode="&#xed;" horiz-adv-x="632" 
d="M567 1563h293v-15l-401 -325h-72zM86 315l150 590l-117 72l10 41l395 88h43l-211 -840q-18 -67 -18 -86q0 -30 29 -30t70 35t106 114l39 -33q-105 -153 -184.5 -219.5t-172.5 -66.5q-79 0 -121.5 45t-42.5 120q0 54 25 170z" />
    <glyph glyph-name="icircumflex" unicode="&#xee;" horiz-adv-x="632" 
d="M623 1567l157 -350h-82l-202 196l-287 -196h-92l307 350h199zM86 315l150 590l-117 72l10 41l395 88h43l-211 -840q-18 -67 -18 -86q0 -30 29 -30t70 35t106 114l39 -33q-105 -153 -184.5 -219.5t-172.5 -66.5q-79 0 -121.5 45t-42.5 120q0 54 25 170z" />
    <glyph glyph-name="idieresis" unicode="&#xef;" horiz-adv-x="632" 
d="M279 1237q-63 0 -103.5 40.5t-40.5 100.5q0 64 45 110t111 46q63 0 103 -40.5t40 -98.5q0 -64 -44.5 -111t-110.5 -47zM655 1237q-63 0 -102 40.5t-39 100.5q0 64 44 110t110 46q63 0 103 -40.5t40 -98.5q0 -65 -44.5 -111.5t-111.5 -46.5zM86 315l150 590l-117 72l10 41
l395 88h43l-211 -840q-18 -67 -18 -86q0 -30 29 -30t70 35t106 114l39 -33q-105 -153 -184.5 -219.5t-172.5 -66.5q-79 0 -121.5 45t-42.5 120q0 54 25 170z" />
    <glyph glyph-name="eth" unicode="&#xf0;" horiz-adv-x="1085" 
d="M297 1198l-25 74l316 108q-95 102 -252 181l37 47q199 -60 348 -183l250 88l24 -73l-211 -74q128 -128 194 -294.5t66 -336.5q0 -152 -49.5 -291.5t-133.5 -241t-200 -162t-243 -60.5q-166 0 -271.5 104t-105.5 297q0 103 29.5 208t86 197t132 164t175 114t206.5 42
q23 0 69 -8q-30 118 -100 219zM772 813q0 117 -16 205q-38 20 -78 20q-76 0 -146.5 -78t-116.5 -193.5t-74 -243t-28 -230.5q0 -242 121 -242q87 0 167.5 129t125.5 305t45 328z" />
    <glyph glyph-name="ntilde" unicode="&#xf1;" horiz-adv-x="1239" 
d="M584 1106l-138 -506q110 214 261.5 360t291.5 146q76 0 113 -42t37 -118q0 -34 -14 -102l-156 -578q-18 -67 -18 -86q0 -30 28 -30q54 0 174 149l41 -33q-108 -154 -186 -220t-172 -66q-78 0 -122 45.5t-44 119.5q0 65 29 172l139 494q12 50 12 66q0 41 -37 41
q-31 0 -77.5 -31.5t-100 -91t-104 -135.5t-95 -174.5t-69.5 -198.5l-74 -287h-278l227 905l-117 72l10 41l396 88h43zM924 1235q-39 0 -77 18.5t-63.5 41t-58.5 41t-63 18.5q-41 0 -75 -28t-75 -87l-51 31q72 140 125.5 197t128.5 57q39 0 76.5 -18.5t63 -41t58 -41
t62.5 -18.5q42 0 76 27.5t73 87.5l54 -31q-72 -140 -125.5 -197t-128.5 -57z" />
    <glyph glyph-name="ograve" unicode="&#xf2;" horiz-adv-x="1085" 
d="M313 285q0 -234 123 -234q64 0 127 76.5t108 190t73 244.5t28 239q0 233 -123 233q-64 0 -127 -76.5t-108 -190t-73 -244.5t-28 -238zM1044 702q0 -131 -48 -260.5t-129 -232t-198.5 -166t-246.5 -63.5q-174 0 -277.5 106t-103.5 295q0 104 30.5 209.5t87.5 197.5
t132.5 163.5t172.5 113t200 41.5q174 0 277 -107t103 -297zM385 1563h274l91 -340h-70l-295 325v15z" />
    <glyph glyph-name="oacute" unicode="&#xf3;" horiz-adv-x="1085" 
d="M815 1563h293v-15l-401 -325h-72zM313 285q0 -234 123 -234q64 0 127 76.5t108 190t73 244.5t28 239q0 233 -123 233q-64 0 -127 -76.5t-108 -190t-73 -244.5t-28 -238zM1044 702q0 -131 -48 -260.5t-129 -232t-198.5 -166t-246.5 -63.5q-174 0 -277.5 106t-103.5 295
q0 104 30.5 209.5t87.5 197.5t132.5 163.5t172.5 113t200 41.5q174 0 277 -107t103 -297z" />
    <glyph glyph-name="ocircumflex" unicode="&#xf4;" horiz-adv-x="1085" 
d="M862 1567l158 -350h-82l-203 196l-286 -196h-93l308 350h198zM313 285q0 -234 123 -234q64 0 127 76.5t108 190t73 244.5t28 239q0 233 -123 233q-64 0 -127 -76.5t-108 -190t-73 -244.5t-28 -238zM1044 702q0 -131 -48 -260.5t-129 -232t-198.5 -166t-246.5 -63.5
q-174 0 -277.5 106t-103.5 295q0 104 30.5 209.5t87.5 197.5t132.5 163.5t172.5 113t200 41.5q174 0 277 -107t103 -297z" />
    <glyph glyph-name="otilde" unicode="&#xf5;" horiz-adv-x="1085" 
d="M313 285q0 -234 123 -234q64 0 127 76.5t108 190t73 244.5t28 239q0 233 -123 233q-64 0 -127 -76.5t-108 -190t-73 -244.5t-28 -238zM1044 702q0 -131 -48 -260.5t-129 -232t-198.5 -166t-246.5 -63.5q-174 0 -277.5 106t-103.5 295q0 104 30.5 209.5t87.5 197.5
t132.5 163.5t172.5 113t200 41.5q174 0 277 -107t103 -297zM840 1235q-39 0 -77 18.5t-63.5 41t-58.5 41t-63 18.5q-41 0 -75 -28t-75 -87l-51 31q72 140 125.5 197t128.5 57q39 0 76.5 -18.5t63 -41t58 -41t62.5 -18.5q42 0 76 27.5t73 87.5l54 -31q-72 -140 -125.5 -197
t-128.5 -57z" />
    <glyph glyph-name="odieresis" unicode="&#xf6;" horiz-adv-x="1085" 
d="M539 1237q-63 0 -103.5 40.5t-40.5 100.5q0 64 45 110t111 46q63 0 103 -40.5t40 -98.5q0 -64 -44.5 -111t-110.5 -47zM915 1237q-63 0 -102 40.5t-39 100.5q0 64 44 110t110 46q63 0 103 -40.5t40 -98.5q0 -65 -44.5 -111.5t-111.5 -46.5zM313 285q0 -234 123 -234
q64 0 127 76.5t108 190t73 244.5t28 239q0 233 -123 233q-64 0 -127 -76.5t-108 -190t-73 -244.5t-28 -238zM1044 702q0 -131 -48 -260.5t-129 -232t-198.5 -166t-246.5 -63.5q-174 0 -277.5 106t-103.5 295q0 104 30.5 209.5t87.5 197.5t132.5 163.5t172.5 113t200 41.5
q174 0 277 -107t103 -297z" />
    <glyph glyph-name="divide" unicode="&#xf7;" horiz-adv-x="1165" 
d="M150 696l26 123h903l-26 -123h-903zM424 416q0 47 34 80.5t81 33.5q46 0 80 -33.5t34 -80.5t-34 -81t-80 -34q-47 0 -81 34t-34 81zM573 1102q0 46 33.5 79t79.5 33q47 0 82 -33t35 -79q0 -47 -35 -81t-82 -34q-46 0 -79.5 34t-33.5 81z" />
    <glyph glyph-name="oslash" unicode="&#xf8;" horiz-adv-x="1085" 
d="M422 -20q-142 0 -236 67l-92 -113l-57 41l96 119q-92 106 -92 287q0 104 30.5 209.5t87.5 197.5t132.5 163.5t172.5 113t200 41.5q138 0 235 -72l84 105l57 -43l-88 -109q92 -109 92 -285q0 -131 -48 -260.5t-129 -232t-198.5 -166t-246.5 -63.5zM649 1034
q-62 0 -125 -72.5t-108 -181.5t-74.5 -236t-32.5 -235l463 570q-20 155 -123 155zM436 51q62 0 124 71.5t107 179.5t75 234t34 234l-463 -567q20 -152 123 -152z" />
    <glyph glyph-name="ugrave" unicode="&#xf9;" horiz-adv-x="1241" 
d="M815 809l64 262l290 16l-202 -821q-19 -74 -19 -86q0 -30 29 -30t70 35t106 114l39 -33q-105 -153 -184 -219.5t-172 -66.5q-79 0 -122.5 45t-43.5 122q0 76 69 326q-48 -100 -105.5 -187t-122 -156.5t-135 -109.5t-136.5 -40q-84 0 -131.5 51.5t-47.5 130.5q0 42 17 112
l162 631l-117 72l10 41l395 88h43l-206 -805q-17 -66 -17 -90q0 -49 47 -49q40 0 98.5 51.5t118 136.5t115.5 208t88 251zM440 1563h275l90 -340h-70l-295 325v15z" />
    <glyph glyph-name="uacute" unicode="&#xfa;" horiz-adv-x="1241" 
d="M868 1563h293v-15l-401 -325h-72zM815 809l64 262l290 16l-202 -821q-19 -74 -19 -86q0 -30 29 -30t70 35t106 114l39 -33q-105 -153 -184 -219.5t-172 -66.5q-79 0 -122.5 45t-43.5 122q0 76 69 326q-48 -100 -105.5 -187t-122 -156.5t-135 -109.5t-136.5 -40
q-84 0 -131.5 51.5t-47.5 130.5q0 42 17 112l162 631l-117 72l10 41l395 88h43l-206 -805q-17 -66 -17 -90q0 -49 47 -49q40 0 98.5 51.5t118 136.5t115.5 208t88 251z" />
    <glyph glyph-name="ucircumflex" unicode="&#xfb;" horiz-adv-x="1241" 
d="M924 1567l157 -350h-82l-202 196l-287 -196h-92l307 350h199zM815 809l64 262l290 16l-202 -821q-19 -74 -19 -86q0 -30 29 -30t70 35t106 114l39 -33q-105 -153 -184 -219.5t-172 -66.5q-79 0 -122.5 45t-43.5 122q0 76 69 326q-48 -100 -105.5 -187t-122 -156.5
t-135 -109.5t-136.5 -40q-84 0 -131.5 51.5t-47.5 130.5q0 42 17 112l162 631l-117 72l10 41l395 88h43l-206 -805q-17 -66 -17 -90q0 -49 47 -49q40 0 98.5 51.5t118 136.5t115.5 208t88 251z" />
    <glyph glyph-name="udieresis" unicode="&#xfc;" horiz-adv-x="1241" 
d="M580 1237q-63 0 -103.5 40.5t-40.5 100.5q0 64 45 110t111 46q63 0 103 -40.5t40 -98.5q0 -64 -44.5 -111t-110.5 -47zM956 1237q-63 0 -102 40.5t-39 100.5q0 64 44 110t110 46q63 0 103 -40.5t40 -98.5q0 -65 -44.5 -111.5t-111.5 -46.5zM815 809l64 262l290 16
l-202 -821q-19 -74 -19 -86q0 -30 29 -30t70 35t106 114l39 -33q-105 -153 -184 -219.5t-172 -66.5q-79 0 -122.5 45t-43.5 122q0 76 69 326q-48 -100 -105.5 -187t-122 -156.5t-135 -109.5t-136.5 -40q-84 0 -131.5 51.5t-47.5 130.5q0 42 17 112l162 631l-117 72l10 41
l395 88h43l-206 -805q-17 -66 -17 -90q0 -49 47 -49q40 0 98.5 51.5t118 136.5t115.5 208t88 251z" />
    <glyph glyph-name="yacute" unicode="&#xfd;" horiz-adv-x="1042" 
d="M154 918l-121 65l12 37l342 86h23l165 -969l58 82q134 200 181.5 322.5t47.5 232.5q0 97 -56.5 143.5t-148.5 40.5l2 25q34 50 88 86.5t117 36.5q95 0 141 -57.5t46 -143.5q0 -117 -90.5 -287t-284.5 -452q-123 -177 -223 -296t-184 -186t-153 -94.5t-141 -27.5
q-85 0 -142.5 44.5t-57.5 127.5q0 56 36 99t93 58h20q0 -92 39.5 -143t114.5 -51q69 0 133.5 35t148.5 127zM811 1563h293v-15l-402 -325h-71z" />
    <glyph glyph-name="thorn" unicode="&#xfe;" horiz-adv-x="1193" 
d="M782 913q-70 0 -164.5 -102.5t-181 -280t-127.5 -370.5q17 -44 55.5 -70.5t84.5 -26.5q104 0 202.5 113t156 274.5t58.5 309.5q0 153 -84 153zM672 1604l-260 -1014q63 135 144 248.5t180.5 190.5t189.5 77q110 0 168.5 -81t58.5 -228q0 -158 -58.5 -310t-152 -262
t-215 -177.5t-242.5 -67.5q-135 0 -196 83l-82 -321q-8 -27 -8 -47q0 -34 36 -46.5t136 -15.5l-15 -67h-594l15 67q76 5 105 21.5t42 69.5l424 1689l-123 62l11 43l393 86h43z" />
    <glyph glyph-name="ydieresis" unicode="&#xff;" horiz-adv-x="1042" 
d="M154 918l-121 65l12 37l342 86h23l165 -969l58 82q134 200 181.5 322.5t47.5 232.5q0 97 -56.5 143.5t-148.5 40.5l2 25q34 50 88 86.5t117 36.5q95 0 141 -57.5t46 -143.5q0 -117 -90.5 -287t-284.5 -452q-123 -177 -223 -296t-184 -186t-153 -94.5t-141 -27.5
q-85 0 -142.5 44.5t-57.5 127.5q0 56 36 99t93 58h20q0 -92 39.5 -143t114.5 -51q69 0 133.5 35t148.5 127zM498 1237q-63 0 -103.5 40.5t-40.5 100.5q0 64 45 110t111 46q63 0 103 -40.5t40 -98.5q0 -64 -44.5 -111t-110.5 -47zM874 1237q-63 0 -102 40.5t-39 100.5
q0 64 44 110t110 46q63 0 103 -40.5t40 -98.5q0 -65 -44.5 -111.5t-111.5 -46.5z" />
    <glyph glyph-name="Amacron" unicode="&#x100;" horiz-adv-x="1476" 
d="M950 242l-45 231h-551l-137 -229q-37 -66 -37 -101q0 -36 37.5 -52t122.5 -19l-14 -72h-430l14 72q49 5 80.5 20.5t54.5 54.5l698 1151l-30 150h307l250 -1301q7 -38 32.5 -54t73.5 -21l-16 -72h-615l15 72q38 1 63.5 3.5t53 10t43 19t26 31.5t10.5 48q0 20 -6 58z
M774 1176l-368 -615h483zM618 1561l29 139h576l-29 -139h-576z" />
    <glyph glyph-name="amacron" unicode="&#x101;" horiz-adv-x="1226" 
d="M403 174q104 0 236.5 213.5t220.5 548.5q-14 43 -49 69.5t-80 26.5q-79 0 -156 -66t-133 -168t-90.5 -229t-34.5 -245q0 -150 86 -150zM666 147q0 41 20.5 132.5t46.5 171.5q-103 -215 -221.5 -343t-243.5 -128q-109 0 -170 83t-61 230q0 150 55 298.5t145 261.5t213 183
t252 70q139 0 230 -94l192 102h60l-78 -252l-143 -596q-19 -70 -19 -86q0 -30 29 -30q54 0 174 149l41 -33q-108 -154 -186.5 -220t-172.5 -66q-77 0 -120 45t-43 122zM553 1278l29 139h551l-29 -139h-551z" />
    <glyph glyph-name="Abreve" unicode="&#x102;" horiz-adv-x="1476" 
d="M950 242l-45 231h-551l-137 -229q-37 -66 -37 -101q0 -36 37.5 -52t122.5 -19l-14 -72h-430l14 72q49 5 80.5 20.5t54.5 54.5l698 1151l-30 150h307l250 -1301q7 -38 32.5 -54t73.5 -21l-16 -72h-615l15 72q38 1 63.5 3.5t53 10t43 19t26 31.5t10.5 48q0 20 -6 58z
M774 1176l-368 -615h483zM897 1524q-130 0 -190.5 81t-26.5 238h76q-8 -89 37.5 -126.5t132.5 -37.5q89 0 151 37t92 127h80q-36 -160 -126.5 -239.5t-225.5 -79.5z" />
    <glyph glyph-name="abreve" unicode="&#x103;" horiz-adv-x="1226" 
d="M403 174q104 0 236.5 213.5t220.5 548.5q-14 43 -49 69.5t-80 26.5q-79 0 -156 -66t-133 -168t-90.5 -229t-34.5 -245q0 -150 86 -150zM666 147q0 41 20.5 132.5t46.5 171.5q-103 -215 -221.5 -343t-243.5 -128q-109 0 -170 83t-61 230q0 150 55 298.5t145 261.5t213 183
t252 70q139 0 230 -94l192 102h60l-78 -252l-143 -596q-19 -70 -19 -86q0 -30 29 -30q54 0 174 149l41 -33q-108 -154 -186.5 -220t-172.5 -66q-77 0 -120 45t-43 122zM825 1223q-131 0 -187 86.5t-20 246.5h78q-11 -93 31.5 -133.5t130.5 -40.5q184 0 238 174h78
q-37 -163 -125.5 -248t-223.5 -85z" />
    <glyph glyph-name="Aogonek" unicode="&#x104;" horiz-adv-x="1476" 
d="M950 242l-45 231h-551l-137 -229q-37 -66 -37 -101q0 -36 37.5 -52t122.5 -19l-14 -72h-430l14 72q49 5 80.5 20.5t54.5 54.5l698 1151l-30 150h307l250 -1301q7 -38 32.5 -54t73.5 -21l-16 -72h-551q-203 -87 -203 -227q0 -39 25 -63.5t67 -24.5q78 0 176 79l21 -32
q-73 -78 -144 -123t-159 -45q-74 0 -121 39t-47 110q0 109 86 188.5t244 141.5q19 7 48.5 18t44.5 17t36 15.5t31.5 17.5t21.5 19t15.5 24.5t4.5 29.5q0 20 -6 58zM774 1176l-368 -615h483z" />
    <glyph glyph-name="aogonek" unicode="&#x105;" horiz-adv-x="1226" 
d="M1188 266q-53 -72 -119 -140t-116.5 -112t-95 -85.5t-69 -80t-24.5 -77.5t25 -62.5t67 -23.5q81 0 176 79l21 -32q-73 -78 -144 -123t-157 -45q-74 0 -121 38t-47 107q0 36 14 69.5t35.5 60.5t55 54t64 46.5t70.5 42.5q-75 3 -116 46.5t-41 118.5q0 41 20.5 132.5
t46.5 171.5q-103 -215 -221.5 -343t-243.5 -128q-109 0 -170 83t-61 230q0 150 55 298.5t145 261.5t213 183t252 70q139 0 230 -94l192 102h60l-78 -252l-143 -596q-19 -70 -19 -86q0 -30 29 -30q54 0 174 149zM403 174q104 0 236.5 213.5t220.5 548.5q-14 43 -49 69.5
t-80 26.5q-79 0 -156 -66t-133 -168t-90.5 -229t-34.5 -245q0 -150 86 -150z" />
    <glyph glyph-name="Cacute" unicode="&#x106;" horiz-adv-x="1361" 
d="M965 1458q134 0 249 -33t189 -90l-66 -327h-75q-2 179 -75 273.5t-214 94.5q-92 0 -175 -39.5t-145 -106.5t-111.5 -153.5t-80.5 -183t-47.5 -192.5t-16.5 -185q0 -218 74 -334t221 -116q153 0 274 102t222 319h88l-115 -389q-213 -118 -479 -118q-282 0 -440 157
t-158 422q0 139 41.5 272.5t121 246t186 198t244 134t288.5 48.5zM1116 1835h299v-14l-379 -291h-71z" />
    <glyph glyph-name="cacute" unicode="&#x107;" horiz-adv-x="913" 
d="M848 1563h293v-15l-402 -325h-71zM641 1034q-83 0 -158.5 -101t-118 -246.5t-42.5 -283.5q0 -123 45.5 -196.5t138.5 -73.5q77 0 140 42.5t140 137.5l39 -37q-80 -133 -192 -214.5t-248 -81.5q-160 0 -252 104.5t-92 273.5q0 136 51 271.5t136.5 240.5t206.5 170.5
t251 65.5q118 0 187 -48t69 -138q0 -60 -35.5 -99t-97.5 -53h-59q19 266 -109 266z" />
    <glyph glyph-name="Ccircumflex" unicode="&#x108;" horiz-adv-x="1361" 
d="M965 1458q134 0 249 -33t189 -90l-66 -327h-75q-2 179 -75 273.5t-214 94.5q-92 0 -175 -39.5t-145 -106.5t-111.5 -153.5t-80.5 -183t-47.5 -192.5t-16.5 -185q0 -218 74 -334t221 -116q153 0 274 102t222 319h88l-115 -389q-213 -118 -479 -118q-282 0 -440 157
t-158 422q0 139 41.5 272.5t121 246t186 198t244 134t288.5 48.5zM1176 1849l157 -319h-82l-202 168l-287 -168h-92l307 319h199z" />
    <glyph glyph-name="ccircumflex" unicode="&#x109;" horiz-adv-x="913" 
d="M879 1567l157 -350h-82l-202 196l-287 -196h-92l307 350h199zM641 1034q-83 0 -158.5 -101t-118 -246.5t-42.5 -283.5q0 -123 45.5 -196.5t138.5 -73.5q77 0 140 42.5t140 137.5l39 -37q-80 -133 -192 -214.5t-248 -81.5q-160 0 -252 104.5t-92 273.5q0 136 51 271.5
t136.5 240.5t206.5 170.5t251 65.5q118 0 187 -48t69 -138q0 -60 -35.5 -99t-97.5 -53h-59q19 266 -109 266z" />
    <glyph glyph-name="Cdotaccent" unicode="&#x10a;" horiz-adv-x="1361" 
d="M1042 1536q-67 0 -109 42.5t-42 102.5q0 68 46 115t118 47q66 0 108.5 -42t42.5 -103q0 -67 -46.5 -114.5t-117.5 -47.5zM965 1458q134 0 249 -33t189 -90l-66 -327h-75q-2 179 -75 273.5t-214 94.5q-92 0 -175 -39.5t-145 -106.5t-111.5 -153.5t-80.5 -183t-47.5 -192.5
t-16.5 -185q0 -218 74 -334t221 -116q153 0 274 102t222 319h88l-115 -389q-213 -118 -479 -118q-282 0 -440 157t-158 422q0 139 41.5 272.5t121 246t186 198t244 134t288.5 48.5z" />
    <glyph glyph-name="cdotaccent" unicode="&#x10b;" horiz-adv-x="913" 
d="M641 1034q-83 0 -158.5 -101t-118 -246.5t-42.5 -283.5q0 -123 45.5 -196.5t138.5 -73.5q77 0 140 42.5t140 137.5l39 -37q-80 -133 -192 -214.5t-248 -81.5q-160 0 -252 104.5t-92 273.5q0 136 51 271.5t136.5 240.5t206.5 170.5t251 65.5q118 0 187 -48t69 -138
q0 -60 -35.5 -99t-97.5 -53h-59q19 266 -109 266zM754 1237q-67 0 -109.5 41.5t-42.5 101.5q0 68 46 115t118 47q66 0 109 -41.5t43 -101.5q0 -67 -46.5 -114.5t-117.5 -47.5z" />
    <glyph glyph-name="Ccaron" unicode="&#x10c;" horiz-adv-x="1361" 
d="M965 1458q134 0 249 -33t189 -90l-66 -327h-75q-2 179 -75 273.5t-214 94.5q-92 0 -175 -39.5t-145 -106.5t-111.5 -153.5t-80.5 -183t-47.5 -192.5t-16.5 -185q0 -218 74 -334t221 -116q153 0 274 102t222 319h88l-115 -389q-213 -118 -479 -118q-282 0 -440 157
t-158 422q0 139 41.5 272.5t121 246t186 198t244 134t288.5 48.5zM918 1530l-158 319h82l202 -168l287 168h92l-307 -319h-198z" />
    <glyph glyph-name="ccaron" unicode="&#x10d;" horiz-adv-x="913" 
d="M614 1223l-157 350h82l202 -197l287 197h92l-307 -350h-199zM641 1034q-83 0 -158.5 -101t-118 -246.5t-42.5 -283.5q0 -123 45.5 -196.5t138.5 -73.5q77 0 140 42.5t140 137.5l39 -37q-80 -133 -192 -214.5t-248 -81.5q-160 0 -252 104.5t-92 273.5q0 136 51 271.5
t136.5 240.5t206.5 170.5t251 65.5q118 0 187 -48t69 -138q0 -60 -35.5 -99t-97.5 -53h-59q19 266 -109 266z" />
    <glyph glyph-name="Dcaron" unicode="&#x10e;" horiz-adv-x="1513" 
d="M805 1530l-158 319h82l203 -168l287 168h92l-307 -319h-199zM584 82h24q161 0 297 111t213.5 296.5t77.5 401.5q0 229 -99 347t-309 118h-88l-239 -1129q-19 -87 9 -116t114 -29zM586 0h-637l16 72q112 12 144 35t49 106l217 1012q6 30 8 50t-3 35.5t-13 24t-28 15
t-40.5 9.5t-58.5 7l16 72h578q305 0 489 -154t184 -424q0 -193 -72 -355.5t-196.5 -272.5t-293 -171t-359.5 -61z" />
    <glyph glyph-name="dcaron" unicode="&#x10f;" horiz-adv-x="1257" 
d="M1673 1587l-311 -403h-55l125 420h245zM406 174q105 0 243.5 215.5t222.5 546.5q-15 43 -51.5 69.5t-81.5 26.5q-107 0 -206.5 -112t-156.5 -273.5t-57 -312.5q0 -160 87 -160zM897 1044l90 369l-121 62l8 43l394 86h43l-328 -1338q-18 -67 -18 -86q0 -30 28 -30
q54 0 174 149l41 -33q-108 -154 -186 -220t-172 -66q-77 0 -120.5 45t-43.5 122q0 41 23 140.5t51 179.5q-67 -138 -145 -245t-169 -174.5t-176 -67.5q-110 0 -171.5 83t-61.5 230q0 150 56.5 298.5t148 261.5t215.5 183t252 70q112 0 188 -62z" />
    <glyph glyph-name="Dcroat" unicode="&#x110;" horiz-adv-x="1513" 
d="M104 686l21 98h156l94 441q6 30 8 50t-3 35.5t-13 24t-28 15t-40.5 9.5t-58.5 7l16 72h578q305 0 489 -154t184 -424q0 -193 -72 -355.5t-196.5 -272.5t-293 -171t-359.5 -61h-637l16 72q112 12 144 35t49 106l100 473h-154zM584 82h24q161 0 297 111t213.5 296.5
t77.5 401.5q0 229 -99 347t-309 118h-88l-122 -572h272l-21 -98h-272l-96 -459q-19 -87 9 -116t114 -29z" />
    <glyph glyph-name="dcroat" unicode="&#x111;" horiz-adv-x="1265" 
d="M897 1044l41 168h-258l20 86h258l29 115l-121 62l8 43l394 86h43l-76 -306h135l-18 -86h-138l-231 -946q-18 -67 -18 -86q0 -30 28 -30q54 0 174 149l41 -33q-108 -154 -186 -220t-172 -66q-77 0 -120.5 45t-43.5 122q0 41 23 140.5t51 179.5q-67 -138 -145 -245
t-169 -174.5t-176 -67.5q-110 0 -171.5 83t-61.5 230q0 150 56.5 298.5t148 261.5t215.5 183t252 70q112 0 188 -62zM406 174q105 0 243.5 215.5t222.5 546.5q-15 43 -51.5 69.5t-81.5 26.5q-107 0 -206.5 -112t-156.5 -273.5t-57 -312.5q0 -160 87 -160z" />
    <glyph glyph-name="Emacron" unicode="&#x112;" horiz-adv-x="1308" 
d="M616 1561l29 139h576l-29 -139h-576zM1092 0h-1143l16 72q112 12 144 35t49 106l217 1012q6 30 8 50t-3 35.5t-13 24t-28 15t-40.5 9.5t-58.5 7l16 72h1122l-69 -369h-58q-36 172 -84 229.5t-168 57.5h-299l-120 -570h260q66 0 104.5 42.5t77.5 146.5h72l-99 -465h-73
q6 102 -15 144t-86 42h-260l-102 -475q-18 -80 18.5 -109.5t134.5 -29.5h129q50 0 91.5 12t75.5 31.5t78.5 65t81.5 90t103 129.5h72z" />
    <glyph glyph-name="emacron" unicode="&#x113;" horiz-adv-x="950" 
d="M961 887q0 -72 -35 -130.5t-90.5 -99t-142 -74t-172.5 -55t-199 -41.5q-3 -35 -3 -63q0 -137 57 -211t159 -74q81 0 154 46t149 139l43 -35q-102 -154 -219.5 -231.5t-262.5 -77.5q-162 0 -259 107t-97 284q0 134 51 267t135.5 236.5t204.5 167.5t250 64q135 0 206 -62
t71 -157zM649 1032q-73 0 -141.5 -73.5t-114 -184.5t-63.5 -231q207 47 309 141t102 238q0 50 -22.5 80t-69.5 30zM446 1278l29 139h551l-29 -139h-551z" />
    <glyph glyph-name="Ebreve" unicode="&#x114;" horiz-adv-x="1308" 
d="M909 1524q-130 0 -190.5 81t-26.5 238h76q-8 -89 37.5 -126.5t132.5 -37.5q188 0 244 164h80q-36 -160 -127 -239.5t-226 -79.5zM1092 0h-1143l16 72q112 12 144 35t49 106l217 1012q6 30 8 50t-3 35.5t-13 24t-28 15t-40.5 9.5t-58.5 7l16 72h1122l-69 -369h-58
q-36 172 -84 229.5t-168 57.5h-299l-120 -570h260q66 0 104.5 42.5t77.5 146.5h72l-99 -465h-73q6 102 -15 144t-86 42h-260l-102 -475q-18 -80 18.5 -109.5t134.5 -29.5h129q50 0 91.5 12t75.5 31.5t78.5 65t81.5 90t103 129.5h72z" />
    <glyph glyph-name="ebreve" unicode="&#x115;" horiz-adv-x="950" 
d="M961 887q0 -72 -35 -130.5t-90.5 -99t-142 -74t-172.5 -55t-199 -41.5q-3 -35 -3 -63q0 -137 57 -211t159 -74q81 0 154 46t149 139l43 -35q-102 -154 -219.5 -231.5t-262.5 -77.5q-162 0 -259 107t-97 284q0 134 51 267t135.5 236.5t204.5 167.5t250 64q135 0 206 -62
t71 -157zM649 1032q-73 0 -141.5 -73.5t-114 -184.5t-63.5 -231q207 47 309 141t102 238q0 50 -22.5 80t-69.5 30zM711 1223q-131 0 -187 86.5t-20 246.5h78q-11 -93 31.5 -133.5t129.5 -40.5q184 0 238 174h78q-37 -163 -125 -248t-223 -85z" />
    <glyph glyph-name="Edotaccent" unicode="&#x116;" horiz-adv-x="1308" 
d="M926 1536q-67 0 -109.5 42.5t-42.5 102.5q0 68 46 115t118 47q66 0 109 -42t43 -103q0 -67 -46.5 -114.5t-117.5 -47.5zM1092 0h-1143l16 72q112 12 144 35t49 106l217 1012q6 30 8 50t-3 35.5t-13 24t-28 15t-40.5 9.5t-58.5 7l16 72h1122l-69 -369h-58
q-36 172 -84 229.5t-168 57.5h-299l-120 -570h260q66 0 104.5 42.5t77.5 146.5h72l-99 -465h-73q6 102 -15 144t-86 42h-260l-102 -475q-18 -80 18.5 -109.5t134.5 -29.5h129q50 0 91.5 12t75.5 31.5t78.5 65t81.5 90t103 129.5h72z" />
    <glyph glyph-name="edotaccent" unicode="&#x117;" horiz-adv-x="950" 
d="M961 887q0 -72 -35 -130.5t-90.5 -99t-142 -74t-172.5 -55t-199 -41.5q-3 -35 -3 -63q0 -137 57 -211t159 -74q81 0 154 46t149 139l43 -35q-102 -154 -219.5 -231.5t-262.5 -77.5q-162 0 -259 107t-97 284q0 134 51 267t135.5 236.5t204.5 167.5t250 64q135 0 206 -62
t71 -157zM649 1032q-73 0 -141.5 -73.5t-114 -184.5t-63.5 -231q207 47 309 141t102 238q0 50 -22.5 80t-69.5 30zM752 1237q-67 0 -109.5 41.5t-42.5 101.5q0 68 46 115t118 47q66 0 108.5 -41.5t42.5 -101.5q0 -67 -46 -114.5t-117 -47.5z" />
    <glyph glyph-name="Eogonek" unicode="&#x118;" horiz-adv-x="1308" 
d="M1092 0h-203q-193 -109 -193 -227q0 -39 24.5 -63.5t65.5 -24.5q82 0 177 79l20 -32q-70 -77 -142 -122.5t-159 -45.5q-74 0 -121 38t-47 107q0 94 75 163t206 128h-846l16 72q112 12 144 35t49 106l217 1012q6 30 8 50t-3 35.5t-13 24t-28 15t-40.5 9.5t-58.5 7l16 72
h1122l-69 -369h-58q-36 172 -84 229.5t-168 57.5h-299l-120 -570h260q66 0 104.5 42.5t77.5 146.5h72l-99 -465h-73q6 102 -15 144t-86 42h-260l-102 -475q-18 -80 18.5 -109.5t134.5 -29.5h129q50 0 91.5 12t75.5 31.5t78.5 65t81.5 90t103 129.5h72z" />
    <glyph glyph-name="eogonek" unicode="&#x119;" horiz-adv-x="950" 
d="M420 -20q-163 0 -270 108t-107 283q0 134 51 267t135.5 236.5t204.5 167.5t250 64q135 0 206 -62t71 -157q0 -72 -35 -130.5t-90.5 -99t-142 -74t-172.5 -55t-199 -41.5q-3 -35 -3 -63q0 -138 57.5 -212.5t162.5 -74.5q78 0 151.5 46t153.5 139l39 -33
q-123 -180 -314 -279q-87 -42 -135.5 -103t-48.5 -134q0 -39 25 -63.5t67 -24.5q78 0 176 79l21 -32q-73 -78 -144 -123t-159 -45q-74 0 -121 38t-47 107q0 80 59 145.5t158 125.5zM649 1032q-73 0 -141.5 -73.5t-114 -184.5t-63.5 -231q207 47 309 141t102 238
q0 50 -22.5 80t-69.5 30z" />
    <glyph glyph-name="Ecaron" unicode="&#x11a;" horiz-adv-x="1308" 
d="M801 1530l-158 319h82l203 -168l286 168h93l-308 -319h-198zM1092 0h-1143l16 72q112 12 144 35t49 106l217 1012q6 30 8 50t-3 35.5t-13 24t-28 15t-40.5 9.5t-58.5 7l16 72h1122l-69 -369h-58q-36 172 -84 229.5t-168 57.5h-299l-120 -570h260q66 0 104.5 42.5
t77.5 146.5h72l-99 -465h-73q6 102 -15 144t-86 42h-260l-102 -475q-18 -80 18.5 -109.5t134.5 -29.5h129q50 0 91.5 12t75.5 31.5t78.5 65t81.5 90t103 129.5h72z" />
    <glyph glyph-name="ecaron" unicode="&#x11b;" horiz-adv-x="950" 
d="M961 887q0 -72 -35 -130.5t-90.5 -99t-142 -74t-172.5 -55t-199 -41.5q-3 -35 -3 -63q0 -137 57 -211t159 -74q81 0 154 46t149 139l43 -35q-102 -154 -219.5 -231.5t-262.5 -77.5q-162 0 -259 107t-97 284q0 134 51 267t135.5 236.5t204.5 167.5t250 64q135 0 206 -62
t71 -157zM649 1032q-73 0 -141.5 -73.5t-114 -184.5t-63.5 -231q207 47 309 141t102 238q0 50 -22.5 80t-69.5 30zM598 1223l-158 350h82l203 -197l287 197h92l-307 -350h-199z" />
    <glyph glyph-name="Gcircumflex" unicode="&#x11c;" horiz-adv-x="1476" 
d="M715 66q132 0 213 55l76 340q6 30 8 50t-3 35.5t-13 24t-28.5 15.5t-41 10t-58.5 8l17 70h594l-17 -70q-98 -7 -128 -33t-48 -110l-72 -340q-126 -70 -245.5 -105.5t-268.5 -35.5q-285 0 -450.5 155.5t-165.5 417.5q0 174 68 338.5t184 289.5t283.5 201t355.5 76
q132 0 250.5 -34t193.5 -89l-67 -327h-74q-2 178 -76.5 273t-218.5 95q-92 0 -176 -40t-146.5 -107.5t-113.5 -155t-83.5 -184.5t-49.5 -194t-17 -185q0 -214 84 -329t234 -115zM1194 1849l158 -319h-82l-203 168l-287 -168h-92l307 319h199z" />
    <glyph glyph-name="gcircumflex" unicode="&#x11d;" horiz-adv-x="1026" 
d="M967 795q0 -127 -69 -226t-182.5 -150.5t-250.5 -51.5q-85 0 -146 20q-63 -37 -63 -78q0 -16 11.5 -28t23.5 -16.5t37 -12.5l342 -90q129 -33 200.5 -92t71.5 -164q0 -113 -80 -196.5t-212.5 -125t-297.5 -41.5q-135 0 -252 34t-190.5 99.5t-73.5 149.5q0 172 314 227
q-70 54 -70 133q0 136 192 222q-78 40 -120.5 111t-42.5 163q0 125 68 223t181 149.5t248 51.5q89 0 170 -33l369 12l-35 -122h-96l-117 18q70 -82 70 -186zM567 -94l-381 112q-149 -57 -149 -180q0 -97 91.5 -157t240.5 -60q155 0 243 45t88 117q0 49 -30 74t-103 49z
M709 856q0 81 -26.5 131.5t-84.5 50.5q-92 0 -162.5 -127.5t-70.5 -296.5q0 -81 26 -130.5t84 -49.5q60 0 114.5 58t87 156t32.5 208zM858 1567l158 -350h-82l-203 196l-287 -196h-92l307 350h199z" />
    <glyph glyph-name="Gbreve" unicode="&#x11e;" horiz-adv-x="1476" 
d="M1044 1524q-130 0 -190.5 81t-26.5 238h76q-8 -89 37.5 -126.5t132.5 -37.5q188 0 244 164h80q-36 -160 -127 -239.5t-226 -79.5zM715 66q132 0 213 55l76 340q6 30 8 50t-3 35.5t-13 24t-28.5 15.5t-41 10t-58.5 8l17 70h594l-17 -70q-98 -7 -128 -33t-48 -110l-72 -340
q-126 -70 -245.5 -105.5t-268.5 -35.5q-285 0 -450.5 155.5t-165.5 417.5q0 174 68 338.5t184 289.5t283.5 201t355.5 76q132 0 250.5 -34t193.5 -89l-67 -327h-74q-2 178 -76.5 273t-218.5 95q-92 0 -176 -40t-146.5 -107.5t-113.5 -155t-83.5 -184.5t-49.5 -194t-17 -185
q0 -214 84 -329t234 -115z" />
    <glyph glyph-name="gbreve" unicode="&#x11f;" horiz-adv-x="1026" 
d="M967 795q0 -127 -69 -226t-182.5 -150.5t-250.5 -51.5q-85 0 -146 20q-63 -37 -63 -78q0 -16 11.5 -28t23.5 -16.5t37 -12.5l342 -90q129 -33 200.5 -92t71.5 -164q0 -113 -80 -196.5t-212.5 -125t-297.5 -41.5q-135 0 -252 34t-190.5 99.5t-73.5 149.5q0 172 314 227
q-70 54 -70 133q0 136 192 222q-78 40 -120.5 111t-42.5 163q0 125 68 223t181 149.5t248 51.5q89 0 170 -33l369 12l-35 -122h-96l-117 18q70 -82 70 -186zM567 -94l-381 112q-149 -57 -149 -180q0 -97 91.5 -157t240.5 -60q155 0 243 45t88 117q0 49 -30 74t-103 49z
M709 856q0 81 -26.5 131.5t-84.5 50.5q-92 0 -162.5 -127.5t-70.5 -296.5q0 -81 26 -130.5t84 -49.5q60 0 114.5 58t87 156t32.5 208zM684 1223q-131 0 -187 86.5t-20 246.5h78q-11 -93 31.5 -133.5t130.5 -40.5q183 0 237 174h78q-37 -163 -125 -248t-223 -85z" />
    <glyph glyph-name="Gdotaccent" unicode="&#x120;" horiz-adv-x="1476" 
d="M1061 1536q-67 0 -109.5 42.5t-42.5 102.5q0 68 46 115t118 47q66 0 109 -42t43 -103q0 -67 -46.5 -114.5t-117.5 -47.5zM715 66q132 0 213 55l76 340q6 30 8 50t-3 35.5t-13 24t-28.5 15.5t-41 10t-58.5 8l17 70h594l-17 -70q-98 -7 -128 -33t-48 -110l-72 -340
q-126 -70 -245.5 -105.5t-268.5 -35.5q-285 0 -450.5 155.5t-165.5 417.5q0 174 68 338.5t184 289.5t283.5 201t355.5 76q132 0 250.5 -34t193.5 -89l-67 -327h-74q-2 178 -76.5 273t-218.5 95q-92 0 -176 -40t-146.5 -107.5t-113.5 -155t-83.5 -184.5t-49.5 -194t-17 -185
q0 -214 84 -329t234 -115z" />
    <glyph glyph-name="gdotaccent" unicode="&#x121;" horiz-adv-x="1026" 
d="M967 795q0 -127 -69 -226t-182.5 -150.5t-250.5 -51.5q-85 0 -146 20q-63 -37 -63 -78q0 -16 11.5 -28t23.5 -16.5t37 -12.5l342 -90q129 -33 200.5 -92t71.5 -164q0 -113 -80 -196.5t-212.5 -125t-297.5 -41.5q-135 0 -252 34t-190.5 99.5t-73.5 149.5q0 172 314 227
q-70 54 -70 133q0 136 192 222q-78 40 -120.5 111t-42.5 163q0 125 68 223t181 149.5t248 51.5q89 0 170 -33l369 12l-35 -122h-96l-117 18q70 -82 70 -186zM567 -94l-381 112q-149 -57 -149 -180q0 -97 91.5 -157t240.5 -60q155 0 243 45t88 117q0 49 -30 74t-103 49z
M709 856q0 81 -26.5 131.5t-84.5 50.5q-92 0 -162.5 -127.5t-70.5 -296.5q0 -81 26 -130.5t84 -49.5q60 0 114.5 58t87 156t32.5 208zM717 1237q-67 0 -109.5 41.5t-42.5 101.5q0 68 46 115t118 47q66 0 109 -41.5t43 -101.5q0 -67 -46.5 -114.5t-117.5 -47.5z" />
    <glyph glyph-name="Gcommaaccent" unicode="&#x122;" horiz-adv-x="1476" 
d="M686 -313h-111q-73 18 -73 90q0 62 44.5 100.5t117.5 38.5q70 0 109.5 -40.5t39.5 -108.5q0 -110 -85 -180t-251 -70l6 59q83 0 138 33t65 78zM715 66q132 0 213 55l76 340q6 30 8 50t-3 35.5t-13 24t-28.5 15.5t-41 10t-58.5 8l17 70h594l-17 -70q-98 -7 -128 -33
t-48 -110l-72 -340q-126 -70 -245.5 -105.5t-268.5 -35.5q-285 0 -450.5 155.5t-165.5 417.5q0 174 68 338.5t184 289.5t283.5 201t355.5 76q132 0 250.5 -34t193.5 -89l-67 -327h-74q-2 178 -76.5 273t-218.5 95q-92 0 -176 -40t-146.5 -107.5t-113.5 -155t-83.5 -184.5
t-49.5 -194t-17 -185q0 -214 84 -329t234 -115z" />
    <glyph glyph-name="gcommaaccent" unicode="&#x123;" horiz-adv-x="1026" 
d="M967 795q0 -127 -69 -226t-182.5 -150.5t-250.5 -51.5q-85 0 -146 20q-63 -37 -63 -78q0 -16 11.5 -28t23.5 -16.5t37 -12.5l342 -90q129 -33 200.5 -92t71.5 -164q0 -113 -80 -196.5t-212.5 -125t-297.5 -41.5q-135 0 -252 34t-190.5 99.5t-73.5 149.5q0 172 314 227
q-70 54 -70 133q0 136 192 222q-78 40 -120.5 111t-42.5 163q0 125 68 223t181 149.5t248 51.5q89 0 170 -33l369 12l-35 -122h-96l-117 18q70 -82 70 -186zM567 -94l-381 112q-149 -57 -149 -180q0 -97 91.5 -157t240.5 -60q155 0 243 45t88 117q0 49 -30 74t-103 49z
M709 856q0 81 -26.5 131.5t-84.5 50.5q-92 0 -162.5 -127.5t-70.5 -296.5q0 -81 26 -130.5t84 -49.5q60 0 114.5 58t87 156t32.5 208zM690 1456h111q73 -18 73 -90q0 -62 -44 -100.5t-117 -38.5q-70 0 -110 41t-40 108q0 110 85 180t251 70l-6 -59q-84 0 -138.5 -32.5
t-64.5 -78.5z" />
    <glyph glyph-name="Hcircumflex" unicode="&#x124;" horiz-adv-x="1658" 
d="M158 213l217 1012q6 30 8 50t-3 35.5t-13 24t-28 15t-40.5 9.5t-58.5 7l16 72h627l-15 -72q-112 -12 -143.5 -34.5t-50.5 -106.5l-94 -441h616l94 441q6 30 8 50t-3 35.5t-13 24t-28 15t-40.5 9.5t-58.5 7l16 72h629l-16 -72q-112 -12 -144.5 -34.5t-50.5 -106.5
l-215 -1012q-6 -30 -8.5 -50t2.5 -35.5t12.5 -24t27.5 -15t40.5 -9.5t58.5 -7l-14 -72h-629l17 72q111 12 143 35t49 106l103 473h-617l-100 -473q-6 -30 -8.5 -50t2.5 -35.5t12.5 -24t27.5 -15t40.5 -9.5t58.5 -7l-17 -72h-626l16 72q111 12 143.5 35t49.5 106zM1208 1849
l158 -319h-82l-203 168l-286 -168h-93l308 319h198z" />
    <glyph glyph-name="hcircumflex" unicode="&#x125;" horiz-adv-x="1222" 
d="M680 1604l-250 -1002q110 212 261.5 358t291.5 146q147 0 147 -160q0 -47 -14 -102l-155 -578q-17 -63 -17 -86q0 -30 29 -30q54 0 174 149l41 -33q-107 -153 -186.5 -219.5t-172.5 -66.5q-78 0 -122.5 45.5t-44.5 119.5q0 61 30 172l137 494q13 54 13 66q0 21 -7.5 31
t-27.5 10q-40 0 -103 -50.5t-128 -133t-126 -203t-92 -244.5l-71 -287h-279l350 1413l-122 62l10 43l393 86h41zM1036 1956l158 -320h-82l-203 168l-286 -168h-93l308 320h198z" />
    <glyph glyph-name="Hbar" unicode="&#x126;" horiz-adv-x="1669" 
d="M178 1014l21 98h155l25 113q7 30 9 50t-2.5 35.5t-12.5 24t-28 15t-40.5 9.5t-58.5 7l16 72h627l-15 -72q-112 -12 -143.5 -34.5t-50.5 -106.5l-25 -113h617l24 113q6 30 8 50t-3 35.5t-13 24t-28 15t-40.5 9.5t-58.5 7l17 72h626l-14 -72q-112 -12 -144.5 -34.5
t-50.5 -106.5l-24 -113h170l-21 -98h-170l-170 -801q-6 -30 -8.5 -50t2.5 -35.5t12.5 -24t27.5 -15t40.5 -9.5t58.5 -7l-16 -72h-627l17 72q111 12 143 35t49 106l103 473h-617l-100 -473q-7 -30 -9 -50t2.5 -35.5t12.5 -24t28 -15t40.5 -9.5t58.5 -7l-16 -72h-627l14 72
q112 12 144.5 34.5t50.5 106.5l170 801h-156zM586 784h616l49 230h-616z" />
    <glyph glyph-name="hbar" unicode="&#x127;" horiz-adv-x="1226" 
d="M852 1212h-266l-152 -610q110 212 261.5 358t291.5 146q76 0 113 -42t37 -118q0 -36 -17 -102l-155 -578q-17 -63 -17 -86q0 -30 29 -30q54 0 174 149l41 -33q-107 -153 -186 -219.5t-172 -66.5q-78 0 -123 46t-45 119q0 61 30 172l138 494q12 50 12 66q0 21 -7.5 31
t-27.5 10q-40 0 -102.5 -50.5t-127.5 -133t-125 -203t-91 -244.5l-74 -287h-279l299 1212h-129l19 86h133l28 115l-122 62l10 43l393 86h41l-76 -306h262z" />
    <glyph glyph-name="Itilde" unicode="&#x128;" horiz-adv-x="743" 
d="M158 213l217 1012q6 30 8 50t-3 35.5t-13 24t-28 15t-40.5 9.5t-58.5 7l16 72h627l-15 -72q-112 -12 -143.5 -34.5t-50.5 -106.5l-215 -1012q-6 -30 -8.5 -50t2.5 -35.5t12.5 -24t27.5 -15t40.5 -9.5t58.5 -7l-17 -72h-626l16 72q112 12 144 35t49 106zM731 1534
q-39 0 -77 18.5t-63.5 40t-58.5 40t-63 18.5q-41 0 -75.5 -27.5t-74.5 -87.5l-51 31q71 140 125 197t129 57q39 0 76.5 -18.5t63 -41t58 -41t62.5 -18.5q42 0 76.5 28.5t73.5 88.5l53 -33q-71 -139 -125 -195.5t-129 -56.5z" />
    <glyph glyph-name="itilde" unicode="&#x129;" horiz-adv-x="632" 
d="M575 1235q-33 0 -65 18.5t-53.5 41t-49 41t-51.5 18.5q-39 0 -71 -27.5t-72 -87.5l-49 31q68 140 120 197t122 57q33 0 65 -18.5t53 -41t48.5 -41t52.5 -18.5q40 0 73 28t68 87l51 -31q-68 -140 -120 -197t-122 -57zM86 315l150 590l-117 72l10 41l395 88h43l-211 -840
q-18 -67 -18 -86q0 -30 29 -30t70 35t106 114l39 -33q-105 -153 -184.5 -219.5t-172.5 -66.5q-79 0 -121.5 45t-42.5 120q0 54 25 170z" />
    <glyph glyph-name="Imacron" unicode="&#x12a;" horiz-adv-x="743" 
d="M158 213l217 1012q6 30 8 50t-3 35.5t-13 24t-28 15t-40.5 9.5t-58.5 7l16 72h627l-15 -72q-112 -12 -143.5 -34.5t-50.5 -106.5l-215 -1012q-6 -30 -8.5 -50t2.5 -35.5t12.5 -24t27.5 -15t40.5 -9.5t58.5 -7l-17 -72h-626l16 72q112 12 144 35t49 106zM309 1561l29 139
h575l-28 -139h-576z" />
    <glyph glyph-name="imacron" unicode="&#x12b;" horiz-adv-x="632" 
d="M221 1278l31 139h485l-28 -139h-488zM86 315l150 590l-117 72l10 41l395 88h43l-211 -840q-18 -67 -18 -86q0 -30 29 -30t70 35t106 114l39 -33q-105 -153 -184.5 -219.5t-172.5 -66.5q-79 0 -121.5 45t-42.5 120q0 54 25 170z" />
    <glyph glyph-name="Ibreve" unicode="&#x12c;" horiz-adv-x="743" 
d="M158 213l217 1012q6 30 8 50t-3 35.5t-13 24t-28 15t-40.5 9.5t-58.5 7l16 72h627l-15 -72q-112 -12 -143.5 -34.5t-50.5 -106.5l-215 -1012q-6 -30 -8.5 -50t2.5 -35.5t12.5 -24t27.5 -15t40.5 -9.5t58.5 -7l-17 -72h-626l16 72q112 12 144 35t49 106zM600 1524
q-130 0 -190.5 81t-26.5 238h76q-8 -89 37.5 -126.5t132.5 -37.5q89 0 151 37t92 127h80q-36 -160 -126.5 -239.5t-225.5 -79.5z" />
    <glyph glyph-name="ibreve" unicode="&#x12d;" horiz-adv-x="632" 
d="M86 315l150 590l-117 72l10 41l395 88h43l-211 -840q-18 -67 -18 -86q0 -30 29 -30t70 35t106 114l39 -33q-105 -153 -184.5 -219.5t-172.5 -66.5q-79 0 -121.5 45t-42.5 120q0 54 25 170zM451 1223q-131 0 -187 86.5t-20 246.5h78q-11 -93 31.5 -133.5t129.5 -40.5
q184 0 238 174h78q-37 -163 -125 -248t-223 -85z" />
    <glyph glyph-name="Iogonek" unicode="&#x12e;" horiz-adv-x="743" 
d="M158 213l217 1012q6 30 8 50t-3 35.5t-13 24t-28 15t-40.5 9.5t-58.5 7l16 72h627l-15 -72q-112 -12 -143.5 -34.5t-50.5 -106.5l-215 -1012q-6 -30 -8.5 -50t2.5 -35.5t12.5 -24t27.5 -15t40.5 -9.5t58.5 -7l-17 -72h-213q-192 -108 -192 -227q0 -39 24.5 -63.5
t65.5 -24.5q81 0 176 79l21 -32q-70 -77 -142 -122.5t-159 -45.5q-74 0 -121 38t-47 107q0 94 75 163t205 128h-319l16 72q112 12 144 35t49 106z" />
    <glyph glyph-name="iogonek" unicode="&#x12f;" horiz-adv-x="632" 
d="M485 1231q-69 0 -113 43.5t-44 105.5q0 70 48 119t122 49q69 0 113 -43t44 -106q0 -69 -48.5 -118.5t-121.5 -49.5zM61 145q0 67 25 170l150 590l-117 72l10 41l395 88h43l-211 -840q-18 -67 -18 -86q0 -30 29 -30t70 35t106 114l39 -33q-64 -87 -147.5 -169.5
t-139 -128.5t-95.5 -98t-40 -99q0 -40 24.5 -63t65.5 -23q81 0 176 79l20 -32q-70 -77 -142 -122.5t-159 -45.5q-74 0 -119.5 38t-45.5 107q0 83 64.5 147.5t172.5 125.5q-75 3 -115.5 45.5t-40.5 117.5z" />
    <glyph glyph-name="Idotaccent" unicode="&#x130;" horiz-adv-x="743" 
d="M158 213l217 1012q6 30 8 50t-3 35.5t-13 24t-28 15t-40.5 9.5t-58.5 7l16 72h627l-15 -72q-112 -12 -143.5 -34.5t-50.5 -106.5l-215 -1012q-6 -30 -8.5 -50t2.5 -35.5t12.5 -24t27.5 -15t40.5 -9.5t58.5 -7l-17 -72h-626l16 72q112 12 144 35t49 106zM616 1536
q-67 0 -109 42.5t-42 102.5q0 68 46 115t118 47q66 0 108.5 -42t42.5 -103q0 -67 -46.5 -114.5t-117.5 -47.5z" />
    <glyph glyph-name="dotlessi" unicode="&#x131;" horiz-adv-x="632" 
d="M86 315l150 590l-117 72l10 41l395 88h43l-211 -840q-18 -67 -18 -86q0 -30 29 -30t70 35t106 114l39 -33q-105 -153 -184.5 -219.5t-172.5 -66.5q-79 0 -121.5 45t-42.5 120q0 54 25 170z" />
    <glyph glyph-name="IJ" unicode="&#x132;" horiz-adv-x="1779" 
d="M160 213l217 1012q6 30 8 50t-3 35.5t-13 24t-28 15t-40.5 9.5t-58.5 7l16 72h627l-15 -72q-112 -12 -143.5 -34.5t-50.5 -106.5l-215 -1012q-6 -30 -8.5 -50t2.5 -35.5t12.5 -24t27.5 -15t40.5 -9.5t58.5 -7l-16 -72h-627l16 72q112 12 144 35t49 106zM1243 342l189 883
q6 30 8 50t-2.5 35.5t-12.5 24t-28 15t-40.5 9.5t-58.5 7l15 72h629l-17 -72q-112 -12 -143.5 -34.5t-48.5 -106.5l-177 -819q-50 -227 -187 -326.5t-370 -99.5q-171 0 -273.5 66t-102.5 175q0 65 31.5 116.5t88.5 82.5h197q-51 -120 -51 -209q0 -71 33 -114.5t98 -43.5
q87 0 139.5 69.5t83.5 219.5z" />
    <glyph glyph-name="ij" unicode="&#x133;" horiz-adv-x="1132" 
d="M485 1231q-69 0 -113 43.5t-44 105.5q0 70 48 119t122 49q69 0 113 -43t44 -106q0 -69 -48.5 -118.5t-121.5 -49.5zM86 315l150 590l-117 72l10 41l395 88h43l-211 -840q-18 -67 -18 -86q0 -30 29 -30t70 35t106 114l39 -33q-105 -153 -184.5 -219.5t-172.5 -66.5
q-79 0 -121.5 45t-42.5 120q0 54 25 170zM1135 1106l-205 -862q-85 -361 -217.5 -521.5t-333.5 -160.5q-99 0 -162 40t-63 109q0 62 39.5 98t97.5 44h43q3 -102 27 -161t67 -59q51 0 81.5 73t84.5 294l211 905l-115 72l8 41l394 88h43zM1042 1231q-69 0 -113 43.5t-44 105.5
q0 70 48 119t122 49q69 0 113 -43t44 -106q0 -69 -48.5 -118.5t-121.5 -49.5z" />
    <glyph glyph-name="Jcircumflex" unicode="&#x134;" horiz-adv-x="1105" 
d="M569 342l189 883q6 30 8.5 50t-2.5 35.5t-12.5 24t-27.5 15t-40.5 9.5t-58.5 7l14 72h629l-17 -72q-112 -12 -143.5 -34.5t-48.5 -106.5l-176 -819q-50 -227 -187 -326.5t-370 -99.5q-171 0 -274 66t-103 175q0 65 32 116.5t89 82.5h196q-51 -120 -51 -209
q0 -71 33 -114.5t98 -43.5q87 0 139.5 69.5t83.5 219.5zM1133 1849l157 -319h-82l-202 168l-287 -168h-92l307 319h199z" />
    <glyph glyph-name="jcircumflex" unicode="&#x135;" horiz-adv-x="567" 
d="M569 1106l-204 -862q-85 -361 -217.5 -521.5t-333.5 -160.5q-99 0 -162.5 40t-63.5 109q0 62 40 98t98 44h43q3 -102 27 -161t67 -59q51 0 81.5 73t84.5 294l211 905l-115 72l8 41l393 88h43zM612 1567l158 -350h-82l-203 196l-286 -196h-93l308 350h198z" />
    <glyph glyph-name="Kcommaaccent" unicode="&#x136;" horiz-adv-x="1454" 
d="M643 -313h-111q-73 18 -73 90q0 62 44.5 100.5t117.5 38.5q70 0 109.5 -40.5t39.5 -108.5q0 -110 -85 -180t-251 -70l6 59q83 0 138 33t65 78zM862 817l305 -608q40 -73 80.5 -103t114.5 -34l-14 -72h-379q-23 23 -48.5 61.5t-39.5 63.5t-45 82l-250 500l604 520
q24 21 33.5 30.5t21.5 27.5t12 34q0 25 -26 34.5t-109 12.5l15 72h467l-15 -72q-65 -3 -108.5 -22.5t-98.5 -67.5zM674 1225l-215 -1012q-6 -30 -8.5 -50t2.5 -35.5t12.5 -24t27.5 -15t40.5 -9.5t58.5 -7l-17 -72h-626l16 72q112 12 144 35t49 106l217 1012q6 30 8 50
t-3 35.5t-13 24t-28 15t-40.5 9.5t-58.5 7l14 72h629l-15 -72q-112 -12 -143.5 -34.5t-50.5 -106.5z" />
    <glyph glyph-name="kcommaaccent" unicode="&#x137;" horiz-adv-x="1155" 
d="M432 -313h-110q-74 18 -74 90q0 62 44.5 100.5t117.5 38.5q70 0 109.5 -40.5t39.5 -108.5q0 -110 -85 -180t-251 -70l6 59q83 0 138 33t65 78zM668 715l176 -436q34 -84 49 -102q18 -21 43 -21q29 0 59 28t86 97l41 -33q-97 -144 -168 -206t-157 -62q-78 0 -124 50
t-83 154l-133 387l356 406q62 69 110 99t105 30q71 0 109.5 -42t38.5 -103q0 -118 -138 -170h-18q3 58 -22 95.5t-76 37.5q-43 0 -76 -23t-82 -78zM287 0h-279l350 1413l-120 62l10 43l391 86h43z" />
    <glyph glyph-name="kgreenlandic" unicode="&#x138;" horiz-adv-x="1173" 
d="M684 715l176 -436q36 -83 49 -100q19 -22 43 -23q30 0 59.5 27t88.5 98l39 -33q-95 -143 -167 -205.5t-159 -62.5q-78 0 -123 49.5t-82 154.5l-135 387l358 406q60 68 109 98.5t107 30.5q70 0 108.5 -42t38.5 -103q0 -118 -139 -170h-19q3 57 -21.5 95t-74.5 38
q-43 0 -76 -23t-82 -78zM303 0h-278l227 905l-117 72l10 41l390 88h40z" />
    <glyph glyph-name="Lacute" unicode="&#x139;" horiz-adv-x="1261" 
d="M713 1835h299v-14l-379 -291h-72zM674 1225l-215 -1004q-17 -81 17.5 -110t133.5 -29h88q111 0 203 77.5t246 284.5h70l-164 -444h-1104l16 72q112 12 144 35t49 106l217 1012q6 30 8 50t-3 35.5t-13 24t-28 15t-40.5 9.5t-58.5 7l16 72h627l-17 -72q-111 -12 -143 -35
t-49 -106z" />
    <glyph glyph-name="lacute" unicode="&#x13a;" horiz-adv-x="614" 
d="M637 1937h299v-14l-379 -291h-72zM668 1604l-326 -1338q-18 -67 -18 -86q0 -30 28 -30q56 0 176 149l39 -33q-105 -153 -184 -219.5t-172 -66.5q-78 0 -121 45.5t-43 119.5q0 70 27 170l270 1098l-121 62l10 43l392 86h43z" />
    <glyph glyph-name="Lcommaaccent" unicode="&#x13b;" horiz-adv-x="1261" 
d="M528 -313h-110q-74 18 -74 90q0 62 44.5 100.5t117.5 38.5q70 0 109.5 -40.5t39.5 -108.5q0 -110 -85 -180t-251 -70l7 59q83 0 137.5 33t64.5 78zM674 1225l-215 -1004q-17 -81 17.5 -110t133.5 -29h88q111 0 203 77.5t246 284.5h70l-164 -444h-1104l16 72
q112 12 144 35t49 106l217 1012q6 30 8 50t-3 35.5t-13 24t-28 15t-40.5 9.5t-58.5 7l16 72h627l-17 -72q-111 -12 -143 -35t-49 -106z" />
    <glyph glyph-name="lcommaaccent" unicode="&#x13c;" horiz-adv-x="614" 
d="M170 -313h-111q-73 18 -73 90q0 62 44 100.5t117 38.5q70 0 110 -40.5t40 -108.5q0 -110 -85 -180t-251 -70l6 59q83 0 138 33t65 78zM668 1604l-326 -1338q-18 -67 -18 -86q0 -30 28 -30q56 0 176 149l39 -33q-105 -153 -184 -219.5t-172 -66.5q-78 0 -121 45.5
t-43 119.5q0 70 27 170l270 1098l-121 62l10 43l392 86h43z" />
    <glyph glyph-name="Lcaron" unicode="&#x13d;" horiz-adv-x="1261" 
d="M1286 1421l-311 -403h-55l124 420h246zM674 1225l-215 -1004q-17 -81 17.5 -110t133.5 -29h88q111 0 203 77.5t246 284.5h70l-164 -444h-1104l16 72q112 12 144 35t49 106l217 1012q6 30 8 50t-3 35.5t-13 24t-28 15t-40.5 9.5t-58.5 7l16 72h627l-17 -72
q-111 -12 -143 -35t-49 -106z" />
    <glyph glyph-name="lcaron" unicode="&#x13e;" horiz-adv-x="614" 
d="M1030 1587l-311 -403h-55l124 420h246zM668 1604l-326 -1338q-18 -67 -18 -86q0 -30 28 -30q56 0 176 149l39 -33q-105 -153 -184 -219.5t-172 -66.5q-78 0 -121 45.5t-43 119.5q0 70 27 170l270 1098l-121 62l10 43l392 86h43z" />
    <glyph glyph-name="Ldot" unicode="&#x13f;" horiz-adv-x="1261" 
d="M674 1225l-215 -1004q-17 -81 17.5 -110t133.5 -29h88q111 0 203 77.5t246 284.5h70l-164 -444h-1104l16 72q112 12 144 35t49 106l217 1012q6 30 8 50t-3 35.5t-13 24t-28 15t-40.5 9.5t-58.5 7l16 72h627l-17 -72q-111 -12 -143 -35t-49 -106zM1040 633
q-67 0 -109 41.5t-42 101.5q0 68 46 115t118 47q66 0 108.5 -41.5t42.5 -101.5q0 -67 -46.5 -114.5t-117.5 -47.5z" />
    <glyph glyph-name="ldot" unicode="&#x140;" horiz-adv-x="761" 
d="M668 1604l-326 -1338q-18 -67 -18 -86q0 -30 28 -30q56 0 176 149l39 -33q-105 -153 -184 -219.5t-172 -66.5q-78 0 -121 45.5t-43 119.5q0 70 27 170l270 1098l-121 62l10 43l392 86h43zM700 639q-67 0 -109 41.5t-42 101.5q0 68 46 115t118 47q66 0 108.5 -41.5
t42.5 -101.5q0 -67 -46.5 -114.5t-117.5 -47.5z" />
    <glyph glyph-name="Lslash" unicode="&#x141;" horiz-adv-x="1261" 
d="M844 807l-285 -119l-100 -467q-17 -81 17.5 -110t133.5 -29h88q111 0 203 77.5t246 284.5h70l-164 -444h-1104l16 72q112 12 144 35t49 106l78 369l-177 -74l23 108l178 74l115 535q6 30 8 50t-3 35.5t-13 24t-28 15t-40.5 9.5t-58.5 7l16 72h627l-17 -72
q-111 -12 -143 -35t-49 -106l-92 -426l284 116z" />
    <glyph glyph-name="lslash" unicode="&#x142;" horiz-adv-x="641" 
d="M686 952l-186 -94l-144 -592q-18 -67 -18 -86q0 -30 29 -30t70 35t106 114l39 -33q-105 -153 -184.5 -219.5t-172.5 -66.5q-79 0 -121.5 45t-42.5 120q0 67 25 170l107 435l-154 -76l27 108l153 76l139 555l-120 62l8 43l393 86h43l-156 -637l187 94z" />
    <glyph glyph-name="Nacute" unicode="&#x143;" horiz-adv-x="1519" 
d="M1067 1835h299v-14l-379 -291h-72zM1196 442l164 783q17 81 -22 108t-164 33l14 72h491l-16 -72q-112 -12 -144.5 -34.5t-50.5 -106.5l-260 -1229h-96l-649 1137l-195 -920q-17 -81 22.5 -108t164.5 -33l-15 -72h-491l16 72q112 12 144.5 34.5t50.5 106.5l219 1030
q-39 71 -66 95t-88 28l17 72h403z" />
    <glyph glyph-name="nacute" unicode="&#x144;" horiz-adv-x="1239" 
d="M924 1563h293v-15l-402 -325h-72zM584 1106l-138 -506q110 214 261.5 360t291.5 146q76 0 113 -42t37 -118q0 -34 -14 -102l-156 -578q-18 -67 -18 -86q0 -30 28 -30q54 0 174 149l41 -33q-108 -154 -186 -220t-172 -66q-78 0 -122 45.5t-44 119.5q0 65 29 172l139 494
q12 50 12 66q0 41 -37 41q-31 0 -77.5 -31.5t-100 -91t-104 -135.5t-95 -174.5t-69.5 -198.5l-74 -287h-278l227 905l-117 72l10 41l396 88h43z" />
    <glyph glyph-name="Ncommaaccent" unicode="&#x145;" horiz-adv-x="1519" 
d="M672 -313h-111q-74 18 -74 90q0 62 44.5 100.5t117.5 38.5q70 0 110 -40.5t40 -108.5q0 -110 -85 -180t-251 -70l6 59q83 0 138 33t65 78zM1196 442l164 783q17 81 -22 108t-164 33l14 72h491l-16 -72q-112 -12 -144.5 -34.5t-50.5 -106.5l-260 -1229h-96l-649 1137
l-195 -920q-17 -81 22.5 -108t164.5 -33l-15 -72h-491l16 72q112 12 144.5 34.5t50.5 106.5l219 1030q-39 71 -66 95t-88 28l17 72h403z" />
    <glyph glyph-name="ncommaaccent" unicode="&#x146;" horiz-adv-x="1239" 
d="M506 -313h-111q-73 18 -73 90q0 62 44 100.5t117 38.5q70 0 110 -40.5t40 -108.5q0 -110 -85 -180t-251 -70l6 59q83 0 138 33t65 78zM584 1106l-138 -506q110 214 261.5 360t291.5 146q76 0 113 -42t37 -118q0 -34 -14 -102l-156 -578q-18 -67 -18 -86q0 -30 28 -30
q54 0 174 149l41 -33q-108 -154 -186 -220t-172 -66q-78 0 -122 45.5t-44 119.5q0 65 29 172l139 494q12 50 12 66q0 41 -37 41q-31 0 -77.5 -31.5t-100 -91t-104 -135.5t-95 -174.5t-69.5 -198.5l-74 -287h-278l227 905l-117 72l10 41l396 88h43z" />
    <glyph glyph-name="Ncaron" unicode="&#x147;" horiz-adv-x="1519" 
d="M879 1530l-158 319h82l203 -168l286 168h92l-307 -319h-198zM1196 442l164 783q17 81 -22 108t-164 33l14 72h491l-16 -72q-112 -12 -144.5 -34.5t-50.5 -106.5l-260 -1229h-96l-649 1137l-195 -920q-17 -81 22.5 -108t164.5 -33l-15 -72h-491l16 72q112 12 144.5 34.5
t50.5 106.5l219 1030q-39 71 -66 95t-88 28l17 72h403z" />
    <glyph glyph-name="ncaron" unicode="&#x148;" horiz-adv-x="1239" 
d="M690 1223l-158 350h82l203 -197l287 197h92l-307 -350h-199zM584 1106l-138 -506q110 214 261.5 360t291.5 146q76 0 113 -42t37 -118q0 -34 -14 -102l-156 -578q-18 -67 -18 -86q0 -30 28 -30q54 0 174 149l41 -33q-108 -154 -186 -220t-172 -66q-78 0 -122 45.5
t-44 119.5q0 65 29 172l139 494q12 50 12 66q0 41 -37 41q-31 0 -77.5 -31.5t-100 -91t-104 -135.5t-95 -174.5t-69.5 -198.5l-74 -287h-278l227 905l-117 72l10 41l396 88h43z" />
    <glyph glyph-name="Eng" unicode="&#x14a;" horiz-adv-x="1519" 
d="M1022 150l-559 983l-195 -920q-17 -81 22.5 -108t164.5 -33l-15 -72h-491l16 72q112 12 144.5 34.5t50.5 106.5l219 1030q-39 71 -66 95t-88 28l17 72h403l551 -996l164 783q17 81 -22 108t-164 33l14 72h491l-16 -72q-112 -12 -144.5 -34.5t-50.5 -106.5l-217 -1030
q-27 -124 -60.5 -207t-94 -154.5t-138 -127t-206.5 -126.5l-27 33l86 92q87 97 134.5 203t76.5 242z" />
    <glyph glyph-name="eng" unicode="&#x14b;" horiz-adv-x="1183" 
d="M1135 844l-164 -600q-98 -362 -231 -522t-332 -160q-101 0 -164.5 40t-63.5 109q0 62 40 98t99 44h43q2 -101 26 -160.5t69 -59.5q50 0 83 74.5t91 292.5l217 811q12 50 12 66q0 41 -37 41q-31 0 -77.5 -31.5t-100 -91t-104 -135.5t-95 -174.5t-69.5 -198.5l-74 -287
h-278l227 905l-117 72l10 41l396 88h43l-138 -506q110 214 261.5 360t291.5 146q76 0 113 -42t37 -118q0 -34 -14 -102z" />
    <glyph glyph-name="Omacron" unicode="&#x14c;" horiz-adv-x="1488" 
d="M690 1561l29 139h575l-28 -139h-576zM915 1458q135 0 244 -44.5t179 -121.5t107.5 -179t37.5 -220q0 -132 -37 -263.5t-110 -248t-172 -206.5t-232 -142.5t-281 -52.5q-135 0 -244 44.5t-178.5 121.5t-107 179t-37.5 220q0 132 37 263.5t110 248t171.5 206.5t231.5 142.5
t281 52.5zM909 1374q-79 0 -151 -42.5t-126.5 -114.5t-99.5 -164t-73.5 -193t-44 -199.5t-15.5 -185.5q0 -123 25 -212.5t84 -144.5t149 -55q79 0 151 43t126.5 114.5t99.5 164t73.5 193.5t44 199.5t15.5 185.5q0 189 -62 300t-196 111z" />
    <glyph glyph-name="omacron" unicode="&#x14d;" horiz-adv-x="1085" 
d="M434 1278l29 139h551l-29 -139h-551zM313 285q0 -234 123 -234q64 0 127 76.5t108 190t73 244.5t28 239q0 233 -123 233q-64 0 -127 -76.5t-108 -190t-73 -244.5t-28 -238zM1044 702q0 -131 -48 -260.5t-129 -232t-198.5 -166t-246.5 -63.5q-174 0 -277.5 106t-103.5 295
q0 104 30.5 209.5t87.5 197.5t132.5 163.5t172.5 113t200 41.5q174 0 277 -107t103 -297z" />
    <glyph glyph-name="Obreve" unicode="&#x14e;" horiz-adv-x="1488" 
d="M981 1524q-130 0 -190.5 81t-26.5 238h76q-8 -89 37.5 -126.5t132.5 -37.5q89 0 151 37t92 127h80q-36 -160 -126.5 -239.5t-225.5 -79.5zM915 1458q135 0 244 -44.5t179 -121.5t107.5 -179t37.5 -220q0 -132 -37 -263.5t-110 -248t-172 -206.5t-232 -142.5t-281 -52.5
q-135 0 -244 44.5t-178.5 121.5t-107 179t-37.5 220q0 132 37 263.5t110 248t171.5 206.5t231.5 142.5t281 52.5zM909 1374q-79 0 -151 -42.5t-126.5 -114.5t-99.5 -164t-73.5 -193t-44 -199.5t-15.5 -185.5q0 -123 25 -212.5t84 -144.5t149 -55q79 0 151 43t126.5 114.5
t99.5 164t73.5 193.5t44 199.5t15.5 185.5q0 189 -62 300t-196 111z" />
    <glyph glyph-name="obreve" unicode="&#x14f;" horiz-adv-x="1085" 
d="M313 285q0 -234 123 -234q64 0 127 76.5t108 190t73 244.5t28 239q0 233 -123 233q-64 0 -127 -76.5t-108 -190t-73 -244.5t-28 -238zM1044 702q0 -131 -48 -260.5t-129 -232t-198.5 -166t-246.5 -63.5q-174 0 -277.5 106t-103.5 295q0 104 30.5 209.5t87.5 197.5
t132.5 163.5t172.5 113t200 41.5q174 0 277 -107t103 -297zM698 1223q-131 0 -186.5 86.5t-19.5 246.5h77q-11 -93 31.5 -133.5t130.5 -40.5q184 0 238 174h78q-37 -163 -125.5 -248t-223.5 -85z" />
    <glyph glyph-name="Ohungarumlaut" unicode="&#x150;" horiz-adv-x="1488" 
d="M915 1458q135 0 244 -44.5t179 -121.5t107.5 -179t37.5 -220q0 -132 -37 -263.5t-110 -248t-172 -206.5t-232 -142.5t-281 -52.5q-135 0 -244 44.5t-178.5 121.5t-107 179t-37.5 220q0 132 37 263.5t110 248t171.5 206.5t231.5 142.5t281 52.5zM909 1374
q-79 0 -151 -42.5t-126.5 -114.5t-99.5 -164t-73.5 -193t-44 -199.5t-15.5 -185.5q0 -123 25 -212.5t84 -144.5t149 -55q79 0 151 43t126.5 114.5t99.5 164t73.5 193.5t44 199.5t15.5 185.5q0 189 -62 300t-196 111zM907 1835h264l-2 -14l-348 -291h-73zM1239 1835h264
l-2 -14l-348 -291h-74z" />
    <glyph glyph-name="ohungarumlaut" unicode="&#x151;" horiz-adv-x="1085" 
d="M647 1563h254l-4 -15l-381 -325h-74zM977 1563h256l-4 -15l-381 -325h-74zM313 285q0 -234 123 -234q64 0 127 76.5t108 190t73 244.5t28 239q0 233 -123 233q-64 0 -127 -76.5t-108 -190t-73 -244.5t-28 -238zM1044 702q0 -131 -48 -260.5t-129 -232t-198.5 -166
t-246.5 -63.5q-174 0 -277.5 106t-103.5 295q0 104 30.5 209.5t87.5 197.5t132.5 163.5t172.5 113t200 41.5q174 0 277 -107t103 -297z" />
    <glyph glyph-name="OE" unicode="&#x152;" horiz-adv-x="2056" 
d="M803 82h86l272 1274h-157q-171 0 -311.5 -111t-219 -296.5t-78.5 -401.5q0 -229 99 -347t309 -118zM1839 0h-1081q-305 0 -489.5 154t-184.5 424q0 155 46.5 291t131 239.5t198.5 178t253.5 113t292.5 38.5h1120l-70 -369h-57q-36 172 -84 229.5t-168 57.5h-287
l-121 -570h248q66 0 104.5 42.5t77.5 146.5h72l-98 -465h-74q6 102 -14.5 144t-85.5 42h-250l-100 -475q-18 -80 18 -109.5t135 -29.5h117q50 0 91.5 12t75.5 31.5t78.5 65t81.5 90t103 129.5h72z" />
    <glyph glyph-name="oe" unicode="&#x153;" horiz-adv-x="1630" 
d="M664 1106q103 0 183.5 -49t127.5 -133q84 83 185 132.5t204 49.5q134 0 205 -62t71 -157q0 -72 -35 -130.5t-90.5 -99t-142 -74t-172.5 -55t-199 -41.5q-2 -23 -2 -63q0 -137 56.5 -211t158.5 -74q81 0 155 46t149 139l43 -35q-102 -154 -219.5 -231.5t-262.5 -77.5
q-95 0 -169 46t-115 126q-81 -79 -177 -125.5t-196 -46.5q-174 0 -276.5 105.5t-102.5 295.5q0 104 30 209.5t87 197.5t132 163.5t172 113t200 41.5zM315 285q0 -234 121 -234q64 0 127 76.5t108 190t73 244.5t28 239q0 233 -121 233q-85 0 -165 -128t-125.5 -301.5
t-45.5 -319.5zM1329 1032q-72 0 -140.5 -73.5t-115 -185t-65.5 -232.5q208 50 310.5 143.5t102.5 237.5q0 50 -22.5 80t-69.5 30z" />
    <glyph glyph-name="Racute" unicode="&#x154;" horiz-adv-x="1456" 
d="M791 1354h-91l-139 -654h86q183 0 296.5 102t113.5 294q0 118 -65 188t-201 70zM543 612l-86 -399q-6 -30 -8 -50t3 -35.5t13 -24t28 -15t40.5 -9.5t58.5 -7l-17 -72h-626l16 72q112 12 144 35t49 106l217 1012q6 30 8 50t-3 35.5t-13 24t-28 15t-40.5 9.5t-58.5 7l16 72
h655q118 0 207 -27.5t141 -75.5t77.5 -108t25.5 -131q0 -78 -29.5 -147t-75 -116t-105 -85t-113 -58.5t-105.5 -32.5l221 -417q52 -95 95 -131t118 -37l-14 -72h-371q-36 30 -65.5 77.5t-65.5 123.5l-193 411h-116zM952 1835h299v-14l-379 -291h-71z" />
    <glyph glyph-name="racute" unicode="&#x155;" horiz-adv-x="905" 
d="M797 1563h293v-15l-402 -325h-72zM584 1106l-95 -344l-90 -277q66 136 112.5 225t95.5 171t88.5 127t82 71.5t84.5 26.5q60 0 93.5 -37.5t33.5 -99.5q0 -75 -44.5 -131.5t-117.5 -87.5h-16q0 90 -68 90t-149.5 -104.5t-159.5 -299t-131 -436.5h-278l227 905l-117 72
l10 41l396 88h43z" />
    <glyph glyph-name="Rcommaaccent" unicode="&#x156;" horiz-adv-x="1456" 
d="M631 -313h-111q-74 18 -74 90q0 62 44.5 100.5t117.5 38.5q70 0 110 -40.5t40 -108.5q0 -110 -85 -180t-251 -70l6 59q83 0 138 33t65 78zM791 1354h-91l-139 -654h86q183 0 296.5 102t113.5 294q0 118 -65 188t-201 70zM543 612l-86 -399q-6 -30 -8 -50t3 -35.5t13 -24
t28 -15t40.5 -9.5t58.5 -7l-17 -72h-626l16 72q112 12 144 35t49 106l217 1012q6 30 8 50t-3 35.5t-13 24t-28 15t-40.5 9.5t-58.5 7l16 72h655q118 0 207 -27.5t141 -75.5t77.5 -108t25.5 -131q0 -78 -29.5 -147t-75 -116t-105 -85t-113 -58.5t-105.5 -32.5l221 -417
q52 -95 95 -131t118 -37l-14 -72h-371q-36 30 -65.5 77.5t-65.5 123.5l-193 411h-116z" />
    <glyph glyph-name="rcommaaccent" unicode="&#x157;" horiz-adv-x="905" 
d="M147 -313h-110q-74 18 -74 90q0 62 44.5 100.5t117.5 38.5q70 0 109.5 -40.5t39.5 -108.5q0 -110 -84.5 -180t-250.5 -70l6 59q83 0 137.5 33t64.5 78zM584 1106l-95 -344l-90 -277q66 136 112.5 225t95.5 171t88.5 127t82 71.5t84.5 26.5q60 0 93.5 -37.5t33.5 -99.5
q0 -75 -44.5 -131.5t-117.5 -87.5h-16q0 90 -68 90t-149.5 -104.5t-159.5 -299t-131 -436.5h-278l227 905l-117 72l10 41l396 88h43z" />
    <glyph glyph-name="Rcaron" unicode="&#x158;" horiz-adv-x="1456" 
d="M743 1530l-157 319h82l202 -168l287 168h92l-307 -319h-199zM791 1354h-91l-139 -654h86q183 0 296.5 102t113.5 294q0 118 -65 188t-201 70zM543 612l-86 -399q-6 -30 -8 -50t3 -35.5t13 -24t28 -15t40.5 -9.5t58.5 -7l-17 -72h-626l16 72q112 12 144 35t49 106
l217 1012q6 30 8 50t-3 35.5t-13 24t-28 15t-40.5 9.5t-58.5 7l16 72h655q118 0 207 -27.5t141 -75.5t77.5 -108t25.5 -131q0 -78 -29.5 -147t-75 -116t-105 -85t-113 -58.5t-105.5 -32.5l221 -417q52 -95 95 -131t118 -37l-14 -72h-371q-36 30 -65.5 77.5t-65.5 123.5
l-193 411h-116z" />
    <glyph glyph-name="rcaron" unicode="&#x159;" horiz-adv-x="905" 
d="M563 1223l-157 350h81l203 -197l287 197h92l-307 -350h-199zM584 1106l-95 -344l-90 -277q66 136 112.5 225t95.5 171t88.5 127t82 71.5t84.5 26.5q60 0 93.5 -37.5t33.5 -99.5q0 -75 -44.5 -131.5t-117.5 -87.5h-16q0 90 -68 90t-149.5 -104.5t-159.5 -299t-131 -436.5
h-278l227 905l-117 72l10 41l396 88h43z" />
    <glyph glyph-name="Sacute" unicode="&#x15a;" horiz-adv-x="1142" 
d="M1055 455q0 -90 -30.5 -167t-84 -133t-126 -96t-157.5 -59.5t-178 -19.5q-153 0 -276.5 48t-190.5 111l60 346h73q6 -200 97.5 -309.5t255.5 -109.5q128 0 205 68t77 190q0 98 -59 157.5t-213 134.5q-150 73 -227.5 163.5t-77.5 224.5q0 205 146 329.5t388 124.5
q125 0 235 -37.5t181 -99.5l-59 -305h-72q-3 360 -301 360q-115 0 -185.5 -71t-70.5 -181q0 -90 50 -144t175 -114q82 -38 141 -75t113.5 -87t82.5 -112.5t28 -136.5zM897 1835h299v-14l-379 -291h-72z" />
    <glyph glyph-name="sacute" unicode="&#x15b;" horiz-adv-x="847" 
d="M713 1563h293v-15l-402 -325h-72zM395 59q66 0 101.5 32.5t35.5 92.5q0 42 -40.5 94t-98 104.5t-114.5 109.5t-97.5 127t-40.5 139q0 143 116 245.5t286 102.5q126 0 204 -49.5t78 -138.5q0 -49 -36.5 -84.5t-83.5 -49.5h-13q-32 106 -92 173t-143 67q-57 0 -89 -32
t-32 -87q0 -31 30 -72.5t74.5 -82.5t97 -92t97 -99.5t74.5 -108t30 -114.5q0 -103 -56.5 -185t-149 -126.5t-201.5 -44.5q-153 0 -249.5 64.5t-96.5 164.5q0 54 32.5 95.5t85.5 62.5h15q30 -142 102 -225t174 -83z" />
    <glyph glyph-name="Scircumflex" unicode="&#x15c;" horiz-adv-x="1142" 
d="M1055 455q0 -90 -30.5 -167t-84 -133t-126 -96t-157.5 -59.5t-178 -19.5q-153 0 -276.5 48t-190.5 111l60 346h73q6 -200 97.5 -309.5t255.5 -109.5q128 0 205 68t77 190q0 98 -59 157.5t-213 134.5q-150 73 -227.5 163.5t-77.5 224.5q0 205 146 329.5t388 124.5
q125 0 235 -37.5t181 -99.5l-59 -305h-72q-3 360 -301 360q-115 0 -185.5 -71t-70.5 -181q0 -90 50 -144t175 -114q82 -38 141 -75t113.5 -87t82.5 -112.5t28 -136.5zM944 1849l158 -319h-82l-203 168l-287 -168h-92l307 319h199z" />
    <glyph glyph-name="scircumflex" unicode="&#x15d;" horiz-adv-x="847" 
d="M768 1567l158 -350h-82l-203 196l-287 -196h-92l307 350h199zM395 59q66 0 101.5 32.5t35.5 92.5q0 42 -40.5 94t-98 104.5t-114.5 109.5t-97.5 127t-40.5 139q0 143 116 245.5t286 102.5q126 0 204 -49.5t78 -138.5q0 -49 -36.5 -84.5t-83.5 -49.5h-13q-32 106 -92 173
t-143 67q-57 0 -89 -32t-32 -87q0 -31 30 -72.5t74.5 -82.5t97 -92t97 -99.5t74.5 -108t30 -114.5q0 -103 -56.5 -185t-149 -126.5t-201.5 -44.5q-153 0 -249.5 64.5t-96.5 164.5q0 54 32.5 95.5t85.5 62.5h15q30 -142 102 -225t174 -83z" />
    <glyph glyph-name="Scedilla" unicode="&#x15e;" horiz-adv-x="1142" 
d="M209 -463l-14 64q115 0 182 30.5t67 77.5q0 70 -170 76l105 201q-121 14 -217 57.5t-150 95.5l60 346h73q6 -200 97.5 -309.5t255.5 -109.5q128 0 205 68t77 190q0 98 -59 157.5t-213 134.5q-150 73 -227.5 163.5t-77.5 224.5q0 205 146 329.5t388 124.5q125 0 235 -37.5
t181 -99.5l-59 -305h-72q-3 360 -301 360q-115 0 -185.5 -71t-70.5 -181q0 -90 50 -144t175 -114q82 -38 141 -75t113.5 -87t82.5 -112.5t28 -136.5q0 -90 -30.5 -167t-84 -133t-126 -96t-157.5 -59.5t-178 -19.5q-27 0 -39 2l-37 -72q94 -6 144.5 -44.5t50.5 -107.5
q0 -108 -108 -164.5t-281 -56.5z" />
    <glyph glyph-name="scedilla" unicode="&#x15f;" horiz-adv-x="847" 
d="M59 -463l-14 64q116 0 183 30.5t67 77.5q0 70 -170 76l104 203q-111 20 -177 79.5t-66 141.5q0 54 32.5 95.5t85.5 62.5h15q30 -142 102 -225t174 -83q66 0 101.5 32.5t35.5 92.5q0 42 -40.5 94t-98 104.5t-114.5 109.5t-97.5 127t-40.5 139q0 143 116 245.5t286 102.5
q126 0 204 -49.5t78 -138.5q0 -49 -36.5 -84.5t-83.5 -49.5h-13q-32 106 -92 173t-143 67q-57 0 -89 -32t-32 -87q0 -31 30 -72.5t74.5 -82.5t97 -92t97 -99.5t74.5 -108t30 -114.5q0 -103 -56.5 -185t-149 -126.5t-201.5 -44.5q-7 0 -20.5 1t-20.5 1l-37 -72
q94 -6 144.5 -44.5t50.5 -107.5q0 -108 -108.5 -164.5t-281.5 -56.5z" />
    <glyph glyph-name="Scaron" unicode="&#x160;" horiz-adv-x="1142" 
d="M1055 455q0 -90 -30.5 -167t-84 -133t-126 -96t-157.5 -59.5t-178 -19.5q-153 0 -276.5 48t-190.5 111l60 346h73q6 -200 97.5 -309.5t255.5 -109.5q128 0 205 68t77 190q0 98 -59 157.5t-213 134.5q-150 73 -227.5 163.5t-77.5 224.5q0 205 146 329.5t388 124.5
q125 0 235 -37.5t181 -99.5l-59 -305h-72q-3 360 -301 360q-115 0 -185.5 -71t-70.5 -181q0 -90 50 -144t175 -114q82 -38 141 -75t113.5 -87t82.5 -112.5t28 -136.5zM688 1530l-158 319h82l203 -168l287 168h92l-307 -319h-199z" />
    <glyph glyph-name="scaron" unicode="&#x161;" horiz-adv-x="847" 
d="M496 1223l-158 350h82l203 -197l286 197h92l-307 -350h-198zM395 59q66 0 101.5 32.5t35.5 92.5q0 42 -40.5 94t-98 104.5t-114.5 109.5t-97.5 127t-40.5 139q0 143 116 245.5t286 102.5q126 0 204 -49.5t78 -138.5q0 -49 -36.5 -84.5t-83.5 -49.5h-13q-32 106 -92 173
t-143 67q-57 0 -89 -32t-32 -87q0 -31 30 -72.5t74.5 -82.5t97 -92t97 -99.5t74.5 -108t30 -114.5q0 -103 -56.5 -185t-149 -126.5t-201.5 -44.5q-153 0 -249.5 64.5t-96.5 164.5q0 54 32.5 95.5t85.5 62.5h15q30 -142 102 -225t174 -83z" />
    <glyph glyph-name="Tcedilla" unicode="&#x162;" horiz-adv-x="1394" 
d="M569 -313h-110q-74 18 -74 90q0 62 44.5 100.5t117.5 38.5q70 0 109.5 -40.5t39.5 -108.5q0 -110 -85 -180t-251 -70l7 59q83 0 137.5 33t64.5 78zM1028 1364l-246 -1153q-6 -30 -7 -50t6.5 -35t16.5 -23.5t33.5 -14.5t45.5 -9t63 -7l-16 -72h-670l16 72
q122 12 158.5 34.5t54.5 104.5l244 1153h-104q-30 0 -55 -4t-50.5 -16t-45.5 -25t-46 -41t-46.5 -52t-53 -70.5t-58 -85t-69.5 -105.5h-70l133 473h1264l-72 -473h-65q-44 220 -65 278q-32 85 -88 108q-32 13 -81 13h-127z" />
    <glyph glyph-name="tcedilla" unicode="&#x163;" horiz-adv-x="729" 
d="M211 -313h-111q-73 18 -73 90q0 62 44 100.5t117 38.5q70 0 110 -40.5t40 -108.5q0 -110 -85 -180t-251 -70l6 59q83 0 138 33t65 78zM528 965l-166 -666q-16 -60 -16 -102q0 -56 51 -56q49 0 105.5 41.5t144.5 141.5l41 -33q-112 -158 -215.5 -234.5t-210.5 -76.5
q-88 0 -140 52.5t-52 135.5q0 62 20 149l162 648h-131l14 57q121 38 228.5 122t191.5 195h66l-68 -280h227l-24 -94h-228z" />
    <glyph glyph-name="Tcaron" unicode="&#x164;" horiz-adv-x="1394" 
d="M817 1530l-158 319h82l203 -168l287 168h92l-307 -319h-199zM1028 1364l-246 -1153q-6 -30 -7 -50t6.5 -35t16.5 -23.5t33.5 -14.5t45.5 -9t63 -7l-16 -72h-670l16 72q122 12 158.5 34.5t54.5 104.5l244 1153h-104q-30 0 -55 -4t-50.5 -16t-45.5 -25t-46 -41t-46.5 -52
t-53 -70.5t-58 -85t-69.5 -105.5h-70l133 473h1264l-72 -473h-65q-44 220 -65 278q-32 85 -88 108q-32 13 -81 13h-127z" />
    <glyph glyph-name="tcaron" unicode="&#x165;" horiz-adv-x="729" 
d="M1004 1534l-312 -404h-55l125 420h246zM528 965l-166 -666q-16 -60 -16 -102q0 -56 51 -56q49 0 105.5 41.5t144.5 141.5l41 -33q-112 -158 -215.5 -234.5t-210.5 -76.5q-88 0 -140 52.5t-52 135.5q0 62 20 149l162 648h-131l14 57q121 38 228.5 122t191.5 195h66
l-68 -280h227l-24 -94h-228z" />
    <glyph glyph-name="Tbar" unicode="&#x166;" horiz-adv-x="1394" 
d="M369 686l20 98h215l123 580h-104q-30 0 -55 -4t-50.5 -16t-45.5 -25t-46 -41t-46.5 -52t-53 -70.5t-58 -85t-69.5 -105.5h-70l133 473h1264l-72 -473h-65q-44 220 -65 278q-32 85 -88 108q-32 13 -81 13h-127l-125 -580h236l-21 -98h-235l-101 -475q-6 -30 -7 -50
t6.5 -35t16.5 -23.5t33.5 -14.5t45.5 -9t63 -7l-16 -72h-670l16 72q122 12 158.5 34.5t54.5 104.5l101 475h-215z" />
    <glyph glyph-name="tbar" unicode="&#x167;" horiz-adv-x="768" 
d="M547 965l-51 -197h243l-20 -90h-246l-94 -379q-17 -76 -17 -102q0 -25 14 -40.5t38 -15.5q51 0 107.5 41.5t144.5 141.5l41 -33q-115 -159 -217 -235t-209 -76q-89 0 -141 52.5t-52 135.5q0 69 21 149l90 361h-121l20 90h123l49 197h-131l15 57q237 75 419 317h66
l-70 -280h230l-25 -94h-227z" />
    <glyph glyph-name="Utilde" unicode="&#x168;" horiz-adv-x="1492" 
d="M1182 1534q-39 0 -77 18.5t-63.5 40t-58.5 40t-63 18.5q-41 0 -75.5 -27.5t-74.5 -87.5l-51 31q71 140 125 197t129 57q39 0 76.5 -18.5t63 -41t58 -41t62.5 -18.5q42 0 76 28t73 89l54 -33q-71 -139 -125 -195.5t-129 -56.5zM1206 532l148 693q6 30 8 50t-4.5 35.5
t-15.5 24t-31.5 15t-45.5 9.5t-65 7l14 72h457l-14 -72q-112 -12 -144.5 -34.5t-50.5 -106.5l-155 -729q-54 -258 -212 -387t-397 -129q-277 0 -417.5 157.5t-83.5 429.5l141 658q7 30 9 50t-3 35.5t-13 24t-28 15t-41 9.5t-59 7l16 72h629l-17 -72q-112 -12 -143.5 -34.5
t-50.5 -106.5l-143 -672q-40 -192 34 -313t250 -121q174 0 277.5 97.5t150.5 315.5z" />
    <glyph glyph-name="utilde" unicode="&#x169;" horiz-adv-x="1241" 
d="M815 809l64 262l290 16l-202 -821q-19 -74 -19 -86q0 -30 29 -30t70 35t106 114l39 -33q-105 -153 -184 -219.5t-172 -66.5q-79 0 -122.5 45t-43.5 122q0 76 69 326q-48 -100 -105.5 -187t-122 -156.5t-135 -109.5t-136.5 -40q-84 0 -131.5 51.5t-47.5 130.5q0 42 17 112
l162 631l-117 72l10 41l395 88h43l-206 -805q-17 -66 -17 -90q0 -49 47 -49q40 0 98.5 51.5t118 136.5t115.5 208t88 251zM891 1235q-39 0 -77 18.5t-63.5 41t-58.5 41t-63 18.5q-41 0 -75 -28t-75 -87l-51 31q72 140 125.5 197t128.5 57q39 0 76.5 -18.5t63 -41t58 -41
t62.5 -18.5q43 0 77 27.5t73 87.5l53 -31q-72 -140 -125.5 -197t-128.5 -57z" />
    <glyph glyph-name="Umacron" unicode="&#x16a;" horiz-adv-x="1492" 
d="M766 1561l29 139h575l-29 -139h-575zM1206 532l148 693q6 30 8 50t-4.5 35.5t-15.5 24t-31.5 15t-45.5 9.5t-65 7l14 72h457l-14 -72q-112 -12 -144.5 -34.5t-50.5 -106.5l-155 -729q-54 -258 -212 -387t-397 -129q-277 0 -417.5 157.5t-83.5 429.5l141 658q7 30 9 50
t-3 35.5t-13 24t-28 15t-41 9.5t-59 7l16 72h629l-17 -72q-112 -12 -143.5 -34.5t-50.5 -106.5l-143 -672q-40 -192 34 -313t250 -121q174 0 277.5 97.5t150.5 315.5z" />
    <glyph glyph-name="umacron" unicode="&#x16b;" horiz-adv-x="1241" 
d="M815 809l64 262l290 16l-202 -821q-19 -74 -19 -86q0 -30 29 -30t70 35t106 114l39 -33q-105 -153 -184 -219.5t-172 -66.5q-79 0 -122.5 45t-43.5 122q0 76 69 326q-48 -100 -105.5 -187t-122 -156.5t-135 -109.5t-136.5 -40q-84 0 -131.5 51.5t-47.5 130.5q0 42 17 112
l162 631l-117 72l10 41l395 88h43l-206 -805q-17 -66 -17 -90q0 -49 47 -49q40 0 98.5 51.5t118 136.5t115.5 208t88 251zM492 1278l28 139h551l-29 -139h-550z" />
    <glyph glyph-name="Ubreve" unicode="&#x16c;" horiz-adv-x="1492" 
d="M1057 1524q-130 0 -190.5 81t-26.5 238h75q-8 -89 37.5 -126.5t132.5 -37.5q188 0 244 164h80q-36 -160 -126.5 -239.5t-225.5 -79.5zM1206 532l148 693q6 30 8 50t-4.5 35.5t-15.5 24t-31.5 15t-45.5 9.5t-65 7l14 72h457l-14 -72q-112 -12 -144.5 -34.5t-50.5 -106.5
l-155 -729q-54 -258 -212 -387t-397 -129q-277 0 -417.5 157.5t-83.5 429.5l141 658q7 30 9 50t-3 35.5t-13 24t-28 15t-41 9.5t-59 7l16 72h629l-17 -72q-112 -12 -143.5 -34.5t-50.5 -106.5l-143 -672q-40 -192 34 -313t250 -121q174 0 277.5 97.5t150.5 315.5z" />
    <glyph glyph-name="ubreve" unicode="&#x16d;" horiz-adv-x="1241" 
d="M815 809l64 262l290 16l-202 -821q-19 -74 -19 -86q0 -30 29 -30t70 35t106 114l39 -33q-105 -153 -184 -219.5t-172 -66.5q-79 0 -122.5 45t-43.5 122q0 76 69 326q-48 -100 -105.5 -187t-122 -156.5t-135 -109.5t-136.5 -40q-84 0 -131.5 51.5t-47.5 130.5q0 42 17 112
l162 631l-117 72l10 41l395 88h43l-206 -805q-17 -66 -17 -90q0 -49 47 -49q40 0 98.5 51.5t118 136.5t115.5 208t88 251zM752 1223q-131 0 -187 86.5t-20 246.5h78q-11 -93 31.5 -133.5t129.5 -40.5q184 0 238 174h78q-37 -163 -125 -248t-223 -85z" />
    <glyph glyph-name="Uring" unicode="&#x16e;" horiz-adv-x="1492" 
d="M1206 532l148 693q6 30 8 50t-4.5 35.5t-15.5 24t-31.5 15t-45.5 9.5t-65 7l14 72h457l-14 -72q-112 -12 -144.5 -34.5t-50.5 -106.5l-155 -729q-54 -258 -212 -387t-397 -129q-277 0 -417.5 157.5t-83.5 429.5l141 658q7 30 9 50t-3 35.5t-13 24t-28 15t-41 9.5t-59 7
l16 72h629l-17 -72q-112 -12 -143.5 -34.5t-50.5 -106.5l-143 -672q-40 -192 34 -313t250 -121q174 0 277.5 97.5t150.5 315.5zM1186 1702q0 44 -26.5 70t-72.5 26q-55 0 -84.5 -35.5t-29.5 -89.5q0 -44 26 -70t72 -26q55 0 85 35.5t30 89.5zM885 1671q0 88 59 148.5
t146 60.5q85 0 134.5 -49t49.5 -127q0 -88 -59 -148.5t-146 -60.5q-85 0 -134.5 49t-49.5 127z" />
    <glyph glyph-name="uring" unicode="&#x16f;" horiz-adv-x="1241" 
d="M891 1378q0 44 -26.5 70.5t-71.5 26.5q-55 0 -85 -35.5t-30 -89.5q0 -45 26.5 -72t71.5 -27q55 0 85 36t30 91zM590 1348q0 88 58.5 147t146.5 59q85 0 134.5 -48.5t49.5 -125.5q0 -88 -59 -148.5t-146 -60.5q-85 0 -134.5 49.5t-49.5 127.5zM815 809l64 262l290 16
l-202 -821q-19 -74 -19 -86q0 -30 29 -30t70 35t106 114l39 -33q-105 -153 -184 -219.5t-172 -66.5q-79 0 -122.5 45t-43.5 122q0 76 69 326q-48 -100 -105.5 -187t-122 -156.5t-135 -109.5t-136.5 -40q-84 0 -131.5 51.5t-47.5 130.5q0 42 17 112l162 631l-117 72l10 41
l395 88h43l-206 -805q-17 -66 -17 -90q0 -49 47 -49q40 0 98.5 51.5t118 136.5t115.5 208t88 251z" />
    <glyph glyph-name="Uhungarumlaut" unicode="&#x170;" horiz-adv-x="1492" 
d="M1206 532l148 693q6 30 8 50t-4.5 35.5t-15.5 24t-31.5 15t-45.5 9.5t-65 7l14 72h457l-14 -72q-112 -12 -144.5 -34.5t-50.5 -106.5l-155 -729q-54 -258 -212 -387t-397 -129q-277 0 -417.5 157.5t-83.5 429.5l141 658q7 30 9 50t-3 35.5t-13 24t-28 15t-41 9.5t-59 7
l16 72h629l-17 -72q-112 -12 -143.5 -34.5t-50.5 -106.5l-143 -672q-40 -192 34 -313t250 -121q174 0 277.5 97.5t150.5 315.5zM983 1835h264l-2 -14l-348 -291h-74zM1315 1835h264l-2 -14l-348 -291h-74z" />
    <glyph glyph-name="uhungarumlaut" unicode="&#x171;" horiz-adv-x="1241" 
d="M815 809l64 262l290 16l-202 -821q-19 -74 -19 -86q0 -30 29 -30t70 35t106 114l39 -33q-105 -153 -184 -219.5t-172 -66.5q-79 0 -122.5 45t-43.5 122q0 76 69 326q-48 -100 -105.5 -187t-122 -156.5t-135 -109.5t-136.5 -40q-84 0 -131.5 51.5t-47.5 130.5q0 42 17 112
l162 631l-117 72l10 41l395 88h43l-206 -805q-17 -66 -17 -90q0 -49 47 -49q40 0 98.5 51.5t118 136.5t115.5 208t88 251zM700 1563h254l-4 -15l-381 -325h-73zM1030 1563h256l-4 -15l-381 -325h-74z" />
    <glyph glyph-name="Uogonek" unicode="&#x172;" horiz-adv-x="1492" 
d="M1206 532l148 693q6 30 8 50t-4.5 35.5t-15.5 24t-31.5 15t-45.5 9.5t-65 7l14 72h457l-14 -72q-112 -12 -144.5 -34.5t-50.5 -106.5l-155 -729q-78 -366 -361 -473q-109 -55 -171 -119t-62 -131q0 -39 25 -63.5t67 -24.5q78 0 176 79l20 -32q-73 -78 -144 -123t-159 -45
q-74 0 -121 38t-47 107q0 88 66.5 153.5t183.5 121.5q-54 -4 -82 -4q-277 0 -417.5 157.5t-83.5 429.5l141 658q7 30 9 50t-3 35.5t-13 24t-28 15t-41 9.5t-59 7l16 72h629l-17 -72q-112 -12 -143.5 -34.5t-50.5 -106.5l-143 -672q-40 -192 34 -313t250 -121
q174 0 277.5 97.5t150.5 315.5z" />
    <glyph glyph-name="uogonek" unicode="&#x173;" horiz-adv-x="1241" 
d="M670 147q0 76 69 326q-48 -100 -105.5 -187t-122 -156.5t-135 -109.5t-136.5 -40q-84 0 -130.5 51t-46.5 131q0 43 15 112l158 631l-117 72l10 41l395 88h43l-205 -813q-14 -58 -14 -82q0 -49 47 -49q40 0 98.5 51.5t118 136.5t115.5 208t88 251l64 262l290 16l-202 -821
q-19 -70 -19 -86q0 -30 29 -30t70 35t106 114l39 -33q-53 -72 -119 -140t-116.5 -112t-95 -85.5t-69 -80t-24.5 -77.5t25 -62.5t67 -23.5q81 0 176 79l21 -32q-70 -77 -142 -122.5t-159 -45.5q-74 0 -120 38t-46 107q0 83 64.5 147.5t172.5 125.5q-75 3 -116 46.5t-41 118.5
z" />
    <glyph glyph-name="Wcircumflex" unicode="&#x174;" horiz-adv-x="1945" 
d="M1303 1186l88 -783l426 775q43 84 43 118t-29.5 50.5t-114.5 19.5l15 72h407l-16 -72q-52 -7 -83 -22t-52 -54l-732 -1302h-81l-107 843l-485 -843h-84l-205 1302q-7 62 -103 76l17 72h577l-14 -72q-96 -6 -132 -28.5t-36 -75.5q0 -38 6 -76l115 -789l328 576l-39 317
q-4 36 -28.5 52.5t-68.5 23.5l15 72h549l-15 -72q-97 -6 -132.5 -29.5t-35.5 -79.5q0 -31 7 -71zM1362 1849l158 -319h-82l-203 168l-287 -168h-92l307 319h199z" />
    <glyph glyph-name="wcircumflex" unicode="&#x175;" horiz-adv-x="1509" 
d="M700 918l-110 61l10 37l342 90h21l57 -848l164 211q143 175 143 328q0 84 -51.5 125.5t-140.5 35.5l2 25q34 50 88.5 86.5t120.5 36.5q91 0 133.5 -55t42.5 -136q0 -69 -35 -147.5t-85 -146.5t-138 -172l-398 -463h-82l-47 514l-411 -514h-82l-84 932l-117 65l12 37
l346 86h23l57 -832l248 314zM1083 1567l158 -350h-82l-203 196l-286 -196h-92l307 350h198z" />
    <glyph glyph-name="Ycircumflex" unicode="&#x176;" horiz-adv-x="1347" 
d="M838 557l-74 -346q-6 -30 -7.5 -50t6 -35t16.5 -23t33 -14.5t45.5 -9.5t62.5 -7l-17 -72h-657l14 72q123 12 159.5 34.5t53.5 104.5l72 342l-252 737q-13 39 -35.5 54.5t-67.5 21.5l17 72h596l-17 -72q-101 -3 -139.5 -23t-38.5 -65q0 -30 21 -98l178 -512l387 516
q63 86 63 119q0 32 -33 47t-114 16l14 72h416l-16 -72q-89 -12 -135 -76zM1135 1849l157 -319h-82l-202 168l-287 -168h-92l307 319h199z" />
    <glyph glyph-name="ycircumflex" unicode="&#x177;" horiz-adv-x="1042" 
d="M154 918l-121 65l12 37l342 86h23l165 -969l58 82q134 200 181.5 322.5t47.5 232.5q0 97 -56.5 143.5t-148.5 40.5l2 25q34 50 88 86.5t117 36.5q95 0 141 -57.5t46 -143.5q0 -117 -90.5 -287t-284.5 -452q-123 -177 -223 -296t-184 -186t-153 -94.5t-141 -27.5
q-85 0 -142.5 44.5t-57.5 127.5q0 56 36 99t93 58h20q0 -92 39.5 -143t114.5 -51q69 0 133.5 35t148.5 127zM842 1567l157 -350h-81l-203 196l-287 -196h-92l307 350h199z" />
    <glyph glyph-name="Ydieresis" unicode="&#x178;" horiz-adv-x="1347" 
d="M838 557l-74 -346q-6 -30 -7.5 -50t6 -35t16.5 -23t33 -14.5t45.5 -9.5t62.5 -7l-17 -72h-657l14 72q123 12 159.5 34.5t53.5 104.5l72 342l-252 737q-13 39 -35.5 54.5t-67.5 21.5l17 72h596l-17 -72q-101 -3 -139.5 -23t-38.5 -65q0 -30 21 -98l178 -512l387 516
q63 86 63 119q0 32 -33 47t-114 16l14 72h416l-16 -72q-89 -12 -135 -76zM799 1534q-63 0 -103.5 40.5t-40.5 100.5q0 64 45 110t111 46q63 0 103 -39.5t40 -99.5q0 -64 -44.5 -111t-110.5 -47zM1200 1534q-63 0 -103 40.5t-40 100.5q0 64 43.5 110t109.5 46
q65 0 104.5 -39.5t39.5 -99.5q0 -64 -44 -111t-110 -47z" />
    <glyph glyph-name="Zacute" unicode="&#x179;" horiz-adv-x="1273" 
d="M324 82h350q43 0 77.5 6.5t70.5 25t65.5 42t71.5 68.5t80 92t98 124h69l-162 -440h-1097l10 53l1061 1303h-338q-44 0 -77.5 -6t-64.5 -24t-55 -39t-55.5 -62t-58.5 -80.5t-71 -107.5q-2 -3 -2.5 -4t-2 -3t-2.5 -4h-68l103 412h1069l-13 -54zM991 1835h299v-14l-379 -291
h-71z" />
    <glyph glyph-name="zacute" unicode="&#x17a;" horiz-adv-x="993" 
d="M827 1563h293v-15l-401 -325h-72zM741 844h-381q-46 0 -68 -14t-54 -56l-54 -78l-37 15l154 446h39q5 -41 16 -60.5t37 -19.5h674v-35l-782 -718l174 -64q49 -16 68.5 -21.5t54.5 -11.5t71 -6q69 0 124.5 37.5t111.5 138.5l37 -16q-76 -231 -157 -320.5t-212 -89.5
q-65 0 -124 20.5t-154 69.5l-189 105l-72 -176q-86 0 -86 65q0 47 48 95z" />
    <glyph glyph-name="Zdotaccent" unicode="&#x17b;" horiz-adv-x="1273" 
d="M905 1536q-67 0 -109 42.5t-42 102.5q0 68 46 115t118 47q66 0 108.5 -42t42.5 -103q0 -67 -46.5 -114.5t-117.5 -47.5zM324 82h350q43 0 77.5 6.5t70.5 25t65.5 42t71.5 68.5t80 92t98 124h69l-162 -440h-1097l10 53l1061 1303h-338q-44 0 -77.5 -6t-64.5 -24t-55 -39
t-55.5 -62t-58.5 -80.5t-71 -107.5q-2 -3 -2.5 -4t-2 -3t-2.5 -4h-68l103 412h1069l-13 -54z" />
    <glyph glyph-name="zdotaccent" unicode="&#x17c;" horiz-adv-x="993" 
d="M741 844h-381q-46 0 -68 -14t-54 -56l-54 -78l-37 15l154 446h39q5 -41 16 -60.5t37 -19.5h674v-35l-782 -718l174 -64q49 -16 68.5 -21.5t54.5 -11.5t71 -6q69 0 124.5 37.5t111.5 138.5l37 -16q-76 -231 -157 -320.5t-212 -89.5q-65 0 -124 20.5t-154 69.5l-189 105
l-72 -176q-86 0 -86 65q0 47 48 95zM719 1237q-67 0 -109.5 41.5t-42.5 101.5q0 68 46 115t118 47q66 0 109 -41.5t43 -101.5q0 -67 -46.5 -114.5t-117.5 -47.5z" />
    <glyph glyph-name="Zcaron" unicode="&#x17d;" horiz-adv-x="1273" 
d="M780 1530l-157 319h82l202 -168l287 168h92l-307 -319h-199zM324 82h350q43 0 77.5 6.5t70.5 25t65.5 42t71.5 68.5t80 92t98 124h69l-162 -440h-1097l10 53l1061 1303h-338q-44 0 -77.5 -6t-64.5 -24t-55 -39t-55.5 -62t-58.5 -80.5t-71 -107.5q-2 -3 -2.5 -4t-2 -3
t-2.5 -4h-68l103 412h1069l-13 -54z" />
    <glyph glyph-name="zcaron" unicode="&#x17e;" horiz-adv-x="993" 
d="M594 1223l-158 350h82l203 -197l287 197h92l-307 -350h-199zM741 844h-381q-46 0 -68 -14t-54 -56l-54 -78l-37 15l154 446h39q5 -41 16 -60.5t37 -19.5h674v-35l-782 -718l174 -64q49 -16 68.5 -21.5t54.5 -11.5t71 -6q69 0 124.5 37.5t111.5 138.5l37 -16
q-76 -231 -157 -320.5t-212 -89.5q-65 0 -124 20.5t-154 69.5l-189 105l-72 -176q-86 0 -86 65q0 47 48 95z" />
    <glyph glyph-name="florin" unicode="&#x192;" horiz-adv-x="1007" 
d="M150 684l18 72h194l25 106q134 596 531 596q114 0 175.5 -39.5t61.5 -115.5q0 -52 -30 -87t-81 -49h-75q2 60 1 111.5t-20.5 86t-58.5 34.5q-47 0 -76 -48t-49 -130l-104 -465h221l-17 -72h-221l-88 -399q-69 -303 -198.5 -462t-335.5 -159q-111 0 -175.5 40t-64.5 114
q0 104 113 137h75q-6 -60 -4.5 -111t22.5 -85.5t60 -34.5q47 0 75 41.5t44 119.5l178 799h-196z" />
    <glyph glyph-name="Aringacute" unicode="&#x1fa;" horiz-adv-x="1476" 
d="M950 242l-45 231h-551l-137 -229q-37 -66 -37 -101q0 -36 37.5 -52t122.5 -19l-14 -72h-430l14 72q49 5 80.5 20.5t54.5 54.5l698 1151l-30 150h307l250 -1301q7 -38 32.5 -54t73.5 -21l-16 -72h-615l15 72q38 1 63.5 3.5t53 10t43 19t26 31.5t10.5 48q0 20 -6 58z
M774 1176l-368 -615h483zM1112 1683q0 -80 -57.5 -135t-143.5 -55q-82 0 -131 45t-49 117q0 80 57.5 134t143.5 54q82 0 131 -45t49 -115zM1051 2130h295v-14l-338 -232h-72zM1024 1681q0 40 -25 63t-69 23q-52 0 -81.5 -32t-29.5 -80q0 -40 25.5 -63t68.5 -23q52 0 81.5 32
t29.5 80z" />
    <glyph glyph-name="aringacute" unicode="&#x1fb;" horiz-adv-x="1226" 
d="M924 1331q0 41 -25.5 64.5t-69.5 23.5q-52 0 -80 -32t-28 -82q0 -40 25 -63t69 -23q52 0 80.5 32t28.5 80zM963 1780h297l-3 -13l-337 -233h-72zM1012 1333q0 -80 -57.5 -135t-141.5 -55q-82 0 -131 45t-49 117q0 80 56.5 134t141.5 54q82 0 131.5 -45t49.5 -115z
M403 174q104 0 236.5 213.5t220.5 548.5q-14 43 -49 69.5t-80 26.5q-79 0 -156 -66t-133 -168t-90.5 -229t-34.5 -245q0 -150 86 -150zM666 147q0 41 20.5 132.5t46.5 171.5q-103 -215 -221.5 -343t-243.5 -128q-109 0 -170 83t-61 230q0 150 55 298.5t145 261.5t213 183
t252 70q139 0 230 -94l192 102h60l-78 -252l-143 -596q-19 -70 -19 -86q0 -30 29 -30q54 0 174 149l41 -33q-108 -154 -186.5 -220t-172.5 -66q-77 0 -120 45t-43 122z" />
    <glyph glyph-name="AEacute" unicode="&#x1fc;" horiz-adv-x="2066" 
d="M1849 0h-1132l16 72q112 12 144.5 34.5t50.5 106.5l61 293h-516l-217 -262q-49 -57 -49 -101q0 -37 38.5 -52.5t125.5 -18.5l-15 -72h-460l14 72q47 5 82 24t74 66l954 1147q-44 39 -193 57l17 72h1292l-70 -369h-57q-36 172 -84.5 229.5t-169.5 57.5h-285l-120 -570h247
q66 0 105 43t76 146h73l-100 -465h-72q6 102 -14.5 144t-87.5 42h-248l-100 -475q-18 -80 18 -109.5t135 -29.5h117q50 0 91 12t75.5 32t78.5 64.5t82 90.5t103 129h70zM1167 1339l-620 -745h461zM1614 1835h299v-14l-379 -291h-72z" />
    <glyph glyph-name="aeacute" unicode="&#x1fd;" horiz-adv-x="1583" 
d="M725 1106q160 0 258 -117q156 117 334 117q133 0 203.5 -62t70.5 -157q0 -72 -35 -130.5t-90.5 -99t-142 -74t-172.5 -55t-199 -41.5q-2 -23 -2 -63q0 -137 56.5 -211t158.5 -74q81 0 154 46t149 139l43 -35q-102 -154 -219 -231.5t-262 -77.5q-155 0 -251 97.5
t-105 260.5q-200 -358 -406 -358q-109 0 -170 83t-61 230q0 151 55.5 299t147.5 261t220 183t265 70zM403 174q60 0 131.5 74t143.5 209q15 128 74.5 250t150.5 213q-59 114 -168 114q-106 0 -204.5 -111t-156 -275.5t-57.5 -323.5q0 -150 86 -150zM1280 1032
q-72 0 -141 -73.5t-115.5 -185t-65.5 -232.5q208 50 311 143.5t103 237.5q0 50 -22.5 80t-69.5 30zM1151 1563h293v-15l-402 -325h-71z" />
    <glyph glyph-name="Oslashacute" unicode="&#x1fe;" horiz-adv-x="1488" 
d="M1425 1436l-104 -127q79 -78 120.5 -185t41.5 -231q0 -132 -37 -263.5t-110 -248t-172 -206.5t-232 -142.5t-281 -52.5q-203 0 -344 98l-121 -146l-63 48l123 147q-162 159 -162 418q0 132 37 263.5t110 248t171.5 206.5t231.5 142.5t281 52.5q205 0 345 -100l102 125z
M913 1374q-94 0 -179 -60.5t-145.5 -157.5t-105 -216.5t-66.5 -239.5t-22 -225q0 -78 13 -151l727 882q-61 168 -222 168zM1171 963q0 81 -12 149l-727 -883q63 -166 221 -166q94 0 179 60.5t145.5 158t105 217t66.5 239.5t22 225zM1087 1835h299v-14l-378 -291h-72z" />
    <glyph glyph-name="oslashacute" unicode="&#x1ff;" horiz-adv-x="1085" 
d="M422 -20q-142 0 -236 67l-92 -113l-57 41l96 119q-92 106 -92 287q0 104 30.5 209.5t87.5 197.5t132.5 163.5t172.5 113t200 41.5q138 0 235 -72l84 105l57 -43l-88 -109q92 -109 92 -285q0 -131 -48 -260.5t-129 -232t-198.5 -166t-246.5 -63.5zM649 1034
q-62 0 -125 -72.5t-108 -181.5t-74.5 -236t-32.5 -235l463 570q-20 155 -123 155zM436 51q62 0 124 71.5t107 179.5t75 234t34 234l-463 -567q20 -152 123 -152zM825 1563h293v-15l-401 -325h-72z" />
    <glyph glyph-name="Scommaaccent" unicode="&#x218;" horiz-adv-x="1142" 
d="M438 -313h-110q-74 18 -74 90q0 62 44.5 100.5t117.5 38.5q70 0 109.5 -40.5t39.5 -108.5q0 -110 -85 -180t-251 -70l7 59q83 0 137.5 33t64.5 78zM1055 455q0 -90 -30.5 -167t-84 -133t-126 -96t-157.5 -59.5t-178 -19.5q-153 0 -276.5 48t-190.5 111l60 346h73
q6 -200 97.5 -309.5t255.5 -109.5q128 0 205 68t77 190q0 98 -59 157.5t-213 134.5q-150 73 -227.5 163.5t-77.5 224.5q0 205 146 329.5t388 124.5q125 0 235 -37.5t181 -99.5l-59 -305h-72q-3 360 -301 360q-115 0 -185.5 -71t-70.5 -181q0 -90 50 -144t175 -114
q82 -38 141 -75t113.5 -87t82.5 -112.5t28 -136.5z" />
    <glyph glyph-name="scommaaccent" unicode="&#x219;" horiz-adv-x="847" 
d="M274 -313h-110q-74 18 -74 90q0 62 44.5 100.5t117.5 38.5q70 0 109.5 -40.5t39.5 -108.5q0 -110 -84.5 -180t-250.5 -70l6 59q83 0 137.5 33t64.5 78zM395 59q66 0 101.5 32.5t35.5 92.5q0 42 -40.5 94t-98 104.5t-114.5 109.5t-97.5 127t-40.5 139q0 143 116 245.5
t286 102.5q126 0 204 -49.5t78 -138.5q0 -49 -36.5 -84.5t-83.5 -49.5h-13q-32 106 -92 173t-143 67q-57 0 -89 -32t-32 -87q0 -31 30 -72.5t74.5 -82.5t97 -92t97 -99.5t74.5 -108t30 -114.5q0 -103 -56.5 -185t-149 -126.5t-201.5 -44.5q-153 0 -249.5 64.5t-96.5 164.5
q0 54 32.5 95.5t85.5 62.5h15q30 -142 102 -225t174 -83z" />
    <glyph glyph-name="uni0237" unicode="&#x237;" horiz-adv-x="567" 
d="M569 1106l-204 -862q-85 -361 -217.5 -521.5t-333.5 -160.5q-99 0 -162.5 40t-63.5 109q0 62 40 98t98 44h43q3 -102 27 -161t67 -59q51 0 81.5 73t84.5 294l211 905l-115 72l8 41l393 88h43z" />
    <glyph glyph-name="circumflex" unicode="&#x2c6;" 
d="M686 1567l158 -350h-82l-203 196l-287 -196h-92l307 350h199z" />
    <glyph glyph-name="caron" unicode="&#x2c7;" 
d="M338 1223l-158 350h82l203 -197l287 197h92l-307 -350h-199z" />
    <glyph glyph-name="breve" unicode="&#x2d8;" 
d="M449 1223q-131 0 -187 86.5t-20 246.5h77q-11 -93 31.5 -133.5t130.5 -40.5q184 0 238 174h78q-37 -163 -125 -248t-223 -85z" />
    <glyph glyph-name="dotaccent" unicode="&#x2d9;" 
d="M506 1237q-67 0 -109.5 41.5t-42.5 101.5q0 68 46 115t118 47q66 0 109 -41.5t43 -101.5q0 -67 -46.5 -114.5t-117.5 -47.5z" />
    <glyph glyph-name="ring" unicode="&#x2da;" 
d="M618 1378q0 44 -26 70.5t-72 26.5q-55 0 -84.5 -35.5t-29.5 -89.5q0 -45 26.5 -72t71.5 -27q55 0 84.5 36t29.5 91zM317 1348q0 88 58.5 147t146.5 59q85 0 135 -49t50 -125q0 -88 -59 -148.5t-146 -60.5q-85 0 -135 49.5t-50 127.5z" />
    <glyph glyph-name="ogonek" unicode="&#x2db;" 
d="M709 61l10 -26q-120 -57 -190 -124t-70 -138q0 -39 24.5 -63.5t65.5 -24.5q81 0 176 79l20 -32q-70 -77 -142 -122.5t-159 -45.5q-74 0 -121 38t-47 107q0 37 14 72t35.5 62.5t58 55.5t69 47.5t82.5 42.5t85 37t89 35z" />
    <glyph glyph-name="tilde" unicode="&#x2dc;" 
d="M616 1235q-39 0 -77 18.5t-63.5 41t-58.5 41t-63 18.5q-41 0 -74.5 -27.5t-74.5 -87.5l-51 31q72 140 125.5 197t128.5 57q39 0 76.5 -18.5t63 -41t58 -41t62.5 -18.5q42 0 76 27.5t73 87.5l53 -31q-72 -140 -125.5 -197t-128.5 -57z" />
    <glyph glyph-name="hungarumlaut" unicode="&#x2dd;" 
d="M322 1563h253l-4 -15l-381 -325h-73zM651 1563h256l-4 -15l-381 -325h-73z" />
    <glyph glyph-name="pi" unicode="&#x3c0;" horiz-adv-x="1341" 
d="M930 905h-344q-65 -309 -124.5 -505t-148.5 -400h-284l10 53q21 32 72.5 109.5t81 123.5t75.5 127.5t76 148.5t61.5 158.5t51.5 184.5h-252l43 197h1091l-75 -197h-164q-139 -524 -139 -704q0 -84 83 -84q54 0 95 16v-45q-135 -108 -262 -108q-82 0 -130.5 46.5
t-48.5 127.5q0 100 52.5 261.5t179.5 489.5z" />
    <glyph glyph-name="Wgrave" unicode="&#x1e80;" horiz-adv-x="1945" 
d="M1303 1186l88 -783l426 775q43 84 43 118t-29.5 50.5t-114.5 19.5l15 72h407l-16 -72q-52 -7 -83 -22t-52 -54l-732 -1302h-81l-107 843l-485 -843h-84l-205 1302q-7 62 -103 76l17 72h577l-14 -72q-96 -6 -132 -28.5t-36 -75.5q0 -38 6 -76l115 -789l328 576l-39 317
q-4 36 -28.5 52.5t-68.5 23.5l15 72h549l-15 -72q-97 -6 -132.5 -29.5t-35.5 -79.5q0 -31 7 -71zM885 1835h280l74 -305h-72l-282 291v14z" />
    <glyph glyph-name="wgrave" unicode="&#x1e81;" horiz-adv-x="1509" 
d="M700 918l-110 61l10 37l342 90h21l57 -848l164 211q143 175 143 328q0 84 -51.5 125.5t-140.5 35.5l2 25q34 50 88.5 86.5t120.5 36.5q91 0 133.5 -55t42.5 -136q0 -69 -35 -147.5t-85 -146.5t-138 -172l-398 -463h-82l-47 514l-411 -514h-82l-84 932l-117 65l12 37
l346 86h23l57 -832l248 314zM598 1563h274l91 -340h-70l-295 325v15z" />
    <glyph glyph-name="Wacute" unicode="&#x1e82;" horiz-adv-x="1945" 
d="M1303 1186l88 -783l426 775q43 84 43 118t-29.5 50.5t-114.5 19.5l15 72h407l-16 -72q-52 -7 -83 -22t-52 -54l-732 -1302h-81l-107 843l-485 -843h-84l-205 1302q-7 62 -103 76l17 72h577l-14 -72q-96 -6 -132 -28.5t-36 -75.5q0 -38 6 -76l115 -789l328 576l-39 317
q-4 36 -28.5 52.5t-68.5 23.5l15 72h549l-15 -72q-97 -6 -132.5 -29.5t-35.5 -79.5q0 -31 7 -71zM1315 1835h299v-14l-379 -291h-72z" />
    <glyph glyph-name="wacute" unicode="&#x1e83;" horiz-adv-x="1509" 
d="M700 918l-110 61l10 37l342 90h21l57 -848l164 211q143 175 143 328q0 84 -51.5 125.5t-140.5 35.5l2 25q34 50 88.5 86.5t120.5 36.5q91 0 133.5 -55t42.5 -136q0 -69 -35 -147.5t-85 -146.5t-138 -172l-398 -463h-82l-47 514l-411 -514h-82l-84 932l-117 65l12 37
l346 86h23l57 -832l248 314zM1028 1563h293v-15l-401 -325h-72z" />
    <glyph glyph-name="Wdieresis" unicode="&#x1e84;" horiz-adv-x="1945" 
d="M1303 1186l88 -783l426 775q43 84 43 118t-29.5 50.5t-114.5 19.5l15 72h407l-16 -72q-52 -7 -83 -22t-52 -54l-732 -1302h-81l-107 843l-485 -843h-84l-205 1302q-7 62 -103 76l17 72h577l-14 -72q-96 -6 -132 -28.5t-36 -75.5q0 -38 6 -76l115 -789l328 576l-39 317
q-4 36 -28.5 52.5t-68.5 23.5l15 72h549l-15 -72q-97 -6 -132.5 -29.5t-35.5 -79.5q0 -31 7 -71zM1026 1534q-63 0 -103 40.5t-40 100.5q0 64 44.5 110t110.5 46q64 0 104 -40t40 -99q0 -64 -45 -111t-111 -47zM1427 1534q-63 0 -103 40.5t-40 100.5q0 64 44 110t110 46
q65 0 104 -39.5t39 -99.5q0 -64 -44 -111t-110 -47z" />
    <glyph glyph-name="wdieresis" unicode="&#x1e85;" horiz-adv-x="1509" 
d="M700 918l-110 61l10 37l342 90h21l57 -848l164 211q143 175 143 328q0 84 -51.5 125.5t-140.5 35.5l2 25q34 50 88.5 86.5t120.5 36.5q91 0 133.5 -55t42.5 -136q0 -69 -35 -147.5t-85 -146.5t-138 -172l-398 -463h-82l-47 514l-411 -514h-82l-84 932l-117 65l12 37
l346 86h23l57 -832l248 314zM739 1237q-63 0 -103 40.5t-40 100.5q0 64 45 110t111 46q63 0 103 -40.5t40 -98.5q0 -64 -45 -111t-111 -47zM1116 1237q-63 0 -102 40.5t-39 100.5q0 64 43.5 110t109.5 46q63 0 103.5 -40.5t40.5 -98.5q0 -65 -44.5 -111.5t-111.5 -46.5z" />
    <glyph glyph-name="Ygrave" unicode="&#x1ef2;" horiz-adv-x="1347" 
d="M838 557l-74 -346q-6 -30 -7.5 -50t6 -35t16.5 -23t33 -14.5t45.5 -9.5t62.5 -7l-17 -72h-657l14 72q123 12 159.5 34.5t53.5 104.5l72 342l-252 737q-13 39 -35.5 54.5t-67.5 21.5l17 72h596l-17 -72q-101 -3 -139.5 -23t-38.5 -65q0 -30 21 -98l178 -512l387 516
q63 86 63 119q0 32 -33 47t-114 16l14 72h416l-16 -72q-89 -12 -135 -76zM657 1835h281l74 -305h-72l-283 291v14z" />
    <glyph glyph-name="ygrave" unicode="&#x1ef3;" horiz-adv-x="1042" 
d="M154 918l-121 65l12 37l342 86h23l165 -969l58 82q134 200 181.5 322.5t47.5 232.5q0 97 -56.5 143.5t-148.5 40.5l2 25q34 50 88 86.5t117 36.5q95 0 141 -57.5t46 -143.5q0 -117 -90.5 -287t-284.5 -452q-123 -177 -223 -296t-184 -186t-153 -94.5t-141 -27.5
q-85 0 -142.5 44.5t-57.5 127.5q0 56 36 99t93 58h20q0 -92 39.5 -143t114.5 -51q69 0 133.5 35t148.5 127zM358 1563h275l90 -340h-70l-295 325v15z" />
    <glyph glyph-name="endash" unicode="&#x2013;" horiz-adv-x="1105" 
d="M1032 569h-983l25 99h983z" />
    <glyph glyph-name="emdash" unicode="&#x2014;" horiz-adv-x="1966" 
d="M1917 668l-25 -99h-1843l25 99h1843z" />
    <glyph glyph-name="quoteleft" unicode="&#x2018;" horiz-adv-x="491" 
d="M365 1315h69q56 -13 89.5 -50.5t33.5 -97.5q0 -71 -47 -114t-117 -43q-79 0 -126.5 54t-47.5 140q0 143 116.5 240.5t293.5 101.5v-65q-104 -11 -180.5 -54.5t-83.5 -111.5z" />
    <glyph glyph-name="quoteright" unicode="&#x2019;" horiz-adv-x="491" 
d="M455 1237h-72q-56 11 -89.5 48t-33.5 99q0 69 48 112.5t118 43.5q79 0 125.5 -53.5t46.5 -140.5q0 -142 -116.5 -239t-291.5 -103v65q104 11 180.5 55t84.5 113z" />
    <glyph glyph-name="quotesinglbase" unicode="&#x201a;" horiz-adv-x="491" 
d="M186 -2h-69q-56 13 -89.5 49.5t-33.5 97.5q0 71 46.5 113.5t117.5 42.5q79 0 126.5 -53.5t47.5 -138.5q0 -143 -116.5 -241t-293.5 -104v68q103 10 180 54t84 112z" />
    <glyph glyph-name="quotedblleft" unicode="&#x201c;" horiz-adv-x="886" 
d="M365 1315h69q56 -13 89.5 -50.5t33.5 -97.5q0 -71 -47 -114t-117 -43q-79 0 -126.5 54t-47.5 140q0 143 116.5 240.5t293.5 101.5v-65q-104 -11 -180.5 -54.5t-83.5 -111.5zM760 1315h69q56 -13 89.5 -50.5t33.5 -97.5q0 -71 -47 -114t-117 -43q-79 0 -126.5 54
t-47.5 140q0 142 116.5 239.5t291.5 102.5v-65q-103 -12 -179 -55t-83 -111z" />
    <glyph glyph-name="quotedblright" unicode="&#x201d;" horiz-adv-x="886" 
d="M848 1235h-70q-56 13 -89.5 50t-33.5 97q0 70 47.5 113t118.5 43q79 0 125.5 -53t46.5 -139q0 -142 -116 -239.5t-291 -102.5v65q104 11 179.5 54.5t82.5 111.5zM455 1235h-72q-56 13 -89.5 50t-33.5 97q0 70 47.5 113t118.5 43q79 0 125.5 -53t46.5 -139
q0 -142 -116.5 -239.5t-291.5 -102.5v65q66 7 122.5 27.5t96.5 56.5t46 82z" />
    <glyph glyph-name="quotedblbase" unicode="&#x201e;" horiz-adv-x="886" 
d="M582 -2h-70q-56 13 -89.5 49.5t-33.5 97.5q0 71 46.5 113.5t117.5 42.5q79 0 126.5 -53.5t47.5 -138.5q0 -143 -116.5 -241t-293.5 -104v68q103 10 179.5 54t85.5 112zM186 -2h-69q-56 13 -89.5 49.5t-33.5 97.5q0 71 46.5 113.5t117.5 42.5q79 0 126.5 -53.5
t47.5 -138.5q0 -143 -116.5 -241t-293.5 -104v68q103 10 180 54t84 112z" />
    <glyph glyph-name="dagger" unicode="&#x2020;" horiz-adv-x="747" 
d="M537 1202q-14 -63 3.5 -115t53.5 -75l-4 -17q-51 -58 -119 -241t-121 -402h-26q40 217 48 401.5t-18 241.5l4 17q47 23 87 75t53 115q-49 0 -123 -34.5t-111 -34.5q-35 0 -57.5 21.5t-22.5 57.5q0 42 30 68.5t71 26.5q37 0 104 -35t117 -35q9 49 -6 118.5t-15 90.5
q0 51 26.5 78.5t70.5 27.5q38 0 59 -23t21 -54q0 -38 -54.5 -114.5t-64.5 -123.5q50 0 123.5 35t111.5 35q33 0 55.5 -23t22.5 -59q0 -40 -29 -66t-69 -26q-38 0 -105 34.5t-116 34.5z" />
    <glyph glyph-name="daggerdbl" unicode="&#x2021;" horiz-adv-x="747" 
d="M422 668q50 0 123.5 34.5t111.5 34.5q34 0 56 -22t22 -58q0 -42 -28.5 -68t-69.5 -26q-38 0 -104.5 35t-116.5 35q-5 -42 9.5 -93.5t14.5 -80.5q0 -49 -26.5 -77t-69.5 -28q-36 0 -57 23.5t-21 54.5q0 30 24 63t53 69t36 69q-50 0 -124 -35t-112 -35q-34 0 -55.5 22.5
t-21.5 59.5q0 40 29 66t69 26q38 0 104.5 -34.5t116.5 -34.5q12 60 -7 96.5t-59 62.5l5 19q48 6 82 37.5t40 70.5q8 37 -12.5 69.5t-64.5 39.5l4 16q52 25 86.5 62t46.5 98q-50 0 -123.5 -35t-110.5 -35q-34 0 -56.5 23t-22.5 59q0 40 29.5 66t70.5 26q37 0 104 -34.5
t117 -34.5q4 41 -11.5 92.5t-15.5 81.5q0 49 27 76.5t70 27.5q36 0 57 -23t21 -54t-23.5 -63.5t-52 -68.5t-35.5 -69q49 0 122.5 34.5t110.5 34.5q35 0 57.5 -21.5t22.5 -57.5q0 -42 -29.5 -68.5t-70.5 -26.5q-37 0 -104 35t-117 35q-12 -60 6.5 -97t58.5 -63l-4 -16
q-46 -7 -81.5 -40t-41.5 -69q-8 -39 13 -70.5t65 -37.5l-4 -19q-52 -26 -86.5 -62.5t-46.5 -96.5z" />
    <glyph glyph-name="bullet" unicode="&#x2022;" horiz-adv-x="690" 
d="M61 623q0 118 83.5 202t199.5 84q118 0 201.5 -83.5t83.5 -202.5q0 -117 -83.5 -201t-201.5 -84q-116 0 -199.5 84t-83.5 201z" />
    <glyph glyph-name="ellipsis" unicode="&#x2026;" horiz-adv-x="1382" 
d="M-20 158q0 75 52 126.5t126 51.5t126 -51.5t52 -126.5q0 -76 -52 -127t-126 -51t-126 51t-52 127zM432 158q0 75 51 126.5t125 51.5q75 0 126.5 -51.5t51.5 -126.5q0 -76 -51.5 -127t-126.5 -51q-74 0 -125 51t-51 127zM883 158q0 75 52 126.5t126 51.5t125 -51.5
t51 -126.5q0 -76 -51 -127t-125 -51t-126 51t-52 127z" />
    <glyph glyph-name="perthousand" unicode="&#x2030;" horiz-adv-x="2271" 
d="M526 1458q125 0 208 -79.5t83 -215.5q0 -92 -34 -169.5t-89 -127t-123 -77t-139 -27.5q-125 0 -208 79.5t-83 215.5q0 92 34 169.5t89 127t123 77t139 27.5zM522 1397q-58 0 -104.5 -59.5t-70 -149.5t-23.5 -189q0 -83 24.5 -129.5t87.5 -46.5q58 0 104.5 59.5
t70.5 149.5t24 189q0 83 -24.5 129.5t-88.5 46.5zM1063 -20q-126 0 -208.5 79t-82.5 215q0 92 34 169.5t89 127.5t123 77.5t139 27.5q125 0 208 -79.5t83 -215.5q0 -92 -34 -169.5t-89 -127t-123 -77t-139 -27.5zM1458 1458l-1229 -1478h-100l1231 1478h98zM1067 41
q58 0 104.5 59t70.5 149t24 189q0 83 -24.5 129.5t-88.5 46.5q-58 0 -104.5 -59t-70.5 -149t-24 -189q0 -176 113 -176zM1800 -20q-126 0 -209.5 79.5t-83.5 214.5q0 92 34 169.5t89.5 127.5t123.5 77.5t138 27.5q126 0 209.5 -79.5t83.5 -215.5q0 -92 -34 -169.5
t-89.5 -127t-123.5 -77t-138 -27.5zM1802 41q59 0 106 59t71 149t24 189q0 176 -113 176q-59 0 -105.5 -59t-69.5 -149t-23 -189q0 -83 23.5 -129.5t86.5 -46.5z" />
    <glyph glyph-name="guilsinglleft" unicode="&#x2039;" horiz-adv-x="579" 
d="M70 557l2 12l475 402h76l-308 -408l131 -407h-75z" />
    <glyph glyph-name="guilsinglright" unicode="&#x203a;" horiz-adv-x="579" 
d="M528 569l-2 -12l-475 -401h-76l308 407l-133 408h77z" />
    <glyph glyph-name="fraction" unicode="&#x2044;" horiz-adv-x="579" 
d="M-332 -20l1231 1478h98l-1230 -1478h-99z" />
    <glyph glyph-name="Euro" unicode="&#x20ac;" horiz-adv-x="1329" 
d="M1004 1458q115 0 212 -33t164 -90l-59 -317h-76q-2 180 -58.5 269t-176.5 89q-78 0 -149 -39.5t-126.5 -109t-98.5 -155t-73 -185.5h479l-38 -78h-461q-19 -75 -29 -162h408l-41 -78h-375v-55q0 -212 59 -330t183 -118q68 0 125 25.5t107 79t92.5 124t88.5 172.5h86
l-102 -375q-183 -115 -410 -115q-253 0 -390.5 150.5t-137.5 411.5v30h-168l22 78h152q9 83 33 162h-156l23 78h157q46 120 119.5 224t167 181.5t209.5 121.5t238 44z" />
    <glyph glyph-name="uni2117" unicode="&#x2117;" horiz-adv-x="1630" 
d="M889 641h-101l-43 -199q-10 -45 14.5 -59t98.5 -16l-12 -52h-412l12 52q60 2 82.5 16.5t34.5 62.5l125 555q10 44 -9 58.5t-73 17.5l12 51h369q138 0 207.5 -59t69.5 -158q0 -117 -102.5 -193.5t-272.5 -76.5zM885 1067l-84 -369h55q97 0 160 53t63 156q0 73 -36 116.5
t-111 43.5h-47zM809 -20q-148 0 -277 53t-218.5 144t-141 218t-51.5 271q0 163 60.5 309.5t164 252.5t248.5 168t307 62q148 0 277 -53t218.5 -144t141 -218t51.5 -271q0 -163 -60.5 -309.5t-164 -252.5t-248.5 -168t-307 -62zM809 37q150 0 284 57.5t230 156t151.5 234.5
t55.5 287q0 132 -47 248t-129 200t-199.5 132.5t-253.5 48.5q-150 0 -284 -57.5t-230 -156t-151.5 -234.5t-55.5 -287q0 -132 47 -248t129 -200t199.5 -132.5t253.5 -48.5z" />
    <glyph glyph-name="trademark" unicode="&#x2122;" horiz-adv-x="1806" 
d="M305 1438h625l-33 -217h-53q-7 39 -12 59t-13.5 44t-19.5 35t-28.5 19t-41.5 8h-37l-112 -509q-9 -42 8 -54.5t74 -17.5l-11 -47h-356l10 47q52 3 76 16t31 49l112 516h-37q-58 0 -94.5 -36.5t-91.5 -128.5h-55zM1335 985l207 385q20 38 27 68h264l-18 -49
q-46 -3 -68 -17t-31 -47l-24 -465q-3 -30 12 -41t57 -14l-10 -47h-336l8 47q32 1 51 5.5t31.5 11.5t19 24t9 34.5t4.5 51.5l16 334l-272 -508h-68l-69 508l-121 -342q-11 -29 -15 -43t-5 -31t7.5 -24.5t26.5 -13.5t49 -7l-10 -47h-254l11 47q40 3 62 15.5t32 39.5l164 465
q0 33 -12.5 47t-55.5 17l10 49h246q-3 -37 0 -66z" />
    <glyph glyph-name="Omega" unicode="&#x2126;" horiz-adv-x="1536" 
d="M948 1389q-86 0 -161.5 -50.5t-129.5 -133t-93 -186t-58 -211t-19 -206.5q0 -270 123 -442l-35 -160h-526l27 377h49q17 -51 27 -78t26 -53t30 -36.5t41 -19.5t56.5 -10.5t79.5 -1.5h145q-54 23 -108 70t-103.5 114t-80.5 160.5t-31 194.5q0 143 59 278.5t157.5 237.5
t237 163.5t289.5 61.5q228 0 364 -135t136 -360q0 -127 -48.5 -249.5t-132 -223t-192 -180.5t-231.5 -132h143q50 0 80 1.5t61.5 10.5t50 19.5t45.5 36.5t49 53.5t60 77.5h56l-131 -377h-533l33 160q178 162 289.5 405t111.5 490q0 151 -51 242.5t-162 91.5z" />
    <glyph glyph-name="uni2153" unicode="&#x2153;" horiz-adv-x="1638" 
d="M199 -20l1231 1478h100l-1233 -1478h-98zM586 1458h53l-141 -667q-13 -63 11 -80.5t120 -22.5l-13 -59h-514l13 59q98 6 128.5 21.5t41.5 72.5l98 465h-156l11 49l49 11q111 23 173 52.5t126 98.5zM1290 457q93 -11 151 -63.5t58 -135.5q0 -88 -53 -152.5t-130 -94
t-165 -29.5q-128 0 -201 49.5t-73 118.5q0 77 77 104h113q-18 -40 -18 -92q0 -55 26.5 -91t77.5 -36q69 0 110.5 52.5t41.5 137.5q0 74 -34 117t-97 43q-24 0 -58 -6l-8 39q112 40 170.5 84t58.5 108q0 41 -25 65.5t-71 24.5q-101 0 -190 -96l-37 29q49 88 131 140t186 52
q93 0 148 -41.5t55 -115.5q0 -44 -21.5 -81t-58 -62.5t-77.5 -42t-87 -25.5z" />
    <glyph glyph-name="uni2154" unicode="&#x2154;" horiz-adv-x="1703" 
d="M264 -20l1231 1478h98l-1231 -1478h-98zM1356 457q93 -11 151 -63.5t58 -135.5q0 -66 -31 -120t-82 -87.5t-112 -51t-126 -17.5q-128 0 -200 49.5t-72 118.5q0 76 76 104h112q-16 -41 -16 -92q0 -55 27 -91t78 -36q67 0 109 52.5t42 137.5q0 73 -34.5 116.5t-96.5 43.5
q-25 0 -59 -6l-6 39q111 40 169 84t58 108q0 41 -24.5 65.5t-69.5 24.5q-102 0 -191 -96l-39 29q52 89 133.5 140.5t184.5 51.5q94 0 148 -41.5t54 -115.5q0 -58 -38 -104t-89.5 -70t-113.5 -37zM328 791h213q67 0 100.5 18.5t87.5 85.5h43l-92 -270h-592l8 41
q124 98 209 172t137 127.5t80 98t37.5 76.5t9.5 70q0 53 -31 84t-87 31t-109.5 -29.5t-91.5 -74.5l-31 32q49 86 134.5 143.5t195.5 57.5q102 0 164.5 -53t62.5 -148q0 -39 -10.5 -74.5t-36 -69.5t-50.5 -61t-72 -62.5t-80.5 -59t-97 -66t-101.5 -69.5z" />
    <glyph glyph-name="uni215B" unicode="&#x215b;" horiz-adv-x="1720" 
d="M1614 641q0 -80 -61 -123t-160 -53q172 -79 172 -223q0 -125 -91.5 -193.5t-230.5 -68.5q-133 0 -223 59t-90 149q0 84 65.5 132t167.5 63q-55 30 -90 82.5t-35 118.5q0 109 85 177t214 68q126 0 201.5 -52.5t75.5 -135.5zM1319 295l-133 74q-105 -53 -105 -168
q0 -73 44.5 -119.5t117.5 -46.5q69 0 113.5 38t44.5 101q0 72 -82 121zM1280 530l84 -49q104 66 104 166q0 54 -35 89.5t-96 35.5q-63 0 -100 -35t-37 -92q0 -39 19 -65t61 -50zM199 -20l1231 1478h100l-1233 -1478h-98zM586 1458h53l-141 -667q-13 -63 11 -80.5t120 -22.5
l-13 -59h-514l13 59q98 6 128.5 21.5t41.5 72.5l98 465h-156l11 49l49 11q111 23 173 52.5t126 98.5z" />
    <glyph glyph-name="uni215C" unicode="&#x215c;" horiz-adv-x="1716" 
d="M524 1090q94 -12 151.5 -64.5t57.5 -134.5q0 -67 -31 -121.5t-81.5 -87.5t-111 -50.5t-124.5 -17.5q-129 0 -201.5 49.5t-72.5 118.5q0 74 77 105h111q-16 -44 -16 -92q0 -55 26.5 -92t77.5 -37q67 0 109.5 53.5t42.5 138.5q0 72 -34 115t-97 43q-10 0 -60 -4l-6 39
q110 37 169.5 82t59.5 110q0 40 -25 65t-71 25q-98 0 -190 -96l-37 29q49 88 131 140t186 52q93 0 147 -42t54 -118q0 -44 -21 -80.5t-57.5 -61.5t-77 -41t-86.5 -25zM1612 641q0 -80 -61 -123t-160 -53q172 -79 172 -223q0 -125 -91.5 -193.5t-230.5 -68.5q-133 0 -224 59
t-91 149q0 84 66 132t167 63q-53 30 -88 83t-35 118q0 109 84.5 177t214.5 68q126 0 201.5 -52.5t75.5 -135.5zM1317 295l-133 74q-105 -53 -105 -168q0 -73 44.5 -119.5t117.5 -46.5q68 0 113 38t45 101q0 72 -82 121zM1276 530l86 -49q104 66 104 166q0 54 -35 89.5
t-96 35.5q-63 0 -100 -35t-37 -92q0 -39 18.5 -65t59.5 -50zM205 -20l1231 1478h100l-1233 -1478h-98z" />
    <glyph glyph-name="uni215D" unicode="&#x215d;" horiz-adv-x="1701" 
d="M383 1438h274q40 0 58 8.5t39 38.5h49l-76 -223h-340l-41 -111q171 0 270 -64.5t99 -189.5q0 -127 -91 -206t-229 -79q-130 0 -199 42t-69 112q0 40 21.5 69t54.5 44h102q-18 -49 -18 -91q0 -57 30 -89.5t86 -32.5q67 0 106.5 43.5t39.5 115.5q0 183 -322 183zM1595 641
q0 -80 -61 -123t-160 -53q172 -79 172 -223q0 -126 -90.5 -194t-230.5 -68q-132 0 -223 59t-91 149q0 84 66 132t168 63q-55 30 -90 82.5t-35 118.5q0 109 85 177t214 68q126 0 201 -52.5t75 -135.5zM1300 295l-131 74q-106 -52 -106 -168q0 -73 44.5 -119.5t117.5 -46.5
q69 0 114 38t45 101q0 71 -84 121zM1262 530l84 -49q104 66 104 166q0 54 -35 89.5t-96 35.5t-99 -35t-38 -92q0 -39 19 -65t61 -50zM190 -20l1231 1478h99l-1231 -1478h-99z" />
    <glyph glyph-name="uni215E" unicode="&#x215e;" horiz-adv-x="1574" 
d="M721 1249h-311q-43 0 -78 -30t-72 -97h-63l129 316h594l-11 -43l-565 -779h-143zM1470 641q0 -80 -61 -123t-160 -53q172 -81 172 -223q0 -125 -91 -193.5t-230 -68.5q-133 0 -224.5 59t-91.5 149q0 84 66.5 132t167.5 63q-53 30 -88 83t-35 118q0 109 84 177t213 68
q126 0 202 -52.5t76 -135.5zM1174 295l-132 74q-104 -52 -104 -168q0 -73 44.5 -119.5t117.5 -46.5q68 0 112.5 38t44.5 101q0 73 -83 121zM1135 530l86 -49q104 66 104 166q0 55 -35.5 90t-97.5 35q-61 0 -99 -35t-38 -92q0 -38 19 -64.5t61 -50.5zM63 -20l1231 1478h101
l-1233 -1478h-99z" />
    <glyph glyph-name="partialdiff" unicode="&#x2202;" horiz-adv-x="1148" 
d="M680 1106q50 0 94 -12q-36 143 -130 255t-269 197l37 47q169 -49 300 -138t212.5 -204t123.5 -248t42 -278q0 -201 -76 -370.5t-217.5 -272t-319.5 -102.5q-179 0 -291 118t-112 318q0 133 46.5 258.5t125.5 221t193 153t241 57.5zM805 807q0 115 -14 207q-43 18 -89 18
q-75 0 -142 -75t-111 -187.5t-69.5 -239.5t-25.5 -237t31.5 -175t91.5 -65q67 0 129.5 73.5t105 185.5t68 244.5t25.5 250.5z" />
    <glyph glyph-name="Delta" unicode="&#x2206;" horiz-adv-x="1357" 
d="M1217 0h-1268l14 72l873 1366h94l301 -1366zM715 1094l-633 -1004h838z" />
    <glyph glyph-name="product" unicode="&#x220f;" horiz-adv-x="1579" 
d="M1239 1356h-559l-330 -1546q-17 -83 6 -106.5t129 -35.5l-14 -71h-627l15 71q110 12 142.5 35t49.5 107l301 1415q18 83 -4.5 106t-128.5 35l14 72h1489l-16 -72q-112 -12 -144.5 -34.5t-50.5 -106.5l-301 -1415q-17 -84 5.5 -107t127.5 -35l-12 -71h-629l15 71
q111 12 143 35t49 107z" />
    <glyph glyph-name="summation" unicode="&#x2211;" horiz-adv-x="1218" 
d="M84 -164h469q81 0 122.5 4.5t91 26t92 63t104.5 117.5h63l-170 -450h-1051l15 75l768 801l-389 877l20 88h1049l-78 -365h-60q-13 55 -21.5 87t-23 69.5t-31 57.5t-41 38.5t-57.5 25.5t-77 7h-369l326 -733l-7 -19z" />
    <glyph glyph-name="minus" unicode="&#x2212;" horiz-adv-x="1165" 
d="M150 696l26 123h903l-26 -123h-903z" />
    <glyph glyph-name="radical" unicode="&#x221a;" horiz-adv-x="1183" 
d="M610 379l633 1079h100l-860 -1458h-125l-86 911q-6 63 -26.5 86.5t-77.5 26.5l-51 2l14 76h432z" />
    <glyph glyph-name="infinity" unicode="&#x221e;" horiz-adv-x="1476" 
d="M713 719l-64 90q-46 64 -93.5 95.5t-106.5 31.5q-100 0 -166 -71.5t-66 -192.5q0 -77 46.5 -125.5t113.5 -48.5q66 0 115.5 27t113.5 89zM823 715l62 -88q45 -66 92.5 -96.5t107.5 -30.5q100 0 167 71.5t67 192.5q0 78 -47 126t-115 48q-64 0 -114 -29t-115 -94zM758 633
l-80 -82q-76 -76 -144.5 -113t-150.5 -37q-119 0 -194.5 73t-75.5 200q0 156 101.5 257t248.5 101q85 0 145 -38.5t115 -116.5l55 -78l80 82q76 78 143.5 115.5t149.5 37.5q119 0 194.5 -72.5t75.5 -199.5q0 -157 -101.5 -258t-248.5 -101q-85 0 -143.5 38t-116.5 118z" />
    <glyph glyph-name="integral" unicode="&#x222b;" horiz-adv-x="886" 
d="M604 999l-182 -872q-55 -261 -174 -394.5t-328 -133.5q-97 0 -155 40t-58 119q0 45 27 77.5t78 47.5h75q-3 -42 -1.5 -82t6 -71t20 -49.5t41.5 -18.5q22 0 38.5 8t31 31.5t25.5 48t25 78t24 98.5t28 131l184 871q55 260 173.5 395t324.5 135q97 0 156 -41.5t59 -120.5
q0 -45 -26.5 -77.5t-75.5 -47.5h-76q3 42 1.5 82.5t-7 72t-22 50.5t-42.5 19q-57 0 -87 -77.5t-83 -318.5z" />
    <glyph glyph-name="approxequal" unicode="&#x2248;" horiz-adv-x="1185" 
d="M182 803l27 125q145 84 262 84q78 0 198 -41t197 -41q124 0 264 84l-26 -125q-143 -84 -264 -84q-76 0 -196 41t-200 41q-117 0 -262 -84zM123 516l24 123q142 82 263 82q78 0 198 -39t197 -39q123 0 264 80l-27 -125q-141 -80 -264 -80q-78 0 -197.5 39t-197.5 39
q-120 0 -260 -80z" />
    <glyph glyph-name="notequal" unicode="&#x2260;" horiz-adv-x="1185" 
d="M193 846l24 119h537l204 217h140l-205 -217h227l-24 -119h-316l-166 -176h445l-27 -117h-528l-207 -219h-141l206 219h-233l27 117h317l168 176h-448z" />
    <glyph glyph-name="lessequal" unicode="&#x2264;" horiz-adv-x="899" 
d="M166 819l2 19l717 344l-31 -144l-459 -215l367 -217l-29 -131zM51 281l25 122h643l-27 -122h-641z" />
    <glyph glyph-name="greaterequal" unicode="&#x2265;" horiz-adv-x="899" 
d="M842 838l-2 -19l-715 -344l29 143l456 216l-366 217l30 131zM750 403l-25 -122h-643l27 122h641z" />
    <glyph glyph-name="lozenge" unicode="&#x25ca;" horiz-adv-x="1138" 
d="M465 78l516 651l-240 631l-514 -651zM528 0h-141l-276 719l567 719h143l277 -719z" />
    <glyph glyph-name="i.dot" horiz-adv-x="632" 
d="M86 315l150 590l-117 72l10 41l395 88h43l-211 -840q-18 -67 -18 -86q0 -30 29 -30t70 35t106 114l39 -33q-105 -153 -184.5 -219.5t-172.5 -66.5q-79 0 -121.5 45t-42.5 120q0 54 25 170zM483 1237q-67 0 -109 41.5t-42 101.5q0 68 46 115t118 47q66 0 108.5 -41.5
t42.5 -101.5q0 -67 -46.5 -114.5t-117.5 -47.5z" />
    <glyph glyph-name="space_uni0326" 
d="M553 -313h-111q-73 18 -73 90q0 62 44 100.5t117 38.5q70 0 110 -40.5t40 -108.5q0 -110 -85 -180t-251 -70l6 59q83 0 138 33t65 78z" />
    <glyph glyph-name="space_uni0326.alt" 
d="M471 1456h111q73 -18 73 -90q0 -62 -44 -100.5t-117 -38.5q-70 0 -110 41t-40 108q0 110 85 180t251 70l-6 -59q-84 0 -138.5 -32.5t-64.5 -78.5z" />
    <glyph glyph-name="space_dotbelowcomb" 
d="M506 -379q-67 0 -109.5 41.5t-42.5 101.5q0 68 46 115t118 47q66 0 109 -41.5t43 -101.5q0 -67 -46.5 -114.5t-117.5 -47.5z" />
    <glyph glyph-name="caron.Slovak" 
d="M692 1587l-311 -403h-55l125 420h245z" />
    <glyph glyph-name="cedilla.alt" 
d="M455 -90h53q101 -4 153 -43.5t52 -108.5q0 -108 -108 -164.5t-281 -56.5l-15 64q116 0 183 30.5t67 77.5q0 70 -170 76z" />
    <glyph glyph-name="grave.cap" 
d="M330 1835h280l74 -305h-72l-282 291v14z" />
    <glyph glyph-name="acute.cap" 
d="M449 1835h299v-14l-379 -291h-72z" />
    <glyph glyph-name="circumflex.cap" 
d="M686 1849l158 -319h-82l-203 168l-287 -168h-92l307 319h199z" />
    <glyph glyph-name="tilde.cap" 
d="M616 1534q-39 0 -77 18.5t-63.5 40t-58.5 40t-63 18.5q-41 0 -75 -27.5t-74 -87.5l-51 31q71 140 125 197t129 57q39 0 76.5 -18.5t63 -41t58 -41t62.5 -18.5q42 0 76 28t73 89l53 -33q-71 -139 -125 -195.5t-129 -56.5z" />
    <glyph glyph-name="macron.cap" 
d="M209 1561l29 139h575l-29 -139h-575z" />
    <glyph glyph-name="breve.cap" 
d="M451 1524q-130 0 -191 81t-27 238h76q-8 -89 37.5 -126.5t132.5 -37.5q188 0 244 164h80q-36 -160 -126.5 -239.5t-225.5 -79.5z" />
    <glyph glyph-name="dotaccent.cap" 
d="M506 1536q-67 0 -109.5 42.5t-42.5 102.5q0 68 46 115t118 47q66 0 109 -42t43 -103q0 -67 -46.5 -114.5t-117.5 -47.5z" />
    <glyph glyph-name="dieresis.cap" 
d="M305 1534q-63 0 -103 40.5t-40 100.5q0 64 44.5 110t110.5 46q64 0 104 -40t40 -99q0 -64 -45 -111t-111 -47zM707 1534q-63 0 -103.5 40.5t-40.5 100.5q0 64 44 110t110 46q65 0 104 -39.5t39 -99.5q0 -65 -43.5 -111.5t-109.5 -46.5z" />
    <glyph glyph-name="ring.cap" 
d="M618 1702q0 44 -26 70t-72 26q-55 0 -84.5 -35.5t-29.5 -89.5q0 -44 26 -70t72 -26q55 0 84.5 35.5t29.5 89.5zM317 1671q0 88 59 148.5t146 60.5q85 0 135 -49t50 -127q0 -88 -59 -148.5t-146 -60.5q-85 0 -135 49t-50 127z" />
    <glyph glyph-name="hungarumlaut.cap" 
d="M305 1835h264l-2 -14l-348 -291h-74zM637 1835h264l-2 -14l-348 -291h-74z" />
    <glyph glyph-name="caron.cap" 
d="M338 1530l-158 319h82l203 -168l287 168h92l-307 -319h-199z" />
    <glyph glyph-name="exclamdown.cap" horiz-adv-x="544" 
d="M-25 0l392 989h75l-94 -989h-373zM629 1288q0 -72 -50.5 -123t-119.5 -51q-70 0 -120 51t-50 123q0 69 50 119.5t120 50.5q69 0 119.5 -50.5t50.5 -119.5z" />
    <glyph glyph-name="questiondown.cap" horiz-adv-x="933" 
d="M453 500q-56 -33 -91.5 -58.5t-69.5 -60t-49.5 -76t-15.5 -92.5q0 -77 43 -123.5t119 -46.5q84 0 131 60t47 159q0 54 -10 96h199q51 -41 51 -116q0 -121 -114.5 -191.5t-291.5 -70.5q-191 0 -299 88.5t-108 238.5q0 71 21.5 128t65.5 102.5t94 79t124 71.5
q126 65 188 121t62 135q0 22 -12 62h45q112 -71 112 -201q0 -94 -57.5 -163.5t-183.5 -141.5zM815 1288q0 -72 -49.5 -123t-118.5 -51q-70 0 -120 51t-50 123q0 69 50 119.5t120 50.5q69 0 118.5 -50.5t49.5 -119.5z" />
    <glyph glyph-name="guilsinglleft.cap" horiz-adv-x="579" 
d="M104 723l2 12l474 402h77l-309 -408l133 -410h-78z" />
    <glyph glyph-name="guilsinglright.cap" horiz-adv-x="579" 
d="M561 735l-2 -12l-475 -404h-76l309 410l-133 408h76z" />
    <glyph glyph-name="guillemotleft.cap" horiz-adv-x="929" 
d="M104 723l2 12l474 402h77l-309 -408l133 -410h-78zM453 723l2 12l475 402h76l-310 -408l133 -410h-75z" />
    <glyph glyph-name="guillemotright.cap" horiz-adv-x="929" 
d="M909 735l-2 -12l-473 -404h-78l310 410l-134 408h78zM561 735l-2 -12l-475 -404h-76l309 410l-133 408h76z" />
    <glyph glyph-name="slash.cap" horiz-adv-x="753" 
d="M940 1577l-944 -1784h-123l942 1784h125z" />
    <glyph glyph-name="backslash.cap" horiz-adv-x="753" 
d="M461 -207l-185 1784h115l184 -1784h-114z" />
    <glyph glyph-name="bar.cap" horiz-adv-x="432" 
d="M506 1577l-379 -1784h-115l379 1784h115z" />
    <glyph glyph-name="brokenbar.cap" horiz-adv-x="432" 
d="M506 1577l-162 -760h-115l162 760h115zM289 553l-162 -760h-115l162 760h115z" />
    <glyph glyph-name="periodcentered.cap" horiz-adv-x="481" 
d="M96 727q0 76 51.5 128t126.5 52t128 -52t53 -128t-52.5 -127t-128.5 -51q-75 0 -126.5 51t-51.5 127z" />
    <glyph glyph-name="bullet.cap" horiz-adv-x="690" 
d="M96 729q0 119 83 203t200 84t200 -84t83 -203q0 -117 -83 -202t-200 -85t-200 85t-83 202z" />
    <glyph glyph-name="hyphen.cap" horiz-adv-x="655" 
d="M612 666h-532l29 127h532z" />
    <glyph glyph-name="endash.cap" horiz-adv-x="1105" 
d="M1063 674h-983l24 100h983z" />
    <glyph glyph-name="emdash.cap" horiz-adv-x="1966" 
d="M1948 774l-25 -100h-1843l24 100h1844z" />
    <glyph glyph-name="parenleft.cap" horiz-adv-x="727" 
d="M143 463q0 162 52 322t145.5 301t214 263.5t266.5 227.5h97q-114 -99 -209 -221t-159 -245.5t-108.5 -253.5t-65 -248.5t-20.5 -227.5q0 -360 164 -590h-96q-138 141 -209.5 312.5t-71.5 359.5z" />
    <glyph glyph-name="parenright.cap" horiz-adv-x="727" 
d="M637 903q0 -161 -52 -320.5t-145.5 -300.5t-215 -263.5t-267.5 -227.5h-96q142 123 253 279t177 315t99.5 312t33.5 290q0 357 -166 590h98q137 -141 209 -314t72 -360z" />
    <glyph glyph-name="bracketleft.cap" horiz-adv-x="665" 
d="M569 1386l-297 -1402q-4 -20 -5 -35.5t3.5 -27.5t10.5 -20t20.5 -14.5t27.5 -10t38 -7t45.5 -5t56.5 -3.5l-14 -68h-412l379 1784h412l-15 -68q-49 -3 -75 -5.5t-57 -7.5t-46.5 -12.5t-31.5 -20.5t-25 -31.5t-15 -45.5z" />
    <glyph glyph-name="bracketright.cap" horiz-adv-x="665" 
d="M178 -16l299 1402q4 20 5 35.5t-3.5 27.5t-10 20t-20.5 14.5t-27.5 10t-37.5 7t-45.5 5t-56.5 3.5l14 68h412l-379 -1784h-412l12 68q137 8 185.5 28.5t64.5 94.5z" />
    <glyph glyph-name="braceleft.cap" horiz-adv-x="724" 
d="M156 670l6 30q177 35 215 205l86 410q27 123 139 192.5t295 69.5l-8 -51q-90 -10 -147 -56.5t-78 -144.5l-86 -401q-23 -105 -89.5 -157.5t-187.5 -80.5q110 -30 154 -82t22 -158l-86 -399q-21 -98 15.5 -144.5t121.5 -56.5l-10 -51q-184 0 -267 69.5t-56 192.5l88 408
q38 170 -127 205z" />
    <glyph glyph-name="braceright.cap" horiz-adv-x="735" 
d="M662 702l-7 -30q-175 -34 -213 -205l-88 -410q-27 -124 -138.5 -193t-295.5 -69l10 51q90 10 146.5 56.5t77.5 144.5l88 402q22 105 87.5 157t186.5 80q-109 30 -152.5 82t-21.5 158l86 399q21 98 -16.5 144.5t-122.5 56.5l10 51q185 0 268 -69.5t56 -192.5l-88 -408
q-35 -171 127 -205z" />
    <glyph glyph-name="at.cap" horiz-adv-x="1775" 
d="M1251 276q-77 0 -128.5 27t-73 74.5t-25 111.5t15.5 138q-161 -351 -354 -351q-90 0 -145.5 69.5t-55.5 191.5q0 107 43.5 216.5t115 195t170 139t200.5 53.5q115 0 186 -78l148 72h55l-66 -183l-125 -407q-15 -56 -16.5 -99t17.5 -73.5t63 -30.5q94 0 167.5 76.5
t112.5 201t39 269.5q0 122 -37 226t-107 182t-178.5 122.5t-244.5 44.5q-169 0 -313.5 -71t-240.5 -190t-150 -275t-54 -326q0 -202 85.5 -350.5t232.5 -223.5t338 -75q168 0 292.5 35t264.5 116l22 -34q-113 -96 -270.5 -151.5t-337.5 -55.5q-229 0 -405.5 85t-278.5 253.5
t-102 398.5q0 147 43 286.5t125 256t193 204.5t254.5 137.5t301.5 49.5q166 0 302.5 -49t227.5 -135t140 -204.5t49 -256.5q0 -171 -69.5 -313t-183 -221t-243.5 -79zM780 420q60 0 129.5 80.5t130.5 215t101 292.5q-17 34 -48.5 51.5t-68.5 17.5q-85 0 -161 -87t-117 -208
t-41 -233q0 -59 19.5 -94t55.5 -35z" />
    </font>
</defs>
</svg>
