<?xml version="1.0" standalone="no"?>
<!DOCTYPE svg PUBLIC "-//W3C//DTD SVG 1.1//EN" "http://www.w3.org/Graphics/SVG/1.1/DTD/svg11.dtd" >
<svg xmlns="http://www.w3.org/2000/svg" xmlns:xlink="http://www.w3.org/1999/xlink" version="1.1">
<metadata>
Created by FontForge 20170731 at Tue Jul  5 13:16:10 2022
 By Aleksey,,,
(c) 2010 Klim Type Foundry. All rights reserved.
</metadata>
<defs>
<font id="TiemposHeadline-Semibold" horiz-adv-x="1024" >
  <font-face 
    font-family="Tiempos Headline Semibold"
    font-weight="600"
    font-stretch="normal"
    units-per-em="2048"
    panose-1="2 2 7 3 6 3 3 6 4 3"
    ascent="1604"
    descent="-444"
    x-height="1094"
    cap-height="1438"
    bbox="-213 -492 2638 2136"
    underline-thickness="61"
    underline-position="-265"
    unicode-range="U+0020-FB04"
  />
<missing-glyph horiz-adv-x="1966" 
d="M184 0v1597h1598v-1597h-1598zM983 707l-571 -572h1142zM412 1462l571 -571l571 571h-1142zM891 799l-563 563v-1126zM1075 799l563 -563v1126z" />
    <glyph glyph-name="ff" unicode="ff" horiz-adv-x="1411" 
d="M166 1104v29q0 110 37.5 196t103 138.5t149.5 79t183 26.5q183 0 309 -94q122 125 340 125q146 0 218.5 -48.5t72.5 -138.5q0 -39 -19.5 -71t-52.5 -50h-170q9 38 9 88q0 140 -80 140q-101 0 -101 -164v-266h246v-103h-246v-809q0 -61 34.5 -79.5t135.5 -28.5v-74h-616
v74q70 5 94.5 20t24.5 64v833h-342v-833q0 -49 23.5 -64t94.5 -20v-74h-569v74q71 5 96 20.5t25 63.5v833h-148v68zM838 1167q0 100 28 179q-63 149 -204 149q-166 0 -166 -242v-159h342v73z" />
    <glyph glyph-name="fi" unicode="fi" horiz-adv-x="1318" 
d="M1165 1114v-956q0 -49 25.5 -64t97.5 -20v-74h-569v74q70 5 94.5 20t24.5 64v833h-342v-833q0 -49 23.5 -64t94.5 -20v-74h-569v74q71 5 96 20.5t25 63.5v833h-148v68l148 45v39q0 115 40 204.5t110 144.5t161.5 83.5t198.5 28.5q165 0 255.5 -50t90.5 -141
q0 -42 -20.5 -74t-53.5 -47h-192q8 33 8 86q0 146 -117 146q-151 0 -151 -256v-174h522l78 20h69z" />
    <glyph glyph-name="fl" unicode="fl" horiz-adv-x="1318" 
d="M1165 1604v-1446q0 -49 25.5 -64t97.5 -20v-74h-569v74q70 5 94.5 20t24.5 64v1212q-61 156 -191 156q-151 0 -151 -230v-202h209v-103h-209v-833q0 -49 23.5 -64t94.5 -20v-74h-569v74q71 5 96 20.5t25 63.5v833h-148v68l148 45v63q0 215 124.5 326t332.5 111
q151 0 262 -62l227 62h53z" />
    <glyph glyph-name="ffi" unicode="ffi" horiz-adv-x="1988" 
d="M166 1104v29q0 110 37.5 196t103 138.5t149.5 79t183 26.5q199 0 322 -105q139 136 385 136q167 0 256.5 -50t89.5 -141q0 -42 -20.5 -74t-53.5 -47h-193q9 37 9 86q0 146 -117 146q-152 0 -152 -256v-174h523l77 20h70v-956q0 -49 25.5 -64t97.5 -20v-74h-569v74
q71 5 94.5 20t23.5 64v833h-342v-833q0 -49 25.5 -64t97.5 -20v-74h-569v74q70 5 94.5 20t24.5 64v833h-342v-833q0 -49 23.5 -64t94.5 -20v-74h-569v74q71 5 96 20.5t25 63.5v833h-148v68zM838 1143q0 103 32 188q-28 75 -80.5 119.5t-127.5 44.5q-166 0 -166 -242v-159
h342v49z" />
    <glyph glyph-name="ffl" unicode="ffl" horiz-adv-x="1988" 
d="M639 1573q184 0 307 -94q122 125 346 125q151 0 262 -62l228 62h53v-1446q0 -49 25.5 -64t97.5 -20v-74h-569v74q71 5 94.5 20t23.5 64v1212q-61 156 -190 156q-152 0 -152 -230v-202h209v-103h-209v-833q0 -49 24 -64t95 -20v-74h-565v74q70 5 94.5 20t24.5 64v833h-342
v-833q0 -49 23.5 -64t94.5 -20v-74h-569v74q71 5 96 20.5t25 63.5v833h-148v68l148 45v29q0 110 37.5 196t103 138.5t149.5 79t183 26.5zM838 1094v73q0 100 28 179q-63 149 -204 149q-166 0 -166 -242v-159h342z" />
    <glyph glyph-name="f_b" unicode="fb" horiz-adv-x="1966" 
d="M838 123v1247q-61 156 -191 156q-151 0 -151 -230v-202h209v-103h-209v-833q0 -49 23.5 -64t94.5 -20v-74h-569v74q71 5 96 20.5t25 63.5v833h-148v68l148 45v63q0 215 124.5 326t332.5 111q151 0 262 -62l227 62h53v-684q55 83 141.5 138.5t202.5 55.5q188 0 300 -131
t112 -369q0 -150 -45.5 -271.5t-125 -200t-185.5 -120.5t-230 -42q-146 0 -277.5 35.5t-219.5 107.5zM1333 66q118 0 186 125t68 317q0 196 -69 303t-199 107q-84 0 -154 -54v-573q0 -225 168 -225z" />
    <glyph glyph-name="f_f_b" unicode="ffb" horiz-adv-x="2635" 
d="M1507 123v1247q-61 156 -190 156q-152 0 -152 -230v-202h209v-103h-209v-833q0 -49 24 -64t95 -20v-74h-565v74q70 5 94.5 20t24.5 64v833h-342v-833q0 -49 23.5 -64t94.5 -20v-74h-569v74q71 5 96 20.5t25 63.5v833h-148v68l148 45v29q0 110 37.5 196t103 138.5
t149.5 79t183 26.5q184 0 307 -94q122 125 346 125q151 0 262 -62l228 62h53v-684q133 194 344 194q188 0 300 -131t112 -369q0 -150 -45.5 -271.5t-125 -200t-185.5 -120.5t-230 -42q-146 0 -278 35.5t-220 107.5zM2003 66q118 0 186 125t68 317q0 196 -69 303t-199 107
q-84 0 -154 -54v-573q0 -225 168 -225zM838 1167q0 100 28 179q-63 149 -204 149q-166 0 -166 -242v-159h342v73z" />
    <glyph glyph-name="f_h" unicode="fh" horiz-adv-x="1986" 
d="M838 158v1212q-61 156 -191 156q-151 0 -151 -230v-202h196v-103h-196v-833q0 -49 23.5 -64t94.5 -20v-74h-569v74q71 5 96 20.5t25 63.5v833h-148v68l148 45v63q0 215 124.5 326t332.5 111q151 0 262 -62l227 62h53v-693q76 91 167 147t212 56q147 0 225 -85t78 -251
v-620q0 -48 25 -63.5t96 -20.5v-74h-569v74q71 5 95 20t24 64v598q0 82 -34.5 122t-115.5 40q-98 0 -203 -66v-694q0 -49 24 -64t95 -20v-74h-569v74q72 5 97.5 20t25.5 64z" />
    <glyph glyph-name="f_f_h" unicode="ffh" horiz-adv-x="2658" 
d="M1507 158v1212q-61 156 -190 156q-152 0 -152 -230v-202h209v-103h-209v-833q0 -49 24 -64t95 -20v-74h-565v74q70 5 94.5 20t24.5 64v833h-342v-833q0 -49 23.5 -64t94.5 -20v-74h-569v74q71 5 96 20.5t25 63.5v833h-148v68l148 45v29q0 110 37.5 196t103 138.5
t149.5 79t183 26.5q184 0 307 -94q122 125 346 125q151 0 262 -62l228 62h53v-693q49 58 96.5 98.5t123.5 72.5t161 32q147 0 224 -85t77 -251v-620q0 -48 25 -63.5t96 -20.5v-74h-567v74q70 5 93 20t23 64v598q0 82 -34 122t-115 40q-98 0 -203 -66v-694q0 -49 24.5 -64
t94.5 -20v-74h-568v74q71 5 96 20.5t25 63.5zM838 1167q0 100 28 179q-63 149 -204 149q-166 0 -166 -242v-159h342v73z" />
    <glyph glyph-name="f_idieresis" unicode="f&#xef;" horiz-adv-x="1318" 
d="M1165 1114v-956q0 -49 25.5 -64t97.5 -20v-74h-569v74q70 5 94.5 20t24.5 64v833h-342v-833q0 -49 23.5 -64t94.5 -20v-74h-569v74q71 5 96 20.5t25 63.5v833h-148v68l148 45v39q0 114 39 203.5t107.5 145t157 84t192.5 28.5q153 0 234 -56.5t81 -154.5q0 -42 -21.5 -78
t-54.5 -51h-186q10 42 10 98q0 162 -96 162q-65 0 -99 -66t-34 -190v-174h522l78 20h69zM1042 1399q0 65 48 112.5t112 47.5q67 0 114.5 -47.5t47.5 -112.5q0 -66 -47.5 -113t-114.5 -47q-65 0 -112.5 47t-47.5 113z" />
    <glyph glyph-name="f_f_idieresis" unicode="ff&#xef;" horiz-adv-x="1988" 
d="M639 1573q198 0 322 -103q137 134 370 134q153 0 234.5 -56.5t81.5 -154.5q0 -42 -21.5 -78t-54.5 -51h-187q11 46 11 98q0 162 -97 162q-65 0 -99 -66t-34 -190v-174h523l77 20h70v-956q0 -49 25.5 -64t97.5 -20v-74h-569v74q71 5 94.5 20t23.5 64v833h-342v-833
q0 -49 25.5 -64t97.5 -20v-74h-569v74q70 5 94.5 20t24.5 64v833h-342v-833q0 -49 23.5 -64t94.5 -20v-74h-569v74q71 5 96 20.5t25 63.5v833h-148v68l148 45v29q0 110 37.5 196t103 138.5t149.5 79t183 26.5zM838 1094v49q0 102 32 190q-28 73 -81 117.5t-127 44.5
q-166 0 -166 -242v-159h342zM1712 1399q0 65 48 112.5t112 47.5q68 0 115 -47.5t47 -112.5q0 -67 -47 -113.5t-115 -46.5q-65 0 -112.5 47t-47.5 113z" />
    <glyph glyph-name="f_j" unicode="fj" horiz-adv-x="1288" 
d="M838 991h-342v-833q0 -49 23.5 -64t94.5 -20v-74h-569v74q71 5 96 20.5t25 63.5v833h-148v68l148 45v39q0 115 40 204.5t110 144.5t161.5 83.5t198.5 28.5q165 0 255.5 -50t90.5 -141q0 -42 -20.5 -74t-53.5 -47h-192q8 33 8 86q0 146 -117 146q-151 0 -151 -256v-174
h522l78 20h69v-909q0 -157 -28 -242t-93 -158q-67 -76 -139.5 -129.5t-185.5 -117.5l-33 36l84 138q45 72 56.5 158t11.5 235v866z" />
    <glyph glyph-name="f_f_j" unicode="ffj" horiz-adv-x="1957" 
d="M1507 991h-342v-833q0 -49 25.5 -64t97.5 -20v-74h-569v74q70 5 94.5 20t24.5 64v833h-342v-833q0 -49 23.5 -64t94.5 -20v-74h-569v74q71 5 96 20.5t25 63.5v833h-148v68l148 45v29q0 110 37.5 196t103 138.5t149.5 79t183 26.5q199 0 322 -105q139 136 385 136
q167 0 256.5 -50t89.5 -141q0 -42 -20.5 -74t-53.5 -47h-193q9 37 9 86q0 146 -117 146q-152 0 -152 -256v-174h523l77 20h70v-909q0 -156 -27.5 -241t-91.5 -159q-68 -76 -141 -129.5t-186 -117.5l-33 36l84 138q31 50 46.5 117.5t18 120.5t2.5 155v866zM838 1143
q0 103 32 188q-28 75 -80.5 119.5t-127.5 44.5q-166 0 -166 -242v-159h342v49z" />
    <glyph glyph-name="f_k" unicode="fk" horiz-adv-x="1929" 
d="M1184 582l317 288q64 58 64 93q0 28 -26 38.5t-101 18.5v74h448v-74q-60 -10 -96 -25t-72 -51l-254 -237l465 -656v-51h-346zM838 158v1212q-61 156 -191 156q-151 0 -151 -230v-202h209v-103h-209v-833q0 -49 23.5 -64t94.5 -20v-74h-569v74q71 5 96 20.5t25 63.5v833
h-148v68l148 45v63q0 215 124.5 326t332.5 111q151 0 262 -62l227 62h53v-1446q0 -49 25.5 -64t97.5 -20v-74h-573v74q72 5 97.5 20t25.5 64z" />
    <glyph glyph-name="f_f_k" unicode="ffk" horiz-adv-x="2598" 
d="M1507 158v1212q-61 156 -190 156q-152 0 -152 -230v-202h209v-103h-209v-833q0 -49 24 -64t95 -20v-74h-565v74q70 5 94.5 20t24.5 64v833h-342v-833q0 -49 23.5 -64t94.5 -20v-74h-569v74q71 5 96 20.5t25 63.5v833h-148v68l148 45v29q0 110 37.5 196t103 138.5
t149.5 79t183 26.5q184 0 307 -94q122 125 346 125q151 0 262 -62l228 62h53v-1446q0 -49 25.5 -64t97.5 -20v-74h-572v74q71 5 96 20.5t25 63.5zM1853 582l318 288q63 57 63 93q0 28 -26 38.5t-101 18.5v74h449v-74q-60 -10 -96 -25t-72 -51l-254 -237l465 -656v-51h-346z
M838 1167q0 100 28 179q-63 149 -204 149q-166 0 -166 -242v-159h342v73z" />
    <glyph glyph-name=".notdef" horiz-adv-x="1966" 
d="M184 0v1597h1598v-1597h-1598zM983 707l-571 -572h1142zM412 1462l571 -571l571 571h-1142zM891 799l-563 563v-1126zM1075 799l563 -563v1126z" />
    <glyph glyph-name=".null" horiz-adv-x="0" 
 />
    <glyph glyph-name="nonmarkingreturn" horiz-adv-x="682" 
 />
    <glyph glyph-name="space" unicode=" " horiz-adv-x="374" 
 />
    <glyph glyph-name="exclam" unicode="!" horiz-adv-x="571" 
d="M104 164q0 77 53.5 131.5t127.5 54.5q76 0 129 -54t53 -132q0 -76 -53 -130t-129 -54q-74 0 -127.5 54.5t-53.5 129.5zM334 463h-98l-150 975h399z" />
    <glyph glyph-name="quotedbl" unicode="&#x22;" horiz-adv-x="690" 
d="M190 952h-26l-82 283q-39 149 -39 192q0 61 35 102.5t100 41.5t100 -41.5t35 -102.5q0 -53 -41 -192zM526 952h-26l-82 283q-41 139 -41 192q0 61 35 102.5t100 41.5t100 -41.5t35 -102.5q0 -43 -39 -192z" />
    <glyph glyph-name="numbersign" unicode="#" horiz-adv-x="1089" 
d="M952 473h-241l-156 -493l-96 30l145 463h-278l-156 -493l-94 30l145 463h-174v86h203l106 338h-219v88h246l152 475l94 -30l-142 -445h279l152 475l96 -30l-142 -445h170v-88h-196l-109 -338h215v-86zM461 897l-109 -338h281l106 338h-278z" />
    <glyph glyph-name="dollar" unicode="$" horiz-adv-x="1146" 
d="M543 -20q-26 0 -72 4l-37 -215h-80l39 223q-197 26 -319 123l-19 354h97q28 -140 95 -238t165 -137l84 473q-4 2 -11.5 4t-11.5 4q-101 32 -172.5 69.5t-126 89t-81.5 121.5t-27 161q0 199 137.5 320.5t359.5 121.5q30 0 88 -4l37 207h80l-39 -217q160 -29 268 -107v-309
h-84q-48 233 -202 309l-80 -448h4q89 -29 152.5 -56.5t122 -66.5t94 -85.5t56.5 -110.5t21 -144q0 -110 -42.5 -196.5t-116.5 -140t-170.5 -81.5t-208.5 -28zM803 285q0 94 -53 149.5t-181 106.5l-82 -467q18 -4 56 -4q118 0 189 57.5t71 157.5zM336 1161q0 -95 49 -146.5
t172 -99.5l78 445q-46 8 -72 8q-102 0 -164.5 -56t-62.5 -151z" />
    <glyph glyph-name="percent" unicode="%" horiz-adv-x="1595" 
d="M68 1108q0 163 101 256.5t247 93.5t247 -93.5t101 -256.5q0 -164 -101 -258t-247 -94t-247 94t-101 258zM276 1108q0 -129 34 -208t106 -79q73 0 106 78.5t33 208.5q0 128 -33 205.5t-106 77.5q-72 0 -106 -78t-34 -205zM297 -20l899 1478h100l-897 -1478h-102zM1528 330
q0 -163 -102 -256.5t-248 -93.5t-247.5 93.5t-101.5 256.5q0 164 101.5 258t247.5 94t248 -94t102 -258zM1319 330q0 129 -34 207.5t-107 78.5q-72 0 -106 -79t-34 -207q0 -127 34 -205t106 -78q73 0 107 78t34 205z" />
    <glyph glyph-name="ampersand" unicode="&#x26;" horiz-adv-x="1470" 
d="M23 373q0 282 331 383q-133 158 -133 325q0 173 119 275t315 102q187 0 300.5 -87t113.5 -228q0 -250 -344 -334l350 -410q47 99 47 201q0 61 -34 84.5t-111 26.5v77h459v-77q-106 -3 -150.5 -32.5t-62.5 -115.5q-28 -128 -90 -229l98 -113q64 -77 108 -108.5t105 -34.5
v-78h-395q-70 50 -127 104q-180 -124 -406 -124q-136 0 -246 43.5t-178.5 134t-68.5 215.5zM655 121q106 0 203 51q-7 7 -15 16t-17.5 20t-14.5 17l-410 475q-90 -78 -90 -239q0 -151 94.5 -245.5t249.5 -94.5zM496 1196q0 -34 9 -68t17.5 -56t32 -56t32 -45.5t40 -47.5
t35.5 -40l16 -21q79 49 113 124t34 179q0 91 -42.5 152t-127.5 61q-74 0 -116.5 -49.5t-42.5 -132.5z" />
    <glyph glyph-name="quotesingle" unicode="'" horiz-adv-x="356" 
d="M190 952h-26l-82 283q-39 149 -39 192q0 61 35 102.5t100 41.5t100 -41.5t35 -102.5q0 -53 -41 -192z" />
    <glyph glyph-name="parenleft" unicode="(" horiz-adv-x="741" 
d="M123 643q0 261 122 505t343 429h104q-317 -369 -317 -934t317 -934h-104q-221 185 -343 429t-122 505z" />
    <glyph glyph-name="parenright" unicode=")" horiz-adv-x="741" 
d="M618 643q0 -261 -121.5 -505t-342.5 -429h-105q320 372 320 934t-320 934h105q221 -185 342.5 -429t121.5 -505z" />
    <glyph glyph-name="asterisk" unicode="*" horiz-adv-x="884" 
d="M729 1239l-260 -76l260 -78q58 -15 78.5 -53.5t-4.5 -77.5q-23 -40 -65.5 -41.5t-86.5 41.5l-196 187l65 -262q17 -58 -7.5 -94.5t-70.5 -36.5t-69 36.5t-6 94.5l63 262l-197 -187q-44 -43 -85.5 -41.5t-65.5 41.5q-23 39 -2.5 77.5t78.5 53.5l258 78l-258 76
q-58 17 -78.5 55.5t2.5 77.5q24 40 65.5 41.5t85.5 -41.5l197 -188l-63 264q-17 58 6 94.5t69 36.5t70.5 -36.5t7.5 -94.5l-65 -264l196 188q44 43 86.5 41.5t65.5 -41.5q25 -39 5 -77.5t-79 -55.5z" />
    <glyph glyph-name="plus" unicode="+" horiz-adv-x="1169" 
d="M520 1210h129v-387h387v-131h-387v-387h-129v387h-387v131h387v387z" />
    <glyph glyph-name="comma" unicode="," horiz-adv-x="509" 
d="M291 8h-82q-62 14 -98.5 54.5t-36.5 107.5q0 76 51.5 123t128.5 47q91 0 144 -63.5t53 -167.5q0 -158 -101 -252t-287 -101v74q104 16 161.5 58t66.5 120z" />
    <glyph glyph-name="hyphen" unicode="-" horiz-adv-x="655" 
d="M594 555h-533v143h533v-143z" />
    <glyph glyph-name="period" unicode="." horiz-adv-x="509" 
d="M61 174q0 84 56.5 139.5t138.5 55.5q81 0 137 -55.5t56 -139.5t-56 -139t-137 -55q-83 0 -139 55t-56 139z" />
    <glyph glyph-name="slash" unicode="/" horiz-adv-x="749" 
d="M721 1577l-580 -1866h-139l580 1866h139z" />
    <glyph glyph-name="zero" unicode="0" horiz-adv-x="1335" 
d="M668 59q57 0 100 36t69.5 95t43 146t22.5 179t6 204t-6 203.5t-22.5 178.5t-43 146.5t-69.5 95t-100 35.5q-70 0 -119.5 -52t-75 -148t-36.5 -206.5t-11 -252.5t11 -252.5t36.5 -207t75 -148.5t119.5 -52zM668 -20q-272 0 -441.5 201t-169.5 538t169.5 538t441.5 201
t441 -201t169 -538t-169 -538t-441 -201z" />
    <glyph glyph-name="one" unicode="1" horiz-adv-x="837" 
d="M809 0h-758v78q53 3 84.5 6t57 10.5t37 15.5t19.5 27t9.5 38t1.5 54v893h-209v72l90 16q144 26 231.5 81.5t162.5 164.5h73v-1227q0 -34 2 -54t10.5 -37.5t20 -26.5t36.5 -16t54 -10.5t78 -6.5v-78z" />
    <glyph glyph-name="two" unicode="2" horiz-adv-x="1112" 
d="M330 283h364q50 0 78 3t59.5 13.5t54.5 33t49.5 60t57.5 96.5h62l-58 -489h-987v61l383 385q147 148 210 266t63 251q0 118 -66 189t-186 71q-172 0 -295 -148l-56 37q40 75 85.5 133t107.5 108.5t144.5 77.5t179.5 27q194 0 305.5 -101.5t111.5 -279.5q0 -46 -11.5 -92
t-28.5 -86.5t-48 -86t-60 -81t-74.5 -80t-80 -76t-89 -76t-90.5 -72.5l-94.5 -73.5t-90.5 -70.5z" />
    <glyph glyph-name="three" unicode="3" horiz-adv-x="1087" 
d="M602 825q199 -10 319.5 -119.5t120.5 -279.5q0 -106 -44.5 -192.5t-120 -141t-171.5 -83.5t-204 -29q-232 0 -362 83.5t-130 208.5q0 57 27 100t67 62h205q-18 -59 -18 -125q0 -111 57 -181.5t160 -70.5q100 0 156.5 77.5t56.5 209.5q0 157 -92.5 246.5t-253.5 89.5h-47
l-21 55q171 64 246.5 133t75.5 174q0 89 -53 142t-152 53q-165 0 -281 -145l-49 38q154 328 492 328q165 0 265.5 -81t100.5 -220q0 -59 -22 -110t-56.5 -86t-82 -63.5t-93.5 -45t-96 -27.5z" />
    <glyph glyph-name="four" unicode="4" horiz-adv-x="1271" 
d="M160 479h485v672zM645 213v168h-631v63l717 994h254v-959h240v-98h-240v-168q0 -82 29.5 -107t136.5 -34v-72h-672v72q108 9 137 34t29 107z" />
    <glyph glyph-name="five" unicode="5" horiz-adv-x="1077" 
d="M930 1145h-635l-35 -199q766 6 766 -500q0 -217 -146.5 -341.5t-375.5 -124.5t-356.5 80.5t-127.5 205.5q0 54 29 99.5t72 68.5h198q-16 -66 -16 -121q0 -120 54 -188t163 -68q106 0 170 68t64 184q0 343 -629 346l127 783h539q56 0 77.5 14t51.5 74h69z" />
    <glyph glyph-name="six" unicode="6" horiz-adv-x="1218" 
d="M981 1403q-485 -105 -559 -586q141 111 330 111q183 0 299 -116t116 -312q0 -158 -70.5 -277.5t-191 -181t-272.5 -61.5q-265 0 -418.5 176t-153.5 458q0 169 60 316.5t171 260t279 182.5t375 83zM561 788q-70 0 -147 -30q-6 -67 -6 -140q0 -165 26 -288.5t81.5 -196
t135.5 -72.5q98 0 150.5 91t52.5 241q0 174 -75.5 284.5t-217.5 110.5z" />
    <glyph glyph-name="seven" unicode="7" horiz-adv-x="1038" 
d="M831 1110h-542q-70 0 -111 -40.5t-80 -143.5h-75l92 512h919v-76l-579 -1362h-230z" />
    <glyph glyph-name="eight" unicode="8" horiz-adv-x="1173" 
d="M1053 1124q0 -114 -87 -185.5t-218 -90.5l63 -27q156 -71 231.5 -167.5t75.5 -239.5q0 -199 -143 -316.5t-391 -117.5q-245 0 -390 96t-145 262q0 122 90 201.5t232 105.5l-35 17q-111 53 -176.5 148t-65.5 228q0 188 137 304t355 116t342.5 -89.5t124.5 -244.5zM670 510
l-248 113q-123 -96 -123 -258q0 -138 78.5 -223t208.5 -85q120 0 192 61t72 171q0 81 -44 130t-136 91zM532 954l162 -80q125 93 125 252q0 114 -61.5 184t-173.5 70q-101 0 -162.5 -56t-61.5 -148q0 -82 41 -130t131 -92z" />
    <glyph glyph-name="nine" unicode="9" horiz-adv-x="1218" 
d="M238 37q482 102 559 586q-59 -48 -144 -79.5t-186 -31.5q-183 0 -299.5 116t-116.5 312q0 158 71 277.5t191.5 181t272.5 61.5q265 0 418 -176.5t153 -458.5q0 -169 -60 -316t-171 -259.5t-279 -182.5t-375 -83zM657 651q79 0 146 31q8 90 8 139q0 252 -62.5 404.5
t-181.5 152.5q-98 0 -150 -90.5t-52 -240.5q0 -174 75 -285t217 -111z" />
    <glyph glyph-name="colon" unicode=":" horiz-adv-x="509" 
d="M61 174q0 84 56.5 139.5t138.5 55.5q81 0 137 -55.5t56 -139.5t-56 -139t-137 -55q-83 0 -139 55t-56 139zM61 825q0 84 56.5 139.5t138.5 55.5q81 0 137 -55.5t56 -139.5t-56 -139t-137 -55q-83 0 -139 55t-56 139z" />
    <glyph glyph-name="semicolon" unicode=";" horiz-adv-x="509" 
d="M291 8h-82q-62 14 -98.5 54.5t-36.5 107.5q0 76 51.5 123t128.5 47q91 0 144 -63.5t53 -167.5q0 -158 -101 -252t-287 -101v74q104 16 161.5 58t66.5 120zM61 825q0 84 56.5 139.5t138.5 55.5q81 0 137 -55.5t56 -139.5t-56 -139t-137 -55q-83 0 -139 55t-56 139z" />
    <glyph glyph-name="less" unicode="&#x3c;" horiz-adv-x="864" 
d="M86 745v19l645 393v-156l-420 -245l420 -250v-156z" />
    <glyph glyph-name="equal" unicode="=" horiz-adv-x="1189" 
d="M143 547v127h906v-127h-906zM143 840v129h906v-129h-906z" />
    <glyph glyph-name="greater" unicode="&#x3e;" horiz-adv-x="864" 
d="M778 764v-19l-645 -395v156l420 250l-420 245v156z" />
    <glyph glyph-name="question" unicode="?" horiz-adv-x="933" 
d="M633 1210q0 81 -42 128.5t-120 47.5q-85 0 -125.5 -59t-40.5 -147q0 -63 8 -113h-207q-71 41 -71 125q0 119 120 192.5t312 73.5q208 0 323 -89.5t115 -256.5q0 -122 -70 -211.5t-212 -179.5q-90 -56 -126 -105.5t-36 -126.5v-36h-43q-60 29 -97.5 86.5t-37.5 132.5
q0 144 161 266q51 39 75.5 60t56 56.5t44.5 72.5t13 83zM260 164q0 78 53.5 132t128.5 54t129 -54t54 -132q0 -75 -54 -129.5t-129 -54.5t-128.5 54.5t-53.5 129.5z" />
    <glyph glyph-name="at" unicode="@" horiz-adv-x="1794" 
d="M1231 156q-62 0 -108 18.5t-72.5 50.5t-39.5 76.5t-12.5 94.5t11.5 106q-84 -165 -169.5 -254.5t-191.5 -89.5q-91 0 -148 69.5t-57 190.5q0 107 41.5 214.5t110.5 192t167 138t202 53.5q64 0 114.5 -23t79.5 -57l148 70h69l-65 -187l-111 -411q-11 -47 -12.5 -87t18 -67
t58.5 -27q85 0 153.5 71.5t106 194.5t37.5 271q0 118 -38.5 222t-109.5 183t-181 124.5t-245 45.5q-168 0 -309.5 -68.5t-236 -184t-147 -268t-52.5 -320.5q0 -158 51 -285t141.5 -209.5t212 -126t264.5 -43.5q166 0 292 36.5t263 117.5l25 -37q-111 -98 -269 -154.5
t-343 -56.5q-170 0 -316 50.5t-255.5 144t-171.5 237.5t-62 322q0 184 68.5 352.5t187.5 294t290.5 200t366.5 74.5q170 0 309.5 -51t231.5 -139t142 -206.5t50 -254.5q0 -137 -41.5 -254t-110.5 -193t-156.5 -118.5t-180.5 -42.5zM760 317q57 0 121.5 78.5t120 207.5
t90.5 278q-27 67 -103 67q-81 0 -152.5 -83.5t-110 -200t-38.5 -224.5q0 -57 18 -90t54 -33z" />
    <glyph glyph-name="A" unicode="A" horiz-adv-x="1521" 
d="M987 250l-84 211h-536l-80 -211q-19 -55 -19 -78q0 -48 40.5 -68.5t131.5 -25.5v-78h-430v78q33 6 52 12t38.5 22t28.5 42l438 1130l-65 162h370l519 -1292q14 -36 42 -51.5t78 -24.5v-78h-673v78q88 3 128 23.5t40 68.5q0 21 -19 80zM629 1151l-226 -592h461z" />
    <glyph glyph-name="B" unicode="B" horiz-adv-x="1394" 
d="M676 690h-117v-463q0 -81 35 -110t125 -29h18q125 0 192.5 77.5t67.5 227.5q0 142 -79.5 219.5t-241.5 77.5zM635 1350h-76v-559h78q283 0 283 284q0 135 -75 205t-210 70zM782 0h-727v78q105 12 130.5 35t25.5 106v1000q0 83 -25.5 106t-130.5 35v78h699
q240 0 369.5 -91t129.5 -268q0 -75 -32 -136t-87 -100.5t-122.5 -63t-143.5 -31.5q210 -8 340.5 -102.5t130.5 -256.5q0 -192 -141.5 -290.5t-415.5 -98.5z" />
    <glyph glyph-name="C" unicode="C" horiz-adv-x="1370" 
d="M805 1458q273 0 455 -121l4 -342h-88q-75 369 -361 369q-98 0 -174 -48t-122 -134t-69.5 -198t-23.5 -245q0 -191 46 -339t139.5 -235t222.5 -87q140 0 236.5 101.5t152.5 324.5h94l-33 -395q-190 -129 -487 -129q-342 0 -541 190t-199 512q0 175 58.5 322t159.5 245.5
t237.5 153.5t292.5 55z" />
    <glyph glyph-name="D" unicode="D" horiz-adv-x="1572" 
d="M643 1350h-84v-1117q0 -86 35 -115.5t117 -29.5h28q185 0 297.5 164.5t112.5 447.5q0 193 -54.5 337t-170 228.5t-281.5 84.5zM748 0h-693v78q105 12 130.5 35t25.5 106v1000q0 83 -25.5 106t-130.5 35v78h650q203 0 360 -54t254.5 -149.5t147 -220t49.5 -273.5
q0 -231 -97 -399.5t-269.5 -255t-401.5 -86.5z" />
    <glyph glyph-name="E" unicode="E" horiz-adv-x="1318" 
d="M55 0v78q105 12 130.5 35t25.5 106v1000q0 83 -25.5 106t-130.5 35v78h1149l10 -383h-69q-41 91 -71 143t-68.5 89t-83.5 50t-111 13h-252v-557h232q68 0 96.5 41t42.5 147h80v-477h-80q-14 105 -42.5 145.5t-96.5 40.5h-232v-463q0 -80 40.5 -109.5t135.5 -29.5h101
q33 0 59.5 3.5t51.5 14.5t44 21.5t41 35t38 44.5t41 60.5t43 71.5t50 89h80l-63 -428h-1166z" />
    <glyph glyph-name="F" unicode="F" horiz-adv-x="1230" 
d="M559 674v-445q0 -83 50.5 -112t193.5 -37v-80h-748v78q105 12 130.5 35t25.5 106v1000q0 83 -25.5 106t-130.5 35v78h1125l10 -396h-66q-41 92 -71.5 145.5t-70 93t-85 54.5t-111.5 15h-227v-574h207q67 0 94.5 42.5t40.5 148.5h82v-484h-82q-13 106 -40.5 148.5
t-94.5 42.5h-207z" />
    <glyph glyph-name="G" unicode="G" horiz-adv-x="1497" 
d="M993 115v344q0 83 -25.5 106t-129.5 35v78h639v-78q-105 -12 -130.5 -35t-25.5 -106v-340q-216 -139 -539 -139q-172 0 -310.5 54t-228.5 148.5t-138 223t-48 278.5q0 175 59 321.5t161 245t240.5 153t297.5 54.5q277 0 459 -119l6 -344h-90q-76 371 -365 371
q-102 0 -179.5 -48.5t-125 -135t-71 -198t-23.5 -245.5q0 -135 25 -253.5t73 -211.5t126 -146.5t177 -53.5q104 0 166 41z" />
    <glyph glyph-name="H" unicode="H" horiz-adv-x="1689" 
d="M559 1219v-431h571v431q0 83 -25.5 106t-131.5 35v78h661v-78q-104 -12 -129.5 -35t-25.5 -106v-1000q0 -83 25.5 -106t129.5 -35v-78h-661v78q106 12 131.5 35t25.5 106v457h-571v-457q0 -83 26 -106t132 -35v-78h-662v78q105 12 130.5 35t25.5 106v1000q0 83 -25.5 106
t-130.5 35v78h662v-78q-106 -12 -132 -35t-26 -106z" />
    <glyph glyph-name="I" unicode="I" horiz-adv-x="772" 
d="M559 1219v-1000q0 -83 26 -106t132 -35v-78h-662v78q105 12 130.5 35t25.5 106v1000q0 83 -25.5 106t-130.5 35v78h662v-78q-106 -12 -132 -35t-26 -106z" />
    <glyph glyph-name="J" unicode="J" horiz-adv-x="1138" 
d="M600 344v875q0 83 -25.5 106t-130.5 35v78h662v-78q-106 -12 -132 -35t-26 -106v-770q0 -238 -131.5 -353.5t-380.5 -115.5q-214 0 -330 76t-116 218q0 55 24 99t66 71h227q-12 -68 -12 -143q0 -112 36.5 -177t114.5 -65q85 0 119.5 69.5t34.5 215.5z" />
    <glyph glyph-name="K" unicode="K" horiz-adv-x="1517" 
d="M877 858l434 -637q58 -79 97.5 -108t109.5 -35v-78h-433q-88 74 -182 221l-321 481l489 510q53 56 53 93q0 26 -31 38.5t-116 16.5v78h473v-78q-65 -4 -100.5 -21.5t-77.5 -62.5zM559 1219v-1000q0 -83 26 -106t132 -35v-78h-662v78q105 12 130.5 35t25.5 106v1000
q0 83 -25.5 106t-130.5 35v78h662v-78q-106 -12 -132 -35t-26 -106z" />
    <glyph glyph-name="L" unicode="L" horiz-adv-x="1286" 
d="M559 1219v-992q0 -81 38.5 -110t131.5 -29h74q105 0 179 76t204 301h78l-74 -465h-1135v78q105 12 130.5 35t25.5 106v1000q0 83 -25.5 106t-130.5 35v78h662v-78q-106 -12 -132 -35t-26 -106z" />
    <glyph glyph-name="M" unicode="M" horiz-adv-x="1961" 
d="M1421 260l-102 815l-379 -1075h-129l-397 1075l-103 -815q-4 -32 -4 -51q0 -72 39.5 -97.5t155.5 -33.5v-78h-488v78q90 5 126.5 30.5t43.5 94.5l129 1007q0 82 -36.5 114t-137.5 36v78h514q4 -45 33 -127l307 -842l289 842q4 12 11.5 33t11 32t7.5 28t5 34h504v-78
q-100 -4 -136 -36t-36 -114l127 -1007q10 -72 46 -96t126 -29v-78h-719v78q112 8 153 34t41 97q0 3 -1 22.5t-1 28.5z" />
    <glyph glyph-name="N" unicode="N" horiz-adv-x="1536" 
d="M1221 555v664q0 80 -38 105t-167 36v78h485v-78q-106 -12 -132 -35.5t-26 -105.5v-1223h-122l-885 1110v-887q0 -80 38 -105t167 -36v-78h-484v78q104 12 130 35.5t26 105.5v1012q-46 72 -76.5 98.5t-81.5 30.5v78h465z" />
    <glyph glyph-name="O" unicode="O" horiz-adv-x="1503" 
d="M762 72q81 0 142.5 53t98 143t54.5 199.5t18 232.5q0 137 -19 254t-58 211t-105 147.5t-152 53.5q-81 0 -143 -53t-98 -143.5t-54 -199.5t-18 -233q0 -137 19 -254t58 -210.5t105 -147t152 -53.5zM735 -20q-161 0 -291.5 57.5t-214 155.5t-128 225.5t-44.5 271.5
q0 173 53.5 318t148 243t225 152.5t282.5 54.5q162 0 293 -57.5t214.5 -156t128 -225.5t44.5 -271q0 -173 -54 -318t-148.5 -243t-225.5 -152.5t-283 -54.5z" />
    <glyph glyph-name="P" unicode="P" horiz-adv-x="1323" 
d="M559 563v-334q0 -83 50.5 -112t193.5 -37v-80h-748v78q105 12 130.5 35t25.5 106v1000q0 83 -25.5 106t-130.5 35v78h666q143 0 254 -33t180 -92t104 -136t35 -169q0 -210 -147 -327.5t-436 -117.5h-152zM559 1350v-691h70q157 0 237 91t80 256q0 158 -83.5 251
t-233.5 93h-70z" />
    <glyph glyph-name="Q" unicode="Q" horiz-adv-x="1503" 
d="M743 -160l-102 146q-140 16 -252.5 78.5t-184 158t-109.5 215t-38 252.5q0 173 53.5 318t148 243t225 152.5t282.5 54.5q162 0 293 -57.5t214.5 -156t128 -225.5t44.5 -271q0 -295 -147 -494t-388 -254l156 -125q80 -65 138.5 -96t140.5 -35v-31q-112 -90 -242 -90
q-201 0 -361 217zM762 72q81 0 142.5 53t98 143t54.5 199.5t18 232.5q0 137 -19 254t-58 211t-105 147.5t-152 53.5q-81 0 -143 -53t-98 -143.5t-54 -199.5t-18 -233q0 -137 19 -254t58 -210.5t105 -147t152 -53.5z" />
    <glyph glyph-name="R" unicode="R" horiz-adv-x="1509" 
d="M637 1346h-78v-646h82q149 0 228 87t79 245q0 145 -80.5 229.5t-230.5 84.5zM559 608v-389q0 -83 26 -106t132 -35v-78h-662v78q105 12 130.5 35t25.5 106v1000q0 83 -25.5 106t-130.5 35v78h701q251 0 396.5 -109.5t145.5 -294.5q0 -78 -28 -143.5t-75.5 -110
t-101 -74.5t-114.5 -47l297 -413q68 -97 114 -131t119 -37v-78h-426q-77 56 -172 209l-258 399h-94z" />
    <glyph glyph-name="S" unicode="S" horiz-adv-x="1153" 
d="M549 -20q-145 0 -270 37.5t-199 97.5l-19 354h97q38 -185 138.5 -292t252.5 -107q118 0 187 57t69 158q0 103 -70.5 161.5t-255.5 120.5q-204 65 -305.5 169t-101.5 280q0 199 137 320.5t358 121.5q132 0 245.5 -32t191.5 -89v-309h-86q-69 340 -351 340
q-101 0 -162 -55.5t-61 -147.5q0 -101 64 -155.5t233 -112.5q112 -37 187 -75t137.5 -92.5t92 -129.5t29.5 -174q0 -110 -42.5 -196.5t-116.5 -140t-170.5 -81.5t-208.5 -28z" />
    <glyph glyph-name="T" unicode="T" horiz-adv-x="1415" 
d="M61 1438h1293l30 -494h-73q-34 77 -55.5 122.5t-47 96t-44 77.5t-41.5 54t-45 39t-48.5 19.5t-58.5 7.5h-88v-1149q0 -28 3 -47t13 -33t19.5 -22t34.5 -14t44.5 -9t61.5 -8v-78h-703v78q50 6 72.5 9.5t48.5 12t35.5 21.5t16 34.5t6.5 55.5v1149h-91q-32 0 -58.5 -7.5
t-48.5 -19.5t-45 -39t-41.5 -54t-44 -77.5t-47 -96t-55.5 -122.5h-73z" />
    <glyph glyph-name="U" unicode="U" horiz-adv-x="1521" 
d="M530 1219v-691q0 -188 80.5 -290.5t243.5 -102.5q167 0 265 97.5t98 306.5v680q0 81 -34 105.5t-161 35.5v78h473v-78q-106 -12 -132 -35.5t-26 -105.5v-719q0 -129 -43 -230t-119 -163.5t-175.5 -94.5t-217.5 -32q-289 0 -444.5 131t-155.5 391v717q0 83 -25.5 106
t-129.5 35v78h661v-78q-106 -12 -132 -35t-26 -106z" />
    <glyph glyph-name="V" unicode="V" horiz-adv-x="1474" 
d="M891 440l291 748q20 52 20 82q0 47 -32.5 66.5t-125.5 23.5v78h420v-78q-51 -9 -78 -23.5t-43 -52.5l-524 -1294h-96l-594 1294q-17 38 -43 53t-76 23v78h678v-78q-95 -4 -127.5 -23.5t-32.5 -66.5q0 -28 21 -82z" />
    <glyph glyph-name="W" unicode="W" horiz-adv-x="2017" 
d="M1313 -10l-279 817l-299 -817h-121l-485 1294q-13 34 -42 51t-77 25v78h635v-78q-71 -4 -100 -23.5t-29 -58.5q0 -23 25 -104l262 -719l182 497l-113 332q-11 36 -36 52t-70 24v78h627v-78q-85 -1 -119.5 -22t-34.5 -66q0 -31 25 -115l225 -692l237 696q23 75 23 105
q0 45 -34 67.5t-118 26.5v78h410v-78q-48 -9 -77.5 -25t-41.5 -51l-454 -1294h-121z" />
    <glyph glyph-name="X" unicode="X" horiz-adv-x="1492" 
d="M895 236l-248 366l-291 -379q-32 -46 -32 -76q0 -63 165 -69v-78h-479v78q61 6 94.5 23.5t61.5 56.5l420 536l-396 586q-46 71 -141 80v78h680v-78q-70 0 -100.5 -11.5t-30.5 -45.5q0 -35 47 -103l189 -285l227 299q35 50 35 80q0 63 -142 66v78h451v-78
q-60 -6 -94.5 -24t-63.5 -56l-352 -457l436 -653q32 -46 66.5 -66.5t85.5 -25.5v-78h-699v78q85 2 119.5 14.5t34.5 48.5q0 33 -43 95z" />
    <glyph glyph-name="Y" unicode="Y" horiz-adv-x="1404" 
d="M883 549v-338q0 -28 3 -47t13 -33t19.5 -22t34.5 -14t44.5 -9t61.5 -8v-78h-692v78q36 4 53.5 6.5t41 7.5t33.5 10.5t22.5 14.5t17 22t7.5 30.5t3 41.5v330l-416 743q-22 39 -46.5 53.5t-72.5 22.5v78h660v-78q-88 -3 -119 -19t-31 -55q0 -28 10 -53.5t35 -69.5l273 -475
l249 473q46 94 46 125q0 38 -35.5 54.5t-118.5 19.5v78h416v-78q-46 -8 -74 -24.5t-47 -51.5z" />
    <glyph glyph-name="Z" unicode="Z" horiz-adv-x="1267" 
d="M444 88h308q53 0 92.5 11.5t74 33t72 69t73 103.5t89.5 152h78l-72 -457h-1124v61l749 1289h-295q-46 0 -79.5 -6.5t-61.5 -24t-49 -40.5t-43.5 -62.5t-43 -83.5t-49.5 -111q-3 -8 -5 -12h-76l16 428h1094v-62z" />
    <glyph glyph-name="bracketleft" unicode="[" horiz-adv-x="675" 
d="M385 1380v-1472q0 -75 41.5 -95t175.5 -28v-74h-428v1866h428v-74q-134 -8 -175.5 -28t-41.5 -95z" />
    <glyph glyph-name="backslash" unicode="\" horiz-adv-x="749" 
d="M608 -289l-579 1866h139l580 -1866h-140z" />
    <glyph glyph-name="bracketright" unicode="]" horiz-adv-x="675" 
d="M293 -92v1472q0 32 -8 52.5t-20.5 33.5t-43.5 20t-60 10t-87 7v74h428v-1866h-428v74q58 4 87 7t60 10t43.5 20t20.5 33.5t8 52.5z" />
    <glyph glyph-name="asciicircum" unicode="^" horiz-adv-x="956" 
d="M549 1577l338 -594h-133l-275 494l-276 -494h-133l338 594h141z" />
    <glyph glyph-name="underscore" unicode="_" horiz-adv-x="835" 
d="M795 -270h-754v135h754v-135z" />
    <glyph glyph-name="grave" unicode="`" 
d="M279 1565h325l107 -338h-88l-344 321v17z" />
    <glyph glyph-name="a" unicode="a" horiz-adv-x="1101" 
d="M508 162q54 0 125 49v381l-146 -57q-67 -28 -99 -68.5t-32 -122.5q0 -84 38 -133t114 -49zM958 768v-543q0 -50 13 -76t49 -26q40 0 76 16l12 -49q-96 -110 -250 -110q-86 0 -142.5 46t-76.5 130q-126 -172 -313 -172q-129 0 -207 72t-78 198q0 64 20.5 114t61.5 85.5
t85 59t107 46.5l318 113v190q0 180 -127 180q-63 0 -94 -45.5t-31 -122.5q0 -62 18 -133l-196 -26q-44 14 -70.5 49t-26.5 86q0 128 117.5 196t304.5 68q213 0 321.5 -81t108.5 -265z" />
    <glyph glyph-name="b" unicode="b" horiz-adv-x="1247" 
d="M119 1395l-119 61v51l393 97h53v-684q54 83 141.5 138.5t203.5 55.5q188 0 299.5 -130.5t111.5 -369.5q0 -150 -45.5 -271.5t-125 -200t-185.5 -120.5t-230 -42q-146 0 -277.5 35.5t-219.5 107.5v1272zM614 66q118 0 186 125t68 317q0 196 -69 303t-199 107
q-84 0 -154 -54v-573q0 -225 168 -225z" />
    <glyph glyph-name="c" unicode="c" horiz-adv-x="997" 
d="M330 641q0 -200 86.5 -317t240.5 -117q181 0 279 143l41 -22q-49 -174 -162 -261t-280 -87q-215 0 -352.5 145t-137.5 387q0 262 150 432t395 170q159 0 257.5 -63.5t98.5 -184.5q0 -51 -24 -89t-60 -54h-174q8 78 8 108q0 199 -141 199q-103 0 -164 -110t-61 -279z" />
    <glyph glyph-name="d" unicode="d" horiz-adv-x="1271" 
d="M621 1008q-118 0 -183 -109.5t-65 -294.5q0 -194 71 -313t197 -119q85 0 147 47v555q0 234 -167 234zM788 1395l-118 61v51l395 97h53v-1379q0 -57 13 -77t65 -23l49 -2v-72l-403 -71h-60l6 192q-133 -192 -331 -192q-185 0 -298.5 138.5t-113.5 377.5q0 144 41 261
t112.5 193t168 117t208.5 41q134 0 213 -66v353z" />
    <glyph glyph-name="e" unicode="e" horiz-adv-x="1044" 
d="M571 1114q208 0 320.5 -120.5t112.5 -317.5v-47h-662q-4 -197 88 -312.5t240 -115.5q101 0 175 38.5t132 118.5l35 -20q-41 -166 -157.5 -262t-297.5 -96q-227 0 -369.5 147.5t-142.5 392.5q0 131 41.5 243t113 188.5t167.5 119.5t204 43zM549 1034q-91 0 -142.5 -87
t-60.5 -234h369q0 321 -166 321z" />
    <glyph glyph-name="f" unicode="f" horiz-adv-x="741" 
d="M496 991v-809q0 -61 34 -79.5t134 -28.5v-74h-619v74q71 5 96 20.5t25 63.5v833h-148v68l148 45v63q0 109 34.5 193.5t96 137t143 79.5t178.5 27q146 0 218.5 -48.5t72.5 -138.5q0 -39 -19 -71.5t-52 -49.5h-170q8 50 8 88q0 140 -80 140q-100 0 -100 -164v-266h245v-103
h-245z" />
    <glyph glyph-name="g" unicode="g" horiz-adv-x="1107" 
d="M516 387q-117 0 -215 33q-65 -61 -65 -113q0 -30 17.5 -47.5t49.5 -17.5h432q188 0 282.5 -76t94.5 -217q0 -127 -79 -220t-216 -139.5t-315 -46.5q-236 0 -370 66t-134 188q0 72 54 116t136 64q-62 24 -96.5 76.5t-34.5 118.5q0 154 197 268q-90 41 -142.5 114.5
t-52.5 178.5q0 176 131 278.5t338 102.5q95 0 187 -29l356 9v-127h-88l-135 6q58 -38 93.5 -100t35.5 -136q0 -162 -128.5 -256t-332.5 -94zM741 -59h-516q-28 -32 -28 -99q0 -98 85 -154.5t230 -56.5q76 0 140.5 11.5t116.5 35t82 63.5t30 93q0 57 -35 82t-105 25zM528 461
q142 0 142 276q0 128 -40 213.5t-116 85.5q-143 0 -143 -270q0 -132 40.5 -218.5t116.5 -86.5z" />
    <glyph glyph-name="h" unicode="h" horiz-adv-x="1308" 
d="M158 158v1237l-117 61v51l393 97h53v-693q166 203 379 203q147 0 224 -85t77 -251v-620q0 -48 25 -63.5t96 -20.5v-74h-567v74q70 5 93.5 20t23.5 64v598q0 82 -34.5 122t-113.5 40q-98 0 -203 -66v-694q0 -49 23.5 -64t93.5 -20v-74h-567v74q71 5 96 20.5t25 63.5z" />
    <glyph glyph-name="i" unicode="i" horiz-adv-x="647" 
d="M496 1114v-956q0 -49 25 -64t95 -20v-74h-571v74q71 5 96 20.5t25 63.5v723l-119 71v47l393 115h56zM330 1223q-81 0 -132 50.5t-51 123.5t51 124.5t132 51.5t132.5 -51.5t51.5 -124.5q0 -72 -51.5 -123t-132.5 -51z" />
    <glyph glyph-name="j" unicode="j" horiz-adv-x="587" 
d="M137 881l-119 71v47l394 115h55v-909q0 -156 -28 -241t-93 -159q-68 -76 -141.5 -129t-186.5 -118l-32 36l84 138q31 50 46.5 117.5t18 120.5t2.5 155v756zM297 1223q-81 0 -131.5 50.5t-50.5 123.5t50.5 124.5t131.5 51.5t132.5 -51.5t51.5 -124.5q0 -72 -51.5 -123
t-132.5 -51z" />
    <glyph glyph-name="k" unicode="k" horiz-adv-x="1251" 
d="M506 582l317 288q64 58 64 93q0 28 -26 38.5t-101 18.5v74h448v-74q-60 -10 -96 -25t-72 -51l-254 -237l465 -656v-51h-346zM160 158v1237l-119 61v51l393 97h53v-1446q0 -49 25.5 -64t97.5 -20v-74h-573v74q72 5 97.5 20t25.5 64z" />
    <glyph glyph-name="l" unicode="l" horiz-adv-x="641" 
d="M487 1604v-1446q0 -49 25.5 -64t97.5 -20v-74h-573v74q72 5 97.5 20t25.5 64v1237l-119 61v51l393 97h53z" />
    <glyph glyph-name="m" unicode="m" horiz-adv-x="1941" 
d="M1470 158v602q0 81 -31 120.5t-104 39.5q-83 0 -188 -68v-694q0 -49 22 -64t91 -20v-74h-553v74q68 5 89 19.5t21 64.5v602q0 81 -31 120.5t-102 39.5q-83 0 -188 -68v-694q0 -50 21 -64.5t91 -19.5v-74h-563v74q71 5 96 20.5t25 63.5v723l-119 71v47l395 115h62l-8 -205
q148 205 366 205q236 0 275 -209q153 209 376 209q140 0 213.5 -83t73.5 -245v-628q0 -48 25 -63.5t96 -20.5v-74h-563v74q69 5 90.5 20t21.5 64z" />
    <glyph glyph-name="n" unicode="n" horiz-adv-x="1316" 
d="M846 158v598q0 82 -34.5 122t-113.5 40q-100 0 -202 -66v-694q0 -49 23 -64t93 -20v-74h-567v74q71 5 96 20.5t25 63.5v723l-119 71v47l395 115h62l-8 -203q166 203 378 203q147 0 224.5 -84t77.5 -250v-622q0 -49 25 -64t95 -20v-74h-567v74q70 5 93.5 20t23.5 64z" />
    <glyph glyph-name="o" unicode="o" horiz-adv-x="1187" 
d="M602 59q193 0 193 430q0 165 -20.5 284t-68 190t-120.5 71q-193 0 -193 -430q0 -165 20.5 -284t68 -190t120.5 -71zM592 -20q-246 0 -396.5 149t-150.5 395q0 259 155.5 424.5t395.5 165.5q246 0 397.5 -149.5t151.5 -395.5q0 -258 -156.5 -423.5t-396.5 -165.5z" />
    <glyph glyph-name="p" unicode="p" horiz-adv-x="1277" 
d="M645 66q118 0 186 125t68 317q0 196 -69 303t-199 107q-84 0 -154 -54v-571q0 -227 168 -227zM150 -276v1157l-119 71v47l395 115h59l-8 -194q55 83 141.5 138.5t202.5 55.5q188 0 300 -131t112 -369q0 -150 -43.5 -271.5t-120 -200t-178.5 -120.5t-221 -42
q-132 0 -193 49v-297q0 -54 31 -69t133 -23v-74h-614v74q72 5 97.5 20t25.5 64z" />
    <glyph glyph-name="q" unicode="q" horiz-adv-x="1239" 
d="M621 1026q-118 0 -183 -111.5t-65 -298.5q0 -127 30.5 -226.5t92 -158.5t145.5 -59q85 0 147 47v574q0 111 -44.5 172t-122.5 61zM788 -268v440q-130 -192 -331 -192q-185 0 -298.5 138.5t-113.5 377.5q0 144 41.5 261.5t115 195t172.5 119.5t214 42q210 0 338 -125
l137 121h65l-10 -238v-1148q0 -48 25 -63.5t96 -20.5v-74h-614v74q101 8 132 23t31 69z" />
    <glyph glyph-name="r" unicode="r" horiz-adv-x="886" 
d="M496 735v-553q0 -61 34 -79.5t134 -28.5v-74h-619v74q71 5 96 20.5t25 63.5v723l-119 71v47l395 115h62l-8 -309q68 176 127.5 242.5t152.5 66.5q64 0 96 -35v-250h-43q-117 0 -191.5 -17t-141.5 -77z" />
    <glyph glyph-name="s" unicode="s" horiz-adv-x="954" 
d="M459 -20q-239 0 -379 102l-12 278h84q34 -136 113.5 -219.5t193.5 -83.5q80 0 132 40t52 114q0 76 -51 115.5t-178 83.5q-88 29 -148.5 60.5t-105.5 74t-66.5 98.5t-21.5 129q0 161 109.5 251.5t291.5 90.5q199 0 340 -90v-248h-78q-23 113 -90.5 186.5t-169.5 73.5
q-72 0 -115 -37.5t-43 -99.5q0 -66 47.5 -105t163.5 -79q94 -32 155.5 -63t111.5 -75t73 -102.5t23 -136.5q0 -168 -116.5 -263t-315.5 -95z" />
    <glyph glyph-name="t" unicode="t" horiz-adv-x="768" 
d="M459 1366v-272h254v-103h-254v-678q0 -84 32 -121.5t99 -37.5q76 0 149 55l29 -41q-118 -188 -336 -188q-141 0 -222 78t-81 247v686h-123v58q112 46 210.5 129t172.5 188h70z" />
    <glyph glyph-name="u" unicode="u" horiz-adv-x="1275" 
d="M1122 864v-639q0 -57 13.5 -77t64.5 -23l49 -2v-72l-401 -71h-60l7 196q-75 -88 -160 -142t-201 -54q-142 0 -222.5 84t-80.5 253v519q0 51 -18 78t-70 38l-31 6v70l404 84h55l-10 -252v-506q0 -182 149 -182q49 0 89 14.5t96 44.5v605q0 51 -18 78t-70 38l-31 6v70
l401 84h58z" />
    <glyph glyph-name="v" unicode="v" horiz-adv-x="1191" 
d="M1182 1094v-74q-53 -14 -72 -29.5t-33 -50.5l-413 -952h-93l-456 952q-16 36 -34.5 51t-70.5 29v74h604v-74q-81 -9 -109 -23t-28 -47q0 -16 15 -57l231 -524l217 524q14 41 14 57q0 33 -27.5 46t-109.5 24v74h365z" />
    <glyph glyph-name="w" unicode="w" horiz-adv-x="1771" 
d="M1325 389l199 504q12 35 12 59q0 33 -27.5 46.5t-95.5 21.5v74h348v-74q-52 -15 -71 -30t-33 -50l-395 -952h-105l-244 649l-278 -649h-103l-417 952q-16 36 -34.5 51t-70.5 29v74h572v-74q-57 -8 -82 -22t-25 -42t14 -63l209 -520l164 391l-67 176q-11 34 -31.5 51
t-65.5 29v74h562v-74q-49 -6 -73.5 -11.5t-40.5 -19.5t-16 -39q0 -11 11 -57z" />
    <glyph glyph-name="x" unicode="x" horiz-adv-x="1214" 
d="M696 201l-190 262l-193 -258q-28 -38 -28 -66q0 -59 127 -65v-74h-402v74q98 26 142 82l294 389l-284 395q-20 30 -42 47t-67 33v74h568v-74q-101 -6 -101 -53q0 -26 31 -74l149 -207l152 203q35 47 35 76q0 46 -103 55v74h365v-74q-89 -20 -137 -82l-254 -332l327 -452
q22 -31 47 -49t72 -31v-74h-588v74q59 3 87 14.5t28 36.5q0 26 -35 76z" />
    <glyph glyph-name="y" unicode="y" horiz-adv-x="1187" 
d="M721 328l217 563q16 43 16 59q0 33 -28.5 47t-108.5 23v74h361v-74q-52 -15 -71.5 -30t-33.5 -50l-459 -1126q-56 -137 -119 -201t-161 -64q-57 0 -101.5 24t-64.5 65v124q85 -18 149 -18q87 0 137.5 29t80.5 102l32 80l-452 985q-16 36 -34.5 51t-70.5 29v74h604v-74
q-81 -9 -109 -23t-28 -47q0 -20 12 -57z" />
    <glyph glyph-name="z" unicode="z" horiz-adv-x="1069" 
d="M45 0v57l590 949h-217q-81 0 -138.5 -68.5t-125.5 -235.5h-72l31 457h67l35 -67h795v-60l-578 -946h238q93 0 155 68.5t136 244.5h69l-43 -399h-942z" />
    <glyph glyph-name="braceleft" unicode="{" horiz-adv-x="739" 
d="M102 627v32q170 35 170 205v451q0 125 99.5 193.5t300.5 68.5v-55q-180 -21 -180 -201v-436q0 -107 -57.5 -160t-174.5 -82q116 -27 174 -80.5t58 -161.5v-434q0 -179 180 -200v-56q-201 0 -300.5 68.5t-99.5 193.5v449q0 170 -170 205z" />
    <glyph glyph-name="bar" unicode="|" horiz-adv-x="425" 
d="M279 1577v-1866h-132v1866h132z" />
    <glyph glyph-name="braceright" unicode="}" horiz-adv-x="751" 
d="M649 659v-32q-170 -35 -170 -205v-449q0 -125 -100 -193.5t-299 -68.5v56q84 10 131 56.5t47 143.5v434q0 107 58 161t173 81q-116 29 -173.5 82t-57.5 160v436q0 180 -178 201v55q199 0 299 -68.5t100 -193.5v-451q0 -170 170 -205z" />
    <glyph glyph-name="asciitilde" unicode="~" horiz-adv-x="987" 
d="M864 795l62 -27q-47 -157 -114 -233t-167 -76q-42 0 -91 23.5t-86.5 51t-84 51t-84.5 23.5q-56 0 -96 -35t-80 -102l-62 27q47 157 114 233t167 76q42 0 91 -23.5t86.5 -51.5t84 -51.5t84.5 -23.5q56 0 96 35t80 103z" />
    <glyph glyph-name="uni00A0" unicode="&#xa0;" horiz-adv-x="374" 
 />
    <glyph glyph-name="exclamdown" unicode="&#xa1;" horiz-adv-x="571" 
d="M104 1057q0 75 53.5 129.5t127.5 54.5q76 0 129 -54t53 -130q0 -78 -53 -132.5t-129 -54.5q-74 0 -127.5 54.5t-53.5 132.5zM236 758h98l151 -975h-399z" />
    <glyph glyph-name="cent" unicode="&#xa2;" horiz-adv-x="1083" 
d="M379 -231l43 229q-167 44 -266 183t-99 345q0 176 70 316t202 221.5t302 81.5h4l41 215h78l-41 -219q135 -16 217 -80t82 -172q0 -52 -25.5 -89.5t-64.5 -56.5h-148q8 82 8 115q0 146 -88 186l-151 -815q65 -30 147 -30q102 0 175.5 40.5t129.5 120.5l39 -22
q-48 -180 -169.5 -269t-297.5 -89q-21 0 -71 4l-39 -215h-78zM338 651q0 -261 135 -377l145 787h-12q-121 0 -194.5 -115t-73.5 -295z" />
    <glyph glyph-name="sterling" unicode="&#xa3;" horiz-adv-x="1382" 
d="M205 715v82h207l10 114q43 547 520 547q102 0 181.5 -24.5t129.5 -79t50 -131.5q0 -54 -29.5 -96t-71.5 -58h-180q22 68 22 148q0 37 -3.5 64.5t-13 54t-30 41t-51.5 14.5q-70 0 -107.5 -73.5t-56.5 -209.5l-39 -311h324v-82h-334l-10 -82q-19 -213 -78 -326
q78 -36 189 -58t208 -22q92 0 144.5 37.5t52.5 114.5q0 33 -12 67l49 15q24 -30 43.5 -79.5t19.5 -107.5q0 -140 -84 -217t-235 -77q-134 0 -251 53t-204 129q-49 -83 -131.5 -132.5t-187.5 -49.5q-103 0 -164.5 56t-61.5 148q0 96 64 152.5t158 56.5q77 0 133 -22l28 344
h-198zM221 76q60 0 98.5 49t47.5 145q-77 41 -134 41q-56 0 -88 -33t-32 -92q0 -51 30 -80.5t78 -29.5z" />
    <glyph glyph-name="currency" unicode="&#xa4;" horiz-adv-x="1191" 
d="M135 1112l60 59l147 -153q110 92 254 92q142 0 252 -92l149 153l60 -59l-152 -151q84 -111 84 -254q0 -146 -84 -254l152 -152l-60 -59l-149 151q-107 -90 -252 -90q-147 0 -254 90l-147 -151l-60 59l152 152q-84 108 -84 254q0 143 84 254zM307 707q0 -133 82.5 -220.5
t206.5 -87.5t206.5 87.5t82.5 220.5q0 134 -82.5 221.5t-206.5 87.5t-206.5 -87.5t-82.5 -221.5z" />
    <glyph glyph-name="yen" unicode="&#xa5;" horiz-adv-x="1376" 
d="M866 565v-47h334v-84h-334v-223q0 -24 3 -41.5t7.5 -30.5t17 -22t22 -14.5t33 -10.5t40.5 -7.5t53 -6.5v-78h-688v78q36 4 53.5 6.5t41 7.5t33.5 10.5t22.5 14.5t17 22t7.5 30.5t3 41.5v223h-342v84h342v45l-67 119h-275v86h228l-289 516q-22 39 -46.5 53.5t-72.5 22.5
v78h656v-78q-87 -3 -118.5 -19.5t-31.5 -58.5q0 -17 7 -38.5t13 -32.5t25 -48l254 -467l242 465q37 80 37 123q0 39 -34.5 56t-115.5 20v78h422v-78q-46 -8 -74 -24.5t-47 -51.5l-272 -516h227v-86h-272z" />
    <glyph glyph-name="brokenbar" unicode="&#xa6;" horiz-adv-x="425" 
d="M279 1577v-770h-132v770h132zM279 481v-770h-132v770h132z" />
    <glyph glyph-name="section" unicode="&#xa7;" horiz-adv-x="1077" 
d="M315 1290q-64 -64 -94.5 -140t-30.5 -181q0 -149 61 -285.5t175 -294.5q21 -30 66 -90t76 -102.5t70.5 -105t64 -113.5t42 -111.5t17.5 -114.5q65 66 96 142.5t31 179.5q0 149 -61 285t-177 296q-19 27 -65.5 88.5t-76.5 102t-70.5 104t-64.5 113.5t-41.5 111.5
t-17.5 115.5zM475 -416q-148 0 -235.5 61t-87.5 158q0 85 86 117h165v-76q0 -194 144 -194q67 0 99 38.5t32 100.5q0 47 -18 98.5t-55.5 110.5t-71.5 105.5t-90 119t-87 115.5q-123 171 -187.5 318.5t-64.5 312.5q0 216 144.5 352.5t353.5 136.5q149 0 237.5 -60.5
t88.5 -158.5q0 -86 -88 -117h-164v76q0 197 -146 197q-66 0 -98.5 -39.5t-32.5 -100.5q0 -47 18.5 -99.5t55.5 -110.5t72 -106t89.5 -118.5t86.5 -115.5q124 -172 189 -319.5t65 -311.5q0 -144 -68 -257t-181.5 -173t-250.5 -60z" />
    <glyph glyph-name="dieresis" unicode="&#xa8;" 
d="M154 1399q0 65 47 112.5t114 47.5q66 0 114 -47.5t48 -112.5q0 -66 -48 -113t-114 -47q-67 0 -114 47t-47 113zM561 1399q0 65 47.5 112.5t112.5 47.5q67 0 114.5 -47.5t47.5 -112.5q0 -66 -47.5 -113t-114.5 -47q-65 0 -112.5 47t-47.5 113z" />
    <glyph glyph-name="copyright" unicode="&#xa9;" horiz-adv-x="1605" 
d="M139 719q0 -184 84 -338t237 -245t343 -91q143 0 267.5 53.5t210.5 144.5t135.5 214.5t49.5 261.5t-49.5 261.5t-135.5 214.5t-210.5 144.5t-267.5 53.5q-190 0 -343 -91t-237 -245t-84 -338zM70 719q0 203 93 371.5t262 268t378 99.5t378 -99.5t262 -268t93 -371.5
t-93 -371.5t-262 -268t-378 -99.5t-378 99.5t-262 268t-93 371.5zM852 358q84 0 135.5 59.5t89.5 178.5h68l-19 -229q-132 -78 -288 -78q-200 0 -316 115.5t-116 300.5q0 136 59 239.5t157 157t218 53.5q177 0 276 -86v-209h-63q-44 225 -199 225q-74 0 -124.5 -51.5
t-72.5 -129t-22 -173.5q0 -171 56.5 -272t160.5 -101z" />
    <glyph glyph-name="ordfeminine" unicode="&#xaa;" horiz-adv-x="815" 
d="M360 842q41 0 93 37v229l-91 -37q-45 -20 -64 -49.5t-19 -77.5q0 -102 81 -102zM666 1204v-309q0 -78 47 -78q29 0 59 12l10 -34q-71 -78 -172 -78q-60 0 -101 34t-52 91q-79 -121 -215 -121q-80 0 -130.5 48.5t-50.5 127.5q0 42 14 74.5t41.5 55.5t56.5 37.5t71 29.5
l209 69v94q0 75 -19 111.5t-65 36.5q-80 0 -80 -100q0 -50 14 -93l-145 -20q-27 9 -42.5 33t-15.5 57q0 84 78 130t205 46q146 0 214.5 -58.5t68.5 -195.5z" />
    <glyph glyph-name="guillemotleft" unicode="&#xab;" horiz-adv-x="948" 
d="M53 557v12l385 406h84l-200 -412l200 -411h-84zM426 557v12l385 406h86l-203 -412l203 -411h-86z" />
    <glyph glyph-name="registered" unicode="&#xae;" horiz-adv-x="1054" 
d="M506 1200h-29v-203h29q46 0 72 28t26 75q0 46 -26 73t-72 27zM303 1243h229q98 0 148.5 -39.5t50.5 -101.5q0 -52 -33.5 -86.5t-79.5 -46.5l91 -121q19 -29 35 -41t42 -12v-37h-137q-33 20 -67 73l-82 125h-23v-112q0 -30 10 -39.5t43 -9.5v-37h-227v37q35 0 45 9.5
t10 39.5v313q0 31 -9 38.5t-46 12.5v35zM125 991q0 -167 114.5 -286t286.5 -119q174 0 289 119t115 286q0 169 -115 288.5t-289 119.5q-172 0 -286.5 -119.5t-114.5 -288.5zM61 991q0 196 132.5 331.5t332.5 135.5q133 0 240.5 -63t167 -169.5t59.5 -234.5q0 -195 -133 -330
t-334 -135q-200 0 -332.5 135.5t-132.5 329.5z" />
    <glyph glyph-name="macron" unicode="&#xaf;" 
d="M233 1278v158h568v-158h-568z" />
    <glyph glyph-name="degree" unicode="&#xb0;" horiz-adv-x="579" 
d="M141 1212q0 -70 40.5 -113.5t109.5 -43.5q67 0 107 43.5t40 113.5t-40 114t-107 44q-69 0 -109.5 -44t-40.5 -114zM41 1212q0 104 72.5 175t177.5 71q103 0 175.5 -71t72.5 -175t-72.5 -174.5t-175.5 -70.5q-105 0 -177.5 70.5t-72.5 174.5z" />
    <glyph glyph-name="plusminus" unicode="&#xb1;" horiz-adv-x="1169" 
d="M520 1241h127v-295h389v-127h-389v-293h-127v293h-385v127h385v295zM135 285v129h901v-129h-901z" />
    <glyph glyph-name="twosuperior" unicode="&#xb2;" horiz-adv-x="792" 
d="M293 801h219q54 0 79 17t64 77h39l-24 -272h-609v45l230 215q83 81 118 142.5t35 131.5q0 67 -36 104t-103 37q-108 0 -188 -92l-37 33q46 92 129 152.5t197 60.5q117 0 182 -61.5t65 -171.5q0 -26 -4 -50t-15.5 -48t-20.5 -43t-30.5 -43t-34.5 -39t-44 -40t-46 -37.5
t-53 -39.5t-53.5 -37.5t-58.5 -40.5z" />
    <glyph glyph-name="threesuperior" unicode="&#xb3;" horiz-adv-x="778" 
d="M434 1081q119 -5 190.5 -64t71.5 -159q0 -114 -96 -178t-238 -64q-139 0 -211.5 49t-72.5 123q0 64 55 93h127q-10 -29 -10 -58q0 -71 32 -111t91 -40q58 0 90.5 40.5t32.5 118.5q0 84 -48.5 128.5t-140.5 44.5h-28l-13 43q93 33 133.5 69.5t40.5 89.5q0 47 -30.5 77
t-87.5 30q-97 0 -164 -94l-47 32q44 92 123.5 149.5t191.5 57.5q105 0 163 -49t58 -133q0 -79 -62 -128.5t-151 -66.5z" />
    <glyph glyph-name="acute" unicode="&#xb4;" 
d="M385 1565h326v-17l-346 -321h-86z" />
    <glyph glyph-name="mu" unicode="&#xb5;" horiz-adv-x="1275" 
d="M438 2l25 -356v-29l-332 -20v1239q0 51 -18 78t-70 38l-31 6v70l404 84h55l-10 -252v-506q0 -182 149 -182q49 0 89 14.5t96 44.5v605q0 51 -18 78t-70 38l-31 6v70l401 84h58l-13 -248v-639q0 -57 13.5 -77t64.5 -23l49 -2v-72l-401 -71h-60l7 196q-51 -93 -127 -144.5
t-170 -51.5q-38 0 -60 22z" />
    <glyph glyph-name="paragraph" unicode="&#xb6;" horiz-adv-x="1257" 
d="M649 -403v825q-133 0 -240.5 40.5t-175.5 111t-104.5 162.5t-36.5 198t36.5 197t105 159.5t175.5 108t240 39.5h557v-78q-119 0 -164 -29.5t-45 -120.5v-1613h-92v1761h-164v-1761h-92zM649 498v864q-86 -6 -146 -72t-86 -158t-26 -198q0 -78 15.5 -151.5t45.5 -136.5
t81 -103.5t116 -44.5z" />
    <glyph glyph-name="periodcentered" unicode="&#xb7;" horiz-adv-x="507" 
d="M61 623q0 82 56.5 137t136.5 55t136 -55t56 -137q0 -84 -55.5 -138.5t-136.5 -54.5t-137 54.5t-56 138.5z" />
    <glyph glyph-name="cedilla" unicode="&#xb8;" 
d="M315 -467l-16 66q106 0 163.5 28.5t57.5 73.5q0 40 -40 56.5t-124 19.5l97 239h69l-41 -102q98 0 155.5 -43t57.5 -121q0 -72 -53 -122t-136.5 -72.5t-189.5 -22.5z" />
    <glyph glyph-name="onesuperior" unicode="&#xb9;" horiz-adv-x="690" 
d="M395 1458h60v-682q0 -51 26.5 -64.5t120.5 -19.5v-63h-520v63q100 6 124.5 19t24.5 65v461h-149v55l51 11q96 18 153.5 53t108.5 102z" />
    <glyph glyph-name="ordmasculine" unicode="&#xba;" horiz-adv-x="835" 
d="M426 778q125 0 125 283q0 149 -36 242.5t-105 93.5q-125 0 -125 -283q0 -150 35.5 -243t105.5 -93zM410 717q-159 0 -257 98.5t-98 257.5q0 175 103 280t268 105q159 0 256.5 -98.5t97.5 -257.5q0 -175 -102.5 -280t-267.5 -105z" />
    <glyph glyph-name="guillemotright" unicode="&#xbb;" horiz-adv-x="948" 
d="M897 569v-12l-387 -405h-84l203 411l-203 412h84zM522 569v-12l-385 -405h-84l203 411l-203 412h84z" />
    <glyph glyph-name="onequarter" unicode="&#xbc;" horiz-adv-x="1611" 
d="M870 289h281v350zM395 1458h60v-682q0 -51 26.5 -64.5t120.5 -19.5v-63h-520v63q100 6 124.5 19t24.5 65v461h-149v55l51 11q96 20 154 55t108 100zM305 -20l897 1478h105l-899 -1478h-103zM1487 0h-451v63q74 5 94.5 18.5t20.5 65.5v68h-387v57l430 545h178v-528h160
v-74h-160v-68q0 -52 20.5 -65.5t94.5 -18.5v-63z" />
    <glyph glyph-name="onehalf" unicode="&#xbd;" horiz-adv-x="1642" 
d="M395 1458h60v-682q0 -51 26.5 -64.5t120.5 -19.5v-63h-520v63q100 6 124.5 19t24.5 65v461h-149v55l51 11q96 18 153.5 53t108.5 102zM305 -20l897 1478h105l-899 -1478h-103zM1143 178h219q55 0 79.5 16.5t61.5 77.5h41l-24 -272h-609v45l228 215q84 80 119.5 142.5
t35.5 132.5q0 67 -36 104t-103 37q-108 0 -188 -92l-37 32q46 92 129 152.5t196 60.5q117 0 182.5 -62t65.5 -171q0 -26 -4 -50t-15.5 -48t-20.5 -43t-30.5 -43t-34.5 -39t-44 -40t-46 -37.5t-53 -39.5t-53.5 -37.5t-58.5 -40.5z" />
    <glyph glyph-name="threequarters" unicode="&#xbe;" horiz-adv-x="1648" 
d="M436 1085q119 -5 189.5 -64.5t70.5 -158.5q0 -115 -96 -180.5t-238 -65.5q-139 0 -211.5 49t-72.5 123q0 64 55 93h127q-10 -29 -10 -58q0 -71 32 -111t91 -40q58 0 90.5 40.5t32.5 118.5q0 84 -48.5 128.5t-140.5 44.5h-28l-13 43q93 33 133.5 69.5t40.5 89.5
q0 47 -30.5 77t-87.5 30q-97 0 -164 -94l-47 32q44 92 123.5 149.5t191.5 57.5q105 0 163 -49t58 -133q0 -78 -61 -126t-150 -65zM909 289h281v350zM344 -20l897 1478h102l-897 -1478h-102zM1526 0h-453v63q74 5 95.5 18.5t21.5 65.5v68h-387v57l430 545h176v-528h162v-74
h-162v-68q0 -52 21.5 -65.5t95.5 -18.5v-63z" />
    <glyph glyph-name="questiondown" unicode="&#xbf;" horiz-adv-x="933" 
d="M313 10q0 -81 42 -128.5t120 -47.5q85 0 125.5 59.5t40.5 147.5q0 63 -8 113h207q71 -41 71 -125q0 -119 -120.5 -193t-311.5 -74q-207 0 -322.5 90t-115.5 257q0 122 70.5 211.5t212.5 179.5q90 56 125.5 105t35.5 126v37h43q60 -29 98 -86.5t38 -132.5
q0 -143 -162 -266q-40 -31 -60.5 -47.5t-50 -45.5t-43 -52.5t-24.5 -57t-11 -70.5zM686 1057q0 -78 -53.5 -132.5t-128.5 -54.5t-128.5 54.5t-53.5 132.5q0 75 53.5 129.5t128.5 54.5t128.5 -54.5t53.5 -129.5z" />
    <glyph glyph-name="Agrave" unicode="&#xc0;" horiz-adv-x="1521" 
d="M987 250l-84 211h-536l-80 -211q-19 -55 -19 -78q0 -48 40.5 -68.5t131.5 -25.5v-78h-430v78q33 6 52 12t38.5 22t28.5 42l438 1130l-65 162h370l519 -1292q14 -36 42 -51.5t78 -24.5v-78h-673v78q88 3 128 23.5t40 68.5q0 21 -19 80zM629 1151l-226 -592h461zM365 1831
h329l103 -305h-95l-337 289v16z" />
    <glyph glyph-name="Aacute" unicode="&#xc1;" horiz-adv-x="1521" 
d="M987 250l-84 211h-536l-80 -211q-19 -55 -19 -78q0 -48 40.5 -68.5t131.5 -25.5v-78h-430v78q33 6 52 12t38.5 22t28.5 42l438 1130l-65 162h370l519 -1292q14 -36 42 -51.5t78 -24.5v-78h-673v78q88 3 128 23.5t40 68.5q0 21 -19 80zM629 1151l-226 -592h461zM717 1831
h330v-16l-338 -289h-95z" />
    <glyph glyph-name="Acircumflex" unicode="&#xc2;" horiz-adv-x="1521" 
d="M987 250l-84 211h-536l-80 -211q-19 -55 -19 -78q0 -48 40.5 -68.5t131.5 -25.5v-78h-430v78q33 6 52 12t38.5 22t28.5 42l438 1130l-65 162h370l519 -1292q14 -36 42 -51.5t78 -24.5v-78h-673v78q88 3 128 23.5t40 68.5q0 21 -19 80zM629 1151l-226 -592h461zM827 1843
l250 -317h-98l-264 155l-264 -155h-99l250 317h225z" />
    <glyph glyph-name="Atilde" unicode="&#xc3;" horiz-adv-x="1521" 
d="M987 250l-84 211h-536l-80 -211q-19 -55 -19 -78q0 -48 40.5 -68.5t131.5 -25.5v-78h-430v78q33 6 52 12t38.5 22t28.5 42l438 1130l-65 162h370l519 -1292q14 -36 42 -51.5t78 -24.5v-78h-673v78q88 3 128 23.5t40 68.5q0 21 -19 80zM629 1151l-226 -592h461zM854 1526
q-42 0 -85 19t-72 42.5t-64.5 42.5t-65.5 19q-40 0 -72 -28.5t-67 -86.5l-63 35q58 142 109 204t126 62q42 0 85 -19t72 -42.5t64.5 -42.5t65.5 -19q74 0 139 115l64 -35q-56 -141 -108 -203.5t-128 -62.5z" />
    <glyph glyph-name="Adieresis" unicode="&#xc4;" horiz-adv-x="1521" 
d="M987 250l-84 211h-536l-80 -211q-19 -55 -19 -78q0 -48 40.5 -68.5t131.5 -25.5v-78h-430v78q33 6 52 12t38.5 22t28.5 42l438 1130l-65 162h370l519 -1292q14 -36 42 -51.5t78 -24.5v-78h-673v78q88 3 128 23.5t40 68.5q0 21 -19 80zM629 1151l-226 -592h461zM346 1686
q0 65 47.5 111t114.5 46q66 0 114 -46.5t48 -110.5q0 -66 -48 -113t-114 -47q-67 0 -114.5 47t-47.5 113zM762 1686q0 64 47.5 110.5t112.5 46.5q67 0 114 -46t47 -111q0 -66 -47 -113t-114 -47q-65 0 -112.5 47t-47.5 113z" />
    <glyph glyph-name="Aring" unicode="&#xc5;" horiz-adv-x="1521" 
d="M987 250l-84 211h-536l-80 -211q-19 -55 -19 -78q0 -48 40.5 -68.5t131.5 -25.5v-78h-430v78q33 6 52 12t38.5 22t28.5 42l438 1130l-65 162h370l519 -1292q14 -36 42 -51.5t78 -24.5v-78h-673v78q88 3 128 23.5t40 68.5q0 21 -19 80zM629 1151l-226 -592h461zM502 1690
q0 86 58 143t147 57q88 0 145 -57t57 -143q0 -84 -57.5 -140.5t-144.5 -56.5q-89 0 -147 56.5t-58 140.5zM602 1690q0 -46 28 -76.5t77 -30.5q48 0 76 30.5t28 76.5q0 48 -28 79t-76 31q-50 0 -77.5 -30.5t-27.5 -79.5z" />
    <glyph glyph-name="AE" unicode="&#xc6;" horiz-adv-x="2109" 
d="M129 154l721 1134q-40 62 -199 72v78h1342l10 -383h-68q-42 92 -72 143t-68.5 88.5t-83.5 50.5t-112 13h-249v-557h229q68 0 96.5 41t42.5 147h82v-477h-82q-14 105 -42.5 145.5t-96.5 40.5h-229v-463q0 -81 40 -110t134 -29h100q38 0 68.5 6t55.5 15.5t50 32t44.5 44.5
t46.5 63.5t48 78t56 100.5h82l-66 -428h-1165v78q106 12 131.5 35t25.5 106v289h-516l-163 -258q-31 -51 -31 -84q0 -82 184 -88v-78h-465v78q43 8 70 24.5t49 51.5zM1001 1321l-454 -715h454v715z" />
    <glyph glyph-name="Ccedilla" unicode="&#xc7;" horiz-adv-x="1370" 
d="M596 -467l-16 66q106 0 163.5 28.5t57.5 73.5q0 40 -40 56.5t-124 19.5l82 207q-309 22 -485.5 208.5t-176.5 489.5q0 175 58.5 322t159.5 245.5t237.5 153.5t292.5 55q273 0 455 -121l4 -342h-88q-75 369 -361 369q-98 0 -174 -48t-122 -134t-69.5 -198t-23.5 -245
q0 -191 46 -339t139.5 -235t222.5 -87q140 0 236.5 101.5t152.5 324.5h94l-33 -395q-190 -129 -487 -129h-9l-26 -66q98 0 155.5 -43t57.5 -121q0 -72 -53 -122t-136.5 -72.5t-189.5 -22.5z" />
    <glyph glyph-name="Egrave" unicode="&#xc8;" horiz-adv-x="1318" 
d="M365 1831h329l103 -305h-95l-337 289v16zM55 0v78q105 12 130.5 35t25.5 106v1000q0 83 -25.5 106t-130.5 35v78h1149l10 -383h-69q-41 91 -71 143t-68.5 89t-83.5 50t-111 13h-252v-557h232q68 0 96.5 41t42.5 147h80v-477h-80q-14 105 -42.5 145.5t-96.5 40.5h-232
v-463q0 -80 40.5 -109.5t135.5 -29.5h101q33 0 59.5 3.5t51.5 14.5t44 21.5t41 35t38 44.5t41 60.5t43 71.5t50 89h80l-63 -428h-1166z" />
    <glyph glyph-name="Eacute" unicode="&#xc9;" horiz-adv-x="1318" 
d="M700 1831h330v-16l-338 -289h-94zM55 0v78q105 12 130.5 35t25.5 106v1000q0 83 -25.5 106t-130.5 35v78h1149l10 -383h-69q-41 91 -71 143t-68.5 89t-83.5 50t-111 13h-252v-557h232q68 0 96.5 41t42.5 147h80v-477h-80q-14 105 -42.5 145.5t-96.5 40.5h-232v-463
q0 -80 40.5 -109.5t135.5 -29.5h101q33 0 59.5 3.5t51.5 14.5t44 21.5t41 35t38 44.5t41 60.5t43 71.5t50 89h80l-63 -428h-1166z" />
    <glyph glyph-name="Ecircumflex" unicode="&#xca;" horiz-adv-x="1318" 
d="M55 0v78q105 12 130.5 35t25.5 106v1000q0 83 -25.5 106t-130.5 35v78h1149l10 -383h-69q-41 91 -71 143t-68.5 89t-83.5 50t-111 13h-252v-557h232q68 0 96.5 41t42.5 147h80v-477h-80q-14 105 -42.5 145.5t-96.5 40.5h-232v-463q0 -80 40.5 -109.5t135.5 -29.5h101
q33 0 59.5 3.5t51.5 14.5t44 21.5t41 35t38 44.5t41 60.5t43 71.5t50 89h80l-63 -428h-1166zM809 1843l250 -317h-98l-265 155l-264 -155h-98l250 317h225z" />
    <glyph glyph-name="Edieresis" unicode="&#xcb;" horiz-adv-x="1318" 
d="M328 1686q0 65 47 111t114 46q66 0 114 -46.5t48 -110.5q0 -66 -48 -113t-114 -47q-67 0 -114 47t-47 113zM743 1686q0 64 47.5 110.5t112.5 46.5q67 0 114.5 -46t47.5 -111q0 -66 -47.5 -113t-114.5 -47q-65 0 -112.5 47t-47.5 113zM55 0v78q105 12 130.5 35t25.5 106
v1000q0 83 -25.5 106t-130.5 35v78h1149l10 -383h-69q-41 91 -71 143t-68.5 89t-83.5 50t-111 13h-252v-557h232q68 0 96.5 41t42.5 147h80v-477h-80q-14 105 -42.5 145.5t-96.5 40.5h-232v-463q0 -80 40.5 -109.5t135.5 -29.5h101q33 0 59.5 3.5t51.5 14.5t44 21.5t41 35
t38 44.5t41 60.5t43 71.5t50 89h80l-63 -428h-1166z" />
    <glyph glyph-name="Igrave" unicode="&#xcc;" horiz-adv-x="772" 
d="M559 1219v-1000q0 -83 26 -106t132 -35v-78h-662v78q105 12 130.5 35t25.5 106v1000q0 83 -25.5 106t-130.5 35v78h662v-78q-106 -12 -132 -35t-26 -106zM51 1831h330l102 -305h-94l-338 289v16z" />
    <glyph glyph-name="Iacute" unicode="&#xcd;" horiz-adv-x="772" 
d="M559 1219v-1000q0 -83 26 -106t132 -35v-78h-662v78q105 12 130.5 35t25.5 106v1000q0 83 -25.5 106t-130.5 35v78h662v-78q-106 -12 -132 -35t-26 -106zM389 1831h330v-16l-338 -289h-94z" />
    <glyph glyph-name="Icircumflex" unicode="&#xce;" horiz-adv-x="772" 
d="M559 1219v-1000q0 -83 26 -106t132 -35v-78h-662v78q105 12 130.5 35t25.5 106v1000q0 83 -25.5 106t-130.5 35v78h662v-78q-106 -12 -132 -35t-26 -106zM494 1843l241 -317h-96l-254 155l-254 -155h-96l241 317h218z" />
    <glyph glyph-name="Idieresis" unicode="&#xcf;" horiz-adv-x="772" 
d="M559 1219v-1000q0 -83 26 -106t132 -35v-78h-662v78q105 12 130.5 35t25.5 106v1000q0 83 -25.5 106t-130.5 35v78h662v-78q-106 -12 -132 -35t-26 -106zM16 1686q0 65 47.5 111t114.5 46q66 0 114 -46.5t48 -110.5q0 -66 -48 -113t-114 -47q-67 0 -114.5 47t-47.5 113z
M432 1686q0 64 47.5 110.5t112.5 46.5q67 0 114.5 -46t47.5 -111q0 -66 -47.5 -113t-114.5 -47q-65 0 -112.5 47t-47.5 113z" />
    <glyph glyph-name="Eth" unicode="&#xd0;" horiz-adv-x="1593" 
d="M76 676v112h155v431q0 83 -25.5 106t-129.5 35v78h649q203 0 360 -54t254.5 -149.5t147 -220t49.5 -273.5q0 -231 -97 -399.5t-269.5 -255t-401.5 -86.5h-692v78q104 12 129.5 35t25.5 106v457h-155zM664 1350h-84v-562h272v-112h-272v-443q0 -86 34.5 -115.5
t116.5 -29.5h29q185 0 297 164.5t112 447.5q0 193 -54.5 337t-169.5 228.5t-281 84.5z" />
    <glyph glyph-name="Ntilde" unicode="&#xd1;" horiz-adv-x="1536" 
d="M938 1526q-42 0 -85 19t-72 42.5t-64.5 42.5t-65.5 19q-40 0 -72 -28.5t-67 -86.5l-63 35q58 142 109 204t126 62q42 0 85 -19t72 -42.5t64.5 -42.5t65.5 -19q74 0 139 115l64 -35q-56 -141 -108 -203.5t-128 -62.5zM1221 555v664q0 80 -38 105t-167 36v78h485v-78
q-106 -12 -132 -35.5t-26 -105.5v-1223h-122l-885 1110v-887q0 -80 38 -105t167 -36v-78h-484v78q104 12 130 35.5t26 105.5v1012q-46 72 -76.5 98.5t-81.5 30.5v78h465z" />
    <glyph glyph-name="Ograve" unicode="&#xd2;" horiz-adv-x="1503" 
d="M424 1831h330l102 -305h-94l-338 289v16zM762 72q81 0 142.5 53t98 143t54.5 199.5t18 232.5q0 137 -19 254t-58 211t-105 147.5t-152 53.5q-81 0 -143 -53t-98 -143.5t-54 -199.5t-18 -233q0 -137 19 -254t58 -210.5t105 -147t152 -53.5zM735 -20q-161 0 -291.5 57.5
t-214 155.5t-128 225.5t-44.5 271.5q0 173 53.5 318t148 243t225 152.5t282.5 54.5q162 0 293 -57.5t214.5 -156t128 -225.5t44.5 -271q0 -173 -54 -318t-148.5 -243t-225.5 -152.5t-283 -54.5z" />
    <glyph glyph-name="Oacute" unicode="&#xd3;" horiz-adv-x="1503" 
d="M760 1831h330v-16l-338 -289h-95zM762 72q81 0 142.5 53t98 143t54.5 199.5t18 232.5q0 137 -19 254t-58 211t-105 147.5t-152 53.5q-81 0 -143 -53t-98 -143.5t-54 -199.5t-18 -233q0 -137 19 -254t58 -210.5t105 -147t152 -53.5zM735 -20q-161 0 -291.5 57.5
t-214 155.5t-128 225.5t-44.5 271.5q0 173 53.5 318t148 243t225 152.5t282.5 54.5q162 0 293 -57.5t214.5 -156t128 -225.5t44.5 -271q0 -173 -54 -318t-148.5 -243t-225.5 -152.5t-283 -54.5z" />
    <glyph glyph-name="Ocircumflex" unicode="&#xd4;" horiz-adv-x="1503" 
d="M762 72q81 0 142.5 53t98 143t54.5 199.5t18 232.5q0 137 -19 254t-58 211t-105 147.5t-152 53.5q-81 0 -143 -53t-98 -143.5t-54 -199.5t-18 -233q0 -137 19 -254t58 -210.5t105 -147t152 -53.5zM735 -20q-161 0 -291.5 57.5t-214 155.5t-128 225.5t-44.5 271.5
q0 173 53.5 318t148 243t225 152.5t282.5 54.5q162 0 293 -57.5t214.5 -156t128 -225.5t44.5 -271q0 -173 -54 -318t-148.5 -243t-225.5 -152.5t-283 -54.5zM868 1843l250 -317h-98l-264 155l-264 -155h-99l250 317h225z" />
    <glyph glyph-name="Otilde" unicode="&#xd5;" horiz-adv-x="1503" 
d="M911 1526q-42 0 -84.5 19t-71.5 42.5t-64.5 42.5t-65.5 19q-41 0 -73 -28.5t-67 -86.5l-63 35q58 142 109 204t126 62q42 0 85 -19t72 -42.5t64.5 -42.5t65.5 -19q74 0 139 115l64 -35q-56 -141 -108 -203.5t-128 -62.5zM762 72q81 0 142.5 53t98 143t54.5 199.5
t18 232.5q0 137 -19 254t-58 211t-105 147.5t-152 53.5q-81 0 -143 -53t-98 -143.5t-54 -199.5t-18 -233q0 -137 19 -254t58 -210.5t105 -147t152 -53.5zM735 -20q-161 0 -291.5 57.5t-214 155.5t-128 225.5t-44.5 271.5q0 173 53.5 318t148 243t225 152.5t282.5 54.5
q162 0 293 -57.5t214.5 -156t128 -225.5t44.5 -271q0 -173 -54 -318t-148.5 -243t-225.5 -152.5t-283 -54.5z" />
    <glyph glyph-name="Odieresis" unicode="&#xd6;" horiz-adv-x="1503" 
d="M387 1686q0 65 47.5 111t114.5 46q66 0 114 -46.5t48 -110.5q0 -66 -48 -113t-114 -47q-67 0 -114.5 47t-47.5 113zM803 1686q0 64 47.5 110.5t112.5 46.5q67 0 114 -46t47 -111q0 -66 -47 -113t-114 -47q-65 0 -112.5 47t-47.5 113zM762 72q81 0 142.5 53t98 143
t54.5 199.5t18 232.5q0 137 -19 254t-58 211t-105 147.5t-152 53.5q-81 0 -143 -53t-98 -143.5t-54 -199.5t-18 -233q0 -137 19 -254t58 -210.5t105 -147t152 -53.5zM735 -20q-161 0 -291.5 57.5t-214 155.5t-128 225.5t-44.5 271.5q0 173 53.5 318t148 243t225 152.5
t282.5 54.5q162 0 293 -57.5t214.5 -156t128 -225.5t44.5 -271q0 -173 -54 -318t-148.5 -243t-225.5 -152.5t-283 -54.5z" />
    <glyph glyph-name="multiply" unicode="&#xd7;" horiz-adv-x="1013" 
d="M418 748l-285 284l90 90l283 -286l285 286l90 -90l-285 -284l285 -283l-90 -88l-285 285l-283 -285l-90 88z" />
    <glyph glyph-name="Oslash" unicode="&#xd8;" horiz-adv-x="1503" 
d="M735 -20q-214 0 -373 100l-141 -197l-74 54l142 196q-113 96 -172.5 242t-59.5 315q0 173 53.5 318t148 243t225 152.5t282.5 54.5q228 0 397 -117l133 183l74 -54l-135 -186q103 -99 157 -238t54 -298q0 -173 -54 -318t-148.5 -243t-225.5 -152.5t-283 -54.5zM428 737
q0 -208 39 -358l545 751q-89 236 -271 236q-81 0 -143 -53t-98 -143.5t-54 -199.5t-18 -233zM762 72q81 0 142.5 53t98 143t54.5 199.5t18 232.5q0 171 -31 320l-540 -746q86 -202 258 -202z" />
    <glyph glyph-name="Ugrave" unicode="&#xd9;" horiz-adv-x="1521" 
d="M500 1831h329l103 -305h-94l-338 289v16zM530 1219v-691q0 -188 80.5 -290.5t243.5 -102.5q167 0 265 97.5t98 306.5v680q0 81 -34 105.5t-161 35.5v78h473v-78q-106 -12 -132 -35.5t-26 -105.5v-719q0 -129 -43 -230t-119 -163.5t-175.5 -94.5t-217.5 -32
q-289 0 -444.5 131t-155.5 391v717q0 83 -25.5 106t-129.5 35v78h661v-78q-106 -12 -132 -35t-26 -106z" />
    <glyph glyph-name="Uacute" unicode="&#xda;" horiz-adv-x="1521" 
d="M836 1831h329v-16l-338 -289h-94zM530 1219v-691q0 -188 80.5 -290.5t243.5 -102.5q167 0 265 97.5t98 306.5v680q0 81 -34 105.5t-161 35.5v78h473v-78q-106 -12 -132 -35.5t-26 -105.5v-719q0 -129 -43 -230t-119 -163.5t-175.5 -94.5t-217.5 -32q-289 0 -444.5 131
t-155.5 391v717q0 83 -25.5 106t-129.5 35v78h661v-78q-106 -12 -132 -35t-26 -106z" />
    <glyph glyph-name="Ucircumflex" unicode="&#xdb;" horiz-adv-x="1521" 
d="M530 1219v-691q0 -188 80.5 -290.5t243.5 -102.5q167 0 265 97.5t98 306.5v680q0 81 -34 105.5t-161 35.5v78h473v-78q-106 -12 -132 -35.5t-26 -105.5v-719q0 -129 -43 -230t-119 -163.5t-175.5 -94.5t-217.5 -32q-289 0 -444.5 131t-155.5 391v717q0 83 -25.5 106
t-129.5 35v78h661v-78q-106 -12 -132 -35t-26 -106zM944 1843l250 -317h-98l-265 155l-264 -155h-98l250 317h225z" />
    <glyph glyph-name="Udieresis" unicode="&#xdc;" horiz-adv-x="1521" 
d="M463 1686q0 65 47.5 111t114.5 46q66 0 113.5 -46.5t47.5 -110.5q0 -66 -47.5 -113t-113.5 -47q-67 0 -114.5 47t-47.5 113zM879 1686q0 64 47 110.5t112 46.5q67 0 114.5 -46t47.5 -111q0 -66 -47.5 -113t-114.5 -47q-65 0 -112 47t-47 113zM530 1219v-691
q0 -188 80.5 -290.5t243.5 -102.5q167 0 265 97.5t98 306.5v680q0 81 -34 105.5t-161 35.5v78h473v-78q-106 -12 -132 -35.5t-26 -105.5v-719q0 -129 -43 -230t-119 -163.5t-175.5 -94.5t-217.5 -32q-289 0 -444.5 131t-155.5 391v717q0 83 -25.5 106t-129.5 35v78h661v-78
q-106 -12 -132 -35t-26 -106z" />
    <glyph glyph-name="Yacute" unicode="&#xdd;" horiz-adv-x="1404" 
d="M883 549v-338q0 -28 3 -47t13 -33t19.5 -22t34.5 -14t44.5 -9t61.5 -8v-78h-692v78q36 4 53.5 6.5t41 7.5t33.5 10.5t22.5 14.5t17 22t7.5 30.5t3 41.5v330l-416 743q-22 39 -46.5 53.5t-72.5 22.5v78h660v-78q-88 -3 -119 -19t-31 -55q0 -28 10 -53.5t35 -69.5l273 -475
l249 473q46 94 46 125q0 38 -35.5 54.5t-118.5 19.5v78h416v-78q-46 -8 -74 -24.5t-47 -51.5zM780 1831h330v-16l-338 -289h-94z" />
    <glyph glyph-name="Thorn" unicode="&#xde;" horiz-adv-x="1323" 
d="M559 1219v-50h162q281 0 427 -119.5t146 -310.5q0 -210 -147 -327t-436 -117h-152v-66q0 -83 50.5 -112t193.5 -37v-80h-748v78q105 12 130.5 35t25.5 106v1000q0 83 -25.5 106t-130.5 35v78h662v-78q-106 -12 -132 -35t-26 -106zM559 1081v-688h70q157 0 237 90t80 254
q0 158 -83.5 251t-233.5 93h-70z" />
    <glyph glyph-name="germandbls" unicode="&#xdf;" horiz-adv-x="1419" 
d="M717 1604q198 0 317 -82.5t119 -216.5q0 -54 -21.5 -100t-53 -76t-69 -58.5t-69 -49.5t-53 -48t-21.5 -55q0 -9 3 -18t10.5 -18.5t15 -17.5t21.5 -18.5t25.5 -18.5t32 -20t34.5 -20.5t39.5 -23t42.5 -24.5q56 -33 95 -59.5t77.5 -63t61.5 -74.5t37.5 -89t14.5 -111
q0 -165 -116.5 -263.5t-298.5 -98.5q-209 0 -332 108l-13 266h86q31 -131 100 -213t167 -82q78 0 122 42t44 114q0 79 -49.5 130.5t-176.5 125.5q-126 74 -180.5 139.5t-54.5 157.5q0 42 14 81t37 70.5t50.5 63.5t55 66t50.5 70.5t37 85t14 102.5q0 103 -53 163t-154 60
q-229 0 -229 -334v-1196h-451v74q71 5 96 20.5t25 63.5v833h-148v68l150 45l2 35q17 223 164.5 344t382.5 121z" />
    <glyph glyph-name="agrave" unicode="&#xe0;" horiz-adv-x="1101" 
d="M508 162q54 0 125 49v381l-146 -57q-67 -28 -99 -68.5t-32 -122.5q0 -84 38 -133t114 -49zM958 768v-543q0 -50 13 -76t49 -26q40 0 76 16l12 -49q-96 -110 -250 -110q-86 0 -142.5 46t-76.5 130q-126 -172 -313 -172q-129 0 -207 72t-78 198q0 64 20.5 114t61.5 85.5
t85 59t107 46.5l318 113v190q0 180 -127 180q-63 0 -94 -45.5t-31 -122.5q0 -62 18 -133l-196 -26q-44 14 -70.5 49t-26.5 86q0 128 117.5 196t304.5 68q213 0 321.5 -81t108.5 -265zM215 1565h326l106 -338h-88l-344 321v17z" />
    <glyph glyph-name="aacute" unicode="&#xe1;" horiz-adv-x="1101" 
d="M508 162q54 0 125 49v381l-146 -57q-67 -28 -99 -68.5t-32 -122.5q0 -84 38 -133t114 -49zM958 768v-543q0 -50 13 -76t49 -26q40 0 76 16l12 -49q-96 -110 -250 -110q-86 0 -142.5 46t-76.5 130q-126 -172 -313 -172q-129 0 -207 72t-78 198q0 64 20.5 114t61.5 85.5
t85 59t107 46.5l318 113v190q0 180 -127 180q-63 0 -94 -45.5t-31 -122.5q0 -62 18 -133l-196 -26q-44 14 -70.5 49t-26.5 86q0 128 117.5 196t304.5 68q213 0 321.5 -81t108.5 -265zM547 1565h325v-17l-346 -321h-86z" />
    <glyph glyph-name="acircumflex" unicode="&#xe2;" horiz-adv-x="1101" 
d="M508 162q54 0 125 49v381l-146 -57q-67 -28 -99 -68.5t-32 -122.5q0 -84 38 -133t114 -49zM958 768v-543q0 -50 13 -76t49 -26q40 0 76 16l12 -49q-96 -110 -250 -110q-86 0 -142.5 46t-76.5 130q-126 -172 -313 -172q-129 0 -207 72t-78 198q0 64 20.5 114t61.5 85.5
t85 59t107 46.5l318 113v190q0 180 -127 180q-63 0 -94 -45.5t-31 -122.5q0 -62 18 -133l-196 -26q-44 14 -70.5 49t-26.5 86q0 128 117.5 196t304.5 68q213 0 321.5 -81t108.5 -265zM655 1569l236 -350h-103l-245 186l-246 -186h-102l235 350h225z" />
    <glyph glyph-name="atilde" unicode="&#xe3;" horiz-adv-x="1101" 
d="M508 162q54 0 125 49v381l-146 -57q-67 -28 -99 -68.5t-32 -122.5q0 -84 38 -133t114 -49zM958 768v-543q0 -50 13 -76t49 -26q40 0 76 16l12 -49q-96 -110 -250 -110q-86 0 -142.5 46t-76.5 130q-126 -172 -313 -172q-129 0 -207 72t-78 198q0 64 20.5 114t61.5 85.5
t85 59t107 46.5l318 113v190q0 180 -127 180q-63 0 -94 -45.5t-31 -122.5q0 -62 18 -133l-196 -26q-44 14 -70.5 49t-26.5 86q0 128 117.5 196t304.5 68q213 0 321.5 -81t108.5 -265zM672 1233q-42 0 -83.5 19t-69 41.5t-62 41.5t-64.5 19q-40 0 -71 -28t-64 -87l-63 37
q57 143 106.5 204.5t124.5 61.5q35 0 68 -12.5t59 -31t50.5 -36.5t50.5 -30.5t51 -12.5q40 0 71 28t64 87l63 -35q-56 -143 -106 -204.5t-125 -61.5z" />
    <glyph glyph-name="adieresis" unicode="&#xe4;" horiz-adv-x="1101" 
d="M508 162q54 0 125 49v381l-146 -57q-67 -28 -99 -68.5t-32 -122.5q0 -84 38 -133t114 -49zM958 768v-543q0 -50 13 -76t49 -26q40 0 76 16l12 -49q-96 -110 -250 -110q-86 0 -142.5 46t-76.5 130q-126 -172 -313 -172q-129 0 -207 72t-78 198q0 64 20.5 114t61.5 85.5
t85 59t107 46.5l318 113v190q0 180 -127 180q-63 0 -94 -45.5t-31 -122.5q0 -62 18 -133l-196 -26q-44 14 -70.5 49t-26.5 86q0 128 117.5 196t304.5 68q213 0 321.5 -81t108.5 -265zM178 1399q0 65 47.5 112.5t114.5 47.5q66 0 114 -47.5t48 -112.5q0 -66 -48 -113
t-114 -47q-67 0 -114.5 47t-47.5 113zM586 1399q0 65 47.5 112.5t111.5 47.5q67 0 114.5 -47.5t47.5 -112.5q0 -66 -47.5 -113t-114.5 -47q-65 0 -112 47t-47 113z" />
    <glyph glyph-name="aring" unicode="&#xe5;" horiz-adv-x="1101" 
d="M508 162q54 0 125 49v381l-146 -57q-67 -28 -99 -68.5t-32 -122.5q0 -84 38 -133t114 -49zM958 768v-543q0 -50 13 -76t49 -26q40 0 76 16l12 -49q-96 -110 -250 -110q-86 0 -142.5 46t-76.5 130q-126 -172 -313 -172q-129 0 -207 72t-78 198q0 64 20.5 114t61.5 85.5
t85 59t107 46.5l318 113v190q0 180 -127 180q-63 0 -94 -45.5t-31 -122.5q0 -62 18 -133l-196 -26q-44 14 -70.5 49t-26.5 86q0 128 117.5 196t304.5 68q213 0 321.5 -81t108.5 -265zM438 1376q0 -47 28 -77.5t77 -30.5q48 0 76 30.5t28 77.5t-28 78t-76 31q-49 0 -77 -30.5
t-28 -78.5zM338 1376q0 85 58 142t147 57q87 0 144.5 -57t57.5 -142t-57.5 -141.5t-144.5 -56.5q-89 0 -147 56.5t-58 141.5z" />
    <glyph glyph-name="ae" unicode="&#xe6;" horiz-adv-x="1593" 
d="M1124 1114q204 0 316 -122t112 -318v-49h-647q-4 -193 84 -308.5t240 -115.5q182 0 297 157l35 -20q-41 -166 -157.5 -262t-297.5 -96q-260 0 -397 188q-79 -90 -163.5 -137t-213.5 -47q-133 0 -212 72t-79 198q0 64 20.5 114t61.5 85.5t85 59t107 46.5l306 105
q11 56 22 86q3 138 -34.5 215t-112.5 77q-57 0 -86 -45.5t-29 -122.5q0 -62 18 -133l-196 -26q-44 14 -70.5 49t-26.5 86q0 86 56.5 147t148 89t207.5 28q210 0 293 -110q131 110 313 110zM1096 1034q-166 0 -187 -325h355q0 325 -168 325zM524 162q70 0 156 53
q-72 129 -72 305q0 10 1 30.5t1 29.5l-108 -41q-77 -30 -111.5 -71t-34.5 -124q0 -182 168 -182z" />
    <glyph glyph-name="ccedilla" unicode="&#xe7;" horiz-adv-x="997" 
d="M311 -467l-16 66q106 0 163.5 28.5t57.5 73.5q0 40 -40 56.5t-124 19.5l84 211q-175 31 -283 171t-108 353q0 262 150 432t395 170q159 0 257.5 -63.5t98.5 -184.5q0 -51 -24 -89t-60 -54h-174q8 78 8 108q0 199 -141 199q-103 0 -164 -110t-61 -279q0 -200 86.5 -317
t240.5 -117q181 0 279 143l41 -22q-49 -174 -162 -261t-280 -87h-31l-27 -66q98 0 155.5 -43t57.5 -121q0 -72 -53 -122t-136.5 -72.5t-189.5 -22.5z" />
    <glyph glyph-name="egrave" unicode="&#xe8;" horiz-adv-x="1044" 
d="M571 1114q208 0 320.5 -120.5t112.5 -317.5v-47h-662q-4 -197 88 -312.5t240 -115.5q101 0 175 38.5t132 118.5l35 -20q-41 -166 -157.5 -262t-297.5 -96q-227 0 -369.5 147.5t-142.5 392.5q0 131 41.5 243t113 188.5t167.5 119.5t204 43zM549 1034q-91 0 -142.5 -87
t-60.5 -234h369q0 321 -166 321zM252 1565h326l106 -338h-88l-344 321v17z" />
    <glyph glyph-name="eacute" unicode="&#xe9;" horiz-adv-x="1044" 
d="M586 1565h325v-17l-346 -321h-86zM571 1114q208 0 320.5 -120.5t112.5 -317.5v-47h-662q-4 -197 88 -312.5t240 -115.5q101 0 175 38.5t132 118.5l35 -20q-41 -166 -157.5 -262t-297.5 -96q-227 0 -369.5 147.5t-142.5 392.5q0 131 41.5 243t113 188.5t167.5 119.5
t204 43zM549 1034q-91 0 -142.5 -87t-60.5 -234h369q0 321 -166 321z" />
    <glyph glyph-name="ecircumflex" unicode="&#xea;" horiz-adv-x="1044" 
d="M688 1569l236 -350h-103l-246 186l-245 -186h-103l236 350h225zM571 1114q208 0 320.5 -120.5t112.5 -317.5v-47h-662q-4 -197 88 -312.5t240 -115.5q101 0 175 38.5t132 118.5l35 -20q-41 -166 -157.5 -262t-297.5 -96q-227 0 -369.5 147.5t-142.5 392.5q0 131 41.5 243
t113 188.5t167.5 119.5t204 43zM549 1034q-91 0 -142.5 -87t-60.5 -234h369q0 321 -166 321z" />
    <glyph glyph-name="edieresis" unicode="&#xeb;" horiz-adv-x="1044" 
d="M211 1399q0 65 47.5 112.5t114.5 47.5q66 0 114 -47.5t48 -112.5q0 -66 -48 -113t-114 -47q-67 0 -114.5 47t-47.5 113zM618 1399q0 65 48 112.5t112 47.5q67 0 114.5 -47.5t47.5 -112.5q0 -66 -47.5 -113t-114.5 -47q-65 0 -112.5 47t-47.5 113zM571 1114
q208 0 320.5 -120.5t112.5 -317.5v-47h-662q-4 -197 88 -312.5t240 -115.5q101 0 175 38.5t132 118.5l35 -20q-41 -166 -157.5 -262t-297.5 -96q-227 0 -369.5 147.5t-142.5 392.5q0 131 41.5 243t113 188.5t167.5 119.5t204 43zM549 1034q-91 0 -142.5 -87t-60.5 -234h369
q0 321 -166 321z" />
    <glyph glyph-name="igrave" unicode="&#xec;" horiz-adv-x="647" 
d="M496 1114v-956q0 -49 25 -64t95 -20v-74h-571v74q71 5 96 20.5t25 63.5v723l-119 71v47l393 115h56zM8 1565h326l106 -338h-88l-344 321v17z" />
    <glyph glyph-name="iacute" unicode="&#xed;" horiz-adv-x="647" 
d="M340 1565h326v-17l-347 -321h-86zM496 1114v-956q0 -49 25 -64t95 -20v-74h-571v74q71 5 96 20.5t25 63.5v723l-119 71v47l393 115h56z" />
    <glyph glyph-name="icircumflex" unicode="&#xee;" horiz-adv-x="647" 
d="M428 1569l213 -348h-92l-223 186l-224 -186h-92l213 348h205zM496 1114v-956q0 -49 25 -64t95 -20v-74h-571v74q71 5 96 20.5t25 63.5v723l-119 71v47l393 115h56z" />
    <glyph glyph-name="idieresis" unicode="&#xef;" horiz-adv-x="647" 
d="M-35 1399q0 65 47 112.5t113 47.5q67 0 114.5 -47.5t47.5 -112.5q0 -66 -47.5 -113t-114.5 -47q-66 0 -113 47t-47 113zM365 1399q0 65 46.5 112.5t110.5 47.5q68 0 116 -47.5t48 -112.5q0 -66 -47.5 -113t-116.5 -47q-65 0 -111 47t-46 113zM496 1114v-956q0 -49 25 -64
t95 -20v-74h-571v74q71 5 96 20.5t25 63.5v723l-119 71v47l393 115h56z" />
    <glyph glyph-name="eth" unicode="&#xf0;" horiz-adv-x="1185" 
d="M244 1202l-25 80l309 102q-128 112 -303 162l37 64q258 -45 445 -166l251 84l25 -80l-190 -64q172 -137 260 -327.5t88 -401.5q0 -309 -146 -492t-405 -183q-244 0 -394.5 155.5t-150.5 399.5q0 129 43 239t115 183t165.5 114t194.5 41q63 0 115 -23.5t84 -62.5
q-59 172 -166 293zM602 59q193 0 193 430q0 165 -20.5 284t-68 190t-118.5 71q-193 0 -193 -430q0 -165 20.5 -284t68 -190t118.5 -71z" />
    <glyph glyph-name="ntilde" unicode="&#xf1;" horiz-adv-x="1316" 
d="M846 158v598q0 82 -34.5 122t-113.5 40q-100 0 -202 -66v-694q0 -49 23 -64t93 -20v-74h-567v74q71 5 96 20.5t25 63.5v723l-119 71v47l395 115h62l-8 -203q166 203 378 203q147 0 224.5 -84t77.5 -250v-622q0 -49 25 -64t95 -20v-74h-567v74q70 5 93.5 20t23.5 64z
M821 1233q-42 0 -83.5 19t-69 41.5t-61.5 41.5t-64 19q-40 0 -71 -28t-64 -87l-64 37q57 143 106.5 204.5t124.5 61.5q35 0 68 -12.5t59 -31t50.5 -36.5t50.5 -30.5t51 -12.5q40 0 71 28t64 87l64 -35q-56 -143 -106 -204.5t-126 -61.5z" />
    <glyph glyph-name="ograve" unicode="&#xf2;" horiz-adv-x="1187" 
d="M602 59q193 0 193 430q0 165 -20.5 284t-68 190t-120.5 71q-193 0 -193 -430q0 -165 20.5 -284t68 -190t120.5 -71zM592 -20q-246 0 -396.5 149t-150.5 395q0 259 155.5 424.5t395.5 165.5q246 0 397.5 -149.5t151.5 -395.5q0 -258 -156.5 -423.5t-396.5 -165.5z
M270 1565h326l106 -338h-88l-344 321v17z" />
    <glyph glyph-name="oacute" unicode="&#xf3;" horiz-adv-x="1187" 
d="M604 1565h326v-17l-346 -321h-86zM602 59q193 0 193 430q0 165 -20.5 284t-68 190t-120.5 71q-193 0 -193 -430q0 -165 20.5 -284t68 -190t120.5 -71zM592 -20q-246 0 -396.5 149t-150.5 395q0 259 155.5 424.5t395.5 165.5q246 0 397.5 -149.5t151.5 -395.5
q0 -258 -156.5 -423.5t-396.5 -165.5z" />
    <glyph glyph-name="ocircumflex" unicode="&#xf4;" horiz-adv-x="1187" 
d="M713 1569l235 -350h-102l-246 186l-246 -186h-102l235 350h226zM602 59q193 0 193 430q0 165 -20.5 284t-68 190t-120.5 71q-193 0 -193 -430q0 -165 20.5 -284t68 -190t120.5 -71zM592 -20q-246 0 -396.5 149t-150.5 395q0 259 155.5 424.5t395.5 165.5
q246 0 397.5 -149.5t151.5 -395.5q0 -258 -156.5 -423.5t-396.5 -165.5z" />
    <glyph glyph-name="otilde" unicode="&#xf5;" horiz-adv-x="1187" 
d="M602 59q193 0 193 430q0 165 -20.5 284t-68 190t-120.5 71q-193 0 -193 -430q0 -165 20.5 -284t68 -190t120.5 -71zM592 -20q-246 0 -396.5 149t-150.5 395q0 259 155.5 424.5t395.5 165.5q246 0 397.5 -149.5t151.5 -395.5q0 -258 -156.5 -423.5t-396.5 -165.5z
M733 1233q-42 0 -83.5 19t-69 41.5t-61.5 41.5t-64 19q-40 0 -71.5 -28.5t-64.5 -86.5l-63 37q57 143 106.5 204.5t124.5 61.5q35 0 68 -12.5t59 -31t50.5 -36.5t50.5 -30.5t51 -12.5q40 0 71 28t64 87l64 -35q-56 -143 -106 -204.5t-126 -61.5z" />
    <glyph glyph-name="odieresis" unicode="&#xf6;" horiz-adv-x="1187" 
d="M233 1399q0 65 47.5 112.5t114.5 47.5q66 0 114 -47.5t48 -112.5q0 -66 -48 -113t-114 -47q-67 0 -114.5 47t-47.5 113zM641 1399q0 65 47.5 112.5t112.5 47.5q67 0 114.5 -47.5t47.5 -112.5q0 -66 -47.5 -113t-114.5 -47q-65 0 -112.5 47t-47.5 113zM602 59
q193 0 193 430q0 165 -20.5 284t-68 190t-120.5 71q-193 0 -193 -430q0 -165 20.5 -284t68 -190t120.5 -71zM592 -20q-246 0 -396.5 149t-150.5 395q0 259 155.5 424.5t395.5 165.5q246 0 397.5 -149.5t151.5 -395.5q0 -258 -156.5 -423.5t-396.5 -165.5z" />
    <glyph glyph-name="divide" unicode="&#xf7;" horiz-adv-x="1169" 
d="M133 692v131h903v-131h-903zM467 410q0 51 33.5 84.5t83.5 33.5q48 0 83 -34t35 -84q0 -47 -35.5 -82t-82.5 -35q-49 0 -83 34.5t-34 82.5zM467 1104q0 50 33.5 83.5t83.5 33.5q48 0 83 -34t35 -83q0 -47 -35.5 -83t-82.5 -36q-49 0 -83 35.5t-34 83.5z" />
    <glyph glyph-name="oslash" unicode="&#xf8;" horiz-adv-x="1187" 
d="M592 -20q-167 0 -293 69l-113 -162l-67 45l112 164q-89 71 -137.5 181.5t-48.5 246.5q0 259 155.5 424.5t395.5 165.5q163 0 295 -74l110 160l68 -45l-111 -160q89 -71 138 -181t49 -245q0 -258 -156.5 -423.5t-396.5 -165.5zM393 604q0 -142 15 -256l348 500
q-52 186 -170 186q-193 0 -193 -430zM602 59q193 0 193 430q0 124 -17 250l-346 -499q53 -181 170 -181z" />
    <glyph glyph-name="ugrave" unicode="&#xf9;" horiz-adv-x="1275" 
d="M1122 864v-639q0 -57 13.5 -77t64.5 -23l49 -2v-72l-401 -71h-60l7 196q-75 -88 -160 -142t-201 -54q-142 0 -222.5 84t-80.5 253v519q0 51 -18 78t-70 38l-31 6v70l404 84h55l-10 -252v-506q0 -182 149 -182q49 0 89 14.5t96 44.5v605q0 51 -18 78t-70 38l-31 6v70
l401 84h58zM307 1565h326l106 -338h-88l-344 321v17z" />
    <glyph glyph-name="uacute" unicode="&#xfa;" horiz-adv-x="1275" 
d="M641 1565h326v-17l-346 -321h-86zM1122 864v-639q0 -57 13.5 -77t64.5 -23l49 -2v-72l-401 -71h-60l7 196q-75 -88 -160 -142t-201 -54q-142 0 -222.5 84t-80.5 253v519q0 51 -18 78t-70 38l-31 6v70l404 84h55l-10 -252v-506q0 -182 149 -182q49 0 89 14.5t96 44.5v605
q0 51 -18 78t-70 38l-31 6v70l401 84h58z" />
    <glyph glyph-name="ucircumflex" unicode="&#xfb;" horiz-adv-x="1275" 
d="M750 1569l235 -350h-102l-246 186l-246 -186h-102l235 350h226zM1122 864v-639q0 -57 13.5 -77t64.5 -23l49 -2v-72l-401 -71h-60l7 196q-75 -88 -160 -142t-201 -54q-142 0 -222.5 84t-80.5 253v519q0 51 -18 78t-70 38l-31 6v70l404 84h55l-10 -252v-506
q0 -182 149 -182q49 0 89 14.5t96 44.5v605q0 51 -18 78t-70 38l-31 6v70l401 84h58z" />
    <glyph glyph-name="udieresis" unicode="&#xfc;" horiz-adv-x="1275" 
d="M272 1399q0 65 47.5 112.5t114.5 47.5q66 0 114 -47.5t48 -112.5q0 -66 -48 -113t-114 -47q-67 0 -114.5 47t-47.5 113zM680 1399q0 65 48 112.5t112 47.5q67 0 114 -47.5t47 -112.5q0 -66 -47 -113t-114 -47q-65 0 -112.5 47t-47.5 113zM1122 864v-639q0 -57 13.5 -77
t64.5 -23l49 -2v-72l-401 -71h-60l7 196q-75 -88 -160 -142t-201 -54q-142 0 -222.5 84t-80.5 253v519q0 51 -18 78t-70 38l-31 6v70l404 84h55l-10 -252v-506q0 -182 149 -182q49 0 89 14.5t96 44.5v605q0 51 -18 78t-70 38l-31 6v70l401 84h58z" />
    <glyph glyph-name="yacute" unicode="&#xfd;" horiz-adv-x="1187" 
d="M721 328l217 563q16 43 16 59q0 33 -28.5 47t-108.5 23v74h361v-74q-52 -15 -71.5 -30t-33.5 -50l-459 -1126q-56 -137 -119 -201t-161 -64q-57 0 -101.5 24t-64.5 65v124q85 -18 149 -18q87 0 137.5 29t80.5 102l32 80l-452 985q-16 36 -34.5 51t-70.5 29v74h604v-74
q-81 -9 -109 -23t-28 -47q0 -20 12 -57zM674 1565h325v-17l-346 -321h-86z" />
    <glyph glyph-name="thorn" unicode="&#xfe;" horiz-adv-x="1261" 
d="M883 508q0 197 -69 303.5t-200 106.5q-84 0 -151 -54v-571q0 -227 166 -227q119 0 186.5 124.5t67.5 317.5zM133 -276v1671l-119 61v51l396 97h53v-684q55 84 141 139t203 55q188 0 299 -130.5t111 -369.5q0 -150 -43.5 -271.5t-120 -200t-178.5 -120.5t-220 -42
q-131 0 -192 49v-297q0 -54 31 -69t133 -23v-74h-615v74q71 5 96 20.5t25 63.5z" />
    <glyph glyph-name="ydieresis" unicode="&#xff;" horiz-adv-x="1187" 
d="M721 328l217 563q16 43 16 59q0 33 -28.5 47t-108.5 23v74h361v-74q-52 -15 -71.5 -30t-33.5 -50l-459 -1126q-56 -137 -119 -201t-161 -64q-57 0 -101.5 24t-64.5 65v124q85 -18 149 -18q87 0 137.5 29t80.5 102l32 80l-452 985q-16 36 -34.5 51t-70.5 29v74h604v-74
q-81 -9 -109 -23t-28 -47q0 -20 12 -57zM305 1399q0 65 47.5 112.5t114.5 47.5q66 0 114 -47.5t48 -112.5q0 -66 -48 -113t-114 -47q-67 0 -114.5 47t-47.5 113zM713 1399q0 65 47.5 112.5t111.5 47.5q67 0 114.5 -47.5t47.5 -112.5q0 -66 -47.5 -113t-114.5 -47
q-65 0 -112 47t-47 113z" />
    <glyph glyph-name="Amacron" unicode="&#x100;" horiz-adv-x="1521" 
d="M987 250l-84 211h-536l-80 -211q-19 -55 -19 -78q0 -48 40.5 -68.5t131.5 -25.5v-78h-430v78q33 6 52 12t38.5 22t28.5 42l438 1130l-65 162h370l519 -1292q14 -36 42 -51.5t78 -24.5v-78h-673v78q88 3 128 23.5t40 68.5q0 21 -19 80zM629 1151l-226 -592h461zM418 1550
v158h592v-158h-592z" />
    <glyph glyph-name="amacron" unicode="&#x101;" horiz-adv-x="1101" 
d="M508 162q54 0 125 49v381l-146 -57q-67 -28 -99 -68.5t-32 -122.5q0 -84 38 -133t114 -49zM958 768v-543q0 -50 13 -76t49 -26q40 0 76 16l12 -49q-96 -110 -250 -110q-86 0 -142.5 46t-76.5 130q-126 -172 -313 -172q-129 0 -207 72t-78 198q0 64 20.5 114t61.5 85.5
t85 59t107 46.5l318 113v190q0 180 -127 180q-63 0 -94 -45.5t-31 -122.5q0 -62 18 -133l-196 -26q-44 14 -70.5 49t-26.5 86q0 128 117.5 196t304.5 68q213 0 321.5 -81t108.5 -265zM260 1278v158h567v-158h-567z" />
    <glyph glyph-name="Abreve" unicode="&#x102;" horiz-adv-x="1521" 
d="M987 250l-84 211h-536l-80 -211q-19 -55 -19 -78q0 -48 40.5 -68.5t131.5 -25.5v-78h-430v78q33 6 52 12t38.5 22t28.5 42l438 1130l-65 162h370l519 -1292q14 -36 42 -51.5t78 -24.5v-78h-673v78q88 3 128 23.5t40 68.5q0 21 -19 80zM629 1151l-226 -592h461zM713 1520
q-141 0 -220 82.5t-79 236.5h84q26 -147 215 -147q191 0 217 147h84q0 -154 -79.5 -236.5t-221.5 -82.5z" />
    <glyph glyph-name="abreve" unicode="&#x103;" horiz-adv-x="1101" 
d="M508 162q54 0 125 49v381l-146 -57q-67 -28 -99 -68.5t-32 -122.5q0 -84 38 -133t114 -49zM958 768v-543q0 -50 13 -76t49 -26q40 0 76 16l12 -49q-96 -110 -250 -110q-86 0 -142.5 46t-76.5 130q-126 -172 -313 -172q-129 0 -207 72t-78 198q0 64 20.5 114t61.5 85.5
t85 59t107 46.5l318 113v190q0 180 -127 180q-63 0 -94 -45.5t-31 -122.5q0 -62 18 -133l-196 -26q-44 14 -70.5 49t-26.5 86q0 128 117.5 196t304.5 68q213 0 321.5 -81t108.5 -265zM543 1223q-139 0 -213 88.5t-74 251.5h86q16 -164 201 -164q182 0 200 164h86
q0 -163 -74 -251.5t-212 -88.5z" />
    <glyph glyph-name="Aogonek" unicode="&#x104;" horiz-adv-x="1521" 
d="M629 1151l-228 -592h463zM854 47q33 11 46.5 16t36.5 14t32 16t20 18t15 24t4 29q0 31 -19 80l-86 217h-536l-80 -211q-19 -55 -19 -78q0 -48 40.5 -68.5t131.5 -25.5v-78h-430v78q33 6 52 12t38.5 22t28.5 42l438 1130l-65 162h370l519 -1292q14 -36 42 -51.5t78 -24.5
v-78h-600q-81 -18 -125.5 -71.5t-44.5 -125.5q0 -51 26 -80.5t75 -29.5q37 0 67.5 12.5t69.5 42.5l29 -35q-59 -73 -122 -112t-143 -39q-85 0 -139.5 50.5t-54.5 139.5q0 108 81.5 178.5t223.5 116.5z" />
    <glyph glyph-name="aogonek" unicode="&#x105;" horiz-adv-x="1101" 
d="M958 768v-543q0 -50 13 -76t49 -26q40 0 76 16l12 -49q-27 -24 -72 -50t-82.5 -47t-74 -48t-57.5 -64.5t-21 -83.5t24 -75t70 -29q42 0 72.5 12.5t68.5 42.5l29 -35q-117 -151 -270 -151q-81 0 -135 47t-54 123q0 81 54.5 141t152.5 109q-64 14 -110.5 60t-63.5 114
q-126 -172 -313 -172q-129 0 -207 72t-78 198q0 64 20.5 114t61.5 85.5t85 59t107 46.5l318 113v190q0 180 -127 180q-63 0 -94 -45.5t-31 -122.5q0 -62 18 -133l-196 -26q-44 14 -70.5 49t-26.5 86q0 128 117.5 196t304.5 68q213 0 321.5 -81t108.5 -265zM508 162
q54 0 125 49v381l-146 -57q-67 -28 -99 -68.5t-32 -122.5q0 -84 38 -133t114 -49z" />
    <glyph glyph-name="Cacute" unicode="&#x106;" horiz-adv-x="1370" 
d="M805 1458q273 0 455 -121l4 -342h-88q-75 369 -361 369q-98 0 -174 -48t-122 -134t-69.5 -198t-23.5 -245q0 -191 46 -339t139.5 -235t222.5 -87q140 0 236.5 101.5t152.5 324.5h94l-33 -395q-190 -129 -487 -129q-342 0 -541 190t-199 512q0 175 58.5 322t159.5 245.5
t237.5 153.5t292.5 55zM821 1831h330v-16l-338 -289h-94z" />
    <glyph glyph-name="cacute" unicode="&#x107;" horiz-adv-x="997" 
d="M590 1565h325v-17l-346 -321h-86zM330 641q0 -200 86.5 -317t240.5 -117q181 0 279 143l41 -22q-49 -174 -162 -261t-280 -87q-215 0 -352.5 145t-137.5 387q0 262 150 432t395 170q159 0 257.5 -63.5t98.5 -184.5q0 -51 -24 -89t-60 -54h-174q8 78 8 108q0 199 -141 199
q-103 0 -164 -110t-61 -279z" />
    <glyph glyph-name="Ccircumflex" unicode="&#x108;" horiz-adv-x="1370" 
d="M805 1458q273 0 455 -121l4 -342h-88q-75 369 -361 369q-98 0 -174 -48t-122 -134t-69.5 -198t-23.5 -245q0 -191 46 -339t139.5 -235t222.5 -87q140 0 236.5 101.5t152.5 324.5h94l-33 -395q-190 -129 -487 -129q-342 0 -541 190t-199 512q0 175 58.5 322t159.5 245.5
t237.5 153.5t292.5 55zM930 1843l250 -317h-99l-264 155l-264 -155h-98l250 317h225z" />
    <glyph glyph-name="ccircumflex" unicode="&#x109;" horiz-adv-x="997" 
d="M684 1569l236 -350h-103l-246 186l-245 -186h-103l236 350h225zM330 641q0 -200 86.5 -317t240.5 -117q181 0 279 143l41 -22q-49 -174 -162 -261t-280 -87q-215 0 -352.5 145t-137.5 387q0 262 150 432t395 170q159 0 257.5 -63.5t98.5 -184.5q0 -51 -24 -89t-60 -54
h-174q8 78 8 108q0 199 -141 199q-103 0 -164 -110t-61 -279z" />
    <glyph glyph-name="Cdotaccent" unicode="&#x10a;" horiz-adv-x="1370" 
d="M817 1526q-81 0 -131.5 50.5t-50.5 123.5t50.5 123.5t131.5 50.5q82 0 133 -50.5t51 -123.5t-51 -123.5t-133 -50.5zM805 1458q273 0 455 -121l4 -342h-88q-75 369 -361 369q-98 0 -174 -48t-122 -134t-69.5 -198t-23.5 -245q0 -191 46 -339t139.5 -235t222.5 -87
q140 0 236.5 101.5t152.5 324.5h94l-33 -395q-190 -129 -487 -129q-342 0 -541 190t-199 512q0 175 58.5 322t159.5 245.5t237.5 153.5t292.5 55z" />
    <glyph glyph-name="cdotaccent" unicode="&#x10b;" horiz-adv-x="997" 
d="M330 641q0 -200 86.5 -317t240.5 -117q181 0 279 143l41 -22q-49 -174 -162 -261t-280 -87q-215 0 -352.5 145t-137.5 387q0 262 150 432t395 170q159 0 257.5 -63.5t98.5 -184.5q0 -51 -24 -89t-60 -54h-174q8 78 8 108q0 199 -141 199q-103 0 -164 -110t-61 -279z
M578 1227q-81 0 -132 51.5t-51 124.5t51 123.5t132 50.5q82 0 133 -50.5t51 -123.5t-51 -124.5t-133 -51.5z" />
    <glyph glyph-name="Ccaron" unicode="&#x10c;" horiz-adv-x="1370" 
d="M805 1458q273 0 455 -121l4 -342h-88q-75 369 -361 369q-98 0 -174 -48t-122 -134t-69.5 -198t-23.5 -245q0 -191 46 -339t139.5 -235t222.5 -87q140 0 236.5 101.5t152.5 324.5h94l-33 -395q-190 -129 -487 -129q-342 0 -541 190t-199 512q0 175 58.5 322t159.5 245.5
t237.5 153.5t292.5 55zM1180 1843l-250 -315h-225l-250 315h98l264 -155l264 155h99z" />
    <glyph glyph-name="ccaron" unicode="&#x10d;" horiz-adv-x="997" 
d="M928 1575l-236 -350h-225l-236 350h103l246 -186l245 186h103zM330 641q0 -200 86.5 -317t240.5 -117q181 0 279 143l41 -22q-49 -174 -162 -261t-280 -87q-215 0 -352.5 145t-137.5 387q0 262 150 432t395 170q159 0 257.5 -63.5t98.5 -184.5q0 -51 -24 -89t-60 -54
h-174q8 78 8 108q0 199 -141 199q-103 0 -164 -110t-61 -279z" />
    <glyph glyph-name="Dcaron" unicode="&#x10e;" horiz-adv-x="1572" 
d="M1087 1843l-249 -315h-226l-250 315h99l264 -155l264 155h98zM643 1350h-84v-1117q0 -86 35 -115.5t117 -29.5h28q185 0 297.5 164.5t112.5 447.5q0 193 -54.5 337t-170 228.5t-281.5 84.5zM748 0h-693v78q105 12 130.5 35t25.5 106v1000q0 83 -25.5 106t-130.5 35v78
h650q203 0 360 -54t254.5 -149.5t147 -220t49.5 -273.5q0 -231 -97 -399.5t-269.5 -255t-401.5 -86.5z" />
    <glyph glyph-name="dcaron" unicode="&#x10f;" horiz-adv-x="1271" 
d="M1499 1585l-231 -401h-68l29 420h270v-19zM621 1008q-118 0 -183 -109.5t-65 -294.5q0 -194 71 -313t197 -119q85 0 147 47v555q0 234 -167 234zM788 1395l-118 61v51l395 97h53v-1379q0 -57 13 -77t65 -23l49 -2v-72l-403 -71h-60l6 192q-133 -192 -331 -192
q-185 0 -298.5 138.5t-113.5 377.5q0 144 41 261t112.5 193t168 117t208.5 41q134 0 213 -66v353z" />
    <glyph glyph-name="Dcroat" unicode="&#x110;" horiz-adv-x="1593" 
d="M76 676v112h155v431q0 83 -25.5 106t-129.5 35v78h649q203 0 360 -54t254.5 -149.5t147 -220t49.5 -273.5q0 -231 -97 -399.5t-269.5 -255t-401.5 -86.5h-692v78q104 12 129.5 35t25.5 106v457h-155zM664 1350h-84v-562h272v-112h-272v-443q0 -86 34.5 -115.5
t116.5 -29.5h29q185 0 297 164.5t112 447.5q0 193 -54.5 337t-169.5 228.5t-281 84.5z" />
    <glyph glyph-name="dcroat" unicode="&#x111;" horiz-adv-x="1271" 
d="M788 1395l-118 61v51l395 97h53v-299h127v-95h-127v-985q0 -57 13 -77t65 -23l49 -2v-72l-403 -71h-60l6 192q-133 -192 -331 -192q-185 0 -298.5 138.5t-113.5 377.5q0 144 41 261t112.5 193t168 117t208.5 41q134 0 213 -66v168h-247v95h247v90zM621 1008
q-118 0 -183 -109.5t-65 -294.5q0 -194 71 -313t197 -119q85 0 147 47v555q0 234 -167 234z" />
    <glyph glyph-name="Emacron" unicode="&#x112;" horiz-adv-x="1318" 
d="M401 1550v158h592v-158h-592zM55 0v78q105 12 130.5 35t25.5 106v1000q0 83 -25.5 106t-130.5 35v78h1149l10 -383h-69q-41 91 -71 143t-68.5 89t-83.5 50t-111 13h-252v-557h232q68 0 96.5 41t42.5 147h80v-477h-80q-14 105 -42.5 145.5t-96.5 40.5h-232v-463
q0 -80 40.5 -109.5t135.5 -29.5h101q33 0 59.5 3.5t51.5 14.5t44 21.5t41 35t38 44.5t41 60.5t43 71.5t50 89h80l-63 -428h-1166z" />
    <glyph glyph-name="emacron" unicode="&#x113;" horiz-adv-x="1044" 
d="M571 1114q208 0 320.5 -120.5t112.5 -317.5v-47h-662q-4 -197 88 -312.5t240 -115.5q101 0 175 38.5t132 118.5l35 -20q-41 -166 -157.5 -262t-297.5 -96q-227 0 -369.5 147.5t-142.5 392.5q0 131 41.5 243t113 188.5t167.5 119.5t204 43zM549 1034q-91 0 -142.5 -87
t-60.5 -234h369q0 321 -166 321zM289 1278v158h567v-158h-567z" />
    <glyph glyph-name="Ebreve" unicode="&#x114;" horiz-adv-x="1318" 
d="M696 1520q-141 0 -220 82.5t-79 236.5h84q26 -147 215 -147q191 0 217 147h84q0 -154 -79.5 -236.5t-221.5 -82.5zM55 0v78q105 12 130.5 35t25.5 106v1000q0 83 -25.5 106t-130.5 35v78h1149l10 -383h-69q-41 91 -71 143t-68.5 89t-83.5 50t-111 13h-252v-557h232
q68 0 96.5 41t42.5 147h80v-477h-80q-14 105 -42.5 145.5t-96.5 40.5h-232v-463q0 -80 40.5 -109.5t135.5 -29.5h101q33 0 59.5 3.5t51.5 14.5t44 21.5t41 35t38 44.5t41 60.5t43 71.5t50 89h80l-63 -428h-1166z" />
    <glyph glyph-name="ebreve" unicode="&#x115;" horiz-adv-x="1044" 
d="M571 1114q208 0 320.5 -120.5t112.5 -317.5v-47h-662q-4 -197 88 -312.5t240 -115.5q101 0 175 38.5t132 118.5l35 -20q-41 -166 -157.5 -262t-297.5 -96q-227 0 -369.5 147.5t-142.5 392.5q0 131 41.5 243t113 188.5t167.5 119.5t204 43zM549 1034q-91 0 -142.5 -87
t-60.5 -234h369q0 321 -166 321zM580 1223q-139 0 -213 88.5t-74 251.5h86q16 -164 201 -164q182 0 200 164h86q0 -163 -74 -251.5t-212 -88.5z" />
    <glyph glyph-name="Edotaccent" unicode="&#x116;" horiz-adv-x="1318" 
d="M696 1526q-81 0 -131.5 50.5t-50.5 123.5t50.5 123.5t131.5 50.5q83 0 134 -50.5t51 -123.5t-51 -123.5t-134 -50.5zM55 0v78q105 12 130.5 35t25.5 106v1000q0 83 -25.5 106t-130.5 35v78h1149l10 -383h-69q-41 91 -71 143t-68.5 89t-83.5 50t-111 13h-252v-557h232
q68 0 96.5 41t42.5 147h80v-477h-80q-14 105 -42.5 145.5t-96.5 40.5h-232v-463q0 -80 40.5 -109.5t135.5 -29.5h101q33 0 59.5 3.5t51.5 14.5t44 21.5t41 35t38 44.5t41 60.5t43 71.5t50 89h80l-63 -428h-1166z" />
    <glyph glyph-name="edotaccent" unicode="&#x117;" horiz-adv-x="1044" 
d="M571 1114q208 0 320.5 -120.5t112.5 -317.5v-47h-662q-4 -197 88 -312.5t240 -115.5q101 0 175 38.5t132 118.5l35 -20q-41 -166 -157.5 -262t-297.5 -96q-227 0 -369.5 147.5t-142.5 392.5q0 131 41.5 243t113 188.5t167.5 119.5t204 43zM549 1034q-91 0 -142.5 -87
t-60.5 -234h369q0 321 -166 321zM573 1227q-81 0 -131.5 51.5t-50.5 124.5t50.5 123.5t131.5 50.5q83 0 134 -50.5t51 -123.5t-51.5 -124.5t-133.5 -51.5z" />
    <glyph glyph-name="Eogonek" unicode="&#x118;" horiz-adv-x="1318" 
d="M55 0v78q105 12 130.5 35t25.5 106v1000q0 83 -25.5 106t-130.5 35v78h1149l10 -383h-69q-41 91 -71 143t-68.5 89t-83.5 50t-111 13h-252v-557h232q68 0 96.5 41t42.5 147h80v-477h-80q-14 105 -42.5 145.5t-96.5 40.5h-232v-463q0 -80 40.5 -109.5t135.5 -29.5h101
q33 0 59.5 3.5t51.5 14.5t44 21.5t41 35t38 44.5t41 60.5t43 71.5t50 89h80l-63 -428h-213q-142 -85 -142 -203q0 -46 24.5 -75t70.5 -29q42 0 72.5 12.5t68.5 42.5l31 -35q-59 -74 -123.5 -112.5t-149.5 -38.5q-80 0 -133 47t-53 123q0 159 227 268h-846z" />
    <glyph glyph-name="eogonek" unicode="&#x119;" horiz-adv-x="1044" 
d="M575 1114q205 0 317 -120.5t112 -317.5v-47h-662q-4 -197 88 -312.5t240 -115.5q101 0 175 38.5t132 118.5l35 -20q-58 -228 -260 -324q-174 -79 -174 -207q0 -53 25.5 -83.5t72.5 -30.5q42 0 72.5 12.5t68.5 42.5l31 -35q-59 -74 -123.5 -112.5t-149.5 -38.5
q-81 0 -134.5 46.5t-53.5 123.5q0 144 195 248h-25q-227 0 -369.5 147.5t-142.5 392.5q0 263 153 428.5t377 165.5zM549 1034q-91 0 -142.5 -87t-60.5 -234h369q0 321 -166 321z" />
    <glyph glyph-name="Ecaron" unicode="&#x11a;" horiz-adv-x="1318" 
d="M1059 1843l-250 -315h-225l-250 315h98l264 -155l265 155h98zM55 0v78q105 12 130.5 35t25.5 106v1000q0 83 -25.5 106t-130.5 35v78h1149l10 -383h-69q-41 91 -71 143t-68.5 89t-83.5 50t-111 13h-252v-557h232q68 0 96.5 41t42.5 147h80v-477h-80q-14 105 -42.5 145.5
t-96.5 40.5h-232v-463q0 -80 40.5 -109.5t135.5 -29.5h101q33 0 59.5 3.5t51.5 14.5t44 21.5t41 35t38 44.5t41 60.5t43 71.5t50 89h80l-63 -428h-1166z" />
    <glyph glyph-name="ecaron" unicode="&#x11b;" horiz-adv-x="1044" 
d="M920 1575l-236 -350h-225l-236 350h103l245 -186l246 186h103zM571 1114q208 0 320.5 -120.5t112.5 -317.5v-47h-662q-4 -197 88 -312.5t240 -115.5q101 0 175 38.5t132 118.5l35 -20q-41 -166 -157.5 -262t-297.5 -96q-227 0 -369.5 147.5t-142.5 392.5q0 131 41.5 243
t113 188.5t167.5 119.5t204 43zM549 1034q-91 0 -142.5 -87t-60.5 -234h369q0 321 -166 321z" />
    <glyph glyph-name="Gcircumflex" unicode="&#x11c;" horiz-adv-x="1497" 
d="M993 115v344q0 83 -25.5 106t-129.5 35v78h639v-78q-105 -12 -130.5 -35t-25.5 -106v-340q-216 -139 -539 -139q-172 0 -310.5 54t-228.5 148.5t-138 223t-48 278.5q0 175 59 321.5t161 245t240.5 153t297.5 54.5q277 0 459 -119l6 -344h-90q-76 371 -365 371
q-102 0 -179.5 -48.5t-125 -135t-71 -198t-23.5 -245.5q0 -135 25 -253.5t73 -211.5t126 -146.5t177 -53.5q104 0 166 41zM942 1843l250 -317h-98l-265 155l-264 -155h-98l250 317h225z" />
    <glyph glyph-name="gcircumflex" unicode="&#x11d;" horiz-adv-x="1107" 
d="M516 387q-117 0 -215 33q-65 -61 -65 -113q0 -30 17.5 -47.5t49.5 -17.5h432q188 0 282.5 -76t94.5 -217q0 -127 -79 -220t-216 -139.5t-315 -46.5q-236 0 -370 66t-134 188q0 72 54 116t136 64q-62 24 -96.5 76.5t-34.5 118.5q0 154 197 268q-90 41 -142.5 114.5
t-52.5 178.5q0 176 131 278.5t338 102.5q95 0 187 -29l356 9v-127h-88l-135 6q58 -38 93.5 -100t35.5 -136q0 -162 -128.5 -256t-332.5 -94zM741 -59h-516q-28 -32 -28 -99q0 -98 85 -154.5t230 -56.5q76 0 140.5 11.5t116.5 35t82 63.5t30 93q0 57 -35 82t-105 25zM528 461
q142 0 142 276q0 128 -40 213.5t-116 85.5q-143 0 -143 -270q0 -132 40.5 -218.5t116.5 -86.5zM666 1569l235 -350h-102l-246 186l-246 -186h-102l235 350h226z" />
    <glyph glyph-name="Gbreve" unicode="&#x11e;" horiz-adv-x="1497" 
d="M829 1520q-141 0 -220 82.5t-79 236.5h84q26 -147 215 -147q192 0 218 147h83q0 -154 -79.5 -236.5t-221.5 -82.5zM993 115v344q0 83 -25.5 106t-129.5 35v78h639v-78q-105 -12 -130.5 -35t-25.5 -106v-340q-216 -139 -539 -139q-172 0 -310.5 54t-228.5 148.5t-138 223
t-48 278.5q0 175 59 321.5t161 245t240.5 153t297.5 54.5q277 0 459 -119l6 -344h-90q-76 371 -365 371q-102 0 -179.5 -48.5t-125 -135t-71 -198t-23.5 -245.5q0 -135 25 -253.5t73 -211.5t126 -146.5t177 -53.5q104 0 166 41z" />
    <glyph glyph-name="gbreve" unicode="&#x11f;" horiz-adv-x="1107" 
d="M516 387q-117 0 -215 33q-65 -61 -65 -113q0 -30 17.5 -47.5t49.5 -17.5h432q188 0 282.5 -76t94.5 -217q0 -127 -79 -220t-216 -139.5t-315 -46.5q-236 0 -370 66t-134 188q0 72 54 116t136 64q-62 24 -96.5 76.5t-34.5 118.5q0 154 197 268q-90 41 -142.5 114.5
t-52.5 178.5q0 176 131 278.5t338 102.5q95 0 187 -29l356 9v-127h-88l-135 6q58 -38 93.5 -100t35.5 -136q0 -162 -128.5 -256t-332.5 -94zM741 -59h-516q-28 -32 -28 -99q0 -98 85 -154.5t230 -56.5q76 0 140.5 11.5t116.5 35t82 63.5t30 93q0 57 -35 82t-105 25zM528 461
q142 0 142 276q0 128 -40 213.5t-116 85.5q-143 0 -143 -270q0 -132 40.5 -218.5t116.5 -86.5zM553 1223q-139 0 -213 88.5t-74 251.5h86q16 -164 201 -164q183 0 201 164h86q0 -163 -74.5 -251.5t-212.5 -88.5z" />
    <glyph glyph-name="Gdotaccent" unicode="&#x120;" horiz-adv-x="1497" 
d="M829 1526q-81 0 -131.5 50.5t-50.5 123.5t50.5 123.5t131.5 50.5q83 0 134 -50.5t51 -123.5t-51 -123.5t-134 -50.5zM993 115v344q0 83 -25.5 106t-129.5 35v78h639v-78q-105 -12 -130.5 -35t-25.5 -106v-340q-216 -139 -539 -139q-172 0 -310.5 54t-228.5 148.5
t-138 223t-48 278.5q0 175 59 321.5t161 245t240.5 153t297.5 54.5q277 0 459 -119l6 -344h-90q-76 371 -365 371q-102 0 -179.5 -48.5t-125 -135t-71 -198t-23.5 -245.5q0 -135 25 -253.5t73 -211.5t126 -146.5t177 -53.5q104 0 166 41z" />
    <glyph glyph-name="gdotaccent" unicode="&#x121;" horiz-adv-x="1107" 
d="M516 387q-117 0 -215 33q-65 -61 -65 -113q0 -30 17.5 -47.5t49.5 -17.5h432q188 0 282.5 -76t94.5 -217q0 -127 -79 -220t-216 -139.5t-315 -46.5q-236 0 -370 66t-134 188q0 72 54 116t136 64q-62 24 -96.5 76.5t-34.5 118.5q0 154 197 268q-90 41 -142.5 114.5
t-52.5 178.5q0 176 131 278.5t338 102.5q95 0 187 -29l356 9v-127h-88l-135 6q58 -38 93.5 -100t35.5 -136q0 -162 -128.5 -256t-332.5 -94zM741 -59h-516q-28 -32 -28 -99q0 -98 85 -154.5t230 -56.5q76 0 140.5 11.5t116.5 35t82 63.5t30 93q0 57 -35 82t-105 25zM528 461
q142 0 142 276q0 128 -40 213.5t-116 85.5q-143 0 -143 -270q0 -132 40.5 -218.5t116.5 -86.5zM553 1227q-81 0 -131.5 51.5t-50.5 124.5t50.5 123.5t131.5 50.5q82 0 133 -50.5t51 -123.5t-51 -124.5t-133 -51.5z" />
    <glyph glyph-name="Gcommaaccent" unicode="&#x122;" horiz-adv-x="1497" 
d="M864 -315h-106q-94 22 -94 114q0 55 41.5 89t111.5 34q83 0 131.5 -50.5t48.5 -129.5q0 -106 -78.5 -170t-238.5 -64v68q87 0 134.5 32t49.5 77zM993 115v344q0 83 -25.5 106t-129.5 35v78h639v-78q-105 -12 -130.5 -35t-25.5 -106v-340q-216 -139 -539 -139
q-172 0 -310.5 54t-228.5 148.5t-138 223t-48 278.5q0 175 59 321.5t161 245t240.5 153t297.5 54.5q277 0 459 -119l6 -344h-90q-76 371 -365 371q-102 0 -179.5 -48.5t-125 -135t-71 -198t-23.5 -245.5q0 -135 25 -253.5t73 -211.5t126 -146.5t177 -53.5q104 0 166 41z" />
    <glyph glyph-name="gcommaaccent" unicode="&#x123;" horiz-adv-x="1107" 
d="M516 387q-117 0 -215 33q-65 -61 -65 -113q0 -30 17.5 -47.5t49.5 -17.5h432q188 0 282.5 -76t94.5 -217q0 -127 -79 -220t-216 -139.5t-315 -46.5q-236 0 -370 66t-134 188q0 72 54 116t136 64q-62 24 -96.5 76.5t-34.5 118.5q0 154 197 268q-90 41 -142.5 114.5
t-52.5 178.5q0 176 131 278.5t338 102.5q95 0 187 -29l356 9v-127h-88l-135 6q58 -38 93.5 -100t35.5 -136q0 -162 -128.5 -256t-332.5 -94zM741 -59h-516q-28 -32 -28 -99q0 -98 85 -154.5t230 -56.5q76 0 140.5 11.5t116.5 35t82 63.5t30 93q0 57 -35 82t-105 25zM528 461
q142 0 142 276q0 128 -40 213.5t-116 85.5q-143 0 -143 -270q0 -132 40.5 -218.5t116.5 -86.5zM520 1458h107q94 -22 94 -115q0 -54 -42 -88t-112 -34q-83 0 -131.5 50.5t-48.5 129.5q0 106 79 169.5t239 63.5v-67q-87 0 -135 -31.5t-50 -77.5z" />
    <glyph glyph-name="Hcircumflex" unicode="&#x124;" horiz-adv-x="1689" 
d="M559 1219v-431h571v431q0 83 -25.5 106t-131.5 35v78h661v-78q-104 -12 -129.5 -35t-25.5 -106v-1000q0 -83 25.5 -106t129.5 -35v-78h-661v78q106 12 131.5 35t25.5 106v457h-571v-457q0 -83 26 -106t132 -35v-78h-662v78q105 12 130.5 35t25.5 106v1000q0 83 -25.5 106
t-130.5 35v78h662v-78q-106 -12 -132 -35t-26 -106zM956 1843l250 -317h-98l-264 155l-264 -155h-99l250 317h225z" />
    <glyph glyph-name="hcircumflex" unicode="&#x125;" horiz-adv-x="1308" 
d="M158 158v1237l-117 61v51l393 97h53v-693q166 203 379 203q147 0 224 -85t77 -251v-620q0 -48 25 -63.5t96 -20.5v-74h-567v74q70 5 93.5 20t23.5 64v598q0 82 -34.5 122t-113.5 40q-98 0 -203 -66v-694q0 -49 23.5 -64t93.5 -20v-74h-567v74q71 5 96 20.5t25 63.5z
M768 1962l250 -317h-98l-265 155l-264 -155h-98l250 317h225z" />
    <glyph glyph-name="Hbar" unicode="&#x126;" horiz-adv-x="1730" 
d="M580 1219v-99h571v99q0 83 -26 106t-132 35v78h662v-78q-105 -12 -130.5 -35t-25.5 -106v-99h156v-112h-156v-789q0 -83 25.5 -106t130.5 -35v-78h-662v78q106 12 132 35t26 106v457h-571v-457q0 -83 25.5 -106t131.5 -35v-78h-661v78q104 12 129.5 35t25.5 106v789h-155
v112h155v99q0 83 -25.5 106t-129.5 35v78h661v-78q-106 -12 -131.5 -35t-25.5 -106zM580 788h571v220h-571v-220z" />
    <glyph glyph-name="hbar" unicode="&#x127;" horiz-adv-x="1308" 
d="M158 158v1052h-117v95h117v90l-117 61v51l393 97h53v-299h256v-95h-256v-299q166 203 379 203q147 0 224 -85t77 -251v-620q0 -48 25 -63.5t96 -20.5v-74h-567v74q70 5 93.5 20t23.5 64v598q0 82 -34.5 122t-113.5 40q-98 0 -203 -66v-694q0 -49 23.5 -64t93.5 -20v-74
h-567v74q71 5 96 20.5t25 63.5z" />
    <glyph glyph-name="Itilde" unicode="&#x128;" horiz-adv-x="772" 
d="M559 1219v-1000q0 -83 26 -106t132 -35v-78h-662v78q105 12 130.5 35t25.5 106v1000q0 83 -25.5 106t-130.5 35v78h662v-78q-106 -12 -132 -35t-26 -106zM524 1526q-41 0 -82 19t-69 42.5t-62.5 42.5t-62.5 19q-39 0 -69.5 -28t-65.5 -87l-62 35q56 142 105.5 204
t122.5 62q41 0 82 -19t69 -42.5t62.5 -42.5t62.5 -19q73 0 135 115l62 -35q-54 -141 -104.5 -203.5t-123.5 -62.5z" />
    <glyph glyph-name="itilde" unicode="&#x129;" horiz-adv-x="647" 
d="M440 1233q-37 0 -74 19t-62.5 41.5t-57 41.5t-58.5 19q-40 0 -67.5 -26.5t-59.5 -86.5l-65 35q53 144 100 205t119 61q38 0 76 -18.5t63.5 -41t56 -41t56.5 -18.5q40 0 67 26t60 85l63 -35q-51 -143 -97 -204.5t-120 -61.5zM496 1114v-956q0 -49 25 -64t95 -20v-74h-571
v74q71 5 96 20.5t25 63.5v723l-119 71v47l393 115h56z" />
    <glyph glyph-name="Imacron" unicode="&#x12a;" horiz-adv-x="772" 
d="M559 1219v-1000q0 -83 26 -106t132 -35v-78h-662v78q105 12 130.5 35t25.5 106v1000q0 83 -25.5 106t-130.5 35v78h662v-78q-106 -12 -132 -35t-26 -106zM90 1550v158h592v-158h-592z" />
    <glyph glyph-name="imacron" unicode="&#x12b;" horiz-adv-x="647" 
d="M496 1114v-956q0 -49 25 -64t95 -20v-74h-571v74q71 5 96 20.5t25 63.5v723l-119 71v47l393 115h56zM68 1278v156h528v-156h-528z" />
    <glyph glyph-name="Ibreve" unicode="&#x12c;" horiz-adv-x="772" 
d="M559 1219v-1000q0 -83 26 -106t132 -35v-78h-662v78q105 12 130.5 35t25.5 106v1000q0 83 -25.5 106t-130.5 35v78h662v-78q-106 -12 -132 -35t-26 -106zM385 1520q-136 0 -212.5 82.5t-76.5 236.5h82q23 -147 207 -147q185 0 211 147h80q0 -154 -76.5 -236.5
t-214.5 -82.5z" />
    <glyph glyph-name="ibreve" unicode="&#x12d;" horiz-adv-x="647" 
d="M496 1114v-956q0 -49 25 -64t95 -20v-74h-571v74q71 5 96 20.5t25 63.5v723l-119 71v47l393 115h56zM334 1223q-134 0 -205.5 88.5t-71.5 251.5h84q13 -164 193 -164q176 0 194 164h84q0 -163 -72.5 -251.5t-205.5 -88.5z" />
    <glyph glyph-name="Iogonek" unicode="&#x12e;" horiz-adv-x="772" 
d="M559 1219v-1000q0 -83 26 -106t132 -35v-78h-225q-142 -85 -142 -203q0 -46 24 -75t70 -29q42 0 73 12.5t69 42.5l30 -35q-59 -74 -123 -112.5t-149 -38.5q-80 0 -133 47t-53 123q0 159 227 268h-330v78q105 12 130.5 35t25.5 106v1000q0 83 -25.5 106t-130.5 35v78h662
v-78q-106 -12 -132 -35t-26 -106z" />
    <glyph glyph-name="iogonek" unicode="&#x12f;" horiz-adv-x="647" 
d="M496 1114v-956q0 -49 25 -64t95 -20v-74h-186q-141 -84 -141 -203q0 -46 24 -75t70 -29q42 0 72.5 12.5t68.5 42.5l31 -35q-59 -74 -123 -112.5t-149 -38.5q-80 0 -133.5 47t-53.5 123q0 158 228 268h-279v74q71 5 96 20.5t25 63.5v723l-119 71v47l393 115h56zM330 1223
q-81 0 -132 50.5t-51 123.5t51 124.5t132 51.5t132.5 -51.5t51.5 -124.5q0 -72 -51.5 -123t-132.5 -51z" />
    <glyph glyph-name="Idotaccent" unicode="&#x130;" horiz-adv-x="772" 
d="M559 1219v-1000q0 -83 26 -106t132 -35v-78h-662v78q105 12 130.5 35t25.5 106v1000q0 83 -25.5 106t-130.5 35v78h662v-78q-106 -12 -132 -35t-26 -106zM385 1526q-81 0 -131.5 50.5t-50.5 123.5t50.5 123.5t131.5 50.5q82 0 133 -50.5t51 -123.5t-51 -123.5t-133 -50.5
z" />
    <glyph glyph-name="dotlessi" unicode="&#x131;" horiz-adv-x="647" 
d="M496 1114v-956q0 -49 25 -64t95 -20v-74h-571v74q71 5 96 20.5t25 63.5v723l-119 71v47l393 115h56z" />
    <glyph glyph-name="IJ" unicode="&#x132;" horiz-adv-x="1886" 
d="M559 1219v-1000q0 -83 26 -106t132 -35v-78h-662v78q105 12 130.5 35t25.5 106v1000q0 83 -25.5 106t-130.5 35v78h662v-78q-106 -12 -132 -35t-26 -106zM1348 344v875q0 83 -25.5 106t-130.5 35v78h661v-78q-106 -12 -131.5 -35t-25.5 -106v-770q0 -238 -131.5 -353.5
t-380.5 -115.5q-214 0 -330.5 76t-116.5 218q0 55 24 99t66 71h228q-13 -73 -13 -143q0 -112 37 -177t115 -65q85 0 119.5 69.5t34.5 215.5z" />
    <glyph glyph-name="ij" unicode="&#x133;" horiz-adv-x="1234" 
d="M496 1114v-956q0 -49 25 -64t95 -20v-74h-571v74q71 5 96 20.5t25 63.5v723l-119 71v47l393 115h56zM330 1223q-81 0 -132 50.5t-51 123.5t51 124.5t132 51.5t132.5 -51.5t51.5 -124.5q0 -72 -51.5 -123t-132.5 -51zM784 881l-118 71v47l393 115h55v-909q0 -156 -28 -241
t-93 -159q-68 -76 -141 -129.5t-186 -117.5l-33 36l84 138q31 50 46.5 117.5t18 120.5t2.5 155v756zM944 1223q-81 0 -131.5 50.5t-50.5 123.5t50.5 124.5t131.5 51.5t132.5 -51.5t51.5 -124.5q0 -72 -51.5 -123t-132.5 -51z" />
    <glyph glyph-name="Jcircumflex" unicode="&#x134;" horiz-adv-x="1138" 
d="M600 344v875q0 83 -25.5 106t-130.5 35v78h662v-78q-106 -12 -132 -35t-26 -106v-770q0 -238 -131.5 -353.5t-380.5 -115.5q-214 0 -330 76t-116 218q0 55 24 99t66 71h227q-12 -68 -12 -143q0 -112 36.5 -177t114.5 -65q85 0 119.5 69.5t34.5 215.5zM887 1843l250 -317
h-99l-264 155l-264 -155h-98l250 317h225z" />
    <glyph glyph-name="jcircumflex" unicode="&#x135;" horiz-adv-x="587" 
d="M137 881l-119 71v47l394 115h55v-909q0 -156 -28 -241t-93 -159q-68 -76 -141.5 -129t-186.5 -118l-32 36l84 138q31 50 46.5 117.5t18 120.5t2.5 155v756zM391 1569l213 -348h-92l-223 186l-223 -186h-93l213 348h205z" />
    <glyph glyph-name="Kcommaaccent" unicode="&#x136;" horiz-adv-x="1517" 
d="M819 -315h-106q-95 22 -95 114q0 55 42 89t112 34q83 0 131.5 -50.5t48.5 -129.5q0 -106 -78.5 -170t-238.5 -64v68q87 0 134.5 32t49.5 77zM877 858l434 -637q58 -79 97.5 -108t109.5 -35v-78h-433q-88 74 -182 221l-321 481l489 510q53 56 53 93q0 26 -31 38.5
t-116 16.5v78h473v-78q-65 -4 -100.5 -21.5t-77.5 -62.5zM559 1219v-1000q0 -83 26 -106t132 -35v-78h-662v78q105 12 130.5 35t25.5 106v1000q0 83 -25.5 106t-130.5 35v78h662v-78q-106 -12 -132 -35t-26 -106z" />
    <glyph glyph-name="kcommaaccent" unicode="&#x137;" horiz-adv-x="1251" 
d="M690 -315h-106q-95 22 -95 114q0 55 42 89t112 34q83 0 131.5 -50.5t48.5 -129.5q0 -106 -78.5 -170t-238.5 -64v68q87 0 134.5 32t49.5 77zM506 582l317 288q64 58 64 93q0 28 -26 38.5t-101 18.5v74h448v-74q-60 -10 -96 -25t-72 -51l-254 -237l465 -656v-51h-346z
M160 158v1237l-119 61v51l393 97h53v-1446q0 -49 25.5 -64t97.5 -20v-74h-573v74q72 5 97.5 20t25.5 64z" />
    <glyph glyph-name="kgreenlandic" unicode="&#x138;" horiz-adv-x="1257" 
d="M512 582l317 288q64 56 64 93q0 28 -26 38.5t-101 18.5v74h448v-74q-59 -10 -95 -25t-72 -51l-254 -237l464 -656v-51h-346zM166 158v723l-119 71v47l395 115h54v-956q0 -49 25 -64t95 -20v-74h-571v74q71 5 96 20.5t25 63.5z" />
    <glyph glyph-name="Lacute" unicode="&#x139;" horiz-adv-x="1286" 
d="M453 1831h329v-16l-338 -289h-94zM559 1219v-992q0 -81 38.5 -110t131.5 -29h74q105 0 179 76t204 301h78l-74 -465h-1135v78q105 12 130.5 35t25.5 106v1000q0 83 -25.5 106t-130.5 35v78h662v-78q-106 -12 -132 -35t-26 -106z" />
    <glyph glyph-name="lacute" unicode="&#x13a;" horiz-adv-x="641" 
d="M328 1944h329v-17l-338 -289h-94zM487 1604v-1446q0 -49 25.5 -64t97.5 -20v-74h-573v74q72 5 97.5 20t25.5 64v1237l-119 61v51l393 97h53z" />
    <glyph glyph-name="Lcommaaccent" unicode="&#x13b;" horiz-adv-x="1286" 
d="M692 -315h-106q-94 22 -94 114q0 55 41.5 89t111.5 34q83 0 131.5 -50.5t48.5 -129.5q0 -106 -78.5 -170t-238.5 -64v68q87 0 134.5 32t49.5 77zM559 1219v-992q0 -81 38.5 -110t131.5 -29h74q105 0 179 76t204 301h78l-74 -465h-1135v78q105 12 130.5 35t25.5 106v1000
q0 83 -25.5 106t-130.5 35v78h662v-78q-106 -12 -132 -35t-26 -106z" />
    <glyph glyph-name="lcommaaccent" unicode="&#x13c;" horiz-adv-x="641" 
d="M358 -315h-106q-94 22 -94 114q0 55 41.5 89t111.5 34q83 0 132 -51t49 -129q0 -106 -79 -170t-239 -64v68q87 0 134.5 32t49.5 77zM487 1604v-1446q0 -49 25.5 -64t97.5 -20v-74h-573v74q72 5 97.5 20t25.5 64v1237l-119 61v51l393 97h53z" />
    <glyph glyph-name="Lcaron" unicode="&#x13d;" horiz-adv-x="1286" 
d="M1147 1419l-232 -401h-67l29 420h270v-19zM559 1219v-992q0 -81 38.5 -110t131.5 -29h74q105 0 179 76t204 301h78l-74 -465h-1135v78q105 12 130.5 35t25.5 106v1000q0 83 -25.5 106t-130.5 35v78h662v-78q-106 -12 -132 -35t-26 -106z" />
    <glyph glyph-name="lcaron" unicode="&#x13e;" horiz-adv-x="641" 
d="M870 1585l-231 -401h-68l29 420h270v-19zM487 1604v-1446q0 -49 25.5 -64t97.5 -20v-74h-573v74q72 5 97.5 20t25.5 64v1237l-119 61v51l393 97h53z" />
    <glyph glyph-name="Ldot" unicode="&#x13f;" horiz-adv-x="1286" 
d="M559 1219v-992q0 -81 38.5 -110t131.5 -29h74q105 0 179 76t204 301h78l-74 -465h-1135v78q105 12 130.5 35t25.5 106v1000q0 83 -25.5 106t-130.5 35v78h662v-78q-106 -12 -132 -35t-26 -106zM877 821q0 81 53.5 134t132.5 53q78 0 132 -53t54 -134t-54 -134.5
t-132 -53.5q-79 0 -132.5 53.5t-53.5 134.5z" />
    <glyph glyph-name="ldot" unicode="&#x140;" horiz-adv-x="856" 
d="M487 1604v-1446q0 -49 25.5 -64t97.5 -20v-74h-573v74q72 5 97.5 20t25.5 64v1237l-119 61v51l393 97h53zM563 784q0 77 53 130t129 53t129.5 -53t53.5 -130q0 -78 -53.5 -130t-129.5 -52t-129 52t-53 130z" />
    <glyph glyph-name="Lslash" unicode="&#x141;" horiz-adv-x="1286" 
d="M559 1219v-424l295 112v-112l-295 -111v-457q0 -81 38.5 -110t131.5 -29h74q105 0 179 76t204 301h78l-74 -465h-1135v78q105 12 130.5 35t25.5 106v356l-148 -55v111l148 55v533q0 83 -25.5 106t-130.5 35v78h662v-78q-106 -12 -132 -35t-26 -106z" />
    <glyph glyph-name="lslash" unicode="&#x142;" horiz-adv-x="679" 
d="M500 1604v-600l166 88v-109l-166 -90v-735q0 -49 25.5 -64t97.5 -20v-74h-574v74q72 5 97.5 20t25.5 64v602l-154 -78v109l154 79v525l-119 61v51l393 97h54z" />
    <glyph glyph-name="Nacute" unicode="&#x143;" horiz-adv-x="1536" 
d="M795 1831h329v-16l-338 -289h-94zM1221 555v664q0 80 -38 105t-167 36v78h485v-78q-106 -12 -132 -35.5t-26 -105.5v-1223h-122l-885 1110v-887q0 -80 38 -105t167 -36v-78h-484v78q104 12 130 35.5t26 105.5v1012q-46 72 -76.5 98.5t-81.5 30.5v78h465z" />
    <glyph glyph-name="nacute" unicode="&#x144;" horiz-adv-x="1316" 
d="M694 1565h326v-17l-346 -321h-86zM846 158v598q0 82 -34.5 122t-113.5 40q-100 0 -202 -66v-694q0 -49 23 -64t93 -20v-74h-567v74q71 5 96 20.5t25 63.5v723l-119 71v47l395 115h62l-8 -203q166 203 378 203q147 0 224.5 -84t77.5 -250v-622q0 -49 25 -64t95 -20v-74
h-567v74q70 5 93.5 20t23.5 64z" />
    <glyph glyph-name="Ncommaaccent" unicode="&#x145;" horiz-adv-x="1536" 
d="M834 -315h-107q-94 22 -94 114q0 55 41.5 89t111.5 34q83 0 132 -51t49 -129q0 -106 -79 -170t-239 -64v68q87 0 135 32t50 77zM1221 555v664q0 80 -38 105t-167 36v78h485v-78q-106 -12 -132 -35.5t-26 -105.5v-1223h-122l-885 1110v-887q0 -80 38 -105t167 -36v-78
h-484v78q104 12 130 35.5t26 105.5v1012q-46 72 -76.5 98.5t-81.5 30.5v78h465z" />
    <glyph glyph-name="ncommaaccent" unicode="&#x146;" horiz-adv-x="1316" 
d="M723 -315h-107q-94 22 -94 114q0 55 42 89t112 34q83 0 131.5 -50.5t48.5 -129.5q0 -106 -78.5 -170t-238.5 -64v68q87 0 134.5 32t49.5 77zM846 158v598q0 82 -34.5 122t-113.5 40q-100 0 -202 -66v-694q0 -49 23 -64t93 -20v-74h-567v74q71 5 96 20.5t25 63.5v723
l-119 71v47l395 115h62l-8 -203q166 203 378 203q147 0 224.5 -84t77.5 -250v-622q0 -49 25 -64t95 -20v-74h-567v74q70 5 93.5 20t23.5 64z" />
    <glyph glyph-name="Ncaron" unicode="&#x147;" horiz-adv-x="1536" 
d="M1161 1843l-250 -315h-225l-250 315h99l264 -155l264 155h98zM1221 555v664q0 80 -38 105t-167 36v78h485v-78q-106 -12 -132 -35.5t-26 -105.5v-1223h-122l-885 1110v-887q0 -80 38 -105t167 -36v-78h-484v78q104 12 130 35.5t26 105.5v1012q-46 72 -76.5 98.5
t-81.5 30.5v78h465z" />
    <glyph glyph-name="ncaron" unicode="&#x148;" horiz-adv-x="1316" 
d="M1036 1575l-235 -350h-226l-235 350h102l246 -186l246 186h102zM846 158v598q0 82 -34.5 122t-113.5 40q-100 0 -202 -66v-694q0 -49 23 -64t93 -20v-74h-567v74q71 5 96 20.5t25 63.5v723l-119 71v47l395 115h62l-8 -203q166 203 378 203q147 0 224.5 -84t77.5 -250
v-622q0 -49 25 -64t95 -20v-74h-567v74q70 5 93.5 20t23.5 64z" />
    <glyph glyph-name="Eng" unicode="&#x14a;" horiz-adv-x="1536" 
d="M1094 158l-758 948v-887q0 -80 38 -105t167 -36v-78h-484v78q104 12 130 35.5t26 105.5v1012q-46 72 -76.5 98.5t-81.5 30.5v78h467l699 -883v664q0 80 -38 105t-167 36v78h485v-78q-106 -12 -132 -35.5t-26 -105.5v-1014q0 -155 -23.5 -238.5t-84.5 -156.5
q-65 -80 -130 -128.5t-173 -105.5l-33 37l76 104q68 94 93.5 199t25.5 242z" />
    <glyph glyph-name="eng" unicode="&#x14b;" horiz-adv-x="1296" 
d="M846 125v631q0 82 -34.5 122t-113.5 40q-100 0 -202 -66v-694q0 -49 23 -64t93 -20v-74h-567v74q71 5 96 20.5t25 63.5v723l-119 71v47l395 115h62l-8 -203q166 203 378 203q147 0 224.5 -84t77.5 -250v-575q0 -156 -28 -241t-93 -159q-69 -76 -142.5 -130t-185.5 -117
l-33 36l84 138q45 72 56.5 158t11.5 235z" />
    <glyph glyph-name="Omacron" unicode="&#x14c;" horiz-adv-x="1503" 
d="M461 1550v158h592v-158h-592zM762 72q81 0 142.5 53t98 143t54.5 199.5t18 232.5q0 137 -19 254t-58 211t-105 147.5t-152 53.5q-81 0 -143 -53t-98 -143.5t-54 -199.5t-18 -233q0 -137 19 -254t58 -210.5t105 -147t152 -53.5zM735 -20q-161 0 -291.5 57.5t-214 155.5
t-128 225.5t-44.5 271.5q0 173 53.5 318t148 243t225 152.5t282.5 54.5q162 0 293 -57.5t214.5 -156t128 -225.5t44.5 -271q0 -173 -54 -318t-148.5 -243t-225.5 -152.5t-283 -54.5z" />
    <glyph glyph-name="omacron" unicode="&#x14d;" horiz-adv-x="1187" 
d="M317 1278v158h568v-158h-568zM602 59q193 0 193 430q0 165 -20.5 284t-68 190t-120.5 71q-193 0 -193 -430q0 -165 20.5 -284t68 -190t120.5 -71zM592 -20q-246 0 -396.5 149t-150.5 395q0 259 155.5 424.5t395.5 165.5q246 0 397.5 -149.5t151.5 -395.5
q0 -258 -156.5 -423.5t-396.5 -165.5z" />
    <glyph glyph-name="Obreve" unicode="&#x14e;" horiz-adv-x="1503" 
d="M756 1520q-141 0 -220 82.5t-79 236.5h84q26 -147 215 -147q191 0 217 147h84q0 -154 -79.5 -236.5t-221.5 -82.5zM762 72q81 0 142.5 53t98 143t54.5 199.5t18 232.5q0 137 -19 254t-58 211t-105 147.5t-152 53.5q-81 0 -143 -53t-98 -143.5t-54 -199.5t-18 -233
q0 -137 19 -254t58 -210.5t105 -147t152 -53.5zM735 -20q-161 0 -291.5 57.5t-214 155.5t-128 225.5t-44.5 271.5q0 173 53.5 318t148 243t225 152.5t282.5 54.5q162 0 293 -57.5t214.5 -156t128 -225.5t44.5 -271q0 -173 -54 -318t-148.5 -243t-225.5 -152.5t-283 -54.5z
" />
    <glyph glyph-name="obreve" unicode="&#x14f;" horiz-adv-x="1187" 
d="M602 59q193 0 193 430q0 165 -20.5 284t-68 190t-120.5 71q-193 0 -193 -430q0 -165 20.5 -284t68 -190t120.5 -71zM592 -20q-246 0 -396.5 149t-150.5 395q0 259 155.5 424.5t395.5 165.5q246 0 397.5 -149.5t151.5 -395.5q0 -258 -156.5 -423.5t-396.5 -165.5z
M600 1223q-139 0 -213 88.5t-74 251.5h86q16 -164 201 -164q183 0 201 164h86q0 -163 -74.5 -251.5t-212.5 -88.5z" />
    <glyph glyph-name="Ohungarumlaut" unicode="&#x150;" horiz-adv-x="1503" 
d="M762 72q81 0 142.5 53t98 143t54.5 199.5t18 232.5q0 137 -19 254t-58 211t-105 147.5t-152 53.5q-81 0 -143 -53t-98 -143.5t-54 -199.5t-18 -233q0 -137 19 -254t58 -210.5t105 -147t152 -53.5zM735 -20q-161 0 -291.5 57.5t-214 155.5t-128 225.5t-44.5 271.5
q0 173 53.5 318t148 243t225 152.5t282.5 54.5q162 0 293 -57.5t214.5 -156t128 -225.5t44.5 -271q0 -173 -54 -318t-148.5 -243t-225.5 -152.5t-283 -54.5zM639 1831h279v-16l-295 -289h-93zM987 1831h281v-16l-297 -289h-92z" />
    <glyph glyph-name="ohungarumlaut" unicode="&#x151;" horiz-adv-x="1187" 
d="M461 1565h278v-17l-297 -321h-90zM809 1565h281v-17l-299 -321h-91zM602 59q193 0 193 430q0 165 -20.5 284t-68 190t-120.5 71q-193 0 -193 -430q0 -165 20.5 -284t68 -190t120.5 -71zM592 -20q-246 0 -396.5 149t-150.5 395q0 259 155.5 424.5t395.5 165.5
q246 0 397.5 -149.5t151.5 -395.5q0 -258 -156.5 -423.5t-396.5 -165.5z" />
    <glyph glyph-name="OE" unicode="&#x152;" horiz-adv-x="2117" 
d="M1010 1350h-101q-223 0 -355 -164.5t-132 -448.5q0 -192 58.5 -336.5t179 -228.5t290.5 -84h60v1262zM2017 0h-1126q-166 0 -303.5 35t-235 98t-164.5 150t-99 191t-32 222q0 231 104.5 399.5t291 255.5t432.5 87h1126v-383h-67q-41 91 -71 143t-69 89t-84 50t-112 13
h-250v-557h231q67 0 95.5 41.5t44.5 146.5h79v-477h-79q-16 105 -44.5 145.5t-95.5 40.5h-231v-463q0 -80 40.5 -109.5t133.5 -29.5h102q33 0 59.5 3.5t51.5 14t44 21.5t41 35.5t38.5 45t40.5 60t42.5 72t49.5 88.5h82z" />
    <glyph glyph-name="oe" unicode="&#x153;" horiz-adv-x="1798" 
d="M598 1114q111 0 210.5 -44t168.5 -120q151 164 352 164q205 0 316.5 -120.5t111.5 -317.5v-47h-661q-4 -197 87.5 -312.5t239.5 -115.5q101 0 175.5 39t132.5 118l34 -20q-41 -166 -157 -262t-297 -96q-105 0 -198 42.5t-161 116.5q-71 -74 -164.5 -116.5t-195.5 -42.5
q-246 0 -396.5 149t-150.5 395q0 259 155.5 424.5t397.5 165.5zM602 59q193 0 193 430q0 165 -20.5 284t-68 190t-118.5 71q-193 0 -193 -430q0 -165 20.5 -284t68 -190t118.5 -71zM1300 1034q-89 0 -140 -87t-60 -234h368q0 321 -168 321z" />
    <glyph glyph-name="Racute" unicode="&#x154;" horiz-adv-x="1509" 
d="M637 1346h-78v-646h82q149 0 228 87t79 245q0 145 -80.5 229.5t-230.5 84.5zM559 608v-389q0 -83 26 -106t132 -35v-78h-662v78q105 12 130.5 35t25.5 106v1000q0 83 -25.5 106t-130.5 35v78h701q251 0 396.5 -109.5t145.5 -294.5q0 -78 -28 -143.5t-75.5 -110
t-101 -74.5t-114.5 -47l297 -413q68 -97 114 -131t119 -37v-78h-426q-77 56 -172 209l-258 399h-94zM717 1831h330v-16l-338 -289h-95z" />
    <glyph glyph-name="racute" unicode="&#x155;" horiz-adv-x="886" 
d="M522 1565h326v-17l-346 -321h-86zM496 735v-553q0 -61 34 -79.5t134 -28.5v-74h-619v74q71 5 96 20.5t25 63.5v723l-119 71v47l395 115h62l-8 -309q68 176 127.5 242.5t152.5 66.5q64 0 96 -35v-250h-43q-117 0 -191.5 -17t-141.5 -77z" />
    <glyph glyph-name="Rcommaaccent" unicode="&#x156;" horiz-adv-x="1509" 
d="M811 -315h-106q-95 22 -95 114q0 55 42 89t112 34q83 0 131.5 -50.5t48.5 -129.5q0 -106 -78.5 -170t-238.5 -64v68q87 0 134.5 32t49.5 77zM637 1346h-78v-646h82q149 0 228 87t79 245q0 145 -80.5 229.5t-230.5 84.5zM559 608v-389q0 -83 26 -106t132 -35v-78h-662v78
q105 12 130.5 35t25.5 106v1000q0 83 -25.5 106t-130.5 35v78h701q251 0 396.5 -109.5t145.5 -294.5q0 -78 -28 -143.5t-75.5 -110t-101 -74.5t-114.5 -47l297 -413q68 -97 114 -131t119 -37v-78h-426q-77 56 -172 209l-258 399h-94z" />
    <glyph glyph-name="rcommaaccent" unicode="&#x157;" horiz-adv-x="886" 
d="M383 -315h-107q-94 22 -94 114q0 55 42 89t112 34q83 0 131.5 -50.5t48.5 -129.5q0 -106 -78.5 -170t-238.5 -64v68q87 0 134.5 32t49.5 77zM496 735v-553q0 -61 34 -79.5t134 -28.5v-74h-619v74q71 5 96 20.5t25 63.5v723l-119 71v47l395 115h62l-8 -309
q68 176 127.5 242.5t152.5 66.5q64 0 96 -35v-250h-43q-117 0 -191.5 -17t-141.5 -77z" />
    <glyph glyph-name="Rcaron" unicode="&#x158;" horiz-adv-x="1509" 
d="M1077 1843l-250 -315h-225l-250 315h99l264 -155l264 155h98zM637 1346h-78v-646h82q149 0 228 87t79 245q0 145 -80.5 229.5t-230.5 84.5zM559 608v-389q0 -83 26 -106t132 -35v-78h-662v78q105 12 130.5 35t25.5 106v1000q0 83 -25.5 106t-130.5 35v78h701
q251 0 396.5 -109.5t145.5 -294.5q0 -78 -28 -143.5t-75.5 -110t-101 -74.5t-114.5 -47l297 -413q68 -97 114 -131t119 -37v-78h-426q-77 56 -172 209l-258 399h-94z" />
    <glyph glyph-name="rcaron" unicode="&#x159;" horiz-adv-x="886" 
d="M866 1575l-235 -350h-225l-236 350h102l246 -186l246 186h102zM496 735v-553q0 -61 34 -79.5t134 -28.5v-74h-619v74q71 5 96 20.5t25 63.5v723l-119 71v47l395 115h62l-8 -309q68 176 127.5 242.5t152.5 66.5q64 0 96 -35v-250h-43q-117 0 -191.5 -17t-141.5 -77z" />
    <glyph glyph-name="Sacute" unicode="&#x15a;" horiz-adv-x="1153" 
d="M549 -20q-145 0 -270 37.5t-199 97.5l-19 354h97q38 -185 138.5 -292t252.5 -107q118 0 187 57t69 158q0 103 -70.5 161.5t-255.5 120.5q-204 65 -305.5 169t-101.5 280q0 199 137 320.5t358 121.5q132 0 245.5 -32t191.5 -89v-309h-86q-69 340 -351 340
q-101 0 -162 -55.5t-61 -147.5q0 -101 64 -155.5t233 -112.5q112 -37 187 -75t137.5 -92.5t92 -129.5t29.5 -174q0 -110 -42.5 -196.5t-116.5 -140t-170.5 -81.5t-208.5 -28zM608 1831h330v-16l-338 -289h-94z" />
    <glyph glyph-name="sacute" unicode="&#x15b;" horiz-adv-x="954" 
d="M500 1565h325v-17l-346 -321h-86zM459 -20q-239 0 -379 102l-12 278h84q34 -136 113.5 -219.5t193.5 -83.5q80 0 132 40t52 114q0 76 -51 115.5t-178 83.5q-88 29 -148.5 60.5t-105.5 74t-66.5 98.5t-21.5 129q0 161 109.5 251.5t291.5 90.5q199 0 340 -90v-248h-78
q-23 113 -90.5 186.5t-169.5 73.5q-72 0 -115 -37.5t-43 -99.5q0 -66 47.5 -105t163.5 -79q94 -32 155.5 -63t111.5 -75t73 -102.5t23 -136.5q0 -168 -116.5 -263t-315.5 -95z" />
    <glyph glyph-name="Scircumflex" unicode="&#x15c;" horiz-adv-x="1153" 
d="M549 -20q-145 0 -270 37.5t-199 97.5l-19 354h97q38 -185 138.5 -292t252.5 -107q118 0 187 57t69 158q0 103 -70.5 161.5t-255.5 120.5q-204 65 -305.5 169t-101.5 280q0 199 137 320.5t358 121.5q132 0 245.5 -32t191.5 -89v-309h-86q-69 340 -351 340
q-101 0 -162 -55.5t-61 -147.5q0 -101 64 -155.5t233 -112.5q112 -37 187 -75t137.5 -92.5t92 -129.5t29.5 -174q0 -110 -42.5 -196.5t-116.5 -140t-170.5 -81.5t-208.5 -28zM707 1843l249 -317h-98l-264 155l-264 -155h-99l250 317h226z" />
    <glyph glyph-name="scircumflex" unicode="&#x15d;" horiz-adv-x="954" 
d="M606 1569l236 -350h-103l-245 186l-246 -186h-103l236 350h225zM459 -20q-239 0 -379 102l-12 278h84q34 -136 113.5 -219.5t193.5 -83.5q80 0 132 40t52 114q0 76 -51 115.5t-178 83.5q-88 29 -148.5 60.5t-105.5 74t-66.5 98.5t-21.5 129q0 161 109.5 251.5t291.5 90.5
q199 0 340 -90v-248h-78q-23 113 -90.5 186.5t-169.5 73.5q-72 0 -115 -37.5t-43 -99.5q0 -66 47.5 -105t163.5 -79q94 -32 155.5 -63t111.5 -75t73 -102.5t23 -136.5q0 -168 -116.5 -263t-315.5 -95z" />
    <glyph glyph-name="Scedilla" unicode="&#x15e;" horiz-adv-x="1153" 
d="M354 -467l-16 66q106 0 163.5 28.5t57.5 73.5q0 40 -40 56.5t-124 19.5l82 207q-125 9 -229.5 44t-167.5 87l-19 354h97q38 -185 138.5 -292t252.5 -107q118 0 187 57t69 158q0 103 -70.5 161.5t-255.5 120.5q-204 65 -305.5 169t-101.5 280q0 199 137 320.5t358 121.5
q132 0 245.5 -32t191.5 -89v-309h-86q-69 340 -351 340q-101 0 -162 -55.5t-61 -147.5q0 -101 64 -155.5t233 -112.5q112 -37 187 -75t137.5 -92.5t92 -129.5t29.5 -174q0 -110 -42.5 -196.5t-116.5 -140t-170.5 -81.5t-208.5 -28h-2l-27 -66q98 0 155.5 -43t57.5 -121
q0 -72 -53 -122t-136.5 -72.5t-189.5 -22.5z" />
    <glyph glyph-name="scedilla" unicode="&#x15f;" horiz-adv-x="954" 
d="M254 -467l-16 66q106 0 163.5 28.5t57.5 73.5q0 40 -40 56.5t-124 19.5l82 207q-187 18 -297 98l-12 278h84q34 -136 113.5 -219.5t193.5 -83.5q80 0 132 40t52 114q0 76 -51 115.5t-178 83.5q-88 29 -148.5 60.5t-105.5 74t-66.5 98.5t-21.5 129q0 161 109.5 251.5
t291.5 90.5q199 0 340 -90v-248h-78q-23 113 -90.5 186.5t-169.5 73.5q-72 0 -115 -37.5t-43 -99.5q0 -66 47.5 -105t163.5 -79q94 -32 155.5 -63t111.5 -75t73 -102.5t23 -136.5q0 -168 -116.5 -263t-315.5 -95h-13l-26 -66q98 0 155.5 -43t57.5 -121q0 -72 -53 -122
t-136.5 -72.5t-189.5 -22.5z" />
    <glyph glyph-name="Scaron" unicode="&#x160;" horiz-adv-x="1153" 
d="M549 -20q-145 0 -270 37.5t-199 97.5l-19 354h97q38 -185 138.5 -292t252.5 -107q118 0 187 57t69 158q0 103 -70.5 161.5t-255.5 120.5q-204 65 -305.5 169t-101.5 280q0 199 137 320.5t358 121.5q132 0 245.5 -32t191.5 -89v-309h-86q-69 340 -351 340
q-101 0 -162 -55.5t-61 -147.5q0 -101 64 -155.5t233 -112.5q112 -37 187 -75t137.5 -92.5t92 -129.5t29.5 -174q0 -110 -42.5 -196.5t-116.5 -140t-170.5 -81.5t-208.5 -28zM956 1843l-249 -315h-226l-250 315h99l264 -155l264 155h98z" />
    <glyph glyph-name="scaron" unicode="&#x161;" horiz-adv-x="954" 
d="M842 1575l-236 -350h-225l-236 350h103l246 -186l245 186h103zM459 -20q-239 0 -379 102l-12 278h84q34 -136 113.5 -219.5t193.5 -83.5q80 0 132 40t52 114q0 76 -51 115.5t-178 83.5q-88 29 -148.5 60.5t-105.5 74t-66.5 98.5t-21.5 129q0 161 109.5 251.5t291.5 90.5
q199 0 340 -90v-248h-78q-23 113 -90.5 186.5t-169.5 73.5q-72 0 -115 -37.5t-43 -99.5q0 -66 47.5 -105t163.5 -79q94 -32 155.5 -63t111.5 -75t73 -102.5t23 -136.5q0 -168 -116.5 -263t-315.5 -95z" />
    <glyph glyph-name="Tcedilla" unicode="&#x162;" horiz-adv-x="1415" 
d="M741 -315h-106q-94 22 -94 114q0 55 41.5 89t111.5 34q83 0 131.5 -50.5t48.5 -129.5q0 -106 -78.5 -170t-238.5 -64v68q87 0 134.5 32t49.5 77zM61 1438h1293l30 -494h-73q-34 77 -55.5 122.5t-47 96t-44 77.5t-41.5 54t-45 39t-48.5 19.5t-58.5 7.5h-88v-1149
q0 -28 3 -47t13 -33t19.5 -22t34.5 -14t44.5 -9t61.5 -8v-78h-703v78q50 6 72.5 9.5t48.5 12t35.5 21.5t16 34.5t6.5 55.5v1149h-91q-32 0 -58.5 -7.5t-48.5 -19.5t-45 -39t-41.5 -54t-44 -77.5t-47 -96t-55.5 -122.5h-73z" />
    <glyph glyph-name="tcedilla" unicode="&#x163;" horiz-adv-x="768" 
d="M428 -315h-106q-95 22 -95 114q0 55 42 89t112 34q83 0 131.5 -50.5t48.5 -129.5q0 -106 -78.5 -170t-238.5 -64v68q87 0 134.5 32t49.5 77zM459 1366v-272h254v-103h-254v-678q0 -84 32 -121.5t99 -37.5q76 0 149 55l29 -41q-118 -188 -336 -188q-141 0 -222 78t-81 247
v686h-123v58q112 46 210.5 129t172.5 188h70z" />
    <glyph glyph-name="Tcaron" unicode="&#x164;" horiz-adv-x="1415" 
d="M1069 1843l-250 -315h-225l-250 315h98l265 -155l264 155h98zM61 1438h1293l30 -494h-73q-34 77 -55.5 122.5t-47 96t-44 77.5t-41.5 54t-45 39t-48.5 19.5t-58.5 7.5h-88v-1149q0 -28 3 -47t13 -33t19.5 -22t34.5 -14t44.5 -9t61.5 -8v-78h-703v78q50 6 72.5 9.5
t48.5 12t35.5 21.5t16 34.5t6.5 55.5v1149h-91q-32 0 -58.5 -7.5t-48.5 -19.5t-45 -39t-41.5 -54t-44 -77.5t-47 -96t-55.5 -122.5h-73z" />
    <glyph glyph-name="tcaron" unicode="&#x165;" horiz-adv-x="768" 
d="M842 1585l-232 -401h-67l28 420h271v-19zM459 1366v-272h254v-103h-254v-678q0 -84 32 -121.5t99 -37.5q76 0 149 55l29 -41q-118 -188 -336 -188q-141 0 -222 78t-81 247v686h-123v58q112 46 210.5 129t172.5 188h70z" />
    <glyph glyph-name="Tbar" unicode="&#x166;" horiz-adv-x="1415" 
d="M61 1438h1293l30 -494h-73q-34 77 -55.5 122.5t-47 96t-44 77.5t-41.5 54t-45 39t-48.5 19.5t-58.5 7.5h-88v-572h223v-112h-223v-465q0 -28 3 -47t13 -33t19.5 -22t34.5 -14t44.5 -9t61.5 -8v-78h-703v78q50 6 72.5 9.5t48.5 12t35.5 21.5t16 34.5t6.5 55.5v465h-224
v112h224v572h-91q-32 0 -58.5 -7.5t-48.5 -19.5t-45 -39t-41.5 -54t-44 -77.5t-47 -96t-55.5 -122.5h-73z" />
    <glyph glyph-name="tbar" unicode="&#x167;" horiz-adv-x="792" 
d="M471 1366v-272h254v-103h-254v-217h254v-100h-254v-361q0 -84 32 -121.5t99 -37.5q77 0 150 55l28 -41q-118 -188 -336 -188q-141 0 -222 78t-81 247v369h-123v100h123v217h-123v58q112 46 210.5 129t172.5 188h70z" />
    <glyph glyph-name="Utilde" unicode="&#x168;" horiz-adv-x="1521" 
d="M971 1526q-42 0 -85 19t-72 42.5t-64.5 42.5t-65.5 19q-40 0 -72 -28.5t-67 -86.5l-64 35q58 142 109.5 204t126.5 62q42 0 85 -19t72 -42.5t64.5 -42.5t65.5 -19q74 0 139 115l63 -35q-56 -141 -107.5 -203.5t-127.5 -62.5zM530 1219v-691q0 -188 80.5 -290.5
t243.5 -102.5q167 0 265 97.5t98 306.5v680q0 81 -34 105.5t-161 35.5v78h473v-78q-106 -12 -132 -35.5t-26 -105.5v-719q0 -129 -43 -230t-119 -163.5t-175.5 -94.5t-217.5 -32q-289 0 -444.5 131t-155.5 391v717q0 83 -25.5 106t-129.5 35v78h661v-78q-106 -12 -132 -35
t-26 -106z" />
    <glyph glyph-name="utilde" unicode="&#x169;" horiz-adv-x="1275" 
d="M1122 864v-639q0 -57 13.5 -77t64.5 -23l49 -2v-72l-401 -71h-60l7 196q-75 -88 -160 -142t-201 -54q-142 0 -222.5 84t-80.5 253v519q0 51 -18 78t-70 38l-31 6v70l404 84h55l-10 -252v-506q0 -182 149 -182q49 0 89 14.5t96 44.5v605q0 51 -18 78t-70 38l-31 6v70
l401 84h58zM766 1233q-42 0 -83.5 19t-69 41.5t-62 41.5t-64.5 19q-40 0 -71 -28t-64 -87l-63 37q57 143 106.5 204.5t124.5 61.5q35 0 68 -12.5t59 -31t50.5 -36.5t50.5 -30.5t51 -12.5q40 0 71 28t64 87l63 -35q-56 -143 -106 -204.5t-125 -61.5z" />
    <glyph glyph-name="Umacron" unicode="&#x16a;" horiz-adv-x="1521" 
d="M537 1550v158h591v-158h-591zM530 1219v-691q0 -188 80.5 -290.5t243.5 -102.5q167 0 265 97.5t98 306.5v680q0 81 -34 105.5t-161 35.5v78h473v-78q-106 -12 -132 -35.5t-26 -105.5v-719q0 -129 -43 -230t-119 -163.5t-175.5 -94.5t-217.5 -32q-289 0 -444.5 131
t-155.5 391v717q0 83 -25.5 106t-129.5 35v78h661v-78q-106 -12 -132 -35t-26 -106z" />
    <glyph glyph-name="umacron" unicode="&#x16b;" horiz-adv-x="1275" 
d="M1122 864v-639q0 -57 13.5 -77t64.5 -23l49 -2v-72l-401 -71h-60l7 196q-75 -88 -160 -142t-201 -54q-142 0 -222.5 84t-80.5 253v519q0 51 -18 78t-70 38l-31 6v70l404 84h55l-10 -252v-506q0 -182 149 -182q49 0 89 14.5t96 44.5v605q0 51 -18 78t-70 38l-31 6v70
l401 84h58zM354 1278v158h568v-158h-568z" />
    <glyph glyph-name="Ubreve" unicode="&#x16c;" horiz-adv-x="1521" 
d="M831 1520q-141 0 -220 82.5t-79 236.5h84q26 -147 215 -147q192 0 218 147h84q0 -154 -80 -236.5t-222 -82.5zM530 1219v-691q0 -188 80.5 -290.5t243.5 -102.5q167 0 265 97.5t98 306.5v680q0 81 -34 105.5t-161 35.5v78h473v-78q-106 -12 -132 -35.5t-26 -105.5v-719
q0 -129 -43 -230t-119 -163.5t-175.5 -94.5t-217.5 -32q-289 0 -444.5 131t-155.5 391v717q0 83 -25.5 106t-129.5 35v78h661v-78q-106 -12 -132 -35t-26 -106z" />
    <glyph glyph-name="ubreve" unicode="&#x16d;" horiz-adv-x="1275" 
d="M1122 864v-639q0 -57 13.5 -77t64.5 -23l49 -2v-72l-401 -71h-60l7 196q-75 -88 -160 -142t-201 -54q-142 0 -222.5 84t-80.5 253v519q0 51 -18 78t-70 38l-31 6v70l404 84h55l-10 -252v-506q0 -182 149 -182q49 0 89 14.5t96 44.5v605q0 51 -18 78t-70 38l-31 6v70
l401 84h58zM637 1223q-139 0 -213 88.5t-74 251.5h86q16 -164 201 -164q183 0 201 164h86q0 -163 -74.5 -251.5t-212.5 -88.5z" />
    <glyph glyph-name="Uring" unicode="&#x16e;" horiz-adv-x="1521" 
d="M530 1219v-691q0 -188 80.5 -290.5t243.5 -102.5q167 0 265 97.5t98 306.5v680q0 81 -34 105.5t-161 35.5v78h473v-78q-106 -12 -132 -35.5t-26 -105.5v-719q0 -129 -43 -230t-119 -163.5t-175.5 -94.5t-217.5 -32q-289 0 -444.5 131t-155.5 391v717q0 83 -25.5 106
t-129.5 35v78h661v-78q-106 -12 -132 -35t-26 -106zM729 1690q0 -46 28 -76.5t77 -30.5q48 0 76 30.5t28 76.5q0 48 -28 79t-76 31q-50 0 -77.5 -30.5t-27.5 -79.5zM629 1690q0 86 58 143t147 57q88 0 145 -57t57 -143q0 -84 -57.5 -140.5t-144.5 -56.5q-89 0 -147 56.5
t-58 140.5z" />
    <glyph glyph-name="uring" unicode="&#x16f;" horiz-adv-x="1275" 
d="M532 1376q0 -47 28 -77.5t77 -30.5q48 0 76 30.5t28 77.5t-28 78t-76 31q-49 0 -77 -30.5t-28 -78.5zM432 1376q0 85 58 142t147 57q87 0 145 -57t58 -142t-57.5 -141.5t-145.5 -56.5q-89 0 -147 56.5t-58 141.5zM1122 864v-639q0 -57 13.5 -77t64.5 -23l49 -2v-72
l-401 -71h-60l7 196q-75 -88 -160 -142t-201 -54q-142 0 -222.5 84t-80.5 253v519q0 51 -18 78t-70 38l-31 6v70l404 84h55l-10 -252v-506q0 -182 149 -182q49 0 89 14.5t96 44.5v605q0 51 -18 78t-70 38l-31 6v70l401 84h58z" />
    <glyph glyph-name="Uhungarumlaut" unicode="&#x170;" horiz-adv-x="1521" 
d="M530 1219v-691q0 -188 80.5 -290.5t243.5 -102.5q167 0 265 97.5t98 306.5v680q0 81 -34 105.5t-161 35.5v78h473v-78q-106 -12 -132 -35.5t-26 -105.5v-719q0 -129 -43 -230t-119 -163.5t-175.5 -94.5t-217.5 -32q-289 0 -444.5 131t-155.5 391v717q0 83 -25.5 106
t-129.5 35v78h661v-78q-106 -12 -132 -35t-26 -106zM715 1831h278v-16l-295 -289h-92zM1063 1831h280v-16l-296 -289h-93z" />
    <glyph glyph-name="uhungarumlaut" unicode="&#x171;" horiz-adv-x="1275" 
d="M1122 864v-639q0 -57 13.5 -77t64.5 -23l49 -2v-72l-401 -71h-60l7 196q-75 -88 -160 -142t-201 -54q-142 0 -222.5 84t-80.5 253v519q0 51 -18 78t-70 38l-31 6v70l404 84h55l-10 -252v-506q0 -182 149 -182q49 0 89 14.5t96 44.5v605q0 51 -18 78t-70 38l-31 6v70
l401 84h58zM498 1565h278v-17l-297 -321h-90zM846 1565h280v-17l-299 -321h-90z" />
    <glyph glyph-name="Uogonek" unicode="&#x172;" horiz-adv-x="1521" 
d="M530 1219v-691q0 -188 80.5 -290.5t243.5 -102.5q167 0 265 97.5t98 306.5v680q0 81 -34 105.5t-161 35.5v78h473v-78q-106 -12 -132 -35.5t-26 -105.5v-719q0 -122 -38 -218.5t-106.5 -159.5t-159 -98t-199.5 -42q62 32 190 81l16 -30q-204 -94 -204 -236q0 -46 24 -75
t70 -29q42 0 72.5 12.5t68.5 42.5l31 -35q-59 -74 -123.5 -112.5t-149.5 -38.5q-80 0 -133 47t-53 123q0 147 191 250q-8 0 -26 -1t-26 -1q-289 0 -444.5 131t-155.5 391v717q0 83 -25.5 106t-129.5 35v78h661v-78q-106 -12 -132 -35t-26 -106z" />
    <glyph glyph-name="uogonek" unicode="&#x173;" horiz-adv-x="1275" 
d="M1122 864v-639q0 -57 13.5 -77t64.5 -23l49 -2v-72q-186 -31 -285.5 -64.5t-140.5 -78t-41 -113.5q0 -45 24.5 -73.5t70.5 -28.5q41 0 72 12.5t71 42.5l29 -35q-59 -74 -122.5 -112.5t-146.5 -38.5q-84 0 -137 47.5t-53 128.5q0 79 50 135.5t148 103.5l7 199
q-75 -88 -160 -142t-201 -54q-142 0 -222.5 84t-80.5 253v519q0 51 -18 78t-70 38l-31 6v70l404 84h55l-10 -252v-506q0 -182 149 -182q49 0 89 14.5t96 44.5v605q0 51 -18 78t-70 38l-31 6v70l401 84h58z" />
    <glyph glyph-name="Wcircumflex" unicode="&#x174;" horiz-adv-x="2017" 
d="M1313 -10l-279 817l-299 -817h-121l-485 1294q-13 34 -42 51t-77 25v78h635v-78q-71 -4 -100 -23.5t-29 -58.5q0 -23 25 -104l262 -719l182 497l-113 332q-11 36 -36 52t-70 24v78h627v-78q-85 -1 -119.5 -22t-34.5 -66q0 -31 25 -115l225 -692l237 696q23 75 23 105
q0 45 -34 67.5t-118 26.5v78h410v-78q-48 -9 -77.5 -25t-41.5 -51l-454 -1294h-121zM1186 1843l250 -317h-99l-264 155l-264 -155h-98l250 317h225z" />
    <glyph glyph-name="wcircumflex" unicode="&#x175;" horiz-adv-x="1771" 
d="M1042 1569l236 -350h-102l-246 186l-246 -186h-102l235 350h225zM1325 389l199 504q12 35 12 59q0 33 -27.5 46.5t-95.5 21.5v74h348v-74q-52 -15 -71 -30t-33 -50l-395 -952h-105l-244 649l-278 -649h-103l-417 952q-16 36 -34.5 51t-70.5 29v74h572v-74q-57 -8 -82 -22
t-25 -42t14 -63l209 -520l164 391l-67 176q-11 34 -31.5 51t-65.5 29v74h562v-74q-49 -6 -73.5 -11.5t-40.5 -19.5t-16 -39q0 -11 11 -57z" />
    <glyph glyph-name="Ycircumflex" unicode="&#x176;" horiz-adv-x="1404" 
d="M883 549v-338q0 -28 3 -47t13 -33t19.5 -22t34.5 -14t44.5 -9t61.5 -8v-78h-692v78q36 4 53.5 6.5t41 7.5t33.5 10.5t22.5 14.5t17 22t7.5 30.5t3 41.5v330l-416 743q-22 39 -46.5 53.5t-72.5 22.5v78h660v-78q-88 -3 -119 -19t-31 -55q0 -28 10 -53.5t35 -69.5l273 -475
l249 473q46 94 46 125q0 38 -35.5 54.5t-118.5 19.5v78h416v-78q-46 -8 -74 -24.5t-47 -51.5zM889 1843l250 -317h-99l-264 155l-264 -155h-98l250 317h225z" />
    <glyph glyph-name="ycircumflex" unicode="&#x177;" horiz-adv-x="1187" 
d="M721 328l217 563q16 43 16 59q0 33 -28.5 47t-108.5 23v74h361v-74q-52 -15 -71.5 -30t-33.5 -50l-459 -1126q-56 -137 -119 -201t-161 -64q-57 0 -101.5 24t-64.5 65v124q85 -18 149 -18q87 0 137.5 29t80.5 102l32 80l-452 985q-16 36 -34.5 51t-70.5 29v74h604v-74
q-81 -9 -109 -23t-28 -47q0 -20 12 -57zM782 1569l236 -350h-103l-245 186l-246 -186h-102l235 350h225z" />
    <glyph glyph-name="Ydieresis" unicode="&#x178;" horiz-adv-x="1404" 
d="M883 549v-338q0 -28 3 -47t13 -33t19.5 -22t34.5 -14t44.5 -9t61.5 -8v-78h-692v78q36 4 53.5 6.5t41 7.5t33.5 10.5t22.5 14.5t17 22t7.5 30.5t3 41.5v330l-416 743q-22 39 -46.5 53.5t-72.5 22.5v78h660v-78q-88 -3 -119 -19t-31 -55q0 -28 10 -53.5t35 -69.5l273 -475
l249 473q46 94 46 125q0 38 -35.5 54.5t-118.5 19.5v78h416v-78q-46 -8 -74 -24.5t-47 -51.5zM408 1686q0 65 47 111t114 46q66 0 114 -46.5t48 -110.5q0 -66 -48 -113t-114 -47q-67 0 -114 47t-47 113zM823 1686q0 64 47.5 110.5t112.5 46.5q67 0 114.5 -46t47.5 -111
q0 -66 -47.5 -113t-114.5 -47q-65 0 -112.5 47t-47.5 113z" />
    <glyph glyph-name="Zacute" unicode="&#x179;" horiz-adv-x="1267" 
d="M444 88h308q53 0 92.5 11.5t74 33t72 69t73 103.5t89.5 152h78l-72 -457h-1124v61l749 1289h-295q-46 0 -79.5 -6.5t-61.5 -24t-49 -40.5t-43.5 -62.5t-43 -83.5t-49.5 -111q-3 -8 -5 -12h-76l16 428h1094v-62zM651 1831h330v-16l-338 -289h-94z" />
    <glyph glyph-name="zacute" unicode="&#x17a;" horiz-adv-x="1069" 
d="M582 1565h325v-17l-346 -321h-86zM45 0v57l590 949h-217q-81 0 -138.5 -68.5t-125.5 -235.5h-72l31 457h67l35 -67h795v-60l-578 -946h238q93 0 155 68.5t136 244.5h69l-43 -399h-942z" />
    <glyph glyph-name="Zdotaccent" unicode="&#x17b;" horiz-adv-x="1267" 
d="M647 1526q-81 0 -131.5 50.5t-50.5 123.5t50.5 123.5t131.5 50.5q82 0 133 -50.5t51 -123.5t-51 -123.5t-133 -50.5zM444 88h308q53 0 92.5 11.5t74 33t72 69t73 103.5t89.5 152h78l-72 -457h-1124v61l749 1289h-295q-46 0 -79.5 -6.5t-61.5 -24t-49 -40.5t-43.5 -62.5
t-43 -83.5t-49.5 -111q-3 -8 -5 -12h-76l16 428h1094v-62z" />
    <glyph glyph-name="zdotaccent" unicode="&#x17c;" horiz-adv-x="1069" 
d="M45 0v57l590 949h-217q-81 0 -138.5 -68.5t-125.5 -235.5h-72l31 457h67l35 -67h795v-60l-578 -946h238q93 0 155 68.5t136 244.5h69l-43 -399h-942zM575 1227q-81 0 -131.5 51.5t-50.5 124.5t50.5 123.5t131.5 50.5q83 0 134 -50.5t51 -123.5t-51.5 -124.5t-133.5 -51.5
z" />
    <glyph glyph-name="Zcaron" unicode="&#x17d;" horiz-adv-x="1267" 
d="M1010 1843l-250 -315h-225l-250 315h98l264 -155l264 155h99zM444 88h308q53 0 92.5 11.5t74 33t72 69t73 103.5t89.5 152h78l-72 -457h-1124v61l749 1289h-295q-46 0 -79.5 -6.5t-61.5 -24t-49 -40.5t-43.5 -62.5t-43 -83.5t-49.5 -111q-3 -8 -5 -12h-76l16 428h1094
v-62z" />
    <glyph glyph-name="zcaron" unicode="&#x17e;" horiz-adv-x="1069" 
d="M924 1575l-236 -350h-225l-236 350h103l245 -186l246 186h103zM45 0v57l590 949h-217q-81 0 -138.5 -68.5t-125.5 -235.5h-72l31 457h67l35 -67h795v-60l-578 -946h238q93 0 155 68.5t136 244.5h69l-43 -399h-942z" />
    <glyph glyph-name="florin" unicode="&#x192;" horiz-adv-x="1091" 
d="M143 692l9 78h186l8 72q36 308 151.5 462t329.5 154q116 0 186 -43.5t70 -130.5q0 -47 -27 -81.5t-75 -49.5h-90q0 53 -2.5 88t-11 74.5t-28 59.5t-50.5 20q-82 0 -97 -138l-59 -487h231l-8 -78h-231l-51 -422q-36 -308 -152 -462t-328 -154q-116 0 -187 43.5t-71 130.5
q0 48 28 82t77 49h88q1 -43 2.5 -70.5t7 -63.5t14.5 -57t26.5 -36t41.5 -15q80 0 98 138l99 837h-185z" />
    <glyph glyph-name="Aringacute" unicode="&#x1fa;" horiz-adv-x="1521" 
d="M987 250l-84 211h-536l-80 -211q-19 -55 -19 -78q0 -48 40.5 -68.5t131.5 -25.5v-78h-430v78q33 6 52 12t38.5 22t28.5 42l438 1130l-65 162h370l519 -1292q14 -36 42 -51.5t78 -24.5v-78h-673v78q88 3 128 23.5t40 68.5q0 21 -19 80zM629 1151l-226 -592h461zM492 1669
q0 77 60 129.5t150 52.5t149.5 -52.5t59.5 -129.5q0 -76 -59.5 -128t-149.5 -52t-150 52t-60 128zM719 2136h330v-16l-324 -230h-92zM590 1669q0 -44 30.5 -72t81.5 -28q52 0 82.5 28t30.5 72q0 45 -30.5 74t-82.5 29q-51 0 -81.5 -29t-30.5 -74z" />
    <glyph glyph-name="aringacute" unicode="&#x1fb;" horiz-adv-x="1101" 
d="M334 1333q0 77 60 130t151 53q90 0 149.5 -53t59.5 -130t-59.5 -128.5t-149.5 -51.5q-92 0 -151.5 51.5t-59.5 128.5zM559 1804h330v-16l-324 -229h-92zM432 1333q0 -44 30.5 -72t82.5 -28q51 0 81.5 28t30.5 72q0 45 -30 73t-82 28t-82.5 -28t-30.5 -73zM508 162
q54 0 125 49v381l-146 -57q-67 -28 -99 -68.5t-32 -122.5q0 -84 38 -133t114 -49zM958 768v-543q0 -50 13 -76t49 -26q40 0 76 16l12 -49q-96 -110 -250 -110q-86 0 -142.5 46t-76.5 130q-126 -172 -313 -172q-129 0 -207 72t-78 198q0 64 20.5 114t61.5 85.5t85 59
t107 46.5l318 113v190q0 180 -127 180q-63 0 -94 -45.5t-31 -122.5q0 -62 18 -133l-196 -26q-44 14 -70.5 49t-26.5 86q0 128 117.5 196t304.5 68q213 0 321.5 -81t108.5 -265z" />
    <glyph glyph-name="AEacute" unicode="&#x1fc;" horiz-adv-x="2109" 
d="M129 154l721 1134q-40 62 -199 72v78h1342l10 -383h-68q-42 92 -72 143t-68.5 88.5t-83.5 50.5t-112 13h-249v-557h229q68 0 96.5 41t42.5 147h82v-477h-82q-14 105 -42.5 145.5t-96.5 40.5h-229v-463q0 -81 40 -110t134 -29h100q38 0 68.5 6t55.5 15.5t50 32t44.5 44.5
t46.5 63.5t48 78t56 100.5h82l-66 -428h-1165v78q106 12 131.5 35t25.5 106v289h-516l-163 -258q-31 -51 -31 -84q0 -82 184 -88v-78h-465v78q43 8 70 24.5t49 51.5zM1001 1321l-454 -715h454v715zM1315 1831h330v-16l-338 -289h-95z" />
    <glyph glyph-name="aeacute" unicode="&#x1fd;" horiz-adv-x="1593" 
d="M1124 1114q204 0 316 -122t112 -318v-49h-647q-4 -193 84 -308.5t240 -115.5q182 0 297 157l35 -20q-41 -166 -157.5 -262t-297.5 -96q-260 0 -397 188q-79 -90 -163.5 -137t-213.5 -47q-133 0 -212 72t-79 198q0 64 20.5 114t61.5 85.5t85 59t107 46.5l306 105
q11 56 22 86q3 138 -34.5 215t-112.5 77q-57 0 -86 -45.5t-29 -122.5q0 -62 18 -133l-196 -26q-44 14 -70.5 49t-26.5 86q0 86 56.5 147t148 89t207.5 28q210 0 293 -110q131 110 313 110zM1096 1034q-166 0 -187 -325h355q0 325 -168 325zM524 162q70 0 156 53
q-72 129 -72 305q0 10 1 30.5t1 29.5l-108 -41q-77 -30 -111.5 -71t-34.5 -124q0 -182 168 -182zM844 1565h325v-17l-346 -321h-86z" />
    <glyph glyph-name="Oslashacute" unicode="&#x1fe;" horiz-adv-x="1503" 
d="M735 -20q-214 0 -373 100l-141 -197l-74 54l142 196q-113 96 -172.5 242t-59.5 315q0 173 53.5 318t148 243t225 152.5t282.5 54.5q228 0 397 -117l133 183l74 -54l-135 -186q103 -99 157 -238t54 -298q0 -173 -54 -318t-148.5 -243t-225.5 -152.5t-283 -54.5zM428 737
q0 -208 39 -358l545 751q-89 236 -271 236q-81 0 -143 -53t-98 -143.5t-54 -199.5t-18 -233zM762 72q81 0 142.5 53t98 143t54.5 199.5t18 232.5q0 171 -31 320l-540 -746q86 -202 258 -202zM768 1831h330v-16l-338 -289h-94z" />
    <glyph glyph-name="oslashacute" unicode="&#x1ff;" horiz-adv-x="1187" 
d="M592 -20q-167 0 -293 69l-113 -162l-67 45l112 164q-89 71 -137.5 181.5t-48.5 246.5q0 259 155.5 424.5t395.5 165.5q163 0 295 -74l110 160l68 -45l-111 -160q89 -71 138 -181t49 -245q0 -258 -156.5 -423.5t-396.5 -165.5zM393 604q0 -142 15 -256l348 500
q-52 186 -170 186q-193 0 -193 -430zM602 59q193 0 193 430q0 124 -17 250l-346 -499q53 -181 170 -181zM600 1565h326v-17l-346 -321h-86z" />
    <glyph glyph-name="Scommaaccent" unicode="&#x218;" horiz-adv-x="1153" 
d="M602 -315h-106q-95 22 -95 114q0 55 42 89t112 34q83 0 131.5 -50.5t48.5 -129.5q0 -106 -78.5 -170t-238.5 -64v68q87 0 134.5 32t49.5 77zM549 -20q-145 0 -270 37.5t-199 97.5l-19 354h97q38 -185 138.5 -292t252.5 -107q118 0 187 57t69 158q0 103 -70.5 161.5
t-255.5 120.5q-204 65 -305.5 169t-101.5 280q0 199 137 320.5t358 121.5q132 0 245.5 -32t191.5 -89v-309h-86q-69 340 -351 340q-101 0 -162 -55.5t-61 -147.5q0 -101 64 -155.5t233 -112.5q112 -37 187 -75t137.5 -92.5t92 -129.5t29.5 -174q0 -110 -42.5 -196.5
t-116.5 -140t-170.5 -81.5t-208.5 -28z" />
    <glyph glyph-name="scommaaccent" unicode="&#x219;" horiz-adv-x="954" 
d="M512 -315h-106q-95 22 -95 114q0 55 42 89t112 34q83 0 131.5 -50.5t48.5 -129.5q0 -106 -78.5 -170t-238.5 -64v68q87 0 134.5 32t49.5 77zM459 -20q-239 0 -379 102l-12 278h84q34 -136 113.5 -219.5t193.5 -83.5q80 0 132 40t52 114q0 76 -51 115.5t-178 83.5
q-88 29 -148.5 60.5t-105.5 74t-66.5 98.5t-21.5 129q0 161 109.5 251.5t291.5 90.5q199 0 340 -90v-248h-78q-23 113 -90.5 186.5t-169.5 73.5q-72 0 -115 -37.5t-43 -99.5q0 -66 47.5 -105t163.5 -79q94 -32 155.5 -63t111.5 -75t73 -102.5t23 -136.5q0 -168 -116.5 -263
t-315.5 -95z" />
    <glyph glyph-name="uni0237" unicode="&#x237;" horiz-adv-x="587" 
d="M137 881l-119 71v47l394 115h55v-909q0 -156 -28 -241t-93 -159q-68 -76 -141.5 -129t-186.5 -118l-32 36l84 138q31 50 46.5 117.5t18 120.5t2.5 155v756z" />
    <glyph glyph-name="circumflex" unicode="&#x2c6;" 
d="M625 1569l235 -350h-102l-246 186l-246 -186h-102l235 350h226z" />
    <glyph glyph-name="caron" unicode="&#x2c7;" 
d="M860 1575l-235 -350h-226l-235 350h102l246 -186l246 186h102z" />
    <glyph glyph-name="breve" unicode="&#x2d8;" 
d="M522 1223q-139 0 -212.5 88t-73.5 252h86q16 -164 200 -164q183 0 201 164h86q0 -163 -74.5 -251.5t-212.5 -88.5z" />
    <glyph glyph-name="dotaccent" unicode="&#x2d9;" 
d="M512 1227q-81 0 -131.5 51.5t-50.5 124.5t50.5 123.5t131.5 50.5q82 0 133 -50.5t51 -123.5t-51 -124.5t-133 -51.5z" />
    <glyph glyph-name="ring" unicode="&#x2da;" 
d="M422 1376q0 -48 27.5 -78t76.5 -30q48 0 76.5 30.5t28.5 77.5t-28.5 78t-76.5 31q-49 0 -76.5 -30.5t-27.5 -78.5zM322 1376q0 85 57.5 142t146.5 57q87 0 145 -57t58 -142t-57.5 -141.5t-145.5 -56.5q-89 0 -146.5 56.5t-57.5 141.5z" />
    <glyph glyph-name="ogonek" unicode="&#x2db;" 
d="M668 63l16 -30q-205 -94 -205 -236q0 -46 24 -75t70 -29q42 0 73 12.5t69 42.5l30 -35q-59 -74 -123 -112.5t-149 -38.5q-80 0 -133 47t-53 123q0 50 22.5 94t56.5 76.5t88 63.5t101.5 52t112.5 45z" />
    <glyph glyph-name="tilde" unicode="&#x2dc;" 
d="M639 1233q-42 0 -83.5 19t-69 41.5t-62 41.5t-64.5 19q-40 0 -71 -28t-64 -87l-63 37q57 143 106.5 204.5t124.5 61.5q35 0 68 -12.5t59 -31t50.5 -36.5t50.5 -30.5t51 -12.5q40 0 71 28t64 87l63 -35q-56 -143 -106 -204.5t-125 -61.5z" />
    <glyph glyph-name="hungarumlaut" unicode="&#x2dd;" 
d="M268 1565h279v-17l-297 -321h-90zM616 1565h281v-17l-299 -321h-90z" />
    <glyph glyph-name="pi" unicode="&#x3c0;" horiz-adv-x="1247" 
d="M705 346l63 545h-303q0 -309 -18 -498t-64 -393h-320v68q47 78 83 153t72.5 178t56.5 228.5t20 263.5h-242v219h1131l-35 -219h-164v-641q0 -62 26.5 -91.5t71.5 -29.5q49 0 93 12l12 -49q-119 -112 -260 -112q-110 0 -171 59t-61 182q0 45 9 125z" />
    <glyph glyph-name="Wgrave" unicode="&#x1e80;" horiz-adv-x="2017" 
d="M1313 -10l-279 817l-299 -817h-121l-485 1294q-13 34 -42 51t-77 25v78h635v-78q-71 -4 -100 -23.5t-29 -58.5q0 -23 25 -104l262 -719l182 497l-113 332q-11 36 -36 52t-70 24v78h627v-78q-85 -1 -119.5 -22t-34.5 -66q0 -31 25 -115l225 -692l237 696q23 75 23 105
q0 45 -34 67.5t-118 26.5v78h410v-78q-48 -9 -77.5 -25t-41.5 -51l-454 -1294h-121zM739 1831h330l102 -305h-94l-338 289v16z" />
    <glyph glyph-name="wgrave" unicode="&#x1e81;" horiz-adv-x="1771" 
d="M1325 389l199 504q12 35 12 59q0 33 -27.5 46.5t-95.5 21.5v74h348v-74q-52 -15 -71 -30t-33 -50l-395 -952h-105l-244 649l-278 -649h-103l-417 952q-16 36 -34.5 51t-70.5 29v74h572v-74q-57 -8 -82 -22t-25 -42t14 -63l209 -520l164 391l-67 176q-11 34 -31.5 51
t-65.5 29v74h562v-74q-49 -6 -73.5 -11.5t-40.5 -19.5t-16 -39q0 -11 11 -57zM602 1565h326l106 -338h-88l-344 321v17z" />
    <glyph glyph-name="Wacute" unicode="&#x1e82;" horiz-adv-x="2017" 
d="M1313 -10l-279 817l-299 -817h-121l-485 1294q-13 34 -42 51t-77 25v78h635v-78q-71 -4 -100 -23.5t-29 -58.5q0 -23 25 -104l262 -719l182 497l-113 332q-11 36 -36 52t-70 24v78h627v-78q-85 -1 -119.5 -22t-34.5 -66q0 -31 25 -115l225 -692l237 696q23 75 23 105
q0 45 -34 67.5t-118 26.5v78h410v-78q-48 -9 -77.5 -25t-41.5 -51l-454 -1294h-121zM1077 1831h330v-16l-338 -289h-94z" />
    <glyph glyph-name="wacute" unicode="&#x1e83;" horiz-adv-x="1771" 
d="M936 1565h326v-17l-347 -321h-86zM1325 389l199 504q12 35 12 59q0 33 -27.5 46.5t-95.5 21.5v74h348v-74q-52 -15 -71 -30t-33 -50l-395 -952h-105l-244 649l-278 -649h-103l-417 952q-16 36 -34.5 51t-70.5 29v74h572v-74q-57 -8 -82 -22t-25 -42t14 -63l209 -520
l164 391l-67 176q-11 34 -31.5 51t-65.5 29v74h562v-74q-49 -6 -73.5 -11.5t-40.5 -19.5t-16 -39q0 -11 11 -57z" />
    <glyph glyph-name="Wdieresis" unicode="&#x1e84;" horiz-adv-x="2017" 
d="M1313 -10l-279 817l-299 -817h-121l-485 1294q-13 34 -42 51t-77 25v78h635v-78q-71 -4 -100 -23.5t-29 -58.5q0 -23 25 -104l262 -719l182 497l-113 332q-11 36 -36 52t-70 24v78h627v-78q-85 -1 -119.5 -22t-34.5 -66q0 -31 25 -115l225 -692l237 696q23 75 23 105
q0 45 -34 67.5t-118 26.5v78h410v-78q-48 -9 -77.5 -25t-41.5 -51l-454 -1294h-121zM705 1686q0 65 47 111t114 46q66 0 114 -46.5t48 -110.5q0 -66 -48 -113t-114 -47q-67 0 -114 47t-47 113zM1120 1686q0 64 47.5 110.5t112.5 46.5q67 0 114.5 -46t47.5 -111
q0 -66 -47.5 -113t-114.5 -47q-65 0 -112.5 47t-47.5 113z" />
    <glyph glyph-name="wdieresis" unicode="&#x1e85;" horiz-adv-x="1771" 
d="M565 1399q0 65 47.5 112.5t114.5 47.5q66 0 114 -47.5t48 -112.5q0 -66 -48 -113t-114 -47q-67 0 -114.5 47t-47.5 113zM973 1399q0 65 47.5 112.5t112.5 47.5q67 0 114 -47.5t47 -112.5q0 -66 -47 -113t-114 -47q-65 0 -112.5 47t-47.5 113zM1325 389l199 504
q12 35 12 59q0 33 -27.5 46.5t-95.5 21.5v74h348v-74q-52 -15 -71 -30t-33 -50l-395 -952h-105l-244 649l-278 -649h-103l-417 952q-16 36 -34.5 51t-70.5 29v74h572v-74q-57 -8 -82 -22t-25 -42t14 -63l209 -520l164 391l-67 176q-11 34 -31.5 51t-65.5 29v74h562v-74
q-49 -6 -73.5 -11.5t-40.5 -19.5t-16 -39q0 -11 11 -57z" />
    <glyph glyph-name="Ygrave" unicode="&#x1ef2;" horiz-adv-x="1404" 
d="M883 549v-338q0 -28 3 -47t13 -33t19.5 -22t34.5 -14t44.5 -9t61.5 -8v-78h-692v78q36 4 53.5 6.5t41 7.5t33.5 10.5t22.5 14.5t17 22t7.5 30.5t3 41.5v330l-416 743q-22 39 -46.5 53.5t-72.5 22.5v78h660v-78q-88 -3 -119 -19t-31 -55q0 -28 10 -53.5t35 -69.5l273 -475
l249 473q46 94 46 125q0 38 -35.5 54.5t-118.5 19.5v78h416v-78q-46 -8 -74 -24.5t-47 -51.5zM444 1831h330l103 -305h-95l-338 289v16z" />
    <glyph glyph-name="ygrave" unicode="&#x1ef3;" horiz-adv-x="1187" 
d="M721 328l217 563q16 43 16 59q0 33 -28.5 47t-108.5 23v74h361v-74q-52 -15 -71.5 -30t-33.5 -50l-459 -1126q-56 -137 -119 -201t-161 -64q-57 0 -101.5 24t-64.5 65v124q85 -18 149 -18q87 0 137.5 29t80.5 102l32 80l-452 985q-16 36 -34.5 51t-70.5 29v74h604v-74
q-81 -9 -109 -23t-28 -47q0 -20 12 -57zM342 1565h326l106 -338h-88l-344 321v17z" />
    <glyph glyph-name="endash" unicode="&#x2013;" horiz-adv-x="1105" 
d="M1044 565h-983v111h983v-111z" />
    <glyph glyph-name="emdash" unicode="&#x2014;" horiz-adv-x="1966" 
d="M1905 676v-111h-1844v111h1844z" />
    <glyph glyph-name="quoteleft" unicode="&#x2018;" horiz-adv-x="532" 
d="M242 1305h82q62 -13 98.5 -53.5t36.5 -108.5q0 -76 -51.5 -123t-128.5 -47q-90 0 -143.5 64.5t-53.5 168.5q0 153 98.5 243t282.5 97v-73q-102 -14 -157 -54t-64 -114z" />
    <glyph glyph-name="quoteright" unicode="&#x2019;" horiz-adv-x="532" 
d="M293 1204h-80q-62 14 -98.5 54.5t-36.5 107.5q0 78 51.5 124t128.5 46q90 0 143.5 -63.5t53.5 -167.5q0 -154 -98.5 -243.5t-282.5 -98.5v75q102 14 157 53t62 113z" />
    <glyph glyph-name="quotesinglbase" unicode="&#x201a;" horiz-adv-x="532" 
d="M293 0h-80q-62 14 -98.5 54.5t-36.5 107.5q0 76 51.5 123t128.5 47q90 0 143.5 -64t53.5 -168q0 -154 -98.5 -244.5t-282.5 -97.5v74q102 14 157 54t62 114z" />
    <glyph glyph-name="quotedblleft" unicode="&#x201c;" horiz-adv-x="964" 
d="M676 1305h80q62 -13 98.5 -53.5t36.5 -108.5q0 -76 -51.5 -123t-128.5 -47q-90 0 -143.5 64.5t-53.5 168.5q0 153 98.5 243t282.5 97v-73q-102 -14 -157 -54t-62 -114zM242 1305h82q62 -13 98.5 -53.5t36.5 -108.5q0 -76 -51.5 -123t-128.5 -47q-90 0 -143.5 64.5
t-53.5 168.5q0 153 98.5 243t282.5 97v-73q-102 -14 -157 -54t-64 -114z" />
    <glyph glyph-name="quotedblright" unicode="&#x201d;" horiz-adv-x="964" 
d="M293 1204h-80q-62 14 -98.5 54.5t-36.5 107.5q0 78 51.5 124t128.5 46q90 0 143.5 -63.5t53.5 -167.5q0 -154 -98.5 -243.5t-282.5 -98.5v75q102 14 157 53t62 113zM725 1204h-80q-62 14 -98.5 54.5t-36.5 107.5q0 78 51.5 124t128.5 46q90 0 143.5 -63.5t53.5 -167.5
q0 -154 -98.5 -243.5t-282.5 -98.5v75q102 14 157 53t62 113z" />
    <glyph glyph-name="quotedblbase" unicode="&#x201e;" horiz-adv-x="964" 
d="M293 0h-80q-62 14 -98.5 54.5t-36.5 107.5q0 76 51.5 123t128.5 47q90 0 143.5 -64t53.5 -168q0 -154 -98.5 -244.5t-282.5 -97.5v74q102 14 157 54t62 114zM725 0h-80q-62 14 -98.5 54.5t-36.5 107.5q0 76 51.5 123t128.5 47q90 0 143.5 -64t53.5 -168
q0 -154 -98.5 -244.5t-282.5 -97.5v74q102 14 157 54t62 114z" />
    <glyph glyph-name="dagger" unicode="&#x2020;" horiz-adv-x="761" 
d="M401 1194q0 -63 31.5 -115t75.5 -78v-16q-41 -60 -75 -249t-40 -406h-26q-6 216 -39.5 405t-73.5 250v16q43 26 74.5 78t31.5 115q-51 0 -121 -39t-108 -39t-64 26t-26 70t26 70.5t64 26.5t108 -38t121 -38q0 50 -37.5 120.5t-37.5 108.5t26 64t70 26t70 -26t26 -64
t-38 -108.5t-38 -120.5q50 0 120.5 38t109.5 38q38 0 64 -26.5t26 -70.5t-26 -70t-64 -26q-39 0 -109.5 39t-120.5 39z" />
    <glyph glyph-name="daggerdbl" unicode="&#x2021;" horiz-adv-x="786" 
d="M375 944q0 40 -29.5 71t-79.5 38v16q48 29 77.5 67t29.5 99q-51 0 -121.5 -39t-108.5 -39t-64 26t-26 70t26 70.5t64 26.5t108.5 -38t121.5 -38q0 40 -19 70.5t-38 57.5t-19 60q0 38 26 64t70 26t70 -26t26 -64q0 -26 -11.5 -49.5t-26 -38.5t-26 -41.5t-11.5 -58.5
q50 0 120 38t109 38q38 0 64 -26.5t26 -70.5t-26 -70t-64 -26q-39 0 -109 39t-120 39q0 -104 106 -166v-16q-51 -7 -79.5 -38t-28.5 -71q0 -41 28.5 -71.5t79.5 -36.5v-19q-106 -62 -106 -166q50 0 120 39t109 39q38 0 64 -26t26 -70t-26 -70t-64 -26q-39 0 -109 38.5
t-120 38.5q0 -33 11.5 -60t26 -42t26 -38.5t11.5 -49.5q0 -38 -26 -64t-70 -26t-70 26t-26 64q0 26 12 49.5t26 38.5t26 42t12 60q-51 0 -121.5 -38.5t-108.5 -38.5t-64 26t-26 70t26 70t64 26t108.5 -39t121.5 -39q0 61 -29.5 99t-77.5 67v19q50 6 79.5 36.5t29.5 71.5z
" />
    <glyph glyph-name="bullet" unicode="&#x2022;" horiz-adv-x="720" 
d="M61 627q0 126 88 214.5t211 88.5t211 -88.5t88 -214.5q0 -125 -88 -214t-211 -89t-211 89t-88 214z" />
    <glyph glyph-name="ellipsis" unicode="&#x2026;" horiz-adv-x="1531" 
d="M61 174q0 84 56.5 139.5t138.5 55.5q81 0 137 -55.5t56 -139.5t-56 -139t-137 -55q-83 0 -139 55t-56 139zM571 174q0 84 56.5 139.5t138.5 55.5q80 0 136 -55.5t56 -139.5t-55.5 -139t-136.5 -55q-83 0 -139 55t-56 139zM1081 174q0 84 56.5 139.5t138.5 55.5t138 -55.5
t56 -139.5t-56 -139t-138 -55q-83 0 -139 55t-56 139z" />
    <glyph glyph-name="perthousand" unicode="&#x2030;" horiz-adv-x="2357" 
d="M1528 330q0 -163 -102 -256.5t-248 -93.5t-247.5 93.5t-101.5 256.5q0 164 101.5 258t247.5 94t248 -94t102 -258zM297 -20l899 1478h100l-897 -1478h-102zM68 1108q0 163 101 256.5t247 93.5t247 -93.5t101 -256.5q0 -164 -101 -258t-247 -94t-247 94t-101 258z
M1319 330q0 129 -34 207.5t-107 78.5q-72 0 -106 -79t-34 -207q0 -127 34 -205t106 -78q73 0 107 78t34 205zM276 1108q0 -129 34 -208t106 -79q73 0 106 78.5t33 208.5q0 128 -33 205.5t-106 77.5q-72 0 -106 -78t-34 -205zM2081 330q0 83 -13.5 145t-46 101.5t-82.5 39.5
q-72 0 -105.5 -78.5t-33.5 -207.5q0 -127 33.5 -205t105.5 -78q50 0 82.5 39.5t46 100.5t13.5 143zM2290 330q0 -163 -102 -256.5t-249 -93.5q-93 0 -171 39t-127.5 120.5t-49.5 190.5q0 164 101.5 258t246.5 94q95 0 173.5 -39.5t128 -121t49.5 -191.5z" />
    <glyph glyph-name="guilsinglleft" unicode="&#x2039;" horiz-adv-x="575" 
d="M53 557v12l385 406h84l-200 -412l200 -411h-84z" />
    <glyph glyph-name="guilsinglright" unicode="&#x203a;" horiz-adv-x="575" 
d="M522 569v-12l-385 -405h-84l203 411l-203 412h84z" />
    <glyph glyph-name="fraction" unicode="&#x2044;" horiz-adv-x="579" 
d="M-213 -20l897 1478h104l-899 -1478h-102z" />
    <glyph glyph-name="Euro" unicode="&#x20ac;" horiz-adv-x="1368" 
d="M39 807v86h178q51 261 222 413t413 152q256 0 410 -127v-330h-91q-15 84 -38.5 148.5t-59 116.5t-87.5 80t-118 28q-91 0 -159 -69.5t-104 -174t-50 -237.5h430l-22 -86h-412q-2 -20 -2 -59q0 -68 2 -99h369l-21 -86h-344q44 -493 326 -493q133 0 209.5 94t142.5 303h86
l-31 -375q-182 -112 -428 -112q-281 0 -450.5 156t-202.5 427h-168v86h160v45q0 76 4 113h-164z" />
    <glyph glyph-name="uni2117" unicode="&#x2117;" horiz-adv-x="1605" 
d="M877 635h-105v-182q0 -46 26.5 -61.5t100.5 -18.5v-58h-422v58q58 1 75 16.5t17 63.5v540q0 47 -17 62t-75 16v57h397q157 0 238.5 -70t81.5 -171q0 -118 -79.5 -185t-237.5 -67zM772 1061v-365h53q85 0 128.5 50t43.5 137q0 78 -45.5 128t-130.5 50h-49zM139 719
q0 -184 84 -338t237 -245t343 -91q143 0 267.5 53.5t210.5 144.5t135.5 214.5t49.5 261.5t-49.5 261.5t-135.5 214.5t-210.5 144.5t-267.5 53.5q-190 0 -343 -91t-237 -245t-84 -338zM70 719q0 203 93 371.5t262 268t378 99.5t378 -99.5t262 -268t93 -371.5t-93 -371.5
t-262 -268t-378 -99.5t-378 99.5t-262 268t-93 371.5z" />
    <glyph glyph-name="trademark" unicode="&#x2122;" horiz-adv-x="1781" 
d="M721 1438l14 -224h-49q-21 48 -33 72t-31.5 51.5t-42.5 38t-53 10.5h-28v-509q0 -38 20 -51.5t72 -16.5v-51h-367v51q50 3 70 16.5t20 51.5v509h-28q-58 0 -90 -40t-70 -132h-49l14 224h631zM1217 1001l137 371q13 54 14 66h250v-56q-47 -1 -64.5 -20.5t-17.5 -58.5
l61 -437q4 -31 22 -42.5t60 -14.5v-51h-350v51q54 3 74 14.5t20 44.5q0 4 -1 16t-2.5 29.5t-2.5 30.5l-45 303l-174 -491h-72l-184 491l-41 -301q-6 -50 -6 -78q0 -33 19 -44.5t73 -14.5v-51h-248v51q42 3 60 15t22 42l62 437q-2 39 -20 58.5t-62 20.5v56h260q2 -28 14 -64z
" />
    <glyph glyph-name="Omega" unicode="&#x2126;" horiz-adv-x="1474" 
d="M737 1382q-79 0 -136 -45.5t-88.5 -126.5t-45.5 -176.5t-14 -212.5q0 -403 211 -653v-168h-531l-51 387h59q26 -49 41.5 -76t37 -52t37.5 -35.5t45 -19t58.5 -10t79.5 -1.5h138q-85 31 -165.5 91t-145.5 140t-104.5 184t-39.5 213q0 180 73 323.5t214 228.5t327 85
q140 0 256.5 -49t194.5 -135t121 -202.5t43 -250.5q0 -109 -39 -213t-104 -184t-145.5 -140t-166.5 -91h139q50 0 79.5 1.5t58.5 10t44.5 18.5t36.5 36t36 52t42 76h60l-52 -387h-530v168q211 246 211 653q0 116 -14 212t-45.5 177t-89 126.5t-136.5 45.5z" />
    <glyph glyph-name="uni2153" unicode="&#x2153;" horiz-adv-x="1609" 
d="M395 1458h60v-682q0 -51 26.5 -64.5t120.5 -19.5v-63h-520v63q100 6 124.5 19t24.5 65v461h-149v55l51 11q96 20 154 55t108 100zM305 -20l897 1478h105l-899 -1478h-103zM1268 451q119 -3 189.5 -63t70.5 -161q0 -114 -96 -179.5t-238 -65.5q-139 0 -212 49t-73 123
q0 34 16.5 58t39.5 34h127q-11 -28 -11 -58q0 -71 31.5 -110t91.5 -39q57 0 88 41.5t31 118.5q0 172 -184 172h-29l-12 41q93 34 130.5 70t37.5 93q0 45 -28.5 75t-84.5 30q-97 0 -164 -94l-47 32q44 91 123.5 149t191.5 58q104 0 163 -49.5t59 -132.5q0 -80 -61 -127.5
t-150 -64.5z" />
    <glyph glyph-name="uni2154" unicode="&#x2154;" horiz-adv-x="1703" 
d="M399 -20l897 1478h105l-899 -1478h-103zM1362 451q119 -3 189.5 -63t70.5 -161q0 -114 -96 -179.5t-238 -65.5q-139 0 -211.5 49t-72.5 123q0 34 16 58t39 34h127q-10 -25 -10 -58q0 -71 31.5 -110t90.5 -39q57 0 88 41.5t31 118.5q0 172 -184 172h-29l-12 41
q93 34 130.5 70t37.5 93q0 45 -28.5 75t-84.5 30q-97 0 -164 -94l-47 32q44 91 124 149t192 58q104 0 162.5 -49.5t58.5 -132.5q0 -80 -61 -127.5t-150 -64.5zM293 801h219q54 0 79 17t64 77h39l-24 -272h-609v45l230 215q83 81 118 142.5t35 131.5q0 67 -36 104t-103 37
q-108 0 -188 -92l-37 33q46 92 129 152.5t197 60.5q117 0 182 -61.5t65 -171.5q0 -26 -4 -50t-15.5 -48t-20.5 -43t-30.5 -43t-34.5 -39t-44 -40t-46 -37.5t-53 -39.5t-53.5 -37.5t-58.5 -40.5z" />
    <glyph glyph-name="uni215B" unicode="&#x215b;" horiz-adv-x="1679" 
d="M395 1458h66v-682q0 -51 26.5 -64.5t120.5 -19.5v-63h-526v63q100 6 124.5 19t24.5 65v461h-149v55l51 11q96 20 154 55t108 100zM305 -20l897 1478h105l-899 -1478h-103zM1561 639q0 -67 -53.5 -110.5t-127.5 -51.5q104 -40 158.5 -103t54.5 -143q0 -123 -92.5 -187
t-228.5 -64q-142 0 -237 54.5t-95 149.5q0 69 53 114.5t135 59.5q-159 75 -159 220q0 115 83.5 184t217.5 69q132 0 211.5 -52t79.5 -140zM1315 281l-148 61q-63 -51 -63 -141q0 -71 48.5 -114.5t121.5 -43.5q65 0 105 31.5t40 81.5q0 47 -24.5 72.5t-79.5 52.5zM1235 539
l104 -45q62 48 62 135q0 64 -37 101.5t-100 37.5q-56 0 -89.5 -32.5t-33.5 -78.5q0 -77 94 -118z" />
    <glyph glyph-name="uni215C" unicode="&#x215c;" horiz-adv-x="1716" 
d="M1599 639q0 -67 -53.5 -110.5t-128.5 -51.5q104 -40 159.5 -103t55.5 -143q0 -123 -92.5 -187t-230.5 -64q-142 0 -236 54.5t-94 149.5q0 69 52.5 114.5t135.5 59.5q-161 74 -161 220q0 114 84 183.5t217 69.5t212.5 -52t79.5 -140zM1352 281l-148 61q-61 -52 -61 -141
q0 -71 48.5 -114.5t121.5 -43.5q64 0 104.5 31.5t40.5 81.5q0 47 -25 72.5t-81 52.5zM1272 539l106 -45q62 50 62 135q0 64 -37 101.5t-100 37.5q-56 0 -89.5 -32.5t-33.5 -78.5q0 -78 92 -118zM344 -20l897 1478h102l-897 -1478h-102zM436 1085q119 -5 189.5 -64.5
t70.5 -158.5q0 -115 -96 -180.5t-238 -65.5q-139 0 -211.5 49t-72.5 123q0 64 55 93h127q-10 -29 -10 -58q0 -71 32 -111t91 -40q58 0 90.5 40.5t32.5 118.5q0 84 -48.5 128.5t-140.5 44.5h-28l-13 43q93 33 133.5 69.5t40.5 89.5q0 47 -30.5 77t-87.5 30q-97 0 -164 -94
l-47 32q44 92 123.5 149.5t191.5 57.5q105 0 163 -49t58 -133q0 -78 -61 -126t-150 -65z" />
    <glyph glyph-name="uni215D" unicode="&#x215d;" horiz-adv-x="1705" 
d="M334 -20l897 1478h102l-899 -1478h-100zM668 1487l-45 -238h-361l-16 -94q99 -2 175 -17t135.5 -47t90.5 -86.5t31 -130.5q0 -120 -82 -190t-215 -70q-136 0 -216.5 48.5t-80.5 121.5q0 33 19 60t44 37h119q-10 -29 -10 -60q0 -69 32 -109t99 -40q62 0 96.5 36.5
t34.5 96.5q0 96 -89 143t-273 49l75 441h297q39 0 54 8.5t32 40.5h54zM1587 639q0 -67 -53 -110.5t-127 -51.5q104 -40 158.5 -103t54.5 -143q0 -83 -46.5 -141.5t-117 -84t-158.5 -25.5q-142 0 -236.5 54.5t-94.5 149.5q0 69 53 114.5t137 59.5q-162 74 -162 220
q0 115 83.5 184t217.5 69q133 0 212 -52t79 -140zM1341 281l-147 61q-64 -52 -64 -141q0 -71 49 -114.5t124 -43.5q64 0 103.5 31.5t39.5 81.5q0 47 -25 72.5t-80 52.5zM1262 539l104 -45q61 47 61 135q0 64 -37 101.5t-100 37.5q-56 0 -89.5 -32.5t-33.5 -78.5
q0 -76 95 -118z" />
    <glyph glyph-name="uni215E" unicode="&#x215e;" horiz-adv-x="1562" 
d="M567 1233h-303q-45 0 -73.5 -29t-53.5 -98h-67l63 332h602v-52l-405 -768h-148zM188 -20l897 1478h103l-897 -1478h-103zM1444 639q0 -67 -53 -110.5t-127 -51.5q104 -40 158.5 -103t54.5 -143q0 -123 -93 -187t-231 -64q-142 0 -236 54.5t-94 149.5q0 69 52.5 114.5
t136.5 59.5q-162 76 -162 220q0 115 84 184t219 69q132 0 211.5 -52t79.5 -140zM1196 281l-145 61q-64 -52 -64 -141q0 -71 48.5 -114.5t121.5 -43.5q64 0 105 31.5t41 81.5q0 46 -25.5 71.5t-81.5 53.5zM1116 539l107 -45q61 47 61 135q0 64 -37 101.5t-100 37.5
q-56 0 -89.5 -32.5t-33.5 -78.5q0 -76 92 -118z" />
    <glyph glyph-name="partialdiff" unicode="&#x2202;" horiz-adv-x="1185" 
d="M563 1112q63 0 115 -23.5t82 -62.5q-28 86 -72 162t-108 146.5t-154.5 125.5t-200.5 86l35 64q184 -30 333.5 -97.5t250.5 -158.5t169.5 -205.5t99 -237.5t30.5 -256q0 -308 -147.5 -491.5t-405.5 -183.5q-245 0 -396 155.5t-151 399.5q0 129 43.5 239t115.5 183t166 114
t195 41zM602 59q193 0 193 430q0 165 -20.5 284t-68 190t-120.5 71q-193 0 -193 -430q0 -165 20.5 -284t68 -190t120.5 -71z" />
    <glyph glyph-name="Delta" unicode="&#x2206;" horiz-adv-x="1349" 
d="M1315 0h-1282v76l588 1362h94l600 -1362v-76zM557 1032l-399 -932h794z" />
    <glyph glyph-name="product" unicode="&#x220f;" horiz-adv-x="1617" 
d="M1063 1348h-510v-1532q0 -83 26 -106.5t132 -35.5v-77h-662v77q104 12 130 35.5t26 106.5v1403q0 83 -25.5 106t-130.5 35v78h1520v-78q-105 -12 -130.5 -35t-25.5 -106v-1403q0 -83 26 -106.5t130 -35.5v-77h-662v77q105 12 130.5 35t25.5 107v1532z" />
    <glyph glyph-name="summation" unicode="&#x2211;" horiz-adv-x="1202" 
d="M264 -133h467q53 0 82.5 1.5t65.5 8t59 19.5t51 36t53.5 57.5t55.5 84.5h71l-82 -477h-1075v86l578 774l-553 882v99h1077v-373h-67q-21 44 -32.5 67.5t-29.5 56.5t-31 50t-32.5 39t-38 32.5t-43 21t-53 14.5t-62.5 4h-326l441 -701v-22z" />
    <glyph glyph-name="minus" unicode="&#x2212;" horiz-adv-x="1169" 
d="M133 692v131h903v-131h-903z" />
    <glyph glyph-name="radical" unicode="&#x221a;" horiz-adv-x="1210" 
d="M705 434l387 1024h108l-559 -1458h-137l-285 909q-19 63 -45 87.5t-80 27.5l-53 4v82h473z" />
    <glyph glyph-name="infinity" unicode="&#x221e;" horiz-adv-x="1538" 
d="M709 717l-91 104q-91 111 -206 111q-86 0 -144.5 -58.5t-58.5 -156.5q0 -100 58.5 -158.5t144.5 -58.5q118 0 206 108zM768 618l-70 -81q-63 -72 -133 -110t-162 -38q-134 0 -225.5 89t-91.5 239q0 149 91.5 237t225.5 88q171 0 295 -147l70 -84l72 84q124 147 295 147
q134 0 225.5 -88t91.5 -237q0 -150 -91.5 -239t-225.5 -89q-170 0 -295 148zM926 821l-92 -104l92 -109q89 -108 209 -108q85 0 142.5 58.5t57.5 158.5q0 98 -57.5 156.5t-142.5 58.5q-118 0 -209 -111z" />
    <glyph glyph-name="integral" unicode="&#x222b;" horiz-adv-x="884" 
d="M530 1231v-1163q0 -239 -109.5 -354t-301.5 -115q-127 0 -203 48t-76 134q0 76 70 121h156v-111q0 -58 14.5 -90.5t54.5 -32.5q24 0 41 12.5t25 36.5t11 49.5t3 59.5v1163q0 239 110 354t302 115q127 0 202.5 -48t75.5 -134q0 -77 -69 -121h-156v111q0 58 -14.5 90.5
t-55.5 32.5q-24 0 -41 -12.5t-25 -36.5t-11 -49.5t-3 -59.5z" />
    <glyph glyph-name="approxequal" unicode="&#x2248;" horiz-adv-x="1189" 
d="M143 797v133q125 84 244 84q79 0 207.5 -41t206.5 -41q121 0 248 84v-133q-127 -84 -248 -84q-78 0 -206.5 41t-207.5 41q-119 0 -244 -84zM143 512v131q122 82 244 82q79 0 207.5 -39t206.5 -39q123 0 248 80v-131q-124 -82 -248 -82q-78 0 -206.5 39t-207.5 39
q-120 0 -244 -80z" />
    <glyph glyph-name="notequal" unicode="&#x2260;" horiz-adv-x="1189" 
d="M143 842v127h541l158 215h139l-158 -215h226v-127h-320l-125 -172h445v-123h-535l-160 -217h-139l160 217h-232v123h322l125 172h-447z" />
    <glyph glyph-name="lessequal" unicode="&#x2264;" horiz-adv-x="905" 
d="M106 821v17l646 348v-148l-400 -209l400 -208v-148zM106 274v129h646v-129h-646z" />
    <glyph glyph-name="greaterequal" unicode="&#x2265;" horiz-adv-x="905" 
d="M799 838v-17l-645 -348v148l399 208l-399 209v148zM799 403v-129h-645v129h645z" />
    <glyph glyph-name="lozenge" unicode="&#x25ca;" horiz-adv-x="1140" 
d="M70 719l415 719h168l418 -719l-418 -719h-168zM930 719l-361 624l-360 -624l360 -623z" />
    <glyph glyph-name="i.dot" horiz-adv-x="647" 
d="M496 1114v-956q0 -49 25 -64t95 -20v-74h-571v74q71 5 96 20.5t25 63.5v723l-119 71v47l393 115h56zM334 1227q-81 0 -131.5 51.5t-50.5 124.5t50.5 123.5t131.5 50.5q82 0 133 -50.5t51 -123.5t-51 -124.5t-133 -51.5z" />
    <glyph glyph-name="space_uni0326" 
d="M537 -315h-107q-94 22 -94 114q0 55 41.5 89t111.5 34q83 0 132 -51t49 -129q0 -106 -79 -170t-239 -64v68q87 0 135 32t50 77z" />
    <glyph glyph-name="space_uni0326.alt" 
d="M469 1458h106q95 -22 95 -115q0 -54 -42 -88t-112 -34q-83 0 -131.5 50.5t-48.5 129.5q0 106 78.5 169.5t238.5 63.5v-67q-87 0 -134.5 -31.5t-49.5 -77.5z" />
    <glyph glyph-name="space_dotbelowcomb" 
d="M512 -406q-78 0 -128 50t-50 120q0 71 50 120.5t128 49.5q80 0 129 -49.5t49 -120.5q0 -70 -49.5 -120t-128.5 -50z" />
    <glyph glyph-name="caron.Slovak" 
d="M694 1585l-231 -401h-68l29 420h270v-19z" />
    <glyph glyph-name="cedilla.alt" 
d="M315 -467l-16 66q106 0 163.5 28.5t57.5 73.5q0 40 -40 56.5t-124 19.5l56 137h59q105 0 164 -42.5t59 -121.5q0 -72 -53 -122t-136.5 -72.5t-189.5 -22.5z" />
    <glyph glyph-name="grave.cap" 
d="M279 1831h329l103 -305h-95l-337 289v16z" />
    <glyph glyph-name="acute.cap" 
d="M381 1831h330v-16l-338 -289h-94z" />
    <glyph glyph-name="circumflex.cap" 
d="M625 1843l249 -317h-98l-264 155l-264 -155h-98l249 317h226z" />
    <glyph glyph-name="tilde.cap" 
d="M635 1526q-42 0 -85 19t-72 42.5t-64.5 42.5t-65.5 19q-40 0 -72 -28.5t-67 -86.5l-64 35q58 142 109.5 204t126.5 62q42 0 85 -19t72 -42.5t64.5 -42.5t65.5 -19q74 0 139 115l63 -35q-56 -141 -107.5 -203.5t-127.5 -62.5z" />
    <glyph glyph-name="macron.cap" 
d="M225 1550v158h592v-158h-592z" />
    <glyph glyph-name="breve.cap" 
d="M522 1520q-141 0 -220 82.5t-79 236.5h84q26 -147 215 -147q191 0 217 147h84q0 -154 -79.5 -236.5t-221.5 -82.5z" />
    <glyph glyph-name="dotaccent.cap" 
d="M512 1526q-81 0 -131.5 50.5t-50.5 123.5t50.5 123.5t131.5 50.5q82 0 133 -50.5t51 -123.5t-51 -123.5t-133 -50.5z" />
    <glyph glyph-name="dieresis.cap" 
d="M150 1686q0 65 47 111t114 46q66 0 114 -46.5t48 -110.5q0 -66 -48 -113t-114 -47q-67 0 -114 47t-47 113zM565 1686q0 64 47.5 110.5t112.5 46.5q67 0 114.5 -46t47.5 -111q0 -66 -47.5 -113t-114.5 -47q-65 0 -112.5 47t-47.5 113z" />
    <glyph glyph-name="ring.cap" 
d="M422 1690q0 -46 27.5 -76.5t76.5 -30.5q48 0 76.5 30.5t28.5 76.5q0 48 -28.5 79t-76.5 31q-50 0 -77 -30.5t-27 -79.5zM322 1690q0 87 57.5 143.5t146.5 56.5q88 0 145.5 -57t57.5 -143q0 -84 -58 -140.5t-145 -56.5q-89 0 -146.5 56.5t-57.5 140.5z" />
    <glyph glyph-name="hungarumlaut.cap" 
d="M268 1831h279v-16l-295 -289h-92zM616 1831h281v-16l-297 -289h-92z" />
    <glyph glyph-name="caron.cap" 
d="M874 1843l-249 -315h-226l-249 315h98l264 -155l264 155h98z" />
    <glyph glyph-name="exclamdown.cap" horiz-adv-x="571" 
d="M104 1274q0 75 53.5 129.5t127.5 54.5q76 0 129 -54t53 -130q0 -78 -53 -132.5t-129 -54.5q-74 0 -127.5 54.5t-53.5 132.5zM236 975h98l151 -975h-399z" />
    <glyph glyph-name="questiondown.cap" horiz-adv-x="933" 
d="M301 227q0 -81 42 -128.5t120 -47.5q85 0 125.5 59.5t40.5 147.5q0 63 -8 113h206q72 -41 72 -125q0 -119 -120 -192.5t-312 -73.5q-208 0 -323 89.5t-115 256.5q0 122 70 211.5t212 179.5q90 56 126 105t36 126v37h43q60 -29 97.5 -86.5t37.5 -132.5q0 -143 -162 -266
q-50 -38 -75 -60t-56 -57t-44 -72.5t-13 -83.5zM674 1274q0 -78 -53.5 -132.5t-128.5 -54.5t-129 54.5t-54 132.5q0 75 54 129.5t129 54.5t128.5 -54.5t53.5 -129.5z" />
    <glyph glyph-name="guilsinglleft.cap" horiz-adv-x="575" 
d="M53 719v12l385 406h84l-200 -412l200 -412h-84z" />
    <glyph glyph-name="guilsinglright.cap" horiz-adv-x="575" 
d="M522 731v-12l-385 -406h-84l203 412l-203 412h84z" />
    <glyph glyph-name="guillemotleft.cap" horiz-adv-x="948" 
d="M53 719v12l385 406h84l-200 -412l200 -412h-84zM426 719v12l385 406h86l-203 -412l203 -412h-86z" />
    <glyph glyph-name="guillemotright.cap" horiz-adv-x="948" 
d="M897 731v-12l-387 -406h-84l203 412l-203 412h84zM522 731v-12l-385 -406h-84l203 412l-203 412h84z" />
    <glyph glyph-name="slash.cap" horiz-adv-x="745" 
d="M721 1577l-555 -1784h-139l553 1784h141z" />
    <glyph glyph-name="backslash.cap" horiz-adv-x="745" 
d="M580 -207l-553 1784h139l555 -1784h-141z" />
    <glyph glyph-name="bar.cap" horiz-adv-x="425" 
d="M279 1577v-1784h-132v1784h132z" />
    <glyph glyph-name="brokenbar.cap" horiz-adv-x="425" 
d="M279 1577v-760h-132v760h132zM279 553v-760h-132v760h132z" />
    <glyph glyph-name="periodcentered.cap" horiz-adv-x="507" 
d="M61 719q0 84 56 139t137 55t136.5 -55t55.5 -139q0 -82 -56 -136.5t-136 -54.5q-81 0 -137 54.5t-56 136.5z" />
    <glyph glyph-name="bullet.cap" horiz-adv-x="720" 
d="M61 723q0 126 88 215.5t211 89.5t211 -89.5t88 -215.5q0 -123 -88 -212t-211 -89t-211 89t-88 212z" />
    <glyph glyph-name="hyphen.cap" horiz-adv-x="655" 
d="M594 653h-533v144h533v-144z" />
    <glyph glyph-name="endash.cap" horiz-adv-x="1105" 
d="M1044 664h-983v110h983v-110z" />
    <glyph glyph-name="emdash.cap" horiz-adv-x="1966" 
d="M1905 774v-110h-1844v110h1844z" />
    <glyph glyph-name="parenleft.cap" horiz-adv-x="741" 
d="M373 684q0 -531 319 -893h-104q-214 168 -339.5 406t-125.5 487t125.5 487t339.5 406h104q-319 -362 -319 -893z" />
    <glyph glyph-name="parenright.cap" horiz-adv-x="741" 
d="M369 684q0 530 -320 893h105q214 -167 339 -405t125 -488t-125 -488t-339 -405h-105q320 363 320 893z" />
    <glyph glyph-name="bracketleft.cap" horiz-adv-x="675" 
d="M385 1380v-1390q0 -75 41.5 -95t175.5 -28v-74h-428v1784h428v-74q-134 -8 -175.5 -28t-41.5 -95z" />
    <glyph glyph-name="bracketright.cap" horiz-adv-x="675" 
d="M293 -10v1390q0 32 -8 52.5t-20.5 33.5t-43.5 20t-60 10t-87 7v74h428v-1784h-428v74q58 4 87 7t60 10t43.5 20t20.5 33.5t8 52.5z" />
    <glyph glyph-name="braceleft.cap" horiz-adv-x="739" 
d="M102 668v32q170 35 170 205v410q0 125 99.5 193.5t300.5 68.5v-55q-180 -21 -180 -201v-395q0 -107 -57.5 -160t-174.5 -82q116 -27 174 -80.5t58 -161.5v-391q0 -180 180 -201v-55q-201 0 -300.5 68.5t-99.5 193.5v406q0 170 -170 205z" />
    <glyph glyph-name="braceright.cap" horiz-adv-x="751" 
d="M649 700v-32q-170 -35 -170 -205v-406q0 -125 -100 -193.5t-299 -68.5v55q178 21 178 201v391q0 107 58 161t173 81q-116 29 -173.5 82t-57.5 160v395q0 180 -178 201v55q199 0 299 -68.5t100 -193.5v-410q0 -170 170 -205z" />
    <glyph glyph-name="at.cap" horiz-adv-x="1794" 
d="M1231 279q-62 0 -108 18.5t-72.5 50.5t-39.5 76.5t-12.5 94.5t11.5 106q-84 -165 -169.5 -254.5t-191.5 -89.5q-91 0 -148 69.5t-57 190.5q0 107 41.5 214.5t110.5 192t167 138t202 53.5q64 0 114.5 -23t79.5 -57l148 69h69l-65 -186l-111 -412q-11 -47 -12.5 -87
t18 -66.5t58.5 -26.5q85 0 153.5 71.5t106 194.5t37.5 271q0 118 -38.5 222t-109.5 183t-181 124.5t-245 45.5q-168 0 -309.5 -68.5t-236 -184t-147 -268t-52.5 -320.5q0 -158 51 -285t141.5 -209.5t212 -126t264.5 -43.5q166 0 292 36.5t263 117.5l25 -37
q-111 -98 -269 -154.5t-343 -56.5q-170 0 -316 50t-255.5 144t-171.5 237.5t-62 321.5q0 147 43.5 286t125.5 253.5t192.5 200.5t253 134t298.5 48q170 0 309.5 -51t231.5 -139t142 -206.5t50 -254.5q0 -137 -41.5 -254t-110.5 -193t-156.5 -118.5t-180.5 -42.5zM760 440
q57 0 121.5 78.5t120 207.5t90.5 278q-27 67 -103 67q-81 0 -152.5 -83.5t-110 -200t-38.5 -224.5q0 -57 18 -90t54 -33z" />
    </font>
</defs>
</svg>
