<?xml version="1.0" standalone="no"?>
<!DOCTYPE svg PUBLIC "-//W3C//DTD SVG 1.1//EN" "http://www.w3.org/Graphics/SVG/1.1/DTD/svg11.dtd" >
<svg xmlns="http://www.w3.org/2000/svg" xmlns:xlink="http://www.w3.org/1999/xlink" version="1.1">
<metadata>
Created by FontForge 20170731 at Tue Jul  5 13:16:08 2022
 By Aleksey,,,
(c) 2010 Klim Type Foundry. All rights reserved.
</metadata>
<defs>
<font id="TiemposHeadline-LightItalic" horiz-adv-x="1024" >
  <font-face 
    font-family="Tiempos Headline Light"
    font-weight="300"
    font-style="italic"
    font-stretch="normal"
    units-per-em="2048"
    panose-1="2 2 3 3 6 3 3 13 4 3"
    ascent="1604"
    descent="-444"
    x-height="1085"
    cap-height="1438"
    bbox="-375 -463 2238 2116"
    underline-thickness="61"
    underline-position="-265"
    slope="-12"
    unicode-range="U+0020-FB04"
  />
<missing-glyph horiz-adv-x="1966" 
d="M184 0v1597h1598v-1597h-1598zM983 707l-571 -572h1142zM412 1462l571 -571l571 571h-1142zM891 799l-563 563v-1126zM1075 799l563 -563v1126z" />
    <glyph glyph-name="ff" unicode="ff" horiz-adv-x="1167" 
d="M696 190l146 775h-406l-149 -656q-63 -276 -131 -435.5t-151 -228.5t-198 -69q-79 0 -128.5 34.5t-49.5 94.5q0 51 33 79.5t80 39.5h18q7 -85 41 -137t80 -52q31 0 52 15t47 66t53 158.5t59 281.5l148 809h-160l12 49l164 37q52 229 197 370.5t321 141.5q172 0 264 -105
q123 146 279 146q95 0 149 -41.5t54 -110.5q0 -48 -31.5 -80.5t-87.5 -46.5h-23q0 93 -30 156t-93 63q-68 0 -125.5 -137t-87.5 -365h242l-18 -77h-232l-143 -621q-63 -276 -131 -435.5t-150.5 -228.5t-197.5 -69q-76 0 -117 33.5t-41 95.5q0 51 33 79.5t80 39.5h18
q1 -88 26 -138.5t64 -50.5q46 0 75.5 31.5t66 147t79.5 341.5zM739 1499q-111 0 -189 -116.5t-104 -340.5h410q26 142 90 273q-27 87 -79.5 135.5t-127.5 48.5z" />
    <glyph glyph-name="fi" unicode="fi" horiz-adv-x="1128" 
d="M866 1042l160 43h21l-213 -847q-19 -74 -19 -91q0 -30 29 -30q59 0 184 153l31 -22q-98 -146 -164 -207t-135 -61q-58 0 -89.5 37.5t-31.5 101.5q0 63 29 176l170 670h-402l-149 -656q-63 -276 -131 -435.5t-151 -228.5t-198 -69q-79 0 -128.5 34.5t-49.5 94.5
q0 51 33 79.5t80 39.5h18q7 -85 41 -137t80 -52q31 0 51.5 15t46.5 66t53 158t60 282l148 809h-160l12 49l164 37q34 156 107 279.5t181 198.5t232 75q108 0 169 -41.5t61 -110.5q0 -53 -35 -85.5t-99 -41.5h-24q11 94 -23.5 154.5t-103.5 60.5q-108 0 -178 -129.5
t-97 -368.5h420z" />
    <glyph glyph-name="fl" unicode="fl" horiz-adv-x="1130" 
d="M684 965h-248l-149 -656q-63 -276 -131 -435.5t-151 -228.5t-198 -69q-79 0 -128.5 34.5t-49.5 94.5q0 51 33 79.5t80 39.5h18q7 -85 41 -137t80 -52q31 0 51.5 15t46.5 66t53 158t60 282l148 809h-160l12 49l164 37q35 156 106 279.5t178.5 198.5t231.5 75q60 0 118 -20
t99 -52l162 72h20l-335 -1366q-19 -74 -19 -91q0 -30 29 -30q59 0 184 153l31 -22q-98 -146 -164 -207t-135 -61q-58 0 -89.5 37.5t-31.5 101.5q0 50 29 176l272 1096q-22 66 -71.5 107.5t-112.5 41.5q-257 0 -312 -498h256z" />
    <glyph glyph-name="ffi" unicode="ffi" horiz-adv-x="1728" 
d="M1438 965h-402l-145 -621q-65 -277 -132.5 -435.5t-149.5 -228t-197 -69.5q-76 0 -117 33.5t-41 95.5q0 51 33 79.5t80 39.5h18q1 -88 26 -138.5t64 -50.5q46 0 76 31.5t66.5 147.5t78.5 341l144 775h-404l-149 -656q-63 -276 -131 -435.5t-151 -228.5t-198 -69
q-79 0 -128.5 34.5t-49.5 94.5q0 51 33 79.5t80 39.5h18q7 -85 41 -137t80 -52q31 0 52 15t47 66t53 158.5t59 281.5l148 809h-160l12 49l164 37q52 229 197 370.5t321 141.5q183 0 275 -117q145 158 327 158q108 0 169 -41.5t61 -110.5q0 -53 -34.5 -85.5t-98.5 -41.5h-25
q11 94 -23.5 154.5t-103.5 60.5q-108 0 -177.5 -129.5t-96.5 -368.5h419l160 43h21l-213 -847q-19 -74 -19 -91q0 -30 29 -30q59 0 184 153l31 -22q-98 -146 -164 -207t-135 -61q-58 0 -89.5 37.5t-31.5 101.5q0 63 29 176zM739 1499q-111 0 -189 -116.5t-104 -340.5h408
l2 7q31 141 94 256q-58 194 -211 194z" />
    <glyph glyph-name="ffl" unicode="ffl" horiz-adv-x="1730" 
d="M1284 965h-248l-145 -621q-65 -277 -132.5 -435.5t-149.5 -228t-197 -69.5q-76 0 -117 33.5t-41 95.5q0 51 33 79.5t80 39.5h18q1 -88 26 -138.5t64 -50.5q46 0 76 31.5t66.5 147.5t78.5 341l144 775h-404l-149 -656q-63 -276 -131 -435.5t-151 -228.5t-198 -69
q-79 0 -128.5 34.5t-49.5 94.5q0 51 33 79.5t80 39.5h18q7 -85 41 -137t80 -52q31 0 52 15t47 66t53 158.5t59 281.5l148 809h-160l12 49l164 37q52 229 197 370.5t321 141.5q185 0 275 -115q143 156 323 156q60 0 118 -20t99 -52l162 72h21l-336 -1366q-19 -74 -19 -91
q0 -30 29 -30q59 0 184 153l31 -22q-98 -146 -164 -207t-135 -61q-58 0 -89.5 37.5t-31.5 101.5q0 50 29 176l272 1096q-22 66 -71.5 107.5t-112.5 41.5q-256 0 -311 -498h256zM856 1049q31 144 94 258q-27 90 -80.5 141t-130.5 51q-111 0 -189 -116.5t-104 -340.5h408z" />
    <glyph glyph-name="f_b" unicode="fb" horiz-adv-x="1683" 
d="M651 227l291 1164q-22 66 -71.5 107.5t-112.5 41.5q-257 0 -312 -498h256l-18 -77h-248l-149 -656q-63 -276 -131 -435.5t-151 -228.5t-198 -69q-79 0 -128.5 34.5t-49.5 94.5q0 51 33 79.5t80 39.5h18q7 -85 41 -137t80 -52q31 0 51.5 15t46.5 66t53 158t60 282l148 809
h-160l12 49l164 37q35 156 106 279.5t178.5 198.5t231.5 75q60 0 118 -20t99 -52l162 72h20l-258 -1031q91 201 240 356.5t266 155.5q102 0 160.5 -80t58.5 -219q0 -156 -59.5 -307t-152 -259t-208.5 -174t-225 -66q-123 0 -220.5 67.5t-121.5 179.5zM1354 956
q-49 0 -110 -37t-126.5 -109.5t-125.5 -168.5t-110.5 -225.5t-78.5 -268.5q17 -53 68.5 -79.5t111.5 -26.5q121 0 232.5 113t176.5 281.5t66 334.5q0 186 -104 186z" />
    <glyph glyph-name="f_f_b" unicode="ffb" horiz-adv-x="2283" 
d="M1284 965h-248l-145 -621q-65 -277 -132.5 -435.5t-149.5 -228t-197 -69.5q-76 0 -117 33.5t-41 95.5q0 51 33 79.5t80 39.5h18q1 -88 26 -138.5t64 -50.5q46 0 76 31.5t66.5 147.5t78.5 341l144 775h-404l-149 -656q-63 -276 -131 -435.5t-151 -228.5t-198 -69
q-79 0 -128.5 34.5t-49.5 94.5q0 51 33 79.5t80 39.5h18q7 -85 41 -137t80 -52q31 0 52 15t47 66t53 158.5t59 281.5l148 809h-160l12 49l164 37q52 229 197 370.5t321 141.5q185 0 275 -115q143 156 323 156q60 0 118 -20t99 -52l162 72h21l-259 -1031q91 201 240 356.5
t266 155.5q102 0 160.5 -80t58.5 -219q0 -156 -59.5 -307t-152 -259t-208.5 -174t-225 -66q-123 0 -220.5 67.5t-121.5 179.5l291 1164q-22 66 -71.5 107.5t-112.5 41.5q-256 0 -311 -498h256zM1954 956q-49 0 -110 -37t-126.5 -109.5t-125.5 -168.5t-110.5 -225.5
t-78.5 -268.5q17 -53 68.5 -79.5t111.5 -26.5q121 0 232.5 113t176.5 281.5t66 334.5q0 186 -104 186zM856 1049q31 144 94 258q-27 90 -80.5 141t-130.5 51q-111 0 -189 -116.5t-104 -340.5h408z" />
    <glyph glyph-name="f_h" unicode="fh" horiz-adv-x="1687" 
d="M594 0l348 1391q-22 66 -71.5 107.5t-112.5 41.5q-257 0 -312 -498h256l-18 -77h-248l-149 -656q-63 -276 -131 -435.5t-151 -228.5t-198 -69q-79 0 -128.5 34.5t-49.5 94.5q0 51 33 79.5t80 39.5h18q7 -85 41 -137t80 -52q31 0 51.5 15t46.5 66t53 158t60 282l148 809
h-160l12 49l164 37q35 156 106 279.5t178.5 198.5t231.5 75q60 0 118 -20t99 -52l162 72h20l-262 -1026q45 83 105.5 167t133 162.5t154 128t152.5 49.5q72 0 101.5 -36.5t29.5 -108.5q0 -36 -12 -90l-162 -612q-18 -70 -18 -91q0 -30 28 -30q60 0 185 153l30 -22
q-98 -146 -164 -207t-135 -61q-58 0 -89 37.5t-31 101.5q0 67 28 176l152 563q10 45 10 68q0 43 -37 43q-38 0 -94 -33t-119 -96t-123 -143.5t-111 -186t-77 -213.5l-74 -297h-178z" />
    <glyph glyph-name="f_f_h" unicode="ffh" horiz-adv-x="2287" 
d="M1194 0l348 1391q-22 66 -71.5 107.5t-112.5 41.5q-256 0 -311 -498h256l-19 -77h-248l-145 -621q-65 -277 -132.5 -435.5t-149.5 -228t-197 -69.5q-76 0 -117 33.5t-41 95.5q0 51 33 79.5t80 39.5h18q1 -88 26 -138.5t64 -50.5q46 0 76 31.5t66.5 147.5t78.5 341
l144 775h-404l-149 -656q-63 -276 -131 -435.5t-151 -228.5t-198 -69q-79 0 -128.5 34.5t-49.5 94.5q0 51 33 79.5t80 39.5h18q7 -85 41 -137t80 -52q31 0 52 15t47 66t53 158.5t59 281.5l148 809h-160l12 49l164 37q52 229 197 370.5t321 141.5q185 0 275 -115
q143 156 323 156q60 0 118 -20t99 -52l162 72h21l-263 -1026q45 83 105.5 167t133 162.5t154 128t152.5 49.5q72 0 101.5 -36.5t29.5 -108.5q0 -36 -12 -90l-162 -612q-18 -70 -18 -91q0 -30 28 -30q60 0 185 153l30 -22q-98 -146 -164 -207t-135 -61q-58 0 -89 37.5
t-31 101.5q0 67 28 176l152 563q10 45 10 68q0 43 -37 43q-38 0 -94 -33t-119 -96t-123 -143.5t-111 -186t-77 -213.5l-74 -297h-178zM739 1499q-111 0 -189 -116.5t-104 -340.5h408l2 7q31 144 94 258q-27 90 -80.5 141t-130.5 51z" />
    <glyph glyph-name="f_idieresis" unicode="f&#xef;" horiz-adv-x="1128" 
d="M866 1042l160 43h21l-213 -847q-19 -74 -19 -91q0 -30 29 -30q59 0 184 153l31 -22q-98 -146 -164 -207t-135 -61q-58 0 -89.5 37.5t-31.5 101.5q0 63 29 176l170 670h-402l-149 -656q-63 -276 -131 -435.5t-151 -228.5t-198 -69q-79 0 -128.5 34.5t-49.5 94.5
q0 51 33 79.5t80 39.5h18q7 -85 41 -137t80 -52q31 0 51.5 15t46.5 66t53 158t60 282l148 809h-160l12 49l164 37q20 118 58 216.5t93.5 175t132.5 119t169 42.5q114 0 175.5 -56t61.5 -145q0 -66 -41.5 -110t-118.5 -50h-26q16 68 14 134.5t-36 115.5t-91 49
q-48 0 -83 -34.5t-57.5 -105.5t-36 -154t-24.5 -206h420zM1157 1245q-52 0 -85.5 34t-33.5 85q0 54 38 92.5t91 38.5q52 0 85.5 -34t33.5 -85q0 -54 -38 -92.5t-91 -38.5z" />
    <glyph glyph-name="f_f_idieresis" unicode="ff&#xef;" horiz-adv-x="1728" 
d="M696 190l144 775h-404l-149 -656q-63 -276 -131 -435.5t-151 -228.5t-198 -69q-79 0 -128.5 34.5t-49.5 94.5q0 51 33 79.5t80 39.5h18q7 -85 41 -137t80 -52q31 0 52 15t47 66t53 158.5t59 281.5l148 809h-160l12 49l164 37q52 229 197 370.5t321 141.5q161 0 256 -95
q117 136 279 136q114 0 175.5 -56t61.5 -145q0 -66 -41.5 -110t-118.5 -50h-26q16 68 14 134.5t-36 115.5t-91 49q-39 0 -69.5 -24t-51 -64.5t-36 -107t-25 -136.5t-18.5 -168h419l160 43h21l-213 -847q-19 -74 -19 -91q0 -30 29 -30q59 0 184 153l31 -22
q-98 -146 -164 -207t-135 -61q-58 0 -89.5 37.5t-31.5 101.5q0 63 29 176l170 670h-402l-145 -621q-65 -277 -132.5 -435.5t-149.5 -228t-197 -69.5q-76 0 -117 33.5t-41 95.5q0 51 33 79.5t80 39.5h18q1 -88 26 -138.5t64 -50.5q46 0 76 31.5t66.5 147.5t78.5 341z
M739 1499q-111 0 -189 -116.5t-104 -340.5h408l2 7q24 154 84 280q-27 79 -78.5 124.5t-122.5 45.5zM1757 1245q-52 0 -85.5 34t-33.5 85q0 54 38 92.5t91 38.5q52 0 85.5 -34t33.5 -85q0 -54 -38 -92.5t-91 -38.5z" />
    <glyph glyph-name="f_j" unicode="fj" horiz-adv-x="1058" 
d="M840 965h-404l-149 -656q-63 -276 -131 -435.5t-151 -228.5t-198 -69q-79 0 -128.5 34.5t-49.5 94.5q0 51 33 79.5t80 39.5h18q7 -85 41 -137t80 -52q31 0 51.5 15t46.5 66t53 158t60 282l148 809h-160l12 49l164 37q34 156 107 279.5t181 198.5t232 75q108 0 169 -41.5
t61 -110.5q0 -53 -35 -85.5t-99 -41.5h-24q11 94 -23.5 154.5t-103.5 60.5q-108 0 -178 -129.5t-97 -368.5h420l160 43h21l-173 -770q-58 -258 -131 -415.5t-157.5 -224t-194.5 -66.5q-72 0 -117 34.5t-45 94.5q0 51 33 79.5t80 39.5h18q2 -89 25 -139t68 -50
q38 0 63.5 27.5t51.5 102t59 220.5z" />
    <glyph glyph-name="f_f_j" unicode="ffj" horiz-adv-x="1656" 
d="M1438 965h-402l-145 -621q-65 -277 -132.5 -435.5t-149.5 -228t-197 -69.5q-76 0 -117 33.5t-41 95.5q0 51 33 79.5t80 39.5h18q1 -88 26 -138.5t64 -50.5q46 0 76 31.5t66.5 147.5t78.5 341l144 775h-404l-149 -656q-63 -276 -131 -435.5t-151 -228.5t-198 -69
q-79 0 -128.5 34.5t-49.5 94.5q0 51 33 79.5t80 39.5h18q7 -85 41 -137t80 -52q31 0 52 15t47 66t53 158.5t59 281.5l148 809h-160l12 49l164 37q52 229 197 370.5t321 141.5q183 0 275 -117q145 158 327 158q108 0 169 -41.5t61 -110.5q0 -53 -34.5 -85.5t-98.5 -41.5h-25
q11 94 -23.5 154.5t-103.5 60.5q-108 0 -177.5 -129.5t-96.5 -368.5h417l160 43h21l-172 -770q-58 -258 -131 -415.5t-158 -224t-195 -66.5q-72 0 -117 34.5t-45 94.5q0 51 33 79.5t80 39.5h18q2 -89 25 -139t68 -50q38 0 63.5 27.5t51.5 102t59 220.5zM739 1499
q-111 0 -189 -116.5t-104 -340.5h408l2 7q31 141 94 256q-58 194 -211 194z" />
    <glyph glyph-name="f_k" unicode="fk" horiz-adv-x="1601" 
d="M684 965h-248l-149 -656q-63 -276 -131 -435.5t-151 -228.5t-198 -69q-79 0 -128.5 34.5t-49.5 94.5q0 51 33 79.5t80 39.5h18q7 -85 41 -137t80 -52q31 0 51.5 15t46.5 66t53 158t60 282l148 809h-160l12 49l164 37q35 156 106 279.5t178.5 198.5t231.5 75q60 0 118 -20
t99 -52l162 72h20l-399 -1604h-180l350 1391q-22 66 -71.5 107.5t-112.5 41.5q-257 0 -312 -498h256zM1100 666l168 -439q4 -10 10.5 -26.5t9.5 -25t8.5 -21.5t9 -20t9 -15.5t10.5 -13t11 -9t13 -6.5t15 -2q32 0 66 32.5t98 112.5l31 -22q-76 -124 -133.5 -177.5
t-131.5 -53.5q-76 0 -120 53.5t-82 163.5l-136 391l349 381q59 63 101.5 89.5t90.5 26.5q62 0 93.5 -34.5t31.5 -83.5q0 -93 -115 -140h-14q0 43 -20 76t-62 33q-38 0 -70.5 -21t-80.5 -73z" />
    <glyph glyph-name="f_f_k" unicode="ffk" horiz-adv-x="2201" 
d="M1284 965h-248l-145 -621q-65 -277 -132.5 -435.5t-149.5 -228t-197 -69.5q-76 0 -117 33.5t-41 95.5q0 51 33 79.5t80 39.5h18q1 -88 26 -138.5t64 -50.5q46 0 76 31.5t66.5 147.5t78.5 341l144 775h-404l-149 -656q-63 -276 -131 -435.5t-151 -228.5t-198 -69
q-79 0 -128.5 34.5t-49.5 94.5q0 51 33 79.5t80 39.5h18q7 -85 41 -137t80 -52q31 0 52 15t47 66t53 158.5t59 281.5l148 809h-160l12 49l164 37q52 229 197 370.5t321 141.5q185 0 275 -115q143 156 323 156q60 0 118 -20t99 -52l162 72h21l-400 -1604h-180l350 1391
q-22 66 -71.5 107.5t-112.5 41.5q-256 0 -311 -498h256zM1700 666l168 -439q4 -10 10.5 -26.5t9.5 -25t8.5 -21.5t9 -20t9 -15.5t10.5 -13t11 -9t13 -6.5t15 -2q32 0 66 32.5t98 112.5l31 -22q-76 -124 -133.5 -177.5t-131.5 -53.5q-76 0 -120 53.5t-82 163.5l-136 391
l349 381q59 63 101.5 89.5t90.5 26.5q62 0 93.5 -34.5t31.5 -83.5q0 -93 -115 -140h-14q0 43 -20 76t-62 33q-38 0 -70.5 -21t-80.5 -73zM856 1049q31 144 94 258q-27 90 -80.5 141t-130.5 51q-111 0 -189 -116.5t-104 -340.5h408z" />
    <glyph glyph-name=".notdef" horiz-adv-x="1966" 
d="M184 0v1597h1598v-1597h-1598zM983 707l-571 -572h1142zM412 1462l571 -571l571 571h-1142zM891 799l-563 563v-1126zM1075 799l563 -563v1126z" />
    <glyph glyph-name=".null" horiz-adv-x="0" 
 />
    <glyph glyph-name="nonmarkingreturn" horiz-adv-x="682" 
 />
    <glyph glyph-name="space" unicode=" " horiz-adv-x="409" 
 />
    <glyph glyph-name="exclam" unicode="!" horiz-adv-x="487" 
d="M575 1438l-350 -1022h-30l133 1022h247zM14 121q0 58 41.5 99.5t100.5 41.5q58 0 99.5 -41t41.5 -100t-41.5 -100t-99.5 -41q-59 0 -100.5 41.5t-41.5 99.5z" />
    <glyph glyph-name="quotedbl" unicode="&#x22;" horiz-adv-x="518" 
d="M223 1008h-18l26 276q2 20 5 58t5 57t6 45.5t11 44t16 31.5q29 41 78 41q40 0 60 -23t20 -61q0 -13 -2 -27t-8 -32t-10 -29t-14.5 -34t-13.5 -29.5t-17 -33.5t-15 -30zM463 1008h-19l27 276q2 20 5 58t5 57t6 45.5t11 44t16 31.5q29 41 78 41q40 0 60 -23t20 -61
q0 -13 -2 -27t-8 -32t-10 -29t-14.5 -34t-13.5 -29.5t-17 -33.5t-15 -30z" />
    <glyph glyph-name="numbersign" unicode="#" horiz-adv-x="1116" 
d="M952 479h-223l-158 -497l-65 20l149 477h-303l-157 -497l-66 20l150 477h-216v60h234l131 411h-219v60h237l144 450l65 -20l-137 -430h305l144 450l65 -20l-137 -430h203v-60h-221l-129 -411h204v-60zM500 950l-129 -411h303l131 411h-305z" />
    <glyph glyph-name="dollar" unicode="$" horiz-adv-x="1103" 
d="M969 426q0 -103 -43.5 -188.5t-116.5 -141t-166 -86t-194 -30.5h-11l-47 -211h-55l47 213q-125 10 -223.5 52t-151.5 93l53 342h54q15 -382 284 -420l138 602l-39 19q-144 70 -214.5 157.5t-70.5 210.5q0 185 132.5 302.5t352.5 117.5h21l45 193h55l-45 -197
q175 -18 307 -117l-57 -301h-51q-2 158 -52 244t-163 106l-129 -567q79 -36 137 -73.5t106 -85t72.5 -106.5t24.5 -128zM784 346q0 96 -44.5 156.5t-153.5 122.5l-131 -580h6q146 0 234.5 80.5t88.5 220.5zM387 1102q0 -89 45.5 -147.5t147.5 -110.5l125 549h-19
q-134 0 -216.5 -82.5t-82.5 -208.5z" />
    <glyph glyph-name="percent" unicode="%" horiz-adv-x="1503" 
d="M496 1458q123 0 202.5 -81.5t79.5 -213.5q0 -86 -31 -160t-81.5 -122.5t-114 -75.5t-129.5 -27q-123 0 -203 81.5t-80 213.5q0 114 53.5 204t134 135.5t169.5 45.5zM496 1407q-67 0 -118.5 -58t-76.5 -142t-25 -175q0 -94 32 -148.5t114 -54.5q67 0 118.5 58t76 142
t24.5 175q0 94 -31.5 148.5t-113.5 54.5zM1030 -20q-123 0 -202.5 81t-79.5 213q0 86 31 160t81.5 122.5t114 75.5t129.5 27q123 0 202.5 -81t79.5 -213q0 -86 -31 -160t-81.5 -122.5t-114 -75.5t-129.5 -27zM1415 1458l-1222 -1478h-82l1222 1478h82zM1030 31
q67 0 118.5 58t76 142t24.5 175q0 94 -31.5 148t-113.5 54q-67 0 -118.5 -58t-76 -142t-24.5 -175q0 -94 31.5 -148t113.5 -54z" />
    <glyph glyph-name="ampersand" unicode="&#x26;" horiz-adv-x="1351" 
d="M20 348q0 90 34 165.5t94.5 129t133 91t158.5 61.5q-88 142 -88 278q0 163 115.5 274t288.5 111q145 0 232 -77.5t87 -190.5q0 -138 -106 -227.5t-324 -153.5l305 -471q119 167 119 340q0 40 -32 58t-81 18l11 53h415l-10 -53q-83 0 -124 -13t-62 -41.5t-43 -93.5
q-69 -191 -158 -321l62 -95q94 -135 229 -135l-12 -55h-260q-71 39 -142 143q-180 -163 -430 -163q-110 0 -202 40.5t-151 126t-59 201.5zM526 74q154 0 299 125l-362 561q-119 -44 -184.5 -143t-65.5 -232q0 -146 88.5 -228.5t224.5 -82.5zM514 1126q0 -53 16.5 -105.5
t33.5 -83t48 -77.5l9 -14q157 55 224.5 133t67.5 211q0 94 -47.5 151.5t-136.5 57.5q-97 0 -156 -75t-59 -198z" />
    <glyph glyph-name="quotesingle" unicode="'" horiz-adv-x="278" 
d="M223 1008h-18l26 276q2 20 5 58t5 57t6 45.5t11 44t16 31.5q29 41 78 41q40 0 60 -23t20 -61q0 -13 -2 -27t-8 -32t-10 -29t-14.5 -34t-13.5 -29.5t-17 -33.5t-15 -30z" />
    <glyph glyph-name="parenleft" unicode="(" horiz-adv-x="692" 
d="M152 403q0 169 49.5 334.5t139.5 313t205.5 278t258.5 248.5h80q-141 -120 -254.5 -280.5t-181 -325.5t-103 -323.5t-35.5 -295.5q0 -200 40.5 -356.5t135.5 -286.5h-79q-256 318 -256 694z" />
    <glyph glyph-name="parenright" unicode=")" horiz-adv-x="692" 
d="M590 883q0 -169 -49.5 -334.5t-139.5 -313t-205.5 -278t-258.5 -248.5h-80q141 120 254 280.5t180.5 325.5t103 323.5t35.5 295.5q0 200 -40.5 356.5t-135.5 286.5h80q256 -318 256 -694z" />
    <glyph glyph-name="asterisk" unicode="*" horiz-adv-x="825" 
d="M864 1196h-278l207 -188q27 -24 27 -51.5t-21 -43.5q-21 -17 -46.5 -10t-43.5 39l-140 244l-59 -275q-7 -35 -29.5 -49t-48.5 -4q-26 11 -32.5 35t12.5 57l139 242l-266 -84q-34 -12 -56.5 0.5t-27.5 40.5q-3 26 15 44.5t54 18.5h279l-207 189q-27 24 -27 51t21 43
q21 17 46.5 10t43.5 -39l137 -243l62 274q7 35 29 48.5t48 4.5q26 -11 33 -35t-12 -57l-141 -241l268 83q34 12 56.5 0t27.5 -40q3 -26 -15.5 -45t-54.5 -19z" />
    <glyph glyph-name="plus" unicode="+" horiz-adv-x="1155" 
d="M643 1208h111l-84 -395h393l-23 -106h-393l-84 -396h-110l84 396h-394l23 106h393z" />
    <glyph glyph-name="comma" unicode="," horiz-adv-x="409" 
d="M135 -2h-63q-41 8 -68 38t-27 77q0 56 37 90.5t92 34.5q65 0 101.5 -44t36.5 -118q0 -130 -98.5 -217t-249.5 -99v47q107 19 169.5 67t69.5 124z" />
    <glyph glyph-name="hyphen" unicode="-" horiz-adv-x="655" 
d="M582 569h-533l21 93h532z" />
    <glyph glyph-name="period" unicode="." horiz-adv-x="409" 
d="M-31 121q0 58 41.5 99.5t100.5 41.5t100 -41t41 -100t-41 -100t-100 -41t-100.5 41.5t-41.5 99.5z" />
    <glyph glyph-name="slash" unicode="/" horiz-adv-x="772" 
d="M938 1577l-1010 -1866h-82l1008 1866h84z" />
    <glyph glyph-name="zero" unicode="0" horiz-adv-x="1220" 
d="M494 -20q-103 0 -184 40.5t-131.5 112.5t-76.5 165.5t-26 203.5q0 138 32 276t94.5 260t146.5 216t196.5 149t236.5 55q103 0 184 -40.5t131.5 -112.5t76.5 -165.5t26 -203.5q0 -138 -32 -276t-94.5 -260t-146.5 -216t-196.5 -149t-236.5 -55zM496 39q84 0 163 56.5
t138 150.5t104 212.5t68.5 247.5t23.5 250q0 443 -215 443q-105 0 -199.5 -86.5t-158 -221.5t-100.5 -296.5t-37 -313.5q0 -76 5.5 -138.5t20.5 -120.5t38.5 -97t61 -62.5t87.5 -23.5z" />
    <glyph glyph-name="one" unicode="1" horiz-adv-x="825" 
d="M684 1456h39l-256 -1210q-6 -32 -7.5 -56.5t3.5 -44t12 -32.5t23 -23t32 -16t44.5 -10t54 -5.5t65.5 -3.5l-12 -55h-719l12 55q61 4 93.5 7t68 10t52.5 15.5t34 24.5t26 37.5t17 53.5l209 991h-282l12 49l71 12q145 25 230 64.5t178 136.5z" />
    <glyph glyph-name="two" unicode="2" horiz-adv-x="1087" 
d="M190 168h359q60 0 97 4t74.5 15.5t67 36t60.5 63t67 98.5h50l-123 -385h-916l8 35q201 162 332.5 272.5t242 211.5t172 169t104 136t57 122.5t14.5 118.5q0 106 -69 172t-189 66t-207.5 -53.5t-175.5 -151.5l-29 35q43 71 89 125t105.5 101.5t135 73t162.5 25.5
q171 0 274 -95.5t103 -254.5q0 -62 -19 -122t-51 -112.5t-84 -110.5t-106 -107t-131 -111.5t-145 -114.5t-161.5 -126t-167.5 -136z" />
    <glyph glyph-name="three" unicode="3" horiz-adv-x="1058" 
d="M375 762q95 23 174 56t144 78t101.5 105.5t36.5 131.5q0 86 -56.5 141t-151.5 55q-196 0 -367 -199l-33 37q197 291 484 291q147 0 233 -76.5t86 -193.5q0 -254 -375 -373q142 -13 234 -108.5t92 -225.5q0 -98 -35 -181.5t-92 -141t-130 -99t-149 -60.5t-149 -19
q-114 0 -199.5 26t-132 69t-68.5 92t-22 103q0 64 34.5 109t86.5 70h98q-37 -78 -37 -150q0 -118 60 -189t184 -71q150 0 253 105t103 270q0 143 -70.5 227t-193.5 84q-70 0 -133 -16z" />
    <glyph glyph-name="four" unicode="4" horiz-adv-x="1239" 
d="M141 475h561l154 715zM645 201l43 205h-680l8 40l990 992h98l-209 -963h246l-17 -69h-243l-43 -205q-13 -87 12.5 -110.5t138.5 -35.5l-12 -55h-553l12 55q53 6 80.5 11t53 14t37.5 24.5t21.5 37.5t16.5 59z" />
    <glyph glyph-name="five" unicode="5" horiz-adv-x="1060" 
d="M401 1239l-96 -326q125 5 238 -17.5t206.5 -73t149 -140.5t55.5 -209q0 -216 -148 -354.5t-370 -138.5q-207 0 -321.5 80t-114.5 208q0 64 34.5 110t84.5 71h100q-37 -70 -37 -154q0 -113 65.5 -184.5t188.5 -71.5q147 0 245.5 102t98.5 265q0 90 -33 156.5t-86.5 105
t-132.5 60.5t-161 27.5t-181 0.5l207 671h492q59 0 84 14t69 77h45l-104 -279h-578z" />
    <glyph glyph-name="six" unicode="6" horiz-adv-x="1126" 
d="M1114 1411q-139 -39 -260.5 -97.5t-226.5 -137.5t-185 -183.5t-123 -226.5q152 149 349 149q180 0 284.5 -112.5t104.5 -278.5q0 -115 -43 -217.5t-115 -173.5t-167.5 -112t-199.5 -41q-112 0 -200 38t-143.5 105t-84 154.5t-28.5 189.5q0 176 71.5 339.5t200 294.5
t317.5 224.5t414 130.5zM588 821q-167 0 -285 -106q-33 -129 -33 -250q0 -194 67 -309t200 -115q103 0 177.5 61t110 158t35.5 215q0 74 -15.5 135.5t-47.5 109.5t-85.5 74.5t-123.5 26.5z" />
    <glyph glyph-name="seven" unicode="7" horiz-adv-x="1030" 
d="M995 1255h-536q-51 0 -91.5 -11.5t-74 -37.5t-58 -54t-57.5 -73h-55l164 359h870l-6 -39l-856 -1399h-201z" />
    <glyph glyph-name="eight" unicode="8" horiz-adv-x="1116" 
d="M1090 1137q0 -74 -32.5 -138.5t-86.5 -108.5t-118.5 -73t-133.5 -41l69 -49q103 -72 157 -149t54 -183q0 -188 -132.5 -301.5t-350.5 -113.5q-213 0 -343 105.5t-130 268.5q0 147 111 246.5t288 136.5l-34 25q-73 50 -119.5 127.5t-46.5 173.5q0 166 122.5 280.5
t319.5 114.5q174 0 290 -84.5t116 -236.5zM655 600l-182 117q-85 -30 -143.5 -91t-83.5 -129.5t-25 -140.5q0 -141 80.5 -228t214.5 -87q59 0 112.5 19t96.5 55t68.5 94t25.5 131q0 153 -164 260zM557 883l137 -90q111 48 172.5 136.5t61.5 205.5q0 113 -63.5 187.5
t-180.5 74.5q-114 0 -189 -71.5t-75 -197.5q0 -155 137 -245z" />
    <glyph glyph-name="nine" unicode="9" horiz-adv-x="1126" 
d="M68 27q287 80 497.5 242.5t294.5 402.5q-153 -150 -346 -150q-180 0 -284.5 112.5t-104.5 278.5q0 115 43 217.5t114.5 173.5t167 112.5t199.5 41.5q112 0 200.5 -38t143.5 -105t84 -154.5t29 -189.5q0 -176 -71.5 -339.5t-200.5 -294.5t-318 -224.5t-414 -130.5z
M594 616q167 0 283 107q34 112 34 250q0 195 -66.5 309.5t-199.5 114.5q-103 0 -177.5 -61t-110 -158t-35.5 -215q0 -100 27 -176t89.5 -123.5t155.5 -47.5z" />
    <glyph glyph-name="colon" unicode=":" horiz-adv-x="409" 
d="M-31 121q0 58 41.5 99.5t100.5 41.5t100 -41t41 -100t-41 -100t-100 -41t-100.5 41.5t-41.5 99.5zM113 821q0 59 41.5 100.5t99.5 41.5t99.5 -41.5t41.5 -100.5t-41.5 -100t-99.5 -41t-99.5 41t-41.5 100z" />
    <glyph glyph-name="semicolon" unicode=";" horiz-adv-x="409" 
d="M133 -2h-63q-41 8 -68 38t-27 77q0 56 37 90.5t92 34.5q65 0 101.5 -44t36.5 -118q0 -130 -98.5 -217t-249.5 -99v47q107 19 169.5 67t69.5 124zM113 821q0 59 41.5 100.5t99.5 41.5t99.5 -41.5t41.5 -100.5t-41.5 -100t-99.5 -41t-99.5 41t-41.5 100z" />
    <glyph glyph-name="less" unicode="&#x3c;" horiz-adv-x="845" 
d="M125 750l4 16l717 387l-27 -131l-512 -270l398 -271l-27 -119z" />
    <glyph glyph-name="equal" unicode="=" horiz-adv-x="1175" 
d="M123 565l22 105h897l-22 -105h-897zM182 848l25 106h897l-25 -106h-897z" />
    <glyph glyph-name="greater" unicode="&#x3e;" horiz-adv-x="845" 
d="M791 766l-5 -16l-716 -388l28 132l512 270l-397 270l25 119z" />
    <glyph glyph-name="question" unicode="?" horiz-adv-x="901" 
d="M575 905q58 33 94.5 60t68.5 63t46.5 80t14.5 100q0 92 -52 147.5t-147 55.5q-92 0 -145.5 -59.5t-53.5 -163.5q0 -43 11 -98h-144q-21 16 -35 47.5t-14 68.5q0 114 106.5 183t274.5 69q170 0 271.5 -85t101.5 -226q0 -57 -15.5 -105t-39 -83t-66 -70t-81 -59t-99.5 -58
q-125 -70 -188.5 -135t-63.5 -158q0 -26 16 -84h-33q-79 79 -79 193q0 68 32 125.5t83.5 100t135.5 91.5zM190 121q0 58 41.5 99.5t100.5 41.5q58 0 99.5 -41t41.5 -100t-41.5 -100t-99.5 -41q-59 0 -100.5 41.5t-41.5 99.5z" />
    <glyph glyph-name="at" unicode="@" horiz-adv-x="1734" 
d="M1202 154q-99 0 -152 48t-58.5 131t20.5 195q-165 -372 -363 -372q-88 0 -139 67.5t-51 190.5q0 110 45 222.5t116.5 198t167 139.5t191.5 54q109 0 182 -70l139 76h29l-61 -176l-125 -420q-56 -227 69 -227q85 0 152.5 50.5t107.5 133.5t61 180.5t21 200.5
q0 265 -141.5 420.5t-413.5 155.5q-140 0 -265.5 -50t-219 -137.5t-161.5 -202t-103 -247t-35 -269.5q0 -280 169.5 -450t451.5 -170q171 0 293 34t266 115l18 -28q-110 -89 -268.5 -144t-325.5 -55q-348 0 -546.5 185.5t-198.5 512.5q0 121 30.5 241t87 226.5t139.5 197.5
t183.5 157t225.5 103.5t259 37.5q322 0 504.5 -170.5t182.5 -462.5q0 -88 -21 -176.5t-62.5 -168.5t-98.5 -142t-135.5 -98.5t-166.5 -36.5zM711 256q97 0 216 187t191 456q-19 37 -58 56.5t-81 19.5q-97 0 -180.5 -91t-128.5 -220.5t-45 -253.5q0 -69 23 -111.5t63 -42.5z
" />
    <glyph glyph-name="A" unicode="A" horiz-adv-x="1425" 
d="M1004 225l-56 279h-581l-168 -277q-41 -68 -41 -102q0 -36 40.5 -51.5t129.5 -18.5l-11 -55h-415l10 55q49 5 81.5 21t55.5 55l733 1194l-28 131h196l262 -1325q7 -38 33 -54.5t72 -21.5l-10 -55h-514l10 55q35 1 55 2.5t48 5.5t43.5 12t31 20.5t22.5 32t7 46.5
q0 24 -6 51zM809 1231l-403 -662h530z" />
    <glyph glyph-name="B" unicode="B" horiz-adv-x="1263" 
d="M668 709h-197l-106 -504q-18 -80 21.5 -108.5t150.5 -28.5h24q181 0 293.5 95.5t112.5 285.5q0 116 -78 188t-221 72zM764 1370h-152l-127 -594h152q89 0 160 20t126.5 62t86 113.5t30.5 167.5q0 114 -70 172.5t-206 58.5zM-53 0l12 55q53 6 80.5 11t53 14t38 24.5
t22 37.5t17.5 59l221 1036q5 24 7.5 41.5t-1 31.5t-6 23.5t-15 17t-20.5 11.5t-30.5 8t-36.5 6t-47 6l10 56h575q209 0 309.5 -78t100.5 -213q0 -79 -27 -145.5t-72 -111.5t-105 -77t-123.5 -48t-131.5 -20q183 -7 286 -92t103 -215q0 -139 -82 -240t-215.5 -149.5
t-300.5 -48.5h-622z" />
    <glyph glyph-name="C" unicode="C" horiz-adv-x="1318" 
d="M932 1458q269 0 428 -121l-64 -299h-55q3 172 -77 262.5t-232 90.5q-121 0 -226 -54t-178 -142t-126 -199.5t-78 -227.5t-25 -225q0 -239 87.5 -367.5t256.5 -128.5q171 0 295 100t217 308h62l-105 -365q-215 -110 -469 -110q-264 0 -407.5 151t-143.5 412
q0 108 27.5 218t78 211.5t126.5 190t167 154t205 103.5t236 38z" />
    <glyph glyph-name="D" unicode="D" horiz-adv-x="1433" 
d="M518 68h31q140 0 261.5 56.5t210 158t139 250.5t50.5 327q0 244 -115 377t-350 133h-133l-245 -1157q-19 -87 15.5 -116t135.5 -29zM526 0h-579l12 55q53 6 80.5 11t53 14t38 24.5t22 37.5t17.5 59l221 1036q5 24 7.5 41.5t-1 31.5t-6 23.5t-15 17t-20.5 11.5t-30.5 8
t-36.5 6t-47 6l12 56h518q301 0 473 -155.5t172 -422.5q0 -194 -69 -356.5t-189 -272t-283 -170.5t-350 -61z" />
    <glyph glyph-name="E" unicode="E" horiz-adv-x="1257" 
d="M1042 0h-1095l12 55q53 6 80.5 11t53 14t38 24.5t22 37.5t17.5 59l221 1036q5 24 7.5 41.5t-1 31.5t-6 23.5t-15 17t-20.5 11.5t-30.5 8t-36.5 6t-47 6l12 56h1069l-63 -342h-41q-33 162 -83 218t-157 56h-367l-127 -594h326q63 0 104 44t80 141h56l-93 -437h-55
q3 97 -20 141t-86 44h-326l-106 -502q-18 -80 22 -109.5t150 -29.5h188q54 0 99.5 15.5t95 55.5t96 91t117.5 139h49z" />
    <glyph glyph-name="F" unicode="F" horiz-adv-x="1153" 
d="M575 0h-628l12 55q53 6 80.5 11t53 14t38 24.5t22 37.5t17.5 59l221 1036q5 24 7.5 41.5t-1 31.5t-6 23.5t-15 17t-20.5 11.5t-30.5 8t-36.5 6t-47 6l12 56h1030l-65 -348h-41q-20 160 -74.5 220t-163.5 60h-328l-131 -614h283q62 0 102 46t78 146h55l-96 -452h-55
q5 100 -15.5 146t-82.5 46h-283l-98 -461q-20 -92 24 -124t197 -44z" />
    <glyph glyph-name="G" unicode="G" horiz-adv-x="1427" 
d="M662 47q192 0 303 86l73 334q5 24 7.5 41.5t-1 31.5t-6 23.5t-15 17t-20.5 11.5t-30.5 8t-36.5 6t-47 6l12 56h516l-12 -56q-99 -6 -133 -33.5t-51 -111.5l-72 -340q-123 -73 -234.5 -110t-252.5 -37q-267 0 -418.5 148.5t-151.5 406.5q0 108 28 218.5t79 213t127 192
t167.5 156t206 105t236.5 38.5q132 0 245.5 -33t190.5 -88l-63 -299h-56q3 171 -80.5 262t-236.5 91q-120 0 -226 -55t-179.5 -144t-127 -202t-79 -229.5t-25.5 -225.5q0 -234 95.5 -361t267.5 -127z" />
    <glyph glyph-name="H" unicode="H" horiz-adv-x="1579" 
d="M170 201l221 1036q5 24 7.5 41.5t-1 31.5t-6 23.5t-15 17t-20.5 11.5t-30.5 8t-36.5 6t-47 6l12 56h553l-12 -56q-44 -5 -68.5 -8.5t-49.5 -11t-37 -16t-24.5 -24t-18.5 -35t-13 -50.5l-99 -459h719l99 459q5 24 7.5 41.5t-1 31.5t-6 23.5t-15.5 17t-20.5 11.5t-30.5 8
t-37 6t-47 6l12 56h553l-12 -56q-44 -5 -68.5 -8.5t-49.5 -11t-37 -16t-24.5 -24t-18.5 -35t-13 -50.5l-221 -1036q-6 -27 -7 -46.5t0.5 -34t12 -24.5t19 -16t32 -11t39.5 -7.5t53 -6.5l-12 -55h-553l12 55q53 6 80.5 11t53 14t38 24.5t22 37.5t17.5 59l109 508h-719
l-109 -508q-5 -24 -7.5 -41.5t1 -31.5t6 -23.5t15 -17.5t21 -12t31 -8t37 -6t46.5 -6l-12 -55h-553l12 55q53 6 80.5 11t53 14t38 24.5t22 37.5t17.5 59z" />
    <glyph glyph-name="I" unicode="I" horiz-adv-x="667" 
d="M170 201l221 1036q5 24 7.5 41.5t-1 31.5t-6 23.5t-15 17t-20.5 11.5t-30.5 8t-36.5 6t-47 6l12 56h553l-12 -56q-44 -5 -68.5 -8.5t-49.5 -11t-37 -16t-24.5 -24t-18.5 -35t-13 -50.5l-222 -1036q-5 -24 -7.5 -41.5t1 -31.5t6 -23.5t15 -17.5t21 -12t31 -8t37 -6
t46.5 -6l-12 -55h-553l12 55q53 6 80.5 11t53 14t38 24.5t22 37.5t17.5 59z" />
    <glyph glyph-name="J" unicode="J" horiz-adv-x="1003" 
d="M557 342l191 895q5 24 7.5 41.5t-1 31.5t-6 23.5t-15.5 17t-20.5 11.5t-30.5 8t-37 6t-47 6l12 56h553l-12 -56q-44 -5 -68.5 -8.5t-49.5 -11t-37 -16t-24.5 -24t-18.5 -35t-13 -50.5l-182 -854q-44 -211 -167 -307t-321 -96q-147 0 -234 59t-87 160q0 51 24 95t64 75
h141q-41 -87 -41 -160q0 -80 40.5 -126t115.5 -46q99 0 164 70.5t100 234.5z" />
    <glyph glyph-name="K" unicode="K" horiz-adv-x="1353" 
d="M684 776l336 -577q51 -82 98.5 -111.5t134.5 -32.5l-12 -55h-299q-49 44 -131 176l-311 537l626 542q21 18 29.5 26t20.5 24.5t12 29.5q0 25 -27.5 33.5t-116.5 13.5l11 56h440l-10 -56q-66 -3 -113.5 -26t-111.5 -78zM584 1237l-222 -1036q-5 -24 -7.5 -41.5t1 -31.5
t6 -23.5t15 -17.5t21 -12t31 -8t37 -6t46.5 -6l-12 -55h-553l12 55q53 6 80.5 11t53 14t38 24.5t22 37.5t17.5 59l221 1036q5 24 7.5 41.5t-1 31.5t-6 23.5t-15 17t-20.5 11.5t-30.5 8t-36.5 6t-47 6l10 56h555l-12 -56q-44 -5 -68.5 -8.5t-49.5 -11t-37 -16t-24.5 -24
t-18.5 -35t-13 -50.5z" />
    <glyph glyph-name="L" unicode="L" horiz-adv-x="1191" 
d="M584 1237l-219 -1030q-18 -80 22 -109.5t150 -29.5h120q51 0 96.5 15.5t81 38t80 70.5t76.5 89t88 118h51l-149 -399h-1034l12 55q53 6 80.5 11t53 14t38 24.5t22 37.5t17.5 59l221 1036q5 24 7.5 41.5t-1 31.5t-6 23.5t-15 17t-20.5 11.5t-30.5 8t-36.5 6t-47 6l12 56
h553l-12 -56q-44 -5 -68.5 -8.5t-49.5 -11t-37 -16t-24.5 -24t-18.5 -35t-13 -50.5z" />
    <glyph glyph-name="M" unicode="M" horiz-adv-x="1822" 
d="M1350 203l92 956l-666 -1159h-39l-202 1159l-302 -923q-33 -101 -6 -138t154 -43l-12 -55h-439l13 55q89 6 127.5 29.5t62.5 93.5l348 1055q18 81 -12.5 112t-128.5 37l12 56h340q-7 -49 6 -117l179 -1008l577 1008q41 71 55 117h342l-12 -56q-99 -6 -142.5 -37
t-62.5 -112l-100 -1055q-3 -70 26.5 -93.5t114.5 -29.5l-12 -55h-545l12 55q57 5 87 9.5t57.5 13t40 24.5t21.5 39.5t14 61.5z" />
    <glyph glyph-name="N" unicode="N" horiz-adv-x="1492" 
d="M1149 299l194 938q17 83 -24.5 111t-167.5 34l12 56h486l-13 -56q-44 -5 -68.5 -8.5t-49.5 -11t-37 -16t-24.5 -24t-18.5 -35t-13 -50.5l-264 -1245h-51l-651 1190l-207 -981q-17 -83 24.5 -111.5t167.5 -34.5l-12 -55h-485l12 55q53 6 80.5 11t53 14t38 24.5t22 37.5
t17.5 59l225 1056q-41 75 -72.5 99.5t-105.5 25.5l12 56h310z" />
    <glyph glyph-name="O" unicode="O" horiz-adv-x="1425" 
d="M877 1458q131 0 234.5 -44.5t167.5 -121.5t97 -176.5t33 -214.5q0 -127 -35.5 -257.5t-104.5 -249t-162 -211.5t-218.5 -148t-263.5 -55q-131 0 -234.5 44.5t-167.5 121.5t-97.5 176.5t-33.5 214.5q0 105 25.5 214.5t72 212t117 192.5t155.5 157t192.5 106t222.5 39z
M877 1391q-106 0 -200.5 -53.5t-162 -141.5t-117 -199.5t-74 -230t-24.5 -229.5q0 -105 19 -192.5t57 -155t102 -105t148 -37.5q131 0 243.5 81.5t183.5 208.5t110.5 275t39.5 289q0 106 -18.5 193t-57 154.5t-102 105t-147.5 37.5z" />
    <glyph glyph-name="P" unicode="P" horiz-adv-x="1189" 
d="M254 1438h530q117 0 208 -28t146 -78t83 -113.5t28 -139.5q0 -152 -84.5 -264.5t-232.5 -169.5t-340 -57h-146l-77 -361q-20 -93 23 -126t196 -42l-13 -59h-628l12 55q53 6 80.5 11t53 14t38 24.5t22 37.5t17.5 59l221 1036q5 24 7.5 41.5t-1 31.5t-6 23.5t-15 17
t-20.5 11.5t-30.5 8t-36.5 6t-47 6zM612 1370l-151 -715h135q209 0 334 108t125 316q0 133 -82.5 212t-241.5 79h-119z" />
    <glyph glyph-name="Q" unicode="Q" horiz-adv-x="1425" 
d="M877 1458q131 0 234.5 -44.5t167.5 -121.5t97 -176.5t33 -214.5q0 -149 -50 -302t-137.5 -282t-220.5 -219.5t-286 -111.5l84 -123q26 -38 45 -61.5t48.5 -49t66.5 -39t83 -16.5l-4 -21q-45 -22 -82 -32.5t-92 -10.5q-164 0 -231 158l-84 193q-222 24 -339.5 177.5
t-117.5 375.5q0 105 25.5 214.5t72 212t117 192.5t155.5 157t192.5 106t222.5 39zM877 1391q-106 0 -200.5 -53.5t-162 -141.5t-117 -199.5t-74 -230t-24.5 -229.5q0 -106 19 -194t57 -157t102 -108t148 -39q106 0 200.5 54.5t162 143.5t117 202t73.5 231.5t24 230.5
q0 106 -18.5 193t-57 154.5t-102 105t-147.5 37.5z" />
    <glyph glyph-name="R" unicode="R" horiz-adv-x="1380" 
d="M743 1370h-131l-143 -674h113q206 0 328 104.5t122 295.5q0 126 -71 200t-218 74zM455 627l-93 -426q-5 -24 -7.5 -41.5t1 -31.5t6 -23.5t15 -17.5t21 -12t31 -8t37 -6t46.5 -6l-12 -55h-553l12 55q53 6 80.5 11t53 14t38 24.5t22 37.5t17.5 59l221 1036q5 24 7.5 41.5
t-1 31.5t-6 23.5t-15 17t-20.5 11.5t-30.5 8t-36.5 6t-47 6l12 56h549q118 0 205 -27.5t136 -76t72 -107t23 -127.5q0 -81 -31.5 -152t-79.5 -119t-110.5 -85.5t-118 -57t-108.5 -29.5l243 -430q56 -94 108 -132.5t136 -39.5l-10 -55h-293q-36 29 -65.5 71t-67.5 111
l-238 445h-149z" />
    <glyph glyph-name="S" unicode="S" horiz-adv-x="1083" 
d="M981 426q0 -103 -43.5 -188.5t-116.5 -141t-166 -86t-194 -30.5q-148 0 -263.5 44t-177.5 103l54 342h53q9 -211 96.5 -317.5t249.5 -106.5q146 0 233 80.5t87 220.5q0 78 -29 132.5t-87 96.5t-167 95q-144 70 -214.5 157.5t-70.5 210.5q0 185 133 302.5t353 117.5
q228 0 383 -121l-58 -301h-51q-2 182 -68.5 269.5t-218.5 87.5q-134 0 -214.5 -82t-80.5 -209q0 -96 52.5 -157t175.5 -118q81 -37 140.5 -75t109 -86.5t75 -108.5t25.5 -131z" />
    <glyph glyph-name="T" unicode="T" horiz-adv-x="1312" 
d="M936 1374l-248 -1169q-7 -32 -8 -53.5t7 -37.5t19 -25.5t36 -16t49 -10t67 -7.5l-12 -55h-594l12 55q131 14 172.5 39t59.5 111l247 1169h-147q-46 0 -81 -6.5t-69 -25.5t-60 -42t-61.5 -69.5t-66.5 -93.5t-80 -127h-45l123 428h1194l-61 -428h-46q-13 87 -20 127.5
t-20.5 92t-27 71t-37.5 41t-55 27t-77 5.5h-170z" />
    <glyph glyph-name="U" unicode="U" horiz-adv-x="1439" 
d="M1169 520l154 717q5 24 7.5 41.5t-1 31.5t-6 23.5t-15 17t-20.5 11.5t-30.5 8t-36.5 6t-47 6l12 56h440l-12 -56q-44 -5 -68.5 -8.5t-49.5 -11t-37 -16t-24.5 -24t-18.5 -35t-13 -50.5l-160 -752q-54 -252 -203.5 -378.5t-369.5 -126.5q-125 0 -223.5 36.5t-164 108
t-87.5 178t6 246.5l145 688q5 24 7.5 41.5t-1 31.5t-6 23.5t-15 17t-20.5 11.5t-30.5 8t-36.5 6t-47 6l12 56h553l-12 -56q-44 -5 -68.5 -8.5t-49.5 -11t-37 -16t-24.5 -24t-18.5 -35t-13 -50.5l-148 -696q-43 -206 39.5 -331.5t265.5 -125.5q201 0 313.5 104t159.5 332z
" />
    <glyph glyph-name="V" unicode="V" horiz-adv-x="1378" 
d="M707 256l565 954q41 68 41 103q0 36 -40 51t-130 18l12 56h410l-13 -56q-51 -7 -82.5 -22t-54.5 -53l-792 -1325h-41l-283 1325q-8 39 -32 53.5t-72 21.5l12 56h508l-13 -56q-52 -2 -84.5 -6t-63.5 -15.5t-45.5 -34t-14.5 -58.5q0 -12 8 -58z" />
    <glyph glyph-name="W" unicode="W" horiz-adv-x="1875" 
d="M1161 1212l107 -929l510 927q2 4 10 18.5t11 21.5t8.5 19t7.5 21.5t2 18.5q0 35 -35 52.5t-133 20.5l12 56h401l-12 -56q-37 -5 -54.5 -9.5t-41.5 -20.5t-39 -45l-737 -1325h-43l-103 870l-497 -870h-46l-190 1325q-4 37 -30 52.5t-74 22.5l12 56h508l-13 -56
q-120 -6 -163 -27.5t-43 -74.5q0 -36 4 -68l127 -938l391 691l-39 342q-4 37 -30.5 52.5t-74.5 22.5l13 56h489l-12 -56q-121 -6 -164 -27.5t-43 -74.5q0 -36 4 -68z" />
    <glyph glyph-name="X" unicode="X" horiz-adv-x="1378" 
d="M877 217l-193 434l-383 -420q-38 -42 -54 -66t-16 -48q0 -32 37.5 -46t118.5 -16l-12 -55h-463l12 55q62 0 105.5 21t101.5 82l522 561l-247 561q-25 57 -63 79.5t-99 22.5l12 56h549l-12 -56q-50 0 -80.5 -2t-59 -8t-41 -19t-12.5 -34q0 -31 33 -107l160 -364l327 358
q76 83 76 119q0 33 -36 45t-122 12l13 56h458l-12 -56q-62 0 -110 -22.5t-101 -79.5l-463 -500l277 -622q44 -103 162 -103l-13 -55h-547l13 55q103 3 146.5 17t43.5 57q0 24 -28 88z" />
    <glyph glyph-name="Y" unicode="Y" horiz-adv-x="1271" 
d="M737 580l-80 -375q-7 -32 -8 -53.5t7 -37.5t19 -25.5t36 -16t49 -10t67 -7.5l-12 -55h-584l13 55q131 14 172 39t59 111l78 373l-254 729q-13 38 -36.5 53.5t-67.5 21.5l12 56h506l-13 -56q-119 -3 -159.5 -20.5t-40.5 -61.5q0 -25 18 -88l197 -550l430 548q57 77 57 107
q0 34 -36 48t-130 17l13 56h409l-12 -56q-46 -6 -77 -22.5t-60 -52.5z" />
    <glyph glyph-name="Z" unicode="Z" horiz-adv-x="1234" 
d="M223 68h447q32 0 58.5 3t54 15.5t46.5 21.5t48 36t46 44t53 61t56.5 70t67.5 87h49l-152 -406h-1038l6 33l1122 1337h-440q-27 0 -50 -3.5t-42 -8t-39.5 -18t-34.5 -22.5t-35 -34t-34 -40t-38 -52.5l-40 -60t-47 -72.5h-47l92 379h1014l-9 -35z" />
    <glyph glyph-name="bracketleft" unicode="[" horiz-adv-x="638" 
d="M524 1401l-321 -1514q-4 -20 -4.5 -35.5t4.5 -27t11.5 -20t22 -15t29 -10t39.5 -7t46.5 -5t56.5 -3.5l-11 -53h-372l395 1866h373l-11 -53q-50 -3 -76 -5.5t-58.5 -7.5t-49 -12.5t-33.5 -20.5t-26 -32t-15 -45z" />
    <glyph glyph-name="backslash" unicode="\" horiz-adv-x="772" 
d="M500 -289l-219 1866h73l219 -1866h-73z" />
    <glyph glyph-name="bracketright" unicode="]" horiz-adv-x="638" 
d="M170 -113l322 1514q4 20 4.5 35.5t-4.5 27t-11.5 20t-22 15t-29 10t-39.5 7t-46.5 5t-56.5 3.5l10 53h373l-396 -1866h-372l10 53q50 3 76 5.5t58.5 7.5t49 12.5t33.5 20.5t26 32t15 45z" />
    <glyph glyph-name="asciicircum" unicode="^" horiz-adv-x="946" 
d="M741 1577l213 -594h-92l-182 524l-408 -524h-100l463 594h106z" />
    <glyph glyph-name="underscore" unicode="_" horiz-adv-x="798" 
d="M623 -215h-715l14 80h717z" />
    <glyph glyph-name="grave" unicode="`" horiz-adv-x="727" 
d="M348 1559h205l123 -347h-35l-293 336v11z" />
    <glyph glyph-name="a" unicode="a" horiz-adv-x="1103" 
d="M322 109q126 0 270.5 223.5t238.5 591.5q-22 50 -63.5 77t-95.5 27q-116 0 -221 -111t-166.5 -284t-61.5 -354q0 -81 25 -125.5t74 -44.5zM637 119q0 46 25.5 156t54.5 192q-60 -133 -134.5 -241t-161.5 -177t-165 -69q-101 0 -156 79.5t-55 219.5q0 157 55 307.5
t142.5 258.5t199 174t220.5 66q66 0 113 -19.5t89 -61.5l148 98h41l-72 -230l-154 -634q-18 -70 -18 -91q0 -30 29 -30q59 0 184 153l31 -22q-98 -146 -164 -207t-135 -61q-57 0 -87 37t-30 102z" />
    <glyph glyph-name="b" unicode="b" horiz-adv-x="1099" 
d="M588 1604l-258 -1031q91 201 240 356.5t266 155.5q102 0 160.5 -80t58.5 -219q0 -156 -59.5 -307t-152 -259t-208.5 -174t-225 -66q-123 0 -220.5 67.5t-121.5 179.5l301 1207l-140 65l7 25l331 80h21zM770 956q-49 0 -110 -37t-126.5 -109.5t-125.5 -168.5
t-110.5 -225.5t-78.5 -268.5q17 -53 68.5 -79.5t111.5 -26.5q121 0 232.5 113t176.5 281.5t66 334.5q0 186 -104 186z" />
    <glyph glyph-name="c" unicode="c" horiz-adv-x="845" 
d="M584 1024q-99 0 -184.5 -106t-131 -257.5t-45.5 -298.5q0 -117 52 -197.5t153 -80.5q88 0 153.5 47.5t143.5 149.5l33 -27q-173 -274 -400 -274q-151 0 -232 99.5t-81 256.5q0 135 48 270.5t127 241t189.5 171.5t227.5 66q110 0 170.5 -46t60.5 -124q0 -109 -120 -129
h-13q-2 111 -35.5 174.5t-115.5 63.5z" />
    <glyph glyph-name="d" unicode="d" horiz-adv-x="1150" 
d="M324 109q61 0 134 58t144.5 160.5t138 258.5t109.5 338q-22 49 -65.5 76.5t-98.5 27.5q-121 0 -229 -114.5t-169.5 -283t-62.5 -335.5q0 -186 99 -186zM868 1010l107 424l-139 65l6 25l332 80h20l-340 -1366q-18 -70 -18 -91q0 -30 28 -30q60 0 185 153l30 -22
q-98 -146 -164 -207t-135 -61q-57 0 -86.5 37t-29.5 102q0 45 30 169t60 208q-93 -205 -236.5 -360.5t-259.5 -155.5q-102 0 -157.5 79.5t-55.5 219.5q0 157 57.5 307.5t147.5 258.5t203.5 174t222.5 66q67 0 108.5 -16.5t83.5 -58.5z" />
    <glyph glyph-name="e" unicode="e" horiz-adv-x="868" 
d="M868 887q0 -55 -19.5 -103t-51 -84t-83 -68t-101.5 -54t-121 -44t-128.5 -36t-136.5 -31q-4 -58 -4 -86q0 -139 56.5 -217t156.5 -78q86 0 163 51.5t155 153.5l37 -27q-99 -144 -200.5 -214t-223.5 -70q-151 0 -236.5 100.5t-85.5 267.5q0 132 48 265t126 237t187 169.5
t223 65.5q117 0 178 -55.5t61 -142.5zM592 1022q-84 0 -161.5 -75.5t-127.5 -190.5t-70 -246q242 56 355.5 146t113.5 241q0 54 -27 89.5t-83 35.5z" />
    <glyph glyph-name="f" unicode="f" horiz-adv-x="569" 
d="M78 965l12 49l170 39q48 242 170.5 396.5t288.5 154.5q95 0 149 -41.5t54 -110.5q0 -48 -31.5 -80.5t-87.5 -46.5h-23q0 93 -30 156t-93 63q-75 0 -129.5 -126.5t-78.5 -375.5h237l-18 -77h-232l-149 -656q-62 -275 -130.5 -435t-151.5 -229t-198 -69q-79 0 -128.5 34.5
t-49.5 94.5q0 51 33 79.5t80 39.5h18q7 -85 41 -137t80 -52q31 0 52 15t47 66t53 158.5t59 281.5l150 809h-164z" />
    <glyph glyph-name="g" unicode="g" horiz-adv-x="950" 
d="M881 786q0 -190 -127 -310t-312 -120q-58 0 -114 17q-84 -53 -84 -97q0 -17 13.5 -30t28 -18.5t44.5 -14.5l309 -98q48 -16 85.5 -34.5t73 -47.5t55 -71t19.5 -95q0 -103 -73 -177.5t-190.5 -109.5t-264.5 -35q-131 0 -243.5 35.5t-181.5 101t-69 146.5q0 56 26 100
t76 75.5t105 52t131 40.5q-61 43 -61 107q0 57 39.5 99t124.5 83q-80 36 -123 107.5t-43 162.5q0 190 126 310t310 120q86 0 158 -32l348 14l-27 -100h-100l-131 18q72 -81 72 -199zM567 -43l-348 121q-199 -76 -199 -230q0 -107 94.5 -175t245.5 -68q176 0 268.5 53.5
t92.5 140.5q0 62 -35.5 94.5t-118.5 63.5zM711 817q0 98 -36.5 157.5t-113.5 59.5q-110 0 -188 -120t-78 -289q0 -99 35 -158t112 -59q112 0 190.5 120t78.5 289z" />
    <glyph glyph-name="h" unicode="h" horiz-adv-x="1114" 
d="M598 1604l-262 -1026q45 83 105.5 167t133 162.5t154 128t152.5 49.5q72 0 101.5 -36.5t29.5 -108.5q0 -32 -13 -90l-161 -612q-19 -74 -19 -91q0 -30 29 -30q59 0 184 153l31 -22q-98 -146 -164 -207t-135 -61q-58 0 -89.5 37.5t-31.5 101.5q0 63 29 176l151 563
q11 49 11 68q0 43 -37 43q-38 0 -94 -33t-119.5 -96t-123.5 -143.5t-111 -186t-77 -213.5l-73 -297h-179l359 1434l-139 65l6 25l332 80h20z" />
    <glyph glyph-name="i" unicode="i" horiz-adv-x="557" 
d="M451 1251q-51 0 -85 34.5t-34 84.5q0 54 38 92.5t91 38.5q51 0 85 -34.5t34 -84.5q0 -54 -38 -92.5t-91 -38.5zM96 295l156 614l-125 64l6 24l322 88h20l-213 -847q-18 -70 -18 -91q0 -30 28 -30q60 0 185 153l30 -22q-98 -146 -164 -207t-135 -61q-58 0 -89 37.5
t-31 101.5q0 67 28 176z" />
    <glyph glyph-name="j" unicode="j" horiz-adv-x="491" 
d="M479 1085l-180 -802q-58 -259 -131.5 -416t-161 -224t-203.5 -67q-79 0 -128.5 34.5t-49.5 94.5q0 51 33 79.5t80 39.5h18q7 -85 41 -137t80 -52q38 0 63.5 28t51.5 102.5t59 220.5l209 923l-125 64l6 24l318 88h20zM436 1251q-51 0 -85 34.5t-34 84.5q0 54 38 92.5
t91 38.5q51 0 85 -34.5t34 -84.5q0 -54 -38 -92.5t-91 -38.5z" />
    <glyph glyph-name="k" unicode="k" horiz-adv-x="1030" 
d="M528 666l168 -439q4 -9 10.5 -26.5t9.5 -25.5t8.5 -21.5t9.5 -19.5t9.5 -15.5t10 -13.5t11 -9t13.5 -6.5t15 -1.5q17 0 34 8.5t39.5 32t39 42.5t50.5 62l31 -22q-76 -124 -133 -177.5t-131 -53.5q-76 0 -120.5 53.5t-82.5 163.5l-135 391l348 381q58 63 101.5 89.5
t91.5 26.5q62 0 93.5 -34.5t31.5 -83.5q0 -93 -115 -140h-14q0 43 -20 76t-62 33q-38 0 -71 -21t-81 -73zM201 0h-181l361 1434l-139 65l6 25l332 80h20z" />
    <glyph glyph-name="l" unicode="l" horiz-adv-x="544" 
d="M586 1604l-336 -1366q-19 -74 -19 -91q0 -30 29 -30q59 0 184 153l31 -22q-98 -146 -164 -207t-135 -61q-58 0 -89.5 37.5t-31.5 101.5q0 63 29 176l283 1139l-140 65l6 25l332 80h21z" />
    <glyph glyph-name="m" unicode="m" horiz-adv-x="1683" 
d="M883 1085q71 0 100 -35.5t29 -101.5q0 -98 -86 -370q46 86 102 167.5t125.5 161.5t147.5 129t149 49q72 0 101.5 -36.5t29.5 -108.5q0 -36 -12 -90l-162 -612q-18 -70 -18 -91q0 -30 28 -30q60 0 185 153l30 -22q-98 -146 -164 -207t-135 -61q-58 0 -89.5 37.5
t-31.5 101.5q0 63 29 176l152 563q10 45 10 68q0 43 -37 43q-48 0 -120 -55t-145.5 -143.5t-140 -216t-98.5 -257.5l-74 -297h-178l215 858q11 49 11 68q0 43 -37 43q-48 0 -120 -55t-145.5 -143.5t-140 -216t-98.5 -257.5l-74 -297h-178l227 909l-125 64l7 24l321 88h21
l-136 -507q46 85 102 167t126 162t148 129t149 49z" />
    <glyph glyph-name="n" unicode="n" horiz-adv-x="1136" 
d="M494 1085l-136 -507q45 83 105.5 167t133 162.5t154 128t152.5 49.5q72 0 101.5 -36.5t29.5 -108.5q0 -36 -12 -90l-162 -612q-18 -70 -18 -91q0 -30 28 -30q60 0 185 153l30 -22q-98 -146 -164 -207t-135 -61q-58 0 -89 37.5t-31 101.5q0 67 28 176l152 563q10 45 10 68
q0 43 -37 43q-38 0 -94 -33t-119 -96t-123 -143.5t-111 -186t-77 -213.5l-74 -297h-178l227 909l-125 64l7 24l321 88h21z" />
    <glyph glyph-name="o" unicode="o" horiz-adv-x="983" 
d="M389 37q99 0 186.5 114t135 272t47.5 304q0 301 -164 301q-99 0 -186.5 -114t-135 -272t-47.5 -304q0 -301 164 -301zM369 -20q-153 0 -238.5 98.5t-85.5 277.5q0 97 27 200.5t79 197t120.5 168.5t158 119t184.5 44q153 0 238.5 -98.5t85.5 -277.5q0 -97 -27 -200.5
t-79 -197t-120.5 -168.5t-158 -119t-184.5 -44z" />
    <glyph glyph-name="p" unicode="p" horiz-adv-x="1122" 
d="M494 1085l-132 -516q93 205 236.5 360.5t259.5 155.5q102 0 160.5 -80t58.5 -219q0 -156 -59.5 -307t-152 -259t-208.5 -174t-225 -66q-127 0 -194 77l-80 -317q-11 -46 -11 -55q0 -37 39 -51t152 -15l-12 -53h-531l12 53q87 5 120 24t48 78l297 1188l-125 64l7 24
l319 88h21zM793 956q-61 0 -136.5 -59t-149.5 -162t-141.5 -259t-107.5 -333q22 -49 65.5 -76.5t98.5 -27.5q121 0 232.5 113.5t176.5 282.5t66 335q0 186 -104 186z" />
    <glyph glyph-name="q" unicode="q" horiz-adv-x="1083" 
d="M1012 872l-299 -1132q-11 -46 -11 -55q0 -35 29.5 -49t99.5 -17l-12 -53h-510l13 53q116 5 153.5 23t54.5 79l213 760q-60 -131 -141 -244t-173.5 -185t-170.5 -72q-102 0 -157.5 79.5t-55.5 219.5q0 157 57.5 307.5t147.5 258.5t203.5 174t222.5 66q138 0 219 -81
l147 98h41zM324 109q61 0 134 58t144.5 160.5t138 258.5t109.5 338q-22 49 -65.5 76.5t-98.5 27.5q-121 0 -229 -114.5t-169.5 -283t-62.5 -335.5q0 -186 99 -186z" />
    <glyph glyph-name="r" unicode="r" horiz-adv-x="794" 
d="M494 1085l-103 -383l-84 -251q74 154 129.5 258t116.5 195.5t116 136t107 44.5q49 0 77 -31t28 -79q0 -61 -32.5 -99.5t-96.5 -68.5h-17q0 40 -11.5 62t-45.5 22q-42 0 -102 -65t-123.5 -177t-126.5 -284t-105 -365h-178l227 909l-125 64l7 24l321 88h21z" />
    <glyph glyph-name="s" unicode="s" horiz-adv-x="763" 
d="M360 55q81 0 122.5 41t41.5 117q0 42 -38 95t-92.5 107t-109 111t-92.5 125t-38 131q0 127 97 215t243 88q116 0 182.5 -47.5t66.5 -126.5q0 -38 -27 -67t-63 -45h-8q-80 209 -235 209q-68 0 -105 -39t-37 -105q0 -37 39 -89t94 -106.5t110.5 -112.5t94.5 -125.5
t39 -127.5q0 -145 -104 -234t-248 -89q-135 0 -219 62.5t-84 154.5q0 44 24 81t64 56h10q32 -127 102.5 -203t169.5 -76z" />
    <glyph glyph-name="t" unicode="t" horiz-adv-x="636" 
d="M442 965l-176 -699q-16 -69 -16 -102q0 -53 51 -53q55 0 107.5 39.5t144.5 144.5l31 -25q-107 -150 -194.5 -220t-172.5 -70q-67 0 -106 41t-39 110t22 156l170 678h-135l10 39q102 34 179 103.5t163 188.5h43l-63 -254h231l-20 -77h-230z" />
    <glyph glyph-name="u" unicode="u" horiz-adv-x="1136" 
d="M791 786l65 269l191 14l-203 -831q-19 -74 -19 -91q0 -30 29 -30q59 0 184 153l31 -22q-98 -146 -164 -207t-135 -61q-57 0 -87 37t-30 102q0 77 84 389q-36 -81 -91.5 -168.5t-124.5 -170t-149 -136t-151 -53.5q-73 0 -112 43.5t-39 113.5q0 46 16 105l172 667l-125 64
l6 24l322 88h20l-215 -835q-16 -62 -16 -94q0 -60 55 -60q49 0 117.5 53.5t137.5 143t133 221t98 272.5z" />
    <glyph glyph-name="v" unicode="v" horiz-adv-x="927" 
d="M162 920l-121 53l8 24l270 88h7l61 -921l242 301q86 108 122.5 185.5t36.5 162.5q0 82 -52 122.5t-144 31.5v16q83 102 176 102q59 0 96.5 -27.5t50.5 -64t13 -82.5q0 -98 -57.5 -205.5t-188.5 -265.5l-383 -460h-63z" />
    <glyph glyph-name="w" unicode="w" horiz-adv-x="1396" 
d="M664 920l-121 53l8 24l270 88h6l58 -915l223 295q81 108 115 185.5t34 162.5q0 82 -52 122.5t-144 31.5v16q83 102 176 102q59 0 96.5 -27.5t50.5 -64t13 -82.5q0 -97 -55 -203.5t-181 -267.5l-360 -460h-64l-41 518l-397 -518h-63l-74 940l-121 53l8 24l270 88h7
l61 -907l303 397z" />
    <glyph glyph-name="x" unicode="x" horiz-adv-x="1107" 
d="M297 244l162 245l-105 429l-157 63l8 27l278 77h11l98 -413l153 229q63 96 115 140t121 44q58 0 92.5 -33t34.5 -87q0 -90 -107 -138h-10q0 117 -84 117q-40 0 -74 -27.5t-81 -95.5l-146 -211l101 -420q9 -36 13.5 -49.5t16.5 -25t33 -11.5q79 0 219 152l27 -31
q-107 -134 -184.5 -189.5t-147.5 -55.5q-60 0 -91 45t-54 139l-64 260l-170 -260q-63 -95 -114 -139.5t-123 -44.5q-59 0 -96.5 34.5t-37.5 91.5q0 88 99 144h10q-3 -64 23 -95.5t65 -31.5q76 0 166 121z" />
    <glyph glyph-name="y" unicode="y" horiz-adv-x="980" 
d="M164 920l-125 53l8 24l270 88h7l159 -1022q26 36 115 173q144 225 194 353.5t50 223.5q0 82 -52.5 122.5t-144.5 31.5v16q83 102 176 102q59 0 96.5 -27.5t50.5 -64t13 -82.5q0 -96 -79 -261t-259 -447q-124 -195 -229.5 -325t-188 -192.5t-143 -85t-123.5 -22.5
q-76 0 -129 39.5t-53 116.5q0 46 27.5 82.5t68.5 48.5h8q0 -82 39.5 -128t108.5 -46q78 0 148 37.5t169 154.5z" />
    <glyph glyph-name="z" unicode="z" horiz-adv-x="929" 
d="M774 903h-391q-49 0 -72 -14t-51 -55l-63 -97l-33 13l143 385h31q7 -80 59 -80h594v-23l-805 -778l162 -59q12 -4 42.5 -14.5t38.5 -13t29 -8.5t32 -7.5t28.5 -3t36.5 -1.5q78 0 134 44.5t102 148.5l36 -14q-67 -196 -131 -271t-178 -75q-56 0 -108.5 19t-145.5 69
l-174 102l-78 -186q-40 1 -59 19t-19 44q0 46 46 92z" />
    <glyph glyph-name="braceleft" unicode="{" horiz-adv-x="698" 
d="M145 635l7 20q175 34 213 205l96 455q26 120 133.5 191t255.5 71l-8 -43q-95 -9 -152 -55.5t-78 -145.5l-98 -459q-21 -99 -79.5 -147.5t-176.5 -81.5q104 -33 142.5 -81.5t17.5 -147.5l-99 -459q-21 -99 16 -145.5t128 -55.5l-8 -43q-149 0 -227 71t-52 191l96 455
q38 170 -127 205z" />
    <glyph glyph-name="bar" unicode="|" horiz-adv-x="444" 
d="M489 1577l-395 -1866h-76l396 1866h75z" />
    <glyph glyph-name="braceright" unicode="}" horiz-adv-x="698" 
d="M604 655l-6 -20q-175 -34 -213 -205l-96 -455q-26 -120 -133.5 -191t-255.5 -71l8 43q94 9 151 56t78 145l99 459q21 99 79 147.5t174 81.5q-102 33 -140 81.5t-17 147.5l98 459q21 98 -16 144.5t-127 56.5l8 43q148 0 226 -71t52 -191l-96 -455q-38 -170 127 -205z" />
    <glyph glyph-name="asciitilde" unicode="~" horiz-adv-x="923" 
d="M817 748l51 -13q-45 -134 -98.5 -193t-146.5 -59q-43 0 -94 22t-89.5 48t-86 48t-85.5 22q-48 0 -79.5 -29t-69.5 -98l-51 12q45 134 98.5 193t146.5 59q43 0 94 -21.5t89.5 -48t86 -48t85.5 -21.5q48 0 79.5 29t69.5 98z" />
    <glyph glyph-name="uni00A0" unicode="&#xa0;" horiz-adv-x="409" 
 />
    <glyph glyph-name="exclamdown" unicode="&#xa1;" horiz-adv-x="487" 
d="M-49 -238l350 1022h31l-133 -1022h-248zM512 1079q0 -59 -41 -100t-100 -41t-100.5 41.5t-41.5 99.5q0 59 41.5 100.5t100.5 41.5q58 0 99.5 -41.5t41.5 -100.5z" />
    <glyph glyph-name="cent" unicode="&#xa2;" horiz-adv-x="940" 
d="M311 -233l47 213q-157 3 -236 101.5t-79 256.5q0 168 76 334.5t208 284.5t283 145l45 203h56l-45 -197q4 0 13 1t13 1q116 0 180 -45.5t64 -124.5q0 -108 -135 -129h-13q10 99 -23.5 164t-111.5 72l-217 -963h13q94 0 165 47t160 150l35 -27q-179 -250 -395 -272
l-47 -215h-56zM223 362q0 -106 40 -177.5t120 -92.5l213 952q-94 -20 -181 -128t-139.5 -259.5t-52.5 -294.5z" />
    <glyph glyph-name="sterling" unicode="&#xa3;" horiz-adv-x="1290" 
d="M182 723l15 63h241l72 236q67 219 181.5 327.5t303.5 108.5q134 0 214.5 -58.5t80.5 -154.5q0 -47 -26 -88.5t-64 -54.5h-133q20 62 20 127q0 180 -112 180q-85 0 -149 -120q-37 -68 -105 -266l-8 -22l-74 -215h367l-17 -63h-371l-73 -219q-21 -61 -41.5 -116t-30.5 -80
l-10 -25q112 -61 214.5 -97t213.5 -36q100 0 149.5 38.5t49.5 120.5q0 72 -66 127l18 21q62 -32 103 -86t41 -131q0 -124 -77.5 -192t-205.5 -68q-49 0 -101.5 12.5t-90.5 27t-89.5 44t-74 44.5t-70 49t-53.5 38q-41 -96 -113.5 -155.5t-167.5 -59.5q-98 0 -151 53.5
t-53 128.5q0 93 62 151t157 58q68 0 143 -33l117 385h-236zM104 55q60 0 103.5 52.5t75.5 166.5q-55 37 -125 37q-73 0 -112.5 -41t-39.5 -108q0 -45 28 -76t70 -31z" />
    <glyph glyph-name="currency" unicode="&#xa4;" horiz-adv-x="1181" 
d="M205 1120l57 49l129 -151q119 92 268 92q144 0 242 -92l168 151l47 -53l-170 -151q60 -89 60 -203q0 -88 -33.5 -171t-93.5 -147l133 -151l-58 -49l-131 151q-119 -92 -266 -92q-146 0 -244 92l-166 -151l-47 53l170 149q-59 86 -59 205q0 181 127 318zM565 369
q154 0 260.5 115.5t106.5 271.5q0 127 -79 207.5t-202 80.5q-154 0 -260 -115t-106 -272q0 -127 78.5 -207.5t201.5 -80.5z" />
    <glyph glyph-name="yen" unicode="&#xa5;" horiz-adv-x="1212" 
d="M684 580l-27 -123h355l-15 -66h-354l-39 -186q-7 -32 -8 -53.5t7 -37.5t19 -25.5t36 -16t49 -10t67 -7.5l-12 -55h-584l12 55q131 14 172.5 39t59.5 111l39 186h-352l14 66h350l27 121l-17 49h-323l12 63h291l-197 617q-11 37 -35 52.5t-69 22.5l12 56h506l-12 -56
q-119 -3 -160 -20.5t-41 -61.5q0 -25 18 -88l177 -550l409 548q57 77 57 107q0 34 -35.5 48t-129.5 17l12 56h409l-12 -56q-47 -7 -78.5 -22.5t-58.5 -52.5l-467 -617h293l-12 -63h-330z" />
    <glyph glyph-name="brokenbar" unicode="&#xa6;" horiz-adv-x="444" 
d="M489 1577l-163 -770h-76l164 770h75zM256 481l-162 -770h-76l162 770h76z" />
    <glyph glyph-name="section" unicode="&#xa7;" horiz-adv-x="1060" 
d="M844 291q0 -102 -25.5 -203t-77.5 -191.5t-124.5 -159.5t-174 -110t-217.5 -41q-141 0 -208.5 52.5t-67.5 130.5q0 101 110 141h107q-16 -33 -16 -76q0 -30 7 -60t23 -62t49.5 -52t79.5 -20q79 0 129.5 66.5t50.5 168.5q0 70 -29.5 149.5t-71.5 157.5t-84 162t-71.5 192
t-29.5 218q0 102 25.5 202.5t77.5 191t124 160t173.5 110t217.5 40.5q141 0 209 -52t68 -130q0 -100 -111 -141h-106q16 33 16 75q0 30 -7 60t-23.5 62.5t-50 52.5t-79.5 20q-79 0 -129.5 -67t-50.5 -169q0 -70 29.5 -149.5t71.5 -157t84.5 -161.5t72 -192t29.5 -218z
M264 754q0 -103 29.5 -206t71.5 -187t84.5 -164t72 -164t29.5 -158q0 -92 -64 -178q132 86 213.5 247t81.5 347q0 103 -29.5 206t-71.5 187t-84 163.5t-71.5 163.5t-29.5 158q0 94 63 179q-132 -86 -213.5 -247t-81.5 -347z" />
    <glyph glyph-name="dieresis" unicode="&#xa8;" 
d="M315 1245q-52 0 -85 34t-33 85q0 54 38 92.5t91 38.5q52 0 85 -34t33 -85q0 -54 -38 -92.5t-91 -38.5zM655 1245q-52 0 -85 34t-33 85q0 54 38 92.5t91 38.5q52 0 85 -34t33 -85q0 -54 -38 -92.5t-91 -38.5z" />
    <glyph glyph-name="copyright" unicode="&#xa9;" horiz-adv-x="1630" 
d="M803 -20q-148 0 -277 53t-218.5 144t-141 218t-51.5 271q0 163 60.5 309.5t164 252.5t248.5 168t307 62q148 0 277 -53t218.5 -144t141 -218t51.5 -271q0 -163 -60.5 -309.5t-164 -252.5t-248.5 -168t-307 -62zM805 291q-158 0 -257 93.5t-99 248.5q0 140 68 260.5
t185 191t254 70.5q156 0 250 -84l-41 -190h-35q-10 108 -47.5 162.5t-119.5 54.5q-96 0 -178.5 -70t-128.5 -177t-46 -220q0 -128 52 -204.5t149 -76.5q167 0 287 240h41l-62 -221q-135 -78 -272 -78zM803 20q206 0 375.5 100t266.5 272.5t97 379.5q0 182 -82 329
t-230.5 231.5t-334.5 84.5q-206 0 -375.5 -99.5t-266.5 -272t-97 -379.5q0 -182 82 -329.5t230.5 -232t334.5 -84.5z" />
    <glyph glyph-name="ordfeminine" unicode="&#xaa;" horiz-adv-x="788" 
d="M330 840q73 0 168.5 145t152.5 367q-37 57 -108 57q-67 0 -130.5 -68t-103 -177.5t-39.5 -223.5q0 -43 15 -71.5t45 -28.5zM688 1403l111 67h30l-45 -145l-112 -412q-13 -54 -13 -59q0 -18 19 -18q44 0 119 98l28 -19q-113 -172 -221 -172q-36 0 -57 24.5t-21 66.5
q0 27 16.5 95.5t35.5 123.5h-5q-60 -134 -141.5 -222t-157.5 -88q-70 0 -109.5 52.5t-39.5 144.5q0 102 38 199t97.5 166t135 111t147.5 42q90 0 145 -55z" />
    <glyph glyph-name="guillemotleft" unicode="&#xab;" horiz-adv-x="903" 
d="M84 555l2 12l477 394h58l-345 -400l170 -399h-57zM397 555l2 12l478 394h57l-344 -400l170 -399h-58z" />
    <glyph glyph-name="registered" unicode="&#xae;" horiz-adv-x="1136" 
d="M684 1208h-39l-43 -209h51q56 0 91.5 31.5t35.5 85.5q0 38 -24 65t-72 27zM502 1245h221q82 0 116.5 -36.5t34.5 -82.5q0 -36 -14 -64.5t-38 -45t-48.5 -26t-52.5 -13.5l61 -115q36 -67 90 -67l-6 -31h-110q-40 35 -66 88l-55 113h-41l-25 -119q-6 -29 3.5 -40t43.5 -11
l-6 -31h-213l9 31q35 0 51 10.5t22 38.5l66 311q7 30 -1 40t-50 13zM629 526q-192 0 -315.5 124.5t-123.5 310.5q0 210 143 353.5t353 143.5q192 0 315 -124t123 -310q0 -210 -142.5 -354t-352.5 -144zM629 567q193 0 323.5 132t130.5 325q0 169 -112 281t-285 112
q-193 0 -324 -132t-131 -324q0 -169 112.5 -281.5t285.5 -112.5z" />
    <glyph glyph-name="macron" unicode="&#xaf;" 
d="M244 1276l20 100h514l-20 -100h-514z" />
    <glyph glyph-name="degree" unicode="&#xb0;" horiz-adv-x="538" 
d="M348 1042q84 0 133 59.5t49 147.5q0 65 -37 106.5t-98 41.5q-84 0 -133 -59.5t-49 -147.5q0 -65 37 -106.5t98 -41.5zM346 981q-91 0 -149 58t-58 151q0 110 74 189t184 79q91 0 149 -58t58 -151q0 -110 -74 -189t-184 -79z" />
    <glyph glyph-name="plusminus" unicode="&#xb1;" horiz-adv-x="1155" 
d="M651 1233h101l-66 -305h401l-22 -101h-399l-64 -303h-100l63 303h-397l22 101h396zM57 299l21 100h897l-21 -100h-897z" />
    <glyph glyph-name="twosuperior" unicode="&#xb2;" horiz-adv-x="776" 
d="M295 766h192q77 0 113.5 21t95.5 102h37l-96 -258h-547l6 26q159 132 253.5 219.5t145 153t65.5 108.5t15 97t-35.5 87.5t-95.5 33.5q-109 0 -206 -109l-21 27q44 75 124 128.5t175 53.5q99 0 158 -53.5t59 -145.5q0 -46 -15.5 -87.5t-39 -73.5t-68.5 -73.5t-84.5 -72.5
t-109 -85.5t-121.5 -98.5z" />
    <glyph glyph-name="threesuperior" unicode="&#xb3;" horiz-adv-x="739" 
d="M504 1087q93 -12 148 -64.5t55 -135.5q0 -68 -29 -123t-77 -88t-105 -50.5t-117 -17.5q-131 0 -196.5 50.5t-65.5 119.5q0 33 19.5 59t53.5 40h80q-12 -47 -12 -89q0 -58 31 -96.5t90 -38.5q79 0 128.5 54t49.5 145q0 78 -39 126t-110 48q-26 0 -70 -6l-6 33
q252 81 252 207q0 43 -26 69.5t-77 26.5q-101 0 -202 -101l-27 25q47 82 121.5 130t171.5 48q91 0 142.5 -42t51.5 -113q0 -45 -22 -83t-59 -63.5t-74.5 -42t-79.5 -27.5z" />
    <glyph glyph-name="acute" unicode="&#xb4;" 
d="M496 1559h217l-2 -11l-365 -336h-35z" />
    <glyph glyph-name="mu" unicode="&#xb5;" horiz-adv-x="1169" 
d="M229 -18l-90 -363l-180 -20l326 1310l-125 64l6 24l321 88h21l-213 -852q-12 -54 -12 -77q0 -60 55 -60q49 0 117 53.5t137.5 143t133 221t97.5 272.5l66 269l190 14l-202 -831q-19 -74 -19 -91q0 -30 29 -30q59 0 184 153l31 -22q-98 -146 -164 -207t-135 -61
q-57 0 -87 37t-30 102q0 77 84 389q-35 -78 -95.5 -167.5t-133.5 -170.5t-157 -134.5t-155 -53.5z" />
    <glyph glyph-name="paragraph" unicode="&#xb6;" horiz-adv-x="1269" 
d="M438 -403l183 862q-219 0 -333 112t-114 285q0 170 78 301.5t227.5 206t349.5 74.5h560l-15 -60q-108 -3 -165 -36t-76 -121l-345 -1624h-75l377 1775h-199l-377 -1775h-76zM635 524l180 848q-83 0 -154 -33t-119 -86t-82 -121.5t-49.5 -138.5t-15.5 -137
q0 -66 12.5 -123t39.5 -105.5t75 -76t113 -27.5z" />
    <glyph glyph-name="periodcentered" unicode="&#xb7;" horiz-adv-x="421" 
d="M61 618q0 63 43.5 106.5t106.5 43.5t106 -43.5t43 -106.5t-43 -106t-106 -43t-106.5 43t-43.5 106z" />
    <glyph glyph-name="cedilla" unicode="&#xb8;" 
d="M332 -453l-13 54q123 0 192 31t69 83q0 80 -183 86l119 215h51l-61 -114q87 -2 141.5 -38t54.5 -104q0 -104 -101 -158.5t-269 -54.5z" />
    <glyph glyph-name="onesuperior" unicode="&#xb9;" horiz-adv-x="653" 
d="M563 1458h41l-143 -678q-13 -63 16 -80t135 -22l-10 -47h-500l11 47q108 6 142.5 21.5t45.5 74.5l105 498h-179l9 35l43 8q107 21 167 48.5t117 94.5z" />
    <glyph glyph-name="ordmasculine" unicode="&#xba;" horiz-adv-x="667" 
d="M383 799q59 0 111 69.5t80 166t28 184.5q0 186 -98 186q-59 0 -111 -69.5t-80 -166t-28 -184.5q0 -186 98 -186zM365 745q-100 0 -162 65.5t-62 180.5q0 105 50 212.5t140 181t191 73.5q100 0 161.5 -65.5t61.5 -180.5q0 -105 -50 -212.5t-139.5 -181t-190.5 -73.5z" />
    <glyph glyph-name="guillemotright" unicode="&#xbb;" horiz-adv-x="903" 
d="M836 567l-2 -12l-478 -393h-57l344 399l-170 400h57zM522 567l-2 -12l-477 -393h-57l344 399l-170 400h57z" />
    <glyph glyph-name="onequarter" unicode="&#xbc;" horiz-adv-x="1611" 
d="M831 274h308l80 373zM1366 0h-418l8 47q88 6 115 19.5t37 64.5l18 88h-395l8 35l588 571h80l-117 -551h162l-12 -55h-162l-18 -88q-10 -51 10.5 -64.5t103.5 -19.5zM205 -20l1222 1478h82l-1222 -1478h-82zM563 1458h41l-143 -678q-13 -63 16 -80t135 -22l-10 -47h-500
l11 47q108 6 142.5 21.5t45.5 74.5l105 498h-179l9 35l43 8q107 21 167 48.5t117 94.5z" />
    <glyph glyph-name="onehalf" unicode="&#xbd;" horiz-adv-x="1632" 
d="M205 -20l1222 1478h82l-1222 -1478h-82zM563 1458h41l-143 -678q-13 -63 16 -80t135 -22l-10 -47h-500l11 47q108 6 142.5 21.5t45.5 74.5l105 498h-179l9 35l43 8q107 21 167 48.5t117 94.5zM1063 135h192q77 0 113.5 21t95.5 102h37l-96 -258h-547l6 27
q210 174 313.5 279t134.5 166t31 132q0 54 -35.5 87.5t-95.5 33.5q-109 0 -206 -109l-21 27q44 75 124 128.5t175 53.5q99 0 158 -53t59 -145q0 -46 -15.5 -87.5t-39 -74t-68.5 -74t-84.5 -72.5t-109 -85.5t-121.5 -98.5z" />
    <glyph glyph-name="threequarters" unicode="&#xbe;" horiz-adv-x="1611" 
d="M831 274h308l80 373zM1366 0h-418l8 47q88 6 115 19.5t37 64.5l18 88h-395l8 35l588 571h80l-117 -551h162l-12 -55h-162l-18 -88q-10 -51 10.5 -64.5t103.5 -19.5zM205 -20l1222 1478h82l-1222 -1478h-82zM504 1087q93 -12 148 -64.5t55 -135.5q0 -68 -29 -123t-77 -88
t-105 -50.5t-117 -17.5q-131 0 -196.5 50.5t-65.5 119.5q0 33 19.5 59t53.5 40h80q-12 -47 -12 -89q0 -58 31 -96.5t90 -38.5q79 0 128.5 54t49.5 145q0 78 -39 126t-110 48q-26 0 -70 -6l-6 33q252 81 252 207q0 43 -26 69.5t-77 26.5q-101 0 -202 -101l-27 25
q47 82 121.5 130t171.5 48q91 0 142.5 -42t51.5 -113q0 -45 -22 -83t-59 -63.5t-74.5 -42t-79.5 -27.5z" />
    <glyph glyph-name="questiondown" unicode="&#xbf;" horiz-adv-x="860" 
d="M354 295q-117 -67 -170 -131.5t-53 -171.5q0 -92 52 -147.5t147 -55.5q92 0 145 59.5t53 163.5q0 49 -10 99h144q21 -16 35 -48t14 -69q0 -114 -106.5 -183t-274.5 -69q-170 0 -271.5 85t-101.5 226q0 57 15.5 105t39 83t66 70t81 59t99.5 58q125 70 188.5 135t63.5 158
q0 26 -16 84h32q80 -80 80 -193q0 -99 -62 -171t-190 -146zM739 1079q0 -59 -41.5 -100t-99.5 -41t-99.5 41t-41.5 100t41.5 100.5t99.5 41.5t99.5 -41.5t41.5 -100.5z" />
    <glyph glyph-name="Agrave" unicode="&#xc0;" horiz-adv-x="1425" 
d="M1004 225l-56 279h-581l-168 -277q-41 -68 -41 -102q0 -36 40.5 -51.5t129.5 -18.5l-11 -55h-415l10 55q49 5 81.5 21t55.5 55l733 1194l-28 131h196l262 -1325q7 -38 33 -54.5t72 -21.5l-10 -55h-514l10 55q35 1 55 2.5t48 5.5t43.5 12t31 20.5t22.5 32t7 46.5
q0 24 -6 51zM809 1231l-403 -662h530zM608 1843h215l95 -305h-35l-275 295v10z" />
    <glyph glyph-name="Aacute" unicode="&#xc1;" horiz-adv-x="1425" 
d="M1004 225l-56 279h-581l-168 -277q-41 -68 -41 -102q0 -36 40.5 -51.5t129.5 -18.5l-11 -55h-415l10 55q49 5 81.5 21t55.5 55l733 1194l-28 131h196l262 -1325q7 -38 33 -54.5t72 -21.5l-10 -55h-514l10 55q35 1 55 2.5t48 5.5t43.5 12t31 20.5t22.5 32t7 46.5
q0 24 -6 51zM809 1231l-403 -662h530zM985 1843h229l-2 -10l-327 -295h-35z" />
    <glyph glyph-name="Acircumflex" unicode="&#xc2;" horiz-adv-x="1425" 
d="M1004 225l-56 279h-581l-168 -277q-41 -68 -41 -102q0 -36 40.5 -51.5t129.5 -18.5l-11 -55h-415l10 55q49 5 81.5 21t55.5 55l733 1194l-28 131h196l262 -1325q7 -38 33 -54.5t72 -21.5l-10 -55h-514l10 55q35 1 55 2.5t48 5.5t43.5 12t31 20.5t22.5 32t7 46.5
q0 24 -6 51zM809 1231l-403 -662h530zM1030 1864l150 -326h-50l-194 193l-289 -193h-57l301 326h139z" />
    <glyph glyph-name="Atilde" unicode="&#xc3;" horiz-adv-x="1425" 
d="M1004 225l-56 279h-581l-168 -277q-41 -68 -41 -102q0 -36 40.5 -51.5t129.5 -18.5l-11 -55h-415l10 55q49 5 81.5 21t55.5 55l733 1194l-28 131h196l262 -1325q7 -38 33 -54.5t72 -21.5l-10 -55h-514l10 55q35 1 55 2.5t48 5.5t43.5 12t31 20.5t22.5 32t7 46.5
q0 24 -6 51zM809 1231l-403 -662h530zM1028 1544q-34 0 -70.5 18t-63 39.5t-61 39.5t-65.5 18q-43 0 -76.5 -26t-75.5 -91l-34 21q74 137 121 184t116 47q34 0 70.5 -18t62.5 -39.5t60 -39.5t65 -18q44 0 79 27t73 90l37 -20q-74 -137 -121.5 -184.5t-116.5 -47.5z" />
    <glyph glyph-name="Adieresis" unicode="&#xc4;" horiz-adv-x="1425" 
d="M1004 225l-56 279h-581l-168 -277q-41 -68 -41 -102q0 -36 40.5 -51.5t129.5 -18.5l-11 -55h-415l10 55q49 5 81.5 21t55.5 55l733 1194l-28 131h196l262 -1325q7 -38 33 -54.5t72 -21.5l-10 -55h-514l10 55q35 1 55 2.5t48 5.5t43.5 12t31 20.5t22.5 32t7 46.5
q0 24 -6 51zM809 1231l-403 -662h530zM727 1556q-52 0 -85.5 34t-33.5 85q0 54 38 92.5t91 38.5q52 0 85.5 -33.5t33.5 -84.5q0 -54 -38 -93t-91 -39zM1108 1556q-52 0 -85.5 34t-33.5 85q0 54 38 92.5t91 38.5q52 0 85.5 -33.5t33.5 -84.5q0 -54 -38 -93t-91 -39z" />
    <glyph glyph-name="Aring" unicode="&#xc5;" horiz-adv-x="1425" 
d="M1004 225l-56 279h-581l-168 -277q-41 -68 -41 -102q0 -36 40.5 -51.5t129.5 -18.5l-11 -55h-415l10 55q49 5 81.5 21t55.5 55l733 1194l-28 131h196l262 -1325q7 -38 33 -54.5t72 -21.5l-10 -55h-514l10 55q35 1 55 2.5t48 5.5t43.5 12t31 20.5t22.5 32t7 46.5
q0 24 -6 51zM809 1231l-403 -662h530zM748 1661q0 83 55 138.5t135 55.5q78 0 122 -43t44 -114q0 -83 -55.5 -139t-135.5 -56q-78 0 -121.5 43.5t-43.5 114.5zM1038 1698q0 45 -27.5 72.5t-72.5 27.5q-58 0 -91.5 -39.5t-33.5 -97.5q0 -45 27.5 -72.5t72.5 -27.5
q58 0 91.5 39.5t33.5 97.5z" />
    <glyph glyph-name="AE" unicode="&#xc6;" horiz-adv-x="2004" 
d="M1790 0h-1075l12 55q53 6 80.5 11t53 14t38 24.5t22 37.5t17.5 59l63 303h-536l-229 -277q-29 -36 -41.5 -57.5t-12.5 -44.5q0 -36 40.5 -51.5t129.5 -18.5l-10 -55h-440l10 55q48 5 85.5 26.5t84.5 76.5l979 1167q-42 37 -187 57l13 56h1184l-64 -342h-41
q-33 162 -83 218t-157 56h-346l-127 -594h306q63 0 104 44t80 141h55l-92 -437h-55q3 97 -20 141t-87 44h-305l-106 -502q-18 -80 22 -109.5t150 -29.5h168q54 0 99 15.5t94.5 55.5t95.5 91t118 139h49zM1188 1372l-668 -803h496z" />
    <glyph glyph-name="Ccedilla" unicode="&#xc7;" horiz-adv-x="1318" 
d="M438 -453l-12 54q123 0 191.5 31t68.5 83q0 80 -182 86l98 181q-246 12 -378 161t-132 400q0 108 27.5 218t78 211.5t126.5 190t167 154t205 103.5t236 38q269 0 428 -121l-64 -299h-55q3 172 -77 262.5t-232 90.5q-121 0 -226 -54t-178 -142t-126 -199.5t-78 -227.5
t-25 -225q0 -239 87.5 -367.5t256.5 -128.5q171 0 295 100t217 308h62l-105 -365q-207 -107 -459 -110l-41 -78q88 -2 142.5 -38t54.5 -104q0 -104 -101.5 -158.5t-269.5 -54.5z" />
    <glyph glyph-name="Egrave" unicode="&#xc8;" horiz-adv-x="1257" 
d="M1042 0h-1095l12 55q53 6 80.5 11t53 14t38 24.5t22 37.5t17.5 59l221 1036q5 24 7.5 41.5t-1 31.5t-6 23.5t-15 17t-20.5 11.5t-30.5 8t-36.5 6t-47 6l12 56h1069l-63 -342h-41q-33 162 -83 218t-157 56h-367l-127 -594h326q63 0 104 44t80 141h56l-93 -437h-55
q3 97 -20 141t-86 44h-326l-106 -502q-18 -80 22 -109.5t150 -29.5h188q54 0 99.5 15.5t95 55.5t96 91t117.5 139h49zM592 1843h215l94 -305h-35l-274 295v10z" />
    <glyph glyph-name="Eacute" unicode="&#xc9;" horiz-adv-x="1257" 
d="M1042 0h-1095l12 55q53 6 80.5 11t53 14t38 24.5t22 37.5t17.5 59l221 1036q5 24 7.5 41.5t-1 31.5t-6 23.5t-15 17t-20.5 11.5t-30.5 8t-36.5 6t-47 6l12 56h1069l-63 -342h-41q-33 162 -83 218t-157 56h-367l-127 -594h326q63 0 104 44t80 141h56l-93 -437h-55
q3 97 -20 141t-86 44h-326l-106 -502q-18 -80 22 -109.5t150 -29.5h188q54 0 99.5 15.5t95 55.5t96 91t117.5 139h49zM973 1843h229l-2 -10l-328 -295h-34z" />
    <glyph glyph-name="Ecircumflex" unicode="&#xca;" horiz-adv-x="1257" 
d="M1042 0h-1095l12 55q53 6 80.5 11t53 14t38 24.5t22 37.5t17.5 59l221 1036q5 24 7.5 41.5t-1 31.5t-6 23.5t-15 17t-20.5 11.5t-30.5 8t-36.5 6t-47 6l12 56h1069l-63 -342h-41q-33 162 -83 218t-157 56h-367l-127 -594h326q63 0 104 44t80 141h56l-93 -437h-55
q3 97 -20 141t-86 44h-326l-106 -502q-18 -80 22 -109.5t150 -29.5h188q54 0 99.5 15.5t95 55.5t96 91t117.5 139h49zM1014 1864l149 -326h-49l-194 193l-289 -193h-58l301 326h140z" />
    <glyph glyph-name="Edieresis" unicode="&#xcb;" horiz-adv-x="1257" 
d="M1042 0h-1095l12 55q53 6 80.5 11t53 14t38 24.5t22 37.5t17.5 59l221 1036q5 24 7.5 41.5t-1 31.5t-6 23.5t-15 17t-20.5 11.5t-30.5 8t-36.5 6t-47 6l12 56h1069l-63 -342h-41q-33 162 -83 218t-157 56h-367l-127 -594h326q63 0 104 44t80 141h56l-93 -437h-55
q3 97 -20 141t-86 44h-326l-106 -502q-18 -80 22 -109.5t150 -29.5h188q54 0 99.5 15.5t95 55.5t96 91t117.5 139h49zM711 1556q-52 0 -85.5 34t-33.5 85q0 54 38 92.5t91 38.5q52 0 85.5 -33.5t33.5 -84.5q0 -54 -38 -93t-91 -39zM1092 1556q-52 0 -85.5 34t-33.5 85
q0 54 38 92.5t91 38.5q52 0 85.5 -33.5t33.5 -84.5q0 -54 -38 -93t-91 -39z" />
    <glyph glyph-name="Igrave" unicode="&#xcc;" horiz-adv-x="667" 
d="M170 201l221 1036q5 24 7.5 41.5t-1 31.5t-6 23.5t-15 17t-20.5 11.5t-30.5 8t-36.5 6t-47 6l12 56h553l-12 -56q-44 -5 -68.5 -8.5t-49.5 -11t-37 -16t-24.5 -24t-18.5 -35t-13 -50.5l-222 -1036q-5 -24 -7.5 -41.5t1 -31.5t6 -23.5t15 -17.5t21 -12t31 -8t37 -6
t46.5 -6l-12 -55h-553l12 55q53 6 80.5 11t53 14t38 24.5t22 37.5t17.5 59zM264 1843h215l94 -305h-34l-275 295v10z" />
    <glyph glyph-name="Iacute" unicode="&#xcd;" horiz-adv-x="667" 
d="M170 201l221 1036q5 24 7.5 41.5t-1 31.5t-6 23.5t-15 17t-20.5 11.5t-30.5 8t-36.5 6t-47 6l12 56h553l-12 -56q-44 -5 -68.5 -8.5t-49.5 -11t-37 -16t-24.5 -24t-18.5 -35t-13 -50.5l-222 -1036q-5 -24 -7.5 -41.5t1 -31.5t6 -23.5t15 -17.5t21 -12t31 -8t37 -6
t46.5 -6l-12 -55h-553l12 55q53 6 80.5 11t53 14t38 24.5t22 37.5t17.5 59zM666 1843h229l-2 -10l-328 -295h-35z" />
    <glyph glyph-name="Icircumflex" unicode="&#xce;" horiz-adv-x="667" 
d="M170 201l221 1036q5 24 7.5 41.5t-1 31.5t-6 23.5t-15 17t-20.5 11.5t-30.5 8t-36.5 6t-47 6l12 56h553l-12 -56q-44 -5 -68.5 -8.5t-49.5 -11t-37 -16t-24.5 -24t-18.5 -35t-13 -50.5l-222 -1036q-5 -24 -7.5 -41.5t1 -31.5t6 -23.5t15 -17.5t21 -12t31 -8t37 -6
t46.5 -6l-12 -55h-553l12 55q53 6 80.5 11t53 14t38 24.5t22 37.5t17.5 59zM686 1864l150 -326h-50l-194 193l-289 -193h-57l301 326h139z" />
    <glyph glyph-name="Idieresis" unicode="&#xcf;" horiz-adv-x="667" 
d="M170 201l221 1036q5 24 7.5 41.5t-1 31.5t-6 23.5t-15 17t-20.5 11.5t-30.5 8t-36.5 6t-47 6l12 56h553l-12 -56q-44 -5 -68.5 -8.5t-49.5 -11t-37 -16t-24.5 -24t-18.5 -35t-13 -50.5l-222 -1036q-5 -24 -7.5 -41.5t1 -31.5t6 -23.5t15 -17.5t21 -12t31 -8t37 -6
t46.5 -6l-12 -55h-553l12 55q53 6 80.5 11t53 14t38 24.5t22 37.5t17.5 59zM389 1556q-52 0 -85.5 34t-33.5 85q0 54 38 92.5t91 38.5q52 0 85.5 -33.5t33.5 -84.5q0 -54 -38 -93t-91 -39zM770 1556q-52 0 -85.5 34t-33.5 85q0 54 38 92.5t91 38.5q52 0 85.5 -33.5
t33.5 -84.5q0 -54 -38 -93t-91 -39z" />
    <glyph glyph-name="Eth" unicode="&#xd0;" horiz-adv-x="1433" 
d="M104 709l15 69h174l98 459q5 24 7.5 41.5t-1 31.5t-6 23.5t-15 17t-20.5 11.5t-30.5 8t-36.5 6t-47 6l12 56h518q301 0 473 -155.5t172 -422.5q0 -194 -69 -356.5t-189 -272t-283 -170.5t-350 -61h-579l12 55q53 6 80.5 11t53 14t38 24.5t22 37.5t17.5 59l109 508h-175z
M518 68h31q140 0 261.5 56.5t210 158t139 250.5t50.5 327q0 244 -115 377t-350 133h-133l-127 -592h299l-14 -69h-299l-104 -496q-19 -87 15.5 -116t135.5 -29z" />
    <glyph glyph-name="Ntilde" unicode="&#xd1;" horiz-adv-x="1492" 
d="M1149 299l194 938q17 83 -24.5 111t-167.5 34l12 56h486l-13 -56q-44 -5 -68.5 -8.5t-49.5 -11t-37 -16t-24.5 -24t-18.5 -35t-13 -50.5l-264 -1245h-51l-651 1190l-207 -981q-17 -83 24.5 -111.5t167.5 -34.5l-12 -55h-485l12 55q53 6 80.5 11t53 14t38 24.5t22 37.5
t17.5 59l225 1056q-41 75 -72.5 99.5t-105.5 25.5l12 56h310zM1104 1544q-34 0 -70.5 18t-63 39.5t-61 39.5t-65.5 18q-43 0 -76.5 -26t-75.5 -91l-35 21q74 136 121.5 183.5t116.5 47.5q34 0 70.5 -18t62.5 -39.5t60 -39.5t65 -18q44 0 79 27t73 90l36 -20
q-74 -137 -121 -184.5t-116 -47.5z" />
    <glyph glyph-name="Ograve" unicode="&#xd2;" horiz-adv-x="1425" 
d="M877 1458q131 0 234.5 -44.5t167.5 -121.5t97 -176.5t33 -214.5q0 -127 -35.5 -257.5t-104.5 -249t-162 -211.5t-218.5 -148t-263.5 -55q-131 0 -234.5 44.5t-167.5 121.5t-97.5 176.5t-33.5 214.5q0 105 25.5 214.5t72 212t117 192.5t155.5 157t192.5 106t222.5 39z
M877 1391q-106 0 -200.5 -53.5t-162 -141.5t-117 -199.5t-74 -230t-24.5 -229.5q0 -105 19 -192.5t57 -155t102 -105t148 -37.5q131 0 243.5 81.5t183.5 208.5t110.5 275t39.5 289q0 106 -18.5 193t-57 154.5t-102 105t-147.5 37.5zM653 1843h215l95 -305h-35l-275 295v10z
" />
    <glyph glyph-name="Oacute" unicode="&#xd3;" horiz-adv-x="1425" 
d="M877 1458q131 0 234.5 -44.5t167.5 -121.5t97 -176.5t33 -214.5q0 -127 -35.5 -257.5t-104.5 -249t-162 -211.5t-218.5 -148t-263.5 -55q-131 0 -234.5 44.5t-167.5 121.5t-97.5 176.5t-33.5 214.5q0 105 25.5 214.5t72 212t117 192.5t155.5 157t192.5 106t222.5 39z
M877 1391q-106 0 -200.5 -53.5t-162 -141.5t-117 -199.5t-74 -230t-24.5 -229.5q0 -105 19 -192.5t57 -155t102 -105t148 -37.5q131 0 243.5 81.5t183.5 208.5t110.5 275t39.5 289q0 106 -18.5 193t-57 154.5t-102 105t-147.5 37.5zM1055 1843h229l-2 -10l-328 -295h-34z
" />
    <glyph glyph-name="Ocircumflex" unicode="&#xd4;" horiz-adv-x="1425" 
d="M877 1458q131 0 234.5 -44.5t167.5 -121.5t97 -176.5t33 -214.5q0 -127 -35.5 -257.5t-104.5 -249t-162 -211.5t-218.5 -148t-263.5 -55q-131 0 -234.5 44.5t-167.5 121.5t-97.5 176.5t-33.5 214.5q0 105 25.5 214.5t72 212t117 192.5t155.5 157t192.5 106t222.5 39z
M877 1391q-106 0 -200.5 -53.5t-162 -141.5t-117 -199.5t-74 -230t-24.5 -229.5q0 -105 19 -192.5t57 -155t102 -105t148 -37.5q131 0 243.5 81.5t183.5 208.5t110.5 275t39.5 289q0 106 -18.5 193t-57 154.5t-102 105t-147.5 37.5zM1075 1864l150 -326h-49l-195 193
l-289 -193h-57l301 326h139z" />
    <glyph glyph-name="Otilde" unicode="&#xd5;" horiz-adv-x="1425" 
d="M877 1458q131 0 234.5 -44.5t167.5 -121.5t97 -176.5t33 -214.5q0 -127 -35.5 -257.5t-104.5 -249t-162 -211.5t-218.5 -148t-263.5 -55q-131 0 -234.5 44.5t-167.5 121.5t-97.5 176.5t-33.5 214.5q0 105 25.5 214.5t72 212t117 192.5t155.5 157t192.5 106t222.5 39z
M877 1391q-106 0 -200.5 -53.5t-162 -141.5t-117 -199.5t-74 -230t-24.5 -229.5q0 -105 19 -192.5t57 -155t102 -105t148 -37.5q131 0 243.5 81.5t183.5 208.5t110.5 275t39.5 289q0 106 -18.5 193t-57 154.5t-102 105t-147.5 37.5zM1073 1544q-34 0 -70.5 18t-63 39.5
t-61 39.5t-65.5 18q-43 0 -76 -26t-75 -91l-35 21q74 137 121 184t116 47q34 0 70.5 -18t62.5 -39.5t60 -39.5t65 -18q44 0 79 27t73 90l37 -20q-74 -137 -121.5 -184.5t-116.5 -47.5z" />
    <glyph glyph-name="Odieresis" unicode="&#xd6;" horiz-adv-x="1425" 
d="M877 1458q131 0 234.5 -44.5t167.5 -121.5t97 -176.5t33 -214.5q0 -127 -35.5 -257.5t-104.5 -249t-162 -211.5t-218.5 -148t-263.5 -55q-131 0 -234.5 44.5t-167.5 121.5t-97.5 176.5t-33.5 214.5q0 105 25.5 214.5t72 212t117 192.5t155.5 157t192.5 106t222.5 39z
M877 1391q-106 0 -200.5 -53.5t-162 -141.5t-117 -199.5t-74 -230t-24.5 -229.5q0 -105 19 -192.5t57 -155t102 -105t148 -37.5q131 0 243.5 81.5t183.5 208.5t110.5 275t39.5 289q0 106 -18.5 193t-57 154.5t-102 105t-147.5 37.5zM772 1556q-52 0 -85.5 34t-33.5 85
q0 54 38 92.5t91 38.5q52 0 85.5 -33.5t33.5 -84.5q0 -54 -38 -93t-91 -39zM1153 1556q-52 0 -85.5 34t-33.5 85q0 54 38 92.5t91 38.5q52 0 85.5 -33.5t33.5 -84.5q0 -54 -38 -93t-91 -39z" />
    <glyph glyph-name="multiply" unicode="&#xd7;" horiz-adv-x="999" 
d="M451 752l-228 290l84 70l228 -293l356 295l57 -76l-356 -293l231 -288l-84 -70l-231 291l-354 -295l-58 76z" />
    <glyph glyph-name="Oslash" unicode="&#xd8;" horiz-adv-x="1425" 
d="M1368 1444l-106 -135q72 -75 109.5 -181t37.5 -227q0 -127 -35.5 -257.5t-104.5 -249t-162 -211.5t-218.5 -148t-263.5 -55q-200 0 -336 102l-119 -150l-53 35l125 158q-150 153 -150 412q0 105 25.5 214.5t72 212t117 192.5t155.5 157t192.5 106t222.5 39
q202 0 337 -106l101 127zM877 1391q-106 0 -200.5 -53.5t-162 -141.5t-117 -199.5t-74 -230t-24.5 -229.5q0 -167 45 -283l784 989q-82 148 -251 148zM1202 901q0 160 -43 279l-784 -992q82 -141 250 -141q131 0 243.5 81.5t183.5 208.5t110.5 275t39.5 289z" />
    <glyph glyph-name="Ugrave" unicode="&#xd9;" horiz-adv-x="1439" 
d="M1169 520l154 717q5 24 7.5 41.5t-1 31.5t-6 23.5t-15 17t-20.5 11.5t-30.5 8t-36.5 6t-47 6l12 56h440l-12 -56q-44 -5 -68.5 -8.5t-49.5 -11t-37 -16t-24.5 -24t-18.5 -35t-13 -50.5l-160 -752q-54 -252 -203.5 -378.5t-369.5 -126.5q-125 0 -223.5 36.5t-164 108
t-87.5 178t6 246.5l145 688q5 24 7.5 41.5t-1 31.5t-6 23.5t-15 17t-20.5 11.5t-30.5 8t-36.5 6t-47 6l12 56h553l-12 -56q-44 -5 -68.5 -8.5t-49.5 -11t-37 -16t-24.5 -24t-18.5 -35t-13 -50.5l-148 -696q-43 -206 39.5 -331.5t265.5 -125.5q201 0 313.5 104t159.5 332z
M707 1843h215l94 -305h-35l-274 295v10z" />
    <glyph glyph-name="Uacute" unicode="&#xda;" horiz-adv-x="1439" 
d="M1169 520l154 717q5 24 7.5 41.5t-1 31.5t-6 23.5t-15 17t-20.5 11.5t-30.5 8t-36.5 6t-47 6l12 56h440l-12 -56q-44 -5 -68.5 -8.5t-49.5 -11t-37 -16t-24.5 -24t-18.5 -35t-13 -50.5l-160 -752q-54 -252 -203.5 -378.5t-369.5 -126.5q-125 0 -223.5 36.5t-164 108
t-87.5 178t6 246.5l145 688q5 24 7.5 41.5t-1 31.5t-6 23.5t-15 17t-20.5 11.5t-30.5 8t-36.5 6t-47 6l12 56h553l-12 -56q-44 -5 -68.5 -8.5t-49.5 -11t-37 -16t-24.5 -24t-18.5 -35t-13 -50.5l-148 -696q-43 -206 39.5 -331.5t265.5 -125.5q201 0 313.5 104t159.5 332z
M1071 1843h229l-2 -10l-327 -295h-35z" />
    <glyph glyph-name="Ucircumflex" unicode="&#xdb;" horiz-adv-x="1439" 
d="M1169 520l154 717q5 24 7.5 41.5t-1 31.5t-6 23.5t-15 17t-20.5 11.5t-30.5 8t-36.5 6t-47 6l12 56h440l-12 -56q-44 -5 -68.5 -8.5t-49.5 -11t-37 -16t-24.5 -24t-18.5 -35t-13 -50.5l-160 -752q-54 -252 -203.5 -378.5t-369.5 -126.5q-125 0 -223.5 36.5t-164 108
t-87.5 178t6 246.5l145 688q5 24 7.5 41.5t-1 31.5t-6 23.5t-15 17t-20.5 11.5t-30.5 8t-36.5 6t-47 6l12 56h553l-12 -56q-44 -5 -68.5 -8.5t-49.5 -11t-37 -16t-24.5 -24t-18.5 -35t-13 -50.5l-148 -696q-43 -206 39.5 -331.5t265.5 -125.5q201 0 313.5 104t159.5 332z
M1128 1864l150 -326h-49l-195 193l-289 -193h-57l301 326h139z" />
    <glyph glyph-name="Udieresis" unicode="&#xdc;" horiz-adv-x="1439" 
d="M1169 520l154 717q5 24 7.5 41.5t-1 31.5t-6 23.5t-15 17t-20.5 11.5t-30.5 8t-36.5 6t-47 6l12 56h440l-12 -56q-44 -5 -68.5 -8.5t-49.5 -11t-37 -16t-24.5 -24t-18.5 -35t-13 -50.5l-160 -752q-54 -252 -203.5 -378.5t-369.5 -126.5q-125 0 -223.5 36.5t-164 108
t-87.5 178t6 246.5l145 688q5 24 7.5 41.5t-1 31.5t-6 23.5t-15 17t-20.5 11.5t-30.5 8t-36.5 6t-47 6l12 56h553l-12 -56q-44 -5 -68.5 -8.5t-49.5 -11t-37 -16t-24.5 -24t-18.5 -35t-13 -50.5l-148 -696q-43 -206 39.5 -331.5t265.5 -125.5q201 0 313.5 104t159.5 332z
M825 1556q-52 0 -85 34t-33 85q0 54 38 92.5t91 38.5q52 0 85 -33.5t33 -84.5q0 -54 -38 -93t-91 -39zM1206 1556q-52 0 -85.5 34t-33.5 85q0 54 38.5 92.5t91.5 38.5q52 0 85 -33.5t33 -84.5q0 -54 -38 -93t-91 -39z" />
    <glyph glyph-name="Yacute" unicode="&#xdd;" horiz-adv-x="1271" 
d="M737 580l-80 -375q-7 -32 -8 -53.5t7 -37.5t19 -25.5t36 -16t49 -10t67 -7.5l-12 -55h-584l13 55q131 14 172 39t59 111l78 373l-254 729q-13 38 -36.5 53.5t-67.5 21.5l12 56h506l-13 -56q-119 -3 -159.5 -20.5t-40.5 -61.5q0 -25 18 -88l197 -550l430 548q57 77 57 107
q0 34 -36 48t-130 17l13 56h409l-12 -56q-46 -6 -77 -22.5t-60 -52.5zM1014 1843h229l-2 -10l-328 -295h-34z" />
    <glyph glyph-name="Thorn" unicode="&#xde;" horiz-adv-x="1220" 
d="M553 1090l-152 -715h136q209 0 333.5 108t124.5 316q0 133 -82 212t-241 79h-119zM584 1237l-19 -82l160 2q229 3 347 -98.5t118 -259.5q0 -152 -85 -264.5t-233 -170t-340 -57.5h-145l-18 -80q-20 -93 23 -126t196 -42l-13 -59h-628l12 55q53 6 80.5 11t53 14t38 24.5
t22 37.5t17.5 59l221 1036q5 24 7.5 41.5t-1 31.5t-6 23.5t-15 17t-20.5 11.5t-30.5 8t-36.5 6t-47 6l12 56h553l-12 -56q-44 -5 -68.5 -8.5t-49 -11t-36.5 -16t-24.5 -24t-19 -35t-13.5 -50.5z" />
    <glyph glyph-name="germandbls" unicode="&#xdf;" horiz-adv-x="1155" 
d="M786 55q77 0 118.5 40.5t41.5 117.5q0 55 -34.5 119.5t-83.5 123.5t-98 116.5t-83.5 117.5t-34.5 109q0 60 34.5 104.5t135.5 126.5q72 59 107 142.5t35 168.5q0 87 -49 145t-134 58q-47 0 -85 -18.5t-64 -47.5t-47.5 -77t-35.5 -95.5t-28 -113.5l-194 -883
q-62 -275 -130.5 -435t-151.5 -229t-198 -69q-79 0 -128.5 34.5t-49.5 94.5q0 51 33 79.5t80 39.5h18q7 -85 41 -137t80 -52q31 0 52 15t47 66t53 158.5t59 281.5l150 809h-164l12 49l170 39q23 114 67.5 211.5t108 174.5t151.5 121t191 44q141 0 228.5 -71.5t87.5 -182.5
q0 -47 -16.5 -91t-36.5 -74.5t-60 -68t-65.5 -56.5t-73.5 -54q-46 -34 -66 -63.5t-20 -70.5q0 -36 32.5 -87t79 -105.5t92.5 -113t78.5 -127.5t32.5 -132q0 -148 -101.5 -237.5t-254.5 -89.5q-135 0 -219 62.5t-84 154.5q0 44 24 81t64 56h10q32 -127 103 -203t173 -76z" />
    <glyph glyph-name="agrave" unicode="&#xe0;" horiz-adv-x="1103" 
d="M322 109q126 0 270.5 223.5t238.5 591.5q-22 50 -63.5 77t-95.5 27q-116 0 -221 -111t-166.5 -284t-61.5 -354q0 -81 25 -125.5t74 -44.5zM637 119q0 46 25.5 156t54.5 192q-60 -133 -134.5 -241t-161.5 -177t-165 -69q-101 0 -156 79.5t-55 219.5q0 157 55 307.5
t142.5 258.5t199 174t220.5 66q66 0 113 -19.5t89 -61.5l148 98h41l-72 -230l-154 -634q-18 -70 -18 -91q0 -30 29 -30q59 0 184 153l31 -22q-98 -146 -164 -207t-135 -61q-57 0 -87 37t-30 102zM453 1559h204l123 -347h-35l-292 336v11z" />
    <glyph glyph-name="aacute" unicode="&#xe1;" horiz-adv-x="1103" 
d="M322 109q126 0 270.5 223.5t238.5 591.5q-22 50 -63.5 77t-95.5 27q-116 0 -221 -111t-166.5 -284t-61.5 -354q0 -81 25 -125.5t74 -44.5zM637 119q0 46 25.5 156t54.5 192q-60 -133 -134.5 -241t-161.5 -177t-165 -69q-101 0 -156 79.5t-55 219.5q0 157 55 307.5
t142.5 258.5t199 174t220.5 66q66 0 113 -19.5t89 -61.5l148 98h41l-72 -230l-154 -634q-18 -70 -18 -91q0 -30 29 -30q59 0 184 153l31 -22q-98 -146 -164 -207t-135 -61q-57 0 -87 37t-30 102zM905 1559h217l-2 -11l-364 -336h-35z" />
    <glyph glyph-name="acircumflex" unicode="&#xe2;" horiz-adv-x="1103" 
d="M322 109q126 0 270.5 223.5t238.5 591.5q-22 50 -63.5 77t-95.5 27q-116 0 -221 -111t-166.5 -284t-61.5 -354q0 -81 25 -125.5t74 -44.5zM637 119q0 46 25.5 156t54.5 192q-60 -133 -134.5 -241t-161.5 -177t-165 -69q-101 0 -156 79.5t-55 219.5q0 157 55 307.5
t142.5 258.5t199 174t220.5 66q66 0 113 -19.5t89 -61.5l148 98h41l-72 -230l-154 -634q-18 -70 -18 -91q0 -30 29 -30q59 0 184 153l31 -22q-98 -146 -164 -207t-135 -61q-57 0 -87 37t-30 102zM870 1567l150 -355h-49l-195 222l-289 -222h-57l301 355h139z" />
    <glyph glyph-name="atilde" unicode="&#xe3;" horiz-adv-x="1103" 
d="M322 109q126 0 270.5 223.5t238.5 591.5q-22 50 -63.5 77t-95.5 27q-116 0 -221 -111t-166.5 -284t-61.5 -354q0 -81 25 -125.5t74 -44.5zM637 119q0 46 25.5 156t54.5 192q-60 -133 -134.5 -241t-161.5 -177t-165 -69q-101 0 -156 79.5t-55 219.5q0 157 55 307.5
t142.5 258.5t199 174t220.5 66q66 0 113 -19.5t89 -61.5l148 98h41l-72 -230l-154 -634q-18 -70 -18 -91q0 -30 29 -30q59 0 184 153l31 -22q-98 -146 -164 -207t-135 -61q-57 0 -87 37t-30 102zM895 1237q-34 0 -70.5 18t-63 39.5t-61 39.5t-65.5 18q-43 0 -76.5 -26
t-75.5 -91l-34 20q74 137 121 184.5t116 47.5q34 0 70.5 -18t62.5 -39.5t60 -39.5t65 -18q44 0 79 27t73 90l37 -21q-74 -136 -121.5 -183.5t-116.5 -47.5z" />
    <glyph glyph-name="adieresis" unicode="&#xe4;" horiz-adv-x="1103" 
d="M322 109q126 0 270.5 223.5t238.5 591.5q-22 50 -63.5 77t-95.5 27q-116 0 -221 -111t-166.5 -284t-61.5 -354q0 -81 25 -125.5t74 -44.5zM637 119q0 46 25.5 156t54.5 192q-60 -133 -134.5 -241t-161.5 -177t-165 -69q-101 0 -156 79.5t-55 219.5q0 157 55 307.5
t142.5 258.5t199 174t220.5 66q66 0 113 -19.5t89 -61.5l148 98h41l-72 -230l-154 -634q-18 -70 -18 -91q0 -30 29 -30q59 0 184 153l31 -22q-98 -146 -164 -207t-135 -61q-57 0 -87 37t-30 102zM596 1245q-52 0 -85.5 34t-33.5 85q0 54 38 92.5t91 38.5q52 0 85.5 -34
t33.5 -85q0 -54 -38 -92.5t-91 -38.5zM936 1245q-52 0 -85.5 34t-33.5 85q0 54 38 92.5t91 38.5q52 0 85.5 -34t33.5 -85q0 -54 -38 -92.5t-91 -38.5z" />
    <glyph glyph-name="aring" unicode="&#xe5;" horiz-adv-x="1103" 
d="M322 109q126 0 270.5 223.5t238.5 591.5q-22 50 -63.5 77t-95.5 27q-116 0 -221 -111t-166.5 -284t-61.5 -354q0 -81 25 -125.5t74 -44.5zM637 119q0 46 25.5 156t54.5 192q-60 -133 -134.5 -241t-161.5 -177t-165 -69q-101 0 -156 79.5t-55 219.5q0 157 55 307.5
t142.5 258.5t199 174t220.5 66q66 0 113 -19.5t89 -61.5l148 98h41l-72 -230l-154 -634q-18 -70 -18 -91q0 -30 29 -30q59 0 184 153l31 -22q-98 -146 -164 -207t-135 -61q-57 0 -87 37t-30 102zM877 1354q0 45 -28 72.5t-73 27.5q-58 0 -91.5 -39.5t-33.5 -97.5
q0 -45 28 -72.5t73 -27.5q58 0 91.5 39.5t33.5 97.5zM586 1317q0 83 55 138.5t135 55.5q78 0 122 -43t44 -114q0 -83 -55 -139t-135 -56q-78 0 -122 43.5t-44 114.5z" />
    <glyph glyph-name="ae" unicode="&#xe6;" horiz-adv-x="1464" 
d="M686 1085q147 0 238 -120q142 120 301 120q117 0 178 -55.5t61 -142.5q0 -55 -19.5 -103t-51 -84t-83 -68t-101.5 -54t-121 -44t-128.5 -36t-136.5 -31q-4 -58 -4 -86q0 -139 56.5 -217t156.5 -78q86 0 163 51.5t155 153.5l36 -27q-99 -145 -200 -214.5t-223 -69.5
q-145 0 -229.5 92t-92.5 247q-87 -152 -189.5 -245.5t-195.5 -93.5q-101 0 -156 79.5t-55 219.5q0 158 55.5 307.5t145 258t206 174.5t234.5 66zM322 109q72 0 157 81.5t166 231.5q13 137 73.5 267t153.5 226q-63 113 -186 113t-231 -111t-170 -283.5t-62 -354.5
q0 -81 25 -125.5t74 -44.5zM1188 1022q-84 0 -161.5 -75.5t-127.5 -190.5t-70 -246q242 56 355.5 146t113.5 241q0 54 -27 89.5t-83 35.5z" />
    <glyph glyph-name="ccedilla" unicode="&#xe7;" horiz-adv-x="845" 
d="M125 -453l-12 54q123 0 191.5 31t68.5 83q0 80 -183 86l101 185q-119 21 -182.5 117t-63.5 233q0 135 48 270.5t127 241t189.5 171.5t227.5 66q110 0 170.5 -46t60.5 -124q0 -109 -120 -129h-13q-2 111 -35.5 174.5t-115.5 63.5q-99 0 -184.5 -106t-131 -257.5
t-45.5 -298.5q0 -117 52 -197.5t153 -80.5q88 0 153.5 47.5t143.5 149.5l33 -27q-173 -274 -400 -274h-18l-41 -78q88 -2 142.5 -38t54.5 -104q0 -104 -101.5 -158.5t-269.5 -54.5z" />
    <glyph glyph-name="egrave" unicode="&#xe8;" horiz-adv-x="868" 
d="M868 887q0 -55 -19.5 -103t-51 -84t-83 -68t-101.5 -54t-121 -44t-128.5 -36t-136.5 -31q-4 -58 -4 -86q0 -139 56.5 -217t156.5 -78q86 0 163 51.5t155 153.5l37 -27q-99 -144 -200.5 -214t-223.5 -70q-151 0 -236.5 100.5t-85.5 267.5q0 132 48 265t126 237t187 169.5
t223 65.5q117 0 178 -55.5t61 -142.5zM592 1022q-84 0 -161.5 -75.5t-127.5 -190.5t-70 -246q242 56 355.5 146t113.5 241q0 54 -27 89.5t-83 35.5zM391 1559h205l123 -347h-35l-293 336v11z" />
    <glyph glyph-name="eacute" unicode="&#xe9;" horiz-adv-x="868" 
d="M868 887q0 -55 -19.5 -103t-51 -84t-83 -68t-101.5 -54t-121 -44t-128.5 -36t-136.5 -31q-4 -58 -4 -86q0 -139 56.5 -217t156.5 -78q86 0 163 51.5t155 153.5l37 -27q-99 -144 -200.5 -214t-223.5 -70q-151 0 -236.5 100.5t-85.5 267.5q0 132 48 265t126 237t187 169.5
t223 65.5q117 0 178 -55.5t61 -142.5zM592 1022q-84 0 -161.5 -75.5t-127.5 -190.5t-70 -246q242 56 355.5 146t113.5 241q0 54 -27 89.5t-83 35.5zM795 1559h217l-2 -11l-365 -336h-35z" />
    <glyph glyph-name="ecircumflex" unicode="&#xea;" horiz-adv-x="868" 
d="M868 887q0 -55 -19.5 -103t-51 -84t-83 -68t-101.5 -54t-121 -44t-128.5 -36t-136.5 -31q-4 -58 -4 -86q0 -139 56.5 -217t156.5 -78q86 0 163 51.5t155 153.5l37 -27q-99 -144 -200.5 -214t-223.5 -70q-151 0 -236.5 100.5t-85.5 267.5q0 132 48 265t126 237t187 169.5
t223 65.5q117 0 178 -55.5t61 -142.5zM592 1022q-84 0 -161.5 -75.5t-127.5 -190.5t-70 -246q242 56 355.5 146t113.5 241q0 54 -27 89.5t-83 35.5zM813 1567l150 -355h-50l-194 222l-289 -222h-57l301 355h139z" />
    <glyph glyph-name="edieresis" unicode="&#xeb;" horiz-adv-x="868" 
d="M868 887q0 -55 -19.5 -103t-51 -84t-83 -68t-101.5 -54t-121 -44t-128.5 -36t-136.5 -31q-4 -58 -4 -86q0 -139 56.5 -217t156.5 -78q86 0 163 51.5t155 153.5l37 -27q-99 -144 -200.5 -214t-223.5 -70q-151 0 -236.5 100.5t-85.5 267.5q0 132 48 265t126 237t187 169.5
t223 65.5q117 0 178 -55.5t61 -142.5zM592 1022q-84 0 -161.5 -75.5t-127.5 -190.5t-70 -246q242 56 355.5 146t113.5 241q0 54 -27 89.5t-83 35.5zM508 1245q-52 0 -85.5 34t-33.5 85q0 54 38 92.5t91 38.5q52 0 85.5 -34t33.5 -85q0 -54 -38 -92.5t-91 -38.5zM848 1245
q-52 0 -85.5 34t-33.5 85q0 54 38 92.5t91 38.5q52 0 85.5 -34t33.5 -85q0 -54 -38 -92.5t-91 -38.5z" />
    <glyph glyph-name="igrave" unicode="&#xec;" horiz-adv-x="557" 
d="M96 295l156 614l-125 64l6 24l322 88h20l-213 -847q-18 -70 -18 -91q0 -30 28 -30q60 0 185 153l30 -22q-98 -146 -164 -207t-135 -61q-58 0 -89 37.5t-31 101.5q0 67 28 176zM106 1559h205l123 -347h-35l-293 336v11z" />
    <glyph glyph-name="iacute" unicode="&#xed;" horiz-adv-x="557" 
d="M96 295l156 614l-125 64l6 24l322 88h20l-213 -847q-18 -70 -18 -91q0 -30 28 -30q60 0 185 153l30 -22q-98 -146 -164 -207t-135 -61q-58 0 -89 37.5t-31 101.5q0 67 28 176zM539 1559h217l-2 -11l-365 -336h-35z" />
    <glyph glyph-name="icircumflex" unicode="&#xee;" horiz-adv-x="557" 
d="M96 295l156 614l-125 64l6 24l322 88h20l-213 -847q-18 -70 -18 -91q0 -30 28 -30q60 0 185 153l30 -22q-98 -146 -164 -207t-135 -61q-58 0 -89 37.5t-31 101.5q0 67 28 176zM553 1567l149 -355h-49l-194 222l-289 -222h-57l301 355h139z" />
    <glyph glyph-name="idieresis" unicode="&#xef;" horiz-adv-x="557" 
d="M96 295l156 614l-125 64l6 24l322 88h20l-213 -847q-18 -70 -18 -91q0 -30 28 -30q60 0 185 153l30 -22q-98 -146 -164 -207t-135 -61q-58 0 -89 37.5t-31 101.5q0 67 28 176zM248 1245q-52 0 -85.5 34t-33.5 85q0 54 38 92.5t91 38.5q52 0 85.5 -34t33.5 -85
q0 -54 -38 -92.5t-91 -38.5zM588 1245q-52 0 -85.5 34t-33.5 85q0 54 38 92.5t91 38.5q52 0 85.5 -34t33.5 -85q0 -54 -38 -92.5t-91 -38.5z" />
    <glyph glyph-name="eth" unicode="&#xf0;" horiz-adv-x="983" 
d="M293 1198l-23 57l287 109q-103 121 -260 205l29 35q184 -72 323 -205l232 90l22 -57l-207 -80q117 -127 179.5 -287.5t62.5 -329.5q0 -184 -74.5 -357.5t-207 -285.5t-285.5 -112q-150 0 -238 96t-88 282q0 97 27 199t79 196t121.5 168.5t161.5 119t191 44.5q50 0 90 -16
q-40 136 -117 246zM758 735q0 133 -23 254q-49 39 -123 39q-81 0 -155 -67t-123.5 -169.5t-79 -222t-29.5 -225.5q0 -307 162 -307q77 0 148 68.5t118.5 173t76 226.5t28.5 230z" />
    <glyph glyph-name="ntilde" unicode="&#xf1;" horiz-adv-x="1136" 
d="M494 1085l-136 -507q45 83 105.5 167t133 162.5t154 128t152.5 49.5q72 0 101.5 -36.5t29.5 -108.5q0 -36 -12 -90l-162 -612q-18 -70 -18 -91q0 -30 28 -30q60 0 185 153l30 -22q-98 -146 -164 -207t-135 -61q-58 0 -89 37.5t-31 101.5q0 67 28 176l152 563q10 45 10 68
q0 43 -37 43q-38 0 -94 -33t-119 -96t-123 -143.5t-111 -186t-77 -213.5l-74 -297h-178l227 909l-125 64l7 24l321 88h21zM864 1237q-34 0 -70.5 18t-63 39.5t-61 39.5t-65.5 18q-43 0 -76 -26t-75 -91l-35 20q74 137 121 184.5t116 47.5q34 0 70.5 -18t62.5 -39.5t60 -39.5
t65 -18q44 0 79 27t73 90l37 -21q-74 -136 -121.5 -183.5t-116.5 -47.5z" />
    <glyph glyph-name="ograve" unicode="&#xf2;" horiz-adv-x="983" 
d="M389 37q99 0 186.5 114t135 272t47.5 304q0 301 -164 301q-99 0 -186.5 -114t-135 -272t-47.5 -304q0 -301 164 -301zM369 -20q-153 0 -238.5 98.5t-85.5 277.5q0 97 27 200.5t79 197t120.5 168.5t158 119t184.5 44q153 0 238.5 -98.5t85.5 -277.5q0 -97 -27 -200.5
t-79 -197t-120.5 -168.5t-158 -119t-184.5 -44zM348 1559h205l123 -347h-35l-293 336v11z" />
    <glyph glyph-name="oacute" unicode="&#xf3;" horiz-adv-x="983" 
d="M389 37q99 0 186.5 114t135 272t47.5 304q0 301 -164 301q-99 0 -186.5 -114t-135 -272t-47.5 -304q0 -301 164 -301zM369 -20q-153 0 -238.5 98.5t-85.5 277.5q0 97 27 200.5t79 197t120.5 168.5t158 119t184.5 44q153 0 238.5 -98.5t85.5 -277.5q0 -97 -27 -200.5
t-79 -197t-120.5 -168.5t-158 -119t-184.5 -44zM780 1559h217l-2 -11l-364 -336h-35z" />
    <glyph glyph-name="ocircumflex" unicode="&#xf4;" horiz-adv-x="983" 
d="M389 37q99 0 186.5 114t135 272t47.5 304q0 301 -164 301q-99 0 -186.5 -114t-135 -272t-47.5 -304q0 -301 164 -301zM369 -20q-153 0 -238.5 98.5t-85.5 277.5q0 97 27 200.5t79 197t120.5 168.5t158 119t184.5 44q153 0 238.5 -98.5t85.5 -277.5q0 -97 -27 -200.5
t-79 -197t-120.5 -168.5t-158 -119t-184.5 -44zM780 1567l150 -355h-49l-195 222l-289 -222h-57l301 355h139z" />
    <glyph glyph-name="otilde" unicode="&#xf5;" horiz-adv-x="983" 
d="M389 37q99 0 186.5 114t135 272t47.5 304q0 301 -164 301q-99 0 -186.5 -114t-135 -272t-47.5 -304q0 -301 164 -301zM369 -20q-153 0 -238.5 98.5t-85.5 277.5q0 97 27 200.5t79 197t120.5 168.5t158 119t184.5 44q153 0 238.5 -98.5t85.5 -277.5q0 -97 -27 -200.5
t-79 -197t-120.5 -168.5t-158 -119t-184.5 -44zM791 1237q-34 0 -71 18t-63.5 39.5t-61 39.5t-65.5 18q-43 0 -76 -26t-75 -91l-35 20q74 137 121.5 184.5t116.5 47.5q34 0 70.5 -18t62.5 -39.5t60 -39.5t65 -18q44 0 78 27t73 90l37 -21q-74 -137 -121 -184t-116 -47z" />
    <glyph glyph-name="odieresis" unicode="&#xf6;" horiz-adv-x="983" 
d="M389 37q99 0 186.5 114t135 272t47.5 304q0 301 -164 301q-99 0 -186.5 -114t-135 -272t-47.5 -304q0 -301 164 -301zM369 -20q-153 0 -238.5 98.5t-85.5 277.5q0 97 27 200.5t79 197t120.5 168.5t158 119t184.5 44q153 0 238.5 -98.5t85.5 -277.5q0 -97 -27 -200.5
t-79 -197t-120.5 -168.5t-158 -119t-184.5 -44zM510 1245q-52 0 -85.5 34t-33.5 85q0 54 38 92.5t91 38.5q52 0 85.5 -34t33.5 -85q0 -54 -38 -92.5t-91 -38.5zM850 1245q-52 0 -85.5 34t-33.5 85q0 54 38 92.5t91 38.5q52 0 85.5 -34t33.5 -85q0 -54 -38 -92.5t-91 -38.5z
" />
    <glyph glyph-name="divide" unicode="&#xf7;" horiz-adv-x="1155" 
d="M143 707l23 106h897l-23 -106h-897zM422 426q0 44 31 75t75 31t75.5 -31t31.5 -75t-31.5 -75.5t-75.5 -31.5t-75 31.5t-31 75.5zM567 1094q0 44 31.5 75t75.5 31t75 -31t31 -75t-31 -75.5t-75 -31.5t-75.5 31.5t-31.5 75.5z" />
    <glyph glyph-name="oslash" unicode="&#xf8;" horiz-adv-x="983" 
d="M369 -20q-136 0 -217 75l-86 -110l-46 35l95 118q-70 98 -70 258q0 97 27 200.5t79 197t120.5 168.5t158 119t184.5 44q134 0 215 -75l80 100l45 -35l-86 -108q70 -98 70 -258q0 -97 -27 -200.5t-79 -197t-120.5 -168.5t-158 -119t-184.5 -44zM389 37q99 0 186.5 114
t135 272t47.5 304q0 49 -6 92l-508 -649q37 -133 145 -133zM225 338q0 -34 4 -92l510 647q-38 135 -145 135q-99 0 -186.5 -114t-135 -272t-47.5 -304z" />
    <glyph glyph-name="ugrave" unicode="&#xf9;" horiz-adv-x="1136" 
d="M791 786l65 269l191 14l-203 -831q-19 -74 -19 -91q0 -30 29 -30q59 0 184 153l31 -22q-98 -146 -164 -207t-135 -61q-57 0 -87 37t-30 102q0 77 84 389q-36 -81 -91.5 -168.5t-124.5 -170t-149 -136t-151 -53.5q-73 0 -112 43.5t-39 113.5q0 46 16 105l172 667l-125 64
l6 24l322 88h20l-215 -835q-16 -62 -16 -94q0 -60 55 -60q49 0 117.5 53.5t137.5 143t133 221t98 272.5zM393 1559h205l123 -347h-35l-293 336v11z" />
    <glyph glyph-name="uacute" unicode="&#xfa;" horiz-adv-x="1136" 
d="M791 786l65 269l191 14l-203 -831q-19 -74 -19 -91q0 -30 29 -30q59 0 184 153l31 -22q-98 -146 -164 -207t-135 -61q-57 0 -87 37t-30 102q0 77 84 389q-36 -81 -91.5 -168.5t-124.5 -170t-149 -136t-151 -53.5q-73 0 -112 43.5t-39 113.5q0 46 16 105l172 667l-125 64
l6 24l322 88h20l-215 -835q-16 -62 -16 -94q0 -60 55 -60q49 0 117.5 53.5t137.5 143t133 221t98 272.5zM823 1559h217l-2 -11l-364 -336h-35z" />
    <glyph glyph-name="ucircumflex" unicode="&#xfb;" horiz-adv-x="1136" 
d="M791 786l65 269l191 14l-203 -831q-19 -74 -19 -91q0 -30 29 -30q59 0 184 153l31 -22q-98 -146 -164 -207t-135 -61q-57 0 -87 37t-30 102q0 77 84 389q-36 -81 -91.5 -168.5t-124.5 -170t-149 -136t-151 -53.5q-73 0 -112 43.5t-39 113.5q0 46 16 105l172 667l-125 64
l6 24l322 88h20l-215 -835q-16 -62 -16 -94q0 -60 55 -60q49 0 117.5 53.5t137.5 143t133 221t98 272.5zM840 1567l149 -355h-49l-195 222l-288 -222h-58l301 355h140z" />
    <glyph glyph-name="udieresis" unicode="&#xfc;" horiz-adv-x="1136" 
d="M791 786l65 269l191 14l-203 -831q-19 -74 -19 -91q0 -30 29 -30q59 0 184 153l31 -22q-98 -146 -164 -207t-135 -61q-57 0 -87 37t-30 102q0 77 84 389q-36 -81 -91.5 -168.5t-124.5 -170t-149 -136t-151 -53.5q-73 0 -112 43.5t-39 113.5q0 46 16 105l172 667l-125 64
l6 24l322 88h20l-215 -835q-16 -62 -16 -94q0 -60 55 -60q49 0 117.5 53.5t137.5 143t133 221t98 272.5zM535 1245q-52 0 -85.5 34t-33.5 85q0 54 38 92.5t91 38.5q52 0 85.5 -34t33.5 -85q0 -54 -38 -92.5t-91 -38.5zM874 1245q-52 0 -85 34t-33 85q0 54 38 92.5t91 38.5
q52 0 85.5 -34t33.5 -85q0 -54 -38.5 -92.5t-91.5 -38.5z" />
    <glyph glyph-name="yacute" unicode="&#xfd;" horiz-adv-x="980" 
d="M164 920l-125 53l8 24l270 88h7l159 -1022q26 36 115 173q144 225 194 353.5t50 223.5q0 82 -52.5 122.5t-144.5 31.5v16q83 102 176 102q59 0 96.5 -27.5t50.5 -64t13 -82.5q0 -96 -79 -261t-259 -447q-124 -195 -229.5 -325t-188 -192.5t-143 -85t-123.5 -22.5
q-76 0 -129 39.5t-53 116.5q0 46 27.5 82.5t68.5 48.5h8q0 -82 39.5 -128t108.5 -46q78 0 148 37.5t169 154.5zM799 1559h217l-2 -11l-365 -336h-35z" />
    <glyph glyph-name="thorn" unicode="&#xfe;" horiz-adv-x="1089" 
d="M760 956q-61 0 -136.5 -59t-149.5 -162t-141.5 -259t-107.5 -333q22 -49 65.5 -76.5t98.5 -27.5q121 0 232.5 113.5t176.5 282.5t66 335q0 186 -104 186zM590 1604l-260 -1035q93 205 236 360.5t259 155.5q102 0 160.5 -80t58.5 -219q0 -156 -59.5 -307t-152 -259
t-208.5 -174t-225 -66q-127 0 -194 77l-80 -317q-10 -42 -10 -55q0 -37 38.5 -51t151.5 -15l-12 -53h-531l13 53q87 5 120 24t48 78l428 1713l-140 65l7 25l331 80h21z" />
    <glyph glyph-name="ydieresis" unicode="&#xff;" horiz-adv-x="980" 
d="M164 920l-125 53l8 24l270 88h7l159 -1022q26 36 115 173q144 225 194 353.5t50 223.5q0 82 -52.5 122.5t-144.5 31.5v16q83 102 176 102q59 0 96.5 -27.5t50.5 -64t13 -82.5q0 -96 -79 -261t-259 -447q-124 -195 -229.5 -325t-188 -192.5t-143 -85t-123.5 -22.5
q-76 0 -129 39.5t-53 116.5q0 46 27.5 82.5t68.5 48.5h8q0 -82 39.5 -128t108.5 -46q78 0 148 37.5t169 154.5zM809 1245q-52 0 -85.5 34t-33.5 85q0 54 38 92.5t91 38.5q52 0 85.5 -34t33.5 -85q0 -54 -38 -92.5t-91 -38.5zM469 1245q-52 0 -85.5 34t-33.5 85q0 54 38 92.5
t91 38.5q52 0 85.5 -34t33.5 -85q0 -54 -38 -92.5t-91 -38.5z" />
    <glyph glyph-name="Amacron" unicode="&#x100;" horiz-adv-x="1425" 
d="M1004 225l-56 279h-581l-168 -277q-41 -68 -41 -102q0 -36 40.5 -51.5t129.5 -18.5l-11 -55h-415l10 55q49 5 81.5 21t55.5 55l733 1194l-28 131h196l262 -1325q7 -38 33 -54.5t72 -21.5l-10 -55h-514l10 55q35 1 55 2.5t48 5.5t43.5 12t31 20.5t22.5 32t7 46.5
q0 24 -6 51zM809 1231l-403 -662h530zM629 1583l20 100h555l-20 -100h-555z" />
    <glyph glyph-name="amacron" unicode="&#x101;" horiz-adv-x="1103" 
d="M322 109q126 0 270.5 223.5t238.5 591.5q-22 50 -63.5 77t-95.5 27q-116 0 -221 -111t-166.5 -284t-61.5 -354q0 -81 25 -125.5t74 -44.5zM637 119q0 46 25.5 156t54.5 192q-60 -133 -134.5 -241t-161.5 -177t-165 -69q-101 0 -156 79.5t-55 219.5q0 157 55 307.5
t142.5 258.5t199 174t220.5 66q66 0 113 -19.5t89 -61.5l148 98h41l-72 -230l-154 -634q-18 -70 -18 -91q0 -30 29 -30q59 0 184 153l31 -22q-98 -146 -164 -207t-135 -61q-57 0 -87 37t-30 102zM494 1276l20 100h514l-20 -100h-514z" />
    <glyph glyph-name="Abreve" unicode="&#x102;" horiz-adv-x="1425" 
d="M1004 225l-56 279h-581l-168 -277q-41 -68 -41 -102q0 -36 40.5 -51.5t129.5 -18.5l-11 -55h-415l10 55q49 5 81.5 21t55.5 55l733 1194l-28 131h196l262 -1325q7 -38 33 -54.5t72 -21.5l-10 -55h-514l10 55q35 1 55 2.5t48 5.5t43.5 12t31 20.5t22.5 32t7 46.5
q0 24 -6 51zM809 1231l-403 -662h530zM893 1532q-123 0 -181 81.5t-24 239.5h60q-26 -192 167 -192q196 0 250 192h60q-69 -321 -332 -321z" />
    <glyph glyph-name="abreve" unicode="&#x103;" horiz-adv-x="1103" 
d="M322 109q126 0 270.5 223.5t238.5 591.5q-22 50 -63.5 77t-95.5 27q-116 0 -221 -111t-166.5 -284t-61.5 -354q0 -81 25 -125.5t74 -44.5zM637 119q0 46 25.5 156t54.5 192q-60 -133 -134.5 -241t-161.5 -177t-165 -69q-101 0 -156 79.5t-55 219.5q0 157 55 307.5
t142.5 258.5t199 174t220.5 66q66 0 113 -19.5t89 -61.5l148 98h41l-72 -230l-154 -634q-18 -70 -18 -91q0 -30 29 -30q59 0 184 153l31 -22q-98 -146 -164 -207t-135 -61q-57 0 -87 37t-30 102zM758 1221q-121 0 -175 83t-20 242h60q-14 -105 27 -150.5t130 -45.5
q185 0 240 196h59q-70 -325 -321 -325z" />
    <glyph glyph-name="Aogonek" unicode="&#x104;" horiz-adv-x="1425" 
d="M1004 225l-56 279h-581l-168 -277q-41 -68 -41 -102q0 -36 40.5 -51.5t129.5 -18.5l-11 -55h-415l10 55q49 5 81.5 21t55.5 55l733 1194l-28 131h196l262 -1325q7 -38 33 -54.5t72 -21.5l-10 -55h-463q-244 -83 -244 -244q0 -42 27.5 -67t72.5 -25q93 0 203 96l17 -20
q-33 -36 -57 -58.5t-63 -52t-83 -44.5t-92 -15q-73 0 -117.5 36.5t-44.5 102.5q0 109 91.5 191.5t244.5 136.5q21 7 56.5 19t52.5 18t41 17t34.5 21t18.5 26t8 36q0 24 -6 51zM809 1231l-403 -662h530z" />
    <glyph glyph-name="aogonek" unicode="&#x105;" horiz-adv-x="1103" 
d="M1053 248q-54 -76 -121.5 -144.5t-120 -112t-98.5 -84t-71.5 -79t-25.5 -78.5q0 -42 28 -64t73 -22q93 0 203 96l16 -20q-33 -36 -57 -58.5t-63 -52t-83 -44.5t-92 -15q-72 0 -116 36.5t-44 102.5q0 45 22.5 86t66.5 77t81 59t92 53q-52 4 -79 39t-27 96q0 46 25.5 156
t54.5 192q-60 -133 -134.5 -241t-161.5 -177t-165 -69q-101 0 -156 79.5t-55 219.5q0 157 55 307.5t142.5 258.5t199 174t220.5 66q66 0 113 -19.5t89 -61.5l148 98h41l-72 -230l-154 -634q-18 -70 -18 -91q0 -30 29 -30q59 0 184 153zM322 109q126 0 270.5 223.5
t238.5 591.5q-22 50 -63.5 77t-95.5 27q-116 0 -221 -111t-166.5 -284t-61.5 -354q0 -81 25 -125.5t74 -44.5z" />
    <glyph glyph-name="Cacute" unicode="&#x106;" horiz-adv-x="1318" 
d="M932 1458q269 0 428 -121l-64 -299h-55q3 172 -77 262.5t-232 90.5q-121 0 -226 -54t-178 -142t-126 -199.5t-78 -227.5t-25 -225q0 -239 87.5 -367.5t256.5 -128.5q171 0 295 100t217 308h62l-105 -365q-215 -110 -469 -110q-264 0 -407.5 151t-143.5 412
q0 108 27.5 218t78 211.5t126.5 190t167 154t205 103.5t236 38zM1085 1843h230l-2 -10l-328 -295h-35z" />
    <glyph glyph-name="cacute" unicode="&#x107;" horiz-adv-x="845" 
d="M584 1024q-99 0 -184.5 -106t-131 -257.5t-45.5 -298.5q0 -117 52 -197.5t153 -80.5q88 0 153.5 47.5t143.5 149.5l33 -27q-173 -274 -400 -274q-151 0 -232 99.5t-81 256.5q0 135 48 270.5t127 241t189.5 171.5t227.5 66q110 0 170.5 -46t60.5 -124q0 -109 -120 -129
h-13q-2 111 -35.5 174.5t-115.5 63.5zM823 1559h217l-2 -11l-364 -336h-35z" />
    <glyph glyph-name="Ccircumflex" unicode="&#x108;" horiz-adv-x="1318" 
d="M932 1458q269 0 428 -121l-64 -299h-55q3 172 -77 262.5t-232 90.5q-121 0 -226 -54t-178 -142t-126 -199.5t-78 -227.5t-25 -225q0 -239 87.5 -367.5t256.5 -128.5q171 0 295 100t217 308h62l-105 -365q-215 -110 -469 -110q-264 0 -407.5 151t-143.5 412
q0 108 27.5 218t78 211.5t126.5 190t167 154t205 103.5t236 38zM1124 1864l150 -326h-49l-195 193l-289 -193h-57l301 326h139z" />
    <glyph glyph-name="ccircumflex" unicode="&#x109;" horiz-adv-x="845" 
d="M584 1024q-99 0 -184.5 -106t-131 -257.5t-45.5 -298.5q0 -117 52 -197.5t153 -80.5q88 0 153.5 47.5t143.5 149.5l33 -27q-173 -274 -400 -274q-151 0 -232 99.5t-81 256.5q0 135 48 270.5t127 241t189.5 171.5t227.5 66q110 0 170.5 -46t60.5 -124q0 -109 -120 -129
h-13q-2 111 -35.5 174.5t-115.5 63.5zM797 1567l149 -355h-49l-195 222l-288 -222h-58l301 355h140z" />
    <glyph glyph-name="Cdotaccent" unicode="&#x10a;" horiz-adv-x="1318" 
d="M932 1458q269 0 428 -121l-64 -299h-55q3 172 -77 262.5t-232 90.5q-121 0 -226 -54t-178 -142t-126 -199.5t-78 -227.5t-25 -225q0 -239 87.5 -367.5t256.5 -128.5q171 0 295 100t217 308h62l-105 -365q-215 -110 -469 -110q-264 0 -407.5 151t-143.5 412
q0 108 27.5 218t78 211.5t126.5 190t167 154t205 103.5t236 38zM1016 1556q-51 0 -85 34.5t-34 84.5q0 54 38 92.5t91 38.5q51 0 85 -34t34 -84q0 -54 -38 -93t-91 -39z" />
    <glyph glyph-name="cdotaccent" unicode="&#x10b;" horiz-adv-x="845" 
d="M584 1024q-99 0 -184.5 -106t-131 -257.5t-45.5 -298.5q0 -117 52 -197.5t153 -80.5q88 0 153.5 47.5t143.5 149.5l33 -27q-173 -274 -400 -274q-151 0 -232 99.5t-81 256.5q0 135 48 270.5t127 241t189.5 171.5t227.5 66q110 0 170.5 -46t60.5 -124q0 -109 -120 -129
h-13q-2 111 -35.5 174.5t-115.5 63.5zM713 1251q-51 0 -85 34.5t-34 84.5q0 54 38 92.5t91 38.5q51 0 85 -34.5t34 -84.5q0 -54 -38 -92.5t-91 -38.5z" />
    <glyph glyph-name="Ccaron" unicode="&#x10c;" horiz-adv-x="1318" 
d="M932 1458q269 0 428 -121l-64 -299h-55q3 172 -77 262.5t-232 90.5q-121 0 -226 -54t-178 -142t-126 -199.5t-78 -227.5t-25 -225q0 -239 87.5 -367.5t256.5 -128.5q171 0 295 100t217 308h62l-105 -365q-215 -110 -469 -110q-264 0 -407.5 151t-143.5 412
q0 108 27.5 218t78 211.5t126.5 190t167 154t205 103.5t236 38zM924 1538l-150 326h49l195 -193l289 193h57l-301 -326h-139z" />
    <glyph glyph-name="ccaron" unicode="&#x10d;" horiz-adv-x="845" 
d="M584 1024q-99 0 -184.5 -106t-131 -257.5t-45.5 -298.5q0 -117 52 -197.5t153 -80.5q88 0 153.5 47.5t143.5 149.5l33 -27q-173 -274 -400 -274q-151 0 -232 99.5t-81 256.5q0 135 48 270.5t127 241t189.5 171.5t227.5 66q110 0 170.5 -46t60.5 -124q0 -109 -120 -129
h-13q-2 111 -35.5 174.5t-115.5 63.5zM590 1214l-150 355h49l195 -221l289 221h57l-301 -355h-139z" />
    <glyph glyph-name="Dcaron" unicode="&#x10e;" horiz-adv-x="1433" 
d="M518 68h31q140 0 261.5 56.5t210 158t139 250.5t50.5 327q0 244 -115 377t-350 133h-133l-245 -1157q-19 -87 15.5 -116t135.5 -29zM526 0h-579l12 55q53 6 80.5 11t53 14t38 24.5t22 37.5t17.5 59l221 1036q5 24 7.5 41.5t-1 31.5t-6 23.5t-15 17t-20.5 11.5t-30.5 8
t-36.5 6t-47 6l12 56h518q301 0 473 -155.5t172 -422.5q0 -194 -69 -356.5t-189 -272t-283 -170.5t-350 -61zM791 1538l-150 326h49l195 -193l289 193h57l-301 -326h-139z" />
    <glyph glyph-name="dcaron" unicode="&#x10f;" horiz-adv-x="1150" 
d="M324 109q61 0 134 58t144.5 160.5t138 258.5t109.5 338q-22 49 -65.5 76.5t-98.5 27.5q-121 0 -229 -114.5t-169.5 -283t-62.5 -335.5q0 -186 99 -186zM868 1010l107 424l-139 65l6 25l332 80h20l-340 -1366q-18 -70 -18 -91q0 -30 28 -30q60 0 185 153l30 -22
q-98 -146 -164 -207t-135 -61q-57 0 -86.5 37t-29.5 102q0 45 30 169t60 208q-93 -205 -236.5 -360.5t-259.5 -155.5q-102 0 -157.5 79.5t-55.5 219.5q0 157 57.5 307.5t147.5 258.5t203.5 174t222.5 66q67 0 108.5 -16.5t83.5 -58.5zM1513 1593l-301 -409h-22l131 420h195z
" />
    <glyph glyph-name="Dcroat" unicode="&#x110;" horiz-adv-x="1433" 
d="M104 709l15 69h174l98 459q5 24 7.5 41.5t-1 31.5t-6 23.5t-15 17t-20.5 11.5t-30.5 8t-36.5 6t-47 6l12 56h518q301 0 473 -155.5t172 -422.5q0 -194 -69 -356.5t-189 -272t-283 -170.5t-350 -61h-579l12 55q53 6 80.5 11t53 14t38 24.5t22 37.5t17.5 59l109 508h-175z
M518 68h31q140 0 261.5 56.5t210 158t139 250.5t50.5 327q0 244 -115 377t-350 133h-133l-127 -592h299l-14 -69h-299l-104 -496q-19 -87 15.5 -116t135.5 -29z" />
    <glyph glyph-name="dcroat" unicode="&#x111;" horiz-adv-x="1150" 
d="M868 1010l54 211h-275l15 65h276l37 148l-139 65l6 25l332 80h20l-80 -318h143l-14 -65h-145l-244 -983q-18 -70 -18 -91q0 -30 28 -30q60 0 185 153l30 -22q-98 -146 -164 -207t-135 -61q-57 0 -86.5 37t-29.5 102q0 45 30 169t60 208q-93 -205 -236.5 -360.5
t-259.5 -155.5q-102 0 -157.5 79.5t-55.5 219.5q0 157 57.5 307.5t147.5 258.5t203.5 174t222.5 66q67 0 108.5 -16.5t83.5 -58.5zM324 109q61 0 134 58t144.5 160.5t138 258.5t109.5 338q-22 49 -65.5 76.5t-98.5 27.5q-121 0 -229 -114.5t-169.5 -283t-62.5 -335.5
q0 -186 99 -186z" />
    <glyph glyph-name="Emacron" unicode="&#x112;" horiz-adv-x="1257" 
d="M1042 0h-1095l12 55q53 6 80.5 11t53 14t38 24.5t22 37.5t17.5 59l221 1036q5 24 7.5 41.5t-1 31.5t-6 23.5t-15 17t-20.5 11.5t-30.5 8t-36.5 6t-47 6l12 56h1069l-63 -342h-41q-33 162 -83 218t-157 56h-367l-127 -594h326q63 0 104 44t80 141h56l-93 -437h-55
q3 97 -20 141t-86 44h-326l-106 -502q-18 -80 22 -109.5t150 -29.5h188q54 0 99.5 15.5t95 55.5t96 91t117.5 139h49zM612 1583l21 100h555l-21 -100h-555z" />
    <glyph glyph-name="emacron" unicode="&#x113;" horiz-adv-x="868" 
d="M868 887q0 -55 -19.5 -103t-51 -84t-83 -68t-101.5 -54t-121 -44t-128.5 -36t-136.5 -31q-4 -58 -4 -86q0 -139 56.5 -217t156.5 -78q86 0 163 51.5t155 153.5l37 -27q-99 -144 -200.5 -214t-223.5 -70q-151 0 -236.5 100.5t-85.5 267.5q0 132 48 265t126 237t187 169.5
t223 65.5q117 0 178 -55.5t61 -142.5zM592 1022q-84 0 -161.5 -75.5t-127.5 -190.5t-70 -246q242 56 355.5 146t113.5 241q0 54 -27 89.5t-83 35.5zM410 1276l20 100h514l-20 -100h-514z" />
    <glyph glyph-name="Ebreve" unicode="&#x114;" horiz-adv-x="1257" 
d="M1042 0h-1095l12 55q53 6 80.5 11t53 14t38 24.5t22 37.5t17.5 59l221 1036q5 24 7.5 41.5t-1 31.5t-6 23.5t-15 17t-20.5 11.5t-30.5 8t-36.5 6t-47 6l12 56h1069l-63 -342h-41q-33 162 -83 218t-157 56h-367l-127 -594h326q63 0 104 44t80 141h56l-93 -437h-55
q3 97 -20 141t-86 44h-326l-106 -502q-18 -80 22 -109.5t150 -29.5h188q54 0 99.5 15.5t95 55.5t96 91t117.5 139h49zM897 1532q-123 0 -181 81.5t-24 239.5h60q-26 -192 168 -192q195 0 249 192h60q-69 -321 -332 -321z" />
    <glyph glyph-name="ebreve" unicode="&#x115;" horiz-adv-x="868" 
d="M868 887q0 -55 -19.5 -103t-51 -84t-83 -68t-101.5 -54t-121 -44t-128.5 -36t-136.5 -31q-4 -58 -4 -86q0 -139 56.5 -217t156.5 -78q86 0 163 51.5t155 153.5l37 -27q-99 -144 -200.5 -214t-223.5 -70q-151 0 -236.5 100.5t-85.5 267.5q0 132 48 265t126 237t187 169.5
t223 65.5q117 0 178 -55.5t61 -142.5zM592 1022q-84 0 -161.5 -75.5t-127.5 -190.5t-70 -246q242 56 355.5 146t113.5 241q0 54 -27 89.5t-83 35.5zM659 1221q-121 0 -174.5 83t-19.5 242h59q-14 -105 27.5 -150.5t130.5 -45.5q185 0 240 196h59q-70 -325 -322 -325z" />
    <glyph glyph-name="Edotaccent" unicode="&#x116;" horiz-adv-x="1257" 
d="M1042 0h-1095l12 55q53 6 80.5 11t53 14t38 24.5t22 37.5t17.5 59l221 1036q5 24 7.5 41.5t-1 31.5t-6 23.5t-15 17t-20.5 11.5t-30.5 8t-36.5 6t-47 6l12 56h1069l-63 -342h-41q-33 162 -83 218t-157 56h-367l-127 -594h326q63 0 104 44t80 141h56l-93 -437h-55
q3 97 -20 141t-86 44h-326l-106 -502q-18 -80 22 -109.5t150 -29.5h188q54 0 99.5 15.5t95 55.5t96 91t117.5 139h49zM905 1556q-51 0 -85 34.5t-34 84.5q0 54 38 92.5t91 38.5q51 0 85 -34t34 -84q0 -54 -38 -93t-91 -39z" />
    <glyph glyph-name="edotaccent" unicode="&#x117;" horiz-adv-x="868" 
d="M868 887q0 -55 -19.5 -103t-51 -84t-83 -68t-101.5 -54t-121 -44t-128.5 -36t-136.5 -31q-4 -58 -4 -86q0 -139 56.5 -217t156.5 -78q86 0 163 51.5t155 153.5l37 -27q-99 -144 -200.5 -214t-223.5 -70q-151 0 -236.5 100.5t-85.5 267.5q0 132 48 265t126 237t187 169.5
t223 65.5q117 0 178 -55.5t61 -142.5zM592 1022q-84 0 -161.5 -75.5t-127.5 -190.5t-70 -246q242 56 355.5 146t113.5 241q0 54 -27 89.5t-83 35.5zM702 1251q-51 0 -84.5 34.5t-33.5 84.5q0 54 38 92.5t91 38.5q51 0 84.5 -34.5t33.5 -84.5q0 -54 -38 -92.5t-91 -38.5z" />
    <glyph glyph-name="Eogonek" unicode="&#x118;" horiz-adv-x="1257" 
d="M1042 0h-211q-243 -113 -243 -244q0 -42 27.5 -67t72.5 -25q93 0 203 96l16 -20q-33 -36 -57 -58.5t-63 -52t-83 -44.5t-92 -15q-72 0 -116.5 36.5t-44.5 102.5q0 51 24.5 95t71.5 79.5t97 62t118 54.5h-815l12 55q53 6 80.5 11t53 14t38 24.5t22 37.5t17.5 59l221 1036
q5 24 7.5 41.5t-1 31.5t-6 23.5t-15 17t-20.5 11.5t-30.5 8t-36.5 6t-47 6l12 56h1069l-63 -342h-41q-33 162 -83 218t-157 56h-367l-127 -594h326q63 0 104 44t80 141h56l-93 -437h-55q3 97 -20 141t-86 44h-326l-106 -502q-18 -80 22 -109.5t150 -29.5h188q54 0 99.5 15.5
t95 55.5t96 91t117.5 139h49z" />
    <glyph glyph-name="eogonek" unicode="&#x119;" horiz-adv-x="868" 
d="M377 -20q-152 0 -242 101t-90 267q0 132 48 265t126 237t187 169.5t223 65.5q117 0 178 -55.5t61 -142.5q0 -55 -19.5 -103t-51 -84t-83 -68t-101.5 -54t-121 -44t-128.5 -36t-136.5 -31q-4 -58 -4 -86q0 -141 56 -218t161 -77q155 0 318 205l35 -27q-122 -175 -304 -264
q-198 -95 -198 -244q0 -42 27.5 -67t72.5 -25q93 0 203 96l16 -20q-33 -36 -57 -58.5t-63 -52t-83 -44.5t-92 -15q-72 0 -116.5 36.5t-44.5 102.5q0 78 61 143.5t162 127.5zM592 1022q-84 0 -161.5 -75.5t-127.5 -190.5t-70 -246q242 56 355.5 146t113.5 241q0 54 -27 89.5
t-83 35.5z" />
    <glyph glyph-name="Ecaron" unicode="&#x11a;" horiz-adv-x="1257" 
d="M1042 0h-1095l12 55q53 6 80.5 11t53 14t38 24.5t22 37.5t17.5 59l221 1036q5 24 7.5 41.5t-1 31.5t-6 23.5t-15 17t-20.5 11.5t-30.5 8t-36.5 6t-47 6l12 56h1069l-63 -342h-41q-33 162 -83 218t-157 56h-367l-127 -594h326q63 0 104 44t80 141h56l-93 -437h-55
q3 97 -20 141t-86 44h-326l-106 -502q-18 -80 22 -109.5t150 -29.5h188q54 0 99.5 15.5t95 55.5t96 91t117.5 139h49zM813 1538l-149 326h49l194 -193l289 193h57l-301 -326h-139z" />
    <glyph glyph-name="ecaron" unicode="&#x11b;" horiz-adv-x="868" 
d="M868 887q0 -55 -19.5 -103t-51 -84t-83 -68t-101.5 -54t-121 -44t-128.5 -36t-136.5 -31q-4 -58 -4 -86q0 -139 56.5 -217t156.5 -78q86 0 163 51.5t155 153.5l37 -27q-99 -144 -200.5 -214t-223.5 -70q-151 0 -236.5 100.5t-85.5 267.5q0 132 48 265t126 237t187 169.5
t223 65.5q117 0 178 -55.5t61 -142.5zM592 1022q-84 0 -161.5 -75.5t-127.5 -190.5t-70 -246q242 56 355.5 146t113.5 241q0 54 -27 89.5t-83 35.5zM582 1214l-150 355h49l195 -221l289 221h57l-301 -355h-139z" />
    <glyph glyph-name="Gcircumflex" unicode="&#x11c;" horiz-adv-x="1427" 
d="M662 47q192 0 303 86l73 334q5 24 7.5 41.5t-1 31.5t-6 23.5t-15 17t-20.5 11.5t-30.5 8t-36.5 6t-47 6l12 56h516l-12 -56q-99 -6 -133 -33.5t-51 -111.5l-72 -340q-123 -73 -234.5 -110t-252.5 -37q-267 0 -418.5 148.5t-151.5 406.5q0 108 28 218.5t79 213t127 192
t167.5 156t206 105t236.5 38.5q132 0 245.5 -33t190.5 -88l-63 -299h-56q3 171 -80.5 262t-236.5 91q-120 0 -226 -55t-179.5 -144t-127 -202t-79 -229.5t-25.5 -225.5q0 -234 95.5 -361t267.5 -127zM1133 1864l149 -326h-49l-195 193l-288 -193h-58l301 326h140z" />
    <glyph glyph-name="gcircumflex" unicode="&#x11d;" horiz-adv-x="950" 
d="M881 786q0 -190 -127 -310t-312 -120q-58 0 -114 17q-84 -53 -84 -97q0 -17 13.5 -30t28 -18.5t44.5 -14.5l309 -98q48 -16 85.5 -34.5t73 -47.5t55 -71t19.5 -95q0 -103 -73 -177.5t-190.5 -109.5t-264.5 -35q-131 0 -243.5 35.5t-181.5 101t-69 146.5q0 56 26 100
t76 75.5t105 52t131 40.5q-61 43 -61 107q0 57 39.5 99t124.5 83q-80 36 -123 107.5t-43 162.5q0 190 126 310t310 120q86 0 158 -32l348 14l-27 -100h-100l-131 18q72 -81 72 -199zM567 -43l-348 121q-199 -76 -199 -230q0 -107 94.5 -175t245.5 -68q176 0 268.5 53.5
t92.5 140.5q0 62 -35.5 94.5t-118.5 63.5zM711 817q0 98 -36.5 157.5t-113.5 59.5q-110 0 -188 -120t-78 -289q0 -99 35 -158t112 -59q112 0 190.5 120t78.5 289zM791 1567l149 -355h-49l-195 222l-288 -222h-58l301 355h140z" />
    <glyph glyph-name="Gbreve" unicode="&#x11e;" horiz-adv-x="1427" 
d="M662 47q192 0 303 86l73 334q5 24 7.5 41.5t-1 31.5t-6 23.5t-15 17t-20.5 11.5t-30.5 8t-36.5 6t-47 6l12 56h516l-12 -56q-99 -6 -133 -33.5t-51 -111.5l-72 -340q-123 -73 -234.5 -110t-252.5 -37q-267 0 -418.5 148.5t-151.5 406.5q0 108 28 218.5t79 213t127 192
t167.5 156t206 105t236.5 38.5q132 0 245.5 -33t190.5 -88l-63 -299h-56q3 171 -80.5 262t-236.5 91q-120 0 -226 -55t-179.5 -144t-127 -202t-79 -229.5t-25.5 -225.5q0 -234 95.5 -361t267.5 -127zM1018 1532q-123 0 -181 81.5t-24 239.5h59q-26 -192 168 -192
q196 0 250 192h60q-69 -321 -332 -321z" />
    <glyph glyph-name="gbreve" unicode="&#x11f;" horiz-adv-x="950" 
d="M881 786q0 -190 -127 -310t-312 -120q-58 0 -114 17q-84 -53 -84 -97q0 -17 13.5 -30t28 -18.5t44.5 -14.5l309 -98q48 -16 85.5 -34.5t73 -47.5t55 -71t19.5 -95q0 -103 -73 -177.5t-190.5 -109.5t-264.5 -35q-131 0 -243.5 35.5t-181.5 101t-69 146.5q0 56 26 100
t76 75.5t105 52t131 40.5q-61 43 -61 107q0 57 39.5 99t124.5 83q-80 36 -123 107.5t-43 162.5q0 190 126 310t310 120q86 0 158 -32l348 14l-27 -100h-100l-131 18q72 -81 72 -199zM567 -43l-348 121q-199 -76 -199 -230q0 -107 94.5 -175t245.5 -68q176 0 268.5 53.5
t92.5 140.5q0 62 -35.5 94.5t-118.5 63.5zM711 817q0 98 -36.5 157.5t-113.5 59.5q-110 0 -188 -120t-78 -289q0 -99 35 -158t112 -59q112 0 190.5 120t78.5 289zM651 1221q-121 0 -174.5 83t-19.5 242h59q-14 -105 27.5 -150.5t130.5 -45.5q184 0 239 196h60
q-70 -325 -322 -325z" />
    <glyph glyph-name="Gdotaccent" unicode="&#x120;" horiz-adv-x="1427" 
d="M662 47q192 0 303 86l73 334q5 24 7.5 41.5t-1 31.5t-6 23.5t-15 17t-20.5 11.5t-30.5 8t-36.5 6t-47 6l12 56h516l-12 -56q-99 -6 -133 -33.5t-51 -111.5l-72 -340q-123 -73 -234.5 -110t-252.5 -37q-267 0 -418.5 148.5t-151.5 406.5q0 108 28 218.5t79 213t127 192
t167.5 156t206 105t236.5 38.5q132 0 245.5 -33t190.5 -88l-63 -299h-56q3 171 -80.5 262t-236.5 91q-120 0 -226 -55t-179.5 -144t-127 -202t-79 -229.5t-25.5 -225.5q0 -234 95.5 -361t267.5 -127zM1024 1556q-51 0 -85 34.5t-34 84.5q0 54 38 92.5t91 38.5q51 0 85 -34
t34 -84q0 -54 -38 -93t-91 -39z" />
    <glyph glyph-name="gdotaccent" unicode="&#x121;" horiz-adv-x="950" 
d="M881 786q0 -190 -127 -310t-312 -120q-58 0 -114 17q-84 -53 -84 -97q0 -17 13.5 -30t28 -18.5t44.5 -14.5l309 -98q48 -16 85.5 -34.5t73 -47.5t55 -71t19.5 -95q0 -103 -73 -177.5t-190.5 -109.5t-264.5 -35q-131 0 -243.5 35.5t-181.5 101t-69 146.5q0 56 26 100
t76 75.5t105 52t131 40.5q-61 43 -61 107q0 57 39.5 99t124.5 83q-80 36 -123 107.5t-43 162.5q0 190 126 310t310 120q86 0 158 -32l348 14l-27 -100h-100l-131 18q72 -81 72 -199zM567 -43l-348 121q-199 -76 -199 -230q0 -107 94.5 -175t245.5 -68q176 0 268.5 53.5
t92.5 140.5q0 62 -35.5 94.5t-118.5 63.5zM711 817q0 98 -36.5 157.5t-113.5 59.5q-110 0 -188 -120t-78 -289q0 -99 35 -158t112 -59q112 0 190.5 120t78.5 289zM680 1251q-51 0 -85 34.5t-34 84.5q0 54 38 92.5t91 38.5q51 0 85 -34.5t34 -84.5q0 -54 -38 -92.5t-91 -38.5
z" />
    <glyph glyph-name="Gcommaaccent" unicode="&#x122;" horiz-adv-x="1427" 
d="M662 47q192 0 303 86l73 334q5 24 7.5 41.5t-1 31.5t-6 23.5t-15 17t-20.5 11.5t-30.5 8t-36.5 6t-47 6l12 56h516l-12 -56q-99 -6 -133 -33.5t-51 -111.5l-72 -340q-123 -73 -234.5 -110t-252.5 -37q-267 0 -418.5 148.5t-151.5 406.5q0 108 28 218.5t79 213t127 192
t167.5 156t206 105t236.5 38.5q132 0 245.5 -33t190.5 -88l-63 -299h-56q3 171 -80.5 262t-236.5 91q-120 0 -226 -55t-179.5 -144t-127 -202t-79 -229.5t-25.5 -225.5q0 -234 95.5 -361t267.5 -127zM659 -305h-100q-67 14 -67 80q0 59 39.5 93t101.5 34q60 0 94.5 -35.5
t34.5 -97.5q0 -100 -78 -166t-221 -66l10 45q74 0 125 33.5t61 79.5z" />
    <glyph glyph-name="gcommaaccent" unicode="&#x123;" horiz-adv-x="950" 
d="M881 786q0 -190 -127 -310t-312 -120q-58 0 -114 17q-84 -53 -84 -97q0 -17 13.5 -30t28 -18.5t44.5 -14.5l309 -98q48 -16 85.5 -34.5t73 -47.5t55 -71t19.5 -95q0 -103 -73 -177.5t-190.5 -109.5t-264.5 -35q-131 0 -243.5 35.5t-181.5 101t-69 146.5q0 56 26 100
t76 75.5t105 52t131 40.5q-61 43 -61 107q0 57 39.5 99t124.5 83q-80 36 -123 107.5t-43 162.5q0 190 126 310t310 120q86 0 158 -32l348 14l-27 -100h-100l-131 18q72 -81 72 -199zM567 -43l-348 121q-199 -76 -199 -230q0 -107 94.5 -175t245.5 -68q176 0 268.5 53.5
t92.5 140.5q0 62 -35.5 94.5t-118.5 63.5zM711 817q0 98 -36.5 157.5t-113.5 59.5q-110 0 -188 -120t-78 -289q0 -99 35 -158t112 -59q112 0 190.5 120t78.5 289zM647 1450h101q67 -14 67 -80q0 -59 -39.5 -93t-101.5 -34q-60 0 -94.5 35.5t-34.5 97.5q0 100 78 166t221 66
l-10 -45q-74 0 -125.5 -33.5t-61.5 -79.5z" />
    <glyph glyph-name="Hcircumflex" unicode="&#x124;" horiz-adv-x="1579" 
d="M170 201l221 1036q5 24 7.5 41.5t-1 31.5t-6 23.5t-15 17t-20.5 11.5t-30.5 8t-36.5 6t-47 6l12 56h553l-12 -56q-44 -5 -68.5 -8.5t-49.5 -11t-37 -16t-24.5 -24t-18.5 -35t-13 -50.5l-99 -459h719l99 459q5 24 7.5 41.5t-1 31.5t-6 23.5t-15.5 17t-20.5 11.5t-30.5 8
t-37 6t-47 6l12 56h553l-12 -56q-44 -5 -68.5 -8.5t-49.5 -11t-37 -16t-24.5 -24t-18.5 -35t-13 -50.5l-221 -1036q-6 -27 -7 -46.5t0.5 -34t12 -24.5t19 -16t32 -11t39.5 -7.5t53 -6.5l-12 -55h-553l12 55q53 6 80.5 11t53 14t38 24.5t22 37.5t17.5 59l109 508h-719
l-109 -508q-5 -24 -7.5 -41.5t1 -31.5t6 -23.5t15 -17.5t21 -12t31 -8t37 -6t46.5 -6l-12 -55h-553l12 55q53 6 80.5 11t53 14t38 24.5t22 37.5t17.5 59zM1141 1864l149 -326h-49l-194 193l-289 -193h-58l301 326h140z" />
    <glyph glyph-name="hcircumflex" unicode="&#x125;" horiz-adv-x="1114" 
d="M598 1604l-262 -1026q45 83 105.5 167t133 162.5t154 128t152.5 49.5q72 0 101.5 -36.5t29.5 -108.5q0 -32 -13 -90l-161 -612q-19 -74 -19 -91q0 -30 29 -30q59 0 184 153l31 -22q-98 -146 -164 -207t-135 -61q-58 0 -89.5 37.5t-31.5 101.5q0 63 29 176l151 563
q11 49 11 68q0 43 -37 43q-38 0 -94 -33t-119.5 -96t-123.5 -143.5t-111 -186t-77 -213.5l-73 -297h-179l359 1434l-139 65l6 25l332 80h20zM948 1970l150 -325h-49l-195 192l-289 -192h-57l301 325h139z" />
    <glyph glyph-name="Hbar" unicode="&#x126;" horiz-adv-x="1599" 
d="M182 1024l15 70h174l30 143q5 24 7.5 41.5t-1 31.5t-6 23.5t-15 17t-20.5 11.5t-30.5 8t-36.5 6t-47 6l12 56h553l-12 -56q-44 -5 -68.5 -8.5t-49.5 -11t-37 -16t-24.5 -24t-18.5 -35t-13 -50.5l-31 -143h719l31 143q5 24 7.5 41.5t-1 31.5t-6 23.5t-15.5 17t-20.5 11.5
t-30.5 8t-37 6t-47 6l13 56h553l-13 -56q-44 -5 -68.5 -8.5t-49.5 -11t-37 -16t-24.5 -24t-18.5 -35t-13 -50.5l-30 -143h186l-14 -70h-187l-176 -823q-5 -24 -7.5 -41.5t1 -31.5t6 -23.5t15 -17.5t21 -12t31 -8t37 -6t46.5 -6l-13 -55h-553l13 55q53 6 80.5 11t53 14
t38 24.5t22 37.5t17.5 59l108 508h-719l-108 -508q-6 -27 -7 -46.5t0.5 -34t12 -24.5t19 -16t32 -11t39.5 -7.5t53 -6.5l-12 -55h-553l12 55q53 6 80.5 11t53 14t38 24.5t22 37.5t17.5 59l176 823h-174zM496 778h718l52 246h-719z" />
    <glyph glyph-name="hbar" unicode="&#x127;" horiz-adv-x="1114" 
d="M778 1221h-278l-164 -643q45 83 105.5 167t133 162.5t154 128t152.5 49.5q72 0 101.5 -36.5t29.5 -108.5q0 -32 -13 -90l-161 -612q-19 -74 -19 -91q0 -30 29 -30q59 0 184 153l31 -22q-98 -146 -164 -207t-135 -61q-58 0 -89.5 37.5t-31.5 101.5q0 63 29 176l151 563
q11 49 11 68q0 43 -37 43q-38 0 -94 -33t-119.5 -96t-123.5 -143.5t-111 -186t-77 -213.5l-73 -297h-179l306 1221h-144l15 65h145l37 148l-139 65l6 25l332 80h20l-82 -318h277z" />
    <glyph glyph-name="Itilde" unicode="&#x128;" horiz-adv-x="667" 
d="M170 201l221 1036q5 24 7.5 41.5t-1 31.5t-6 23.5t-15 17t-20.5 11.5t-30.5 8t-36.5 6t-47 6l12 56h553l-12 -56q-44 -5 -68.5 -8.5t-49.5 -11t-37 -16t-24.5 -24t-18.5 -35t-13 -50.5l-222 -1036q-5 -24 -7.5 -41.5t1 -31.5t6 -23.5t15 -17.5t21 -12t31 -8t37 -6
t46.5 -6l-12 -55h-553l12 55q53 6 80.5 11t53 14t38 24.5t22 37.5t17.5 59zM684 1544q-34 0 -70.5 18t-63 39.5t-61 39.5t-65.5 18q-43 0 -76.5 -26t-75.5 -91l-34 21q74 137 121 184t116 47q34 0 70.5 -18t62.5 -39.5t60 -39.5t65 -18q44 0 79 27t73 90l37 -20
q-74 -137 -121.5 -184.5t-116.5 -47.5z" />
    <glyph glyph-name="itilde" unicode="&#x129;" horiz-adv-x="557" 
d="M528 1237q-32 0 -68.5 28.5t-72 57.5t-63.5 29q-41 0 -73 -26.5t-71 -90.5l-33 20q69 137 114.5 184.5t111.5 47.5q25 0 54 -18t50.5 -39.5t49.5 -39.5t51 -18q40 0 73 27t68 90l35 -21q-69 -136 -114.5 -183.5t-111.5 -47.5zM96 295l156 614l-125 64l6 24l322 88h20
l-213 -847q-18 -70 -18 -91q0 -30 28 -30q60 0 185 153l30 -22q-98 -146 -164 -207t-135 -61q-58 0 -89 37.5t-31 101.5q0 67 28 176z" />
    <glyph glyph-name="Imacron" unicode="&#x12a;" horiz-adv-x="667" 
d="M170 201l221 1036q5 24 7.5 41.5t-1 31.5t-6 23.5t-15 17t-20.5 11.5t-30.5 8t-36.5 6t-47 6l12 56h553l-12 -56q-44 -5 -68.5 -8.5t-49.5 -11t-37 -16t-24.5 -24t-18.5 -35t-13 -50.5l-222 -1036q-5 -24 -7.5 -41.5t1 -31.5t6 -23.5t15 -17.5t21 -12t31 -8t37 -6
t46.5 -6l-12 -55h-553l12 55q53 6 80.5 11t53 14t38 24.5t22 37.5t17.5 59zM285 1583l20 100h555l-20 -100h-555z" />
    <glyph glyph-name="imacron" unicode="&#x12b;" horiz-adv-x="557" 
d="M211 1276l20 100h433l-21 -100h-432zM96 295l156 614l-125 64l6 24l322 88h20l-213 -847q-18 -70 -18 -91q0 -30 28 -30q60 0 185 153l30 -22q-98 -146 -164 -207t-135 -61q-58 0 -89 37.5t-31 101.5q0 67 28 176z" />
    <glyph glyph-name="Ibreve" unicode="&#x12c;" horiz-adv-x="667" 
d="M170 201l221 1036q5 24 7.5 41.5t-1 31.5t-6 23.5t-15 17t-20.5 11.5t-30.5 8t-36.5 6t-47 6l12 56h553l-12 -56q-44 -5 -68.5 -8.5t-49.5 -11t-37 -16t-24.5 -24t-18.5 -35t-13 -50.5l-222 -1036q-5 -24 -7.5 -41.5t1 -31.5t6 -23.5t15 -17.5t21 -12t31 -8t37 -6
t46.5 -6l-12 -55h-553l12 55q53 6 80.5 11t53 14t38 24.5t22 37.5t17.5 59zM569 1532q-123 0 -180.5 81.5t-23.5 239.5h59q-26 -192 168 -192q196 0 250 192h59q-69 -321 -332 -321z" />
    <glyph glyph-name="ibreve" unicode="&#x12d;" horiz-adv-x="557" 
d="M96 295l156 614l-125 64l6 24l322 88h20l-213 -847q-18 -70 -18 -91q0 -30 28 -30q60 0 185 153l30 -22q-98 -146 -164 -207t-135 -61q-58 0 -89 37.5t-31 101.5q0 67 28 176zM414 1221q-121 0 -175 83t-20 242h60q-14 -105 27 -150.5t130 -45.5q185 0 240 196h59
q-70 -325 -321 -325z" />
    <glyph glyph-name="Iogonek" unicode="&#x12e;" horiz-adv-x="667" 
d="M170 201l221 1036q5 24 7.5 41.5t-1 31.5t-6 23.5t-15 17t-20.5 11.5t-30.5 8t-36.5 6t-47 6l12 56h553l-12 -56q-44 -5 -68.5 -8.5t-49.5 -11t-37 -16t-24.5 -24t-18.5 -35t-13 -50.5l-222 -1036q-5 -24 -7.5 -41.5t1 -31.5t6 -23.5t15 -17.5t21 -12t31 -8t37 -6
t46.5 -6l-12 -55h-164q-244 -114 -244 -244q0 -42 28 -67t73 -25q92 0 202 96l17 -20q-33 -36 -57 -58.5t-63 -52t-83 -44.5t-92 -15q-73 0 -117.5 36.5t-44.5 102.5q0 51 24.5 95t71.5 79.5t97 62t118 54.5h-319l12 55q53 6 80.5 11t53 14t38 24.5t22 37.5t17.5 59z" />
    <glyph glyph-name="iogonek" unicode="&#x12f;" horiz-adv-x="557" 
d="M451 1251q-51 0 -85 34.5t-34 84.5q0 54 38 92.5t91 38.5q51 0 85 -34.5t34 -84.5q0 -54 -38 -92.5t-91 -38.5zM68 119q0 67 28 176l156 614l-125 64l6 24l322 88h20l-213 -847q-18 -70 -18 -91q0 -30 28 -30q60 0 185 153l30 -22q-54 -76 -121.5 -144.5t-119.5 -112
t-98.5 -84t-71.5 -79t-25 -78.5q0 -42 28 -64t73 -22q92 0 202 96l17 -20q-33 -36 -57 -58.5t-63 -52t-83 -44.5t-92 -15q-72 0 -116 36.5t-44 102.5q0 45 22.5 86t66.5 77t81 59t92 53q-53 5 -81.5 40t-28.5 95z" />
    <glyph glyph-name="Idotaccent" unicode="&#x130;" horiz-adv-x="667" 
d="M170 201l221 1036q5 24 7.5 41.5t-1 31.5t-6 23.5t-15 17t-20.5 11.5t-30.5 8t-36.5 6t-47 6l12 56h553l-12 -56q-44 -5 -68.5 -8.5t-49.5 -11t-37 -16t-24.5 -24t-18.5 -35t-13 -50.5l-222 -1036q-5 -24 -7.5 -41.5t1 -31.5t6 -23.5t15 -17.5t21 -12t31 -8t37 -6
t46.5 -6l-12 -55h-553l12 55q53 6 80.5 11t53 14t38 24.5t22 37.5t17.5 59zM578 1556q-51 0 -85 34.5t-34 84.5q0 54 38 92.5t91 38.5q51 0 85 -34t34 -84q0 -54 -38 -93t-91 -39z" />
    <glyph glyph-name="dotlessi" unicode="&#x131;" horiz-adv-x="557" 
d="M96 295l156 614l-125 64l6 24l322 88h20l-213 -847q-18 -70 -18 -91q0 -30 28 -30q60 0 185 153l30 -22q-98 -146 -164 -207t-135 -61q-58 0 -89 37.5t-31 101.5q0 67 28 176z" />
    <glyph glyph-name="IJ" unicode="&#x132;" horiz-adv-x="1611" 
d="M172 201l221 1036q5 24 7.5 41.5t-1 31.5t-6 23.5t-15 17t-20.5 11.5t-30.5 8t-36.5 6t-47 6l12 56h553l-12 -56q-44 -5 -68.5 -8.5t-49.5 -11t-37 -16t-24.5 -24t-18.5 -35t-13 -50.5l-221 -1036q-6 -27 -7 -46.5t0.5 -34t12 -24.5t19 -16t32 -11t39.5 -7.5t53 -6.5
l-12 -55h-553l12 55q53 6 80.5 11t53 14t38 24.5t22 37.5t17.5 59zM1165 342l191 895q5 24 7.5 41.5t-1 31.5t-6 23.5t-15.5 17t-20.5 11.5t-30.5 8t-37 6t-47 6l13 56h553l-13 -56q-44 -5 -68.5 -8.5t-49.5 -11t-37 -16t-24.5 -24t-18.5 -35t-13 -50.5l-182 -854
q-44 -212 -166.5 -307.5t-320.5 -95.5q-147 0 -234.5 59t-87.5 160q0 51 24 95t64 75h141q-41 -87 -41 -160q0 -80 40.5 -126t115.5 -46q99 0 164 70.5t100 234.5z" />
    <glyph glyph-name="ij" unicode="&#x133;" horiz-adv-x="960" 
d="M451 1251q-51 0 -85 34.5t-34 84.5q0 54 38 92.5t91 38.5q51 0 85 -34.5t34 -84.5q0 -54 -38 -92.5t-91 -38.5zM96 295l156 614l-125 64l6 24l322 88h20l-213 -847q-18 -70 -18 -91q0 -30 28 -30q60 0 185 153l30 -22q-98 -146 -164 -207t-135 -61q-58 0 -89 37.5
t-31 101.5q0 67 28 176zM948 1085l-180 -802q-58 -259 -131.5 -416t-161 -224t-203.5 -67q-79 0 -128.5 34.5t-49.5 94.5q0 51 33 79.5t80 39.5h18q7 -85 41 -137t80 -52q38 0 63.5 28t51.5 102.5t59 220.5l209 923l-125 64l6 24l318 88h20zM905 1251q-51 0 -85 34.5
t-34 84.5q0 54 38 92.5t91 38.5q51 0 85 -34.5t34 -84.5q0 -54 -38 -92.5t-91 -38.5z" />
    <glyph glyph-name="Jcircumflex" unicode="&#x134;" horiz-adv-x="1003" 
d="M557 342l191 895q5 24 7.5 41.5t-1 31.5t-6 23.5t-15.5 17t-20.5 11.5t-30.5 8t-37 6t-47 6l12 56h553l-12 -56q-44 -5 -68.5 -8.5t-49.5 -11t-37 -16t-24.5 -24t-18.5 -35t-13 -50.5l-182 -854q-44 -211 -167 -307t-321 -96q-147 0 -234 59t-87 160q0 51 24 95t64 75
h141q-41 -87 -41 -160q0 -80 40.5 -126t115.5 -46q99 0 164 70.5t100 234.5zM1036 1864l150 -326h-49l-195 193l-289 -193h-57l301 326h139z" />
    <glyph glyph-name="jcircumflex" unicode="&#x135;" horiz-adv-x="491" 
d="M479 1085l-180 -802q-58 -259 -131.5 -416t-161 -224t-203.5 -67q-79 0 -128.5 34.5t-49.5 94.5q0 51 33 79.5t80 39.5h18q7 -85 41 -137t80 -52q38 0 63.5 28t51.5 102.5t59 220.5l209 923l-125 64l6 24l318 88h20zM553 1567l149 -355h-49l-194 222l-289 -222h-57
l301 355h139z" />
    <glyph glyph-name="Kcommaaccent" unicode="&#x136;" horiz-adv-x="1353" 
d="M684 776l336 -577q51 -82 98.5 -111.5t134.5 -32.5l-12 -55h-299q-49 44 -131 176l-311 537l626 542q21 18 29.5 26t20.5 24.5t12 29.5q0 25 -27.5 33.5t-116.5 13.5l11 56h440l-10 -56q-66 -3 -113.5 -26t-111.5 -78zM584 1237l-222 -1036q-5 -24 -7.5 -41.5t1 -31.5
t6 -23.5t15 -17.5t21 -12t31 -8t37 -6t46.5 -6l-12 -55h-553l12 55q53 6 80.5 11t53 14t38 24.5t22 37.5t17.5 59l221 1036q5 24 7.5 41.5t-1 31.5t-6 23.5t-15 17t-20.5 11.5t-30.5 8t-36.5 6t-47 6l10 56h555l-12 -56q-44 -5 -68.5 -8.5t-49.5 -11t-37 -16t-24.5 -24
t-18.5 -35t-13 -50.5zM592 -305h-100q-35 7 -51.5 29t-16.5 51q0 59 39.5 93t101.5 34q60 0 94.5 -35.5t34.5 -97.5q0 -100 -78 -166t-221 -66l11 45q74 0 125 33.5t61 79.5z" />
    <glyph glyph-name="kcommaaccent" unicode="&#x137;" horiz-adv-x="1030" 
d="M528 666l168 -439q4 -9 10.5 -26.5t9.5 -25.5t8.5 -21.5t9.5 -19.5t9.5 -15.5t10 -13.5t11 -9t13.5 -6.5t15 -1.5q17 0 34 8.5t39.5 32t39 42.5t50.5 62l31 -22q-76 -124 -133 -177.5t-131 -53.5q-76 0 -120.5 53.5t-82.5 163.5l-135 391l348 381q58 63 101.5 89.5
t91.5 26.5q62 0 93.5 -34.5t31.5 -83.5q0 -93 -115 -140h-14q0 43 -20 76t-62 33q-38 0 -71 -21t-81 -73zM201 0h-181l361 1434l-139 65l6 25l332 80h20zM354 -305h-100q-35 7 -51.5 29t-16.5 51q0 59 40 93t102 34q60 0 94.5 -35.5t34.5 -97.5q0 -100 -78 -166t-221 -66
l10 45q74 0 125 33.5t61 79.5z" />
    <glyph glyph-name="kgreenlandic" unicode="&#x138;" horiz-adv-x="1052" 
d="M551 666l168 -439q4 -10 10.5 -26.5t9.5 -25t8.5 -21.5t9 -20t9 -15.5t10.5 -13t11 -9t13 -6.5t15 -2q32 0 66 32.5t98 112.5l31 -22q-76 -124 -133.5 -177.5t-131.5 -53.5q-76 0 -120 53.5t-82 163.5l-135 391l348 381q59 63 101.5 89.5t90.5 26.5q62 0 93.5 -34.5
t31.5 -83.5q0 -93 -115 -140h-14q0 43 -20 76t-62 33q-38 0 -70.5 -21t-80.5 -73zM221 0h-178l227 909l-125 64l7 24l321 88h21z" />
    <glyph glyph-name="Lacute" unicode="&#x139;" horiz-adv-x="1191" 
d="M584 1237l-219 -1030q-18 -80 22 -109.5t150 -29.5h120q51 0 96.5 15.5t81 38t80 70.5t76.5 89t88 118h51l-149 -399h-1034l12 55q53 6 80.5 11t53 14t38 24.5t22 37.5t17.5 59l221 1036q5 24 7.5 41.5t-1 31.5t-6 23.5t-15 17t-20.5 11.5t-30.5 8t-36.5 6t-47 6l12 56
h553l-12 -56q-44 -5 -68.5 -8.5t-49.5 -11t-37 -16t-24.5 -24t-18.5 -35t-13 -50.5zM672 1843h229l-2 -10l-328 -295h-34z" />
    <glyph glyph-name="lacute" unicode="&#x13a;" horiz-adv-x="544" 
d="M586 1604l-336 -1366q-19 -74 -19 -91q0 -30 29 -30q59 0 184 153l31 -22q-98 -146 -164 -207t-135 -61q-58 0 -89.5 37.5t-31.5 101.5q0 63 29 176l283 1139l-140 65l6 25l332 80h21zM594 1933h229l-2 -10l-327 -295h-35z" />
    <glyph glyph-name="Lcommaaccent" unicode="&#x13b;" horiz-adv-x="1191" 
d="M584 1237l-219 -1030q-18 -80 22 -109.5t150 -29.5h120q51 0 96.5 15.5t81 38t80 70.5t76.5 89t88 118h51l-149 -399h-1034l12 55q53 6 80.5 11t53 14t38 24.5t22 37.5t17.5 59l221 1036q5 24 7.5 41.5t-1 31.5t-6 23.5t-15 17t-20.5 11.5t-30.5 8t-36.5 6t-47 6l12 56
h553l-12 -56q-44 -5 -68.5 -8.5t-49.5 -11t-37 -16t-24.5 -24t-18.5 -35t-13 -50.5zM512 -305h-100q-35 7 -51.5 29t-16.5 51q0 59 39.5 93t101.5 34q60 0 94.5 -35.5t34.5 -97.5q0 -100 -78 -166t-221 -66l11 45q74 0 125 33.5t61 79.5z" />
    <glyph glyph-name="lcommaaccent" unicode="&#x13c;" horiz-adv-x="544" 
d="M586 1604l-336 -1366q-19 -74 -19 -91q0 -30 29 -30q59 0 184 153l31 -22q-98 -146 -164 -207t-135 -61q-58 0 -89.5 37.5t-31.5 101.5q0 63 29 176l283 1139l-140 65l6 25l332 80h21zM139 -305h-100q-35 7 -51.5 29t-16.5 51q0 59 40 93t102 34q60 0 94.5 -35.5
t34.5 -97.5q0 -100 -78 -166t-221 -66l10 45q74 0 125 33.5t61 79.5z" />
    <glyph glyph-name="Lcaron" unicode="&#x13d;" horiz-adv-x="1191" 
d="M584 1237l-219 -1030q-18 -80 22 -109.5t150 -29.5h120q51 0 96.5 15.5t81 38t80 70.5t76.5 89t88 118h51l-149 -399h-1034l12 55q53 6 80.5 11t53 14t38 24.5t22 37.5t17.5 59l221 1036q5 24 7.5 41.5t-1 31.5t-6 23.5t-15 17t-20.5 11.5t-30.5 8t-36.5 6t-47 6l12 56
h553l-12 -56q-44 -5 -68.5 -8.5t-49.5 -11t-37 -16t-24.5 -24t-18.5 -35t-13 -50.5zM1188 1427l-301 -409h-23l131 420h195z" />
    <glyph glyph-name="lcaron" unicode="&#x13e;" horiz-adv-x="544" 
d="M586 1604l-336 -1366q-19 -74 -19 -91q0 -30 29 -30q59 0 184 153l31 -22q-98 -146 -164 -207t-135 -61q-58 0 -89.5 37.5t-31.5 101.5q0 63 29 176l283 1139l-140 65l6 25l332 80h21zM907 1593l-301 -409h-22l131 420h194z" />
    <glyph glyph-name="Ldot" unicode="&#x13f;" horiz-adv-x="1191" 
d="M584 1237l-219 -1030q-18 -80 22 -109.5t150 -29.5h120q51 0 96.5 15.5t81 38t80 70.5t76.5 89t88 118h51l-149 -399h-1034l12 55q53 6 80.5 11t53 14t38 24.5t22 37.5t17.5 59l221 1036q5 24 7.5 41.5t-1 31.5t-6 23.5t-15 17t-20.5 11.5t-30.5 8t-36.5 6t-47 6l12 56
h553l-12 -56q-44 -5 -68.5 -8.5t-49.5 -11t-37 -16t-24.5 -24t-18.5 -35t-13 -50.5zM975 635q-51 0 -85 34.5t-34 84.5q0 54 38 92.5t91 38.5q51 0 85 -34.5t34 -84.5q0 -54 -38 -92.5t-91 -38.5z" />
    <glyph glyph-name="ldot" unicode="&#x140;" horiz-adv-x="620" 
d="M586 1604l-336 -1366q-19 -74 -19 -91q0 -30 29 -30q59 0 184 153l31 -22q-98 -146 -164 -207t-135 -61q-58 0 -89.5 37.5t-31.5 101.5q0 63 29 176l283 1139l-140 65l6 25l332 80h21zM594 666q-51 0 -85 34t-34 84q0 54 38 92.5t91 38.5q51 0 85 -34t34 -84
q0 -54 -38 -92.5t-91 -38.5z" />
    <glyph glyph-name="Lslash" unicode="&#x141;" horiz-adv-x="1191" 
d="M764 815l-299 -137l-100 -471q-18 -80 22 -109.5t150 -29.5h120q51 0 96.5 15.5t81 38t80 70.5t76.5 89t88 118h51l-149 -399h-1034l12 55q53 6 80.5 11t53 14t38 24.5t22 37.5t17.5 59l84 397l-197 -90l19 82l196 90l119 557q5 24 7.5 41.5t-1 31.5t-6 23.5t-15 17
t-20.5 11.5t-30.5 8t-36.5 6t-47 6l12 56h553l-12 -56q-44 -5 -68.5 -8.5t-49.5 -11t-37 -16t-24.5 -24t-18.5 -35t-13 -50.5l-103 -477l301 137z" />
    <glyph glyph-name="lslash" unicode="&#x142;" horiz-adv-x="575" 
d="M614 950l-200 -114l-148 -598q-18 -70 -18 -91q0 -30 28 -30q60 0 185 153l31 -22q-98 -146 -164 -207t-135 -61q-58 0 -89.5 37.5t-31.5 101.5q0 67 28 176l113 457l-160 -90l23 88l160 90l147 594l-139 65l6 25l332 80h20l-168 -682l203 116z" />
    <glyph glyph-name="Nacute" unicode="&#x143;" horiz-adv-x="1492" 
d="M1149 299l194 938q17 83 -24.5 111t-167.5 34l12 56h486l-13 -56q-44 -5 -68.5 -8.5t-49.5 -11t-37 -16t-24.5 -24t-18.5 -35t-13 -50.5l-264 -1245h-51l-651 1190l-207 -981q-17 -83 24.5 -111.5t167.5 -34.5l-12 -55h-485l12 55q53 6 80.5 11t53 14t38 24.5t22 37.5
t17.5 59l225 1056q-41 75 -72.5 99.5t-105.5 25.5l12 56h310zM1028 1843h229l-2 -10l-327 -295h-35z" />
    <glyph glyph-name="nacute" unicode="&#x144;" horiz-adv-x="1136" 
d="M494 1085l-136 -507q45 83 105.5 167t133 162.5t154 128t152.5 49.5q72 0 101.5 -36.5t29.5 -108.5q0 -36 -12 -90l-162 -612q-18 -70 -18 -91q0 -30 28 -30q60 0 185 153l30 -22q-98 -146 -164 -207t-135 -61q-58 0 -89 37.5t-31 101.5q0 67 28 176l152 563q10 45 10 68
q0 43 -37 43q-38 0 -94 -33t-119 -96t-123 -143.5t-111 -186t-77 -213.5l-74 -297h-178l227 909l-125 64l7 24l321 88h21zM895 1559h217l-2 -11l-365 -336h-34z" />
    <glyph glyph-name="Ncommaaccent" unicode="&#x145;" horiz-adv-x="1492" 
d="M1149 299l194 938q17 83 -24.5 111t-167.5 34l12 56h486l-13 -56q-44 -5 -68.5 -8.5t-49.5 -11t-37 -16t-24.5 -24t-18.5 -35t-13 -50.5l-264 -1245h-51l-651 1190l-207 -981q-17 -83 24.5 -111.5t167.5 -34.5l-12 -55h-485l12 55q53 6 80.5 11t53 14t38 24.5t22 37.5
t17.5 59l225 1056q-41 75 -72.5 99.5t-105.5 25.5l12 56h310zM662 -305h-101q-67 14 -67 80q0 59 39.5 93t101.5 34q60 0 94.5 -35.5t34.5 -97.5q0 -100 -78 -166t-221 -66l10 45q74 0 125.5 33.5t61.5 79.5z" />
    <glyph glyph-name="ncommaaccent" unicode="&#x146;" horiz-adv-x="1136" 
d="M494 1085l-136 -507q45 83 105.5 167t133 162.5t154 128t152.5 49.5q72 0 101.5 -36.5t29.5 -108.5q0 -36 -12 -90l-162 -612q-18 -70 -18 -91q0 -30 28 -30q60 0 185 153l30 -22q-98 -146 -164 -207t-135 -61q-58 0 -89 37.5t-31 101.5q0 67 28 176l152 563q10 45 10 68
q0 43 -37 43q-38 0 -94 -33t-119 -96t-123 -143.5t-111 -186t-77 -213.5l-74 -297h-178l227 909l-125 64l7 24l321 88h21zM459 -305h-101q-67 14 -67 80q0 59 39.5 93t101.5 34q60 0 94.5 -35.5t34.5 -97.5q0 -100 -78 -166t-221 -66l10 45q74 0 125.5 33.5t61.5 79.5z" />
    <glyph glyph-name="Ncaron" unicode="&#x147;" horiz-adv-x="1492" 
d="M1149 299l194 938q17 83 -24.5 111t-167.5 34l12 56h486l-13 -56q-44 -5 -68.5 -8.5t-49.5 -11t-37 -16t-24.5 -24t-18.5 -35t-13 -50.5l-264 -1245h-51l-651 1190l-207 -981q-17 -83 24.5 -111.5t167.5 -34.5l-12 -55h-485l12 55q53 6 80.5 11t53 14t38 24.5t22 37.5
t17.5 59l225 1056q-41 75 -72.5 99.5t-105.5 25.5l12 56h310zM885 1538l-150 326h49l195 -193l289 193h57l-301 -326h-139z" />
    <glyph glyph-name="ncaron" unicode="&#x148;" horiz-adv-x="1136" 
d="M494 1085l-136 -507q45 83 105.5 167t133 162.5t154 128t152.5 49.5q72 0 101.5 -36.5t29.5 -108.5q0 -36 -12 -90l-162 -612q-18 -70 -18 -91q0 -30 28 -30q60 0 185 153l30 -22q-98 -146 -164 -207t-135 -61q-58 0 -89 37.5t-31 101.5q0 67 28 176l152 563q10 45 10 68
q0 43 -37 43q-38 0 -94 -33t-119 -96t-123 -143.5t-111 -186t-77 -213.5l-74 -297h-178l227 909l-125 64l7 24l321 88h21zM662 1214l-150 355h49l195 -221l288 221h58l-301 -355h-139z" />
    <glyph glyph-name="Eng" unicode="&#x14a;" horiz-adv-x="1492" 
d="M1036 127l-577 1055l-207 -981q-17 -83 24.5 -111.5t167.5 -34.5l-12 -55h-485l12 55q53 6 80.5 11t53 14t38 24.5t22 37.5t17.5 59l225 1056q-41 75 -72.5 99.5t-105.5 25.5l12 56h310l610 -1139l194 938q17 83 -24.5 111t-167.5 34l12 56h486l-13 -56
q-44 -5 -68.5 -8.5t-49.5 -11t-37 -16t-24.5 -24t-18.5 -35t-13 -50.5l-225 -1065q-25 -117 -50 -189.5t-73 -140t-108.5 -120.5t-169.5 -132l-27 23l57 68q84 99 132 207t75 239z" />
    <glyph glyph-name="eng" unicode="&#x14b;" horiz-adv-x="1079" 
d="M1022 850l-152 -569q-102 -385 -218 -545t-287 -160q-79 0 -129 34.5t-50 94.5q0 51 33 79.5t80 39.5h18q7 -85 41 -137t80 -52q53 0 84.5 65t89.5 286l234 872q10 45 10 68q0 43 -37 43q-38 0 -94 -33t-119 -96t-123 -143.5t-111 -186t-77 -213.5l-74 -297h-178l227 909
l-125 64l7 24l321 88h21l-136 -507q45 83 105.5 167t133 162.5t154 128t152.5 49.5q72 0 101.5 -36.5t29.5 -108.5q0 -36 -12 -90z" />
    <glyph glyph-name="Omacron" unicode="&#x14c;" horiz-adv-x="1425" 
d="M877 1458q131 0 234.5 -44.5t167.5 -121.5t97 -176.5t33 -214.5q0 -127 -35.5 -257.5t-104.5 -249t-162 -211.5t-218.5 -148t-263.5 -55q-131 0 -234.5 44.5t-167.5 121.5t-97.5 176.5t-33.5 214.5q0 105 25.5 214.5t72 212t117 192.5t155.5 157t192.5 106t222.5 39z
M877 1391q-106 0 -200.5 -53.5t-162 -141.5t-117 -199.5t-74 -230t-24.5 -229.5q0 -105 19 -192.5t57 -155t102 -105t148 -37.5q131 0 243.5 81.5t183.5 208.5t110.5 275t39.5 289q0 106 -18.5 193t-57 154.5t-102 105t-147.5 37.5zM674 1583l20 100h555l-20 -100h-555z" />
    <glyph glyph-name="omacron" unicode="&#x14d;" horiz-adv-x="983" 
d="M389 37q99 0 186.5 114t135 272t47.5 304q0 301 -164 301q-99 0 -186.5 -114t-135 -272t-47.5 -304q0 -301 164 -301zM369 -20q-153 0 -238.5 98.5t-85.5 277.5q0 97 27 200.5t79 197t120.5 168.5t158 119t184.5 44q153 0 238.5 -98.5t85.5 -277.5q0 -97 -27 -200.5
t-79 -197t-120.5 -168.5t-158 -119t-184.5 -44zM406 1276l20 100h514l-20 -100h-514z" />
    <glyph glyph-name="Obreve" unicode="&#x14e;" horiz-adv-x="1425" 
d="M877 1458q131 0 234.5 -44.5t167.5 -121.5t97 -176.5t33 -214.5q0 -127 -35.5 -257.5t-104.5 -249t-162 -211.5t-218.5 -148t-263.5 -55q-131 0 -234.5 44.5t-167.5 121.5t-97.5 176.5t-33.5 214.5q0 105 25.5 214.5t72 212t117 192.5t155.5 157t192.5 106t222.5 39z
M877 1391q-106 0 -200.5 -53.5t-162 -141.5t-117 -199.5t-74 -230t-24.5 -229.5q0 -105 19 -192.5t57 -155t102 -105t148 -37.5q131 0 243.5 81.5t183.5 208.5t110.5 275t39.5 289q0 106 -18.5 193t-57 154.5t-102 105t-147.5 37.5zM958 1532q-123 0 -180.5 81.5
t-23.5 239.5h59q-26 -192 168 -192q196 0 250 192h59q-69 -321 -332 -321z" />
    <glyph glyph-name="obreve" unicode="&#x14f;" horiz-adv-x="983" 
d="M389 37q99 0 186.5 114t135 272t47.5 304q0 301 -164 301q-99 0 -186.5 -114t-135 -272t-47.5 -304q0 -301 164 -301zM369 -20q-153 0 -238.5 98.5t-85.5 277.5q0 97 27 200.5t79 197t120.5 168.5t158 119t184.5 44q153 0 238.5 -98.5t85.5 -277.5q0 -97 -27 -200.5
t-79 -197t-120.5 -168.5t-158 -119t-184.5 -44zM655 1221q-121 0 -174.5 83t-19.5 242h59q-14 -105 27.5 -150.5t130.5 -45.5q185 0 240 196h59q-70 -325 -322 -325z" />
    <glyph glyph-name="Ohungarumlaut" unicode="&#x150;" horiz-adv-x="1425" 
d="M877 1458q131 0 234.5 -44.5t167.5 -121.5t97 -176.5t33 -214.5q0 -127 -35.5 -257.5t-104.5 -249t-162 -211.5t-218.5 -148t-263.5 -55q-131 0 -234.5 44.5t-167.5 121.5t-97.5 176.5t-33.5 214.5q0 105 25.5 214.5t72 212t117 192.5t155.5 157t192.5 106t222.5 39z
M877 1391q-106 0 -200.5 -53.5t-162 -141.5t-117 -199.5t-74 -230t-24.5 -229.5q0 -105 19 -192.5t57 -155t102 -105t148 -37.5q131 0 243.5 81.5t183.5 208.5t110.5 275t39.5 289q0 106 -18.5 193t-57 154.5t-102 105t-147.5 37.5zM924 1843h215l-2 -10l-349 -295h-38z
M1217 1843h215l-2 -10l-349 -295h-39z" />
    <glyph glyph-name="ohungarumlaut" unicode="&#x151;" horiz-adv-x="983" 
d="M389 37q99 0 186.5 114t135 272t47.5 304q0 301 -164 301q-99 0 -186.5 -114t-135 -272t-47.5 -304q0 -301 164 -301zM369 -20q-153 0 -238.5 98.5t-85.5 277.5q0 97 27 200.5t79 197t120.5 168.5t158 119t184.5 44q153 0 238.5 -98.5t85.5 -277.5q0 -97 -27 -200.5
t-79 -197t-120.5 -168.5t-158 -119t-184.5 -44zM666 1559h198l-2 -11l-389 -336h-39zM958 1559h199l-2 -11l-389 -336h-39z" />
    <glyph glyph-name="OE" unicode="&#x152;" horiz-adv-x="1966" 
d="M764 68h106l279 1302h-188q-140 0 -261.5 -56.5t-210 -158t-139.5 -250.5t-51 -327q0 -244 115 -377t350 -133zM1751 0h-1014q-301 0 -473 155.5t-172 422.5q0 194 69 356.5t189 272t283 170.5t350 61h1049l-64 -342h-41q-33 163 -82.5 218.5t-156.5 55.5h-347l-127 -594
h306q63 0 104 44t80 141h55l-92 -437h-55q3 97 -20 141t-87 44h-305l-106 -502q-18 -80 22 -109.5t150 -29.5h168q54 0 99 15.5t94.5 55.5t95.5 91t118 139h49z" />
    <glyph glyph-name="oe" unicode="&#x153;" horiz-adv-x="1527" 
d="M1026 -20q-104 0 -178 53.5t-109 146.5q-74 -92 -170.5 -146t-199.5 -54q-153 0 -238.5 98.5t-85.5 277.5q0 97 27 200.5t79 197t120.5 168.5t158 119t184.5 44q105 0 180 -56t111 -155q80 96 180.5 153.5t202.5 57.5q118 0 179 -55.5t61 -142.5q0 -55 -19.5 -103
t-51 -84t-83 -68t-101.5 -54t-121 -44t-128.5 -36t-136.5 -31q-4 -58 -4 -86q0 -139 56.5 -217t156.5 -78q86 0 162.5 51.5t154.5 153.5l37 -27q-99 -144 -200.5 -214t-223.5 -70zM389 37q99 0 186.5 114t135 272t47.5 304q0 301 -164 301q-99 0 -186.5 -114t-135 -272
t-47.5 -304q0 -301 164 -301zM1251 1022q-84 0 -161 -75.5t-127 -190.5t-70 -246q242 56 355.5 146t113.5 241q0 54 -27.5 89.5t-83.5 35.5z" />
    <glyph glyph-name="Racute" unicode="&#x154;" horiz-adv-x="1380" 
d="M743 1370h-131l-143 -674h113q206 0 328 104.5t122 295.5q0 126 -71 200t-218 74zM455 627l-93 -426q-5 -24 -7.5 -41.5t1 -31.5t6 -23.5t15 -17.5t21 -12t31 -8t37 -6t46.5 -6l-12 -55h-553l12 55q53 6 80.5 11t53 14t38 24.5t22 37.5t17.5 59l221 1036q5 24 7.5 41.5
t-1 31.5t-6 23.5t-15 17t-20.5 11.5t-30.5 8t-36.5 6t-47 6l12 56h549q118 0 205 -27.5t136 -76t72 -107t23 -127.5q0 -81 -31.5 -152t-79.5 -119t-110.5 -85.5t-118 -57t-108.5 -29.5l243 -430q56 -94 108 -132.5t136 -39.5l-10 -55h-293q-36 29 -65.5 71t-67.5 111
l-238 445h-149zM901 1843h229l-2 -10l-327 -295h-35z" />
    <glyph glyph-name="racute" unicode="&#x155;" horiz-adv-x="794" 
d="M494 1085l-103 -383l-84 -251q74 154 129.5 258t116.5 195.5t116 136t107 44.5q49 0 77 -31t28 -79q0 -61 -32.5 -99.5t-96.5 -68.5h-17q0 40 -11.5 62t-45.5 22q-42 0 -102 -65t-123.5 -177t-126.5 -284t-105 -365h-178l227 909l-125 64l7 24l321 88h21zM770 1559h217
l-2 -11l-364 -336h-35z" />
    <glyph glyph-name="Rcommaaccent" unicode="&#x156;" horiz-adv-x="1380" 
d="M743 1370h-131l-143 -674h113q206 0 328 104.5t122 295.5q0 126 -71 200t-218 74zM455 627l-93 -426q-5 -24 -7.5 -41.5t1 -31.5t6 -23.5t15 -17.5t21 -12t31 -8t37 -6t46.5 -6l-12 -55h-553l12 55q53 6 80.5 11t53 14t38 24.5t22 37.5t17.5 59l221 1036q5 24 7.5 41.5
t-1 31.5t-6 23.5t-15 17t-20.5 11.5t-30.5 8t-36.5 6t-47 6l12 56h549q118 0 205 -27.5t136 -76t72 -107t23 -127.5q0 -81 -31.5 -152t-79.5 -119t-110.5 -85.5t-118 -57t-108.5 -29.5l243 -430q56 -94 108 -132.5t136 -39.5l-10 -55h-293q-36 29 -65.5 71t-67.5 111
l-238 445h-149zM604 -305h-100q-35 7 -51.5 29t-16.5 51q0 59 40 93t102 34q60 0 94.5 -35.5t34.5 -97.5q0 -100 -78 -166t-221 -66l10 45q74 0 125 33.5t61 79.5z" />
    <glyph glyph-name="rcommaaccent" unicode="&#x157;" horiz-adv-x="794" 
d="M494 1085l-103 -383l-84 -251q74 154 129.5 258t116.5 195.5t116 136t107 44.5q49 0 77 -31t28 -79q0 -61 -32.5 -99.5t-96.5 -68.5h-17q0 40 -11.5 62t-45.5 22q-42 0 -102 -65t-123.5 -177t-126.5 -284t-105 -365h-178l227 909l-125 64l7 24l321 88h21zM125 -305h-100
q-35 7 -51.5 29t-16.5 51q0 59 39.5 93t101.5 34q60 0 94.5 -35.5t34.5 -97.5q0 -100 -78 -166t-221 -66l11 45q74 0 125 33.5t61 79.5z" />
    <glyph glyph-name="Rcaron" unicode="&#x158;" horiz-adv-x="1380" 
d="M743 1370h-131l-143 -674h113q206 0 328 104.5t122 295.5q0 126 -71 200t-218 74zM455 627l-93 -426q-5 -24 -7.5 -41.5t1 -31.5t6 -23.5t15 -17.5t21 -12t31 -8t37 -6t46.5 -6l-12 -55h-553l12 55q53 6 80.5 11t53 14t38 24.5t22 37.5t17.5 59l221 1036q5 24 7.5 41.5
t-1 31.5t-6 23.5t-15 17t-20.5 11.5t-30.5 8t-36.5 6t-47 6l12 56h549q118 0 205 -27.5t136 -76t72 -107t23 -127.5q0 -81 -31.5 -152t-79.5 -119t-110.5 -85.5t-118 -57t-108.5 -29.5l243 -430q56 -94 108 -132.5t136 -39.5l-10 -55h-293q-36 29 -65.5 71t-67.5 111
l-238 445h-149zM721 1538l-150 326h50l194 -193l289 193h57l-301 -326h-139z" />
    <glyph glyph-name="rcaron" unicode="&#x159;" horiz-adv-x="794" 
d="M494 1085l-103 -383l-84 -251q74 154 129.5 258t116.5 195.5t116 136t107 44.5q49 0 77 -31t28 -79q0 -61 -32.5 -99.5t-96.5 -68.5h-17q0 40 -11.5 62t-45.5 22q-42 0 -102 -65t-123.5 -177t-126.5 -284t-105 -365h-178l227 909l-125 64l7 24l321 88h21zM537 1214
l-150 355h49l195 -221l289 221h57l-301 -355h-139z" />
    <glyph glyph-name="Sacute" unicode="&#x15a;" horiz-adv-x="1083" 
d="M981 426q0 -103 -43.5 -188.5t-116.5 -141t-166 -86t-194 -30.5q-148 0 -263.5 44t-177.5 103l54 342h53q9 -211 96.5 -317.5t249.5 -106.5q146 0 233 80.5t87 220.5q0 78 -29 132.5t-87 96.5t-167 95q-144 70 -214.5 157.5t-70.5 210.5q0 185 133 302.5t353 117.5
q228 0 383 -121l-58 -301h-51q-2 182 -68.5 269.5t-218.5 87.5q-134 0 -214.5 -82t-80.5 -209q0 -96 52.5 -157t175.5 -118q81 -37 140.5 -75t109 -86.5t75 -108.5t25.5 -131zM866 1843h230l-2 -10l-328 -295h-35z" />
    <glyph glyph-name="sacute" unicode="&#x15b;" horiz-adv-x="763" 
d="M360 55q81 0 122.5 41t41.5 117q0 42 -38 95t-92.5 107t-109 111t-92.5 125t-38 131q0 127 97 215t243 88q116 0 182.5 -47.5t66.5 -126.5q0 -38 -27 -67t-63 -45h-8q-80 209 -235 209q-68 0 -105 -39t-37 -105q0 -37 39 -89t94 -106.5t110.5 -112.5t94.5 -125.5
t39 -127.5q0 -145 -104 -234t-248 -89q-135 0 -219 62.5t-84 154.5q0 44 24 81t64 56h10q32 -127 102.5 -203t169.5 -76zM696 1559h217l-2 -11l-364 -336h-35z" />
    <glyph glyph-name="Scircumflex" unicode="&#x15c;" horiz-adv-x="1083" 
d="M981 426q0 -103 -43.5 -188.5t-116.5 -141t-166 -86t-194 -30.5q-148 0 -263.5 44t-177.5 103l54 342h53q9 -211 96.5 -317.5t249.5 -106.5q146 0 233 80.5t87 220.5q0 78 -29 132.5t-87 96.5t-167 95q-144 70 -214.5 157.5t-70.5 210.5q0 185 133 302.5t353 117.5
q228 0 383 -121l-58 -301h-51q-2 182 -68.5 269.5t-218.5 87.5q-134 0 -214.5 -82t-80.5 -209q0 -96 52.5 -157t175.5 -118q81 -37 140.5 -75t109 -86.5t75 -108.5t25.5 -131zM887 1864l149 -326h-49l-194 193l-289 -193h-58l302 326h139z" />
    <glyph glyph-name="scircumflex" unicode="&#x15d;" horiz-adv-x="763" 
d="M360 55q81 0 122.5 41t41.5 117q0 42 -38 95t-92.5 107t-109 111t-92.5 125t-38 131q0 127 97 215t243 88q116 0 182.5 -47.5t66.5 -126.5q0 -38 -27 -67t-63 -45h-8q-80 209 -235 209q-68 0 -105 -39t-37 -105q0 -37 39 -89t94 -106.5t110.5 -112.5t94.5 -125.5
t39 -127.5q0 -145 -104 -234t-248 -89q-135 0 -219 62.5t-84 154.5q0 44 24 81t64 56h10q32 -127 102.5 -203t169.5 -76zM700 1567l150 -355h-49l-195 222l-289 -222h-57l301 355h139z" />
    <glyph glyph-name="Scedilla" unicode="&#x15e;" horiz-adv-x="1083" 
d="M201 -453l-13 54q123 0 192 31t69 83q0 80 -183 86l101 185q-116 12 -205.5 52.5t-141.5 88.5l54 342h53q9 -211 96.5 -317.5t249.5 -106.5q146 0 233 80.5t87 220.5q0 78 -29 132.5t-87 96.5t-167 95q-144 70 -214.5 157.5t-70.5 210.5q0 185 133 302.5t353 117.5
q228 0 383 -121l-58 -301h-51q-2 182 -68.5 269.5t-218.5 87.5q-134 0 -214.5 -82t-80.5 -209q0 -96 52.5 -157t175.5 -118q81 -37 140.5 -75t109 -86.5t75 -108.5t25.5 -131q0 -103 -43.5 -188.5t-116.5 -141t-166 -86t-194 -30.5q-31 0 -45 2l-41 -80q87 -2 141.5 -38
t54.5 -104q0 -104 -101 -158.5t-269 -54.5z" />
    <glyph glyph-name="scedilla" unicode="&#x15f;" horiz-adv-x="763" 
d="M25 -453l-13 54q123 0 191.5 31t68.5 83q0 80 -182 86l105 189q-94 20 -149.5 77t-55.5 130q0 44 24 81t64 56h10q32 -127 102.5 -203t169.5 -76q81 0 122.5 41t41.5 117q0 42 -38 95t-92.5 107t-109 111t-92.5 125t-38 131q0 127 97 215t243 88q116 0 182.5 -47.5
t66.5 -126.5q0 -38 -27 -67t-63 -45h-8q-80 209 -235 209q-68 0 -105 -39t-37 -105q0 -37 39 -89t94 -106.5t110.5 -112.5t94.5 -125.5t39 -127.5q0 -145 -104 -234t-248 -89q-19 0 -51 4l-43 -82q87 -2 141.5 -38t54.5 -104q0 -104 -101 -158.5t-269 -54.5z" />
    <glyph glyph-name="Scaron" unicode="&#x160;" horiz-adv-x="1083" 
d="M981 426q0 -103 -43.5 -188.5t-116.5 -141t-166 -86t-194 -30.5q-148 0 -263.5 44t-177.5 103l54 342h53q9 -211 96.5 -317.5t249.5 -106.5q146 0 233 80.5t87 220.5q0 78 -29 132.5t-87 96.5t-167 95q-144 70 -214.5 157.5t-70.5 210.5q0 185 133 302.5t353 117.5
q228 0 383 -121l-58 -301h-51q-2 182 -68.5 269.5t-218.5 87.5q-134 0 -214.5 -82t-80.5 -209q0 -96 52.5 -157t175.5 -118q81 -37 140.5 -75t109 -86.5t75 -108.5t25.5 -131zM686 1538l-149 326h49l194 -193l289 193h57l-301 -326h-139z" />
    <glyph glyph-name="scaron" unicode="&#x161;" horiz-adv-x="763" 
d="M360 55q81 0 122.5 41t41.5 117q0 42 -38 95t-92.5 107t-109 111t-92.5 125t-38 131q0 127 97 215t243 88q116 0 182.5 -47.5t66.5 -126.5q0 -38 -27 -67t-63 -45h-8q-80 209 -235 209q-68 0 -105 -39t-37 -105q0 -37 39 -89t94 -106.5t110.5 -112.5t94.5 -125.5
t39 -127.5q0 -145 -104 -234t-248 -89q-135 0 -219 62.5t-84 154.5q0 44 24 81t64 56h10q32 -127 102.5 -203t169.5 -76zM475 1214l-149 355h49l194 -221l289 221h57l-301 -355h-139z" />
    <glyph glyph-name="Tcedilla" unicode="&#x162;" horiz-adv-x="1312" 
d="M936 1374l-248 -1169q-7 -32 -8 -53.5t7 -37.5t19 -25.5t36 -16t49 -10t67 -7.5l-12 -55h-594l12 55q131 14 172.5 39t59.5 111l247 1169h-147q-46 0 -81 -6.5t-69 -25.5t-60 -42t-61.5 -69.5t-66.5 -93.5t-80 -127h-45l123 428h1194l-61 -428h-46q-13 87 -20 127.5
t-20.5 92t-27 71t-37.5 41t-55 27t-77 5.5h-170zM541 -305h-101q-67 14 -67 80q0 59 39.5 93t101.5 34q60 0 94.5 -35.5t34.5 -97.5q0 -100 -78 -166t-221 -66l10 45q74 0 125.5 33.5t61.5 79.5z" />
    <glyph glyph-name="tcedilla" unicode="&#x163;" horiz-adv-x="636" 
d="M442 965l-176 -699q-16 -69 -16 -102q0 -53 51 -53q55 0 107.5 39.5t144.5 144.5l31 -25q-107 -150 -194.5 -220t-172.5 -70q-67 0 -106 41t-39 110t22 156l170 678h-135l10 39q102 34 179 103.5t163 188.5h43l-63 -254h231l-20 -77h-230zM180 -305h-100q-35 7 -51.5 29
t-16.5 51q0 59 40 93t102 34q60 0 94.5 -35.5t34.5 -97.5q0 -100 -78 -166t-221 -66l10 45q74 0 125 33.5t61 79.5z" />
    <glyph glyph-name="Tcaron" unicode="&#x164;" horiz-adv-x="1312" 
d="M936 1374l-248 -1169q-7 -32 -8 -53.5t7 -37.5t19 -25.5t36 -16t49 -10t67 -7.5l-12 -55h-594l12 55q131 14 172.5 39t59.5 111l247 1169h-147q-46 0 -81 -6.5t-69 -25.5t-60 -42t-61.5 -69.5t-66.5 -93.5t-80 -127h-45l123 428h1194l-61 -428h-46q-13 87 -20 127.5
t-20.5 92t-27 71t-37.5 41t-55 27t-77 5.5h-170zM813 1538l-149 326h49l194 -193l289 193h57l-301 -326h-139z" />
    <glyph glyph-name="tcaron" unicode="&#x165;" horiz-adv-x="636" 
d="M442 965l-176 -699q-16 -69 -16 -102q0 -53 51 -53q55 0 107.5 39.5t144.5 144.5l31 -25q-107 -150 -194.5 -220t-172.5 -70q-67 0 -106 41t-39 110t22 156l170 678h-135l10 39q102 34 179 103.5t163 188.5h43l-63 -254h231l-20 -77h-230zM870 1524l-301 -410h-22
l131 420h194z" />
    <glyph glyph-name="Tbar" unicode="&#x166;" horiz-adv-x="1312" 
d="M371 709l14 69h231l127 596h-147q-46 0 -81 -6.5t-69 -25.5t-60 -42t-61.5 -69.5t-66.5 -93.5t-80 -127h-45l123 428h1194l-61 -428h-46q-13 87 -20 127.5t-20.5 92t-27 71t-37.5 41t-55 27t-77 5.5h-170l-127 -596h242l-15 -69h-241l-107 -504q-7 -32 -8 -53.5t7 -37.5
t19 -25.5t36 -16t49 -10t67 -7.5l-12 -55h-594l12 55q131 14 172.5 39t59.5 111l106 504h-231z" />
    <glyph glyph-name="tbar" unicode="&#x167;" horiz-adv-x="677" 
d="M463 965l-53 -207h247l-16 -74h-250l-104 -418q-17 -73 -17 -102q0 -25 13.5 -39t38.5 -14q55 0 107 39.5t144 144.5l31 -25q-108 -150 -194.5 -220t-171.5 -70q-67 0 -106.5 41t-39.5 110q0 65 23 156l98 397h-121l17 74h122l54 207h-135l10 39q102 34 179 103.5
t163 188.5h43l-64 -254h232l-21 -77h-229z" />
    <glyph glyph-name="Utilde" unicode="&#x168;" horiz-adv-x="1439" 
d="M1169 520l154 717q5 24 7.5 41.5t-1 31.5t-6 23.5t-15 17t-20.5 11.5t-30.5 8t-36.5 6t-47 6l12 56h440l-12 -56q-44 -5 -68.5 -8.5t-49.5 -11t-37 -16t-24.5 -24t-18.5 -35t-13 -50.5l-160 -752q-54 -252 -203.5 -378.5t-369.5 -126.5q-125 0 -223.5 36.5t-164 108
t-87.5 178t6 246.5l145 688q5 24 7.5 41.5t-1 31.5t-6 23.5t-15 17t-20.5 11.5t-30.5 8t-36.5 6t-47 6l12 56h553l-12 -56q-44 -5 -68.5 -8.5t-49.5 -11t-37 -16t-24.5 -24t-18.5 -35t-13 -50.5l-148 -696q-43 -206 39.5 -331.5t265.5 -125.5q201 0 313.5 104t159.5 332z
M1126 1544q-34 0 -70.5 18t-63 39.5t-61 39.5t-65.5 18q-43 0 -76 -26t-75 -91l-35 21q74 136 121.5 183.5t116.5 47.5q34 0 70.5 -18t62.5 -39.5t60 -39.5t65 -18q44 0 78 27t73 90l37 -20q-74 -137 -121.5 -184.5t-116.5 -47.5z" />
    <glyph glyph-name="utilde" unicode="&#x169;" horiz-adv-x="1136" 
d="M791 786l65 269l191 14l-203 -831q-19 -74 -19 -91q0 -30 29 -30q59 0 184 153l31 -22q-98 -146 -164 -207t-135 -61q-57 0 -87 37t-30 102q0 77 84 389q-36 -81 -91.5 -168.5t-124.5 -170t-149 -136t-151 -53.5q-73 0 -112 43.5t-39 113.5q0 46 16 105l172 667l-125 64
l6 24l322 88h20l-215 -835q-16 -62 -16 -94q0 -60 55 -60q49 0 117.5 53.5t137.5 143t133 221t98 272.5zM834 1237q-34 0 -71 18t-63.5 39.5t-61 39.5t-65.5 18q-43 0 -76 -26t-75 -91l-35 20q74 137 121.5 184.5t116.5 47.5q34 0 70.5 -18t62.5 -39.5t60 -39.5t65 -18
q44 0 78 27t73 90l37 -21q-74 -137 -121 -184t-116 -47z" />
    <glyph glyph-name="Umacron" unicode="&#x16a;" horiz-adv-x="1439" 
d="M1169 520l154 717q5 24 7.5 41.5t-1 31.5t-6 23.5t-15 17t-20.5 11.5t-30.5 8t-36.5 6t-47 6l12 56h440l-12 -56q-44 -5 -68.5 -8.5t-49.5 -11t-37 -16t-24.5 -24t-18.5 -35t-13 -50.5l-160 -752q-54 -252 -203.5 -378.5t-369.5 -126.5q-125 0 -223.5 36.5t-164 108
t-87.5 178t6 246.5l145 688q5 24 7.5 41.5t-1 31.5t-6 23.5t-15 17t-20.5 11.5t-30.5 8t-36.5 6t-47 6l12 56h553l-12 -56q-44 -5 -68.5 -8.5t-49.5 -11t-37 -16t-24.5 -24t-18.5 -35t-13 -50.5l-148 -696q-43 -206 39.5 -331.5t265.5 -125.5q201 0 313.5 104t159.5 332z
M727 1583l21 100h555l-21 -100h-555z" />
    <glyph glyph-name="umacron" unicode="&#x16b;" horiz-adv-x="1136" 
d="M791 786l65 269l191 14l-203 -831q-19 -74 -19 -91q0 -30 29 -30q59 0 184 153l31 -22q-98 -146 -164 -207t-135 -61q-57 0 -87 37t-30 102q0 77 84 389q-36 -81 -91.5 -168.5t-124.5 -170t-149 -136t-151 -53.5q-73 0 -112 43.5t-39 113.5q0 46 16 105l172 667l-125 64
l6 24l322 88h20l-215 -835q-16 -62 -16 -94q0 -60 55 -60q49 0 117.5 53.5t137.5 143t133 221t98 272.5zM457 1276l20 100h514l-20 -100h-514z" />
    <glyph glyph-name="Ubreve" unicode="&#x16c;" horiz-adv-x="1439" 
d="M1169 520l154 717q5 24 7.5 41.5t-1 31.5t-6 23.5t-15 17t-20.5 11.5t-30.5 8t-36.5 6t-47 6l12 56h440l-12 -56q-44 -5 -68.5 -8.5t-49.5 -11t-37 -16t-24.5 -24t-18.5 -35t-13 -50.5l-160 -752q-54 -252 -203.5 -378.5t-369.5 -126.5q-125 0 -223.5 36.5t-164 108
t-87.5 178t6 246.5l145 688q5 24 7.5 41.5t-1 31.5t-6 23.5t-15 17t-20.5 11.5t-30.5 8t-36.5 6t-47 6l12 56h553l-12 -56q-44 -5 -68.5 -8.5t-49.5 -11t-37 -16t-24.5 -24t-18.5 -35t-13 -50.5l-148 -696q-43 -206 39.5 -331.5t265.5 -125.5q201 0 313.5 104t159.5 332z
M1012 1532q-123 0 -181 81.5t-24 239.5h59q-26 -192 168 -192q196 0 250 192h59q-69 -321 -331 -321z" />
    <glyph glyph-name="ubreve" unicode="&#x16d;" horiz-adv-x="1136" 
d="M791 786l65 269l191 14l-203 -831q-19 -74 -19 -91q0 -30 29 -30q59 0 184 153l31 -22q-98 -146 -164 -207t-135 -61q-57 0 -87 37t-30 102q0 77 84 389q-36 -81 -91.5 -168.5t-124.5 -170t-149 -136t-151 -53.5q-73 0 -112 43.5t-39 113.5q0 46 16 105l172 667l-125 64
l6 24l322 88h20l-215 -835q-16 -62 -16 -94q0 -60 55 -60q49 0 117.5 53.5t137.5 143t133 221t98 272.5zM700 1221q-121 0 -174.5 83t-19.5 242h59q-14 -105 27.5 -150.5t130.5 -45.5q185 0 240 196h59q-70 -325 -322 -325z" />
    <glyph glyph-name="Uring" unicode="&#x16e;" horiz-adv-x="1439" 
d="M1169 520l154 717q5 24 7.5 41.5t-1 31.5t-6 23.5t-15 17t-20.5 11.5t-30.5 8t-36.5 6t-47 6l12 56h440l-12 -56q-44 -5 -68.5 -8.5t-49.5 -11t-37 -16t-24.5 -24t-18.5 -35t-13 -50.5l-160 -752q-54 -252 -203.5 -378.5t-369.5 -126.5q-125 0 -223.5 36.5t-164 108
t-87.5 178t6 246.5l145 688q5 24 7.5 41.5t-1 31.5t-6 23.5t-15 17t-20.5 11.5t-30.5 8t-36.5 6t-47 6l12 56h553l-12 -56q-44 -5 -68.5 -8.5t-49.5 -11t-37 -16t-24.5 -24t-18.5 -35t-13 -50.5l-148 -696q-43 -206 39.5 -331.5t265.5 -125.5q201 0 313.5 104t159.5 332z
M1137 1698q0 45 -28 72.5t-73 27.5q-58 0 -91.5 -39.5t-33.5 -97.5q0 -45 28 -72.5t73 -27.5q58 0 91.5 39.5t33.5 97.5zM846 1661q0 83 55 138.5t135 55.5q78 0 122 -43t44 -114q0 -83 -55 -139t-135 -56q-78 0 -122 43.5t-44 114.5z" />
    <glyph glyph-name="uring" unicode="&#x16f;" horiz-adv-x="1136" 
d="M791 786l65 269l191 14l-203 -831q-19 -74 -19 -91q0 -30 29 -30q59 0 184 153l31 -22q-98 -146 -164 -207t-135 -61q-57 0 -87 37t-30 102q0 77 84 389q-36 -81 -91.5 -168.5t-124.5 -170t-149 -136t-151 -53.5q-73 0 -112 43.5t-39 113.5q0 46 16 105l172 667l-125 64
l6 24l322 88h20l-215 -835q-16 -62 -16 -94q0 -60 55 -60q49 0 117.5 53.5t137.5 143t133 221t98 272.5zM838 1354q0 45 -28 72.5t-73 27.5q-58 0 -91.5 -39.5t-33.5 -97.5q0 -45 28 -72.5t73 -27.5q58 0 91.5 39.5t33.5 97.5zM547 1317q0 83 55 138.5t135 55.5
q78 0 122 -43t44 -114q0 -83 -55 -139t-135 -56q-78 0 -122 43.5t-44 114.5z" />
    <glyph glyph-name="Uhungarumlaut" unicode="&#x170;" horiz-adv-x="1439" 
d="M1169 520l154 717q5 24 7.5 41.5t-1 31.5t-6 23.5t-15 17t-20.5 11.5t-30.5 8t-36.5 6t-47 6l12 56h440l-12 -56q-44 -5 -68.5 -8.5t-49.5 -11t-37 -16t-24.5 -24t-18.5 -35t-13 -50.5l-160 -752q-54 -252 -203.5 -378.5t-369.5 -126.5q-125 0 -223.5 36.5t-164 108
t-87.5 178t6 246.5l145 688q5 24 7.5 41.5t-1 31.5t-6 23.5t-15 17t-20.5 11.5t-30.5 8t-36.5 6t-47 6l12 56h553l-12 -56q-44 -5 -68.5 -8.5t-49.5 -11t-37 -16t-24.5 -24t-18.5 -35t-13 -50.5l-148 -696q-43 -206 39.5 -331.5t265.5 -125.5q201 0 313.5 104t159.5 332z
M977 1843h215l-2 -10l-348 -295h-39zM1270 1843h215l-2 -10l-348 -295h-39z" />
    <glyph glyph-name="uhungarumlaut" unicode="&#x171;" horiz-adv-x="1136" 
d="M791 786l65 269l191 14l-203 -831q-19 -74 -19 -91q0 -30 29 -30q59 0 184 153l31 -22q-98 -146 -164 -207t-135 -61q-57 0 -87 37t-30 102q0 77 84 389q-36 -81 -91.5 -168.5t-124.5 -170t-149 -136t-151 -53.5q-73 0 -112 43.5t-39 113.5q0 46 16 105l172 667l-125 64
l6 24l322 88h20l-215 -835q-16 -62 -16 -94q0 -60 55 -60q49 0 117.5 53.5t137.5 143t133 221t98 272.5zM709 1559h198l-2 -11l-389 -336h-39zM1001 1559h199l-2 -11l-389 -336h-39z" />
    <glyph glyph-name="Uogonek" unicode="&#x172;" horiz-adv-x="1439" 
d="M739 -16q-46 -4 -69 -4q-125 0 -223.5 36.5t-164 108t-87.5 178t6 246.5l145 688q5 24 7.5 41.5t-1 31.5t-6 23.5t-15 17t-20.5 11.5t-30.5 8t-36.5 6t-47 6l12 56h553l-12 -56q-44 -5 -68.5 -8.5t-49.5 -11t-37 -16t-24.5 -24t-18.5 -35t-13 -50.5l-148 -696
q-43 -206 39.5 -331.5t265.5 -125.5q201 0 313.5 104t159.5 332l154 717q5 24 7.5 41.5t-1 31.5t-6 23.5t-15 17t-20.5 11.5t-30.5 8t-36.5 6t-47 6l12 56h440l-12 -56q-44 -5 -68.5 -8.5t-49.5 -11t-37 -16t-24.5 -24t-18.5 -35t-13 -50.5l-160 -752q-40 -191 -138 -311.5
t-241 -165.5q-116 -51 -189 -115t-73 -137q0 -42 27.5 -67t72.5 -25q93 0 203 96l17 -20q-33 -36 -57 -58.5t-63 -52t-83 -44.5t-92 -15q-73 0 -117.5 36.5t-44.5 102.5q0 89 73.5 155t200.5 120z" />
    <glyph glyph-name="uogonek" unicode="&#x173;" horiz-adv-x="1136" 
d="M653 119q0 77 84 389q-36 -81 -91.5 -168.5t-124.5 -170t-149 -136t-151 -53.5q-72 0 -110.5 43.5t-38.5 113.5q0 51 14 105l166 667l-125 64l6 24l322 88h20l-213 -852q-12 -54 -12 -77q0 -60 55 -60q49 0 117.5 53.5t137.5 143t133 221t98 272.5l65 269l191 14
l-203 -831q-19 -74 -19 -91q0 -30 29 -30q59 0 184 153l31 -22q-54 -76 -121.5 -144.5t-119.5 -112t-98.5 -84t-71.5 -79t-25 -78.5q0 -43 27.5 -64.5t72.5 -21.5q93 0 203 96l16 -20q-33 -36 -57 -58.5t-63 -52t-83 -44.5t-92 -15q-72 0 -115.5 36.5t-43.5 102.5
q0 45 22.5 86t66.5 77t81 59t92 53q-52 4 -79.5 39.5t-27.5 95.5z" />
    <glyph glyph-name="Wcircumflex" unicode="&#x174;" horiz-adv-x="1875" 
d="M1161 1212l107 -929l510 927q2 4 10 18.5t11 21.5t8.5 19t7.5 21.5t2 18.5q0 35 -35 52.5t-133 20.5l12 56h401l-12 -56q-37 -5 -54.5 -9.5t-41.5 -20.5t-39 -45l-737 -1325h-43l-103 870l-497 -870h-46l-190 1325q-4 37 -30 52.5t-74 22.5l12 56h508l-13 -56
q-120 -6 -163 -27.5t-43 -74.5q0 -36 4 -68l127 -938l391 691l-39 342q-4 37 -30.5 52.5t-74.5 22.5l13 56h489l-12 -56q-121 -6 -164 -27.5t-43 -74.5q0 -36 4 -68zM1280 1864l150 -326h-50l-194 193l-289 -193h-57l301 326h139z" />
    <glyph glyph-name="wcircumflex" unicode="&#x175;" horiz-adv-x="1396" 
d="M664 920l-121 53l8 24l270 88h6l58 -915l223 295q81 108 115 185.5t34 162.5q0 82 -52 122.5t-144 31.5v16q83 102 176 102q59 0 96.5 -27.5t50.5 -64t13 -82.5q0 -97 -55 -203.5t-181 -267.5l-360 -460h-64l-41 518l-397 -518h-63l-74 940l-121 53l8 24l270 88h7
l61 -907l303 397zM985 1567l150 -355h-50l-194 222l-289 -222h-57l301 355h139z" />
    <glyph glyph-name="Ycircumflex" unicode="&#x176;" horiz-adv-x="1271" 
d="M737 580l-80 -375q-7 -32 -8 -53.5t7 -37.5t19 -25.5t36 -16t49 -10t67 -7.5l-12 -55h-584l13 55q131 14 172 39t59 111l78 373l-254 729q-13 38 -36.5 53.5t-67.5 21.5l12 56h506l-13 -56q-119 -3 -159.5 -20.5t-40.5 -61.5q0 -25 18 -88l197 -550l430 548q57 77 57 107
q0 34 -36 48t-130 17l13 56h409l-12 -56q-46 -6 -77 -22.5t-60 -52.5zM1032 1864l150 -326h-49l-195 193l-289 -193h-57l301 326h139z" />
    <glyph glyph-name="ycircumflex" unicode="&#x177;" horiz-adv-x="980" 
d="M164 920l-125 53l8 24l270 88h7l159 -1022q26 36 115 173q144 225 194 353.5t50 223.5q0 82 -52.5 122.5t-144.5 31.5v16q83 102 176 102q59 0 96.5 -27.5t50.5 -64t13 -82.5q0 -96 -79 -261t-259 -447q-124 -195 -229.5 -325t-188 -192.5t-143 -85t-123.5 -22.5
q-76 0 -129 39.5t-53 116.5q0 46 27.5 82.5t68.5 48.5h8q0 -82 39.5 -128t108.5 -46q78 0 148 37.5t169 154.5zM774 1567l150 -355h-50l-194 222l-289 -222h-57l301 355h139z" />
    <glyph glyph-name="Ydieresis" unicode="&#x178;" horiz-adv-x="1271" 
d="M737 580l-80 -375q-7 -32 -8 -53.5t7 -37.5t19 -25.5t36 -16t49 -10t67 -7.5l-12 -55h-584l13 55q131 14 172 39t59 111l78 373l-254 729q-13 38 -36.5 53.5t-67.5 21.5l12 56h506l-13 -56q-119 -3 -159.5 -20.5t-40.5 -61.5q0 -25 18 -88l197 -550l430 548q57 77 57 107
q0 34 -36 48t-130 17l13 56h409l-12 -56q-46 -6 -77 -22.5t-60 -52.5zM731 1556q-52 0 -85.5 34t-33.5 85q0 54 38 92.5t91 38.5q52 0 85.5 -33.5t33.5 -84.5q0 -54 -38 -93t-91 -39zM1112 1556q-52 0 -85.5 34t-33.5 85q0 54 38 92.5t91 38.5q52 0 85.5 -33.5t33.5 -84.5
q0 -54 -38 -93t-91 -39z" />
    <glyph glyph-name="Zacute" unicode="&#x179;" horiz-adv-x="1234" 
d="M223 68h447q32 0 58.5 3t54 15.5t46.5 21.5t48 36t46 44t53 61t56.5 70t67.5 87h49l-152 -406h-1038l6 33l1122 1337h-440q-27 0 -50 -3.5t-42 -8t-39.5 -18t-34.5 -22.5t-35 -34t-34 -40t-38 -52.5l-40 -60t-47 -72.5h-47l92 379h1014l-9 -35zM940 1843h229l-2 -10
l-327 -295h-35z" />
    <glyph glyph-name="zacute" unicode="&#x17a;" horiz-adv-x="929" 
d="M774 903h-391q-49 0 -72 -14t-51 -55l-63 -97l-33 13l143 385h31q7 -80 59 -80h594v-23l-805 -778l162 -59q12 -4 42.5 -14.5t38.5 -13t29 -8.5t32 -7.5t28.5 -3t36.5 -1.5q78 0 134 44.5t102 148.5l36 -14q-67 -196 -131 -271t-178 -75q-56 0 -108.5 19t-145.5 69
l-174 102l-78 -186q-40 1 -59 19t-19 44q0 46 46 92zM821 1559h217l-2 -11l-364 -336h-35z" />
    <glyph glyph-name="Zdotaccent" unicode="&#x17b;" horiz-adv-x="1234" 
d="M223 68h447q32 0 58.5 3t54 15.5t46.5 21.5t48 36t46 44t53 61t56.5 70t67.5 87h49l-152 -406h-1038l6 33l1122 1337h-440q-27 0 -50 -3.5t-42 -8t-39.5 -18t-34.5 -22.5t-35 -34t-34 -40t-38 -52.5l-40 -60t-47 -72.5h-47l92 379h1014l-9 -35zM852 1556q-51 0 -85 34.5
t-34 84.5q0 54 38 92.5t91 38.5q51 0 85 -34t34 -84q0 -54 -38 -93t-91 -39z" />
    <glyph glyph-name="zdotaccent" unicode="&#x17c;" horiz-adv-x="929" 
d="M774 903h-391q-49 0 -72 -14t-51 -55l-63 -97l-33 13l143 385h31q7 -80 59 -80h594v-23l-805 -778l162 -59q12 -4 42.5 -14.5t38.5 -13t29 -8.5t32 -7.5t28.5 -3t36.5 -1.5q78 0 134 44.5t102 148.5l36 -14q-67 -196 -131 -271t-178 -75q-56 0 -108.5 19t-145.5 69
l-174 102l-78 -186q-40 1 -59 19t-19 44q0 46 46 92zM686 1251q-51 0 -85 34.5t-34 84.5q0 54 38 92.5t91 38.5q51 0 85 -34.5t34 -84.5q0 -54 -38 -92.5t-91 -38.5z" />
    <glyph glyph-name="Zcaron" unicode="&#x17d;" horiz-adv-x="1234" 
d="M223 68h447q32 0 58.5 3t54 15.5t46.5 21.5t48 36t46 44t53 61t56.5 70t67.5 87h49l-152 -406h-1038l6 33l1122 1337h-440q-27 0 -50 -3.5t-42 -8t-39.5 -18t-34.5 -22.5t-35 -34t-34 -40t-38 -52.5l-40 -60t-47 -72.5h-47l92 379h1014l-9 -35zM760 1538l-150 326h49
l195 -193l289 193h57l-301 -326h-139z" />
    <glyph glyph-name="zcaron" unicode="&#x17e;" horiz-adv-x="929" 
d="M774 903h-391q-49 0 -72 -14t-51 -55l-63 -97l-33 13l143 385h31q7 -80 59 -80h594v-23l-805 -778l162 -59q12 -4 42.5 -14.5t38.5 -13t29 -8.5t32 -7.5t28.5 -3t36.5 -1.5q78 0 134 44.5t102 148.5l36 -14q-67 -196 -131 -271t-178 -75q-56 0 -108.5 19t-145.5 69
l-174 102l-78 -186q-40 1 -59 19t-19 44q0 46 46 92zM590 1214l-150 355h49l195 -221l289 221h57l-301 -355h-139z" />
    <glyph glyph-name="florin" unicode="&#x192;" horiz-adv-x="962" 
d="M188 664l15 57h192l41 178q63 277 168.5 418t272.5 141q99 0 144.5 -37t45.5 -100q0 -98 -113 -131h-39q0 54 -2 85.5t-10 66.5t-26.5 51t-47.5 16q-91 0 -141 -221l-106 -467h215l-9 -57h-219l-94 -414q-64 -280 -169.5 -421.5t-272.5 -141.5q-96 0 -143.5 37.5
t-47.5 99.5q0 98 113 131h39q-19 -219 82 -219q52 0 85 48t54 142l168 738h-195z" />
    <glyph glyph-name="Aringacute" unicode="&#x1fa;" horiz-adv-x="1425" 
d="M1004 225l-56 279h-581l-168 -277q-41 -68 -41 -102q0 -36 40.5 -51.5t129.5 -18.5l-11 -55h-415l10 55q49 5 81.5 21t55.5 55l733 1194l-28 131h196l262 -1325q7 -38 33 -54.5t72 -21.5l-10 -55h-514l10 55q35 1 55 2.5t48 5.5t43.5 12t31 20.5t22.5 32t7 46.5
q0 24 -6 51zM809 1231l-403 -662h530zM1077 1683q0 -76 -51 -128t-125 -52q-72 0 -112.5 40.5t-40.5 105.5q0 76 51 128t125 52q72 0 112.5 -40.5t40.5 -105.5zM1014 1683q0 43 -24 67t-66 24q-53 0 -83 -35.5t-30 -89.5q0 -42 24 -66t66 -24q53 0 83 35.5t30 88.5z
M1055 2116h221l-2 -11l-287 -235h-35z" />
    <glyph glyph-name="aringacute" unicode="&#x1fb;" horiz-adv-x="1103" 
d="M848 1313q0 42 -24 66t-66 24q-53 0 -83 -35.5t-30 -89.5q0 -42 24 -66t66 -24q53 0 83 35.5t30 89.5zM909 1745h221l-2 -10l-286 -236h-35zM911 1313q0 -76 -51 -128t-125 -52q-72 0 -112.5 40t-40.5 105q0 76 51 128t125 52q72 0 112.5 -40t40.5 -105zM322 109
q126 0 270.5 223.5t238.5 591.5q-22 50 -63.5 77t-95.5 27q-116 0 -221 -111t-166.5 -284t-61.5 -354q0 -81 25 -125.5t74 -44.5zM637 119q0 46 25.5 156t54.5 192q-60 -133 -134.5 -241t-161.5 -177t-165 -69q-101 0 -156 79.5t-55 219.5q0 157 55 307.5t142.5 258.5
t199 174t220.5 66q66 0 113 -19.5t89 -61.5l148 98h41l-72 -230l-154 -634q-18 -70 -18 -91q0 -30 29 -30q59 0 184 153l31 -22q-98 -146 -164 -207t-135 -61q-57 0 -87 37t-30 102z" />
    <glyph glyph-name="AEacute" unicode="&#x1fc;" horiz-adv-x="2004" 
d="M1790 0h-1075l12 55q53 6 80.5 11t53 14t38 24.5t22 37.5t17.5 59l63 303h-536l-229 -277q-29 -36 -41.5 -57.5t-12.5 -44.5q0 -36 40.5 -51.5t129.5 -18.5l-10 -55h-440l10 55q48 5 85.5 26.5t84.5 76.5l979 1167q-42 37 -187 57l13 56h1184l-64 -342h-41
q-33 162 -83 218t-157 56h-346l-127 -594h306q63 0 104 44t80 141h55l-92 -437h-55q3 97 -20 141t-87 44h-305l-106 -502q-18 -80 22 -109.5t150 -29.5h168q54 0 99 15.5t94.5 55.5t95.5 91t118 139h49zM1188 1372l-668 -803h496zM1655 1843h229l-2 -10l-328 -295h-34z" />
    <glyph glyph-name="aeacute" unicode="&#x1fd;" horiz-adv-x="1464" 
d="M686 1085q147 0 238 -120q142 120 301 120q117 0 178 -55.5t61 -142.5q0 -55 -19.5 -103t-51 -84t-83 -68t-101.5 -54t-121 -44t-128.5 -36t-136.5 -31q-4 -58 -4 -86q0 -139 56.5 -217t156.5 -78q86 0 163 51.5t155 153.5l36 -27q-99 -145 -200 -214.5t-223 -69.5
q-145 0 -229.5 92t-92.5 247q-87 -152 -189.5 -245.5t-195.5 -93.5q-101 0 -156 79.5t-55 219.5q0 158 55.5 307.5t145 258t206 174.5t234.5 66zM322 109q72 0 157 81.5t166 231.5q13 137 73.5 267t153.5 226q-63 113 -186 113t-231 -111t-170 -283.5t-62 -354.5
q0 -81 25 -125.5t74 -44.5zM1188 1022q-84 0 -161.5 -75.5t-127.5 -190.5t-70 -246q242 56 355.5 146t113.5 241q0 54 -27 89.5t-83 35.5zM1108 1559h217l-2 -11l-365 -336h-34z" />
    <glyph glyph-name="Oslashacute" unicode="&#x1fe;" horiz-adv-x="1425" 
d="M1368 1444l-106 -135q72 -75 109.5 -181t37.5 -227q0 -127 -35.5 -257.5t-104.5 -249t-162 -211.5t-218.5 -148t-263.5 -55q-200 0 -336 102l-119 -150l-53 35l125 158q-150 153 -150 412q0 105 25.5 214.5t72 212t117 192.5t155.5 157t192.5 106t222.5 39
q202 0 337 -106l101 127zM877 1391q-106 0 -200.5 -53.5t-162 -141.5t-117 -199.5t-74 -230t-24.5 -229.5q0 -167 45 -283l784 989q-82 148 -251 148zM1202 901q0 160 -43 279l-784 -992q82 -141 250 -141q131 0 243.5 81.5t183.5 208.5t110.5 275t39.5 289zM1059 1843h229
l-2 -10l-328 -295h-34z" />
    <glyph glyph-name="oslashacute" unicode="&#x1ff;" horiz-adv-x="983" 
d="M369 -20q-136 0 -217 75l-86 -110l-46 35l95 118q-70 98 -70 258q0 97 27 200.5t79 197t120.5 168.5t158 119t184.5 44q134 0 215 -75l80 100l45 -35l-86 -108q70 -98 70 -258q0 -97 -27 -200.5t-79 -197t-120.5 -168.5t-158 -119t-184.5 -44zM389 37q99 0 186.5 114
t135 272t47.5 304q0 49 -6 92l-508 -649q37 -133 145 -133zM225 338q0 -34 4 -92l510 647q-38 135 -145 135q-99 0 -186.5 -114t-135 -272t-47.5 -304zM797 1559h217l-2 -11l-365 -336h-35z" />
    <glyph glyph-name="Scommaaccent" unicode="&#x218;" horiz-adv-x="1083" 
d="M981 426q0 -103 -43.5 -188.5t-116.5 -141t-166 -86t-194 -30.5q-148 0 -263.5 44t-177.5 103l54 342h53q9 -211 96.5 -317.5t249.5 -106.5q146 0 233 80.5t87 220.5q0 78 -29 132.5t-87 96.5t-167 95q-144 70 -214.5 157.5t-70.5 210.5q0 185 133 302.5t353 117.5
q228 0 383 -121l-58 -301h-51q-2 182 -68.5 269.5t-218.5 87.5q-134 0 -214.5 -82t-80.5 -209q0 -96 52.5 -157t175.5 -118q81 -37 140.5 -75t109 -86.5t75 -108.5t25.5 -131zM412 -305h-101q-67 14 -67 80q0 59 39.5 93t101.5 34q60 0 94.5 -35.5t34.5 -97.5
q0 -100 -78 -166t-221 -66l10 45q74 0 125.5 33.5t61.5 79.5z" />
    <glyph glyph-name="scommaaccent" unicode="&#x219;" horiz-adv-x="763" 
d="M360 55q81 0 122.5 41t41.5 117q0 42 -38 95t-92.5 107t-109 111t-92.5 125t-38 131q0 127 97 215t243 88q116 0 182.5 -47.5t66.5 -126.5q0 -38 -27 -67t-63 -45h-8q-80 209 -235 209q-68 0 -105 -39t-37 -105q0 -37 39 -89t94 -106.5t110.5 -112.5t94.5 -125.5
t39 -127.5q0 -145 -104 -234t-248 -89q-135 0 -219 62.5t-84 154.5q0 44 24 81t64 56h10q32 -127 102.5 -203t169.5 -76zM246 -305h-101q-67 14 -67 80q0 59 39.5 93t101.5 34q60 0 94.5 -35.5t34.5 -97.5q0 -100 -78 -166t-221 -66l10 45q74 0 125.5 33.5t61.5 79.5z" />
    <glyph glyph-name="uni0237" unicode="&#x237;" horiz-adv-x="491" 
d="M479 1085l-180 -802q-58 -259 -131.5 -416t-161 -224t-203.5 -67q-79 0 -128.5 34.5t-49.5 94.5q0 51 33 79.5t80 39.5h18q7 -85 41 -137t80 -52q38 0 63.5 28t51.5 102.5t59 220.5l209 923l-125 64l6 24l318 88h20z" />
    <glyph glyph-name="circumflex" unicode="&#x2c6;" 
d="M657 1567l150 -355h-49l-195 222l-289 -222h-57l301 355h139z" />
    <glyph glyph-name="caron" unicode="&#x2c7;" 
d="M367 1214l-150 355h49l195 -221l289 221h57l-301 -355h-139z" />
    <glyph glyph-name="breve" unicode="&#x2d8;" 
d="M455 1221q-121 0 -175 83t-20 242h59q-14 -105 27.5 -150.5t130.5 -45.5q185 0 240 196h59q-70 -325 -321 -325z" />
    <glyph glyph-name="dotaccent" unicode="&#x2d9;" 
d="M506 1251q-51 0 -85 34.5t-34 84.5q0 54 38 92.5t91 38.5q51 0 85 -34.5t34 -84.5q0 -54 -38 -92.5t-91 -38.5z" />
    <glyph glyph-name="ring" unicode="&#x2da;" 
d="M625 1354q0 45 -28 72.5t-73 27.5q-58 0 -91.5 -39.5t-33.5 -97.5q0 -45 28 -72.5t73 -27.5q58 0 91.5 39.5t33.5 97.5zM334 1317q0 83 55 138.5t135 55.5q78 0 122 -43t44 -114q0 -83 -55 -139t-135 -56q-78 0 -122 43.5t-44 114.5z" />
    <glyph glyph-name="ogonek" unicode="&#x2db;" 
d="M709 43l8 -20q-297 -123 -297 -267q0 -42 27.5 -67t72.5 -25q93 0 203 96l16 -20q-33 -36 -57 -58.5t-63 -52t-83 -44.5t-92 -15q-72 0 -116.5 36.5t-44.5 102.5q0 36 14 69.5t35 60t57.5 53t68 44.5t81.5 40t83.5 35t86.5 32z" />
    <glyph glyph-name="tilde" unicode="&#x2dc;" 
d="M616 1237q-34 0 -70.5 18t-63 39.5t-61 39.5t-65.5 18q-43 0 -76 -26t-75 -91l-35 20q74 137 121.5 184.5t116.5 47.5q34 0 70.5 -18t62.5 -39.5t60 -39.5t65 -18q44 0 78 27t73 90l37 -21q-74 -136 -121.5 -183.5t-116.5 -47.5z" />
    <glyph glyph-name="hungarumlaut" unicode="&#x2dd;" 
d="M381 1559h199l-2 -11l-390 -336h-38zM674 1559h198l-2 -11l-389 -336h-39z" />
    <glyph glyph-name="pi" unicode="&#x3c0;" horiz-adv-x="1290" 
d="M934 934h-397q-66 -314 -128.5 -523.5t-150.5 -410.5h-207l4 23q23 42 83 144.5t97 172t86 171t85 207.5t59 216h-240l33 151h1008l-68 -151h-164q-80 -301 -114.5 -475t-34.5 -279q0 -92 96 -92q51 0 100 12v-22q-120 -98 -227 -98q-71 0 -113.5 44t-42.5 117
q0 102 50.5 264.5t185.5 528.5z" />
    <glyph glyph-name="Wgrave" unicode="&#x1e80;" horiz-adv-x="1875" 
d="M1161 1212l107 -929l510 927q2 4 10 18.5t11 21.5t8.5 19t7.5 21.5t2 18.5q0 35 -35 52.5t-133 20.5l12 56h401l-12 -56q-37 -5 -54.5 -9.5t-41.5 -20.5t-39 -45l-737 -1325h-43l-103 870l-497 -870h-46l-190 1325q-4 37 -30 52.5t-74 22.5l12 56h508l-13 -56
q-120 -6 -163 -27.5t-43 -74.5q0 -36 4 -68l127 -938l391 691l-39 342q-4 37 -30.5 52.5t-74.5 22.5l13 56h489l-12 -56q-121 -6 -164 -27.5t-43 -74.5q0 -36 4 -68zM860 1843h215l94 -305h-34l-275 295v10z" />
    <glyph glyph-name="wgrave" unicode="&#x1e81;" horiz-adv-x="1396" 
d="M664 920l-121 53l8 24l270 88h6l58 -915l223 295q81 108 115 185.5t34 162.5q0 82 -52 122.5t-144 31.5v16q83 102 176 102q59 0 96.5 -27.5t50.5 -64t13 -82.5q0 -97 -55 -203.5t-181 -267.5l-360 -460h-64l-41 518l-397 -518h-63l-74 940l-121 53l8 24l270 88h7
l61 -907l303 397zM539 1559h204l123 -347h-35l-292 336v11z" />
    <glyph glyph-name="Wacute" unicode="&#x1e82;" horiz-adv-x="1875" 
d="M1161 1212l107 -929l510 927q2 4 10 18.5t11 21.5t8.5 19t7.5 21.5t2 18.5q0 35 -35 52.5t-133 20.5l12 56h401l-12 -56q-37 -5 -54.5 -9.5t-41.5 -20.5t-39 -45l-737 -1325h-43l-103 870l-497 -870h-46l-190 1325q-4 37 -30 52.5t-74 22.5l12 56h508l-13 -56
q-120 -6 -163 -27.5t-43 -74.5q0 -36 4 -68l127 -938l391 691l-39 342q-4 37 -30.5 52.5t-74.5 22.5l13 56h489l-12 -56q-121 -6 -164 -27.5t-43 -74.5q0 -36 4 -68zM1262 1843h229l-2 -10l-328 -295h-35z" />
    <glyph glyph-name="wacute" unicode="&#x1e83;" horiz-adv-x="1396" 
d="M664 920l-121 53l8 24l270 88h6l58 -915l223 295q81 108 115 185.5t34 162.5q0 82 -52 122.5t-144 31.5v16q83 102 176 102q59 0 96.5 -27.5t50.5 -64t13 -82.5q0 -97 -55 -203.5t-181 -267.5l-360 -460h-64l-41 518l-397 -518h-63l-74 940l-121 53l8 24l270 88h7
l61 -907l303 397zM971 1559h217l-2 -11l-365 -336h-35z" />
    <glyph glyph-name="Wdieresis" unicode="&#x1e84;" horiz-adv-x="1875" 
d="M1161 1212l107 -929l510 927q2 4 10 18.5t11 21.5t8.5 19t7.5 21.5t2 18.5q0 35 -35 52.5t-133 20.5l12 56h401l-12 -56q-37 -5 -54.5 -9.5t-41.5 -20.5t-39 -45l-737 -1325h-43l-103 870l-497 -870h-46l-190 1325q-4 37 -30 52.5t-74 22.5l12 56h508l-13 -56
q-120 -6 -163 -27.5t-43 -74.5q0 -36 4 -68l127 -938l391 691l-39 342q-4 37 -30.5 52.5t-74.5 22.5l13 56h489l-12 -56q-121 -6 -164 -27.5t-43 -74.5q0 -36 4 -68zM1360 1556q-52 0 -85.5 34t-33.5 85q0 54 38 92.5t91 38.5q52 0 85.5 -33.5t33.5 -84.5q0 -54 -38 -93
t-91 -39zM979 1556q-52 0 -85.5 34t-33.5 85q0 54 38 92.5t91 38.5q52 0 85.5 -33.5t33.5 -84.5q0 -54 -38 -93t-91 -39z" />
    <glyph glyph-name="wdieresis" unicode="&#x1e85;" horiz-adv-x="1396" 
d="M664 920l-121 53l8 24l270 88h6l58 -915l223 295q81 108 115 185.5t34 162.5q0 82 -52 122.5t-144 31.5v16q83 102 176 102q59 0 96.5 -27.5t50.5 -64t13 -82.5q0 -97 -55 -203.5t-181 -267.5l-360 -460h-64l-41 518l-397 -518h-63l-74 940l-121 53l8 24l270 88h7
l61 -907l303 397zM1020 1245q-52 0 -85.5 34t-33.5 85q0 54 38 92.5t91 38.5q52 0 85.5 -34t33.5 -85q0 -54 -38 -92.5t-91 -38.5zM680 1245q-52 0 -85.5 34t-33.5 85q0 54 38 92.5t91 38.5q52 0 85.5 -34t33.5 -85q0 -54 -38 -92.5t-91 -38.5z" />
    <glyph glyph-name="Ygrave" unicode="&#x1ef2;" horiz-adv-x="1271" 
d="M737 580l-80 -375q-7 -32 -8 -53.5t7 -37.5t19 -25.5t36 -16t49 -10t67 -7.5l-12 -55h-584l13 55q131 14 172 39t59 111l78 373l-254 729q-13 38 -36.5 53.5t-67.5 21.5l12 56h506l-13 -56q-119 -3 -159.5 -20.5t-40.5 -61.5q0 -25 18 -88l197 -550l430 548q57 77 57 107
q0 34 -36 48t-130 17l13 56h409l-12 -56q-46 -6 -77 -22.5t-60 -52.5zM612 1843h215l95 -305h-35l-275 295v10z" />
    <glyph glyph-name="ygrave" unicode="&#x1ef3;" horiz-adv-x="980" 
d="M164 920l-125 53l8 24l270 88h7l159 -1022q26 36 115 173q144 225 194 353.5t50 223.5q0 82 -52.5 122.5t-144.5 31.5v16q83 102 176 102q59 0 96.5 -27.5t50.5 -64t13 -82.5q0 -96 -79 -261t-259 -447q-124 -195 -229.5 -325t-188 -192.5t-143 -85t-123.5 -22.5
q-76 0 -129 39.5t-53 116.5q0 46 27.5 82.5t68.5 48.5h8q0 -82 39.5 -128t108.5 -46q78 0 148 37.5t169 154.5zM328 1559h204l123 -347h-34l-293 336v11z" />
    <glyph glyph-name="endash" unicode="&#x2013;" horiz-adv-x="1105" 
d="M1034 578h-983l19 73h983z" />
    <glyph glyph-name="emdash" unicode="&#x2014;" horiz-adv-x="1966" 
d="M1913 651l-19 -73h-1843l19 73h1843z" />
    <glyph glyph-name="quoteleft" unicode="&#x2018;" horiz-adv-x="405" 
d="M334 1331h61q41 -8 67.5 -37.5t26.5 -76.5q0 -56 -37 -90.5t-92 -34.5q-60 0 -98.5 41t-38.5 108q0 117 98.5 203t241.5 98v-47q-86 -13 -154.5 -58t-74.5 -106z" />
    <glyph glyph-name="quoteright" unicode="&#x2019;" horiz-adv-x="405" 
d="M416 1292h-62q-41 8 -67.5 38t-26.5 77q0 56 37 90.5t92 34.5q60 0 98.5 -41.5t38.5 -108.5q0 -117 -98.5 -203t-241.5 -98v47q86 13 155 58t75 106z" />
    <glyph glyph-name="quotesinglbase" unicode="&#x201a;" horiz-adv-x="405" 
d="M135 -2h-61q-41 8 -67.5 38t-26.5 77q0 56 37 90.5t92 34.5q60 0 98.5 -41.5t38.5 -108.5q0 -117 -98.5 -203t-241.5 -98v47q86 13 154.5 58t74.5 106z" />
    <glyph glyph-name="quotedblleft" unicode="&#x201c;" horiz-adv-x="729" 
d="M334 1331h61q41 -8 67.5 -37.5t26.5 -76.5q0 -56 -37 -90.5t-92 -34.5q-60 0 -98.5 41t-38.5 108q0 117 98.5 203t241.5 98v-47q-86 -13 -154.5 -58t-74.5 -106zM657 1331h62q41 -8 67.5 -37.5t26.5 -76.5q0 -56 -37 -90.5t-92 -34.5q-60 0 -98.5 41t-38.5 108
q0 117 98.5 203t241.5 98v-47q-86 -13 -155 -58t-75 -106z" />
    <glyph glyph-name="quotedblright" unicode="&#x201d;" horiz-adv-x="729" 
d="M739 1292h-61q-41 8 -67.5 38t-26.5 77q0 56 37 90.5t92 34.5q60 0 98.5 -41.5t38.5 -108.5q0 -117 -98.5 -203t-241.5 -98v47q86 13 154.5 58t74.5 106zM416 1292h-62q-41 8 -67.5 38t-26.5 77q0 56 37 90.5t92 34.5q60 0 98.5 -41.5t38.5 -108.5q0 -117 -98.5 -203
t-241.5 -98v47q86 13 155 58t75 106z" />
    <glyph glyph-name="quotedblbase" unicode="&#x201e;" horiz-adv-x="729" 
d="M459 -2h-62q-41 8 -67.5 38t-26.5 77q0 56 37 90.5t92 34.5q60 0 98.5 -41.5t38.5 -108.5q0 -117 -98.5 -203t-241.5 -98v47q86 13 155 58t75 106zM135 -2h-61q-41 8 -67.5 38t-26.5 77q0 56 37 90.5t92 34.5q60 0 98.5 -41.5t38.5 -108.5q0 -117 -98.5 -203t-241.5 -98
v47q86 13 154.5 58t74.5 106z" />
    <glyph glyph-name="dagger" unicode="&#x2020;" horiz-adv-x="720" 
d="M526 1219q-13 -63 -1.5 -113t44.5 -72l-4 -16q-90 -101 -215 -617h-24q93 513 47 617l4 16q42 22 75 72t46 113q-48 0 -124.5 -27t-111.5 -27q-30 0 -48.5 19t-18.5 47q0 29 24 49t60 20q35 0 106 -26.5t119 -26.5q7 47 5.5 73t-6.5 66.5t-5 61.5q0 104 77 104
q30 0 45 -18t15 -45q0 -31 -46.5 -114t-56.5 -128q48 0 124.5 26.5t111.5 26.5q30 0 49 -18.5t19 -46.5q0 -30 -24 -50t-60 -20q-35 0 -106.5 27t-119.5 27z" />
    <glyph glyph-name="daggerdbl" unicode="&#x2021;" horiz-adv-x="720" 
d="M416 705q48 0 124 26.5t111 26.5q30 0 49 -19t19 -47q0 -29 -24 -49t-60 -20q-35 0 -106 26.5t-119 26.5q-7 -43 1.5 -98.5t8.5 -77.5q0 -46 -20.5 -72.5t-57.5 -26.5q-30 0 -44.5 18.5t-14.5 45.5q0 31 44.5 100.5t53.5 110.5q-48 0 -124.5 -26.5t-111.5 -26.5
q-30 0 -48.5 18.5t-18.5 46.5q0 30 24 50t60 20q35 0 106 -26.5t119 -26.5q11 59 -2 91t-49 56l4 16q37 9 68.5 43t37.5 66q6 33 -10.5 66t-50.5 42l4 17q46 24 73 56t40 91q-48 0 -124.5 -26.5t-111.5 -26.5q-30 0 -48.5 19t-18.5 47q0 29 24 49t60 20q35 0 106 -26.5
t119 -26.5q7 43 -1.5 98.5t-8.5 77.5q0 46 20 72t57 26q30 0 45 -18t15 -45q0 -31 -44.5 -100.5t-53.5 -110.5q48 0 124 26.5t111 26.5q30 0 49 -18.5t19 -46.5q0 -30 -24 -50t-60 -20q-35 0 -106.5 26.5t-119.5 26.5q-12 -58 1.5 -90t50.5 -57l-4 -17q-37 -9 -69 -42.5
t-38 -65.5q-6 -33 11 -66.5t50 -42.5l-4 -16q-47 -25 -74 -57t-38 -90z" />
    <glyph glyph-name="bullet" unicode="&#x2022;" horiz-adv-x="622" 
d="M61 616q0 103 73.5 176.5t176.5 73.5t176.5 -73.5t73.5 -176.5t-73.5 -176t-176.5 -73t-176.5 73t-73.5 176z" />
    <glyph glyph-name="ellipsis" unicode="&#x2026;" horiz-adv-x="1187" 
d="M-31 121q0 58 41.5 99.5t100.5 41.5t100 -41t41 -100t-41 -100t-100 -41t-100.5 41.5t-41.5 99.5zM358 121q0 58 41.5 99.5t100.5 41.5q58 0 99.5 -41t41.5 -100t-41.5 -100t-99.5 -41q-59 0 -100.5 41.5t-41.5 99.5zM748 121q0 59 41 100t100 41t100 -41t41 -100
t-41 -100t-100 -41t-100 41t-41 100z" />
    <glyph glyph-name="perthousand" unicode="&#x2030;" horiz-adv-x="2179" 
d="M496 1458q123 0 202.5 -81.5t79.5 -213.5q0 -86 -31 -160t-81.5 -122.5t-114 -75.5t-129.5 -27q-123 0 -203 81.5t-80 213.5q0 114 53.5 204t134 135.5t169.5 45.5zM496 1407q-67 0 -118.5 -58t-76.5 -142t-25 -175q0 -94 32 -148.5t114 -54.5q67 0 118.5 58t76 142
t24.5 175q0 94 -31.5 148.5t-113.5 54.5zM1030 -20q-123 0 -202.5 81t-79.5 213q0 86 31 160t81.5 122.5t114 75.5t129.5 27q123 0 202.5 -81t79.5 -213q0 -86 -31 -160t-81.5 -122.5t-114 -75.5t-129.5 -27zM1415 1458l-1222 -1478h-82l1222 1478h82zM1030 31
q67 0 118.5 58t76 142t24.5 175q0 94 -31.5 148t-113.5 54q-67 0 -118.5 -58t-76 -142t-24.5 -175q0 -94 31.5 -148t113.5 -54zM1735 -20q-123 0 -203 81t-80 213q0 86 31 160t81.5 122.5t114 75.5t129.5 27q123 0 203 -81t80 -213q0 -86 -31 -160t-81.5 -122.5t-114 -75.5
t-129.5 -27zM1735 31q67 0 118.5 58t76 142t24.5 175q0 93 -32 147.5t-114 54.5q-67 0 -118.5 -58t-76 -142t-24.5 -175q0 -93 32 -147.5t114 -54.5z" />
    <glyph glyph-name="guilsinglleft" unicode="&#x2039;" horiz-adv-x="589" 
d="M84 555l2 12l477 394h58l-345 -400l170 -399h-57z" />
    <glyph glyph-name="guilsinglright" unicode="&#x203a;" horiz-adv-x="589" 
d="M522 567l-2 -12l-477 -393h-57l344 399l-170 400h57z" />
    <glyph glyph-name="fraction" unicode="&#x2044;" horiz-adv-x="579" 
d="M-326 -20l1223 1478h82l-1223 -1478h-82z" />
    <glyph glyph-name="Euro" unicode="&#x20ac;" horiz-adv-x="1273" 
d="M948 1458q230 0 367 -121l-53 -299h-60q3 173 -61.5 263t-192.5 90q-92 0 -173.5 -42t-143 -116t-107 -164t-75.5 -195h581l-41 -63h-557q-16 -76 -26 -168h489l-41 -63h-453v-39q0 -240 68 -368t203 -128q146 0 246 98.5t182 309.5h65l-90 -365q-189 -111 -403 -111
q-228 0 -349.5 151t-121.5 413v39h-176l16 63h164q8 76 35 168h-166l16 63h170q57 161 155.5 291t238.5 211.5t294 81.5z" />
    <glyph glyph-name="uni2117" unicode="&#x2117;" horiz-adv-x="1630" 
d="M877 655h-103l-49 -221q-10 -48 16 -64t107 -18l-8 -37h-391l8 37q63 2 90.5 17t38.5 65l129 574q10 48 -11.5 64.5t-78.5 19.5l8 36h338q131 0 198.5 -58t67.5 -155q0 -114 -96.5 -187t-263.5 -73zM868 1079l-86 -374h74q100 0 167 50.5t67 155.5q0 77 -39 122.5
t-121 45.5h-62zM803 -20q-148 0 -277 53t-218.5 144t-141 218t-51.5 271q0 163 60.5 309.5t164 252.5t248.5 168t307 62q148 0 277 -53t218.5 -144t141 -218t51.5 -271q0 -163 -60.5 -309.5t-164 -252.5t-248.5 -168t-307 -62zM803 20q206 0 375.5 100t266.5 272.5t97 379.5
q0 182 -82 329t-230.5 231.5t-334.5 84.5q-206 0 -375.5 -99.5t-266.5 -272t-97 -379.5q0 -182 82 -329.5t230.5 -232t334.5 -84.5z" />
    <glyph glyph-name="trademark" unicode="&#x2122;" horiz-adv-x="1693" 
d="M289 1438h590l-27 -201h-41q-3 12 -9 35.5t-8.5 33t-8 26t-10 23t-12.5 16.5t-17 14t-21.5 7t-28.5 3h-53l-115 -527q-10 -43 8.5 -54.5t79.5 -16.5l-8 -39h-338l9 39q54 3 80.5 15t33.5 46l117 537h-53q-16 0 -30 -3t-24.5 -6.5t-23 -14t-19.5 -16.5t-20.5 -24t-19 -26
t-22.5 -32.5t-24 -35.5h-43zM1262 946l235 434q16 27 27 58h205l-9 -39q-45 -3 -67 -15.5t-29 -40.5l-25 -497q-1 -27 14.5 -36.5t57.5 -12.5l-8 -39h-301l8 39q70 3 88 22t21 94l18 363l-283 -518h-43l-77 518l-131 -377q-23 -57 -11.5 -77.5t78.5 -24.5l-8 -39h-236l9 39
q74 3 90 49l174 495q0 30 -14 42.5t-58 15.5l8 39h201q0 -44 2 -58z" />
    <glyph glyph-name="Omega" unicode="&#x2126;" horiz-adv-x="1525" 
d="M948 1405q-98 0 -183.5 -53t-144.5 -138.5t-102 -192t-63.5 -213t-20.5 -202.5q0 -162 46 -277.5t114 -185.5l-29 -143h-504l23 356h33q17 -54 28 -84t27.5 -57.5t31 -39t42.5 -20.5t57.5 -10.5t79.5 -1.5h141q-45 26 -92 73t-93.5 115t-76 163.5t-29.5 199.5
q0 114 34 225.5t98.5 208t151.5 171t199.5 117t235.5 42.5q209 0 340 -129t131 -356q0 -165 -81.5 -329.5t-213 -292t-292.5 -208.5h141q60 0 95 4t67 14t61 37t57.5 60.5t75.5 97.5h43l-125 -356h-514l29 143q196 146 321 394t125 491q0 377 -264 377z" />
    <glyph glyph-name="uni2153" unicode="&#x2153;" horiz-adv-x="1636" 
d="M205 -20l1222 1478h82l-1222 -1478h-82zM563 1458h41l-143 -678q-13 -63 16 -80t135 -22l-10 -47h-500l11 47q108 6 142.5 21.5t45.5 74.5l105 498h-179l9 35l43 8q107 21 167 48.5t117 94.5zM1278 459q93 -12 148 -65t55 -136q0 -68 -29 -123t-77 -88t-105 -50t-117 -17
q-131 0 -196.5 50.5t-65.5 119.5q0 68 74 98h79q-12 -46 -12 -88q0 -58 31 -96.5t90 -38.5q79 0 128.5 53.5t49.5 144.5q0 78 -39 126t-110 48q-26 0 -70 -6l-6 33q252 81 252 207q0 43 -26 69.5t-77 26.5q-102 0 -202 -100l-27 24q47 82 121.5 130t171.5 48q91 0 142.5 -42
t51.5 -113q0 -45 -22 -82.5t-59 -63t-74 -41.5t-80 -28z" />
    <glyph glyph-name="uni2154" unicode="&#x2154;" horiz-adv-x="1660" 
d="M229 -20l1223 1478h82l-1223 -1478h-82zM1303 459q93 -12 147.5 -65t54.5 -136q0 -68 -29 -123t-76.5 -88t-104.5 -50t-117 -17q-131 0 -197 50.5t-66 119.5q0 68 74 98h80q-12 -46 -12 -88q0 -58 31 -96.5t90 -38.5q79 0 128.5 53.5t49.5 144.5q0 78 -39.5 126
t-110.5 48q-26 0 -69 -6l-7 33q252 81 252 207q0 43 -26 69.5t-76 26.5q-103 0 -203 -100l-26 24q47 82 121 130t171 48q91 0 143 -42t52 -113q0 -45 -22 -82.5t-59 -63t-74 -41.5t-80 -28zM295 766h192q77 0 113.5 21t95.5 102h37l-96 -258h-547l6 26q159 132 253.5 219.5
t145 153t65.5 108.5t15 97t-35.5 87.5t-95.5 33.5q-109 0 -206 -109l-21 27q44 75 124 128.5t175 53.5q99 0 158 -53.5t59 -145.5q0 -46 -15.5 -87.5t-39 -73.5t-68.5 -73.5t-84.5 -72.5t-109 -85.5t-121.5 -98.5z" />
    <glyph glyph-name="uni215B" unicode="&#x215b;" horiz-adv-x="1689" 
d="M1567 645q0 -153 -217 -192q166 -84 166 -220q0 -118 -83.5 -185.5t-218.5 -67.5q-126 0 -208 61.5t-82 151.5q0 85 67 139.5t166 79.5q-52 27 -84.5 77.5t-32.5 110.5q0 99 77 164t196 65q114 0 184 -52.5t70 -131.5zM1294 332l-110 65q-67 -29 -100 -83t-33 -115
q0 -75 44 -124.5t119 -49.5q77 0 126 45.5t49 117.5q0 88 -95 144zM1249 514l76 -47q123 72 123 184q0 56 -36 92.5t-99 36.5q-66 0 -107 -38.5t-41 -102.5q0 -40 19 -68.5t65 -56.5zM205 -20l1222 1478h82l-1222 -1478h-82zM563 1458h41l-143 -678q-13 -63 16 -80t135 -22
l-10 -47h-500l11 47q108 6 142.5 21.5t45.5 74.5l105 498h-179l9 35l43 8q107 21 167 48.5t117 94.5z" />
    <glyph glyph-name="uni215C" unicode="&#x215c;" horiz-adv-x="1689" 
d="M504 1087q93 -12 148 -64.5t55 -135.5q0 -68 -29 -123t-77 -88t-105 -50.5t-117 -17.5q-131 0 -196.5 50.5t-65.5 119.5q0 33 19.5 59t53.5 40h80q-12 -47 -12 -89q0 -58 31 -96.5t90 -38.5q79 0 128.5 54t49.5 145q0 78 -39 126t-110 48q-26 0 -70 -6l-6 33
q252 81 252 207q0 43 -26 69.5t-77 26.5q-101 0 -202 -101l-27 25q47 82 121.5 130t171.5 48q91 0 142.5 -42t51.5 -113q0 -45 -22 -83t-59 -63.5t-74.5 -42t-79.5 -27.5zM1567 645q0 -153 -217 -192q166 -84 166 -220q0 -118 -83.5 -185.5t-218.5 -67.5q-126 0 -208 61.5
t-82 151.5q0 85 67 139.5t166 79.5q-52 27 -84.5 77.5t-32.5 110.5q0 99 77 164t196 65q114 0 184 -52.5t70 -131.5zM1294 332l-110 65q-67 -29 -100 -83t-33 -115q0 -75 44 -124.5t119 -49.5q77 0 126 45.5t49 117.5q0 88 -95 144zM1249 514l76 -47q123 72 123 184
q0 56 -36 92.5t-99 36.5q-66 0 -107 -38.5t-41 -102.5q0 -40 19 -68.5t65 -56.5zM205 -20l1222 1478h82l-1222 -1478h-82z" />
    <glyph glyph-name="uni215D" unicode="&#x215d;" horiz-adv-x="1669" 
d="M373 1438h260q43 0 62.5 8.5t39.5 36.5h43l-67 -191h-326l-49 -141q154 -5 251 -70.5t97 -187.5q0 -127 -86 -207t-215 -80q-125 0 -192.5 43.5t-67.5 114.5q0 39 20.5 69t53.5 46h77q-18 -49 -18 -95q0 -59 34 -95t93 -36q79 0 124.5 49t45.5 134q0 101 -85 151.5
t-230 50.5zM1546 645q0 -153 -217 -192q166 -84 166 -220q0 -118 -83 -185.5t-218 -67.5q-126 0 -208.5 61.5t-82.5 151.5q0 85 67.5 139.5t166.5 79.5q-52 27 -84.5 77.5t-32.5 110.5q0 99 76.5 164t195.5 65q114 0 184 -52.5t70 -131.5zM1274 332l-111 65
q-67 -29 -100 -83t-33 -115q0 -75 44.5 -124.5t119.5 -49.5q77 0 125.5 45.5t48.5 117.5q0 88 -94 144zM1229 514l76 -47q122 71 122 184q0 56 -36 92.5t-99 36.5q-66 0 -106.5 -38.5t-40.5 -102.5q0 -40 19 -68.5t65 -56.5zM184 -20l1223 1478h82l-1223 -1478h-82z" />
    <glyph glyph-name="uni215E" unicode="&#x215e;" horiz-adv-x="1536" 
d="M729 1288h-336q-43 0 -74.5 -30t-72.5 -101h-51l116 281h580l-6 -25l-568 -805h-120zM1413 645q0 -153 -217 -192q166 -84 166 -220q0 -118 -83 -185.5t-218 -67.5q-126 0 -208.5 61.5t-82.5 151.5q0 85 67.5 139.5t166.5 79.5q-52 27 -84.5 77.5t-32.5 110.5
q0 99 76.5 164t195.5 65q114 0 184 -52.5t70 -131.5zM1141 332l-111 65q-67 -29 -100 -83t-33 -115q0 -75 44.5 -124.5t119.5 -49.5q77 0 125.5 45.5t48.5 117.5q0 88 -94 144zM1096 514l75 -47q123 72 123 184q0 56 -36 92.5t-99 36.5q-66 0 -106.5 -38.5t-40.5 -102.5
q0 -40 19 -68.5t65 -56.5zM51 -20l1223 1478h82l-1223 -1478h-82z" />
    <glyph glyph-name="partialdiff" unicode="&#x2202;" horiz-adv-x="1069" 
d="M631 1085q78 0 137 -36q-39 152 -140 275t-286 218l29 35q293 -111 457.5 -333.5t164.5 -520.5q0 -110 -26.5 -218.5t-77 -202.5t-118 -166.5t-157 -114t-186.5 -41.5q-162 0 -257 108.5t-95 302.5q0 101 26.5 202.5t76.5 189t117 155.5t154 107.5t181 39.5zM801 743
q0 112 -19 236q-51 43 -137 43q-67 0 -127.5 -42.5t-105 -113t-78 -159t-50 -183t-16.5 -182.5q0 -135 44.5 -217t121.5 -82q64 0 123.5 44.5t102.5 118t75.5 165t49 188t16.5 184.5z" />
    <glyph glyph-name="Delta" unicode="&#x2206;" horiz-adv-x="1368" 
d="M1192 0h-1233l12 63l856 1375h97l280 -1375zM776 1229l-715 -1159h932z" />
    <glyph glyph-name="product" unicode="&#x220f;" horiz-adv-x="1488" 
d="M1249 1372h-667l-336 -1575q-7 -30 -8.5 -50t4 -35.5t14 -24t30.5 -16t44.5 -11t64.5 -8.5l-10 -55h-551l10 55q120 14 155.5 37t53.5 108l307 1440q7 30 8.5 50t-4 35.5t-14 24t-30.5 16t-44.5 11t-64.5 8.5l12 56h1413l-12 -56q-44 -5 -68.5 -8.5t-49.5 -11t-37 -16
t-24.5 -24t-18.5 -35t-13 -50.5l-307 -1440q-7 -30 -8.5 -50t4 -35.5t14 -24t30.5 -16t44.5 -11t64.5 -8.5l-10 -55h-553l10 55q44 5 68.5 8.5t49.5 11t37 16t24.5 24t18.5 35t13 50.5z" />
    <glyph glyph-name="summation" unicode="&#x2211;" horiz-adv-x="1169" 
d="M23 -233h481q57 0 90 1.5t70 10t60.5 21.5t56 40.5t62.5 61.5t75 90h38l-143 -395h-999l10 53l817 835l-430 891l14 62h985l-73 -342h-33q-12 60 -22.5 98t-28.5 76t-42 58.5t-60 33t-85 12.5h-446l385 -805l-4 -12z" />
    <glyph glyph-name="minus" unicode="&#x2212;" horiz-adv-x="1155" 
d="M143 707l23 106h897l-23 -106h-897z" />
    <glyph glyph-name="radical" unicode="&#x221a;" horiz-adv-x="1140" 
d="M506 256l694 1202h84l-844 -1458h-102l-74 911q-5 64 -25 87.5t-81 23.5h-56l13 63h346z" />
    <glyph glyph-name="infinity" unicode="&#x221e;" horiz-adv-x="1419" 
d="M690 725l-63 90q-91 129 -207 129q-101 0 -168.5 -73t-67.5 -197q0 -78 47 -127t113 -49q71 0 122.5 28.5t119.5 96.5zM774 715l62 -86q48 -68 96 -98.5t110 -30.5q101 0 168.5 73t67.5 197q0 78 -47 127t-113 49q-70 0 -120.5 -30t-123.5 -103zM725 659l-86 -86
q-74 -74 -140.5 -109.5t-142.5 -35.5q-112 0 -182 66.5t-70 185.5q0 145 94.5 239.5t235.5 94.5q82 0 140 -37.5t112 -116.5l53 -80l86 86q76 76 141 113t140 37q112 0 182 -66.5t70 -185.5q0 -145 -94.5 -239.5t-235.5 -94.5q-83 0 -140 36.5t-112 117.5z" />
    <glyph glyph-name="integral" unicode="&#x222b;" horiz-adv-x="851" 
d="M539 987l-191 -897q-52 -241 -155.5 -366t-276.5 -125q-80 0 -128 38t-48 105q0 40 26 69.5t72 43.5h39q3 -50 6.5 -80.5t12.5 -63t26.5 -48t44.5 -15.5q63 0 96 81t89 341l192 895q51 241 154.5 367t271.5 126q85 0 133.5 -38.5t48.5 -106.5q0 -40 -26 -69.5t-72 -43.5
h-39q-3 49 -7 80.5t-13.5 64t-28.5 48.5t-47 16q-60 0 -92 -80.5t-88 -341.5z" />
    <glyph glyph-name="approxequal" unicode="&#x2248;" horiz-adv-x="1175" 
d="M176 817l23 107q144 82 260 82q78 0 197 -40t196 -40q120 0 262 82l-22 -107q-142 -82 -263 -82q-77 0 -196 40t-197 40q-116 0 -260 -82zM115 524l22 105q139 82 258 82q78 0 197 -39t196 -39q125 0 263 80l-23 -107q-138 -80 -262 -80q-77 0 -196 39t-197 39
q-118 0 -258 -80z" />
    <glyph glyph-name="notequal" unicode="&#x2260;" horiz-adv-x="1175" 
d="M184 852l23 102h541l217 222h116l-217 -222h240l-23 -102h-317l-182 -186h460l-22 -101h-537l-217 -223h-116l217 223h-244l22 101h320l182 186h-463z" />
    <glyph glyph-name="lessequal" unicode="&#x2264;" horiz-adv-x="886" 
d="M166 819l2 17l709 340l-29 -123l-490 -232l392 -231l-23 -111zM53 295l23 104h635l-23 -104h-635z" />
    <glyph glyph-name="greaterequal" unicode="&#x2265;" horiz-adv-x="886" 
d="M825 836l-2 -17l-708 -340l24 123l490 232l-391 231l26 111zM733 399l-22 -104h-635l22 104h635z" />
    <glyph glyph-name="lozenge" unicode="&#x25ca;" horiz-adv-x="1116" 
d="M449 55l532 674l-252 653l-532 -673zM500 0h-105l-282 719l565 719h104l283 -719z" />
    <glyph glyph-name="i.dot" horiz-adv-x="557" 
d="M96 295l156 614l-125 64l6 24l322 88h20l-213 -847q-18 -70 -18 -91q0 -30 28 -30q60 0 185 153l30 -22q-98 -146 -164 -207t-135 -61q-58 0 -89 37.5t-31 101.5q0 67 28 176zM444 1251q-51 0 -84.5 34.5t-33.5 84.5q0 54 38 92.5t91 38.5q51 0 84.5 -34.5t33.5 -84.5
q0 -54 -38 -92.5t-91 -38.5z" />
    <glyph glyph-name="space_uni0326" 
d="M559 -305h-100q-35 7 -51.5 29t-16.5 51q0 59 39.5 93t101.5 34q60 0 95 -36t35 -97q0 -100 -78.5 -166t-221.5 -66l11 45q74 0 125 33.5t61 79.5z" />
    <glyph glyph-name="space_uni0326.alt" 
d="M465 1450h100q35 -7 51.5 -29t16.5 -51q0 -59 -39.5 -93t-101.5 -34q-60 0 -95 36t-35 97q0 100 78.5 166t221.5 66l-11 -45q-74 0 -125 -33.5t-61 -79.5z" />
    <glyph glyph-name="space_dotbelowcomb" 
d="M506 -346q-51 0 -85 34.5t-34 84.5q0 54 38 92.5t91 38.5q51 0 85 -34.5t34 -84.5q0 -54 -38 -92.5t-91 -38.5z" />
    <glyph glyph-name="caron.Slovak" 
d="M672 1593l-301 -409h-23l131 420h195z" />
    <glyph glyph-name="cedilla.alt" 
d="M453 -98h34q99 0 157 -36.5t58 -105.5q0 -104 -101 -158.5t-269 -54.5l-13 54q123 0 192 31t69 83q0 80 -183 86z" />
    <glyph glyph-name="grave.cap" 
d="M348 1843h215l94 -305h-34l-275 295v10z" />
    <glyph glyph-name="acute.cap" 
d="M483 1843h230l-2 -10l-328 -295h-35z" />
    <glyph glyph-name="circumflex.cap" 
d="M657 1864l150 -326h-49l-195 193l-289 -193h-57l301 326h139z" />
    <glyph glyph-name="tilde.cap" 
d="M616 1544q-34 0 -70.5 18t-63 39.5t-61 39.5t-65.5 18q-43 0 -76 -26t-75 -91l-35 21q74 136 121.5 183.5t116.5 47.5q34 0 70.5 -18t62.5 -39.5t60 -39.5t65 -18q44 0 78 27t73 90l37 -20q-74 -137 -121.5 -184.5t-116.5 -47.5z" />
    <glyph glyph-name="macron.cap" 
d="M223 1583l21 100h555l-21 -100h-555z" />
    <glyph glyph-name="breve.cap" 
d="M455 1532q-123 0 -181 81.5t-24 239.5h59q-26 -192 168 -192q196 0 250 192h59q-69 -321 -331 -321z" />
    <glyph glyph-name="dotaccent.cap" 
d="M506 1556q-51 0 -85 34.5t-34 84.5q0 54 38 92.5t91 38.5q51 0 85 -34t34 -84q0 -54 -38 -93t-91 -39z" />
    <glyph glyph-name="dieresis.cap" 
d="M315 1556q-52 0 -85 34t-33 85q0 54 38 92.5t91 38.5q52 0 85 -33.5t33 -84.5q0 -54 -38 -93t-91 -39zM696 1556q-52 0 -85 34t-33 85q0 54 38 92.5t91 38.5q52 0 85 -33.5t33 -84.5q0 -54 -38 -93t-91 -39z" />
    <glyph glyph-name="ring.cap" 
d="M625 1698q0 45 -28 72.5t-73 27.5q-58 0 -91.5 -39.5t-33.5 -97.5q0 -45 28 -72.5t73 -27.5q58 0 91.5 39.5t33.5 97.5zM334 1661q0 83 55 138.5t135 55.5q78 0 122 -43t44 -114q0 -83 -55 -139t-135 -56q-78 0 -122 43.5t-44 114.5z" />
    <glyph glyph-name="hungarumlaut.cap" 
d="M365 1843h215l-2 -10l-349 -295h-39zM657 1843h215l-2 -10l-348 -295h-39z" />
    <glyph glyph-name="caron.cap" 
d="M367 1538l-150 326h49l195 -193l289 193h57l-301 -326h-139z" />
    <glyph glyph-name="exclamdown.cap" horiz-adv-x="487" 
d="M4 0l350 1022h31l-133 -1022h-248zM565 1317q0 -59 -41.5 -100t-99.5 -41t-99.5 41t-41.5 100t41.5 100t99.5 41t99.5 -41t41.5 -100z" />
    <glyph glyph-name="questiondown.cap" horiz-adv-x="901" 
d="M412 532q-58 -33 -94.5 -60t-68.5 -63t-46.5 -80t-14.5 -100q0 -91 52 -146.5t147 -55.5q92 0 145.5 59.5t53.5 163.5q0 43 -11 98h144q21 -16 35 -48t14 -69q0 -114 -106.5 -182.5t-274.5 -68.5q-170 0 -271.5 85t-101.5 226q0 57 15.5 105t39 83t66 70t81 59t99.5 58
t101 61.5t77.5 63t55.5 77t18 90.5q0 26 -16 84h33q80 -80 80 -192q0 -100 -62 -172t-190 -146zM797 1317q0 -58 -41.5 -99.5t-100.5 -41.5t-100 41t-41 100t41 100t100 41t100.5 -41.5t41.5 -99.5z" />
    <glyph glyph-name="guilsinglleft.cap" horiz-adv-x="589" 
d="M115 729l2 12l477 394h57l-344 -400l170 -399h-57z" />
    <glyph glyph-name="guilsinglright.cap" horiz-adv-x="589" 
d="M553 741l-2 -12l-477 -393h-58l344 399l-170 400h58z" />
    <glyph glyph-name="guillemotleft.cap" horiz-adv-x="903" 
d="M115 729l2 12l477 394h57l-344 -400l170 -399h-57zM428 729l2 12l477 394h58l-344 -400l170 -399h-58z" />
    <glyph glyph-name="guillemotright.cap" horiz-adv-x="903" 
d="M866 741l-2 -12l-477 -393h-57l344 399l-170 400h57zM553 741l-2 -12l-477 -393h-58l344 399l-170 400h58z" />
    <glyph glyph-name="slash.cap" horiz-adv-x="770" 
d="M930 1577l-967 -1784h-84l967 1784h84z" />
    <glyph glyph-name="backslash.cap" horiz-adv-x="770" 
d="M500 -207l-209 1784h74l208 -1784h-73z" />
    <glyph glyph-name="bar.cap" horiz-adv-x="444" 
d="M489 1577l-378 -1784h-76l379 1784h75z" />
    <glyph glyph-name="brokenbar.cap" horiz-adv-x="444" 
d="M492 1577l-162 -760h-76l162 760h76zM274 553l-161 -760h-76l162 760h75z" />
    <glyph glyph-name="periodcentered.cap" horiz-adv-x="421" 
d="M90 741q0 63 43.5 106.5t106.5 43.5t106 -43.5t43 -106.5t-43 -106t-106 -43t-106.5 43t-43.5 106z" />
    <glyph glyph-name="bullet.cap" horiz-adv-x="622" 
d="M90 739q0 103 73.5 176.5t176.5 73.5t176.5 -73.5t73.5 -176.5t-73.5 -176.5t-176.5 -73.5t-176.5 73.5t-73.5 176.5z" />
    <glyph glyph-name="hyphen.cap" horiz-adv-x="655" 
d="M610 692h-532l20 92h533z" />
    <glyph glyph-name="endash.cap" horiz-adv-x="1105" 
d="M1063 700h-983l18 74h983z" />
    <glyph glyph-name="emdash.cap" horiz-adv-x="1966" 
d="M1942 774l-19 -74h-1843l18 74h1844z" />
    <glyph glyph-name="parenleft.cap" horiz-adv-x="692" 
d="M152 455q0 161 49.5 319.5t139.5 299.5t205.5 265.5t258.5 237.5h80q-142 -114 -254.5 -267.5t-180.5 -311t-103.5 -309.5t-35.5 -283q0 -191 40.5 -341t135.5 -274h-79q-256 306 -256 664z" />
    <glyph glyph-name="parenright.cap" horiz-adv-x="692" 
d="M600 913q0 -161 -49.5 -319.5t-139.5 -299.5t-205.5 -265.5t-258.5 -237.5h-80q141 114 254 267.5t181 311.5t103 309.5t35 283.5q0 191 -40.5 340.5t-135.5 273.5h80q256 -306 256 -664z" />
    <glyph glyph-name="bracketleft.cap" horiz-adv-x="638" 
d="M530 1401l-303 -1432q-4 -20 -4.5 -35.5t4.5 -27t11.5 -20t22 -15t29 -10t39.5 -7t46.5 -5t56.5 -3.5l-10 -53h-373l377 1784h373l-11 -53q-50 -3 -76 -5.5t-58.5 -7.5t-49 -12.5t-33.5 -20.5t-26 -32t-15 -45z" />
    <glyph glyph-name="bracketright.cap" horiz-adv-x="638" 
d="M193 -31l305 1432q4 20 4.5 35.5t-4.5 27t-11.5 20t-22 15t-29 10t-39.5 7t-46.5 5t-56.5 3.5l10 53h373l-379 -1784h-373l10 53q50 3 76 5.5t59 7.5t49 12.5t33.5 20.5t26.5 32t15 45z" />
    <glyph glyph-name="braceleft.cap" horiz-adv-x="698" 
d="M162 676l6 20q175 34 213 205l88 414q26 120 133.5 191t255.5 71l-8 -43q-95 -9 -151.5 -55.5t-77.5 -145.5l-91 -418q-21 -99 -79.5 -147.5t-176.5 -81.5q104 -33 142.5 -81.5t17.5 -147.5l-90 -418q-21 -99 15.5 -145.5t127.5 -55.5l-8 -43q-148 0 -226 71t-52 191
l88 414q38 170 -127 205z" />
    <glyph glyph-name="braceright.cap" horiz-adv-x="698" 
d="M623 696l-7 -20q-175 -34 -213 -205l-88 -414q-26 -120 -133.5 -191t-255.5 -71l8 43q95 9 152 55.5t78 145.5l90 418q21 99 79.5 147.5t176.5 81.5q-104 33 -142.5 81.5t-17.5 147.5l90 418q21 99 -15.5 145.5t-127.5 55.5l8 43q149 0 227 -71t52 -191l-88 -414
q-38 -170 127 -205z" />
    <glyph glyph-name="at.cap" horiz-adv-x="1734" 
d="M1229 268q-99 0 -152 48t-59 131.5t20 195.5q-166 -373 -362 -373q-88 0 -139.5 67.5t-51.5 190.5q0 148 75 291t196.5 233.5t249.5 90.5q109 0 182 -70l139 76h29l-62 -176l-125 -420q-56 -227 70 -227q85 0 152.5 50.5t107.5 133.5t61 180.5t21 200.5q0 265 -141.5 420
t-413.5 155q-140 0 -265.5 -50t-219 -137t-161.5 -201.5t-103 -247t-35 -269.5q0 -280 169 -450t451 -170q171 0 293 34t266 115l19 -29q-110 -88 -268.5 -143t-325.5 -55q-348 0 -547 186t-199 512q0 146 43 287.5t125.5 263t193.5 214t257.5 145.5t306.5 53
q322 0 504 -170.5t182 -462.5q0 -88 -20.5 -176.5t-62.5 -168.5t-99 -142.5t-135 -99t-166 -36.5zM737 371q97 0 216.5 187.5t191.5 455.5q-19 37 -58 56.5t-81 19.5q-73 0 -140.5 -54t-113.5 -137.5t-73.5 -183t-27.5 -191.5q0 -69 23 -111t63 -42z" />
    </font>
</defs>
</svg>
