<?xml version="1.0" standalone="no"?>
<!DOCTYPE svg PUBLIC "-//W3C//DTD SVG 1.1//EN" "http://www.w3.org/Graphics/SVG/1.1/DTD/svg11.dtd" >
<svg xmlns="http://www.w3.org/2000/svg" xmlns:xlink="http://www.w3.org/1999/xlink" version="1.1">
<metadata>
Created by FontForge 20170731 at Tue Jul  5 13:16:08 2022
 By Aleksey,,,
(c) 2010 Klim Type Foundry. All rights reserved.
</metadata>
<defs>
<font id="TiemposHeadline-Bold" horiz-adv-x="1024" >
  <font-face 
    font-family="Tiempos Headline Bold"
    font-weight="700"
    font-stretch="normal"
    units-per-em="2048"
    panose-1="2 2 8 3 6 3 3 6 4 3"
    ascent="1604"
    descent="-444"
    x-height="1104"
    cap-height="1438"
    bbox="-217 -502 2716 2144"
    underline-thickness="61"
    underline-position="-265"
    unicode-range="U+0020-FB04"
  />
<missing-glyph horiz-adv-x="1966" 
d="M184 0v1597h1598v-1597h-1598zM983 707l-571 -572h1142zM412 1462l571 -571l571 571h-1142zM891 799l-563 563v-1126zM1075 799l563 -563v1126z" />
    <glyph glyph-name="ff" unicode="ff" horiz-adv-x="1460" 
d="M162 1114v21q0 114 38.5 201t106.5 138.5t153.5 77t186.5 25.5q196 0 320 -100q130 127 360 127q318 0 318 -199q0 -42 -21 -76.5t-55 -52.5h-193q10 48 10 96q0 65 -15 103t-58 38q-88 0 -88 -143v-266h239v-111h-239v-803q0 -26 6.5 -44t16 -28.5t33 -18t45 -11
t63.5 -8.5v-80h-652v80q66 5 88.5 19t22.5 61v833h-309v-833q0 -47 22 -61t88 -19v-80h-602v80q67 5 91 19t24 61v833h-148v82zM848 1153q0 94 29 176q-59 160 -195 160q-74 0 -108.5 -53.5t-34.5 -163.5v-168h309v49z" />
    <glyph glyph-name="fi" unicode="fi" horiz-adv-x="1372" 
d="M1225 1124v-964q0 -47 23.5 -61t90.5 -19v-80h-602v80q66 5 88.5 19t22.5 61v833h-309v-833q0 -47 22 -61t88 -19v-80h-602v80q67 5 91 19t24 61v833h-148v82l148 39v27q0 117 42 207.5t116.5 145.5t170 82.5t207.5 27.5q181 0 276 -52.5t95 -148.5q0 -43 -21 -77
t-57 -52h-215q8 58 8 94q0 148 -108 148q-137 0 -137 -238v-174h526l78 20h82z" />
    <glyph glyph-name="fl" unicode="fl" horiz-adv-x="1372" 
d="M1225 1604v-1444q0 -47 23.5 -61t90.5 -19v-80h-602v80q66 5 88.5 19t22.5 61v1210q-58 146 -174 146q-69 0 -102 -51t-33 -158v-203h188v-111h-188v-833q0 -47 22 -61t88 -19v-80h-602v80q67 5 91 19t24 61v833h-148v82l148 39v39q0 225 129 338t348 113q152 0 272 -60
l250 60h64z" />
    <glyph glyph-name="ffi" unicode="ffi" horiz-adv-x="2058" 
d="M162 1114v21q0 114 38.5 201t106.5 138.5t153.5 77t186.5 25.5q206 0 330 -109q148 136 407 136q181 0 276 -52.5t95 -148.5q0 -43 -21 -77t-57 -52h-217q10 48 10 94q0 148 -108 148q-137 0 -137 -238v-174h526l78 20h82v-964q0 -47 23.5 -61t90.5 -19v-80h-602v80
q66 5 88.5 19t22.5 61v833h-309v-833q0 -47 23.5 -61t90.5 -19v-80h-602v80q66 5 88.5 19t22.5 61v833h-309v-833q0 -47 22 -61t88 -19v-80h-602v80q67 5 91 19t24 61v833h-148v82zM848 1141q0 98 31 180q-25 76 -74 122t-123 46t-108.5 -53.5t-34.5 -163.5v-168h309v37z
" />
    <glyph glyph-name="ffl" unicode="ffl" horiz-adv-x="2058" 
d="M647 1577q193 0 318 -98q125 125 360 125q152 0 272 -60l250 60h64v-1444q0 -47 23.5 -61t90.5 -19v-80h-602v80q66 5 88.5 19t22.5 61v1210q-58 146 -174 146q-69 0 -102 -51t-33 -158v-203h188v-111h-188v-833q0 -47 22 -61t88 -19v-80h-598v80q66 5 88.5 19t22.5 61
v833h-309v-833q0 -47 22 -61t88 -19v-80h-602v80q67 5 91 19t24 61v833h-148v82l148 39v21q0 114 38.5 201t106.5 138.5t153.5 77t186.5 25.5zM848 1104v49q0 94 26 180q-55 156 -192 156q-74 0 -108.5 -53.5t-34.5 -163.5v-168h309z" />
    <glyph glyph-name="f_b" unicode="fb" horiz-adv-x="2025" 
d="M848 121v1249q-58 146 -174 146q-69 0 -102 -51t-33 -158v-203h188v-111h-188v-833q0 -47 22 -61t88 -19v-80h-602v80q67 5 91 19t24 61v833h-148v82l148 39v39q0 225 129 338t348 113q152 0 272 -60l250 60h64v-678q53 83 139 140.5t205 57.5q188 0 300.5 -129
t112.5 -374q0 -154 -47 -277t-130 -202t-193.5 -120.5t-239.5 -41.5q-154 0 -293 34t-231 107zM1370 76q73 0 125 57.5t77 153.5t25 219q0 198 -65 296.5t-184 98.5q-71 0 -123 -35v-577q0 -104 33.5 -158.5t111.5 -54.5z" />
    <glyph glyph-name="f_f_b" unicode="ffb" horiz-adv-x="2711" 
d="M1534 121v1249q-58 146 -174 146q-69 0 -102 -51t-33 -158v-203h188v-111h-188v-833q0 -47 22 -61t88 -19v-80h-598v80q66 5 88.5 19t22.5 61v833h-309v-833q0 -47 22 -61t88 -19v-80h-602v80q67 5 91 19t24 61v833h-148v82l148 39v21q0 114 38.5 201t106.5 138.5
t153.5 77t186.5 25.5q193 0 318 -98q125 125 360 125q152 0 272 -60l250 60h64v-678q53 83 139 140.5t205 57.5q188 0 301 -129t113 -374q0 -123 -30.5 -227.5t-86 -180t-131.5 -128.5t-168 -79t-195 -26q-154 0 -293 34t-231 107zM2056 76q73 0 125.5 57.5t77.5 153.5
t25 219q0 198 -65.5 296.5t-184.5 98.5q-71 0 -123 -35v-577q0 -104 33.5 -158.5t111.5 -54.5zM848 1153q0 94 26 180q-55 156 -192 156q-74 0 -108.5 -53.5t-34.5 -163.5v-168h309v49z" />
    <glyph glyph-name="f_h" unicode="fh" horiz-adv-x="2048" 
d="M848 160v1210q-58 146 -174 146q-69 0 -102 -51t-33 -158v-203h172v-111h-172v-833q0 -47 22 -61t88 -19v-80h-602v80q67 5 91 19t24 61v833h-148v82l148 39v39q0 225 129 338t348 113q152 0 272 -60l250 60h64v-684q162 204 381 204q150 0 230.5 -85.5t80.5 -250.5v-628
q0 -47 24 -61t91 -19v-80h-605v80q66 5 88.5 19t22.5 61v598q0 72 -30.5 107.5t-106.5 35.5q-88 0 -176 -45v-696q0 -47 22 -61t88 -19v-80h-602v80q67 5 91 19t24 61z" />
    <glyph glyph-name="f_f_h" unicode="ffh" horiz-adv-x="2734" 
d="M1534 160v1210q-58 146 -174 146q-69 0 -102 -51t-33 -158v-203h188v-111h-188v-833q0 -47 22 -61t88 -19v-80h-598v80q66 5 88.5 19t22.5 61v833h-309v-833q0 -47 22 -61t88 -19v-80h-602v80q67 5 91 19t24 61v833h-148v82l148 39v21q0 114 38.5 201t106.5 138.5
t153.5 77t186.5 25.5q193 0 318 -98q125 125 360 125q152 0 272 -60l250 60h64v-684q162 204 381 204q150 0 230.5 -85.5t80.5 -250.5v-628q0 -47 23.5 -61t89.5 -19v-80h-602v80q66 5 88 19t22 61v598q0 72 -30.5 107.5t-106.5 35.5q-88 0 -176 -45v-696q0 -47 22 -61
t88 -19v-80h-602v80q67 5 91 19t24 61zM848 1153q0 94 26 180q-55 156 -192 156q-74 0 -108.5 -53.5t-34.5 -163.5v-168h309v49z" />
    <glyph glyph-name="f_idieresis" unicode="f&#xef;" horiz-adv-x="1372" 
d="M1225 1124v-964q0 -47 23.5 -61t90.5 -19v-80h-602v80q66 5 88.5 19t22.5 61v833h-309v-833q0 -47 22 -61t88 -19v-80h-602v80q67 5 91 19t24 61v833h-148v82l148 39v27q0 116 41.5 206.5t114.5 145.5t166.5 83t203.5 28q162 0 246 -56t84 -155q0 -42 -22 -78.5
t-56 -54.5h-213q10 48 10 100q0 73 -17.5 114.5t-64.5 41.5q-116 0 -116 -238v-174h526l78 20h82zM1075 1407q0 70 51 120t119 50q73 0 124.5 -49.5t51.5 -120.5q0 -69 -51.5 -119.5t-124.5 -50.5q-68 0 -119 50.5t-51 119.5z" />
    <glyph glyph-name="f_f_idieresis" unicode="ff&#xef;" horiz-adv-x="2058" 
d="M647 1577q201 0 328 -109q145 136 399 136q162 0 246 -56t84 -155q0 -42 -22 -78.5t-56 -54.5h-213q10 48 10 100q0 73 -17.5 114.5t-64.5 41.5q-116 0 -116 -238v-174h526l78 20h82v-964q0 -47 23.5 -61t90.5 -19v-80h-602v80q66 5 88.5 19t22.5 61v833h-309v-833
q0 -47 23.5 -61t90.5 -19v-80h-602v80q66 5 88.5 19t22.5 61v833h-309v-833q0 -47 22 -61t88 -19v-80h-602v80q67 5 91 19t24 61v833h-148v82l148 39v21q0 114 38.5 201t106.5 138.5t153.5 77t186.5 25.5zM848 1104v37q0 101 31 180q-25 76 -74.5 122t-122.5 46
q-74 0 -108.5 -53.5t-34.5 -163.5v-168h309zM1761 1407q0 70 51 120t119 50q73 0 124.5 -49.5t51.5 -120.5q0 -69 -51.5 -119.5t-124.5 -50.5q-68 0 -119 50.5t-51 119.5z" />
    <glyph glyph-name="f_j" unicode="fj" horiz-adv-x="1337" 
d="M848 993h-309v-833q0 -47 22 -61t88 -19v-80h-602v80q67 5 91 19t24 61v833h-148v82l148 39v27q0 117 42 207.5t116.5 145.5t170 82.5t207.5 27.5q181 0 276 -52.5t95 -148.5q0 -43 -21 -77t-57 -52h-215q8 58 8 94q0 148 -108 148q-137 0 -137 -238v-174h526l78 20h82
v-907q0 -164 -34 -256t-110 -168q-79 -78 -155.5 -126t-196.5 -103l-33 41l84 131q24 38 38.5 81t20.5 98t7.5 97.5t1.5 116.5v864z" />
    <glyph glyph-name="f_f_j" unicode="ffj" horiz-adv-x="2023" 
d="M1534 993h-309v-833q0 -47 23.5 -61t90.5 -19v-80h-602v80q66 5 88.5 19t22.5 61v833h-309v-833q0 -47 22 -61t88 -19v-80h-602v80q67 5 91 19t24 61v833h-148v82l148 39v21q0 114 38.5 201t106.5 138.5t153.5 77t186.5 25.5q206 0 330 -109q148 136 407 136
q181 0 276 -52.5t95 -148.5q0 -43 -21 -77t-57 -52h-217q10 48 10 94q0 148 -108 148q-137 0 -137 -238v-174h526l78 20h82v-907q0 -164 -34 -256t-110 -168q-79 -78 -155.5 -126t-196.5 -103l-33 41l84 131q24 38 38.5 81t20.5 98t7.5 97.5t1.5 116.5v864zM848 1141
q0 98 31 180q-25 76 -74 122t-123 46t-108.5 -53.5t-34.5 -163.5v-168h309v37z" />
    <glyph glyph-name="f_k" unicode="fk" horiz-adv-x="2000" 
d="M1239 580l315 284q66 61 66 99q0 29 -25.5 41t-97.5 20v80h463v-80q-58 -8 -95.5 -23.5t-74.5 -52.5l-234 -221l445 -672v-55h-391zM848 160v1210q-58 146 -174 146q-69 0 -102 -51t-33 -158v-203h188v-111h-188v-833q0 -47 22 -61t88 -19v-80h-602v80q67 5 91 19t24 61
v833h-148v82l148 39v39q0 225 129 338t348 113q152 0 272 -60l250 60h64v-1444q0 -47 23.5 -61t90.5 -19v-80h-606v80q67 5 91 19t24 61z" />
    <glyph glyph-name="f_f_k" unicode="ffk" horiz-adv-x="2686" 
d="M1534 160v1210q-58 146 -174 146q-69 0 -102 -51t-33 -158v-203h188v-111h-188v-833q0 -47 22 -61t88 -19v-80h-598v80q66 5 88.5 19t22.5 61v833h-309v-833q0 -47 22 -61t88 -19v-80h-602v80q67 5 91 19t24 61v833h-148v82l148 39v21q0 114 38.5 201t106.5 138.5
t153.5 77t186.5 25.5q193 0 318 -98q125 125 360 125q152 0 272 -60l250 60h64v-1444q0 -47 23.5 -61t90.5 -19v-80h-606v80q67 5 91 19t24 61zM1925 580l316 284q65 60 65 99q0 29 -25.5 41t-97.5 20v80h463v-80q-58 -8 -95.5 -23.5t-74.5 -52.5l-233 -221l444 -672v-55
h-391zM848 1153q0 94 26 180q-55 156 -192 156q-74 0 -108.5 -53.5t-34.5 -163.5v-168h309v49z" />
    <glyph glyph-name=".notdef" horiz-adv-x="1966" 
d="M184 0v1597h1598v-1597h-1598zM983 707l-571 -572h1142zM412 1462l571 -571l571 571h-1142zM891 799l-563 563v-1126zM1075 799l563 -563v1126z" />
    <glyph glyph-name=".null" horiz-adv-x="0" 
 />
    <glyph glyph-name="nonmarkingreturn" horiz-adv-x="682" 
 />
    <glyph glyph-name="space" unicode=" " horiz-adv-x="354" 
 />
    <glyph glyph-name="exclam" unicode="!" horiz-adv-x="600" 
d="M104 178q0 84 57.5 143.5t137.5 59.5q82 0 139.5 -59t57.5 -144q0 -82 -57.5 -140t-139.5 -58q-80 0 -137.5 58t-57.5 140zM358 479h-118l-166 959h450z" />
    <glyph glyph-name="quotedbl" unicode="&#x22;" horiz-adv-x="743" 
d="M207 932h-31l-92 295q-41 139 -41 192q0 65 37.5 110.5t109.5 45.5q73 0 111.5 -45.5t38.5 -110.5q0 -61 -43 -192zM567 932h-28l-93 295q-43 146 -43 192q0 65 39 110.5t111 45.5t110.5 -45.5t38.5 -110.5q0 -46 -43 -192z" />
    <glyph glyph-name="numbersign" unicode="#" horiz-adv-x="1079" 
d="M961 471h-250l-154 -491l-104 34l143 457h-270l-156 -491l-104 34l143 457h-160v96h191l100 314h-221v96h252l151 483l107 -35l-144 -448h273l151 483l105 -35l-142 -448h158v-96h-188l-101 -314h220v-96zM455 881l-99 -314h271l100 314h-272z" />
    <glyph glyph-name="dollar" unicode="$" horiz-adv-x="1179" 
d="M557 -20q-11 0 -32 1t-33 1l-37 -213h-88l39 223q-210 30 -330 125l-23 356h111q28 -137 95.5 -234.5t166.5 -136.5l78 437l-21 6q-213 63 -317.5 167t-104.5 283q0 211 146 337t375 126q30 0 84 -4l39 211h88l-41 -221q158 -28 274 -109v-311h-94q-52 229 -201 303
l-74 -416q2 -2 9 -2q89 -28 152 -54t123.5 -64.5t96.5 -85.5t58 -114t22 -151q0 -115 -44 -204.5t-121 -144.5t-177.5 -83t-218.5 -28zM803 274q0 91 -49 142t-168 94l-76 -430q14 -2 47 -2q111 0 178.5 51.5t67.5 144.5zM367 1165q0 -90 47 -138.5t161 -88.5l74 418
q-35 6 -67 6q-95 0 -155 -53t-60 -144z" />
    <glyph glyph-name="percent" unicode="%" horiz-adv-x="1619" 
d="M70 1104q0 167 102.5 260.5t251.5 93.5q148 0 250 -93.5t102 -260.5q0 -169 -102 -262.5t-250 -93.5q-72 0 -135 23t-112.5 66t-78 112t-28.5 155zM299 1104q0 -285 125 -285t125 285q0 282 -125 282t-125 -282zM305 -20l899 1478h111l-899 -1478h-111zM1550 334
q0 -167 -102.5 -260.5t-251.5 -93.5q-95 0 -174 39t-129.5 121t-50.5 194q0 86 29 155t78.5 112t112.5 66t134 23q72 0 135 -23t112.5 -66t78 -112t28.5 -155zM1321 334q0 284 -125 284t-125 -284q0 -283 125 -283t125 283z" />
    <glyph glyph-name="ampersand" unicode="&#x26;" horiz-adv-x="1507" 
d="M23 375q0 148 86 239.5t253 137.5q-129 164 -129 325q0 174 123.5 277.5t329.5 103.5q194 0 313 -86.5t119 -232.5q0 -253 -336 -326l326 -389q37 85 37 172q0 54 -31.5 76t-97.5 22v88h452v-88q-109 0 -154 -29.5t-65 -117.5q-25 -108 -80 -199l97 -112q28 -33 38 -45
t31.5 -35.5t33 -31.5t30 -19.5t36 -15t38.5 -3.5v-86h-437q-77 59 -114 94q-179 -114 -394 -114q-143 0 -256.5 45t-181 136t-67.5 214zM686 137q78 0 162 33q-58 67 -62 72l-372 446q-68 -76 -68 -217q0 -145 94 -239.5t246 -94.5zM549 1208q0 -28 4.5 -54.5t17 -54
t20 -44.5t30 -46t29 -38t34.5 -40.5t31 -35.5l14 -18q117 88 117 290q0 88 -38.5 146.5t-117.5 58.5q-67 0 -104 -45t-37 -119z" />
    <glyph glyph-name="quotesingle" unicode="'" horiz-adv-x="382" 
d="M207 932h-31l-92 295q-41 139 -41 192q0 65 37.5 110.5t109.5 45.5q73 0 111.5 -45.5t38.5 -110.5q0 -61 -43 -192z" />
    <glyph glyph-name="parenleft" unicode="(" horiz-adv-x="759" 
d="M123 643q0 262 126.5 509.5t350.5 424.5h115q-314 -376 -314 -934t314 -934h-115q-224 177 -350.5 424.5t-126.5 509.5z" />
    <glyph glyph-name="parenright" unicode=")" horiz-adv-x="759" 
d="M637 643q0 -263 -126.5 -510t-352.5 -424h-113q164 198 238.5 438.5t74.5 495.5t-74.5 495.5t-238.5 438.5h113q226 -177 352.5 -424t126.5 -510z" />
    <glyph glyph-name="asterisk" unicode="*" horiz-adv-x="907" 
d="M741 1219l-260 -70l260 -68q66 -17 90 -60.5t-4 -88.5q-27 -45 -75.5 -46t-96.5 48l-188 190l72 -258q20 -66 -6 -106.5t-80 -40.5q-53 0 -78.5 41t-5.5 106l71 258l-188 -190q-51 -49 -98.5 -48t-73.5 46q-28 45 -4 88.5t90 60.5l258 68l-258 70q-66 15 -90 58.5t4 88.5
q26 45 73.5 46t98.5 -48l188 -193l-71 261q-20 65 5.5 106t78.5 41q54 0 80 -40.5t6 -106.5l-72 -261l188 193q48 49 96.5 48t75.5 -46q28 -45 4 -88.5t-90 -58.5z" />
    <glyph glyph-name="plus" unicode="+" horiz-adv-x="1175" 
d="M518 1210h137v-383h385v-141h-385v-383h-137v383h-385v141h385v383z" />
    <glyph glyph-name="comma" unicode="," horiz-adv-x="544" 
d="M305 12h-84q-147 34 -147 178q0 83 55.5 134t140.5 51q99 0 158 -69.5t59 -184.5q0 -167 -108.5 -264t-310.5 -103v84q112 16 170 55t67 119z" />
    <glyph glyph-name="hyphen" unicode="-" horiz-adv-x="655" 
d="M594 551h-533v160h533v-160z" />
    <glyph glyph-name="period" unicode="." horiz-adv-x="544" 
d="M61 190q0 93 61 153t150 60q90 0 150.5 -60t60.5 -153t-60.5 -151.5t-150.5 -58.5q-89 0 -150 59t-61 151z" />
    <glyph glyph-name="slash" unicode="/" horiz-adv-x="741" 
d="M723 1577l-567 -1866h-160l567 1866h160z" />
    <glyph glyph-name="zero" unicode="0" horiz-adv-x="1372" 
d="M686 66q62 0 105 49.5t65.5 143.5t31.5 204t9 256t-9 256t-31.5 204t-65.5 143.5t-105 49.5t-105 -49.5t-65.5 -143.5t-31.5 -204t-9 -256t9 -256t31.5 -204t65.5 -143.5t105 -49.5zM686 -20q-136 0 -251.5 50t-200.5 142.5t-133 233t-48 313.5t48 313.5t133 233
t200.5 142.5t251.5 50t251.5 -50t200.5 -142.5t133 -233t48 -313.5t-48 -313.5t-133 -233t-200.5 -142.5t-251.5 -50z" />
    <glyph glyph-name="one" unicode="1" horiz-adv-x="866" 
d="M838 0h-787v86q50 2 80 4.5t54 10.5t35 16t18.5 27t8.5 37.5t1 54.5v862h-197v80l94 16q148 26 241 86t175 176h86v-1220q0 -34 2 -54t10 -38t19.5 -26.5t35 -15.5t51 -10t73.5 -6v-86z" />
    <glyph glyph-name="two" unicode="2" horiz-adv-x="1136" 
d="M367 319h358q39 0 61.5 1.5t49.5 8.5t44.5 19.5t40 35.5t44 57t47.5 83h63l-47 -524h-1018v68l393 391q126 125 185 239.5t59 243.5q0 116 -63.5 185t-180.5 69q-161 0 -274 -133l-61 43q41 78 87.5 137.5t110 110t147.5 77.5t185 27q196 0 311 -103t115 -282
q0 -61 -19 -121.5t-49.5 -112.5t-80 -108t-97.5 -100.5t-116.5 -98t-122.5 -92t-129 -91.5q-29 -20 -43 -30z" />
    <glyph glyph-name="three" unicode="3" horiz-adv-x="1114" 
d="M621 825q205 -6 327.5 -114.5t122.5 -284.5q0 -108 -47 -194.5t-126.5 -140.5t-179.5 -82.5t-210 -28.5q-237 0 -367.5 83t-130.5 209q0 59 28 105t66 65h238q-23 -58 -23 -133q0 -108 51.5 -178t147.5 -70q89 0 136.5 73t47.5 206q0 153 -84 241.5t-237 88.5h-39l-23 59
q160 65 224.5 132.5t64.5 162.5q0 85 -49.5 134.5t-144.5 49.5q-157 0 -273 -139l-55 43q165 346 520 346q168 0 270.5 -79.5t102.5 -219.5q0 -60 -22.5 -111t-58 -86.5t-84 -64t-95.5 -45t-98 -27.5z" />
    <glyph glyph-name="four" unicode="4" horiz-adv-x="1306" 
d="M170 481h463v656zM633 221v152h-621v69l703 996h307v-957h235v-108h-235v-152q0 -81 28 -107t132 -32v-82h-711v82q104 6 133 32t29 107z" />
    <glyph glyph-name="five" unicode="5" horiz-adv-x="1107" 
d="M954 1110h-661l-29 -158q391 8 592 -114.5t201 -386.5q0 -112 -42 -202.5t-115 -148.5t-171.5 -89t-212.5 -31q-236 0 -366 78.5t-130 205.5q0 58 30 105t77 71h223q-18 -70 -18 -121q0 -118 51 -187t156 -69q96 0 151 62t55 170q0 160 -151.5 240.5t-472.5 80.5l129 822
h563q55 0 75.5 14t47.5 72h80z" />
    <glyph glyph-name="six" unicode="6" horiz-adv-x="1247" 
d="M1012 1399q-247 -49 -376 -191t-165 -366q133 96 313 96q183 0 299.5 -117.5t116.5 -314.5q0 -162 -74 -282.5t-198.5 -182t-282.5 -61.5q-180 0 -313.5 82.5t-203 229.5t-69.5 339q0 170 62 318t177 259.5t290 177.5t391 72zM561 786q-49 0 -100 -14q-6 -70 -6 -147
q0 -120 12.5 -219.5t38 -176t67.5 -119t97 -42.5q86 0 129 88t43 233q0 174 -71.5 285.5t-209.5 111.5z" />
    <glyph glyph-name="seven" unicode="7" horiz-adv-x="1056" 
d="M827 1061h-538q-70 0 -111.5 -42t-77.5 -145h-80l93 564h942v-80l-578 -1358h-239z" />
    <glyph glyph-name="eight" unicode="8" horiz-adv-x="1202" 
d="M1079 1126q0 -111 -85.5 -179t-217.5 -81l51 -22q166 -72 245 -171.5t79 -246.5q0 -208 -151 -327t-404 -119t-402 93.5t-149 260.5q0 117 89.5 193t230.5 94l-33 14q-113 51 -179.5 151.5t-66.5 235.5q0 132 67.5 232t183 152t261.5 52q227 0 354 -88t127 -244zM678 477
l-260 119q-96 -86 -96 -231q0 -138 75.5 -220t202.5 -82q110 0 178 56.5t68 156.5q0 75 -40.5 118.5t-127.5 82.5zM549 975l166 -82q108 90 108 237q0 110 -59 177t-168 67q-94 0 -151.5 -51t-57.5 -137q0 -75 40 -123.5t122 -87.5z" />
    <glyph glyph-name="nine" unicode="9" horiz-adv-x="1247" 
d="M236 41q126 24 221.5 74t159.5 123t102.5 161.5t56.5 198.5q-132 -96 -313 -96q-183 0 -299.5 117.5t-116.5 314.5q0 162 74 282.5t198.5 182t282.5 61.5q180 0 313.5 -82.5t203 -229.5t69.5 -339q0 -170 -62 -318t-177 -259.5t-290 -177.5t-391 -72zM686 653q51 0 98 13
q9 73 9 149q0 120 -12.5 219.5t-38 176t-67.5 119t-97 42.5q-86 0 -129 -88t-43 -233q0 -113 29 -200.5t93.5 -142.5t157.5 -55z" />
    <glyph glyph-name="colon" unicode=":" horiz-adv-x="544" 
d="M61 190q0 93 61 153t150 60q90 0 150.5 -60t60.5 -153t-60.5 -151.5t-150.5 -58.5q-89 0 -150 59t-61 151zM61 823q0 93 61 153t150 60q90 0 150.5 -60t60.5 -153t-60.5 -152t-150.5 -59q-89 0 -150 59.5t-61 151.5z" />
    <glyph glyph-name="semicolon" unicode=";" horiz-adv-x="544" 
d="M305 12h-84q-147 34 -147 178q0 83 55.5 134t140.5 51q99 0 158 -69.5t59 -184.5q0 -167 -108.5 -264t-310.5 -103v84q112 16 170 55t67 119zM61 823q0 93 61 153t150 60q90 0 150.5 -60t60.5 -153t-60.5 -152t-150.5 -59q-89 0 -150 59.5t-61 151.5z" />
    <glyph glyph-name="less" unicode="&#x3c;" horiz-adv-x="870" 
d="M88 743v19l649 397v-166l-407 -239l407 -244v-164z" />
    <glyph glyph-name="equal" unicode="=" horiz-adv-x="1196" 
d="M143 541v133h910v-133h-910zM143 838v137h910v-137h-910z" />
    <glyph glyph-name="greater" unicode="&#x3e;" horiz-adv-x="870" 
d="M782 762v-19l-649 -397v164l410 244l-410 239v166z" />
    <glyph glyph-name="question" unicode="?" horiz-adv-x="956" 
d="M627 1221q0 73 -37.5 115t-106.5 42q-81 0 -117 -57.5t-36 -144.5q0 -36 10 -119h-225q-82 42 -82 133q0 122 122 195t324 73q217 0 335 -90.5t118 -257.5q0 -126 -69.5 -216t-213.5 -175q-90 -55 -126 -101t-36 -118v-27h-51q-74 29 -117 86t-43 137q0 143 160 260
q49 37 75.5 59t57.5 56.5t44.5 70.5t13.5 79zM264 178q0 84 57.5 143.5t137.5 59.5q83 0 139.5 -59t56.5 -144q0 -82 -56.5 -140t-139.5 -58q-80 0 -137.5 58t-57.5 140z" />
    <glyph glyph-name="at" unicode="@" horiz-adv-x="1812" 
d="M1241 158q-78 0 -131.5 27t-76.5 73t-29.5 106t8.5 125q-43 -79 -78.5 -132.5t-80 -102t-94 -72.5t-106.5 -24q-92 0 -151.5 71t-59.5 191q0 105 41 211t110.5 190.5t168.5 137.5t207 53q66 0 118 -25t78 -59l154 67h84l-70 -188l-112 -410q-22 -63 -7.5 -113.5
t66.5 -50.5q118 0 202.5 150t84.5 377q0 114 -39.5 217.5t-111.5 183.5t-183.5 127t-245.5 47q-165 0 -304 -65t-232 -177t-145 -261.5t-52 -317.5q0 -132 35 -243t97.5 -190t149 -134.5t189 -82t217.5 -26.5q165 0 291.5 36.5t261.5 117.5l29 -41q-113 -101 -272 -157
t-351 -56q-168 0 -316 50.5t-261.5 145.5t-179.5 243.5t-66 332.5t69 350.5t188 289t289 195t363 72.5q173 0 316 -53t236.5 -143t144.5 -209t51 -252q0 -119 -30 -219.5t-79 -170t-113.5 -118.5t-133.5 -71.5t-138 -22.5zM780 338q56 0 117.5 76t112.5 198t82 262
q-29 66 -93 66q-77 0 -145 -81.5t-104.5 -193.5t-36.5 -214q0 -113 67 -113z" />
    <glyph glyph-name="A" unicode="A" horiz-adv-x="1554" 
d="M965 256l-74 188h-522l-70 -186q-16 -50 -16 -76q0 -49 40.5 -70t127.5 -26v-86h-441v86q47 7 75 22.5t44 53.5l426 1110l-70 170h428l510 -1280q14 -37 43 -53t78 -23v-86h-723v86q82 3 121 23.5t39 70.5q0 26 -16 76zM623 1122l-213 -567h436z" />
    <glyph glyph-name="B" unicode="B" horiz-adv-x="1433" 
d="M694 686h-90v-450q0 -82 31.5 -111t112.5 -29h16q110 0 175 75t65 224q0 141 -78 216t-232 75zM653 1341h-49v-544h51q131 0 198 70t67 208q0 133 -70 199.5t-197 66.5zM817 0h-764v86q71 7 101 19.5t39.5 36.5t9.5 81v991q0 43 -3.5 64.5t-20.5 38.5t-44.5 23t-81.5 12
v86h744q241 0 372 -91.5t131 -267.5q0 -99 -56 -172.5t-140 -110.5t-189 -48q211 -6 344.5 -100.5t133.5 -258.5q0 -389 -576 -389z" />
    <glyph glyph-name="C" unicode="C" horiz-adv-x="1398" 
d="M827 1458q275 0 457 -121l6 -358h-100q-39 187 -124.5 282t-225.5 95q-93 0 -164 -47.5t-114 -133t-64 -195.5t-21 -243q0 -190 42.5 -334.5t130 -229.5t210.5 -85q132 0 227.5 103t155.5 329h103l-35 -407q-90 -63 -221 -98t-281 -35q-350 0 -553 188t-203 512
q0 176 61 323.5t166 246.5t246 153.5t301 54.5z" />
    <glyph glyph-name="D" unicode="D" horiz-adv-x="1615" 
d="M657 1341h-53v-1101q0 -86 32.5 -115t106.5 -29h19q174 0 278.5 163.5t104.5 436.5q0 299 -128 472t-360 173zM774 0h-721v86q71 7 101 19.5t39.5 36.5t9.5 81v991q0 43 -3.5 64.5t-20.5 38.5t-44.5 23t-81.5 12v86h674q207 0 368.5 -53.5t262 -149t152 -222t51.5 -278.5
q0 -344 -212.5 -539.5t-574.5 -195.5z" />
    <glyph glyph-name="E" unicode="E" horiz-adv-x="1341" 
d="M53 0v86q71 7 101 19.5t39.5 36.5t9.5 81v991q0 43 -3.5 64.5t-20.5 38.5t-44.5 23t-81.5 12v86h1178l10 -396h-78q-36 76 -61 120t-54.5 83t-61.5 57.5t-73 28.5t-98 10h-211v-542h199q68 0 95.5 40t41.5 148h88v-491h-88q-14 109 -41.5 149.5t-95.5 40.5h-199v-453
q0 -80 38.5 -108.5t127.5 -28.5h72q35 0 62 3t53 14.5t44.5 21.5t41.5 35.5t38.5 45t41 62.5t43 74.5t51.5 93.5h92l-66 -446h-1190z" />
    <glyph glyph-name="F" unicode="F" horiz-adv-x="1257" 
d="M604 670v-441q0 -80 49 -107.5t189 -35.5v-86h-789v86q71 7 101 19.5t39.5 36.5t9.5 81v991q0 43 -3.5 64.5t-20.5 38.5t-44.5 23t-81.5 12v86h1157l11 -410h-72q-38 79 -62.5 122.5t-56 86t-62.5 62t-73 31t-98 11.5h-193v-559h178q69 0 96.5 41t41.5 150h88v-494h-88
q-14 109 -41.5 150t-96.5 41h-178z" />
    <glyph glyph-name="G" unicode="G" horiz-adv-x="1519" 
d="M977 109v348q0 57 -9.5 81t-39.5 37t-101 21v86h672v-86q-100 -12 -123.5 -35t-23.5 -104v-340q-215 -137 -557 -137q-178 0 -320 53t-233.5 147.5t-140 222.5t-48.5 279q0 175 61.5 322.5t168 246t249 153t304.5 54.5q277 0 462 -121l7 -358h-101q-39 187 -125.5 282
t-228.5 95q-96 0 -168.5 -47.5t-116.5 -132.5t-66 -195.5t-22 -243.5t23 -249t67.5 -207.5t117.5 -144t165 -52.5q78 0 127 25z" />
    <glyph glyph-name="H" unicode="H" horiz-adv-x="1728" 
d="M604 1214v-421h520v421q0 44 -3.5 65t-20 38t-44 23t-81.5 12v86h698v-86q-53 -6 -80 -12t-43.5 -23t-20 -38t-3.5 -65v-991q0 -81 23.5 -104t123.5 -33v-86h-698v86q54 6 81.5 12t44 22.5t20 37.5t3.5 65v443h-520v-443q0 -81 24 -104t124 -33v-86h-699v86
q71 7 101 19.5t39.5 36.5t9.5 81v991q0 43 -3.5 64.5t-20.5 38.5t-44.5 23t-81.5 12v86h699v-86q-100 -10 -124 -33.5t-24 -104.5z" />
    <glyph glyph-name="I" unicode="I" horiz-adv-x="806" 
d="M604 1214v-991q0 -81 24 -104t124 -33v-86h-699v86q71 7 101 19.5t39.5 36.5t9.5 81v991q0 43 -3.5 64.5t-20.5 38.5t-44.5 23t-81.5 12v86h699v-86q-100 -10 -124 -33.5t-24 -104.5z" />
    <glyph glyph-name="J" unicode="J" horiz-adv-x="1193" 
d="M610 344v870q0 44 -3.5 65t-20 38t-44 23t-81.5 12v86h698v-86q-53 -6 -80 -12t-43.5 -23t-20 -38t-3.5 -65v-753q0 -481 -549 -481q-230 0 -351.5 79t-121.5 228q0 122 102 182h258q-14 -86 -14 -158q0 -243 137 -243q34 0 59 13t40 35t23.5 58t11.5 75.5t3 94.5z" />
    <glyph glyph-name="K" unicode="K" horiz-adv-x="1572" 
d="M961 879l425 -658q47 -69 84.5 -98.5t102.5 -36.5v-86h-477q-95 79 -187 236l-286 462l479 500q57 57 57 96q0 26 -31.5 40.5t-109.5 17.5v86h485v-86q-62 -3 -97 -19t-77 -59zM604 1214v-991q0 -81 24 -104t124 -33v-86h-699v86q71 7 101 19.5t39.5 36.5t9.5 81v991
q0 43 -3.5 64.5t-20.5 38.5t-44.5 23t-81.5 12v86h699v-86q-100 -10 -124 -33.5t-24 -104.5z" />
    <glyph glyph-name="L" unicode="L" horiz-adv-x="1318" 
d="M604 1214v-981q0 -81 35 -109t123 -28h57q53 0 93.5 16.5t86.5 63.5t93.5 117t119.5 192h88l-77 -485h-1170v86q71 7 101 19.5t39.5 36.5t9.5 81v991q0 43 -3.5 64.5t-20.5 38.5t-44.5 23t-81.5 12v86h699v-86q-100 -10 -124 -33.5t-24 -104.5z" />
    <glyph glyph-name="M" unicode="M" horiz-adv-x="2009" 
d="M1421 266l-98 781l-367 -1047h-155l-379 1047l-103 -781q-4 -28 -4 -49q0 -74 38.5 -98.5t158.5 -32.5v-86h-506v86q91 5 128 30t46 93l129 993q0 82 -36.5 114t-137.5 36v86h570q5 -54 32 -131l279 -783l264 783q4 12 11.5 34t11 33.5t7.5 29t5 34.5h557v-86
q-101 -4 -136.5 -36t-35.5 -114l129 -993q10 -71 46 -94.5t126 -28.5v-86h-772v86q113 6 154.5 32t41.5 99q0 21 -4 49z" />
    <glyph glyph-name="N" unicode="N" horiz-adv-x="1544" 
d="M1223 627v585q0 78 -40 104.5t-167 35.5v86h491v-86q-53 -5 -80.5 -12t-43.5 -24t-19.5 -38.5t-3.5 -65.5v-1214h-146l-874 1081v-854q0 -78 40 -104t167 -35v-86h-492v86q53 6 80.5 12.5t44 23t20 38.5t3.5 65v996q-42 72 -71.5 100t-78.5 31v86h516z" />
    <glyph glyph-name="O" unicode="O" horiz-adv-x="1529" 
d="M774 78q74 0 130 53t87 143.5t45.5 195.5t14.5 224q0 142 -16.5 259t-51 210t-93 145t-136.5 52q-74 0 -130 -53t-87 -143.5t-45.5 -196t-14.5 -224.5q0 -142 16.5 -259t51 -209.5t93 -144.5t136.5 -52zM745 -20q-166 0 -299.5 57t-218 155.5t-129.5 225.5t-45 272
q0 174 54.5 318.5t151.5 242.5t231.5 152.5t291.5 54.5q166 0 299.5 -57t218.5 -155.5t130 -225.5t45 -272q0 -231 -94 -406.5t-259.5 -268.5t-376.5 -93z" />
    <glyph glyph-name="P" unicode="P" horiz-adv-x="1366" 
d="M604 555v-326q0 -80 49 -107.5t189 -35.5v-86h-789v86q71 7 101 19.5t39.5 36.5t9.5 81v991q0 43 -3.5 64.5t-20.5 38.5t-44.5 23t-81.5 12v86h709q288 0 436 -119.5t148 -314.5q0 -216 -150.5 -332.5t-450.5 -116.5h-141zM604 1341v-679h47q146 0 223.5 90.5t77.5 251.5
q0 157 -81 247t-220 90h-47z" />
    <glyph glyph-name="Q" unicode="Q" horiz-adv-x="1529" 
d="M723 -141l-94 129q-139 18 -249.5 81t-181 158t-108 213t-37.5 250q0 174 54.5 318.5t151.5 242.5t231.5 152.5t291.5 54.5q166 0 299.5 -57t218.5 -155.5t130 -225.5t45 -272q0 -295 -148 -493.5t-397 -254.5l170 -125q85 -63 140 -88.5t136 -26.5v-34
q-111 -107 -262 -107q-208 0 -391 240zM774 78q74 0 130 53t87 143.5t45.5 195.5t14.5 224q0 142 -16.5 259t-51 210t-93 145t-136.5 52q-74 0 -130 -53t-87 -143.5t-45.5 -196t-14.5 -224.5q0 -142 16.5 -259t51 -209.5t93 -144.5t136.5 -52z" />
    <glyph glyph-name="R" unicode="R" horiz-adv-x="1554" 
d="M664 1337h-60v-635h62q139 0 215.5 85.5t76.5 240.5q0 144 -76.5 226.5t-217.5 82.5zM604 600v-377q0 -81 24 -104t124 -33v-86h-699v86q71 7 101 19.5t39.5 36.5t9.5 81v991q0 43 -3.5 64.5t-20.5 38.5t-44.5 23t-81.5 12v86h752q252 0 402.5 -110t150.5 -298
q0 -75 -26 -138.5t-71 -108t-97 -74.5t-113 -50l284 -407q66 -97 108 -130t111 -36v-86h-469q-80 63 -172 217l-233 383h-76z" />
    <glyph glyph-name="S" unicode="S" horiz-adv-x="1185" 
d="M563 -20q-148 0 -276.5 38.5t-204.5 98.5l-23 356h109q40 -179 142.5 -287t252.5 -108q111 0 175.5 51t64.5 145q0 97 -69 152t-245 109q-212 62 -316.5 171t-104.5 289q0 211 145 337t375 126q136 0 250.5 -33t191.5 -90v-311h-92q-36 161 -124 249.5t-226 88.5
q-96 0 -153.5 -52t-57.5 -139q0 -97 64.5 -149.5t228.5 -101.5q111 -34 187 -71t139.5 -92t94.5 -133.5t31 -183.5q0 -115 -44 -204.5t-121 -144.5t-177 -83t-217 -28z" />
    <glyph glyph-name="T" unicode="T" horiz-adv-x="1449" 
d="M61 1438h1328l30 -514h-84q-38 81 -59.5 126t-49.5 99t-46 80.5t-41.5 55.5t-44.5 41t-46 20t-55 8h-67v-1139q0 -76 31 -97t137 -32v-86h-738v86q106 11 137 32t31 97v1139h-67q-30 0 -55 -8t-46 -20t-44.5 -41t-41.5 -55.5t-46 -80.5t-49.5 -99t-59.5 -126h-84z" />
    <glyph glyph-name="U" unicode="U" horiz-adv-x="1542" 
d="M578 1214v-679q0 -383 313 -383q73 0 132.5 21.5t106.5 66.5t73 122.5t26 182.5v667q0 56 -14 82t-52.5 39t-124.5 19v86h475v-86q-53 -5 -80.5 -12t-43.5 -24t-19.5 -38.5t-3.5 -65.5v-706q0 -131 -44.5 -233.5t-122.5 -165.5t-180.5 -95t-223.5 -32q-299 0 -459 132.5
t-160 393.5v708q0 44 -3.5 65t-19.5 38t-43 23t-81 12v86h698v-86q-54 -6 -81.5 -12t-44 -23t-20 -38t-3.5 -65z" />
    <glyph glyph-name="V" unicode="V" horiz-adv-x="1497" 
d="M924 498l264 682q22 57 22 82q0 48 -29.5 67.5t-119.5 22.5v86h426v-86q-49 -7 -77 -22.5t-44 -53.5l-524 -1284h-115l-598 1284q-19 40 -44.5 54.5t-74.5 21.5v86h727v-86q-90 -3 -119.5 -22t-29.5 -66q0 -36 20 -84z" />
    <glyph glyph-name="W" unicode="W" horiz-adv-x="2064" 
d="M1333 -8l-274 801l-295 -801h-146l-489 1284q-24 63 -119 76v86h672v-86q-60 -4 -85.5 -24t-25.5 -56q0 -26 29 -111l240 -651l164 446l-109 320q-12 36 -36 53t-68 23v86h669v-86q-80 -1 -111.5 -22t-31.5 -66q0 -30 26 -125l199 -619l213 625q27 83 27 112
q0 90 -142 95v86h414v-86q-99 -14 -119 -76l-454 -1284h-148z" />
    <glyph glyph-name="X" unicode="X" horiz-adv-x="1529" 
d="M885 240l-236 344l-287 -365q-28 -39 -28 -63q0 -31 44 -50t122 -20v-86h-490v86q59 7 91 24t55 48l424 530l-402 592q-40 59 -127 72v86h713v-86q-61 0 -88 -13t-27 -47q0 -20 9.5 -39t35.5 -57l172 -258l215 281q29 39 29 69q0 61 -131 64v86h453v-86q-58 -7 -90.5 -24
t-57.5 -48l-350 -442l446 -664q30 -43 61.5 -62.5t78.5 -25.5v-86h-740v86q85 2 116.5 13.5t31.5 47.5q0 31 -43 93z" />
    <glyph glyph-name="Y" unicode="Y" horiz-adv-x="1447" 
d="M936 539v-324q0 -76 31 -97t139 -32v-86h-729v86q107 11 137.5 32t30.5 97v313l-416 748q-22 41 -46.5 55.5t-72.5 20.5v86h707v-86q-82 -3 -110.5 -19t-28.5 -55q0 -48 47 -131l262 -451l229 447q47 96 47 135q0 37 -34 54t-109 20v86h418v-86q-44 -6 -72 -23t-47 -53z
" />
    <glyph glyph-name="Z" unicode="Z" horiz-adv-x="1294" 
d="M498 96h258q67 0 113 15t94.5 60.5t93.5 112.5t114 189h89l-74 -473h-1153v72l719 1269h-244q-47 0 -81.5 -6.5t-63.5 -24.5t-50.5 -40.5t-45 -64t-44.5 -84.5t-52 -112q-5 -11 -7 -16h-84l18 445h1121v-72z" />
    <glyph glyph-name="bracketleft" unicode="[" horiz-adv-x="688" 
d="M408 1374v-1460q0 -27 4 -45.5t16 -31.5t25 -20.5t42 -12.5t54.5 -7.5t73.5 -5.5v-80h-449v1866h449v-80q-48 -3 -73.5 -5.5t-54.5 -7.5t-42 -12.5t-25 -20.5t-16 -31.5t-4 -45.5z" />
    <glyph glyph-name="backslash" unicode="\" horiz-adv-x="741" 
d="M586 -289l-568 1866h160l570 -1866h-162z" />
    <glyph glyph-name="bracketright" unicode="]" horiz-adv-x="688" 
d="M283 -86v1460q0 27 -4 45.5t-16 31.5t-25 20.5t-42 12.5t-54.5 7.5t-73.5 5.5v80h446v-1866h-446v80q48 3 73.5 5.5t54.5 7.5t42 12.5t25 20.5t16 31.5t4 45.5z" />
    <glyph glyph-name="asciicircum" unicode="^" horiz-adv-x="960" 
d="M557 1577l338 -594h-147l-269 483l-268 -483h-145l337 594h154z" />
    <glyph glyph-name="underscore" unicode="_" horiz-adv-x="847" 
d="M807 -289h-766v154h766v-154z" />
    <glyph glyph-name="grave" unicode="`" 
d="M254 1567h367l102 -336h-105l-364 317v19z" />
    <glyph glyph-name="a" unicode="a" horiz-adv-x="1134" 
d="M539 182q37 0 90 29v379l-113 -43q-60 -23 -89.5 -61.5t-29.5 -120.5q0 -83 34.5 -133t107.5 -50zM1001 768v-543q0 -44 11.5 -68t44.5 -24q41 0 69 12l15 -55q-110 -110 -271 -110q-89 0 -150.5 45t-84.5 127q-114 -166 -309 -166q-132 0 -212.5 72.5t-80.5 201.5
q0 64 21 114.5t61 85.5t84 58.5t104 44.5l326 115v209q0 157 -107 157q-110 0 -110 -161q0 -56 18 -144l-227 -30q-46 16 -73.5 52.5t-27.5 90.5q0 90 59.5 152.5t157 91t224.5 28.5q226 0 342 -82t116 -274z" />
    <glyph glyph-name="b" unicode="b" horiz-adv-x="1290" 
d="M113 1391l-113 57v61l428 95h64v-678q51 82 138 140t206 58q188 0 300.5 -129t112.5 -374q0 -154 -47 -277t-130 -202t-194 -120.5t-241 -41.5q-153 0 -291.5 34t-232.5 107v1270zM637 76q107 0 167 121t60 309q0 198 -66 296.5t-186 98.5q-68 0 -120 -35v-577
q0 -104 33.5 -158.5t111.5 -54.5z" />
    <glyph glyph-name="c" unicode="c" horiz-adv-x="1030" 
d="M371 659q0 -198 84 -310.5t237 -112.5q178 0 273 135l45 -29q-50 -183 -168.5 -272.5t-294.5 -89.5q-219 0 -361.5 146t-142.5 392q0 172 68.5 309.5t197 217t295.5 79.5q107 0 189.5 -26.5t134 -86.5t51.5 -147q0 -55 -26 -93.5t-64 -55.5h-195q8 60 8 116
q0 201 -131 201q-93 0 -146.5 -105t-53.5 -268z" />
    <glyph glyph-name="d" unicode="d" horiz-adv-x="1312" 
d="M643 1001q-107 0 -164 -104t-57 -281q0 -192 66 -307.5t184 -115.5q64 0 116 28v570q0 106 -34 158t-111 52zM788 1391l-112 57v61l428 95h63v-1368q0 -58 12 -80t58 -23l49 -2v-80l-434 -71h-70l6 192q-129 -192 -331 -192q-186 0 -300 138.5t-114 383.5
q0 146 42.5 263.5t116.5 193.5t172 116.5t212 40.5q128 0 202 -61v336z" />
    <glyph glyph-name="e" unicode="e" horiz-adv-x="1077" 
d="M590 1124q216 0 332 -123t116 -325v-51h-653q-3 -180 86 -288t231 -108q191 0 306 150l39 -25q-43 -174 -163.5 -274t-308.5 -100q-233 0 -382.5 147t-149.5 399q0 133 44 246.5t119 190t174.5 119t209.5 42.5zM565 1038q-82 0 -126 -85t-52 -234h328q0 157 -35 238
t-115 81z" />
    <glyph glyph-name="f" unicode="f" horiz-adv-x="774" 
d="M539 993v-803q0 -26 6.5 -44t16 -28.5t32.5 -18t44.5 -11t63.5 -8.5v-80h-655v80q67 5 91 19t24 61v833h-148v82l148 39v39q0 113 37 201t103 141.5t151.5 81t187.5 27.5q317 0 317 -199q0 -42 -20.5 -77t-54.5 -52h-193q10 48 10 96q0 65 -15 103t-58 38q-88 0 -88 -143
v-266h239v-111h-239z" />
    <glyph glyph-name="g" unicode="g" horiz-adv-x="1140" 
d="M530 385q-124 0 -225 35q-59 -52 -59 -103q0 -27 16 -43t45 -16h445q200 0 296.5 -80t96.5 -225q0 -194 -170.5 -302t-454.5 -108q-246 0 -385 65t-139 185q0 70 55 112t133 54q-63 24 -99 80.5t-36 124.5q0 168 201 276q-195 91 -195 295q0 181 136.5 285t353.5 104
q101 0 194 -28l365 8v-137h-92l-125 4q58 -38 92.5 -98t34.5 -134q0 -111 -64.5 -192t-173 -121.5t-246.5 -40.5zM768 -86h-541q-18 -21 -18 -76q0 -93 87 -145.5t234 -52.5q72 0 133.5 10t112.5 31t80 57t29 84q0 92 -117 92zM545 465q66 0 93.5 69t27.5 209
q0 126 -35 210.5t-103 84.5q-66 0 -94 -68t-28 -202q0 -131 36 -217t103 -86z" />
    <glyph glyph-name="h" unicode="h" horiz-adv-x="1353" 
d="M152 160v1231l-113 57v61l428 95h63v-684q162 204 381 204q149 0 229.5 -85t80.5 -251v-628q0 -47 23.5 -61t90.5 -19v-80h-602v80q66 5 87.5 19t21.5 61v598q0 72 -30.5 107.5t-106.5 35.5q-90 0 -175 -45v-696q0 -47 21.5 -61t87.5 -19v-80h-602v80q67 5 91 19t24 61z
" />
    <glyph glyph-name="i" unicode="i" horiz-adv-x="684" 
d="M537 1124v-964q0 -47 23.5 -61t90.5 -19v-80h-606v80q67 5 91 19t24 61v719l-113 69v58l426 118h64zM352 1214q-92 0 -146 55.5t-54 135.5t54 134t146 54q90 0 145.5 -54.5t55.5 -133.5t-55.5 -135t-145.5 -56z" />
    <glyph glyph-name="j" unicode="j" horiz-adv-x="618" 
d="M129 879l-115 69v58l428 118h64v-907q0 -164 -34 -256t-110 -168q-79 -78 -155.5 -126t-196.5 -103l-33 41l84 131q24 38 38.5 81t20.5 98t7.5 97.5t1.5 116.5v750zM315 1214q-91 0 -145.5 55.5t-54.5 135.5q0 79 54.5 133.5t145.5 54.5t146 -54.5t55 -133.5
q0 -80 -55 -135.5t-146 -55.5z" />
    <glyph glyph-name="k" unicode="k" horiz-adv-x="1306" 
d="M545 580l313 284q68 60 68 99q0 29 -26 41t-99 20v80h465v-80q-58 -8 -95.5 -23.5t-74.5 -52.5l-236 -221l447 -672v-55h-394zM152 160v1231l-113 57v61l428 95h63v-1444q0 -47 24 -61t91 -19v-80h-608v80q67 5 91 19t24 61z" />
    <glyph glyph-name="l" unicode="l" horiz-adv-x="675" 
d="M530 1604v-1444q0 -47 24 -61t91 -19v-80h-608v80q67 5 91 19t24 61v1231l-113 57v61l428 95h63z" />
    <glyph glyph-name="m" unicode="m" horiz-adv-x="1994" 
d="M1485 160v604q0 70 -27.5 104.5t-95.5 34.5q-66 0 -162 -47v-696q0 -48 19.5 -61.5t83.5 -18.5v-80h-584v80q64 5 83 18.5t19 61.5v604q0 70 -27.5 104.5t-93.5 34.5q-74 0 -163 -47v-696q0 -48 20 -61.5t84 -18.5v-80h-596v80q67 5 91 19t24 61v719l-113 69v58l428 118
h70l-8 -209q144 209 370 209q244 0 285 -213q62 93 157 153t218 60q144 0 220.5 -82.5t76.5 -242.5v-639q0 -47 23.5 -61t88.5 -19v-80h-594v80q64 5 83.5 18.5t19.5 61.5z" />
    <glyph glyph-name="n" unicode="n" horiz-adv-x="1359" 
d="M850 160v598q0 72 -30.5 107.5t-106.5 35.5q-88 0 -176 -45v-696q0 -47 22 -61t88 -19v-80h-602v80q67 5 91 19t24 61v719l-113 69v58l428 118h70l-8 -204q162 204 381 204q151 0 231 -84.5t80 -251.5v-628q0 -47 23.5 -61t90.5 -19v-80h-602v80q66 5 87.5 19t21.5 61z
" />
    <glyph glyph-name="o" unicode="o" horiz-adv-x="1230" 
d="M625 66q88 0 124.5 105t36.5 312q0 555 -180 555q-88 0 -125 -105.5t-37 -311.5q0 -555 181 -555zM614 -20q-255 0 -413 150t-158 400q0 259 161 426.5t412 167.5q255 0 413.5 -150.5t158.5 -400.5q0 -259 -161.5 -426t-412.5 -167z" />
    <glyph glyph-name="p" unicode="p" horiz-adv-x="1320" 
d="M668 76q107 0 167 121t60 309q0 198 -66 296.5t-186 98.5q-69 0 -121 -35v-575q0 -105 34 -160t112 -55zM143 -274v1153l-112 69v58l428 118h71l-8 -198q51 82 138 140t206 58q188 0 301 -129t113 -374q0 -154 -45 -277t-124 -202t-183.5 -120.5t-227.5 -41.5
q-126 0 -178 43v-289q0 -52 29.5 -66t128.5 -22v-80h-651v80q67 5 90.5 19t23.5 61z" />
    <glyph glyph-name="q" unicode="q" horiz-adv-x="1282" 
d="M643 1026q-106 0 -163.5 -107.5t-57.5 -285.5q0 -194 66.5 -317t183.5 -123q64 0 116 28v594q0 102 -38 156.5t-107 54.5zM788 -266v438q-126 -192 -331 -192q-186 0 -300 138.5t-114 383.5q0 146 43 265t118.5 196.5t176.5 119t219 41.5q219 0 350 -125l152 119h76
l-11 -246v-1146q0 -47 24 -61t91 -19v-80h-651v80q99 8 128 22t29 66z" />
    <glyph glyph-name="r" unicode="r" horiz-adv-x="935" 
d="M537 731v-541q0 -62 32.5 -80t130.5 -30v-80h-655v80q67 5 91 19t24 61v719l-113 69v58l428 118h70l-8 -315q63 179 125 247t159 68q69 0 103 -34v-285h-50q-119 0 -196 -13.5t-141 -60.5z" />
    <glyph glyph-name="s" unicode="s" horiz-adv-x="976" 
d="M465 -20q-244 0 -389 104l-13 276h95q32 -132 111.5 -213t195.5 -81q76 0 125 36.5t49 102.5q0 72 -50 109t-169 75q-184 57 -270.5 142t-86.5 235q0 168 116.5 263t305.5 95q208 0 353 -94v-246h-88q-20 108 -88 181t-170 73q-67 0 -107.5 -34.5t-40.5 -92.5
q0 -61 44 -95.5t153 -72.5q100 -33 164.5 -64.5t116 -76.5t75 -105.5t23.5 -142.5q0 -178 -122.5 -276t-332.5 -98z" />
    <glyph glyph-name="t" unicode="t" horiz-adv-x="800" 
d="M506 1382v-278h239v-111h-239v-678q0 -73 29 -107t88 -34q71 0 147 51l31 -45q-123 -200 -357 -200q-149 0 -234 80.5t-85 254.5v678h-117v68q121 45 229 129t189 192h80z" />
    <glyph glyph-name="u" unicode="u" horiz-adv-x="1325" 
d="M1180 862v-626q0 -59 11.5 -80.5t57.5 -22.5l49 -2v-80l-432 -71h-71l6 198q-32 -40 -64 -71.5t-77 -62t-102 -47.5t-122 -17q-142 0 -225.5 86.5t-83.5 257.5v501q0 49 -17 78.5t-63 40.5l-31 10v74l433 94h67l-12 -260v-502q0 -163 139 -163q68 0 158 41v587
q0 49 -17 78.5t-61 40.5l-31 10v74l430 94h68z" />
    <glyph glyph-name="v" unicode="v" horiz-adv-x="1228" 
d="M1219 1104v-80q-52 -17 -70.5 -32t-34.5 -50l-422 -950h-108l-469 950q-19 36 -36.5 51t-68.5 31v80h656v-80q-82 -11 -109 -25t-27 -47q0 -16 17 -57l217 -477l199 477q16 39 16 57q0 34 -26.5 47.5t-108.5 24.5v80h375z" />
    <glyph glyph-name="w" unicode="w" horiz-adv-x="1835" 
d="M1391 438l182 457q14 35 14 63q0 31 -26.5 44.5t-90.5 21.5v80h355v-80q-53 -17 -72 -32.5t-33 -49.5l-403 -950h-123l-242 633l-286 -633h-121l-430 950q-16 35 -34.5 50t-70.5 32v80h615v-80q-52 -8 -74.5 -22t-22.5 -41q0 -20 17 -66l194 -477l154 342l-70 182
q-12 34 -32.5 52t-61.5 30v80h606v-80q-72 -8 -99.5 -21t-27.5 -49q0 -18 13 -59z" />
    <glyph glyph-name="x" unicode="x" horiz-adv-x="1255" 
d="M690 211l-180 246l-180 -240q-27 -41 -27 -65q0 -31 32.5 -50t92.5 -22v-80h-418v80q93 24 142 86l290 385l-284 391q-21 29 -41.5 46t-63.5 36v80h609v-80q-95 -6 -95 -57q0 -30 33 -74l139 -195l142 189q34 46 34 78q0 47 -98 59v80h373v-80q-89 -25 -133 -86
l-252 -328l328 -450q40 -53 112 -80v-80h-633v80q111 3 111 55q0 32 -33 76z" />
    <glyph glyph-name="y" unicode="y" horiz-adv-x="1226" 
d="M760 373l203 520q16 43 16 59q0 33 -27 47t-108 25v80h373v-80q-52 -17 -71.5 -32.5t-33.5 -49.5l-467 -1120q-40 -95 -79 -152.5t-92.5 -90t-123.5 -32.5q-59 0 -104.5 23t-67.5 63v146q111 -21 160 -21q86 0 134.5 27.5t76.5 91.5l33 72l-467 993q-16 35 -34.5 50
t-70.5 32v80h656v-80q-82 -11 -109 -25t-27 -47q0 -10 15 -57z" />
    <glyph glyph-name="z" unicode="z" horiz-adv-x="1099" 
d="M37 0v68l581 942h-188q-79 0 -138 -70.5t-134 -241.5h-80l28 471h76l41 -67h824v-68l-570 -940h209q98 0 161 68t146 246h76l-45 -408h-987z" />
    <glyph glyph-name="braceleft" unicode="{" horiz-adv-x="751" 
d="M102 625v37q80 16 125 64t45 140v449q0 262 420 262v-59q-176 -22 -176 -201v-428q0 -110 -61 -165t-179 -81q118 -26 179 -81t61 -165v-426q0 -178 176 -200v-60q-420 0 -420 262v447q0 170 -170 205z" />
    <glyph glyph-name="bar" unicode="|" horiz-adv-x="419" 
d="M285 1577v-1866h-150v1866h150z" />
    <glyph glyph-name="braceright" unicode="}" horiz-adv-x="768" 
d="M666 662v-37q-170 -35 -170 -205v-447q0 -262 -420 -262v60q176 21 176 200v426q0 110 61 165t179 81q-118 26 -179 81t-61 165v428q0 180 -176 201v59q420 0 420 -262v-449q0 -92 45 -140t125 -64z" />
    <glyph glyph-name="asciitilde" unicode="~" horiz-adv-x="1009" 
d="M883 811l65 -31q-48 -165 -119 -246t-174 -81q-42 0 -90.5 23.5t-86 52t-83.5 52t-84 23.5q-58 0 -100.5 -36.5t-83.5 -104.5l-66 31q47 164 118 245.5t175 81.5q41 0 89.5 -23.5t85.5 -52t83 -52t84 -23.5q58 0 102.5 37t84.5 104z" />
    <glyph glyph-name="uni00A0" unicode="&#xa0;" horiz-adv-x="354" 
 />
    <glyph glyph-name="exclamdown" unicode="&#xa1;" horiz-adv-x="600" 
d="M104 1051q0 82 57.5 140t137.5 58q82 0 139.5 -58t57.5 -140q0 -85 -57.5 -144t-139.5 -59q-80 0 -137.5 59.5t-57.5 143.5zM240 750h118l166 -959h-450z" />
    <glyph glyph-name="cent" unicode="&#xa2;" horiz-adv-x="1091" 
d="M381 -236l41 234q-171 42 -272 182.5t-101 351.5q0 177 70.5 317.5t203.5 223t306 84.5l39 217h84l-39 -221q141 -14 227 -80t86 -182q0 -58 -27.5 -97.5t-68.5 -56.5h-156q8 60 8 123q0 155 -88 193l-141 -793q63 -35 158 -35q183 0 297 156l45 -27
q-49 -189 -176 -281.5t-310 -92.5q-23 0 -63 4l-39 -220h-84zM365 670q0 -240 112 -355l135 752q-111 -1 -179 -113t-68 -284z" />
    <glyph glyph-name="sterling" unicode="&#xa3;" horiz-adv-x="1423" 
d="M205 713v88h207l6 94q17 283 148.5 423t385.5 140q105 0 189.5 -25t139 -82t54.5 -139q0 -58 -30.5 -101.5t-75.5 -59.5h-199q27 75 27 155q0 37 -3 64.5t-11.5 55.5t-27.5 43t-48 15q-61 0 -93 -61.5t-45 -181.5l-36 -340h313v-88h-322l-2 -17q-24 -251 -92 -377
q74 -31 183.5 -48t203.5 -17q88 0 139.5 34.5t51.5 104.5q0 25 -15 72l58 18q63 -76 63 -192q0 -149 -87 -230t-247 -81q-231 0 -446 178q-54 -81 -140.5 -129.5t-195.5 -48.5t-173.5 58t-64.5 155q0 99 64 156t162 57q72 0 137 -23l23 330h-201zM233 82q62 0 99 51t41 146
q-73 43 -133 43q-56 0 -87.5 -33.5t-31.5 -93.5q0 -53 31 -83t81 -30z" />
    <glyph glyph-name="currency" unicode="&#xa4;" horiz-adv-x="1191" 
d="M135 1112l62 62l149 -154q107 90 250 90t250 -90l149 154l62 -62l-152 -151q84 -111 84 -254q0 -146 -84 -254l152 -152l-62 -61l-149 151q-109 -88 -250 -88t-250 88l-149 -151l-62 61l152 152q-84 108 -84 254q0 143 84 254zM317 707q0 -129 80 -213t199 -84
t198.5 83.5t79.5 213.5t-79.5 214.5t-198.5 84.5t-199 -84.5t-80 -214.5z" />
    <glyph glyph-name="yen" unicode="&#xa5;" horiz-adv-x="1406" 
d="M911 559v-18h328v-90h-328v-236q0 -76 31 -97t139 -32v-86h-721v86q107 11 137.5 32t30.5 97v236h-340v90h340v18l-79 143h-261v93h209l-268 481q-22 41 -46.5 55.5t-72.5 20.5v86h699v-86q-82 -3 -111 -19.5t-29 -56.5q0 -46 47 -129l238 -440l221 436q35 75 35 133
q0 39 -32 56t-107 20v86h426v-86q-46 -6 -73.5 -23t-45.5 -53l-246 -481h207v-93h-254z" />
    <glyph glyph-name="brokenbar" unicode="&#xa6;" horiz-adv-x="419" 
d="M285 1577v-770h-150v770h150zM285 481v-770h-150v770h150z" />
    <glyph glyph-name="section" unicode="&#xa7;" horiz-adv-x="1083" 
d="M319 1290q-66 -67 -95 -140.5t-29 -180.5q0 -149 60 -283t175 -293q18 -26 65 -90t75 -103.5t68.5 -104.5t64 -115.5t42 -112t19.5 -115.5q66 68 95.5 141.5t29.5 180.5q0 147 -60.5 281.5t-175.5 293.5q-17 24 -65 89t-75.5 103.5t-68.5 104.5t-64 115.5t-41.5 111.5
t-19.5 117zM473 -416q-149 0 -239.5 63t-90.5 165q0 89 88 120h181v-90q0 -188 139 -188q62 0 91.5 36t29.5 95q0 49 -18 101.5t-55 112t-70.5 105.5t-90 119t-86.5 115q-123 171 -187.5 318.5t-64.5 312.5q0 218 146.5 353.5t363.5 135.5q147 0 238.5 -62.5t91.5 -162.5
q0 -92 -90 -123h-178v90q0 191 -140 191q-62 0 -92 -37t-30 -94q0 -49 18 -102t55 -112t71.5 -106t90 -119t86.5 -116q123 -173 187.5 -320t64.5 -311q0 -218 -146.5 -354t-363.5 -136z" />
    <glyph glyph-name="dieresis" unicode="&#xa8;" 
d="M139 1407q0 71 50 120.5t122 49.5q71 0 121.5 -50t50.5 -120q0 -69 -51 -119.5t-121 -50.5q-71 0 -121.5 50.5t-50.5 119.5zM557 1407q0 70 51 120t119 50q75 0 125.5 -49.5t50.5 -120.5q0 -70 -51 -120t-125 -50q-68 0 -119 50.5t-51 119.5z" />
    <glyph glyph-name="copyright" unicode="&#xa9;" horiz-adv-x="1597" 
d="M143 719q0 -136 49 -259t134 -213t208.5 -143t264.5 -53q188 0 339 90.5t233.5 242.5t82.5 335t-82.5 335t-233.5 242t-339 90q-141 0 -264.5 -53t-208.5 -143t-134 -212.5t-49 -258.5zM66 719q0 203 93 371.5t262 268t378 99.5t378 -99.5t262 -268t93 -371.5t-93 -371.5
t-262 -268t-378 -99.5t-378 99.5t-262 268t-93 371.5zM856 362q78 0 130 60t89 178h74l-19 -233q-123 -78 -294 -78q-203 0 -320 115.5t-117 300.5q0 204 126 327t313 123q179 0 282 -86v-213h-71q-45 225 -193 225q-53 0 -93.5 -29.5t-63.5 -80t-34.5 -112t-11.5 -132.5
q0 -169 52 -267t151 -98z" />
    <glyph glyph-name="ordfeminine" unicode="&#xaa;" horiz-adv-x="847" 
d="M383 846q38 0 74 24v230l-72 -31q-43 -20 -60.5 -48t-17.5 -75q0 -49 20 -74.5t56 -25.5zM698 1188v-299q0 -74 45 -74q33 0 58 10l10 -39q-76 -79 -182 -79q-64 0 -109 35t-59 94q-74 -123 -215 -123q-83 0 -134 49t-51 131q0 42 14 74.5t41.5 54.5t56 36.5t69.5 28.5
l215 72v103q0 73 -15.5 106t-56.5 33q-74 0 -74 -96q0 -41 17 -101l-168 -22q-27 9 -43.5 35t-16.5 59q0 88 81.5 135t219.5 47q156 0 226.5 -60.5t70.5 -209.5z" />
    <glyph glyph-name="guillemotleft" unicode="&#xab;" horiz-adv-x="960" 
d="M47 559v12l383 410h94l-184 -416l184 -418h-94zM436 559v12l383 410h94l-184 -416l184 -418h-94z" />
    <glyph glyph-name="registered" unicode="&#xae;" horiz-adv-x="1054" 
d="M500 1198h-19v-201h19q45 0 70.5 27.5t25.5 75.5q0 46 -25 72t-71 26zM299 1245h233q100 0 150.5 -41t50.5 -104q0 -51 -31.5 -85t-76.5 -48l90 -123q19 -26 33 -37t36 -12v-37h-141q-34 20 -63 67l-84 129h-15v-108q0 -31 9 -41t40 -10v-37h-231v37q34 0 44.5 10.5
t10.5 40.5v309q0 32 -9.5 40t-45.5 11v39zM131 991q0 -164 113 -282.5t282 -118.5q170 0 284 118.5t114 282.5q0 166 -114 285t-284 119q-169 0 -282 -119t-113 -285zM61 991q0 196 132.5 331.5t332.5 135.5q133 0 240.5 -63t167 -169.5t59.5 -234.5q0 -195 -133 -330
t-334 -135q-200 0 -332.5 135.5t-132.5 329.5z" />
    <glyph glyph-name="macron" unicode="&#xaf;" 
d="M229 1280v176h586v-176h-586z" />
    <glyph glyph-name="degree" unicode="&#xb0;" horiz-adv-x="583" 
d="M150 1210q0 -69 38.5 -110t106.5 -41q64 0 101.5 41.5t37.5 109.5q0 67 -37.5 109.5t-101.5 42.5q-68 0 -106.5 -42t-38.5 -110zM41 1210q0 104 73.5 176t180.5 72q103 0 175.5 -72t72.5 -176q0 -105 -72.5 -177t-175.5 -72q-107 0 -180.5 71.5t-73.5 177.5z" />
    <glyph glyph-name="plusminus" unicode="&#xb1;" horiz-adv-x="1175" 
d="M518 1243h137v-293h385v-135h-385v-289h-137v289h-381v135h381v293zM137 281v137h903v-137h-903z" />
    <glyph glyph-name="twosuperior" unicode="&#xb2;" horiz-adv-x="804" 
d="M311 813h221q48 0 71.5 16t58.5 70h43l-23 -278h-621v51l234 219q75 72 108 130.5t33 123.5q0 64 -34 100.5t-99 36.5q-103 0 -182 -90l-43 37q47 97 133 160t203 63q119 0 187.5 -62.5t68.5 -172.5q0 -43 -12 -82t-39 -75t-55 -65.5t-75 -64t-83 -58t-95 -59.5z" />
    <glyph glyph-name="threesuperior" unicode="&#xb3;" horiz-adv-x="792" 
d="M446 1081q120 -3 192.5 -60.5t72.5 -158.5q0 -115 -98 -179.5t-246 -64.5q-142 0 -214.5 48t-72.5 122q0 67 57 97h137q-8 -33 -8 -62q0 -67 29 -106t82 -39t84 38.5t31 114.5q0 79 -45.5 123.5t-131.5 44.5h-30l-13 45q89 34 125.5 68t36.5 84q0 45 -29.5 73.5
t-85.5 28.5q-89 0 -157 -88l-49 37q44 92 126 151.5t197 59.5q106 0 167 -49.5t61 -134.5q0 -80 -62.5 -129t-155.5 -64z" />
    <glyph glyph-name="acute" unicode="&#xb4;" 
d="M356 1567h367v-19l-363 -317h-106z" />
    <glyph glyph-name="mu" unicode="&#xb5;" horiz-adv-x="1325" 
d="M481 -10l27 -342v-31l-381 -20v1228q0 49 -17 78.5t-63 40.5l-31 10v74l433 94h67l-12 -260v-502q0 -163 139 -163q68 0 158 41v587q0 49 -17 78.5t-61 40.5l-31 10v74l430 94h68l-10 -260v-626q0 -59 11.5 -80.5t57.5 -22.5l49 -2v-80l-432 -71h-71l6 198
q-41 -95 -114.5 -146.5t-168.5 -51.5q-20 0 -37 10z" />
    <glyph glyph-name="paragraph" unicode="&#xb6;" horiz-adv-x="1261" 
d="M645 -403v813q-133 0 -241.5 41t-177.5 112.5t-106.5 164t-37.5 198.5q0 105 37 197.5t107 163t178 111t241 40.5h563v-82q-123 -2 -166 -30.5t-43 -119.5v-1609h-96v1757h-162v-1757h-96zM645 489v869q-77 -8 -133 -74.5t-81 -159.5t-25 -198t25 -199.5t81 -162.5
t133 -75z" />
    <glyph glyph-name="periodcentered" unicode="&#xb7;" horiz-adv-x="536" 
d="M61 623q0 90 60 149t147 59t147 -59t60 -149q0 -88 -60 -146.5t-147 -58.5t-147 58.5t-60 146.5z" />
    <glyph glyph-name="cedilla" unicode="&#xb8;" 
d="M309 -473l-16 72q105 0 160 28t55 70q0 40 -39 54.5t-123 17.5l100 247h76l-39 -98q98 0 156.5 -44.5t58.5 -123.5q0 -74 -55.5 -125.5t-141 -74.5t-192.5 -23z" />
    <glyph glyph-name="onesuperior" unicode="&#xb9;" horiz-adv-x="700" 
d="M406 1458h65v-678q0 -52 24.5 -65t114.5 -19v-69h-528v69q100 6 121.5 18.5t21.5 65.5v445h-143v63l51 10q99 20 160.5 57t112.5 103z" />
    <glyph glyph-name="ordmasculine" unicode="&#xba;" horiz-adv-x="860" 
d="M440 770q109 0 109 285q0 152 -33 246t-96 94q-109 0 -109 -283q0 -154 33 -248t96 -94zM420 707q-165 0 -266 100t-101 262q0 177 107 283t280 106q165 0 266 -100t101 -262q0 -177 -107 -283t-280 -106z" />
    <glyph glyph-name="guillemotright" unicode="&#xbb;" horiz-adv-x="960" 
d="M913 571v-12l-383 -412h-94l185 418l-185 416h94zM524 571v-12l-383 -412h-94l184 418l-184 416h94z" />
    <glyph glyph-name="onequarter" unicode="&#xbc;" horiz-adv-x="1634" 
d="M883 293h272v342zM406 1458h65v-678q0 -52 24.5 -65t114.5 -19v-69h-528v69q100 6 121.5 18.5t21.5 65.5v445h-143v63l51 10q99 20 160.5 57t112.5 103zM307 -20l897 1478h113l-899 -1478h-111zM1509 0h-465v70q71 5 91 18.5t20 65.5v61h-385v61l418 537h211v-520h160
v-78h-160v-61q0 -52 19.5 -65.5t90.5 -18.5v-70z" />
    <glyph glyph-name="onehalf" unicode="&#xbd;" horiz-adv-x="1658" 
d="M406 1458h65v-678q0 -52 24.5 -65t114.5 -19v-69h-528v69q100 6 121.5 18.5t21.5 65.5v445h-143v63l51 10q99 20 160.5 57t112.5 103zM307 -20l897 1478h113l-899 -1478h-111zM1165 193h219q49 0 72 15.5t60 70.5h43l-25 -279h-619v51l234 219q75 70 108 129t33 125
q0 64 -35 101t-100 37q-104 0 -180 -91l-43 37q47 97 132.5 159t203.5 62q119 0 186.5 -61.5t67.5 -171.5q0 -51 -20.5 -99t-48.5 -83.5t-82 -79t-94 -70t-112 -71.5z" />
    <glyph glyph-name="threequarters" unicode="&#xbe;" horiz-adv-x="1681" 
d="M449 1083q119 -3 190.5 -61t71.5 -158q0 -77 -47.5 -134t-124 -84.5t-172.5 -27.5q-142 0 -214.5 48t-72.5 122q0 67 57 97h137q-8 -33 -8 -62q0 -67 29 -106t82 -39t84 38.5t31 114.5q0 79 -45.5 123.5t-131.5 44.5h-30l-13 45q89 34 125.5 68t36.5 84q0 45 -30 73.5
t-85 28.5q-89 0 -157 -88l-49 37q44 92 126 151.5t197 59.5q106 0 167 -49.5t61 -134.5q0 -80 -61.5 -128t-153.5 -63zM928 293h272v342zM354 -20l897 1478h111l-899 -1478h-109zM1554 0h-462v70q69 5 88.5 18.5t19.5 65.5v61h-385v61l418 537h211v-520h162v-78h-162v-61
q0 -52 19.5 -65.5t90.5 -18.5v-70z" />
    <glyph glyph-name="questiondown" unicode="&#xbf;" horiz-adv-x="956" 
d="M340 8q0 -73 37 -115.5t106 -42.5q81 0 117.5 58t36.5 145q0 36 -10 119h225q82 -42 82 -133q0 -122 -122.5 -195t-324.5 -73q-217 0 -334.5 90.5t-117.5 257.5q0 126 69.5 216.5t212.5 174.5q90 55 126 101t36 118v27h51q74 -29 117 -86.5t43 -137.5q0 -143 -160 -260
q-49 -37 -75 -59t-57 -56t-44.5 -70t-13.5 -79zM702 1051q0 -84 -57 -143.5t-137 -59.5q-83 0 -140 59t-57 144q0 82 57 140t140 58q80 0 137 -58t57 -140z" />
    <glyph glyph-name="Agrave" unicode="&#xc0;" horiz-adv-x="1554" 
d="M965 256l-74 188h-522l-70 -186q-16 -50 -16 -76q0 -49 40.5 -70t127.5 -26v-86h-441v86q47 7 75 22.5t44 53.5l426 1110l-70 170h428l510 -1280q14 -37 43 -53t78 -23v-86h-723v86q82 3 121 23.5t39 70.5q0 26 -16 76zM623 1122l-213 -567h436zM352 1827h369l100 -305
h-112l-357 286v19z" />
    <glyph glyph-name="Aacute" unicode="&#xc1;" horiz-adv-x="1554" 
d="M965 256l-74 188h-522l-70 -186q-16 -50 -16 -76q0 -49 40.5 -70t127.5 -26v-86h-441v86q47 7 75 22.5t44 53.5l426 1110l-70 170h428l510 -1280q14 -37 43 -53t78 -23v-86h-723v86q82 3 121 23.5t39 70.5q0 26 -16 76zM623 1122l-213 -567h436zM713 1827h368v-19
l-354 -286h-115z" />
    <glyph glyph-name="Acircumflex" unicode="&#xc2;" horiz-adv-x="1554" 
d="M965 256l-74 188h-522l-70 -186q-16 -50 -16 -76q0 -49 40.5 -70t127.5 -26v-86h-441v86q47 7 75 22.5t44 53.5l426 1110l-70 170h428l510 -1280q14 -37 43 -53t78 -23v-86h-723v86q82 3 121 23.5t39 70.5q0 26 -16 76zM623 1122l-213 -567h436zM852 1835l246 -313h-117
l-256 143l-256 -143h-117l246 313h254z" />
    <glyph glyph-name="Atilde" unicode="&#xc3;" horiz-adv-x="1554" 
d="M965 256l-74 188h-522l-70 -186q-16 -50 -16 -76q0 -49 40.5 -70t127.5 -26v-86h-441v86q47 7 75 22.5t44 53.5l426 1110l-70 170h428l510 -1280q14 -37 43 -53t78 -23v-86h-723v86q82 3 121 23.5t39 70.5q0 26 -16 76zM866 1522q-43 0 -85.5 19t-70.5 42.5t-62 42.5
t-64 19q-40 0 -71 -29t-64 -86l-74 41q57 144 110 210t131 66q43 0 85.5 -19t70.5 -42.5t62.5 -42.5t64.5 -19q40 0 71 28.5t64 84.5l74 -39q-57 -145 -110 -210.5t-132 -65.5zM623 1122l-213 -567h436z" />
    <glyph glyph-name="Adieresis" unicode="&#xc4;" horiz-adv-x="1554" 
d="M965 256l-74 188h-522l-70 -186q-16 -50 -16 -76q0 -49 40.5 -70t127.5 -26v-86h-441v86q47 7 75 22.5t44 53.5l426 1110l-70 170h428l510 -1280q14 -37 43 -53t78 -23v-86h-723v86q82 3 121 23.5t39 70.5q0 26 -16 76zM623 1122l-213 -567h436zM340 1686q0 69 51 119
t121 50q71 0 122.5 -50t51.5 -119q0 -70 -51.5 -120t-122.5 -50t-121.5 50t-50.5 120zM762 1686q0 69 51 119t119 50q73 0 124.5 -50t51.5 -119q0 -71 -51.5 -120.5t-124.5 -49.5q-68 0 -119 50t-51 120z" />
    <glyph glyph-name="Aring" unicode="&#xc5;" horiz-adv-x="1554" 
d="M965 256l-74 188h-522l-70 -186q-16 -50 -16 -76q0 -49 40.5 -70t127.5 -26v-86h-441v86q47 7 75 22.5t44 53.5l426 1110l-70 170h428l510 -1280q14 -37 43 -53t78 -23v-86h-723v86q82 3 121 23.5t39 70.5q0 26 -16 76zM508 1694q0 88 60.5 148.5t152.5 60.5
q91 0 151 -60t60 -149q0 -87 -60 -146t-151 -59q-92 0 -152.5 59t-60.5 146zM623 1122l-213 -567h436zM618 1694q0 -46 27.5 -74.5t75.5 -28.5t75 28.5t27 74.5q0 47 -27 76.5t-75 29.5t-75.5 -29.5t-27.5 -76.5z" />
    <glyph glyph-name="AE" unicode="&#xc6;" horiz-adv-x="2129" 
d="M129 162l705 1124q-46 57 -193 66v86h1378l11 -396h-78q-36 76 -61 120t-54.5 83t-61.5 57.5t-73 28.5t-98 10h-211v-542h198q69 0 96.5 40t41.5 148h88v-491h-88q-14 108 -42 149t-96 41h-198v-453q0 -80 38.5 -108.5t127.5 -28.5h71q56 0 97 13t70.5 30t66.5 69.5
t62 95t79 142.5h92l-65 -446h-1188v86q100 10 123.5 33t23.5 104v285h-502l-155 -250q-31 -54 -31 -84q0 -82 182 -88v-86h-475v86q43 6 70 22.5t49 53.5zM991 1309l-432 -691h432v691z" />
    <glyph glyph-name="Ccedilla" unicode="&#xc7;" horiz-adv-x="1398" 
d="M618 -473l-16 72q105 0 160 28t55 70q0 40 -39 54.5t-123 17.5l86 213q-322 19 -505 204.5t-183 493.5q0 176 61 323.5t166 246.5t246 153.5t301 54.5q275 0 457 -121l6 -358h-100q-39 187 -124.5 282t-225.5 95q-93 0 -164 -47.5t-114 -133t-64 -195.5t-21 -243
q0 -190 42.5 -334.5t130 -229.5t210.5 -85q132 0 227.5 103t155.5 329h103l-35 -407q-87 -63 -216 -97t-278 -36l-24 -62q98 0 156.5 -44.5t58.5 -123.5q0 -74 -56 -125.5t-141.5 -74.5t-192.5 -23z" />
    <glyph glyph-name="Egrave" unicode="&#xc8;" horiz-adv-x="1341" 
d="M342 1827h369l100 -305h-113l-356 286v19zM53 0v86q71 7 101 19.5t39.5 36.5t9.5 81v991q0 43 -3.5 64.5t-20.5 38.5t-44.5 23t-81.5 12v86h1178l10 -396h-78q-36 76 -61 120t-54.5 83t-61.5 57.5t-73 28.5t-98 10h-211v-542h199q68 0 95.5 40t41.5 148h88v-491h-88
q-14 109 -41.5 149.5t-95.5 40.5h-199v-453q0 -80 38.5 -108.5t127.5 -28.5h72q35 0 62 3t53 14.5t44.5 21.5t41.5 35.5t38.5 45t41 62.5t43 74.5t51.5 93.5h92l-66 -446h-1190z" />
    <glyph glyph-name="Eacute" unicode="&#xc9;" horiz-adv-x="1341" 
d="M694 1827h369v-19l-354 -286h-115zM53 0v86q71 7 101 19.5t39.5 36.5t9.5 81v991q0 43 -3.5 64.5t-20.5 38.5t-44.5 23t-81.5 12v86h1178l10 -396h-78q-36 76 -61 120t-54.5 83t-61.5 57.5t-73 28.5t-98 10h-211v-542h199q68 0 95.5 40t41.5 148h88v-491h-88
q-14 109 -41.5 149.5t-95.5 40.5h-199v-453q0 -80 38.5 -108.5t127.5 -28.5h72q35 0 62 3t53 14.5t44.5 21.5t41.5 35.5t38.5 45t41 62.5t43 74.5t51.5 93.5h92l-66 -446h-1190z" />
    <glyph glyph-name="Ecircumflex" unicode="&#xca;" horiz-adv-x="1341" 
d="M53 0v86q71 7 101 19.5t39.5 36.5t9.5 81v991q0 43 -3.5 64.5t-20.5 38.5t-44.5 23t-81.5 12v86h1178l10 -396h-78q-36 76 -61 120t-54.5 83t-61.5 57.5t-73 28.5t-98 10h-211v-542h199q68 0 95.5 40t41.5 148h88v-491h-88q-14 109 -41.5 149.5t-95.5 40.5h-199v-453
q0 -80 38.5 -108.5t127.5 -28.5h72q35 0 62 3t53 14.5t44.5 21.5t41.5 35.5t38.5 45t41 62.5t43 74.5t51.5 93.5h92l-66 -446h-1190zM831 1835l246 -313h-116l-256 143l-256 -143h-117l246 313h253z" />
    <glyph glyph-name="Edieresis" unicode="&#xcb;" horiz-adv-x="1341" 
d="M322 1686q0 69 51 119t121 50q71 0 122.5 -50t51.5 -119q0 -70 -51.5 -120t-122.5 -50t-121.5 50t-50.5 120zM743 1686q0 69 51 119t119 50q73 0 125 -50t52 -119q0 -71 -52 -120.5t-125 -49.5q-68 0 -119 50t-51 120zM53 0v86q71 7 101 19.5t39.5 36.5t9.5 81v991
q0 43 -3.5 64.5t-20.5 38.5t-44.5 23t-81.5 12v86h1178l10 -396h-78q-36 76 -61 120t-54.5 83t-61.5 57.5t-73 28.5t-98 10h-211v-542h199q68 0 95.5 40t41.5 148h88v-491h-88q-14 109 -41.5 149.5t-95.5 40.5h-199v-453q0 -80 38.5 -108.5t127.5 -28.5h72q35 0 62 3
t53 14.5t44.5 21.5t41.5 35.5t38.5 45t41 62.5t43 74.5t51.5 93.5h92l-66 -446h-1190z" />
    <glyph glyph-name="Igrave" unicode="&#xcc;" horiz-adv-x="806" 
d="M604 1214v-991q0 -81 24 -104t124 -33v-86h-699v86q71 7 101 19.5t39.5 36.5t9.5 81v991q0 43 -3.5 64.5t-20.5 38.5t-44.5 23t-81.5 12v86h699v-86q-100 -10 -124 -33.5t-24 -104.5zM39 1827h369l100 -305h-113l-356 286v19z" />
    <glyph glyph-name="Iacute" unicode="&#xcd;" horiz-adv-x="806" 
d="M604 1214v-991q0 -81 24 -104t124 -33v-86h-699v86q71 7 101 19.5t39.5 36.5t9.5 81v991q0 43 -3.5 64.5t-20.5 38.5t-44.5 23t-81.5 12v86h699v-86q-100 -10 -124 -33.5t-24 -104.5zM391 1827h369v-19l-354 -286h-115z" />
    <glyph glyph-name="Icircumflex" unicode="&#xce;" horiz-adv-x="806" 
d="M604 1214v-991q0 -81 24 -104t124 -33v-86h-699v86q71 7 101 19.5t39.5 36.5t9.5 81v991q0 43 -3.5 64.5t-20.5 38.5t-44.5 23t-81.5 12v86h699v-86q-100 -10 -124 -33.5t-24 -104.5zM528 1835l242 -313h-115l-252 143l-251 -143h-115l242 313h249z" />
    <glyph glyph-name="Idieresis" unicode="&#xcf;" horiz-adv-x="806" 
d="M604 1214v-991q0 -81 24 -104t124 -33v-86h-699v86q71 7 101 19.5t39.5 36.5t9.5 81v991q0 43 -3.5 64.5t-20.5 38.5t-44.5 23t-81.5 12v86h699v-86q-100 -10 -124 -33.5t-24 -104.5zM18 1686q0 69 51 119t121 50q71 0 123 -50t52 -119q0 -70 -52 -120t-123 -50
t-121.5 50t-50.5 120zM440 1686q0 69 51 119t119 50q73 0 124.5 -50t51.5 -119q0 -71 -51.5 -120.5t-124.5 -49.5q-68 0 -119 50t-51 120z" />
    <glyph glyph-name="Eth" unicode="&#xd0;" horiz-adv-x="1636" 
d="M74 666v127h149v421q0 44 -3.5 65t-20 38t-44 23t-81.5 12v86h674q207 0 368.5 -53.5t261.5 -149t151.5 -222t51.5 -278.5q0 -345 -212 -540t-574 -195h-721v86q54 6 81.5 12t44 22.5t20 37.5t3.5 65v443h-149zM678 1341h-53v-548h264v-127h-264v-426q0 -86 32.5 -115
t106.5 -29h18q174 0 278.5 163.5t104.5 436.5q0 299 -127.5 472t-359.5 173z" />
    <glyph glyph-name="Ntilde" unicode="&#xd1;" horiz-adv-x="1544" 
d="M942 1522q-43 0 -85.5 19t-70.5 42.5t-62.5 42.5t-64.5 19q-40 0 -71 -29t-64 -86l-73 41q57 144 110 210t131 66q43 0 85.5 -19t70.5 -42.5t62.5 -42.5t64.5 -19q40 0 71 28.5t64 84.5l74 -39q-57 -145 -110 -210.5t-132 -65.5zM1223 627v585q0 78 -40 104.5t-167 35.5
v86h491v-86q-53 -5 -80.5 -12t-43.5 -24t-19.5 -38.5t-3.5 -65.5v-1214h-146l-874 1081v-854q0 -78 40 -104t167 -35v-86h-492v86q53 6 80.5 12.5t44 23t20 38.5t3.5 65v996q-42 72 -71.5 100t-78.5 31v86h516z" />
    <glyph glyph-name="Ograve" unicode="&#xd2;" horiz-adv-x="1529" 
d="M408 1827h368l101 -305h-113l-356 286v19zM774 78q74 0 130 53t87 143.5t45.5 195.5t14.5 224q0 142 -16.5 259t-51 210t-93 145t-136.5 52q-74 0 -130 -53t-87 -143.5t-45.5 -196t-14.5 -224.5q0 -142 16.5 -259t51 -209.5t93 -144.5t136.5 -52zM745 -20
q-166 0 -299.5 57t-218 155.5t-129.5 225.5t-45 272q0 174 54.5 318.5t151.5 242.5t231.5 152.5t291.5 54.5q166 0 299.5 -57t218.5 -155.5t130 -225.5t45 -272q0 -231 -94 -406.5t-259.5 -268.5t-376.5 -93z" />
    <glyph glyph-name="Oacute" unicode="&#xd3;" horiz-adv-x="1529" 
d="M760 1827h368v-19l-354 -286h-115zM774 78q74 0 130 53t87 143.5t45.5 195.5t14.5 224q0 142 -16.5 259t-51 210t-93 145t-136.5 52q-74 0 -130 -53t-87 -143.5t-45.5 -196t-14.5 -224.5q0 -142 16.5 -259t51 -209.5t93 -144.5t136.5 -52zM745 -20q-166 0 -299.5 57
t-218 155.5t-129.5 225.5t-45 272q0 174 54.5 318.5t151.5 242.5t231.5 152.5t291.5 54.5q166 0 299.5 -57t218.5 -155.5t130 -225.5t45 -272q0 -231 -94 -406.5t-259.5 -268.5t-376.5 -93z" />
    <glyph glyph-name="Ocircumflex" unicode="&#xd4;" horiz-adv-x="1529" 
d="M774 78q74 0 130 53t87 143.5t45.5 195.5t14.5 224q0 142 -16.5 259t-51 210t-93 145t-136.5 52q-74 0 -130 -53t-87 -143.5t-45.5 -196t-14.5 -224.5q0 -142 16.5 -259t51 -209.5t93 -144.5t136.5 -52zM745 -20q-166 0 -299.5 57t-218 155.5t-129.5 225.5t-45 272
q0 174 54.5 318.5t151.5 242.5t231.5 152.5t291.5 54.5q166 0 299.5 -57t218.5 -155.5t130 -225.5t45 -272q0 -231 -94 -406.5t-259.5 -268.5t-376.5 -93zM899 1835l246 -313h-117l-256 143l-256 -143h-117l246 313h254z" />
    <glyph glyph-name="Otilde" unicode="&#xd5;" horiz-adv-x="1529" 
d="M930 1522q-43 0 -85.5 19t-70.5 42.5t-62.5 42.5t-64.5 19q-40 0 -71 -29t-64 -86l-74 41q57 144 110.5 210t131.5 66q43 0 85.5 -19t70.5 -42.5t62.5 -42.5t64.5 -19q40 0 71 28.5t64 84.5l73 -39q-57 -145 -109.5 -210.5t-131.5 -65.5zM774 78q74 0 130 53t87 143.5
t45.5 195.5t14.5 224q0 142 -16.5 259t-51 210t-93 145t-136.5 52q-74 0 -130 -53t-87 -143.5t-45.5 -196t-14.5 -224.5q0 -142 16.5 -259t51 -209.5t93 -144.5t136.5 -52zM745 -20q-166 0 -299.5 57t-218 155.5t-129.5 225.5t-45 272q0 174 54.5 318.5t151.5 242.5
t231.5 152.5t291.5 54.5q166 0 299.5 -57t218.5 -155.5t130 -225.5t45 -272q0 -231 -94 -406.5t-259.5 -268.5t-376.5 -93z" />
    <glyph glyph-name="Odieresis" unicode="&#xd6;" horiz-adv-x="1529" 
d="M387 1686q0 69 51 119t121 50q71 0 122.5 -50t51.5 -119q0 -70 -51.5 -120t-122.5 -50t-121.5 50t-50.5 120zM809 1686q0 69 51 119t119 50q73 0 124.5 -50t51.5 -119q0 -71 -51.5 -120.5t-124.5 -49.5q-68 0 -119 50t-51 120zM774 78q74 0 130 53t87 143.5t45.5 195.5
t14.5 224q0 142 -16.5 259t-51 210t-93 145t-136.5 52q-74 0 -130 -53t-87 -143.5t-45.5 -196t-14.5 -224.5q0 -142 16.5 -259t51 -209.5t93 -144.5t136.5 -52zM745 -20q-166 0 -299.5 57t-218 155.5t-129.5 225.5t-45 272q0 174 54.5 318.5t151.5 242.5t231.5 152.5
t291.5 54.5q166 0 299.5 -57t218.5 -155.5t130 -225.5t45 -272q0 -231 -94 -406.5t-259.5 -268.5t-376.5 -93z" />
    <glyph glyph-name="multiply" unicode="&#xd7;" horiz-adv-x="1017" 
d="M414 748l-281 280l96 98l279 -284l280 284l99 -98l-283 -280l283 -281l-99 -94l-280 280l-279 -280l-96 94z" />
    <glyph glyph-name="Oslash" unicode="&#xd8;" horiz-adv-x="1529" 
d="M745 -20q-219 0 -376 96l-148 -197l-80 62l146 194q-115 96 -174.5 241t-59.5 314q0 174 54.5 318.5t151.5 242.5t231.5 152.5t291.5 54.5q240 0 408 -117l137 185l80 -60l-141 -188q102 -97 155.5 -235t53.5 -295q0 -231 -94 -406.5t-259.5 -268.5t-376.5 -93zM477 743
q0 -175 27 -319l502 672q-35 125 -98 194.5t-154 69.5q-74 0 -130 -53t-87 -143.5t-45.5 -196t-14.5 -224.5zM774 78q74 0 130 53t87 143.5t45.5 195.5t14.5 224q0 141 -19 271l-497 -666q77 -221 239 -221z" />
    <glyph glyph-name="Ugrave" unicode="&#xd9;" horiz-adv-x="1542" 
d="M489 1827h369l100 -305h-112l-357 286v19zM578 1214v-679q0 -383 313 -383q73 0 132.5 21.5t106.5 66.5t73 122.5t26 182.5v667q0 56 -14 82t-52.5 39t-124.5 19v86h475v-86q-53 -5 -80.5 -12t-43.5 -24t-19.5 -38.5t-3.5 -65.5v-706q0 -131 -44.5 -233.5t-122.5 -165.5
t-180.5 -95t-223.5 -32q-299 0 -459 132.5t-160 393.5v708q0 44 -3.5 65t-19.5 38t-43 23t-81 12v86h698v-86q-54 -6 -81.5 -12t-44 -23t-20 -38t-3.5 -65z" />
    <glyph glyph-name="Uacute" unicode="&#xda;" horiz-adv-x="1542" 
d="M840 1827h368v-19l-354 -286h-115zM578 1214v-679q0 -383 313 -383q73 0 132.5 21.5t106.5 66.5t73 122.5t26 182.5v667q0 56 -14 82t-52.5 39t-124.5 19v86h475v-86q-53 -5 -80.5 -12t-43.5 -24t-19.5 -38.5t-3.5 -65.5v-706q0 -131 -44.5 -233.5t-122.5 -165.5
t-180.5 -95t-223.5 -32q-299 0 -459 132.5t-160 393.5v708q0 44 -3.5 65t-19.5 38t-43 23t-81 12v86h698v-86q-54 -6 -81.5 -12t-44 -23t-20 -38t-3.5 -65z" />
    <glyph glyph-name="Ucircumflex" unicode="&#xdb;" horiz-adv-x="1542" 
d="M578 1214v-679q0 -383 313 -383q73 0 132.5 21.5t106.5 66.5t73 122.5t26 182.5v667q0 56 -14 82t-52.5 39t-124.5 19v86h475v-86q-53 -5 -80.5 -12t-43.5 -24t-19.5 -38.5t-3.5 -65.5v-706q0 -131 -44.5 -233.5t-122.5 -165.5t-180.5 -95t-223.5 -32q-299 0 -459 132.5
t-160 393.5v708q0 44 -3.5 65t-19.5 38t-43 23t-81 12v86h698v-86q-54 -6 -81.5 -12t-44 -23t-20 -38t-3.5 -65zM979 1835l246 -313h-117l-256 143l-256 -143h-117l246 313h254z" />
    <glyph glyph-name="Udieresis" unicode="&#xdc;" horiz-adv-x="1542" 
d="M469 1686q0 69 51 119t121 50q71 0 122.5 -50t51.5 -119q0 -70 -51.5 -120t-122.5 -50t-121.5 50t-50.5 120zM891 1686q0 69 51 119t119 50q73 0 124.5 -50t51.5 -119q0 -71 -51.5 -120.5t-124.5 -49.5q-68 0 -119 50t-51 120zM578 1214v-679q0 -383 313 -383
q73 0 132.5 21.5t106.5 66.5t73 122.5t26 182.5v667q0 56 -14 82t-52.5 39t-124.5 19v86h475v-86q-53 -5 -80.5 -12t-43.5 -24t-19.5 -38.5t-3.5 -65.5v-706q0 -131 -44.5 -233.5t-122.5 -165.5t-180.5 -95t-223.5 -32q-299 0 -459 132.5t-160 393.5v708q0 44 -3.5 65
t-19.5 38t-43 23t-81 12v86h698v-86q-54 -6 -81.5 -12t-44 -23t-20 -38t-3.5 -65z" />
    <glyph glyph-name="Yacute" unicode="&#xdd;" horiz-adv-x="1447" 
d="M936 539v-324q0 -76 31 -97t139 -32v-86h-729v86q107 11 137.5 32t30.5 97v313l-416 748q-22 41 -46.5 55.5t-72.5 20.5v86h707v-86q-82 -3 -110.5 -19t-28.5 -55q0 -48 47 -131l262 -451l229 447q47 96 47 135q0 37 -34 54t-109 20v86h418v-86q-44 -6 -72 -23t-47 -53z
M803 1827h368v-19l-354 -286h-115z" />
    <glyph glyph-name="Thorn" unicode="&#xde;" horiz-adv-x="1366" 
d="M604 1214v-38h158q287 0 435.5 -120.5t148.5 -314.5q0 -216 -151 -333t-450 -117h-141v-62q0 -80 49 -107.5t189 -35.5v-86h-789v86q71 7 101 19.5t39.5 36.5t9.5 81v991q0 43 -3.5 64.5t-20.5 38.5t-44.5 23t-81.5 12v86h699v-86q-100 -10 -124 -33.5t-24 -104.5z
M604 1079v-680h47q146 0 223.5 90.5t77.5 251.5q0 157 -81 247.5t-220 90.5h-47z" />
    <glyph glyph-name="germandbls" unicode="&#xdf;" horiz-adv-x="1474" 
d="M752 1604q209 0 331.5 -80t122.5 -217q0 -63 -29.5 -113.5t-71 -82t-83 -58t-71 -54.5t-29.5 -59q0 -11 4.5 -21t16.5 -21.5t22.5 -20.5t33.5 -23.5t38 -23.5t48 -28t52 -30q75 -44 124 -80.5t93 -86.5t65 -112t21 -139q0 -172 -121.5 -273t-314.5 -101q-209 0 -340 106
l-13 266h97q31 -127 99.5 -206.5t164.5 -79.5q72 0 113.5 38t41.5 103q0 73 -48 124.5t-169 123.5q-131 78 -188 147t-57 164q0 51 19 98t48 81.5t62 75.5t62 79t48 93.5t19 117.5q0 97 -51 154t-148 57q-225 0 -225 -322v-1200h-492v80q67 5 91 19t24 61v833h-148v82
l148 39l2 25q23 220 179 342.5t409 122.5z" />
    <glyph glyph-name="agrave" unicode="&#xe0;" horiz-adv-x="1134" 
d="M539 182q37 0 90 29v379l-113 -43q-60 -23 -89.5 -61.5t-29.5 -120.5q0 -83 34.5 -133t107.5 -50zM1001 768v-543q0 -44 11.5 -68t44.5 -24q41 0 69 12l15 -55q-110 -110 -271 -110q-89 0 -150.5 45t-84.5 127q-114 -166 -309 -166q-132 0 -212.5 72.5t-80.5 201.5
q0 64 21 114.5t61 85.5t84 58.5t104 44.5l326 115v209q0 157 -107 157q-110 0 -110 -161q0 -56 18 -144l-227 -30q-46 16 -73.5 52.5t-27.5 90.5q0 90 59.5 152.5t157 91t224.5 28.5q226 0 342 -82t116 -274zM203 1567h366l103 -336h-105l-364 317v19z" />
    <glyph glyph-name="aacute" unicode="&#xe1;" horiz-adv-x="1134" 
d="M539 182q37 0 90 29v379l-113 -43q-60 -23 -89.5 -61.5t-29.5 -120.5q0 -83 34.5 -133t107.5 -50zM1001 768v-543q0 -44 11.5 -68t44.5 -24q41 0 69 12l15 -55q-110 -110 -271 -110q-89 0 -150.5 45t-84.5 127q-114 -166 -309 -166q-132 0 -212.5 72.5t-80.5 201.5
q0 64 21 114.5t61 85.5t84 58.5t104 44.5l326 115v209q0 157 -107 157q-110 0 -110 -161q0 -56 18 -144l-227 -30q-46 16 -73.5 52.5t-27.5 90.5q0 90 59.5 152.5t157 91t224.5 28.5q226 0 342 -82t116 -274zM547 1567h366v-19l-362 -317h-107z" />
    <glyph glyph-name="acircumflex" unicode="&#xe2;" horiz-adv-x="1134" 
d="M539 182q37 0 90 29v379l-113 -43q-60 -23 -89.5 -61.5t-29.5 -120.5q0 -83 34.5 -133t107.5 -50zM1001 768v-543q0 -44 11.5 -68t44.5 -24q41 0 69 12l15 -55q-110 -110 -271 -110q-89 0 -150.5 45t-84.5 127q-114 -166 -309 -166q-132 0 -212.5 72.5t-80.5 201.5
q0 64 21 114.5t61 85.5t84 58.5t104 44.5l326 115v209q0 157 -107 157q-110 0 -110 -161q0 -56 18 -144l-227 -30q-46 16 -73.5 52.5t-27.5 90.5q0 90 59.5 152.5t157 91t224.5 28.5q226 0 342 -82t116 -274zM686 1569l238 -348h-119l-246 174l-246 -174h-118l237 348h254z
" />
    <glyph glyph-name="atilde" unicode="&#xe3;" horiz-adv-x="1134" 
d="M539 182q37 0 90 29v379l-113 -43q-60 -23 -89.5 -61.5t-29.5 -120.5q0 -83 34.5 -133t107.5 -50zM1001 768v-543q0 -44 11.5 -68t44.5 -24q41 0 69 12l15 -55q-110 -110 -271 -110q-89 0 -150.5 45t-84.5 127q-114 -166 -309 -166q-132 0 -212.5 72.5t-80.5 201.5
q0 64 21 114.5t61 85.5t84 58.5t104 44.5l326 115v209q0 157 -107 157q-110 0 -110 -161q0 -56 18 -144l-227 -30q-46 16 -73.5 52.5t-27.5 90.5q0 90 59.5 152.5t157 91t224.5 28.5q226 0 342 -82t116 -274zM692 1233q-43 0 -85 19t-69.5 42.5t-61 42.5t-62.5 19
q-40 0 -70 -29t-63 -86l-74 41q56 144 108.5 210.5t130.5 66.5q36 0 69.5 -12.5t59 -30.5t49.5 -36.5t50 -31t51 -12.5q40 0 70 28t63 84l74 -39q-57 -145 -109.5 -210.5t-130.5 -65.5z" />
    <glyph glyph-name="adieresis" unicode="&#xe4;" horiz-adv-x="1134" 
d="M539 182q37 0 90 29v379l-113 -43q-60 -23 -89.5 -61.5t-29.5 -120.5q0 -83 34.5 -133t107.5 -50zM1001 768v-543q0 -44 11.5 -68t44.5 -24q41 0 69 12l15 -55q-110 -110 -271 -110q-89 0 -150.5 45t-84.5 127q-114 -166 -309 -166q-132 0 -212.5 72.5t-80.5 201.5
q0 64 21 114.5t61 85.5t84 58.5t104 44.5l326 115v209q0 157 -107 157q-110 0 -110 -161q0 -56 18 -144l-227 -30q-46 16 -73.5 52.5t-27.5 90.5q0 90 59.5 152.5t157 91t224.5 28.5q226 0 342 -82t116 -274zM178 1407q0 71 50 120.5t122 49.5q71 0 121.5 -50t50.5 -120
q0 -69 -51 -119.5t-121 -50.5q-72 0 -122 50.5t-50 119.5zM596 1407q0 70 51 120t119 50q75 0 125.5 -49.5t50.5 -120.5q0 -70 -51 -120t-125 -50q-68 0 -119 50.5t-51 119.5z" />
    <glyph glyph-name="aring" unicode="&#xe5;" horiz-adv-x="1134" 
d="M539 182q37 0 90 29v379l-113 -43q-60 -23 -89.5 -61.5t-29.5 -120.5q0 -83 34.5 -133t107.5 -50zM1001 768v-543q0 -44 11.5 -68t44.5 -24q41 0 69 12l15 -55q-110 -110 -271 -110q-89 0 -150.5 45t-84.5 127q-114 -166 -309 -166q-132 0 -212.5 72.5t-80.5 201.5
q0 64 21 114.5t61 85.5t84 58.5t104 44.5l326 115v209q0 157 -107 157q-110 0 -110 -161q0 -56 18 -144l-227 -30q-46 16 -73.5 52.5t-27.5 90.5q0 90 59.5 152.5t157 91t224.5 28.5q226 0 342 -82t116 -274zM457 1389q0 -46 27 -75.5t75 -29.5t75.5 29.5t27.5 75.5
q0 47 -27.5 76.5t-75.5 29.5t-75 -29.5t-27 -76.5zM346 1389q0 88 60.5 148t152.5 60q91 0 151 -59.5t60 -148.5q0 -87 -60 -147t-151 -60t-152 60t-61 147z" />
    <glyph glyph-name="ae" unicode="&#xe6;" horiz-adv-x="1626" 
d="M1145 1124q212 0 327 -124t115 -326v-49h-639q-2 -179 82.5 -287.5t231.5 -108.5q180 0 292 150l39 -25q-43 -174 -163 -274t-308 -100q-131 0 -235.5 47.5t-173.5 138.5q-53 -62 -96.5 -97t-115 -59t-165.5 -24q-139 0 -221 72t-82 202q0 64 21 114.5t61 85.5t84 58.5
t104 44.5l315 111q4 18 14 50.5t11 37.5q4 135 -30 208.5t-99 73.5q-102 0 -102 -161q0 -56 18 -144l-227 -30q-46 16 -73.5 52.5t-27.5 90.5q0 90 59.5 152.5t156 91t221.5 28.5q205 0 292 -100q140 100 314 100zM1114 1038q-80 0 -118 -83.5t-46 -237.5h312
q0 157 -34.5 239t-113.5 82zM559 182q55 0 119 37q-72 126 -72 307q0 38 2 54l-71 -27q-75 -27 -107.5 -66t-32.5 -122q0 -183 162 -183z" />
    <glyph glyph-name="ccedilla" unicode="&#xe7;" horiz-adv-x="1030" 
d="M319 -473l-16 72q105 0 160 28t55 70q0 40 -39 54.5t-123 17.5l88 221q-179 32 -290 172t-111 356q0 172 68.5 309.5t197 217t295.5 79.5q107 0 189.5 -26.5t134 -86.5t51.5 -147q0 -55 -26 -93.5t-64 -55.5h-195q8 60 8 116q0 201 -131 201q-93 0 -146.5 -105
t-53.5 -268q0 -198 84 -310.5t237 -112.5q178 0 273 135l45 -29q-50 -183 -168.5 -272.5t-294.5 -89.5h-29l-24 -62q98 0 156.5 -44.5t58.5 -123.5q0 -74 -56 -125.5t-141.5 -74.5t-192.5 -23z" />
    <glyph glyph-name="egrave" unicode="&#xe8;" horiz-adv-x="1077" 
d="M590 1124q216 0 332 -123t116 -325v-51h-653q-3 -180 86 -288t231 -108q191 0 306 150l39 -25q-43 -174 -163.5 -274t-308.5 -100q-233 0 -382.5 147t-149.5 399q0 133 44 246.5t119 190t174.5 119t209.5 42.5zM565 1038q-82 0 -126 -85t-52 -234h328q0 157 -35 238
t-115 81zM238 1567h366l103 -336h-105l-364 317v19z" />
    <glyph glyph-name="eacute" unicode="&#xe9;" horiz-adv-x="1077" 
d="M582 1567h366v-19l-362 -317h-107zM590 1124q216 0 332 -123t116 -325v-51h-653q-3 -180 86 -288t231 -108q191 0 306 150l39 -25q-43 -174 -163.5 -274t-308.5 -100q-233 0 -382.5 147t-149.5 399q0 133 44 246.5t119 190t174.5 119t209.5 42.5zM565 1038
q-82 0 -126 -85t-52 -234h328q0 157 -35 238t-115 81z" />
    <glyph glyph-name="ecircumflex" unicode="&#xea;" horiz-adv-x="1077" 
d="M719 1569l237 -348h-118l-246 174l-246 -174h-119l238 348h254zM590 1124q216 0 332 -123t116 -325v-51h-653q-3 -180 86 -288t231 -108q191 0 306 150l39 -25q-43 -174 -163.5 -274t-308.5 -100q-233 0 -382.5 147t-149.5 399q0 133 44 246.5t119 190t174.5 119
t209.5 42.5zM565 1038q-82 0 -126 -85t-52 -234h328q0 157 -35 238t-115 81z" />
    <glyph glyph-name="edieresis" unicode="&#xeb;" horiz-adv-x="1077" 
d="M211 1407q0 71 50 120.5t122 49.5q71 0 121.5 -50t50.5 -120q0 -69 -51 -119.5t-121 -50.5q-71 0 -121.5 50.5t-50.5 119.5zM629 1407q0 70 51 120t119 50q75 0 125.5 -49.5t50.5 -120.5q0 -70 -51 -120t-125 -50q-68 0 -119 50.5t-51 119.5zM590 1124q216 0 332 -123
t116 -325v-51h-653q-3 -180 86 -288t231 -108q191 0 306 150l39 -25q-43 -174 -163.5 -274t-308.5 -100q-233 0 -382.5 147t-149.5 399q0 133 44 246.5t119 190t174.5 119t209.5 42.5zM565 1038q-82 0 -126 -85t-52 -234h328q0 157 -35 238t-115 81z" />
    <glyph glyph-name="igrave" unicode="&#xec;" horiz-adv-x="684" 
d="M537 1124v-964q0 -47 23.5 -61t90.5 -19v-80h-606v80q67 5 91 19t24 61v719l-113 69v58l426 118h64zM-2 1567h367l102 -336h-105l-364 317v19z" />
    <glyph glyph-name="iacute" unicode="&#xed;" horiz-adv-x="684" 
d="M342 1567h367v-19l-363 -317h-106zM537 1124v-964q0 -47 23.5 -61t90.5 -19v-80h-606v80q67 5 91 19t24 61v719l-113 69v58l426 118h64z" />
    <glyph glyph-name="icircumflex" unicode="&#xee;" horiz-adv-x="684" 
d="M459 1569l215 -344h-107l-225 172l-223 -172h-109l217 344h232zM537 1124v-964q0 -47 23.5 -61t90.5 -19v-80h-606v80q67 5 91 19t24 61v719l-113 69v58l426 118h64z" />
    <glyph glyph-name="idieresis" unicode="&#xef;" horiz-adv-x="684" 
d="M-37 1407q0 70 50.5 120t121.5 50t122.5 -50t51.5 -120q0 -69 -51.5 -119.5t-122.5 -50.5q-70 0 -121 50.5t-51 119.5zM379 1407q0 70 50.5 120t119.5 50q73 0 123.5 -49.5t50.5 -120.5q0 -70 -50.5 -120t-123.5 -50q-69 0 -119.5 50.5t-50.5 119.5zM537 1124v-964
q0 -47 23.5 -61t90.5 -19v-80h-606v80q67 5 91 19t24 61v719l-113 69v58l426 118h64z" />
    <glyph glyph-name="eth" unicode="&#xf0;" horiz-adv-x="1228" 
d="M248 1204l-27 88l309 99q-122 104 -305 151l39 70q271 -36 475 -156l265 84l26 -86l-196 -63q175 -133 263.5 -323t88.5 -400q0 -315 -152 -501.5t-428 -186.5q-167 0 -296 73t-198 200t-69 286q0 130 44.5 241.5t118 185t169.5 115t200 41.5q55 0 103.5 -17.5
t75.5 -49.5q-51 148 -150 262zM625 66q88 0 125.5 105.5t37.5 311.5q0 555 -182 555q-87 0 -124.5 -106t-37.5 -311q0 -555 181 -555z" />
    <glyph glyph-name="ntilde" unicode="&#xf1;" horiz-adv-x="1359" 
d="M850 160v598q0 72 -30.5 107.5t-106.5 35.5q-88 0 -176 -45v-696q0 -47 22 -61t88 -19v-80h-602v80q67 5 91 19t24 61v719l-113 69v58l428 118h70l-8 -204q162 204 381 204q151 0 231 -84.5t80 -251.5v-628q0 -47 23.5 -61t90.5 -19v-80h-602v80q66 5 87.5 19t21.5 61z
M850 1233q-43 0 -85.5 19t-69.5 42.5t-61 42.5t-63 19q-40 0 -70 -29t-63 -86l-73 41q56 144 108.5 210.5t130.5 66.5q36 0 69.5 -12.5t59 -30.5t49.5 -36.5t50 -31t51 -12.5q40 0 70 28t63 84l74 -39q-57 -145 -109.5 -210.5t-130.5 -65.5z" />
    <glyph glyph-name="ograve" unicode="&#xf2;" horiz-adv-x="1230" 
d="M625 66q88 0 124.5 105t36.5 312q0 555 -180 555q-88 0 -125 -105.5t-37 -311.5q0 -555 181 -555zM614 -20q-255 0 -413 150t-158 400q0 259 161 426.5t412 167.5q255 0 413.5 -150.5t158.5 -400.5q0 -259 -161.5 -426t-412.5 -167zM266 1567h367l102 -336h-104l-365 317
v19z" />
    <glyph glyph-name="oacute" unicode="&#xf3;" horiz-adv-x="1230" 
d="M608 1567h367v-19l-363 -317h-106zM625 66q88 0 124.5 105t36.5 312q0 555 -180 555q-88 0 -125 -105.5t-37 -311.5q0 -555 181 -555zM614 -20q-255 0 -413 150t-158 400q0 259 161 426.5t412 167.5q255 0 413.5 -150.5t158.5 -400.5q0 -259 -161.5 -426t-412.5 -167z
" />
    <glyph glyph-name="ocircumflex" unicode="&#xf4;" horiz-adv-x="1230" 
d="M750 1569l237 -348h-119l-245 174l-246 -174h-119l238 348h254zM625 66q88 0 124.5 105t36.5 312q0 555 -180 555q-88 0 -125 -105.5t-37 -311.5q0 -555 181 -555zM614 -20q-255 0 -413 150t-158 400q0 259 161 426.5t412 167.5q255 0 413.5 -150.5t158.5 -400.5
q0 -259 -161.5 -426t-412.5 -167z" />
    <glyph glyph-name="otilde" unicode="&#xf5;" horiz-adv-x="1230" 
d="M625 66q88 0 124.5 105t36.5 312q0 555 -180 555q-88 0 -125 -105.5t-37 -311.5q0 -555 181 -555zM614 -20q-255 0 -413 150t-158 400q0 259 161 426.5t412 167.5q255 0 413.5 -150.5t158.5 -400.5q0 -259 -161.5 -426t-412.5 -167zM758 1233q-43 0 -85.5 19t-69.5 42.5
t-61 42.5t-63 19q-40 0 -70 -29t-63 -86l-74 41q56 144 109 210.5t131 66.5q36 0 69.5 -12.5t59 -30.5t49.5 -36.5t50 -31t51 -12.5q40 0 70 28t63 84l73 -39q-57 -146 -109 -211t-130 -65z" />
    <glyph glyph-name="odieresis" unicode="&#xf6;" horiz-adv-x="1230" 
d="M242 1407q0 71 50 120.5t122 49.5q71 0 121.5 -50t50.5 -120q0 -69 -51 -119.5t-121 -50.5q-72 0 -122 50.5t-50 119.5zM659 1407q0 70 51 120t119 50q75 0 126 -49.5t51 -120.5q0 -70 -51.5 -120t-125.5 -50q-68 0 -119 50.5t-51 119.5zM625 66q88 0 124.5 105t36.5 312
q0 555 -180 555q-88 0 -125 -105.5t-37 -311.5q0 -555 181 -555zM614 -20q-255 0 -413 150t-158 400q0 259 161 426.5t412 167.5q255 0 413.5 -150.5t158.5 -400.5q0 -259 -161.5 -426t-412.5 -167z" />
    <glyph glyph-name="divide" unicode="&#xf7;" horiz-adv-x="1175" 
d="M133 686v141h907v-141h-907zM465 403q0 52 35.5 88.5t85.5 36.5t86.5 -36.5t36.5 -88.5q0 -49 -36.5 -84.5t-86.5 -35.5t-85.5 35.5t-35.5 84.5zM465 1108q0 51 35.5 86t85.5 35t86.5 -35.5t36.5 -85.5t-36.5 -86.5t-86.5 -36.5q-49 0 -85 36.5t-36 86.5z" />
    <glyph glyph-name="oslash" unicode="&#xf8;" horiz-adv-x="1230" 
d="M614 -20q-171 0 -303 69l-118 -168l-72 51l117 164q-94 73 -144.5 184t-50.5 250q0 259 161 426.5t412 167.5q170 0 306 -71l112 157l74 -51l-113 -155q92 -73 142.5 -184t50.5 -247q0 -259 -161.5 -426t-412.5 -167zM444 621q0 -122 9 -224l307 430q-43 211 -154 211
q-88 0 -125 -105.5t-37 -311.5zM625 66q88 0 124.5 105t36.5 312q0 131 -8 215l-307 -428q43 -204 154 -204z" />
    <glyph glyph-name="ugrave" unicode="&#xf9;" horiz-adv-x="1325" 
d="M1180 862v-626q0 -59 11.5 -80.5t57.5 -22.5l49 -2v-80l-432 -71h-71l6 198q-32 -40 -64 -71.5t-77 -62t-102 -47.5t-122 -17q-142 0 -225.5 86.5t-83.5 257.5v501q0 49 -17 78.5t-63 40.5l-31 10v74l433 94h67l-12 -260v-502q0 -163 139 -163q68 0 158 41v587
q0 49 -17 78.5t-61 40.5l-31 10v74l430 94h68zM305 1567h367l102 -336h-104l-365 317v19z" />
    <glyph glyph-name="uacute" unicode="&#xfa;" horiz-adv-x="1325" 
d="M647 1567h367v-19l-363 -317h-106zM1180 862v-626q0 -59 11.5 -80.5t57.5 -22.5l49 -2v-80l-432 -71h-71l6 198q-32 -40 -64 -71.5t-77 -62t-102 -47.5t-122 -17q-142 0 -225.5 86.5t-83.5 257.5v501q0 49 -17 78.5t-63 40.5l-31 10v74l433 94h67l-12 -260v-502
q0 -163 139 -163q68 0 158 41v587q0 49 -17 78.5t-61 40.5l-31 10v74l430 94h68z" />
    <glyph glyph-name="ucircumflex" unicode="&#xfb;" horiz-adv-x="1325" 
d="M788 1569l238 -348h-119l-245 174l-246 -174h-119l238 348h253zM1180 862v-626q0 -59 11.5 -80.5t57.5 -22.5l49 -2v-80l-432 -71h-71l6 198q-32 -40 -64 -71.5t-77 -62t-102 -47.5t-122 -17q-142 0 -225.5 86.5t-83.5 257.5v501q0 49 -17 78.5t-63 40.5l-31 10v74
l433 94h67l-12 -260v-502q0 -163 139 -163q68 0 158 41v587q0 49 -17 78.5t-61 40.5l-31 10v74l430 94h68z" />
    <glyph glyph-name="udieresis" unicode="&#xfc;" horiz-adv-x="1325" 
d="M281 1407q0 71 50 120.5t122 49.5q71 0 121.5 -50t50.5 -120q0 -69 -51 -119.5t-121 -50.5q-71 0 -121.5 50.5t-50.5 119.5zM698 1407q0 70 51 120t119 50q75 0 125.5 -49.5t50.5 -120.5q0 -70 -51 -120t-125 -50q-68 0 -119 50.5t-51 119.5zM1180 862v-626
q0 -59 11.5 -80.5t57.5 -22.5l49 -2v-80l-432 -71h-71l6 198q-32 -40 -64 -71.5t-77 -62t-102 -47.5t-122 -17q-142 0 -225.5 86.5t-83.5 257.5v501q0 49 -17 78.5t-63 40.5l-31 10v74l433 94h67l-12 -260v-502q0 -163 139 -163q68 0 158 41v587q0 49 -17 78.5t-61 40.5
l-31 10v74l430 94h68z" />
    <glyph glyph-name="yacute" unicode="&#xfd;" horiz-adv-x="1226" 
d="M760 373l203 520q16 43 16 59q0 33 -27 47t-108 25v80h373v-80q-52 -17 -71.5 -32.5t-33.5 -49.5l-467 -1120q-40 -95 -79 -152.5t-92.5 -90t-123.5 -32.5q-59 0 -104.5 23t-67.5 63v146q111 -21 160 -21q86 0 134.5 27.5t76.5 91.5l33 72l-467 993q-16 35 -34.5 50
t-70.5 32v80h656v-80q-82 -11 -109 -25t-27 -47q0 -10 15 -57zM686 1567h367v-19l-363 -317h-106z" />
    <glyph glyph-name="thorn" unicode="&#xfe;" horiz-adv-x="1304" 
d="M877 506q0 198 -66 296.5t-186 98.5q-69 0 -121 -35v-575q0 -105 33.5 -160t111.5 -55q107 0 167.5 121t60.5 309zM125 -274v1665l-113 57v61l428 95h64v-678q51 82 138 140t206 58q188 0 301 -129t113 -374q0 -154 -44.5 -277t-123.5 -202t-184 -120.5t-228 -41.5
q-126 0 -178 43v-289q0 -52 29.5 -66t128.5 -22v-80h-652v80q67 5 91 19t24 61z" />
    <glyph glyph-name="ydieresis" unicode="&#xff;" horiz-adv-x="1226" 
d="M760 373l203 520q16 43 16 59q0 33 -27 47t-108 25v80h373v-80q-52 -17 -71.5 -32.5t-33.5 -49.5l-467 -1120q-40 -95 -79 -152.5t-92.5 -90t-123.5 -32.5q-59 0 -104.5 23t-67.5 63v146q111 -21 160 -21q86 0 134.5 27.5t76.5 91.5l33 72l-467 993q-16 35 -34.5 50
t-70.5 32v80h656v-80q-82 -11 -109 -25t-27 -47q0 -10 15 -57zM317 1407q0 71 50 120.5t122 49.5q71 0 122 -50t51 -120q0 -69 -51.5 -119.5t-121.5 -50.5q-71 0 -121.5 50.5t-50.5 119.5zM735 1407q0 70 51 120t119 50q75 0 125.5 -49.5t50.5 -120.5q0 -70 -51 -120
t-125 -50q-68 0 -119 50.5t-51 119.5z" />
    <glyph glyph-name="Amacron" unicode="&#x100;" horiz-adv-x="1554" 
d="M965 256l-74 188h-522l-70 -186q-16 -50 -16 -76q0 -49 40.5 -70t127.5 -26v-86h-441v86q47 7 75 22.5t44 53.5l426 1110l-70 170h428l510 -1280q14 -37 43 -53t78 -23v-86h-723v86q82 3 121 23.5t39 70.5q0 26 -16 76zM623 1122l-213 -567h436zM426 1538v176h598v-176
h-598z" />
    <glyph glyph-name="amacron" unicode="&#x101;" horiz-adv-x="1134" 
d="M539 182q37 0 90 29v379l-113 -43q-60 -23 -89.5 -61.5t-29.5 -120.5q0 -83 34.5 -133t107.5 -50zM1001 768v-543q0 -44 11.5 -68t44.5 -24q41 0 69 12l15 -55q-110 -110 -271 -110q-89 0 -150.5 45t-84.5 127q-114 -166 -309 -166q-132 0 -212.5 72.5t-80.5 201.5
q0 64 21 114.5t61 85.5t84 58.5t104 44.5l326 115v209q0 157 -107 157q-110 0 -110 -161q0 -56 18 -144l-227 -30q-46 16 -73.5 52.5t-27.5 90.5q0 90 59.5 152.5t157 91t224.5 28.5q226 0 342 -82t116 -274zM268 1280v176h586v-176h-586z" />
    <glyph glyph-name="Abreve" unicode="&#x102;" horiz-adv-x="1554" 
d="M965 256l-74 188h-522l-70 -186q-16 -50 -16 -76q0 -49 40.5 -70t127.5 -26v-86h-441v86q47 7 75 22.5t44 53.5l426 1110l-70 170h428l510 -1280q14 -37 43 -53t78 -23v-86h-723v86q82 3 121 23.5t39 70.5q0 26 -16 76zM623 1122l-213 -567h436zM723 1516
q-145 0 -224 83.5t-79 235.5h94q25 -133 209 -133q186 0 209 133h96q0 -152 -80 -235.5t-225 -83.5z" />
    <glyph glyph-name="abreve" unicode="&#x103;" horiz-adv-x="1134" 
d="M539 182q37 0 90 29v379l-113 -43q-60 -23 -89.5 -61.5t-29.5 -120.5q0 -83 34.5 -133t107.5 -50zM1001 768v-543q0 -44 11.5 -68t44.5 -24q41 0 69 12l15 -55q-110 -110 -271 -110q-89 0 -150.5 45t-84.5 127q-114 -166 -309 -166q-132 0 -212.5 72.5t-80.5 201.5
q0 64 21 114.5t61 85.5t84 58.5t104 44.5l326 115v209q0 157 -107 157q-110 0 -110 -161q0 -56 18 -144l-227 -30q-46 16 -73.5 52.5t-27.5 90.5q0 90 59.5 152.5t157 91t224.5 28.5q226 0 342 -82t116 -274zM561 1225q-144 0 -220.5 89.5t-76.5 254.5h94q18 -154 203 -154
q183 0 201 154h94q0 -165 -76.5 -254.5t-218.5 -89.5z" />
    <glyph glyph-name="Aogonek" unicode="&#x104;" horiz-adv-x="1554" 
d="M623 1122l-213 -567h436zM829 53q93 33 114 46q42 27 42 73q0 26 -16 76l-78 196h-520l-72 -186q-16 -50 -16 -76q0 -49 40.5 -70t127.5 -26v-86h-441v86q47 7 75 22.5t44 53.5l426 1110l-70 170h428l510 -1280q14 -37 43 -53t78 -23v-86h-653q-72 -20 -109 -69t-37 -115
q0 -52 26 -82.5t75 -30.5q57 0 123 49l32 -41q-60 -76 -123.5 -113.5t-144.5 -37.5q-87 0 -144 51.5t-57 146.5q0 106 78.5 176t218.5 119z" />
    <glyph glyph-name="aogonek" unicode="&#x105;" horiz-adv-x="1134" 
d="M1001 768v-543q0 -44 11.5 -68t44.5 -24q41 0 69 12l15 -55q-27 -24 -71.5 -49.5t-81 -46t-72 -46.5t-56 -62t-20.5 -81t24.5 -73.5t69.5 -28.5q38 0 66 11t65 38l33 -41q-60 -76 -126 -113.5t-153 -37.5q-82 0 -137 46.5t-55 123.5q0 151 198 252q-68 12 -119 57
t-71 113q-114 -166 -309 -166q-132 0 -212.5 72.5t-80.5 201.5q0 64 21 114.5t61 85.5t84 58.5t104 44.5l326 115v209q0 157 -107 157q-110 0 -110 -161q0 -56 18 -144l-227 -30q-46 16 -73.5 52.5t-27.5 90.5q0 90 59.5 152.5t157 91t224.5 28.5q226 0 342 -82t116 -274z
M539 182q37 0 90 29v379l-113 -43q-60 -23 -89.5 -61.5t-29.5 -120.5q0 -83 34.5 -133t107.5 -50z" />
    <glyph glyph-name="Cacute" unicode="&#x106;" horiz-adv-x="1398" 
d="M827 1458q275 0 457 -121l6 -358h-100q-39 187 -124.5 282t-225.5 95q-93 0 -164 -47.5t-114 -133t-64 -195.5t-21 -243q0 -190 42.5 -334.5t130 -229.5t210.5 -85q132 0 227.5 103t155.5 329h103l-35 -407q-90 -63 -221 -98t-281 -35q-350 0 -553 188t-203 512
q0 176 61 323.5t166 246.5t246 153.5t301 54.5zM825 1827h369v-19l-354 -286h-115z" />
    <glyph glyph-name="cacute" unicode="&#x107;" horiz-adv-x="1030" 
d="M588 1567h366v-19l-362 -317h-107zM371 659q0 -198 84 -310.5t237 -112.5q178 0 273 135l45 -29q-50 -183 -168.5 -272.5t-294.5 -89.5q-219 0 -361.5 146t-142.5 392q0 172 68.5 309.5t197 217t295.5 79.5q107 0 189.5 -26.5t134 -86.5t51.5 -147q0 -55 -26 -93.5
t-64 -55.5h-195q8 60 8 116q0 201 -131 201q-93 0 -146.5 -105t-53.5 -268z" />
    <glyph glyph-name="Ccircumflex" unicode="&#x108;" horiz-adv-x="1398" 
d="M827 1458q275 0 457 -121l6 -358h-100q-39 187 -124.5 282t-225.5 95q-93 0 -164 -47.5t-114 -133t-64 -195.5t-21 -243q0 -190 42.5 -334.5t130 -229.5t210.5 -85q132 0 227.5 103t155.5 329h103l-35 -407q-90 -63 -221 -98t-281 -35q-350 0 -553 188t-203 512
q0 176 61 323.5t166 246.5t246 153.5t301 54.5zM965 1835l245 -313h-116l-256 143l-256 -143h-117l246 313h254z" />
    <glyph glyph-name="ccircumflex" unicode="&#x109;" horiz-adv-x="1030" 
d="M711 1569l237 -348h-119l-245 174l-246 -174h-119l238 348h254zM371 659q0 -198 84 -310.5t237 -112.5q178 0 273 135l45 -29q-50 -183 -168.5 -272.5t-294.5 -89.5q-219 0 -361.5 146t-142.5 392q0 172 68.5 309.5t197 217t295.5 79.5q107 0 189.5 -26.5t134 -86.5
t51.5 -147q0 -55 -26 -93.5t-64 -55.5h-195q8 60 8 116q0 201 -131 201q-93 0 -146.5 -105t-53.5 -268z" />
    <glyph glyph-name="Cdotaccent" unicode="&#x10a;" horiz-adv-x="1398" 
d="M838 1518q-91 0 -146 55t-55 133q0 79 55 134.5t146 55.5q90 0 145 -55.5t55 -134.5q0 -78 -55.5 -133t-144.5 -55zM827 1458q275 0 457 -121l6 -358h-100q-39 187 -124.5 282t-225.5 95q-93 0 -164 -47.5t-114 -133t-64 -195.5t-21 -243q0 -190 42.5 -334.5t130 -229.5
t210.5 -85q132 0 227.5 103t155.5 329h103l-35 -407q-90 -63 -221 -98t-281 -35q-350 0 -553 188t-203 512q0 176 61 323.5t166 246.5t246 153.5t301 54.5z" />
    <glyph glyph-name="cdotaccent" unicode="&#x10b;" horiz-adv-x="1030" 
d="M371 659q0 -198 84 -310.5t237 -112.5q178 0 273 135l45 -29q-50 -183 -168.5 -272.5t-294.5 -89.5q-219 0 -361.5 146t-142.5 392q0 172 68.5 309.5t197 217t295.5 79.5q107 0 189.5 -26.5t134 -86.5t51.5 -147q0 -55 -26 -93.5t-64 -55.5h-195q8 60 8 116
q0 201 -131 201q-93 0 -146.5 -105t-53.5 -268zM594 1223q-91 0 -146 54.5t-55 133.5q0 80 55 135.5t146 55.5q90 0 145.5 -56t55.5 -135t-55.5 -133.5t-145.5 -54.5z" />
    <glyph glyph-name="Ccaron" unicode="&#x10c;" horiz-adv-x="1398" 
d="M827 1458q275 0 457 -121l6 -358h-100q-39 187 -124.5 282t-225.5 95q-93 0 -164 -47.5t-114 -133t-64 -195.5t-21 -243q0 -190 42.5 -334.5t130 -229.5t210.5 -85q132 0 227.5 103t155.5 329h103l-35 -407q-90 -63 -221 -98t-281 -35q-350 0 -553 188t-203 512
q0 176 61 323.5t166 246.5t246 153.5t301 54.5zM1210 1837l-245 -313h-254l-246 313h117l256 -143l256 143h116z" />
    <glyph glyph-name="ccaron" unicode="&#x10d;" horiz-adv-x="1030" 
d="M958 1577l-237 -348h-254l-238 348h119l246 -174l246 174h118zM371 659q0 -198 84 -310.5t237 -112.5q178 0 273 135l45 -29q-50 -183 -168.5 -272.5t-294.5 -89.5q-219 0 -361.5 146t-142.5 392q0 172 68.5 309.5t197 217t295.5 79.5q107 0 189.5 -26.5t134 -86.5
t51.5 -147q0 -55 -26 -93.5t-64 -55.5h-195q8 60 8 116q0 201 -131 201q-93 0 -146.5 -105t-53.5 -268z" />
    <glyph glyph-name="Dcaron" unicode="&#x10e;" horiz-adv-x="1615" 
d="M1118 1837l-246 -313h-254l-245 313h116l256 -143l256 143h117zM657 1341h-53v-1101q0 -86 32.5 -115t106.5 -29h19q174 0 278.5 163.5t104.5 436.5q0 299 -128 472t-360 173zM774 0h-721v86q71 7 101 19.5t39.5 36.5t9.5 81v991q0 43 -3.5 64.5t-20.5 38.5t-44.5 23
t-81.5 12v86h674q207 0 368.5 -53.5t262 -149t152 -222t51.5 -278.5q0 -344 -212.5 -539.5t-574.5 -195.5z" />
    <glyph glyph-name="dcaron" unicode="&#x10f;" horiz-adv-x="1312" 
d="M1569 1581l-238 -397h-84l27 420h295v-23zM643 1001q-107 0 -164 -104t-57 -281q0 -192 66 -307.5t184 -115.5q64 0 116 28v570q0 106 -34 158t-111 52zM788 1391l-112 57v61l428 95h63v-1368q0 -58 12 -80t58 -23l49 -2v-80l-434 -71h-70l6 192q-129 -192 -331 -192
q-186 0 -300 138.5t-114 383.5q0 146 42.5 263.5t116.5 193.5t172 116.5t212 40.5q128 0 202 -61v336z" />
    <glyph glyph-name="Dcroat" unicode="&#x110;" horiz-adv-x="1636" 
d="M74 666v127h149v421q0 44 -3.5 65t-20 38t-44 23t-81.5 12v86h674q207 0 368.5 -53.5t261.5 -149t151.5 -222t51.5 -278.5q0 -345 -212 -540t-574 -195h-721v86q54 6 81.5 12t44 22.5t20 37.5t3.5 65v443h-149zM678 1341h-53v-548h264v-127h-264v-426q0 -86 32.5 -115
t106.5 -29h18q174 0 278.5 163.5t104.5 436.5q0 299 -127.5 472t-359.5 173z" />
    <glyph glyph-name="dcroat" unicode="&#x111;" horiz-adv-x="1312" 
d="M788 1391l-112 57v61l428 95h63v-293h119v-105h-119v-970q0 -58 12 -80t58 -23l49 -2v-80l-434 -71h-70l6 192q-129 -192 -331 -192q-186 0 -300 138.5t-114 383.5q0 146 42.5 263.5t116.5 193.5t172 116.5t212 40.5q128 0 202 -61v151h-241v105h241v80zM643 1001
q-107 0 -164 -104t-57 -281q0 -192 66 -307.5t184 -115.5q64 0 116 28v570q0 106 -34 158t-111 52z" />
    <glyph glyph-name="Emacron" unicode="&#x112;" horiz-adv-x="1341" 
d="M408 1538v176h598v-176h-598zM53 0v86q71 7 101 19.5t39.5 36.5t9.5 81v991q0 43 -3.5 64.5t-20.5 38.5t-44.5 23t-81.5 12v86h1178l10 -396h-78q-36 76 -61 120t-54.5 83t-61.5 57.5t-73 28.5t-98 10h-211v-542h199q68 0 95.5 40t41.5 148h88v-491h-88
q-14 109 -41.5 149.5t-95.5 40.5h-199v-453q0 -80 38.5 -108.5t127.5 -28.5h72q35 0 62 3t53 14.5t44.5 21.5t41.5 35.5t38.5 45t41 62.5t43 74.5t51.5 93.5h92l-66 -446h-1190z" />
    <glyph glyph-name="emacron" unicode="&#x113;" horiz-adv-x="1077" 
d="M590 1124q216 0 332 -123t116 -325v-51h-653q-3 -180 86 -288t231 -108q191 0 306 150l39 -25q-43 -174 -163.5 -274t-308.5 -100q-233 0 -382.5 147t-149.5 399q0 133 44 246.5t119 190t174.5 119t209.5 42.5zM565 1038q-82 0 -126 -85t-52 -234h328q0 157 -35 238
t-115 81zM299 1280v176h586v-176h-586z" />
    <glyph glyph-name="Ebreve" unicode="&#x114;" horiz-adv-x="1341" 
d="M705 1516q-145 0 -224.5 83.5t-79.5 235.5h95q25 -133 209 -133q185 0 208 133h97q0 -152 -80 -235.5t-225 -83.5zM53 0v86q71 7 101 19.5t39.5 36.5t9.5 81v991q0 43 -3.5 64.5t-20.5 38.5t-44.5 23t-81.5 12v86h1178l10 -396h-78q-36 76 -61 120t-54.5 83t-61.5 57.5
t-73 28.5t-98 10h-211v-542h199q68 0 95.5 40t41.5 148h88v-491h-88q-14 109 -41.5 149.5t-95.5 40.5h-199v-453q0 -80 38.5 -108.5t127.5 -28.5h72q35 0 62 3t53 14.5t44.5 21.5t41.5 35.5t38.5 45t41 62.5t43 74.5t51.5 93.5h92l-66 -446h-1190z" />
    <glyph glyph-name="ebreve" unicode="&#x115;" horiz-adv-x="1077" 
d="M590 1124q216 0 332 -123t116 -325v-51h-653q-3 -180 86 -288t231 -108q191 0 306 150l39 -25q-43 -174 -163.5 -274t-308.5 -100q-233 0 -382.5 147t-149.5 399q0 133 44 246.5t119 190t174.5 119t209.5 42.5zM565 1038q-82 0 -126 -85t-52 -234h328q0 157 -35 238
t-115 81zM596 1225q-144 0 -220.5 89.5t-76.5 254.5h94q18 -154 203 -154q183 0 201 154h94q0 -165 -76.5 -254.5t-218.5 -89.5z" />
    <glyph glyph-name="Edotaccent" unicode="&#x116;" horiz-adv-x="1341" 
d="M707 1518q-91 0 -146 55t-55 133q0 79 55 134.5t146 55.5q90 0 145 -55.5t55 -134.5q0 -78 -55.5 -133t-144.5 -55zM53 0v86q71 7 101 19.5t39.5 36.5t9.5 81v991q0 43 -3.5 64.5t-20.5 38.5t-44.5 23t-81.5 12v86h1178l10 -396h-78q-36 76 -61 120t-54.5 83t-61.5 57.5
t-73 28.5t-98 10h-211v-542h199q68 0 95.5 40t41.5 148h88v-491h-88q-14 109 -41.5 149.5t-95.5 40.5h-199v-453q0 -80 38.5 -108.5t127.5 -28.5h72q35 0 62 3t53 14.5t44.5 21.5t41.5 35.5t38.5 45t41 62.5t43 74.5t51.5 93.5h92l-66 -446h-1190z" />
    <glyph glyph-name="edotaccent" unicode="&#x117;" horiz-adv-x="1077" 
d="M590 1124q216 0 332 -123t116 -325v-51h-653q-3 -180 86 -288t231 -108q191 0 306 150l39 -25q-43 -174 -163.5 -274t-308.5 -100q-233 0 -382.5 147t-149.5 399q0 133 44 246.5t119 190t174.5 119t209.5 42.5zM565 1038q-82 0 -126 -85t-52 -234h328q0 157 -35 238
t-115 81zM592 1223q-91 0 -146 54.5t-55 133.5q0 80 55 135.5t146 55.5q90 0 145.5 -56t55.5 -135t-55.5 -133.5t-145.5 -54.5z" />
    <glyph glyph-name="Eogonek" unicode="&#x118;" horiz-adv-x="1341" 
d="M53 0v86q71 7 101 19.5t39.5 36.5t9.5 81v991q0 43 -3.5 64.5t-20.5 38.5t-44.5 23t-81.5 12v86h1178l10 -396h-78q-36 76 -61 120t-54.5 83t-61.5 57.5t-73 28.5t-98 10h-211v-542h199q68 0 95.5 40t41.5 148h88v-491h-88q-14 109 -41.5 149.5t-95.5 40.5h-199v-453
q0 -80 38.5 -108.5t127.5 -28.5h72q35 0 62 3t53 14.5t44.5 21.5t41.5 35.5t38.5 45t41 62.5t43 74.5t51.5 93.5h92l-66 -446h-219q-121 -80 -121 -195q0 -45 24.5 -73.5t69.5 -28.5q66 0 129 49l33 -41q-60 -76 -124.5 -113.5t-151.5 -37.5q-82 0 -137.5 46.5t-55.5 123.5
q0 162 217 270h-854z" />
    <glyph glyph-name="eogonek" unicode="&#x119;" horiz-adv-x="1077" 
d="M598 1124q211 0 325.5 -123.5t114.5 -324.5v-51h-653q-3 -180 86 -288t231 -108q191 0 306 150l39 -25q-61 -236 -263 -336q-159 -75 -159 -198q0 -54 25.5 -85.5t70.5 -31.5q39 0 66.5 11t64.5 38l33 -41q-60 -76 -125.5 -113.5t-153.5 -37.5q-81 0 -136.5 46.5
t-55.5 123.5q0 148 184 250h-23q-233 0 -382.5 147t-149.5 399q0 134 44 247t119.5 189.5t177 119t214.5 42.5zM565 1038q-82 0 -126 -85t-52 -234h328q0 157 -35 238t-115 81z" />
    <glyph glyph-name="Ecaron" unicode="&#x11a;" horiz-adv-x="1341" 
d="M1077 1837l-246 -313h-253l-246 313h117l256 -143l256 143h116zM53 0v86q71 7 101 19.5t39.5 36.5t9.5 81v991q0 43 -3.5 64.5t-20.5 38.5t-44.5 23t-81.5 12v86h1178l10 -396h-78q-36 76 -61 120t-54.5 83t-61.5 57.5t-73 28.5t-98 10h-211v-542h199q68 0 95.5 40
t41.5 148h88v-491h-88q-14 109 -41.5 149.5t-95.5 40.5h-199v-453q0 -80 38.5 -108.5t127.5 -28.5h72q35 0 62 3t53 14.5t44.5 21.5t41.5 35.5t38.5 45t41 62.5t43 74.5t51.5 93.5h92l-66 -446h-1190z" />
    <glyph glyph-name="ecaron" unicode="&#x11b;" horiz-adv-x="1077" 
d="M956 1577l-237 -348h-254l-238 348h119l246 -174l246 174h118zM590 1124q216 0 332 -123t116 -325v-51h-653q-3 -180 86 -288t231 -108q191 0 306 150l39 -25q-43 -174 -163.5 -274t-308.5 -100q-233 0 -382.5 147t-149.5 399q0 133 44 246.5t119 190t174.5 119
t209.5 42.5zM565 1038q-82 0 -126 -85t-52 -234h328q0 157 -35 238t-115 81z" />
    <glyph glyph-name="Gcircumflex" unicode="&#x11c;" horiz-adv-x="1519" 
d="M977 109v348q0 57 -9.5 81t-39.5 37t-101 21v86h672v-86q-100 -12 -123.5 -35t-23.5 -104v-340q-215 -137 -557 -137q-178 0 -320 53t-233.5 147.5t-140 222.5t-48.5 279q0 175 61.5 322.5t168 246t249 153t304.5 54.5q277 0 462 -121l7 -358h-101q-39 187 -125.5 282
t-228.5 95q-96 0 -168.5 -47.5t-116.5 -132.5t-66 -195.5t-22 -243.5t23 -249t67.5 -207.5t117.5 -144t165 -52.5q78 0 127 25zM981 1835l246 -313h-117l-256 143l-256 -143h-117l246 313h254z" />
    <glyph glyph-name="gcircumflex" unicode="&#x11d;" horiz-adv-x="1140" 
d="M530 385q-124 0 -225 35q-59 -52 -59 -103q0 -27 16 -43t45 -16h445q200 0 296.5 -80t96.5 -225q0 -194 -170.5 -302t-454.5 -108q-246 0 -385 65t-139 185q0 70 55 112t133 54q-63 24 -99 80.5t-36 124.5q0 168 201 276q-195 91 -195 295q0 181 136.5 285t353.5 104
q101 0 194 -28l365 8v-137h-92l-125 4q58 -38 92.5 -98t34.5 -134q0 -111 -64.5 -192t-173 -121.5t-246.5 -40.5zM768 -86h-541q-18 -21 -18 -76q0 -93 87 -145.5t234 -52.5q72 0 133.5 10t112.5 31t80 57t29 84q0 92 -117 92zM696 1569l238 -348h-119l-246 174l-245 -174
h-119l237 348h254zM545 465q66 0 93.5 69t27.5 209q0 126 -35 210.5t-103 84.5q-66 0 -94 -68t-28 -202q0 -131 36 -217t103 -86z" />
    <glyph glyph-name="Gbreve" unicode="&#x11e;" horiz-adv-x="1519" 
d="M852 1516q-145 0 -224 83.5t-79 235.5h94q25 -133 209 -133q186 0 209 133h96q0 -152 -80 -235.5t-225 -83.5zM977 109v348q0 57 -9.5 81t-39.5 37t-101 21v86h672v-86q-100 -12 -123.5 -35t-23.5 -104v-340q-215 -137 -557 -137q-178 0 -320 53t-233.5 147.5t-140 222.5
t-48.5 279q0 175 61.5 322.5t168 246t249 153t304.5 54.5q277 0 462 -121l7 -358h-101q-39 187 -125.5 282t-228.5 95q-96 0 -168.5 -47.5t-116.5 -132.5t-66 -195.5t-22 -243.5t23 -249t67.5 -207.5t117.5 -144t165 -52.5q78 0 127 25z" />
    <glyph glyph-name="gbreve" unicode="&#x11f;" horiz-adv-x="1140" 
d="M530 385q-124 0 -225 35q-59 -52 -59 -103q0 -27 16 -43t45 -16h445q200 0 296.5 -80t96.5 -225q0 -194 -170.5 -302t-454.5 -108q-246 0 -385 65t-139 185q0 70 55 112t133 54q-63 24 -99 80.5t-36 124.5q0 168 201 276q-195 91 -195 295q0 181 136.5 285t353.5 104
q101 0 194 -28l365 8v-137h-92l-125 4q58 -38 92.5 -98t34.5 -134q0 -111 -64.5 -192t-173 -121.5t-246.5 -40.5zM768 -86h-541q-18 -21 -18 -76q0 -93 87 -145.5t234 -52.5q72 0 133.5 10t112.5 31t80 57t29 84q0 92 -117 92zM545 465q66 0 93.5 69t27.5 209
q0 126 -35 210.5t-103 84.5q-66 0 -94 -68t-28 -202q0 -131 36 -217t103 -86zM569 1225q-144 0 -220.5 89.5t-76.5 254.5h95q18 -154 202 -154q183 0 201 154h94q0 -165 -76.5 -254.5t-218.5 -89.5z" />
    <glyph glyph-name="Gdotaccent" unicode="&#x120;" horiz-adv-x="1519" 
d="M854 1518q-91 0 -146 55t-55 133q0 79 55 134.5t146 55.5q90 0 145.5 -55.5t55.5 -134.5q0 -78 -55.5 -133t-145.5 -55zM977 109v348q0 57 -9.5 81t-39.5 37t-101 21v86h672v-86q-100 -12 -123.5 -35t-23.5 -104v-340q-215 -137 -557 -137q-178 0 -320 53t-233.5 147.5
t-140 222.5t-48.5 279q0 175 61.5 322.5t168 246t249 153t304.5 54.5q277 0 462 -121l7 -358h-101q-39 187 -125.5 282t-228.5 95q-96 0 -168.5 -47.5t-116.5 -132.5t-66 -195.5t-22 -243.5t23 -249t67.5 -207.5t117.5 -144t165 -52.5q78 0 127 25z" />
    <glyph glyph-name="gdotaccent" unicode="&#x121;" horiz-adv-x="1140" 
d="M530 385q-124 0 -225 35q-59 -52 -59 -103q0 -27 16 -43t45 -16h445q200 0 296.5 -80t96.5 -225q0 -194 -170.5 -302t-454.5 -108q-246 0 -385 65t-139 185q0 70 55 112t133 54q-63 24 -99 80.5t-36 124.5q0 168 201 276q-195 91 -195 295q0 181 136.5 285t353.5 104
q101 0 194 -28l365 8v-137h-92l-125 4q58 -38 92.5 -98t34.5 -134q0 -111 -64.5 -192t-173 -121.5t-246.5 -40.5zM768 -86h-541q-18 -21 -18 -76q0 -93 87 -145.5t234 -52.5q72 0 133.5 10t112.5 31t80 57t29 84q0 92 -117 92zM545 465q66 0 93.5 69t27.5 209
q0 126 -35 210.5t-103 84.5q-66 0 -94 -68t-28 -202q0 -131 36 -217t103 -86zM569 1223q-91 0 -145.5 54.5t-54.5 133.5q0 80 54.5 135.5t145.5 55.5q90 0 145.5 -56t55.5 -135t-55.5 -133.5t-145.5 -54.5z" />
    <glyph glyph-name="Gcommaaccent" unicode="&#x122;" horiz-adv-x="1519" 
d="M885 -319h-111q-98 23 -98 120q0 57 44.5 92t121.5 35q88 0 139 -52.5t51 -135.5q0 -109 -84.5 -175.5t-257.5 -66.5v74q92 0 142.5 32t52.5 77zM977 109v348q0 57 -9.5 81t-39.5 37t-101 21v86h672v-86q-100 -12 -123.5 -35t-23.5 -104v-340q-215 -137 -557 -137
q-178 0 -320 53t-233.5 147.5t-140 222.5t-48.5 279q0 175 61.5 322.5t168 246t249 153t304.5 54.5q277 0 462 -121l7 -358h-101q-39 187 -125.5 282t-228.5 95q-96 0 -168.5 -47.5t-116.5 -132.5t-66 -195.5t-22 -243.5t23 -249t67.5 -207.5t117.5 -144t165 -52.5
q78 0 127 25z" />
    <glyph glyph-name="gcommaaccent" unicode="&#x123;" horiz-adv-x="1140" 
d="M530 385q-124 0 -225 35q-59 -52 -59 -103q0 -27 16 -43t45 -16h445q200 0 296.5 -80t96.5 -225q0 -194 -170.5 -302t-454.5 -108q-246 0 -385 65t-139 185q0 70 55 112t133 54q-63 24 -99 80.5t-36 124.5q0 168 201 276q-195 91 -195 295q0 181 136.5 285t353.5 104
q101 0 194 -28l365 8v-137h-92l-125 4q58 -38 92.5 -98t34.5 -134q0 -111 -64.5 -192t-173 -121.5t-246.5 -40.5zM768 -86h-541q-18 -21 -18 -76q0 -93 87 -145.5t234 -52.5q72 0 133.5 10t112.5 31t80 57t29 84q0 92 -117 92zM545 465q66 0 93.5 69t27.5 209
q0 126 -35 210.5t-103 84.5q-66 0 -94 -68t-28 -202q0 -131 36 -217t103 -86zM537 1462h112q99 -27 99 -123q0 -55 -45 -91t-121 -36q-88 0 -139.5 53.5t-51.5 137.5q0 109 84.5 175.5t257.5 66.5v-76q-92 0 -142.5 -31t-53.5 -76z" />
    <glyph glyph-name="Hcircumflex" unicode="&#x124;" horiz-adv-x="1728" 
d="M604 1214v-421h520v421q0 44 -3.5 65t-20 38t-44 23t-81.5 12v86h698v-86q-53 -6 -80 -12t-43.5 -23t-20 -38t-3.5 -65v-991q0 -81 23.5 -104t123.5 -33v-86h-698v86q54 6 81.5 12t44 22.5t20 37.5t3.5 65v443h-520v-443q0 -81 24 -104t124 -33v-86h-699v86
q71 7 101 19.5t39.5 36.5t9.5 81v991q0 43 -3.5 64.5t-20.5 38.5t-44.5 23t-81.5 12v86h699v-86q-100 -10 -124 -33.5t-24 -104.5zM991 1835l246 -313h-117l-256 143l-256 -143h-116l245 313h254z" />
    <glyph glyph-name="hcircumflex" unicode="&#x125;" horiz-adv-x="1353" 
d="M152 160v1231l-113 57v61l428 95h63v-684q162 204 381 204q149 0 229.5 -85t80.5 -251v-628q0 -47 23.5 -61t90.5 -19v-80h-602v80q66 5 87.5 19t21.5 61v598q0 72 -30.5 107.5t-106.5 35.5q-90 0 -175 -45v-696q0 -47 21.5 -61t87.5 -19v-80h-602v80q67 5 91 19t24 61z
M809 1958l246 -313h-117l-256 143l-256 -143h-117l246 313h254z" />
    <glyph glyph-name="Hbar" unicode="&#x126;" horiz-adv-x="1769" 
d="M625 1214v-86h520v86q0 43 -3.5 64.5t-20.5 38.5t-44.5 23t-81.5 12v86h699v-86q-100 -10 -124 -33.5t-24 -104.5v-86h148v-127h-148v-778q0 -81 24 -104t124 -33v-86h-699v86q71 7 101 19.5t39.5 36.5t9.5 81v443h-520v-443q0 -81 23.5 -104t123.5 -33v-86h-698v86
q54 6 81.5 12t44 22.5t20 37.5t3.5 65v778h-147v127h147v86q0 44 -3.5 65t-20 38t-44 23t-81.5 12v86h698v-86q-53 -6 -80 -12t-43.5 -23t-20 -38t-3.5 -65zM625 793h520v208h-520v-208z" />
    <glyph glyph-name="hbar" unicode="&#x127;" horiz-adv-x="1353" 
d="M152 160v1046h-113v105h113v80l-113 57v61l428 95h63v-293h248v-105h-248v-286q162 204 381 204q149 0 229.5 -85t80.5 -251v-628q0 -47 23.5 -61t90.5 -19v-80h-602v80q66 5 87.5 19t21.5 61v598q0 72 -30.5 107.5t-106.5 35.5q-90 0 -175 -45v-696q0 -47 21.5 -61
t87.5 -19v-80h-602v80q67 5 91 19t24 61z" />
    <glyph glyph-name="Itilde" unicode="&#x128;" horiz-adv-x="806" 
d="M604 1214v-991q0 -81 24 -104t124 -33v-86h-699v86q71 7 101 19.5t39.5 36.5t9.5 81v991q0 43 -3.5 64.5t-20.5 38.5t-44.5 23t-81.5 12v86h699v-86q-100 -10 -124 -33.5t-24 -104.5zM545 1520q-43 0 -85 19t-69.5 42t-61.5 42t-63 19q-39 0 -70 -29t-63 -85l-72 41
q56 144 108.5 211t129.5 67q43 0 84.5 -19.5t69 -43t61.5 -43t64 -19.5q39 0 69.5 29.5t61.5 85.5l73 -39q-57 -147 -108.5 -212.5t-128.5 -65.5z" />
    <glyph glyph-name="itilde" unicode="&#x129;" horiz-adv-x="684" 
d="M463 1235q-40 0 -79 19t-64 41.5t-56.5 41.5t-58.5 19q-38 0 -66 -27.5t-61 -85.5l-72 41q54 145 103 210t124 65q41 0 80 -19t64.5 -41.5t56.5 -41.5t58 -19q38 0 65 26.5t61 83.5l72 -39q-54 -145 -103 -209.5t-124 -64.5zM537 1124v-964q0 -47 23.5 -61t90.5 -19v-80
h-606v80q67 5 91 19t24 61v719l-113 69v58l426 118h64z" />
    <glyph glyph-name="Imacron" unicode="&#x12a;" horiz-adv-x="806" 
d="M604 1214v-991q0 -81 24 -104t124 -33v-86h-699v86q71 7 101 19.5t39.5 36.5t9.5 81v991q0 43 -3.5 64.5t-20.5 38.5t-44.5 23t-81.5 12v86h699v-86q-100 -10 -124 -33.5t-24 -104.5zM104 1538v176h598v-176h-598z" />
    <glyph glyph-name="imacron" unicode="&#x12b;" horiz-adv-x="684" 
d="M537 1124v-964q0 -47 23.5 -61t90.5 -19v-80h-606v80q67 5 91 19t24 61v719l-113 69v58l426 118h64zM70 1282v174h567v-174h-567z" />
    <glyph glyph-name="Ibreve" unicode="&#x12c;" horiz-adv-x="806" 
d="M604 1214v-991q0 -81 24 -104t124 -33v-86h-699v86q71 7 101 19.5t39.5 36.5t9.5 81v991q0 43 -3.5 64.5t-20.5 38.5t-44.5 23t-81.5 12v86h699v-86q-100 -10 -124 -33.5t-24 -104.5zM403 1516q-143 0 -221 83.5t-78 235.5h93q25 -133 206 -133q182 0 205 133h94
q0 -152 -79 -235.5t-220 -83.5z" />
    <glyph glyph-name="ibreve" unicode="&#x12d;" horiz-adv-x="684" 
d="M537 1124v-964q0 -47 23.5 -61t90.5 -19v-80h-606v80q67 5 91 19t24 61v719l-113 69v58l426 118h64zM356 1225q-142 0 -217.5 89.5t-75.5 254.5h93q18 -154 200 -154q179 0 197 154h94q0 -164 -76 -254t-215 -90z" />
    <glyph glyph-name="Iogonek" unicode="&#x12e;" horiz-adv-x="806" 
d="M604 1214v-991q0 -81 24 -104t124 -33v-86h-250q-121 -80 -121 -195q0 -45 24.5 -73.5t69.5 -28.5q66 0 129 49l33 -41q-60 -76 -125 -113.5t-152 -37.5q-82 0 -137 46.5t-55 123.5q0 162 217 270h-332v86q71 7 101 19.5t39.5 36.5t9.5 81v991q0 43 -3.5 64.5t-20.5 38.5
t-44.5 23t-81.5 12v86h699v-86q-100 -10 -124 -33.5t-24 -104.5z" />
    <glyph glyph-name="iogonek" unicode="&#x12f;" horiz-adv-x="684" 
d="M537 1124v-964q0 -47 23.5 -61t90.5 -19v-80h-207q-120 -80 -120 -195q0 -45 24.5 -73.5t69.5 -28.5q66 0 129 49l33 -41q-60 -76 -125 -113.5t-152 -37.5q-82 0 -137 46.5t-55 123.5q0 162 217 270h-283v80q67 5 91 19t24 61v719l-113 69v58l426 118h64zM352 1214
q-92 0 -146 55.5t-54 135.5t54 134t146 54q90 0 145.5 -54.5t55.5 -133.5t-55.5 -135t-145.5 -56z" />
    <glyph glyph-name="Idotaccent" unicode="&#x130;" horiz-adv-x="806" 
d="M604 1214v-991q0 -81 24 -104t124 -33v-86h-699v86q71 7 101 19.5t39.5 36.5t9.5 81v991q0 43 -3.5 64.5t-20.5 38.5t-44.5 23t-81.5 12v86h699v-86q-100 -10 -124 -33.5t-24 -104.5zM403 1518q-91 0 -145.5 55t-54.5 133q0 80 54.5 135t145.5 55q90 0 145.5 -55.5
t55.5 -134.5q0 -78 -55.5 -133t-145.5 -55z" />
    <glyph glyph-name="dotlessi" unicode="&#x131;" horiz-adv-x="684" 
d="M537 1124v-964q0 -47 23.5 -61t90.5 -19v-80h-606v80q67 5 91 19t24 61v719l-113 69v58l426 118h64z" />
    <glyph glyph-name="IJ" unicode="&#x132;" horiz-adv-x="1966" 
d="M604 1214v-991q0 -81 24 -104t124 -33v-86h-699v86q71 7 101 19.5t39.5 36.5t9.5 81v991q0 43 -3.5 64.5t-20.5 38.5t-44.5 23t-81.5 12v86h699v-86q-100 -10 -124 -33.5t-24 -104.5zM1384 344v870q0 44 -3.5 65t-20 38t-44 23t-81.5 12v86h698v-86q-53 -6 -80 -12
t-43.5 -23t-20 -38t-3.5 -65v-753q0 -481 -549 -481q-230 0 -351.5 79t-121.5 228q0 122 102 182h258q-14 -86 -14 -158q0 -243 137 -243q34 0 59 13t40 35t23.5 58t11.5 75.5t3 94.5z" />
    <glyph glyph-name="ij" unicode="&#x133;" horiz-adv-x="1302" 
d="M537 1124v-964q0 -47 23.5 -61t90.5 -19v-80h-606v80q67 5 91 19t24 61v719l-113 69v58l426 118h64zM352 1214q-92 0 -146 55.5t-54 135.5t54 134t146 54q90 0 145.5 -54.5t55.5 -133.5t-55.5 -135t-145.5 -56zM813 879l-115 69v58l428 118h64v-907q0 -165 -34 -257
t-109 -167q-79 -77 -156 -125t-197 -104l-32 41l83 131q24 38 38.5 81t20.5 98t7.5 97.5t1.5 116.5v750zM999 1214q-91 0 -145.5 55.5t-54.5 135.5q0 79 54.5 133.5t145.5 54.5t146 -54.5t55 -133.5q0 -80 -55 -135.5t-146 -55.5z" />
    <glyph glyph-name="Jcircumflex" unicode="&#x134;" horiz-adv-x="1193" 
d="M610 344v870q0 44 -3.5 65t-20 38t-44 23t-81.5 12v86h698v-86q-53 -6 -80 -12t-43.5 -23t-20 -38t-3.5 -65v-753q0 -481 -549 -481q-230 0 -351.5 79t-121.5 228q0 122 102 182h258q-14 -86 -14 -158q0 -243 137 -243q34 0 59 13t40 35t23.5 58t11.5 75.5t3 94.5z
M938 1835l246 -313h-117l-256 143l-256 -143h-117l246 313h254z" />
    <glyph glyph-name="jcircumflex" unicode="&#x135;" horiz-adv-x="618" 
d="M129 879l-115 69v58l428 118h64v-907q0 -164 -34 -256t-110 -168q-79 -78 -155.5 -126t-196.5 -103l-33 41l84 131q24 38 38.5 81t20.5 98t7.5 97.5t1.5 116.5v750zM420 1569l215 -344h-107l-225 172l-223 -172h-109l217 344h232z" />
    <glyph glyph-name="Kcommaaccent" unicode="&#x136;" horiz-adv-x="1572" 
d="M844 -319h-111q-98 23 -98 120q0 57 44.5 92t121.5 35q88 0 139 -52.5t51 -135.5q0 -109 -84.5 -175.5t-257.5 -66.5v74q92 0 142.5 32t52.5 77zM961 879l425 -658q47 -69 84.5 -98.5t102.5 -36.5v-86h-477q-95 79 -187 236l-286 462l479 500q57 57 57 96
q0 26 -31.5 40.5t-109.5 17.5v86h485v-86q-62 -3 -97 -19t-77 -59zM604 1214v-991q0 -81 24 -104t124 -33v-86h-699v86q71 7 101 19.5t39.5 36.5t9.5 81v991q0 43 -3.5 64.5t-20.5 38.5t-44.5 23t-81.5 12v86h699v-86q-100 -10 -124 -33.5t-24 -104.5z" />
    <glyph glyph-name="kcommaaccent" unicode="&#x137;" horiz-adv-x="1306" 
d="M709 -319h-111q-98 23 -98 120q0 57 44.5 92t121.5 35q88 0 139 -52.5t51 -135.5q0 -109 -84.5 -175.5t-257.5 -66.5v74q92 0 142.5 32t52.5 77zM545 580l313 284q68 60 68 99q0 29 -26 41t-99 20v80h465v-80q-58 -8 -95.5 -23.5t-74.5 -52.5l-236 -221l447 -672v-55
h-394zM152 160v1231l-113 57v61l428 95h63v-1444q0 -47 24 -61t91 -19v-80h-608v80q67 5 91 19t24 61z" />
    <glyph glyph-name="kgreenlandic" unicode="&#x138;" horiz-adv-x="1312" 
d="M551 580l315 284q66 61 66 99q0 29 -25.5 41t-97.5 20v80h465v-80q-59 -8 -96 -23.5t-76 -52.5l-234 -221l445 -672v-55h-391zM160 160v717l-113 73v56l428 118h62v-964q0 -47 23.5 -61t90.5 -19v-80h-606v80q67 5 91 19t24 61z" />
    <glyph glyph-name="Lacute" unicode="&#x139;" horiz-adv-x="1318" 
d="M455 1827h368v-19l-354 -286h-115zM604 1214v-981q0 -81 35 -109t123 -28h57q53 0 93.5 16.5t86.5 63.5t93.5 117t119.5 192h88l-77 -485h-1170v86q71 7 101 19.5t39.5 36.5t9.5 81v991q0 43 -3.5 64.5t-20.5 38.5t-44.5 23t-81.5 12v86h699v-86q-100 -10 -124 -33.5
t-24 -104.5z" />
    <glyph glyph-name="lacute" unicode="&#x13a;" horiz-adv-x="675" 
d="M330 1948h368v-19l-354 -287h-115zM530 1604v-1444q0 -47 24 -61t91 -19v-80h-608v80q67 5 91 19t24 61v1231l-113 57v61l428 95h63z" />
    <glyph glyph-name="Lcommaaccent" unicode="&#x13b;" horiz-adv-x="1318" 
d="M709 -319h-111q-98 23 -98 120q0 57 44.5 92t121.5 35q88 0 139 -52.5t51 -135.5q0 -109 -84.5 -175.5t-257.5 -66.5v74q92 0 142.5 32t52.5 77zM604 1214v-981q0 -81 35 -109t123 -28h57q53 0 93.5 16.5t86.5 63.5t93.5 117t119.5 192h88l-77 -485h-1170v86
q71 7 101 19.5t39.5 36.5t9.5 81v991q0 43 -3.5 64.5t-20.5 38.5t-44.5 23t-81.5 12v86h699v-86q-100 -10 -124 -33.5t-24 -104.5z" />
    <glyph glyph-name="lcommaaccent" unicode="&#x13c;" horiz-adv-x="675" 
d="M373 -319h-111q-98 23 -98 120q0 57 44.5 92t121.5 35q88 0 139 -52.5t51 -135.5q0 -109 -84.5 -175.5t-257.5 -66.5v74q92 0 142.5 32t52.5 77zM530 1604v-1444q0 -47 24 -61t91 -19v-80h-608v80q67 5 91 19t24 61v1231l-113 57v61l428 95h63z" />
    <glyph glyph-name="Lcaron" unicode="&#x13d;" horiz-adv-x="1318" 
d="M1192 1415l-238 -397h-84l27 420h295v-23zM604 1214v-981q0 -81 35 -109t123 -28h57q53 0 93.5 16.5t86.5 63.5t93.5 117t119.5 192h88l-77 -485h-1170v86q71 7 101 19.5t39.5 36.5t9.5 81v991q0 43 -3.5 64.5t-20.5 38.5t-44.5 23t-81.5 12v86h699v-86
q-100 -10 -124 -33.5t-24 -104.5z" />
    <glyph glyph-name="lcaron" unicode="&#x13e;" horiz-adv-x="675" 
d="M932 1581l-238 -397h-84l27 420h295v-23zM530 1604v-1444q0 -47 24 -61t91 -19v-80h-608v80q67 5 91 19t24 61v1231l-113 57v61l428 95h63z" />
    <glyph glyph-name="Ldot" unicode="&#x13f;" horiz-adv-x="1318" 
d="M604 1214v-981q0 -81 35 -109t123 -28h57q53 0 93.5 16.5t86.5 63.5t93.5 117t119.5 192h88l-77 -485h-1170v86q71 7 101 19.5t39.5 36.5t9.5 81v991q0 43 -3.5 64.5t-20.5 38.5t-44.5 23t-81.5 12v86h699v-86q-100 -10 -124 -33.5t-24 -104.5zM889 829q0 88 58.5 145.5
t142.5 57.5q86 0 143 -57t57 -146q0 -88 -57 -143t-143 -55q-85 0 -143 55t-58 143z" />
    <glyph glyph-name="ldot" unicode="&#x140;" horiz-adv-x="931" 
d="M530 1604v-1444q0 -47 24 -61t91 -19v-80h-608v80q67 5 91 19t24 61v1231l-113 57v61l428 95h63zM600 791q0 87 57.5 143.5t141.5 56.5t140 -56.5t56 -143.5t-56 -142t-140 -55q-85 0 -142 55t-57 142z" />
    <glyph glyph-name="Lslash" unicode="&#x141;" horiz-adv-x="1318" 
d="M604 1214v-401l285 98v-123l-285 -100v-455q0 -81 35 -109t123 -28h57q53 0 93.5 16.5t86.5 63.5t93.5 117t119.5 192h88l-77 -485h-1170v86q71 7 101 19.5t39.5 36.5t9.5 81v344l-144 -49v123l144 51v522q0 43 -3.5 64.5t-20.5 38.5t-44.5 23t-81.5 12v86h699v-86
q-100 -10 -124 -33.5t-24 -104.5z" />
    <glyph glyph-name="lslash" unicode="&#x142;" horiz-adv-x="718" 
d="M545 1604v-578l162 78v-119l-162 -80v-745q0 -47 23.5 -61t90.5 -19v-80h-608v80q67 5 91 19t24 61v598l-152 -72v119l152 74v512l-113 57v61l428 95h64z" />
    <glyph glyph-name="Nacute" unicode="&#x143;" horiz-adv-x="1544" 
d="M784 1827h369v-19l-354 -286h-115zM1223 627v585q0 78 -40 104.5t-167 35.5v86h491v-86q-53 -5 -80.5 -12t-43.5 -24t-19.5 -38.5t-3.5 -65.5v-1214h-146l-874 1081v-854q0 -78 40 -104t167 -35v-86h-492v86q53 6 80.5 12.5t44 23t20 38.5t3.5 65v996q-42 72 -71.5 100
t-78.5 31v86h516z" />
    <glyph glyph-name="nacute" unicode="&#x144;" horiz-adv-x="1359" 
d="M702 1567h367v-19l-362 -317h-107zM850 160v598q0 72 -30.5 107.5t-106.5 35.5q-88 0 -176 -45v-696q0 -47 22 -61t88 -19v-80h-602v80q67 5 91 19t24 61v719l-113 69v58l428 118h70l-8 -204q162 204 381 204q151 0 231 -84.5t80 -251.5v-628q0 -47 23.5 -61t90.5 -19
v-80h-602v80q66 5 87.5 19t21.5 61z" />
    <glyph glyph-name="Ncommaaccent" unicode="&#x145;" horiz-adv-x="1544" 
d="M831 -319h-110q-98 23 -98 120q0 57 44 92t121 35q88 0 139.5 -52.5t51.5 -135.5q0 -109 -84.5 -175.5t-257.5 -66.5v74q92 0 142 32t52 77zM1223 627v585q0 78 -40 104.5t-167 35.5v86h491v-86q-53 -5 -80.5 -12t-43.5 -24t-19.5 -38.5t-3.5 -65.5v-1214h-146l-874 1081
v-854q0 -78 40 -104t167 -35v-86h-492v86q53 6 80.5 12.5t44 23t20 38.5t3.5 65v996q-42 72 -71.5 100t-78.5 31v86h516z" />
    <glyph glyph-name="ncommaaccent" unicode="&#x146;" horiz-adv-x="1359" 
d="M748 -319h-111q-98 23 -98 120q0 57 44.5 92t121.5 35q88 0 139 -52.5t51 -135.5q0 -109 -84.5 -175.5t-257.5 -66.5v74q92 0 142.5 32t52.5 77zM850 160v598q0 72 -30.5 107.5t-106.5 35.5q-88 0 -176 -45v-696q0 -47 22 -61t88 -19v-80h-602v80q67 5 91 19t24 61v719
l-113 69v58l428 118h70l-8 -204q162 204 381 204q151 0 231 -84.5t80 -251.5v-628q0 -47 23.5 -61t90.5 -19v-80h-602v80q66 5 87.5 19t21.5 61z" />
    <glyph glyph-name="Ncaron" unicode="&#x147;" horiz-adv-x="1544" 
d="M1171 1837l-245 -313h-254l-246 313h117l256 -143l256 143h116zM1223 627v585q0 78 -40 104.5t-167 35.5v86h491v-86q-53 -5 -80.5 -12t-43.5 -24t-19.5 -38.5t-3.5 -65.5v-1214h-146l-874 1081v-854q0 -78 40 -104t167 -35v-86h-492v86q53 6 80.5 12.5t44 23t20 38.5
t3.5 65v996q-42 72 -71.5 100t-78.5 31v86h516z" />
    <glyph glyph-name="ncaron" unicode="&#x148;" horiz-adv-x="1359" 
d="M1079 1577l-237 -348h-254l-238 348h119l246 -174l246 174h118zM850 160v598q0 72 -30.5 107.5t-106.5 35.5q-88 0 -176 -45v-696q0 -47 22 -61t88 -19v-80h-602v80q67 5 91 19t24 61v719l-113 69v58l428 118h70l-8 -204q162 204 381 204q151 0 231 -84.5t80 -251.5v-628
q0 -47 23.5 -61t90.5 -19v-80h-602v80q66 5 87.5 19t21.5 61z" />
    <glyph glyph-name="Eng" unicode="&#x14a;" horiz-adv-x="1544" 
d="M1077 170l-737 909v-854q0 -78 40 -104t167 -35v-86h-492v86q53 6 80.5 12.5t44 23t20 38.5t3.5 65v996q-42 72 -71.5 100t-78.5 31v86h518l652 -811v585q0 78 -40 104.5t-167 35.5v86h491v-86q-53 -5 -80.5 -12t-43.5 -24t-19.5 -38.5t-3.5 -65.5v-995
q0 -163 -28.5 -253t-98.5 -165q-78 -83 -147.5 -129.5t-182.5 -97.5l-35 41l88 117q70 92 95.5 195.5t25.5 244.5z" />
    <glyph glyph-name="eng" unicode="&#x14b;" horiz-adv-x="1339" 
d="M850 129v629q0 72 -30.5 107.5t-106.5 35.5q-88 0 -176 -45v-696q0 -47 22 -61t88 -19v-80h-602v80q67 5 91 19t24 61v719l-113 69v58l428 118h70l-8 -204q162 204 381 204q151 0 231 -84.5t80 -251.5v-571q0 -163 -34.5 -255t-109.5 -169q-79 -78 -155.5 -126
t-196.5 -103l-35 41l84 131q24 38 38.5 81t20.5 98t7.5 97.5t1.5 116.5z" />
    <glyph glyph-name="Omacron" unicode="&#x14c;" horiz-adv-x="1529" 
d="M473 1538v176h598v-176h-598zM774 78q74 0 130 53t87 143.5t45.5 195.5t14.5 224q0 142 -16.5 259t-51 210t-93 145t-136.5 52q-74 0 -130 -53t-87 -143.5t-45.5 -196t-14.5 -224.5q0 -142 16.5 -259t51 -209.5t93 -144.5t136.5 -52zM745 -20q-166 0 -299.5 57
t-218 155.5t-129.5 225.5t-45 272q0 174 54.5 318.5t151.5 242.5t231.5 152.5t291.5 54.5q166 0 299.5 -57t218.5 -155.5t130 -225.5t45 -272q0 -231 -94 -406.5t-259.5 -268.5t-376.5 -93z" />
    <glyph glyph-name="omacron" unicode="&#x14d;" horiz-adv-x="1230" 
d="M330 1280v176h585v-176h-585zM625 66q88 0 124.5 105t36.5 312q0 555 -180 555q-88 0 -125 -105.5t-37 -311.5q0 -555 181 -555zM614 -20q-255 0 -413 150t-158 400q0 259 161 426.5t412 167.5q255 0 413.5 -150.5t158.5 -400.5q0 -259 -161.5 -426t-412.5 -167z" />
    <glyph glyph-name="Obreve" unicode="&#x14e;" horiz-adv-x="1529" 
d="M770 1516q-145 0 -224 83.5t-79 235.5h94q25 -133 209 -133q186 0 209 133h96q0 -152 -80 -235.5t-225 -83.5zM774 78q74 0 130 53t87 143.5t45.5 195.5t14.5 224q0 142 -16.5 259t-51 210t-93 145t-136.5 52q-74 0 -130 -53t-87 -143.5t-45.5 -196t-14.5 -224.5
q0 -142 16.5 -259t51 -209.5t93 -144.5t136.5 -52zM745 -20q-166 0 -299.5 57t-218 155.5t-129.5 225.5t-45 272q0 174 54.5 318.5t151.5 242.5t231.5 152.5t291.5 54.5q166 0 299.5 -57t218.5 -155.5t130 -225.5t45 -272q0 -231 -94 -406.5t-259.5 -268.5t-376.5 -93z" />
    <glyph glyph-name="obreve" unicode="&#x14f;" horiz-adv-x="1230" 
d="M625 66q88 0 124.5 105t36.5 312q0 555 -180 555q-88 0 -125 -105.5t-37 -311.5q0 -555 181 -555zM614 -20q-255 0 -413 150t-158 400q0 259 161 426.5t412 167.5q255 0 413.5 -150.5t158.5 -400.5q0 -259 -161.5 -426t-412.5 -167zM623 1225q-144 0 -220.5 89.5
t-76.5 254.5h94q18 -154 203 -154q182 0 200 154h95q0 -165 -76.5 -254.5t-218.5 -89.5z" />
    <glyph glyph-name="Ohungarumlaut" unicode="&#x150;" horiz-adv-x="1529" 
d="M774 78q74 0 130 53t87 143.5t45.5 195.5t14.5 224q0 142 -16.5 259t-51 210t-93 145t-136.5 52q-74 0 -130 -53t-87 -143.5t-45.5 -196t-14.5 -224.5q0 -142 16.5 -259t51 -209.5t93 -144.5t136.5 -52zM745 -20q-166 0 -299.5 57t-218 155.5t-129.5 225.5t-45 272
q0 174 54.5 318.5t151.5 242.5t231.5 152.5t291.5 54.5q166 0 299.5 -57t218.5 -155.5t130 -225.5t45 -272q0 -231 -94 -406.5t-259.5 -268.5t-376.5 -93zM633 1827h307v-19l-301 -286h-109zM1001 1827h308v-19l-301 -286h-111z" />
    <glyph glyph-name="ohungarumlaut" unicode="&#x151;" horiz-adv-x="1230" 
d="M461 1567h307v-19l-301 -317h-109zM829 1567h308v-19l-303 -317h-109zM625 66q88 0 124.5 105t36.5 312q0 555 -180 555q-88 0 -125 -105.5t-37 -311.5q0 -555 181 -555zM614 -20q-255 0 -413 150t-158 400q0 259 161 426.5t412 167.5q255 0 413.5 -150.5t158.5 -400.5
q0 -259 -161.5 -426t-412.5 -167z" />
    <glyph glyph-name="OE" unicode="&#x152;" horiz-adv-x="2148" 
d="M1010 1341h-82q-211 0 -334 -162.5t-123 -437.5q0 -298 131.5 -471.5t366.5 -173.5h41v1245zM2050 0h-1151q-210 0 -373 53t-265.5 148.5t-155 222t-52.5 278.5q0 229 104 395.5t294.5 253.5t447.5 87h1149v-396h-78q-35 75 -59.5 120t-54 83.5t-61.5 57t-73 28.5t-98 10
h-213v-542h199q70 0 97.5 40t39.5 148h90v-491h-90q-12 108 -39.5 149t-97.5 41h-199v-453q0 -80 38.5 -108.5t127.5 -28.5h72q28 0 51 2t45 9t38.5 13t35.5 22t31.5 27t31.5 37.5t31 44t34 56t36.5 64t41.5 75.5h93z" />
    <glyph glyph-name="oe" unicode="&#x153;" horiz-adv-x="1830" 
d="M616 1124q111 0 209.5 -41t171.5 -112q153 153 353 153q212 0 327 -123t115 -325v-51h-655q-1 -181 87 -288.5t230 -107.5q193 0 305 150l39 -25q-43 -174 -163 -274t-308 -100q-100 0 -192 39.5t-162 107.5q-161 -147 -359 -147q-255 0 -413 150t-158 400
q0 259 161 426.5t412 167.5zM625 66q88 0 125.5 105.5t37.5 311.5q0 555 -182 555q-87 0 -124.5 -106t-37.5 -311q0 -555 181 -555zM1319 1038q-82 0 -127 -85.5t-53 -233.5h327q0 157 -34 238t-113 81z" />
    <glyph glyph-name="Racute" unicode="&#x154;" horiz-adv-x="1554" 
d="M664 1337h-60v-635h62q139 0 215.5 85.5t76.5 240.5q0 144 -76.5 226.5t-217.5 82.5zM604 600v-377q0 -81 24 -104t124 -33v-86h-699v86q71 7 101 19.5t39.5 36.5t9.5 81v991q0 43 -3.5 64.5t-20.5 38.5t-44.5 23t-81.5 12v86h752q252 0 402.5 -110t150.5 -298
q0 -75 -26 -138.5t-71 -108t-97 -74.5t-113 -50l284 -407q66 -97 108 -130t111 -36v-86h-469q-80 63 -172 217l-233 383h-76zM729 1827h369v-19l-355 -286h-114z" />
    <glyph glyph-name="racute" unicode="&#x155;" horiz-adv-x="935" 
d="M522 1567h367v-19l-363 -317h-106zM537 731v-541q0 -62 32.5 -80t130.5 -30v-80h-655v80q67 5 91 19t24 61v719l-113 69v58l428 118h70l-8 -315q63 179 125 247t159 68q69 0 103 -34v-285h-50q-119 0 -196 -13.5t-141 -60.5z" />
    <glyph glyph-name="Rcommaaccent" unicode="&#x156;" horiz-adv-x="1554" 
d="M821 -319h-110q-99 23 -99 120q0 57 44.5 92t121.5 35q88 0 139.5 -52.5t51.5 -135.5q0 -109 -84.5 -175.5t-257.5 -66.5v74q92 0 142 32t52 77zM664 1337h-60v-635h62q139 0 215.5 85.5t76.5 240.5q0 144 -76.5 226.5t-217.5 82.5zM604 600v-377q0 -81 24 -104t124 -33
v-86h-699v86q71 7 101 19.5t39.5 36.5t9.5 81v991q0 43 -3.5 64.5t-20.5 38.5t-44.5 23t-81.5 12v86h752q252 0 402.5 -110t150.5 -298q0 -75 -26 -138.5t-71 -108t-97 -74.5t-113 -50l284 -407q66 -97 108 -130t111 -36v-86h-469q-80 63 -172 217l-233 383h-76z" />
    <glyph glyph-name="rcommaaccent" unicode="&#x157;" horiz-adv-x="935" 
d="M397 -319h-110q-99 23 -99 120q0 57 44.5 92t121.5 35q88 0 139.5 -52.5t51.5 -135.5q0 -109 -84.5 -175.5t-257.5 -66.5v74q92 0 142 32t52 77zM537 731v-541q0 -62 32.5 -80t130.5 -30v-80h-655v80q67 5 91 19t24 61v719l-113 69v58l428 118h70l-8 -315q63 179 125 247
t159 68q69 0 103 -34v-285h-50q-119 0 -196 -13.5t-141 -60.5z" />
    <glyph glyph-name="Rcaron" unicode="&#x158;" horiz-adv-x="1554" 
d="M1114 1837l-246 -313h-254l-245 313h116l256 -143l256 143h117zM664 1337h-60v-635h62q139 0 215.5 85.5t76.5 240.5q0 144 -76.5 226.5t-217.5 82.5zM604 600v-377q0 -81 24 -104t124 -33v-86h-699v86q71 7 101 19.5t39.5 36.5t9.5 81v991q0 43 -3.5 64.5t-20.5 38.5
t-44.5 23t-81.5 12v86h752q252 0 402.5 -110t150.5 -298q0 -75 -26 -138.5t-71 -108t-97 -74.5t-113 -50l284 -407q66 -97 108 -130t111 -36v-86h-469q-80 63 -172 217l-233 383h-76z" />
    <glyph glyph-name="rcaron" unicode="&#x159;" horiz-adv-x="935" 
d="M899 1577l-237 -348h-254l-238 348h119l246 -174l245 174h119zM537 731v-541q0 -62 32.5 -80t130.5 -30v-80h-655v80q67 5 91 19t24 61v719l-113 69v58l428 118h70l-8 -315q63 179 125 247t159 68q69 0 103 -34v-285h-50q-119 0 -196 -13.5t-141 -60.5z" />
    <glyph glyph-name="Sacute" unicode="&#x15a;" horiz-adv-x="1185" 
d="M563 -20q-148 0 -276.5 38.5t-204.5 98.5l-23 356h109q40 -179 142.5 -287t252.5 -108q111 0 175.5 51t64.5 145q0 97 -69 152t-245 109q-212 62 -316.5 171t-104.5 289q0 211 145 337t375 126q136 0 250.5 -33t191.5 -90v-311h-92q-36 161 -124 249.5t-226 88.5
q-96 0 -153.5 -52t-57.5 -139q0 -97 64.5 -149.5t228.5 -101.5q111 -34 187 -71t139.5 -92t94.5 -133.5t31 -183.5q0 -115 -44 -204.5t-121 -144.5t-177 -83t-217 -28zM614 1827h369v-19l-354 -286h-115z" />
    <glyph glyph-name="sacute" unicode="&#x15b;" horiz-adv-x="976" 
d="M494 1567h366v-19l-362 -317h-107zM465 -20q-244 0 -389 104l-13 276h95q32 -132 111.5 -213t195.5 -81q76 0 125 36.5t49 102.5q0 72 -50 109t-169 75q-184 57 -270.5 142t-86.5 235q0 168 116.5 263t305.5 95q208 0 353 -94v-246h-88q-20 108 -88 181t-170 73
q-67 0 -107.5 -34.5t-40.5 -92.5q0 -61 44 -95.5t153 -72.5q100 -33 164.5 -64.5t116 -76.5t75 -105.5t23.5 -142.5q0 -178 -122.5 -276t-332.5 -98z" />
    <glyph glyph-name="Scircumflex" unicode="&#x15c;" horiz-adv-x="1185" 
d="M563 -20q-148 0 -276.5 38.5t-204.5 98.5l-23 356h109q40 -179 142.5 -287t252.5 -108q111 0 175.5 51t64.5 145q0 97 -69 152t-245 109q-212 62 -316.5 171t-104.5 289q0 211 145 337t375 126q136 0 250.5 -33t191.5 -90v-311h-92q-36 161 -124 249.5t-226 88.5
q-96 0 -153.5 -52t-57.5 -139q0 -97 64.5 -149.5t228.5 -101.5q111 -34 187 -71t139.5 -92t94.5 -133.5t31 -183.5q0 -115 -44 -204.5t-121 -144.5t-177 -83t-217 -28zM737 1835l246 -313h-117l-256 143l-256 -143h-116l245 313h254z" />
    <glyph glyph-name="scircumflex" unicode="&#x15d;" horiz-adv-x="976" 
d="M633 1569l237 -348h-118l-246 174l-246 -174h-119l238 348h254zM465 -20q-244 0 -389 104l-13 276h95q32 -132 111.5 -213t195.5 -81q76 0 125 36.5t49 102.5q0 72 -50 109t-169 75q-184 57 -270.5 142t-86.5 235q0 168 116.5 263t305.5 95q208 0 353 -94v-246h-88
q-20 108 -88 181t-170 73q-67 0 -107.5 -34.5t-40.5 -92.5q0 -61 44 -95.5t153 -72.5q100 -33 164.5 -64.5t116 -76.5t75 -105.5t23.5 -142.5q0 -178 -122.5 -276t-332.5 -98z" />
    <glyph glyph-name="Scedilla" unicode="&#x15e;" horiz-adv-x="1185" 
d="M362 -473l-16 72q105 0 160 28t55 70q0 40 -39 54.5t-123 17.5l86 215q-126 9 -232 45t-171 88l-23 356h109q40 -179 142.5 -287t252.5 -108q111 0 175.5 51t64.5 145q0 97 -69 152t-245 109q-212 62 -316.5 171t-104.5 289q0 211 145 337t375 126q136 0 250.5 -33
t191.5 -90v-311h-92q-36 161 -124 249.5t-226 88.5q-96 0 -153.5 -52t-57.5 -139q0 -97 64.5 -149.5t228.5 -101.5q111 -34 187 -71t139.5 -92t94.5 -133.5t31 -183.5q0 -115 -44 -204.5t-121 -144.5t-177 -83t-217 -28h-2l-24 -62q98 0 156.5 -44.5t58.5 -123.5
q0 -74 -56 -125.5t-141.5 -74.5t-192.5 -23z" />
    <glyph glyph-name="scedilla" unicode="&#x15f;" horiz-adv-x="976" 
d="M258 -473l-16 72q105 0 160 28t55 70q0 40 -39 54.5t-123 17.5l86 215q-194 18 -305 100l-13 276h95q32 -132 111.5 -213t195.5 -81q76 0 125 36.5t49 102.5q0 72 -50 109t-169 75q-184 57 -270.5 142t-86.5 235q0 168 116.5 263t305.5 95q208 0 353 -94v-246h-88
q-20 108 -88 181t-170 73q-67 0 -107.5 -34.5t-40.5 -92.5q0 -61 44 -95.5t153 -72.5q100 -33 164.5 -64.5t116 -76.5t75 -105.5t23.5 -142.5q0 -178 -122.5 -276t-332.5 -98h-8l-25 -62q98 0 156.5 -44.5t58.5 -123.5q0 -74 -55.5 -125.5t-141 -74.5t-192.5 -23z" />
    <glyph glyph-name="Scaron" unicode="&#x160;" horiz-adv-x="1185" 
d="M563 -20q-148 0 -276.5 38.5t-204.5 98.5l-23 356h109q40 -179 142.5 -287t252.5 -108q111 0 175.5 51t64.5 145q0 97 -69 152t-245 109q-212 62 -316.5 171t-104.5 289q0 211 145 337t375 126q136 0 250.5 -33t191.5 -90v-311h-92q-36 161 -124 249.5t-226 88.5
q-96 0 -153.5 -52t-57.5 -139q0 -97 64.5 -149.5t228.5 -101.5q111 -34 187 -71t139.5 -92t94.5 -133.5t31 -183.5q0 -115 -44 -204.5t-121 -144.5t-177 -83t-217 -28zM981 1837l-246 -313h-254l-245 313h116l256 -143l256 143h117z" />
    <glyph glyph-name="scaron" unicode="&#x161;" horiz-adv-x="976" 
d="M870 1577l-237 -348h-254l-238 348h119l246 -174l246 174h118zM465 -20q-244 0 -389 104l-13 276h95q32 -132 111.5 -213t195.5 -81q76 0 125 36.5t49 102.5q0 72 -50 109t-169 75q-184 57 -270.5 142t-86.5 235q0 168 116.5 263t305.5 95q208 0 353 -94v-246h-88
q-20 108 -88 181t-170 73q-67 0 -107.5 -34.5t-40.5 -92.5q0 -61 44 -95.5t153 -72.5q100 -33 164.5 -64.5t116 -76.5t75 -105.5t23.5 -142.5q0 -178 -122.5 -276t-332.5 -98z" />
    <glyph glyph-name="Tcedilla" unicode="&#x162;" horiz-adv-x="1449" 
d="M756 -319h-111q-98 23 -98 120q0 57 44.5 92t121.5 35q88 0 139 -52.5t51 -135.5q0 -109 -84.5 -175.5t-257.5 -66.5v74q92 0 142.5 32t52.5 77zM61 1438h1328l30 -514h-84q-38 81 -59.5 126t-49.5 99t-46 80.5t-41.5 55.5t-44.5 41t-46 20t-55 8h-67v-1139q0 -76 31 -97
t137 -32v-86h-738v86q106 11 137 32t31 97v1139h-67q-30 0 -55 -8t-46 -20t-44.5 -41t-41.5 -55.5t-46 -80.5t-49.5 -99t-59.5 -126h-84z" />
    <glyph glyph-name="tcedilla" unicode="&#x163;" horiz-adv-x="800" 
d="M446 -319h-110q-98 23 -98 120q0 57 44 92t121 35q88 0 139.5 -52.5t51.5 -135.5q0 -109 -84.5 -175.5t-257.5 -66.5v74q92 0 142 32t52 77zM506 1382v-278h239v-111h-239v-678q0 -73 29 -107t88 -34q71 0 147 51l31 -45q-123 -200 -357 -200q-149 0 -234 80.5t-85 254.5
v678h-117v68q121 45 229 129t189 192h80z" />
    <glyph glyph-name="Tcaron" unicode="&#x164;" horiz-adv-x="1449" 
d="M1096 1837l-246 -313h-254l-246 313h117l256 -143l256 143h117zM61 1438h1328l30 -514h-84q-38 81 -59.5 126t-49.5 99t-46 80.5t-41.5 55.5t-44.5 41t-46 20t-55 8h-67v-1139q0 -76 31 -97t137 -32v-86h-738v86q106 11 137 32t31 97v1139h-67q-30 0 -55 -8t-46 -20
t-44.5 -41t-41.5 -55.5t-46 -80.5t-49.5 -99t-59.5 -126h-84z" />
    <glyph glyph-name="tcaron" unicode="&#x165;" horiz-adv-x="800" 
d="M903 1581l-237 -397h-84l26 420h295v-23zM506 1382v-278h239v-111h-239v-678q0 -73 29 -107t88 -34q71 0 147 51l31 -45q-123 -200 -357 -200q-149 0 -234 80.5t-85 254.5v678h-117v68q121 45 229 129t189 192h80z" />
    <glyph glyph-name="Tbar" unicode="&#x166;" horiz-adv-x="1449" 
d="M61 1438h1328l30 -514h-84q-38 81 -59.5 126t-49.5 99t-46 80.5t-41.5 55.5t-44.5 41t-46 20t-55 8h-67v-561h215v-127h-215v-451q0 -76 31 -97t137 -32v-86h-738v86q106 11 137 32t31 97v451h-215v127h215v561h-67q-30 0 -55 -8t-46 -20t-44.5 -41t-41.5 -55.5
t-46 -80.5t-49.5 -99t-59.5 -126h-84z" />
    <glyph glyph-name="tbar" unicode="&#x167;" horiz-adv-x="823" 
d="M516 1382v-278h240v-111h-240v-213h242v-110h-242v-355q0 -73 29 -107t88 -34q71 0 147 51l31 -45q-123 -200 -356 -200q-149 0 -234.5 80.5t-85.5 254.5v355h-117v110h117v213h-117v68q121 45 229 129t189 192h80z" />
    <glyph glyph-name="Utilde" unicode="&#x168;" horiz-adv-x="1542" 
d="M993 1522q-43 0 -85.5 19t-70.5 42.5t-62 42.5t-64 19q-40 0 -72 -29.5t-64 -85.5l-73 41q57 144 110 210t131 66q43 0 85.5 -19t70.5 -42.5t62.5 -42.5t64.5 -19q40 0 71 28.5t64 84.5l74 -39q-57 -145 -110 -210.5t-132 -65.5zM578 1214v-679q0 -383 313 -383
q73 0 132.5 21.5t106.5 66.5t73 122.5t26 182.5v667q0 56 -14 82t-52.5 39t-124.5 19v86h475v-86q-53 -5 -80.5 -12t-43.5 -24t-19.5 -38.5t-3.5 -65.5v-706q0 -131 -44.5 -233.5t-122.5 -165.5t-180.5 -95t-223.5 -32q-299 0 -459 132.5t-160 393.5v708q0 44 -3.5 65
t-19.5 38t-43 23t-81 12v86h698v-86q-54 -6 -81.5 -12t-44 -23t-20 -38t-3.5 -65z" />
    <glyph glyph-name="utilde" unicode="&#x169;" horiz-adv-x="1325" 
d="M1180 862v-626q0 -59 11.5 -80.5t57.5 -22.5l49 -2v-80l-432 -71h-71l6 198q-32 -40 -64 -71.5t-77 -62t-102 -47.5t-122 -17q-142 0 -225.5 86.5t-83.5 257.5v501q0 49 -17 78.5t-63 40.5l-31 10v74l433 94h67l-12 -260v-502q0 -163 139 -163q68 0 158 41v587
q0 49 -17 78.5t-61 40.5l-31 10v74l430 94h68zM795 1233q-43 0 -85.5 19t-69.5 42.5t-61 42.5t-63 19q-40 0 -70 -29t-63 -86l-74 41q56 144 109 210.5t131 66.5q43 0 85 -19t69 -42.5t60.5 -42.5t63.5 -19q40 0 70.5 28t63.5 84l73 -39q-57 -146 -109 -211t-130 -65z" />
    <glyph glyph-name="Umacron" unicode="&#x16a;" horiz-adv-x="1542" 
d="M553 1538v176h598v-176h-598zM578 1214v-679q0 -383 313 -383q73 0 132.5 21.5t106.5 66.5t73 122.5t26 182.5v667q0 56 -14 82t-52.5 39t-124.5 19v86h475v-86q-53 -5 -80.5 -12t-43.5 -24t-19.5 -38.5t-3.5 -65.5v-706q0 -131 -44.5 -233.5t-122.5 -165.5t-180.5 -95
t-223.5 -32q-299 0 -459 132.5t-160 393.5v708q0 44 -3.5 65t-19.5 38t-43 23t-81 12v86h698v-86q-54 -6 -81.5 -12t-44 -23t-20 -38t-3.5 -65z" />
    <glyph glyph-name="umacron" unicode="&#x16b;" horiz-adv-x="1325" 
d="M1180 862v-626q0 -59 11.5 -80.5t57.5 -22.5l49 -2v-80l-432 -71h-71l6 198q-32 -40 -64 -71.5t-77 -62t-102 -47.5t-122 -17q-142 0 -225.5 86.5t-83.5 257.5v501q0 49 -17 78.5t-63 40.5l-31 10v74l433 94h67l-12 -260v-502q0 -163 139 -163q68 0 158 41v587
q0 49 -17 78.5t-61 40.5l-31 10v74l430 94h68zM369 1280v176h585v-176h-585z" />
    <glyph glyph-name="Ubreve" unicode="&#x16c;" horiz-adv-x="1542" 
d="M852 1516q-145 0 -224 83.5t-79 235.5h94q25 -133 209 -133q186 0 209 133h96q0 -152 -80 -235.5t-225 -83.5zM578 1214v-679q0 -383 313 -383q73 0 132.5 21.5t106.5 66.5t73 122.5t26 182.5v667q0 56 -14 82t-52.5 39t-124.5 19v86h475v-86q-53 -5 -80.5 -12t-43.5 -24
t-19.5 -38.5t-3.5 -65.5v-706q0 -131 -44.5 -233.5t-122.5 -165.5t-180.5 -95t-223.5 -32q-299 0 -459 132.5t-160 393.5v708q0 44 -3.5 65t-19.5 38t-43 23t-81 12v86h698v-86q-54 -6 -81.5 -12t-44 -23t-20 -38t-3.5 -65z" />
    <glyph glyph-name="ubreve" unicode="&#x16d;" horiz-adv-x="1325" 
d="M1180 862v-626q0 -59 11.5 -80.5t57.5 -22.5l49 -2v-80l-432 -71h-71l6 198q-32 -40 -64 -71.5t-77 -62t-102 -47.5t-122 -17q-142 0 -225.5 86.5t-83.5 257.5v501q0 49 -17 78.5t-63 40.5l-31 10v74l433 94h67l-12 -260v-502q0 -163 139 -163q68 0 158 41v587
q0 49 -17 78.5t-61 40.5l-31 10v74l430 94h68zM662 1225q-144 0 -220.5 89.5t-76.5 254.5h94q18 -154 203 -154q182 0 200 154h94q0 -165 -76 -254.5t-218 -89.5z" />
    <glyph glyph-name="Uring" unicode="&#x16e;" horiz-adv-x="1542" 
d="M578 1214v-679q0 -383 313 -383q73 0 132.5 21.5t106.5 66.5t73 122.5t26 182.5v667q0 56 -14 82t-52.5 39t-124.5 19v86h475v-86q-53 -5 -80.5 -12t-43.5 -24t-19.5 -38.5t-3.5 -65.5v-706q0 -131 -44.5 -233.5t-122.5 -165.5t-180.5 -95t-223.5 -32q-299 0 -459 132.5
t-160 393.5v708q0 44 -3.5 65t-19.5 38t-43 23t-81 12v86h698v-86q-54 -6 -81.5 -12t-44 -23t-20 -38t-3.5 -65zM750 1694q0 -46 27 -74.5t75 -28.5t75 28.5t27 74.5q0 47 -27 76.5t-75 29.5t-75 -29.5t-27 -76.5zM639 1694q0 88 60.5 148.5t152.5 60.5q91 0 151 -60
t60 -149q0 -87 -60 -146t-151 -59q-92 0 -152.5 59t-60.5 146z" />
    <glyph glyph-name="uring" unicode="&#x16f;" horiz-adv-x="1325" 
d="M559 1389q0 -46 27.5 -75.5t75.5 -29.5t75 29.5t27 75.5q0 47 -27 76.5t-75 29.5t-75.5 -29.5t-27.5 -76.5zM449 1389q0 88 60.5 148t152.5 60q91 0 150.5 -59.5t59.5 -148.5q0 -87 -59.5 -147t-150.5 -60t-152 60t-61 147zM1180 862v-626q0 -59 11.5 -80.5t57.5 -22.5
l49 -2v-80l-432 -71h-71l6 198q-32 -40 -64 -71.5t-77 -62t-102 -47.5t-122 -17q-142 0 -225.5 86.5t-83.5 257.5v501q0 49 -17 78.5t-63 40.5l-31 10v74l433 94h67l-12 -260v-502q0 -163 139 -163q68 0 158 41v587q0 49 -17 78.5t-61 40.5l-31 10v74l430 94h68z" />
    <glyph glyph-name="Uhungarumlaut" unicode="&#x170;" horiz-adv-x="1542" 
d="M578 1214v-679q0 -383 313 -383q73 0 132.5 21.5t106.5 66.5t73 122.5t26 182.5v667q0 56 -14 82t-52.5 39t-124.5 19v86h475v-86q-53 -5 -80.5 -12t-43.5 -24t-19.5 -38.5t-3.5 -65.5v-706q0 -131 -44.5 -233.5t-122.5 -165.5t-180.5 -95t-223.5 -32q-299 0 -459 132.5
t-160 393.5v708q0 44 -3.5 65t-19.5 38t-43 23t-81 12v86h698v-86q-54 -6 -81.5 -12t-44 -23t-20 -38t-3.5 -65zM713 1827h307v-19l-301 -286h-109zM1081 1827h308v-19l-302 -286h-110z" />
    <glyph glyph-name="uhungarumlaut" unicode="&#x171;" horiz-adv-x="1325" 
d="M1180 862v-626q0 -59 11.5 -80.5t57.5 -22.5l49 -2v-80l-432 -71h-71l6 198q-32 -40 -64 -71.5t-77 -62t-102 -47.5t-122 -17q-142 0 -225.5 86.5t-83.5 257.5v501q0 49 -17 78.5t-63 40.5l-31 10v74l433 94h67l-12 -260v-502q0 -163 139 -163q68 0 158 41v587
q0 49 -17 78.5t-61 40.5l-31 10v74l430 94h68zM500 1567h307v-19l-301 -317h-109zM868 1567h308v-19l-304 -317h-108z" />
    <glyph glyph-name="Uogonek" unicode="&#x172;" horiz-adv-x="1542" 
d="M578 1214v-679q0 -383 313 -383q73 0 132.5 21.5t106.5 66.5t73 122.5t26 182.5v667q0 56 -14 82t-52.5 39t-124.5 19v86h475v-86q-53 -5 -80.5 -12t-43.5 -24t-19.5 -38.5t-3.5 -65.5v-706q0 -194 -92.5 -319.5t-251.5 -174.5q-141 -84 -141 -207q0 -45 24.5 -73.5
t69.5 -28.5q66 0 129 49l33 -41q-60 -76 -125 -113.5t-152 -37.5q-82 0 -137 46.5t-55 123.5q0 150 184 252q-9 0 -28.5 -1t-28.5 -1q-299 0 -459 132.5t-160 393.5v708q0 44 -3.5 65t-19.5 38t-43 23t-81 12v86h698v-86q-54 -6 -81.5 -12t-44 -23t-20 -38t-3.5 -65z" />
    <glyph glyph-name="uogonek" unicode="&#x173;" horiz-adv-x="1325" 
d="M1180 862v-626q0 -59 11.5 -80.5t57.5 -22.5l49 -2v-80q-119 -18 -197 -34.5t-136.5 -36t-89.5 -45.5t-45.5 -57.5t-14.5 -76.5q0 -42 24.5 -70t69.5 -28q66 0 129 49l33 -41q-60 -76 -124.5 -113.5t-149.5 -37.5t-140 47t-55 131q0 80 48 137t145 105l6 198
q-32 -40 -64 -71.5t-77 -62t-102 -47.5t-122 -17q-142 0 -225.5 86.5t-83.5 257.5v501q0 49 -17 78.5t-63 40.5l-31 10v74l433 94h67l-12 -260v-502q0 -163 139 -163q68 0 158 41v587q0 49 -17 78.5t-61 40.5l-31 10v74l430 94h68z" />
    <glyph glyph-name="Wcircumflex" unicode="&#x174;" horiz-adv-x="2064" 
d="M1333 -8l-274 801l-295 -801h-146l-489 1284q-24 63 -119 76v86h672v-86q-60 -4 -85.5 -24t-25.5 -56q0 -26 29 -111l240 -651l164 446l-109 320q-12 36 -36 53t-68 23v86h669v-86q-80 -1 -111.5 -22t-31.5 -66q0 -30 26 -125l199 -619l213 625q27 83 27 112
q0 90 -142 95v86h414v-86q-99 -14 -119 -76l-454 -1284h-148zM1239 1835l246 -313h-117l-256 143l-256 -143h-117l246 313h254z" />
    <glyph glyph-name="wcircumflex" unicode="&#x175;" horiz-adv-x="1835" 
d="M1100 1569l237 -348h-118l-246 174l-246 -174h-119l238 348h254zM1391 438l182 457q14 35 14 63q0 31 -26.5 44.5t-90.5 21.5v80h355v-80q-53 -17 -72 -32.5t-33 -49.5l-403 -950h-123l-242 633l-286 -633h-121l-430 950q-16 35 -34.5 50t-70.5 32v80h615v-80
q-52 -8 -74.5 -22t-22.5 -41q0 -20 17 -66l194 -477l154 342l-70 182q-12 34 -32.5 52t-61.5 30v80h606v-80q-72 -8 -99.5 -21t-27.5 -49q0 -18 13 -59z" />
    <glyph glyph-name="Ycircumflex" unicode="&#x176;" horiz-adv-x="1447" 
d="M936 539v-324q0 -76 31 -97t139 -32v-86h-729v86q107 11 137.5 32t30.5 97v313l-416 748q-22 41 -46.5 55.5t-72.5 20.5v86h707v-86q-82 -3 -110.5 -19t-28.5 -55q0 -48 47 -131l262 -451l229 447q47 96 47 135q0 37 -34 54t-109 20v86h418v-86q-44 -6 -72 -23t-47 -53z
M942 1835l246 -313h-117l-256 143l-256 -143h-117l246 313h254z" />
    <glyph glyph-name="ycircumflex" unicode="&#x177;" horiz-adv-x="1226" 
d="M760 373l203 520q16 43 16 59q0 33 -27 47t-108 25v80h373v-80q-52 -17 -71.5 -32.5t-33.5 -49.5l-467 -1120q-40 -95 -79 -152.5t-92.5 -90t-123.5 -32.5q-59 0 -104.5 23t-67.5 63v146q111 -21 160 -21q86 0 134.5 27.5t76.5 91.5l33 72l-467 993q-16 35 -34.5 50
t-70.5 32v80h656v-80q-82 -11 -109 -25t-27 -47q0 -10 15 -57zM825 1569l238 -348h-119l-246 174l-245 -174h-119l237 348h254z" />
    <glyph glyph-name="Ydieresis" unicode="&#x178;" horiz-adv-x="1447" 
d="M936 539v-324q0 -76 31 -97t139 -32v-86h-729v86q107 11 137.5 32t30.5 97v313l-416 748q-22 41 -46.5 55.5t-72.5 20.5v86h707v-86q-82 -3 -110.5 -19t-28.5 -55q0 -48 47 -131l262 -451l229 447q47 96 47 135q0 37 -34 54t-109 20v86h418v-86q-44 -6 -72 -23t-47 -53z
M432 1686q0 69 51 119t121 50q71 0 122.5 -50t51.5 -119q0 -70 -51.5 -120t-122.5 -50t-121.5 50t-50.5 120zM854 1686q0 69 51 119t119 50q73 0 124.5 -50t51.5 -119q0 -71 -51.5 -120.5t-124.5 -49.5q-68 0 -119 50t-51 120z" />
    <glyph glyph-name="Zacute" unicode="&#x179;" horiz-adv-x="1294" 
d="M498 96h258q67 0 113 15t94.5 60.5t93.5 112.5t114 189h89l-74 -473h-1153v72l719 1269h-244q-47 0 -81.5 -6.5t-63.5 -24.5t-50.5 -40.5t-45 -64t-44.5 -84.5t-52 -112q-5 -11 -7 -16h-84l18 445h1121v-72zM653 1827h369v-19l-354 -286h-115z" />
    <glyph glyph-name="zacute" unicode="&#x17a;" horiz-adv-x="1099" 
d="M584 1567h366v-19l-362 -317h-107zM37 0v68l581 942h-188q-79 0 -138 -70.5t-134 -241.5h-80l28 471h76l41 -67h824v-68l-570 -940h209q98 0 161 68t146 246h76l-45 -408h-987z" />
    <glyph glyph-name="Zdotaccent" unicode="&#x17b;" horiz-adv-x="1294" 
d="M666 1518q-91 0 -146 55t-55 133q0 79 55 134.5t146 55.5q90 0 145 -55.5t55 -134.5q0 -78 -55.5 -133t-144.5 -55zM498 96h258q67 0 113 15t94.5 60.5t93.5 112.5t114 189h89l-74 -473h-1153v72l719 1269h-244q-47 0 -81.5 -6.5t-63.5 -24.5t-50.5 -40.5t-45 -64
t-44.5 -84.5t-52 -112q-5 -11 -7 -16h-84l18 445h1121v-72z" />
    <glyph glyph-name="zdotaccent" unicode="&#x17c;" horiz-adv-x="1099" 
d="M37 0v68l581 942h-188q-79 0 -138 -70.5t-134 -241.5h-80l28 471h76l41 -67h824v-68l-570 -940h209q98 0 161 68t146 246h76l-45 -408h-987zM598 1223q-91 0 -146 54.5t-55 133.5q0 80 55 135.5t146 55.5q90 0 145.5 -56t55.5 -135t-55.5 -133.5t-145.5 -54.5z" />
    <glyph glyph-name="Zcaron" unicode="&#x17d;" horiz-adv-x="1294" 
d="M1038 1837l-245 -313h-254l-246 313h117l256 -143l256 143h116zM498 96h258q67 0 113 15t94.5 60.5t93.5 112.5t114 189h89l-74 -473h-1153v72l719 1269h-244q-47 0 -81.5 -6.5t-63.5 -24.5t-50.5 -40.5t-45 -64t-44.5 -84.5t-52 -112q-5 -11 -7 -16h-84l18 445h1121v-72
z" />
    <glyph glyph-name="zcaron" unicode="&#x17e;" horiz-adv-x="1099" 
d="M963 1577l-238 -348h-254l-238 348h119l246 -174l246 174h119zM37 0v68l581 942h-188q-79 0 -138 -70.5t-134 -241.5h-80l28 471h76l41 -67h824v-68l-570 -940h209q98 0 161 68t146 246h76l-45 -408h-987z" />
    <glyph glyph-name="florin" unicode="&#x192;" horiz-adv-x="1114" 
d="M131 702l8 86h183l4 33q36 319 159 478t349 159q78 0 137.5 -17t99 -59t39.5 -106q0 -48 -26.5 -83t-77.5 -52h-107q0 43 -1 71.5t-6 66t-14 59.5t-26 37.5t-41 15.5q-73 0 -88 -121l-55 -482h233l-8 -86h-236l-47 -423q-36 -320 -158 -477.5t-350 -157.5
q-78 0 -137.5 17t-99 59t-39.5 106q0 48 27.5 83t78.5 50h107q0 -43 1 -71t6 -65t14 -59t26 -37.5t41 -15.5q38 0 59 29t27 92l98 870h-180z" />
    <glyph glyph-name="Aringacute" unicode="&#x1fa;" horiz-adv-x="1554" 
d="M965 256l-74 188h-522l-70 -186q-16 -50 -16 -76q0 -49 40.5 -70t127.5 -26v-86h-441v86q47 7 75 22.5t44 53.5l426 1110l-70 170h428l510 -1280q14 -37 43 -53t78 -23v-86h-723v86q82 3 121 23.5t39 70.5q0 26 -16 76zM494 1671q0 79 62.5 133t158.5 54t158.5 -54
t62.5 -133t-62.5 -132.5t-158.5 -53.5t-158.5 53.5t-62.5 132.5zM623 1122l-213 -567h436zM727 2144h369v-18l-342 -228h-113zM602 1671q0 -42 31 -70t82 -28t82.5 28t31.5 70t-31.5 70t-82.5 28t-82 -28t-31 -70z" />
    <glyph glyph-name="aringacute" unicode="&#x1fb;" horiz-adv-x="1134" 
d="M342 1348q0 80 62.5 133t158.5 53t158.5 -53t62.5 -133q0 -79 -62.5 -133t-158.5 -54t-158.5 54t-62.5 133zM571 1827h369v-19l-342 -227h-113zM449 1348q0 -42 31 -69.5t83 -27.5t83.5 27.5t31.5 69.5q0 43 -31.5 70.5t-83.5 27.5t-83 -27.5t-31 -70.5zM539 182
q37 0 90 29v379l-113 -43q-60 -23 -89.5 -61.5t-29.5 -120.5q0 -83 34.5 -133t107.5 -50zM1001 768v-543q0 -44 11.5 -68t44.5 -24q41 0 69 12l15 -55q-110 -110 -271 -110q-89 0 -150.5 45t-84.5 127q-114 -166 -309 -166q-132 0 -212.5 72.5t-80.5 201.5q0 64 21 114.5
t61 85.5t84 58.5t104 44.5l326 115v209q0 157 -107 157q-110 0 -110 -161q0 -56 18 -144l-227 -30q-46 16 -73.5 52.5t-27.5 90.5q0 90 59.5 152.5t157 91t224.5 28.5q226 0 342 -82t116 -274z" />
    <glyph glyph-name="AEacute" unicode="&#x1fc;" horiz-adv-x="2129" 
d="M129 162l705 1124q-46 57 -193 66v86h1378l11 -396h-78q-36 76 -61 120t-54.5 83t-61.5 57.5t-73 28.5t-98 10h-211v-542h198q69 0 96.5 40t41.5 148h88v-491h-88q-14 108 -42 149t-96 41h-198v-453q0 -80 38.5 -108.5t127.5 -28.5h71q56 0 97 13t70.5 30t66.5 69.5
t62 95t79 142.5h92l-65 -446h-1188v86q100 10 123.5 33t23.5 104v285h-502l-155 -250q-31 -54 -31 -84q0 -82 182 -88v-86h-475v86q43 6 70 22.5t49 53.5zM991 1309l-432 -691h432v691zM1298 1827h369v-19l-354 -286h-115z" />
    <glyph glyph-name="aeacute" unicode="&#x1fd;" horiz-adv-x="1626" 
d="M1145 1124q212 0 327 -124t115 -326v-49h-639q-2 -179 82.5 -287.5t231.5 -108.5q180 0 292 150l39 -25q-43 -174 -163 -274t-308 -100q-131 0 -235.5 47.5t-173.5 138.5q-53 -62 -96.5 -97t-115 -59t-165.5 -24q-139 0 -221 72t-82 202q0 64 21 114.5t61 85.5t84 58.5
t104 44.5l315 111q4 18 14 50.5t11 37.5q4 135 -30 208.5t-99 73.5q-102 0 -102 -161q0 -56 18 -144l-227 -30q-46 16 -73.5 52.5t-27.5 90.5q0 90 59.5 152.5t156 91t221.5 28.5q205 0 292 -100q140 100 314 100zM836 1567h366v-19l-362 -317h-107zM1114 1038
q-80 0 -118 -83.5t-46 -237.5h312q0 157 -34.5 239t-113.5 82zM559 182q55 0 119 37q-72 126 -72 307q0 38 2 54l-71 -27q-75 -27 -107.5 -66t-32.5 -122q0 -183 162 -183z" />
    <glyph glyph-name="Oslashacute" unicode="&#x1fe;" horiz-adv-x="1529" 
d="M745 -20q-219 0 -376 96l-148 -197l-80 62l146 194q-115 96 -174.5 241t-59.5 314q0 174 54.5 318.5t151.5 242.5t231.5 152.5t291.5 54.5q240 0 408 -117l137 185l80 -60l-141 -188q102 -97 155.5 -235t53.5 -295q0 -231 -94 -406.5t-259.5 -268.5t-376.5 -93zM477 743
q0 -175 27 -319l502 672q-35 125 -98 194.5t-154 69.5q-74 0 -130 -53t-87 -143.5t-45.5 -196t-14.5 -224.5zM774 78q74 0 130 53t87 143.5t45.5 195.5t14.5 224q0 141 -19 271l-497 -666q77 -221 239 -221zM770 1827h369v-19l-355 -286h-114z" />
    <glyph glyph-name="oslashacute" unicode="&#x1ff;" horiz-adv-x="1230" 
d="M614 -20q-171 0 -303 69l-118 -168l-72 51l117 164q-94 73 -144.5 184t-50.5 250q0 259 161 426.5t412 167.5q170 0 306 -71l112 157l74 -51l-113 -155q92 -73 142.5 -184t50.5 -247q0 -259 -161.5 -426t-412.5 -167zM444 621q0 -122 9 -224l307 430q-43 211 -154 211
q-88 0 -125 -105.5t-37 -311.5zM625 66q88 0 124.5 105t36.5 312q0 131 -8 215l-307 -428q43 -204 154 -204zM602 1567h367v-19l-363 -317h-106z" />
    <glyph glyph-name="Scommaaccent" unicode="&#x218;" horiz-adv-x="1185" 
d="M612 -319h-110q-99 23 -99 120q0 57 44.5 92t121.5 35q88 0 139.5 -52.5t51.5 -135.5q0 -109 -84.5 -175.5t-257.5 -66.5v74q92 0 142 32t52 77zM563 -20q-148 0 -276.5 38.5t-204.5 98.5l-23 356h109q40 -179 142.5 -287t252.5 -108q111 0 175.5 51t64.5 145
q0 97 -69 152t-245 109q-212 62 -316.5 171t-104.5 289q0 211 145 337t375 126q136 0 250.5 -33t191.5 -90v-311h-92q-36 161 -124 249.5t-226 88.5q-96 0 -153.5 -52t-57.5 -139q0 -97 64.5 -149.5t228.5 -101.5q111 -34 187 -71t139.5 -92t94.5 -133.5t31 -183.5
q0 -115 -44 -204.5t-121 -144.5t-177 -83t-217 -28z" />
    <glyph glyph-name="scommaaccent" unicode="&#x219;" horiz-adv-x="976" 
d="M518 -319h-110q-99 23 -99 120q0 57 44.5 92t121.5 35q88 0 139.5 -52.5t51.5 -135.5q0 -109 -84.5 -175.5t-257.5 -66.5v74q92 0 142 32t52 77zM465 -20q-244 0 -389 104l-13 276h95q32 -132 111.5 -213t195.5 -81q76 0 125 36.5t49 102.5q0 72 -50 109t-169 75
q-184 57 -270.5 142t-86.5 235q0 168 116.5 263t305.5 95q208 0 353 -94v-246h-88q-20 108 -88 181t-170 73q-67 0 -107.5 -34.5t-40.5 -92.5q0 -61 44 -95.5t153 -72.5q100 -33 164.5 -64.5t116 -76.5t75 -105.5t23.5 -142.5q0 -178 -122.5 -276t-332.5 -98z" />
    <glyph glyph-name="uni0237" unicode="&#x237;" horiz-adv-x="618" 
d="M129 879l-115 69v58l428 118h64v-907q0 -164 -34 -256t-110 -168q-79 -78 -155.5 -126t-196.5 -103l-33 41l84 131q24 38 38.5 81t20.5 98t7.5 97.5t1.5 116.5v750z" />
    <glyph glyph-name="circumflex" unicode="&#x2c6;" 
d="M639 1569l238 -348h-119l-246 174l-246 -174h-119l238 348h254z" />
    <glyph glyph-name="caron" unicode="&#x2c7;" 
d="M877 1577l-238 -348h-254l-238 348h119l246 -174l246 174h119z" />
    <glyph glyph-name="breve" unicode="&#x2d8;" 
d="M526 1225q-144 0 -220.5 89.5t-76.5 254.5h95q18 -154 202 -154q183 0 201 154h94q0 -165 -76.5 -254.5t-218.5 -89.5z" />
    <glyph glyph-name="dotaccent" unicode="&#x2d9;" 
d="M514 1223q-91 0 -146 54.5t-55 133.5q0 80 55 135.5t146 55.5q90 0 145.5 -56t55.5 -135t-55.5 -133.5t-145.5 -54.5z" />
    <glyph glyph-name="ring" unicode="&#x2da;" 
d="M428 1389q0 -46 27 -75.5t75 -29.5t75.5 29.5t27.5 75.5q0 47 -27.5 76.5t-75.5 29.5t-75 -29.5t-27 -76.5zM317 1389q0 88 60.5 148t152.5 60t151.5 -59.5t59.5 -148.5q0 -87 -60 -147t-151 -60t-152 60t-61 147z" />
    <glyph glyph-name="ogonek" unicode="&#x2db;" 
d="M670 72l16 -33q-96 -47 -143 -103.5t-47 -130.5q0 -45 24.5 -73.5t69.5 -28.5q66 0 129 49l33 -41q-60 -76 -125 -113.5t-152 -37.5q-82 0 -137 46.5t-55 123.5q0 64 32 117.5t92.5 95t120 70t142.5 59.5z" />
    <glyph glyph-name="tilde" unicode="&#x2dc;" 
d="M637 1233q-43 0 -85.5 19t-69.5 42.5t-61 42.5t-63 19q-40 0 -70 -29t-63 -86l-73 41q56 144 108.5 210.5t130.5 66.5q36 0 69.5 -12.5t59 -30.5t49.5 -36.5t50 -31t51 -12.5q40 0 70 28t63 84l74 -39q-57 -145 -109.5 -210.5t-130.5 -65.5z" />
    <glyph glyph-name="hungarumlaut" unicode="&#x2dd;" 
d="M248 1567h307v-19l-301 -317h-109zM616 1567h308v-19l-303 -317h-109z" />
    <glyph glyph-name="pi" unicode="&#x3c0;" horiz-adv-x="1292" 
d="M713 356l63 521h-274q0 -307 -17.5 -489t-64.5 -388h-357v82q51 79 86.5 147.5t74.5 167.5t59 220.5t20 259.5h-246v241h1172l-35 -241h-164v-623q0 -55 24.5 -84t67.5 -29q41 0 88 13l17 -56q-55 -53 -129.5 -85.5t-151.5 -32.5q-241 0 -241 251q0 57 8 125z" />
    <glyph glyph-name="Wgrave" unicode="&#x1e80;" horiz-adv-x="2064" 
d="M1333 -8l-274 801l-295 -801h-146l-489 1284q-24 63 -119 76v86h672v-86q-60 -4 -85.5 -24t-25.5 -56q0 -26 29 -111l240 -651l164 446l-109 320q-12 36 -36 53t-68 23v86h669v-86q-80 -1 -111.5 -22t-31.5 -66q0 -30 26 -125l199 -619l213 625q27 83 27 112
q0 90 -142 95v86h414v-86q-99 -14 -119 -76l-454 -1284h-148zM748 1827h368l101 -305h-113l-356 286v19z" />
    <glyph glyph-name="wgrave" unicode="&#x1e81;" horiz-adv-x="1835" 
d="M1391 438l182 457q14 35 14 63q0 31 -26.5 44.5t-90.5 21.5v80h355v-80q-53 -17 -72 -32.5t-33 -49.5l-403 -950h-123l-242 633l-286 -633h-121l-430 950q-16 35 -34.5 50t-70.5 32v80h615v-80q-52 -8 -74.5 -22t-22.5 -41q0 -20 17 -66l194 -477l154 342l-70 182
q-12 34 -32.5 52t-61.5 30v80h606v-80q-72 -8 -99.5 -21t-27.5 -49q0 -18 13 -59zM614 1567h367l102 -336h-104l-365 317v19z" />
    <glyph glyph-name="Wacute" unicode="&#x1e82;" horiz-adv-x="2064" 
d="M1333 -8l-274 801l-295 -801h-146l-489 1284q-24 63 -119 76v86h672v-86q-60 -4 -85.5 -24t-25.5 -56q0 -26 29 -111l240 -651l164 446l-109 320q-12 36 -36 53t-68 23v86h669v-86q-80 -1 -111.5 -22t-31.5 -66q0 -30 26 -125l199 -619l213 625q27 83 27 112
q0 90 -142 95v86h414v-86q-99 -14 -119 -76l-454 -1284h-148zM1100 1827h368v-19l-354 -286h-115z" />
    <glyph glyph-name="wacute" unicode="&#x1e83;" horiz-adv-x="1835" 
d="M958 1567h367v-19l-362 -317h-107zM1391 438l182 457q14 35 14 63q0 31 -26.5 44.5t-90.5 21.5v80h355v-80q-53 -17 -72 -32.5t-33 -49.5l-403 -950h-123l-242 633l-286 -633h-121l-430 950q-16 35 -34.5 50t-70.5 32v80h615v-80q-52 -8 -74.5 -22t-22.5 -41
q0 -20 17 -66l194 -477l154 342l-70 182q-12 34 -32.5 52t-61.5 30v80h606v-80q-72 -8 -99.5 -21t-27.5 -49q0 -18 13 -59z" />
    <glyph glyph-name="Wdieresis" unicode="&#x1e84;" horiz-adv-x="2064" 
d="M1333 -8l-274 801l-295 -801h-146l-489 1284q-24 63 -119 76v86h672v-86q-60 -4 -85.5 -24t-25.5 -56q0 -26 29 -111l240 -651l164 446l-109 320q-12 36 -36 53t-68 23v86h669v-86q-80 -1 -111.5 -22t-31.5 -66q0 -30 26 -125l199 -619l213 625q27 83 27 112
q0 90 -142 95v86h414v-86q-99 -14 -119 -76l-454 -1284h-148zM729 1686q0 69 51 119t121 50q71 0 122.5 -50t51.5 -119q0 -70 -51.5 -120t-122.5 -50t-121.5 50t-50.5 120zM1151 1686q0 69 51 119t119 50q73 0 124.5 -50t51.5 -119q0 -71 -51.5 -120.5t-124.5 -49.5
q-68 0 -119 50t-51 120z" />
    <glyph glyph-name="wdieresis" unicode="&#x1e85;" horiz-adv-x="1835" 
d="M590 1407q0 71 50 120.5t122 49.5q71 0 121.5 -50t50.5 -120q0 -69 -51 -119.5t-121 -50.5q-72 0 -122 50.5t-50 119.5zM1008 1407q0 70 51 120t119 50q75 0 125.5 -49.5t50.5 -120.5q0 -70 -51 -120t-125 -50q-68 0 -119 50.5t-51 119.5zM1391 438l182 457q14 35 14 63
q0 31 -26.5 44.5t-90.5 21.5v80h355v-80q-53 -17 -72 -32.5t-33 -49.5l-403 -950h-123l-242 633l-286 -633h-121l-430 950q-16 35 -34.5 50t-70.5 32v80h615v-80q-52 -8 -74.5 -22t-22.5 -41q0 -20 17 -66l194 -477l154 342l-70 182q-12 34 -32.5 52t-61.5 30v80h606v-80
q-72 -8 -99.5 -21t-27.5 -49q0 -18 13 -59z" />
    <glyph glyph-name="Ygrave" unicode="&#x1ef2;" horiz-adv-x="1447" 
d="M936 539v-324q0 -76 31 -97t139 -32v-86h-729v86q107 11 137.5 32t30.5 97v313l-416 748q-22 41 -46.5 55.5t-72.5 20.5v86h707v-86q-82 -3 -110.5 -19t-28.5 -55q0 -48 47 -131l262 -451l229 447q47 96 47 135q0 37 -34 54t-109 20v86h418v-86q-44 -6 -72 -23t-47 -53z
M453 1827h368l101 -305h-113l-356 286v19z" />
    <glyph glyph-name="ygrave" unicode="&#x1ef3;" horiz-adv-x="1226" 
d="M760 373l203 520q16 43 16 59q0 33 -27 47t-108 25v80h373v-80q-52 -17 -71.5 -32.5t-33.5 -49.5l-467 -1120q-40 -95 -79 -152.5t-92.5 -90t-123.5 -32.5q-59 0 -104.5 23t-67.5 63v146q111 -21 160 -21q86 0 134.5 27.5t76.5 91.5l33 72l-467 993q-16 35 -34.5 50
t-70.5 32v80h656v-80q-82 -11 -109 -25t-27 -47q0 -10 15 -57zM342 1567h367l102 -336h-104l-365 317v19z" />
    <glyph glyph-name="endash" unicode="&#x2013;" horiz-adv-x="1105" 
d="M1044 561h-983v123h983v-123z" />
    <glyph glyph-name="emdash" unicode="&#x2014;" horiz-adv-x="1966" 
d="M1905 684v-123h-1844v123h1844z" />
    <glyph glyph-name="quoteleft" unicode="&#x2018;" horiz-adv-x="573" 
d="M264 1296h84q150 -35 150 -178q0 -84 -56.5 -134t-142.5 -50q-99 0 -158 69.5t-59 182.5q0 167 107.5 261.5t308.5 100.5v-84q-109 -14 -167 -53t-67 -115z" />
    <glyph glyph-name="quoteright" unicode="&#x2019;" horiz-adv-x="573" 
d="M313 1176h-84q-149 35 -149 178q0 84 56 134t140 50q99 0 158.5 -69.5t59.5 -184.5q0 -165 -107.5 -259.5t-308.5 -100.5v82q111 16 168 54t67 116z" />
    <glyph glyph-name="quotesinglbase" unicode="&#x201a;" horiz-adv-x="573" 
d="M313 0h-84q-149 35 -149 178q0 84 56 134t140 50q99 0 158.5 -69t59.5 -182q0 -167 -107.5 -262t-308.5 -101v84q110 14 167.5 52t67.5 116z" />
    <glyph glyph-name="quotedblleft" unicode="&#x201c;" horiz-adv-x="1044" 
d="M735 1296h84q150 -35 150 -178q0 -84 -56.5 -134t-142.5 -50q-99 0 -158 69.5t-59 182.5q0 167 107.5 261.5t308.5 100.5v-84q-109 -14 -167 -53t-67 -115zM264 1296h84q150 -35 150 -178q0 -84 -56.5 -134t-142.5 -50q-99 0 -158 69.5t-59 182.5q0 167 107.5 261.5
t308.5 100.5v-84q-109 -14 -167 -53t-67 -115z" />
    <glyph glyph-name="quotedblright" unicode="&#x201d;" horiz-adv-x="1044" 
d="M313 1176h-84q-149 35 -149 178q0 84 56 134t140 50q99 0 158.5 -69.5t59.5 -184.5q0 -165 -107.5 -259.5t-308.5 -100.5v82q111 16 168 54t67 116zM784 1176h-84q-149 35 -149 178q0 84 56.5 134t140.5 50q99 0 158 -69.5t59 -184.5q0 -165 -107.5 -259.5t-308.5 -100.5
v82q111 16 168 54t67 116z" />
    <glyph glyph-name="quotedblbase" unicode="&#x201e;" horiz-adv-x="1044" 
d="M313 0h-84q-149 35 -149 178q0 84 56 134t140 50q99 0 158.5 -69t59.5 -182q0 -167 -107.5 -262t-308.5 -101v84q110 14 167.5 52t67.5 116zM784 0h-84q-149 35 -149 178q0 84 56.5 134t140.5 50q99 0 158 -69t59 -182q0 -167 -107.5 -262t-308.5 -101v84
q110 14 167.5 52t67.5 116z" />
    <glyph glyph-name="dagger" unicode="&#x2020;" horiz-adv-x="774" 
d="M410 1186q0 -64 34.5 -116t79.5 -79v-18q-42 -62 -79.5 -256t-43.5 -412h-28q-6 218 -43.5 412t-79.5 256v18q46 27 80.5 79t34.5 116q-41 0 -81 -21.5t-77 -43t-72 -21.5q-39 0 -66.5 28t-27.5 78t27.5 78.5t66.5 28.5q35 0 72 -21.5t77 -43t81 -21.5q0 41 -21 81.5
t-42 77.5t-21 72q0 39 28 66.5t78 27.5t78.5 -27.5t28.5 -66.5q0 -35 -21 -72t-42 -77.5t-21 -81.5q41 0 81 21.5t76.5 43t71.5 21.5q39 0 66.5 -28.5t27.5 -78.5t-27.5 -78t-66.5 -28q-35 0 -71.5 21.5t-76.5 43t-81 21.5z" />
    <glyph glyph-name="daggerdbl" unicode="&#x2021;" horiz-adv-x="806" 
d="M383 932q0 43 -31 72.5t-86 35.5v19q115 67 115 170q-41 0 -81 -21t-76.5 -42t-71.5 -21q-39 0 -67 27.5t-28 76.5q0 50 28 78.5t67 28.5q35 0 71.5 -21t76.5 -42t81 -21q0 33 -13 58.5t-29 39.5t-29 37t-13 51q0 39 28.5 66.5t77.5 27.5q50 0 78.5 -27.5t28.5 -66.5
q0 -28 -13 -51t-29 -37t-29 -39.5t-13 -58.5q42 0 81.5 21t76 42t71.5 21q39 0 67 -28.5t28 -78.5q0 -49 -28 -76.5t-67 -27.5q-35 0 -71.5 21t-76 42t-81.5 21q0 -104 117 -170v-19q-56 -6 -87.5 -36t-31.5 -72t31.5 -72.5t87.5 -36.5v-18q-117 -66 -117 -170q42 0 81.5 21
t76 42t71.5 21q39 0 67 -28.5t28 -78.5q0 -49 -28 -76.5t-67 -27.5q-35 0 -71.5 21t-76 42t-81.5 21q0 -33 13 -58.5t29 -39.5t29 -37t13 -51q0 -39 -28.5 -67t-78.5 -28q-49 0 -77.5 28t-28.5 67q0 28 13 51t29 37t29 39.5t13 58.5q-41 0 -81 -21t-76.5 -42t-71.5 -21
q-39 0 -67 27.5t-28 76.5q0 50 28 78.5t67 28.5q35 0 71.5 -21t76.5 -42t81 -21q0 103 -115 170v18q55 6 86 36t31 73z" />
    <glyph glyph-name="bullet" unicode="&#x2022;" horiz-adv-x="753" 
d="M61 631q0 132 93.5 226.5t222.5 94.5q130 0 222.5 -94.5t92.5 -226.5q0 -131 -92.5 -226.5t-222.5 -95.5q-129 0 -222.5 95.5t-93.5 226.5z" />
    <glyph glyph-name="ellipsis" unicode="&#x2026;" horiz-adv-x="1636" 
d="M61 190q0 93 61 153t150 60q90 0 150.5 -60t60.5 -153t-60.5 -151.5t-150.5 -58.5q-89 0 -150 59t-61 151zM606 190q0 93 61.5 153t151.5 60q89 0 150 -60t61 -153q0 -92 -61 -151t-150 -59q-91 0 -152 59t-61 151zM1153 190q0 93 61 153t150 60q90 0 150.5 -60
t60.5 -153t-60.5 -151.5t-150.5 -58.5q-89 0 -150 59t-61 151z" />
    <glyph glyph-name="perthousand" unicode="&#x2030;" horiz-adv-x="2390" 
d="M1550 334q0 -167 -102.5 -260.5t-251.5 -93.5q-95 0 -174 39t-129.5 121t-50.5 194q0 86 29 155t78.5 112t112.5 66t134 23q72 0 135 -23t112.5 -66t78 -112t28.5 -155zM305 -20l899 1478h111l-899 -1478h-111zM70 1104q0 167 102.5 260.5t251.5 93.5q148 0 250 -93.5
t102 -260.5q0 -169 -102 -262.5t-250 -93.5q-72 0 -135 23t-112.5 66t-78 112t-28.5 155zM1321 334q0 284 -125 284t-125 -284q0 -283 125 -283t125 283zM299 1104q0 -285 125 -285t125 285q0 282 -125 282t-125 -282zM2091 334q0 284 -125 284q-123 0 -123 -284
q0 -283 123 -283q125 0 125 283zM2320 334q0 -167 -102.5 -260.5t-251.5 -93.5q-148 0 -250 93.5t-102 260.5q0 169 102 262.5t250 93.5q72 0 135 -23t112.5 -66t78 -112t28.5 -155z" />
    <glyph glyph-name="guilsinglleft" unicode="&#x2039;" horiz-adv-x="571" 
d="M47 559v12l383 410h94l-184 -416l184 -418h-94z" />
    <glyph glyph-name="guilsinglright" unicode="&#x203a;" horiz-adv-x="571" 
d="M524 571v-12l-383 -412h-94l184 418l-184 416h94z" />
    <glyph glyph-name="fraction" unicode="&#x2044;" horiz-adv-x="579" 
d="M-217 -20l897 1478h111l-900 -1478h-108z" />
    <glyph glyph-name="Euro" unicode="&#x20ac;" horiz-adv-x="1390" 
d="M43 807v90h178q54 258 230.5 409.5t422.5 151.5q260 0 414 -127v-336h-102q-63 371 -291 371q-66 0 -118.5 -38t-87 -105t-55.5 -148.5t-30 -177.5h387l-18 -90h-375v-59q0 -66 2 -97h334l-19 -94h-311q40 -477 303 -477q126 0 199.5 92.5t140.5 304.5h99l-29 -385
q-82 -54 -200.5 -83t-237.5 -29q-285 0 -459.5 154t-210.5 423h-166v94h158v41q0 60 6 115h-164z" />
    <glyph glyph-name="uni2117" unicode="&#x2117;" horiz-adv-x="1597" 
d="M885 629h-105v-170q0 -47 24 -61.5t97 -16.5v-66h-432v66q57 1 72.5 15.5t15.5 62.5v528q0 47 -15.5 61t-72.5 15v65h414q158 0 239.5 -71.5t81.5 -173.5q0 -119 -80 -186.5t-239 -67.5zM780 1057v-365h41q84 0 125 50.5t41 136.5q0 77 -43 127.5t-125 50.5h-39zM143 719
q0 -136 49 -259t134 -213t208.5 -143t264.5 -53q188 0 339 90.5t233.5 242.5t82.5 335t-82.5 335t-233.5 242t-339 90q-141 0 -264.5 -53t-208.5 -143t-134 -212.5t-49 -258.5zM66 719q0 203 93 371.5t262 268t378 99.5t378 -99.5t262 -268t93 -371.5t-93 -371.5t-262 -268
t-378 -99.5t-378 99.5t-262 268t-93 371.5z" />
    <glyph glyph-name="trademark" unicode="&#x2122;" horiz-adv-x="1808" 
d="M731 1438l12 -232h-55q-21 51 -32 74.5t-30 52.5t-41.5 40t-52.5 11h-22v-503q0 -38 19 -51.5t71 -16.5v-55h-375v55q49 3 66.5 16t17.5 52v503h-18q-57 0 -89.5 -42t-68.5 -136h-57l14 232h641zM1235 1022l123 348q14 41 14 68h275v-62q-47 0 -65.5 -19.5t-18.5 -60.5
l61 -422q6 -34 23.5 -46t60.5 -15v-55h-367v55q55 3 75 15.5t20 48.5q0 3 -1 14.5t-2.5 29.5t-2.5 33l-48 289l-168 -487h-86l-174 487l-41 -287q-8 -49 -8 -79q0 -36 19.5 -48.5t74.5 -15.5v-55h-256v55q44 3 61 15t23 46l60 422q0 40 -18 60t-62 20v62h283q2 -27 14 -66z
" />
    <glyph glyph-name="Omega" unicode="&#x2126;" horiz-adv-x="1492" 
d="M745 1374q-71 0 -122.5 -42.5t-81 -120t-43 -174.5t-13.5 -218q0 -379 191 -643v-176h-543l-51 397h65q27 -48 41 -72.5t35 -49.5t36 -34.5t43.5 -18t58 -10t79.5 -1.5h146q-90 29 -173 86.5t-149 135t-105.5 178.5t-39.5 208q0 133 43.5 250t123 203t198 136t261.5 50
q190 0 335 -86t219.5 -230t74.5 -323q0 -107 -39.5 -208t-105.5 -178.5t-149 -135t-173 -86.5h144q50 0 79.5 1.5t58 10t44.5 18t36.5 34t35.5 49.5t41 73h65l-51 -397h-545v176q193 262 193 643q0 121 -14 218t-43.5 174.5t-81.5 120t-124 42.5z" />
    <glyph glyph-name="uni2153" unicode="&#x2153;" horiz-adv-x="1622" 
d="M406 1458h65v-678q0 -52 24.5 -65t114.5 -19v-69h-528v69q100 6 121.5 18.5t21.5 65.5v445h-143v63l51 10q99 20 160.5 57t112.5 103zM307 -20l897 1478h113l-899 -1478h-111zM1278 446q119 -2 190.5 -59.5t71.5 -157.5q0 -117 -98 -181t-246 -64q-142 0 -214.5 48
t-72.5 122q0 68 58 94h137q-10 -29 -10 -60q0 -68 29 -106.5t83 -38.5q51 0 79 40.5t28 113.5q0 168 -168 168h-31l-12 43q87 35 120 69t33 86q0 44 -26 72.5t-80 28.5q-90 0 -158 -89l-49 37q44 92 126.5 151.5t197.5 59.5q105 0 166 -49.5t61 -134.5q0 -80 -61.5 -128
t-153.5 -65z" />
    <glyph glyph-name="uni2154" unicode="&#x2154;" horiz-adv-x="1726" 
d="M412 -20l897 1478h110l-897 -1478h-110zM1380 446q120 -2 192.5 -59.5t72.5 -157.5q0 -117 -98.5 -181t-246.5 -64q-142 0 -214 48t-72 122q0 69 57 94h137q-10 -29 -10 -60q0 -68 29 -106.5t84 -38.5q51 0 78.5 40t27.5 114q0 168 -170 168h-28l-15 43q89 34 121.5 68.5
t32.5 86.5q0 44 -26 72.5t-79 28.5q-89 0 -157 -89l-52 37q46 93 128 152t198 59q105 0 166 -49.5t61 -134.5q0 -80 -62 -128t-155 -65zM311 813h221q48 0 71.5 16t58.5 70h43l-23 -278h-621v51l234 219q75 72 108 130.5t33 123.5q0 64 -34 100.5t-99 36.5q-103 0 -182 -90
l-43 37q47 97 133 160t203 63q119 0 187.5 -62.5t68.5 -172.5q0 -43 -12 -82t-39 -75t-55 -65.5t-75 -64t-83 -58t-95 -59.5z" />
    <glyph glyph-name="uni215B" unicode="&#x215b;" horiz-adv-x="1701" 
d="M406 1458h75v-678q0 -52 23.5 -65t113.5 -19v-69h-536v69q100 6 121.5 18.5t21.5 65.5v445h-143v63l51 10q99 20 160.5 57t112.5 103zM307 -20l897 1478h113l-899 -1478h-111zM1585 641q0 -67 -53.5 -107.5t-130.5 -46.5q104 -37 160.5 -102t56.5 -147q0 -86 -48.5 -146
t-122 -86t-163.5 -26q-144 0 -243 53t-99 147q0 69 52 111t136 55q-161 74 -161 223q0 121 87.5 191.5t227.5 70.5q138 0 219.5 -52t81.5 -138zM1327 268l-156 62q-51 -54 -51 -129q0 -72 48 -113t122 -41q61 0 99 30t38 77q0 45 -22 66.5t-78 47.5zM1247 549l109 -43
q53 47 53 121q0 63 -36 100t-97 37q-54 0 -86.5 -31.5t-32.5 -77.5q0 -72 90 -106z" />
    <glyph glyph-name="uni215C" unicode="&#x215c;" horiz-adv-x="1748" 
d="M1630 641q0 -67 -53 -107.5t-131 -46.5q105 -37 162 -102t57 -147q0 -86 -48.5 -146t-122 -86t-163.5 -26q-145 0 -243.5 53t-98.5 147q0 69 51.5 111t137.5 55q-76 34 -120 90.5t-44 132.5q0 121 87.5 191.5t227.5 70.5q138 0 219.5 -52t81.5 -138zM1372 268l-155 62
q-50 -56 -50 -129q0 -71 47.5 -112.5t120.5 -41.5q61 0 99.5 30t38.5 77q0 45 -22.5 66.5t-78.5 47.5zM1294 549l107 -43q53 45 53 121q0 63 -35 100t-96 37q-55 0 -87 -31.5t-32 -77.5q0 -73 90 -106zM354 -20l897 1478h111l-899 -1478h-109zM449 1083q119 -3 190.5 -61
t71.5 -158q0 -77 -47.5 -134t-124 -84.5t-172.5 -27.5q-142 0 -214.5 48t-72.5 122q0 67 57 97h137q-8 -33 -8 -62q0 -67 29 -106t82 -39t84 38.5t31 114.5q0 79 -45.5 123.5t-131.5 44.5h-30l-13 45q89 34 125.5 68t36.5 84q0 45 -30 73.5t-85 28.5q-89 0 -157 -88l-49 37
q44 92 126 151.5t197 59.5q106 0 167 -49.5t61 -134.5q0 -80 -61.5 -128t-153.5 -63z" />
    <glyph glyph-name="uni215D" unicode="&#x215d;" horiz-adv-x="1736" 
d="M344 -20l897 1478h111l-899 -1478h-109zM684 1487l-45 -254h-371l-14 -82q82 0 147 -8t121 -27.5t93 -51t58 -79.5t21 -111q0 -119 -82 -188.5t-217 -69.5q-139 0 -223 47.5t-84 122.5q0 33 21 61t45 38h129q-11 -34 -11 -62q0 -67 31.5 -106t93.5 -39q57 0 89 33t32 88
q0 94 -87.5 138t-270.5 44l76 457h309q37 0 51 8.5t31 40.5h57zM1620 641q0 -67 -53.5 -107.5t-130.5 -46.5q105 -36 161 -101.5t56 -147.5q0 -86 -48 -146t-121.5 -86t-164.5 -26q-144 0 -243 53t-99 147q0 69 52 111t138 55q-163 73 -163 223q0 121 87.5 191.5t227.5 70.5
q138 0 219.5 -52t81.5 -138zM1362 268l-156 62q-49 -55 -49 -129q0 -71 47.5 -112.5t120.5 -41.5q61 0 99 30t38 77q0 45 -22 66.5t-78 47.5zM1282 549l109 -43q53 47 53 121q0 63 -35 100t-96 37q-55 0 -87 -31.5t-32 -77.5q0 -73 88 -106z" />
    <glyph glyph-name="uni215E" unicode="&#x215e;" horiz-adv-x="1576" 
d="M559 1214h-291q-46 0 -76 -29t-53 -95h-73l65 348h610v-62l-407 -753h-158zM182 -20l897 1478h111l-899 -1478h-109zM1458 641q0 -67 -52.5 -107.5t-129.5 -46.5q104 -37 160.5 -102t56.5 -147q0 -86 -48.5 -146t-122 -86t-163.5 -26q-145 0 -243.5 53t-98.5 147
q0 69 52.5 111t136.5 55q-162 73 -162 223q0 121 86.5 191.5t226.5 70.5q138 0 219.5 -52t81.5 -138zM1200 268l-153 62q-52 -55 -52 -129q0 -71 47.5 -112.5t120.5 -41.5q61 0 99 30t38 77q0 45 -22 66.5t-78 47.5zM1122 549l109 -43q51 45 51 121q0 63 -35 100t-96 37
q-54 0 -86.5 -31.5t-32.5 -77.5q0 -73 90 -106z" />
    <glyph glyph-name="partialdiff" unicode="&#x2202;" horiz-adv-x="1228" 
d="M575 1122q55 0 103.5 -17.5t75.5 -49.5q-64 181 -190.5 306.5t-340.5 180.5l41 70q198 -25 356 -89.5t262.5 -154t174 -205t99.5 -238t30 -257.5q0 -315 -152 -501.5t-428 -186.5q-167 0 -296 73t-198 200t-69 286q0 130 44 241.5t117.5 185t169.5 115t201 41.5zM625 66
q88 0 124.5 105t36.5 312q0 555 -180 555q-88 0 -125 -105.5t-37 -311.5q0 -555 181 -555z" />
    <glyph glyph-name="Delta" unicode="&#x2206;" horiz-adv-x="1374" 
d="M1337 0h-1300v80l596 1358h94l610 -1358v-80zM549 965l-375 -854h750z" />
    <glyph glyph-name="product" unicode="&#x220f;" horiz-adv-x="1658" 
d="M1059 1339h-459v-1519q0 -57 9.5 -81t39.5 -36.5t101 -19.5v-86h-699v86q54 6 81.5 12t43.5 22.5t19.5 37.5t3.5 65v1394q0 44 -3.5 65t-19.5 38t-43.5 23t-81.5 12v86h1557v-86q-54 -6 -81.5 -12t-43.5 -23t-19.5 -38t-3.5 -65v-1394q0 -44 3.5 -65t19.5 -37.5
t43.5 -22.5t81.5 -12v-86h-699v86q71 7 101 19.5t39.5 36.5t9.5 81v1519z" />
    <glyph glyph-name="summation" unicode="&#x2211;" horiz-adv-x="1243" 
d="M293 -98h463q52 0 80 1.5t65 7t60 18t52 34.5t54.5 55.5t54.5 81.5h84l-90 -503h-1100v96l562 760l-535 874v111h1108v-383h-82q-28 59 -44 90.5t-40 70.5t-44.5 58t-50.5 37.5t-66 25t-83 6.5h-292l407 -667v-25z" />
    <glyph glyph-name="minus" unicode="&#x2212;" horiz-adv-x="1175" 
d="M133 686v141h907v-141h-907z" />
    <glyph glyph-name="radical" unicode="&#x221a;" horiz-adv-x="1228" 
d="M737 494l369 964h117l-568 -1458h-147l-291 909q-21 62 -46.5 86.5t-78.5 30.5l-51 4v88h514z" />
    <glyph glyph-name="infinity" unicode="&#x221e;" horiz-adv-x="1550" 
d="M713 715l-92 108q-89 105 -203 105q-83 0 -141 -58.5t-58 -154.5q0 -99 58 -157t141 -58q120 0 203 102zM774 604l-67 -80q-127 -147 -297 -147q-139 0 -232.5 91.5t-93.5 246.5q0 154 94 246t232 92q170 0 297 -150l67 -80l70 80q124 150 297 150q138 0 231.5 -92
t93.5 -246q0 -155 -93.5 -246.5t-231.5 -91.5q-173 0 -297 147zM938 823l-92 -108l92 -113q86 -102 203 -102q83 0 140.5 58t57.5 157q0 97 -57.5 155t-140.5 58q-115 0 -203 -105z" />
    <glyph glyph-name="integral" unicode="&#x222b;" horiz-adv-x="911" 
d="M567 1253v-1159q0 -132 -32 -229t-92 -154.5t-139 -84.5t-179 -27q-133 0 -213 50t-80 140q0 78 70 125h174v-121q0 -54 13 -85.5t50 -31.5q70 0 70 127v1160q0 258 116.5 376.5t323.5 118.5q133 0 213 -50t80 -140q0 -80 -70 -125h-172v121q0 116 -65 116
q-68 0 -68 -127z" />
    <glyph glyph-name="approxequal" unicode="&#x2248;" horiz-adv-x="1196" 
d="M143 791v141q128 84 246 84q79 0 208.5 -41t207.5 -41q121 0 248 84v-141q-127 -84 -248 -84q-78 0 -207.5 40.5t-208.5 40.5q-119 0 -246 -83zM143 508v139q124 84 246 84q79 0 208.5 -40t207.5 -40q124 0 248 82v-141q-124 -82 -248 -82q-78 0 -207.5 39t-208.5 39
q-120 0 -246 -80z" />
    <glyph glyph-name="notequal" unicode="&#x2260;" horiz-adv-x="1196" 
d="M143 838v135h539l156 215h147l-156 -215h224v-135h-322l-121 -166h443v-131h-537l-156 -215h-145l156 215h-228v131h322l119 166h-441z" />
    <glyph glyph-name="lessequal" unicode="&#x2264;" horiz-adv-x="911" 
d="M109 821v19l649 350v-160l-385 -199l385 -202v-158zM109 268v138h649v-138h-649z" />
    <glyph glyph-name="greaterequal" unicode="&#x2265;" horiz-adv-x="911" 
d="M803 840v-19l-649 -350v158l387 202l-387 199v160zM803 406v-138h-649v138h649z" />
    <glyph glyph-name="lozenge" unicode="&#x25ca;" horiz-adv-x="1163" 
d="M72 719l417 719h183l420 -719l-420 -719h-183zM934 719l-352 612l-353 -612l353 -610z" />
    <glyph glyph-name="i.dot" horiz-adv-x="684" 
d="M537 1124v-964q0 -47 23.5 -61t90.5 -19v-80h-606v80q67 5 91 19t24 61v719l-113 69v58l426 118h64zM356 1223q-91 0 -145.5 54.5t-54.5 133.5q0 80 54.5 135.5t145.5 55.5q90 0 145.5 -56t55.5 -135t-55.5 -133.5t-145.5 -54.5z" />
    <glyph glyph-name="space_uni0326" 
d="M532 -319h-110q-98 23 -98 120q0 57 44 92t121 35q88 0 139.5 -52.5t51.5 -135.5q0 -109 -84.5 -175.5t-257.5 -66.5v74q92 0 142 32t52 77z" />
    <glyph glyph-name="space_uni0326.alt" 
d="M469 1462h113q98 -27 98 -123q0 -55 -45 -91t-121 -36q-87 0 -138.5 53.5t-51.5 137.5q0 109 84.5 175.5t257.5 66.5v-76q-93 0 -143.5 -31t-53.5 -76z" />
    <glyph glyph-name="space_dotbelowcomb" 
d="M514 -420q-88 0 -142.5 53t-54.5 129t54.5 129.5t142.5 53.5q87 0 141 -53.5t54 -129.5t-54 -129t-141 -53z" />
    <glyph glyph-name="caron.Slovak" 
d="M717 1581l-238 -397h-84l27 420h295v-23z" />
    <glyph glyph-name="cedilla.alt" 
d="M309 -473l-16 72q105 0 160 28t55 70q0 40 -39 54.5t-123 17.5l62 149h65q105 0 165 -44.5t60 -123.5q0 -74 -55.5 -125.5t-141 -74.5t-192.5 -23z" />
    <glyph glyph-name="grave.cap" 
d="M254 1827h369l100 -305h-113l-356 286v19z" />
    <glyph glyph-name="acute.cap" 
d="M354 1827h369v-19l-354 -286h-115z" />
    <glyph glyph-name="circumflex.cap" 
d="M639 1835l246 -313h-117l-256 143l-256 -143h-117l246 313h254z" />
    <glyph glyph-name="tilde.cap" 
d="M635 1522q-43 0 -85.5 19t-70.5 42.5t-62.5 42.5t-64.5 19q-40 0 -71 -29t-64 -86l-74 41q57 144 110.5 210t131.5 66q43 0 85.5 -19t70.5 -42.5t62.5 -42.5t64.5 -19q40 0 71 28.5t64 84.5l74 -39q-57 -145 -110 -210.5t-132 -65.5z" />
    <glyph glyph-name="macron.cap" 
d="M225 1538v176h598v-176h-598z" />
    <glyph glyph-name="breve.cap" 
d="M526 1516q-145 0 -224 83.5t-79 235.5h94q25 -133 209 -133q186 0 209 133h96q0 -152 -80 -235.5t-225 -83.5z" />
    <glyph glyph-name="dotaccent.cap" 
d="M514 1518q-91 0 -146 55t-55 133q0 79 55 134.5t146 55.5q90 0 145.5 -55.5t55.5 -134.5q0 -78 -55.5 -133t-145.5 -55z" />
    <glyph glyph-name="dieresis.cap" 
d="M137 1686q0 69 51 119t121 50q71 0 122.5 -50t51.5 -119q0 -70 -51.5 -120t-122.5 -50t-121.5 50t-50.5 120zM559 1686q0 69 51 119t119 50q73 0 124.5 -50t51.5 -119q0 -71 -51.5 -120.5t-124.5 -49.5q-68 0 -119 50t-51 120z" />
    <glyph glyph-name="ring.cap" 
d="M428 1694q0 -46 27 -74.5t75 -28.5t75.5 28.5t27.5 74.5q0 47 -27.5 76.5t-75.5 29.5t-75 -29.5t-27 -76.5zM317 1694q0 88 60.5 148.5t152.5 60.5q91 0 151 -60t60 -149q0 -87 -60 -146t-151 -59q-92 0 -152.5 59t-60.5 146z" />
    <glyph glyph-name="hungarumlaut.cap" 
d="M248 1827h307v-19l-301 -286h-109zM616 1827h308v-19l-301 -286h-111z" />
    <glyph glyph-name="caron.cap" 
d="M885 1837l-246 -313h-254l-246 313h117l256 -143l256 143h117z" />
    <glyph glyph-name="exclamdown.cap" horiz-adv-x="600" 
d="M104 1260q0 82 57.5 140t137.5 58q82 0 139.5 -58t57.5 -140q0 -85 -57.5 -144t-139.5 -59q-80 0 -137.5 59.5t-57.5 143.5zM240 958h118l166 -958h-450z" />
    <glyph glyph-name="questiondown.cap" horiz-adv-x="956" 
d="M330 217q0 -73 37 -115.5t106 -42.5q81 0 117.5 58t36.5 145q0 28 -11 119h226q82 -42 82 -133q0 -122 -122.5 -195t-324.5 -73q-217 0 -334.5 90.5t-117.5 257.5q0 126 69.5 216.5t212.5 174.5q90 55 126 101t36 118v27h51q74 -29 117 -86.5t43 -137.5q0 -143 -160 -260
q-49 -37 -75 -59t-57 -56t-44.5 -70t-13.5 -79zM692 1260q0 -84 -57 -143.5t-137 -59.5q-83 0 -140 59t-57 144q0 82 57 140t140 58q80 0 137 -58t57 -140z" />
    <glyph glyph-name="guilsinglleft.cap" horiz-adv-x="571" 
d="M47 715v12l383 412h94l-184 -418l184 -416h-94z" />
    <glyph glyph-name="guilsinglright.cap" horiz-adv-x="571" 
d="M524 727v-12l-383 -410h-94l184 416l-184 418h94z" />
    <glyph glyph-name="guillemotleft.cap" horiz-adv-x="960" 
d="M47 715v12l383 412h94l-184 -418l184 -416h-94zM436 715v12l383 412h94l-184 -418l184 -416h-94z" />
    <glyph glyph-name="guillemotright.cap" horiz-adv-x="960" 
d="M913 727v-12l-383 -410h-94l185 416l-185 418h94zM524 727v-12l-383 -410h-94l184 416l-184 418h94z" />
    <glyph glyph-name="slash.cap" horiz-adv-x="739" 
d="M721 1577l-543 -1784h-160l543 1784h160z" />
    <glyph glyph-name="backslash.cap" horiz-adv-x="739" 
d="M561 -207l-543 1784h160l543 -1784h-160z" />
    <glyph glyph-name="bar.cap" horiz-adv-x="419" 
d="M285 1577v-1784h-150v1784h150z" />
    <glyph glyph-name="brokenbar.cap" horiz-adv-x="419" 
d="M285 1577v-760h-150v760h150zM285 553v-760h-150v760h150z" />
    <glyph glyph-name="periodcentered.cap" horiz-adv-x="536" 
d="M61 713q0 90 60 148.5t147 58.5t147 -58.5t60 -148.5t-60 -148.5t-147 -58.5t-147 58.5t-60 148.5z" />
    <glyph glyph-name="bullet.cap" horiz-adv-x="753" 
d="M61 719q0 133 93 227t223 94q131 0 223 -94t92 -227q0 -131 -92.5 -225.5t-222.5 -94.5q-129 0 -222.5 94.5t-93.5 225.5z" />
    <glyph glyph-name="hyphen.cap" horiz-adv-x="655" 
d="M594 641h-533v160h533v-160z" />
    <glyph glyph-name="endash.cap" horiz-adv-x="1105" 
d="M1044 651h-983v123h983v-123z" />
    <glyph glyph-name="emdash.cap" horiz-adv-x="1966" 
d="M1905 774v-123h-1844v123h1844z" />
    <glyph glyph-name="parenleft.cap" horiz-adv-x="759" 
d="M399 684q0 -526 316 -893h-115q-221 165 -349 403.5t-128 489.5t128 489.5t349 403.5h115q-316 -367 -316 -893z" />
    <glyph glyph-name="parenright.cap" horiz-adv-x="759" 
d="M358 684q0 243 -75 472.5t-238 420.5h113q221 -165 349 -403.5t128 -489.5t-128 -489.5t-349 -403.5h-113q163 191 238 420.5t75 472.5z" />
    <glyph glyph-name="bracketleft.cap" horiz-adv-x="688" 
d="M408 1374v-1378q0 -27 4 -45.5t16 -31.5t25 -20.5t42 -12.5t54.5 -7.5t73.5 -5.5v-80h-449v1784h449v-80q-48 -3 -73.5 -5.5t-54.5 -7.5t-42 -12.5t-25 -20.5t-16 -31.5t-4 -45.5z" />
    <glyph glyph-name="bracketright.cap" horiz-adv-x="688" 
d="M283 -4v1378q0 27 -4 45.5t-16 31.5t-25 20.5t-42 12.5t-54.5 7.5t-73.5 5.5v80h446v-1784h-446v80q48 3 73.5 5.5t54.5 7.5t42 12.5t25 20.5t16 31.5t4 45.5z" />
    <glyph glyph-name="braceleft.cap" horiz-adv-x="751" 
d="M102 666v36q170 35 170 205v408q0 262 420 262v-59q-176 -22 -176 -201v-387q0 -110 -61 -165t-179 -81q118 -26 179 -81t61 -165v-383q0 -178 176 -200v-60q-420 0 -420 262v404q0 170 -170 205z" />
    <glyph glyph-name="braceright.cap" horiz-adv-x="768" 
d="M666 702v-36q-170 -35 -170 -205v-404q0 -262 -420 -262v60q176 21 176 200v383q0 110 61 165t179 81q-118 26 -179 81t-61 165v387q0 180 -176 201v59q420 0 420 -262v-408q0 -170 170 -205z" />
    <glyph glyph-name="at.cap" horiz-adv-x="1812" 
d="M1241 283q-78 0 -131.5 27.5t-76.5 73t-29.5 105.5t8.5 125q-43 -79 -78.5 -132.5t-80 -102t-94 -72.5t-106.5 -24q-92 0 -151.5 71t-59.5 191q0 105 41 211t110.5 190.5t168.5 137.5t207 53q66 0 118 -25t78 -59l154 67h84l-70 -188l-112 -410q-22 -63 -7.5 -113.5
t66.5 -50.5q118 0 202.5 150t84.5 377q0 114 -39.5 217.5t-111.5 183.5t-183.5 127t-245.5 47q-165 0 -304 -65t-232 -177t-145 -261.5t-52 -317.5q0 -132 35 -243t97.5 -190t149 -134.5t189 -82t217.5 -26.5q165 0 291.5 36.5t261.5 117.5l29 -41q-113 -101 -272 -157
t-351 -56q-168 0 -316 50.5t-261.5 145.5t-179.5 243.5t-66 332.5t69 350.5t188 289t289 195t363 72.5q173 0 316 -53t236.5 -143t144.5 -209t51 -252q0 -119 -30 -219.5t-79 -170t-113.5 -118.5t-133.5 -71.5t-138 -22.5zM780 463q56 0 117.5 76t112.5 198t82 262
q-29 66 -93 66q-58 0 -112.5 -48.5t-91.5 -122t-59.5 -159t-22.5 -160.5q0 -112 67 -112z" />
    </font>
</defs>
</svg>
