<?xml version="1.0" standalone="no"?>
<!DOCTYPE svg PUBLIC "-//W3C//DTD SVG 1.1//EN" "http://www.w3.org/Graphics/SVG/1.1/DTD/svg11.dtd" >
<svg xmlns="http://www.w3.org/2000/svg" xmlns:xlink="http://www.w3.org/1999/xlink" version="1.1">
<metadata>
Created by FontForge 20170731 at Tue Jul  5 13:16:10 2022
 By Aleksey,,,
(c) 2010 Klim Type Foundry. All rights reserved.
</metadata>
<defs>
<font id="TiemposHeadline-Regular" horiz-adv-x="1024" >
  <font-face 
    font-family="Tiempos Headline Regular"
    font-weight="400"
    font-stretch="normal"
    units-per-em="2048"
    panose-1="2 2 5 3 6 3 3 6 4 3"
    ascent="1604"
    descent="-444"
    x-height="1073"
    cap-height="1438"
    bbox="-201 -471 2476 2122"
    underline-thickness="61"
    underline-position="-265"
    unicode-range="U+0020-FB04"
  />
<missing-glyph horiz-adv-x="1966" 
d="M184 0v1597h1598v-1597h-1598zM983 707l-571 -572h1142zM412 1462l571 -571l571 571h-1142zM891 799l-563 563v-1126zM1075 799l563 -563v1126z" />
    <glyph glyph-name="ff" unicode="ff" horiz-adv-x="1310" 
d="M178 1085v43q0 203 126 321t317 118q169 0 288 -82q104 119 297 119q118 0 178 -41t60 -119q0 -72 -62 -109h-127q7 40 7 76q0 133 -93 133q-60 0 -92.5 -53t-32.5 -152v-266h261v-84h-261v-825q0 -59 37.5 -79t141.5 -26v-59h-541v59q79 5 107 23.5t28 73.5v833h-409
v-833q0 -55 28 -73.5t107 -23.5v-59h-500v59q79 5 107 23.5t28 73.5v833h-149v41zM817 1200q0 96 27 170q-82 137 -221 137q-215 0 -215 -295v-139h409v127z" />
    <glyph glyph-name="fi" unicode="fi" horiz-adv-x="1212" 
d="M1044 1094v-938q0 -55 28 -73.5t108 -23.5v-59h-498v59q79 5 107 23.5t28 73.5v833h-409v-833q0 -55 28 -73.5t107 -23.5v-59h-500v59q79 5 107 23.5t28 73.5v833h-149v41l149 55v62q0 112 34.5 200t96 143.5t143.5 84.5t179 29q137 0 215 -43.5t78 -126.5
q0 -69 -68 -109h-139q6 35 6 74q0 63 -31.5 103t-101.5 40q-88 0 -135 -77t-47 -218v-174h514l79 21h43z" />
    <glyph glyph-name="fl" unicode="fl" horiz-adv-x="1212" 
d="M1044 1604v-1448q0 -55 28 -73.5t108 -23.5v-59h-498v59q79 5 107 23.5t28 73.5v1216q-73 172 -223 172q-186 0 -186 -268v-203h247v-84h-247v-833q0 -55 28 -73.5t107 -23.5v-59h-500v59q79 5 107 23.5t28 73.5v833h-149v41l149 55v115q0 193 113 298.5t297 105.5
q138 0 241 -64l183 64h32z" />
    <glyph glyph-name="ffi" unicode="ffi" horiz-adv-x="1849" 
d="M178 1085v43q0 203 126 321t317 118q182 0 307 -97q125 134 340 134q137 0 216 -43.5t79 -126.5q0 -68 -70 -109h-139q6 35 6 74q0 64 -30.5 103.5t-100.5 39.5q-90 0 -137.5 -77t-47.5 -218v-174h515l79 21h45v-938q0 -55 28 -73.5t108 -23.5v-59h-500v59q79 5 107 23.5
t28 73.5v833h-410v-833q0 -55 28 -73.5t108 -23.5v-59h-498v59q79 5 107 23.5t28 73.5v833h-409v-833q0 -55 28 -73.5t107 -23.5v-59h-500v59q79 5 107 23.5t28 73.5v833h-149v41zM817 1147q0 121 37 205q-81 155 -231 155q-215 0 -215 -295v-139h409v74z" />
    <glyph glyph-name="ffl" unicode="ffl" horiz-adv-x="1849" 
d="M621 1567q172 0 292 -84q109 121 314 121q136 0 239 -64l183 64h34v-1448q0 -55 28 -73.5t108 -23.5v-59h-500v59q79 5 107 23.5t28 73.5v1216q-69 172 -223 172q-187 0 -187 -268v-203h248v-84h-248v-833q0 -55 28 -73.5t108 -23.5v-59h-498v59q79 5 107 23.5t28 73.5
v833h-409v-833q0 -55 28 -73.5t107 -23.5v-59h-500v59q79 5 107 23.5t28 73.5v833h-149v41l149 55v43q0 203 126 321t317 118zM817 1073v127q0 96 27 166q-82 141 -221 141q-215 0 -215 -295v-139h409z" />
    <glyph glyph-name="f_b" unicode="fb" horiz-adv-x="1843" 
d="M817 125v1247q-73 172 -223 172q-186 0 -186 -268v-203h247v-84h-247v-833q0 -55 28 -73.5t107 -23.5v-59h-500v59q79 5 107 23.5t28 73.5v833h-149v41l149 55v115q0 193 113 298.5t297 105.5q138 0 241 -64l183 64h32v-697q134 187 345 187q191 0 299 -132t108 -362
q0 -142 -42 -260t-114.5 -196.5t-170.5 -121t-209 -42.5q-132 0 -247.5 38t-195.5 107zM1257 45q139 0 223.5 132.5t84.5 332.5q0 93 -17.5 171t-53 139.5t-95 96.5t-137.5 35q-60 0 -118.5 -26t-99.5 -68v-565q0 -248 213 -248z" />
    <glyph glyph-name="f_f_b" unicode="ffb" horiz-adv-x="2480" 
d="M1454 125v1247q-69 172 -223 172q-187 0 -187 -268v-203h248v-84h-248v-833q0 -55 28 -73.5t108 -23.5v-59h-498v59q79 5 107 23.5t28 73.5v833h-409v-833q0 -55 28 -73.5t107 -23.5v-59h-500v59q79 5 107 23.5t28 73.5v833h-149v41l149 55v43q0 203 126 321t317 118
q172 0 292 -84q109 121 314 121q136 0 239 -64l183 64h34v-697q131 187 345 187q190 0 297.5 -132t107.5 -362q0 -142 -42 -260t-115 -196.5t-171 -121t-209 -42.5q-132 0 -247 38t-195 107zM1896 45q138 0 222 132.5t84 332.5q0 93 -17.5 171t-53.5 139.5t-95.5 96.5
t-137.5 35q-60 0 -118 -26t-97 -68v-565q0 -248 213 -248zM817 1200q0 96 27 166q-82 141 -221 141q-215 0 -215 -295v-139h409v127z" />
    <glyph glyph-name="f_h" unicode="fh" horiz-adv-x="1861" 
d="M817 156v1216q-73 172 -223 172q-186 0 -186 -268v-203h243v-84h-243v-833q0 -55 28 -73.5t107 -23.5v-59h-500v59q79 5 107 23.5t28 73.5v833h-149v41l149 55v115q0 193 113 298.5t297 105.5q138 0 241 -64l183 64h32v-707q174 197 375 197q285 0 285 -336v-602
q0 -55 28 -73.5t107 -23.5v-59h-498v59q79 5 106.5 23.5t27.5 73.5v598q0 103 -41.5 150.5t-130.5 47.5q-121 0 -259 -106v-690q0 -55 28 -73.5t108 -23.5v-59h-498v59q79 5 107 23.5t28 73.5z" />
    <glyph glyph-name="f_f_h" unicode="ffh" horiz-adv-x="2500" 
d="M1454 156v1216q-69 172 -223 172q-187 0 -187 -268v-203h248v-84h-248v-833q0 -55 28 -73.5t108 -23.5v-59h-498v59q79 5 107 23.5t28 73.5v833h-409v-833q0 -55 28 -73.5t107 -23.5v-59h-500v59q79 5 107 23.5t28 73.5v833h-149v41l149 55v43q0 203 126 321t317 118
q172 0 292 -84q109 121 314 121q136 0 239 -64l183 64h34v-707q174 197 375 197q283 0 283 -336v-602q0 -55 28 -73.5t107 -23.5v-59h-498v59q79 5 106 23.5t27 73.5v598q0 103 -40.5 150.5t-128.5 47.5q-125 0 -259 -106v-690q0 -55 27.5 -73.5t106.5 -23.5v-59h-498v59
q79 5 107 23.5t28 73.5zM817 1200q0 96 27 166q-82 141 -221 141q-215 0 -215 -295v-139h409v127z" />
    <glyph glyph-name="f_idieresis" unicode="f&#xef;" horiz-adv-x="1212" 
d="M1044 1094v-938q0 -55 28 -73.5t108 -23.5v-59h-498v59q79 5 107 23.5t28 73.5v833h-409v-833q0 -55 28 -73.5t107 -23.5v-59h-500v59q79 5 107 23.5t28 73.5v833h-149v41l149 55v62q0 219 118.5 338t311.5 119q133 0 209 -57.5t76 -151.5q0 -41 -20.5 -75t-51.5 -50
h-135q14 47 14 94q0 178 -127 178q-84 0 -124.5 -77.5t-40.5 -217.5v-174h514l79 21h43zM975 1380q0 57 39.5 97.5t95.5 40.5q58 0 97.5 -40.5t39.5 -97.5t-39.5 -97t-97.5 -40q-56 0 -95.5 40t-39.5 97z" />
    <glyph glyph-name="f_f_idieresis" unicode="ff&#xef;" horiz-adv-x="1849" 
d="M621 1567q180 0 303 -92q117 129 321 129q133 0 209 -57.5t76 -151.5q0 -41 -20.5 -75t-49.5 -50h-137q14 47 14 94q0 178 -127 178q-84 0 -125 -77.5t-41 -217.5v-174h515l79 21h45v-938q0 -55 28 -73.5t108 -23.5v-59h-500v59q79 5 107 23.5t28 73.5v833h-410v-833
q0 -55 28 -73.5t108 -23.5v-59h-498v59q79 5 107 23.5t28 73.5v833h-409v-833q0 -55 28 -73.5t107 -23.5v-59h-500v59q79 5 107 23.5t28 73.5v833h-149v41l149 55v43q0 203 126 321t317 118zM817 1073v74q0 117 35 207q-36 71 -95.5 112t-133.5 41q-215 0 -215 -295v-139
h409zM1612 1380q0 57 39.5 97.5t95.5 40.5q58 0 98.5 -40.5t40.5 -97.5t-40.5 -97t-98.5 -40q-56 0 -95.5 40t-39.5 97z" />
    <glyph glyph-name="f_j" unicode="fj" horiz-adv-x="1187" 
d="M817 989h-409v-833q0 -55 28 -73.5t107 -23.5v-59h-500v59q79 5 107 23.5t28 73.5v833h-149v41l149 55v62q0 112 34.5 200t96 143.5t143.5 84.5t179 29q137 0 215 -43.5t78 -126.5q0 -69 -68 -109h-139q6 35 6 74q0 63 -31.5 103t-101.5 40q-88 0 -135 -77t-47 -218v-174
h514l79 21h43v-912q0 -142 -15 -212t-58 -140q-81 -128 -275 -283l-30 27l84 145q31 53 46.5 120.5t18 120t2.5 153.5v876z" />
    <glyph glyph-name="f_f_j" unicode="ffj" horiz-adv-x="1824" 
d="M1454 989h-410v-833q0 -55 28 -73.5t108 -23.5v-59h-498v59q79 5 107 23.5t28 73.5v833h-409v-833q0 -55 28 -73.5t107 -23.5v-59h-500v59q79 5 107 23.5t28 73.5v833h-149v41l149 55v43q0 203 126 321t317 118q182 0 307 -97q125 134 340 134q137 0 216 -43.5t79 -126.5
q0 -68 -70 -109h-139q6 35 6 74q0 64 -30.5 103.5t-100.5 39.5q-90 0 -137.5 -77t-47.5 -218v-174h515l79 21h45v-912q0 -141 -16 -211t-59 -141q-81 -128 -275 -283l-30 27l83 145q45 77 56.5 161.5t11.5 232.5v876zM817 1147q0 121 37 205q-81 155 -231 155
q-215 0 -215 -295v-139h409v74z" />
    <glyph glyph-name="f_k" unicode="fk" horiz-adv-x="1779" 
d="M1067 584l328 297q53 50 53 80q0 27 -26 36t-107 17v59h418v-59q-59 -12 -94.5 -28.5t-69.5 -47.5l-293 -270l504 -625v-43h-248zM817 156v1216q-73 172 -223 172q-186 0 -186 -268v-203h247v-84h-247v-833q0 -55 28 -73.5t107 -23.5v-59h-500v59q79 5 107 23.5t28 73.5
v833h-149v41l149 55v115q0 193 113 298.5t297 105.5q138 0 241 -64l183 64h32v-1448q0 -55 28 -73.5t108 -23.5v-59h-498v59q79 5 107 23.5t28 73.5z" />
    <glyph glyph-name="f_f_k" unicode="ffk" horiz-adv-x="2418" 
d="M1454 156v1216q-69 172 -223 172q-187 0 -187 -268v-203h248v-84h-248v-833q0 -55 28 -73.5t108 -23.5v-59h-498v59q79 5 107 23.5t28 73.5v833h-409v-833q0 -55 28 -73.5t107 -23.5v-59h-500v59q79 5 107 23.5t28 73.5v833h-149v41l149 55v43q0 203 126 321t317 118
q172 0 292 -84q109 121 314 121q136 0 239 -64l183 64h34v-1448q0 -55 28 -73.5t108 -23.5v-59h-500v59q79 5 107 23.5t28 73.5zM1704 584l328 297q53 47 53 80q0 27 -26 36t-107 17v59h420v-59q-59 -12 -94 -28t-70 -48l-295 -270l506 -625v-43h-250zM817 1200q0 96 27 166
q-82 141 -221 141q-215 0 -215 -295v-139h409v127z" />
    <glyph glyph-name=".notdef" horiz-adv-x="1966" 
d="M184 0v1597h1598v-1597h-1598zM983 707l-571 -572h1142zM412 1462l571 -571l571 571h-1142zM891 799l-563 563v-1126zM1075 799l563 -563v1126z" />
    <glyph glyph-name=".null" horiz-adv-x="0" 
 />
    <glyph glyph-name="nonmarkingreturn" horiz-adv-x="682" 
 />
    <glyph glyph-name="space" unicode=" " horiz-adv-x="413" 
 />
    <glyph glyph-name="exclam" unicode="!" horiz-adv-x="514" 
d="M102 133q0 64 45.5 110t108.5 46q64 0 109 -45.5t45 -110.5q0 -63 -45 -108t-109 -45q-63 0 -108.5 45t-45.5 108zM283 430h-54l-120 1008h294z" />
    <glyph glyph-name="quotedbl" unicode="&#x22;" horiz-adv-x="579" 
d="M162 991h-21l-61 262q-35 143 -35 191q0 52 27.5 86.5t79.5 34.5q51 0 77.5 -34t26.5 -87q0 -57 -33 -191zM438 991h-18l-64 262q-32 130 -32 191q0 52 27 86.5t77 34.5q52 0 79.5 -34.5t27.5 -86.5q0 -48 -35 -191z" />
    <glyph glyph-name="numbersign" unicode="#" horiz-adv-x="1107" 
d="M936 477h-229l-156 -495l-76 22l150 473h-297l-156 -495l-76 22l150 473h-203v68h223l123 389h-219v67h242l145 459l74 -24l-137 -435h297l145 459l76 -24l-140 -435h193v-67h-213l-123 -389h207v-68zM471 934l-121 -389h295l123 389h-297z" />
    <glyph glyph-name="dollar" unicode="$" horiz-adv-x="1081" 
d="M512 -20q-28 0 -82 4l-37 -215h-63l37 223q-187 27 -295 121l-15 350h70q58 -312 254 -387l96 551l-24 10q-93 36 -155.5 69.5t-117.5 82.5t-81.5 116t-26.5 154q0 175 122 287t328 112q46 0 96 -6l35 203h64l-37 -211q148 -27 260 -105v-305h-68q-42 252 -206 322
l-88 -508q89 -35 151.5 -66t118 -70.5t88 -83.5t51.5 -102t19 -129q0 -131 -68.5 -227t-179 -143t-246.5 -47zM801 305q0 106 -58 169t-206 128l-95 -543q35 -6 70 -6q132 0 210.5 69.5t78.5 182.5zM274 1153q0 -105 52 -163t192 -118l86 504q-50 8 -82 8q-115 0 -181.5 -64
t-66.5 -167z" />
    <glyph glyph-name="percent" unicode="%" horiz-adv-x="1542" 
d="M63 1114q0 157 99 250.5t239 93.5t239 -93.5t99 -250.5q0 -155 -99 -248.5t-239 -93.5t-239 93.5t-99 248.5zM229 1114q0 -127 42.5 -207t129.5 -80t128.5 80t41.5 207t-41.5 207t-128.5 80t-129.5 -80t-42.5 -207zM281 -20l897 1478h86l-899 -1478h-84zM1479 324
q0 -157 -99 -250.5t-239 -93.5q-89 0 -165 40t-123.5 119.5t-47.5 184.5q0 155 99 248.5t237 93.5q140 0 239 -93.5t99 -248.5zM1313 324q0 126 -42.5 206t-129.5 80t-128.5 -79.5t-41.5 -206.5t41.5 -207t128.5 -80t129.5 80t42.5 207z" />
    <glyph glyph-name="ampersand" unicode="&#x26;" horiz-adv-x="1394" 
d="M20 369q0 277 320 393l-6 8q-139 160 -139 324q0 169 110.5 266.5t288.5 97.5q173 0 273 -86.5t100 -220.5q0 -127 -92.5 -212.5t-264.5 -141.5l404 -447q65 124 65 260q0 74 -43 100t-141 29v62h479v-62q-106 -3 -149.5 -31.5t-57.5 -115.5q-27 -160 -106 -293l100 -111
q56 -63 107 -92t118 -35v-61h-311q-69 40 -157 131q-178 -151 -426 -151q-71 0 -138.5 14.5t-128.5 45.5t-106 76t-72 110t-27 143zM592 92q150 0 276 92l-6 9l-485 528q-137 -81 -137 -283q0 -161 96 -253.5t256 -92.5zM387 1171q0 -31 4.5 -59.5t17.5 -56t21 -45.5
t30.5 -45.5t29.5 -36.5t34.5 -38t30.5 -32l18 -20q117 49 162 127.5t45 193.5q0 101 -49 167.5t-147 66.5q-91 0 -144 -60.5t-53 -161.5z" />
    <glyph glyph-name="quotesingle" unicode="'" horiz-adv-x="303" 
d="M162 991h-21l-61 262q-35 143 -35 191q0 52 27.5 86.5t79.5 34.5q51 0 77.5 -34t26.5 -87q0 -57 -33 -191z" />
    <glyph glyph-name="parenleft" unicode="(" horiz-adv-x="708" 
d="M123 643q0 257 112.5 496t327.5 438h86q-332 -367 -332 -934t332 -934h-86q-215 199 -327.5 438t-112.5 496z" />
    <glyph glyph-name="parenright" unicode=")" horiz-adv-x="708" 
d="M586 643q0 -256 -113.5 -495t-327.5 -439h-88q332 364 332 934t-332 934h88q214 -200 327.5 -439t113.5 -495z" />
    <glyph glyph-name="asterisk" unicode="*" horiz-adv-x="841" 
d="M702 1284l-260 -92l260 -94q41 -13 55.5 -42.5t-1.5 -58.5q-18 -28 -48 -30.5t-65 26.5l-213 181l51 -273q9 -43 -9 -68.5t-50 -25.5q-34 0 -52.5 25.5t-9.5 68.5l50 273l-209 -181q-35 -29 -65 -26.5t-48 30.5q-17 29 -3.5 58.5t54.5 42.5l260 94l-260 92
q-41 14 -54.5 43.5t3.5 56.5q18 29 48 31.5t65 -26.5l209 -179l-50 273q-9 43 9.5 68.5t52.5 25.5q32 0 50 -25.5t9 -68.5l-51 -273l213 179q35 29 65 26.5t48 -31.5q16 -27 1.5 -56t-55.5 -44z" />
    <glyph glyph-name="plus" unicode="+" horiz-adv-x="1159" 
d="M522 1208h113v-391h395v-115h-395v-393h-113v393h-391v115h391v391z" />
    <glyph glyph-name="comma" unicode="," horiz-adv-x="438" 
d="M260 2h-76q-47 10 -77.5 43t-30.5 86q0 63 41.5 101t103.5 38q72 0 114 -51.5t42 -136.5q0 -137 -83.5 -225t-236.5 -97v56q87 14 140.5 62t62.5 124z" />
    <glyph glyph-name="hyphen" unicode="-" horiz-adv-x="655" 
d="M594 565h-533v109h533v-109z" />
    <glyph glyph-name="period" unicode="." horiz-adv-x="438" 
d="M61 137q0 66 46 112t112 46q65 0 111.5 -46t46.5 -112t-46.5 -111.5t-111.5 -45.5q-66 0 -112 45.5t-46 111.5z" />
    <glyph glyph-name="slash" unicode="/" horiz-adv-x="765" 
d="M717 1577l-604 -1866h-99l604 1866h99z" />
    <glyph glyph-name="zero" unicode="0" horiz-adv-x="1261" 
d="M631 45q70 0 124 39t87.5 102.5t54.5 153.5t29 181.5t8 197.5t-8 197.5t-29 181.5t-54.5 153.5t-87.5 102.5t-124 39t-124 -39t-87 -102.5t-53.5 -153.5t-28.5 -181.5t-8 -197.5t8 -197.5t28.5 -181.5t53.5 -153.5t87 -102.5t124 -39zM631 -20q-172 0 -302 96t-198 263
t-68 380t68 380t198 263t302 96t302 -96t197.5 -263t67.5 -380t-67.5 -380t-197.5 -263t-302 -96z" />
    <glyph glyph-name="one" unicode="1" horiz-adv-x="778" 
d="M750 0h-699v61q57 4 91.5 7.5t63 11.5t42 17t22.5 27.5t11 38.5t2 54v954h-234v58l86 16q134 25 208.5 69.5t137.5 141.5h47v-1239q0 -34 2.5 -54.5t12 -38.5t22.5 -27t40.5 -17t59.5 -11.5t85 -7.5v-61z" />
    <glyph glyph-name="two" unicode="2" horiz-adv-x="1064" 
d="M254 207h377q55 0 88 3.5t67 14.5t59 34.5t52 61.5t57 97h56l-76 -418h-926v49l367 373q187 190 257 313.5t70 265.5q0 128 -70 202.5t-198 74.5q-196 0 -336 -180l-41 28q176 332 486 332q187 0 293 -98.5t106 -269.5q0 -77 -33.5 -160t-81.5 -151.5t-127 -152.5
t-143 -142t-158 -143t-145 -134z" />
    <glyph glyph-name="three" unicode="3" horiz-adv-x="1036" 
d="M563 823q188 -17 305 -128t117 -269q0 -139 -69 -242t-181 -153.5t-250 -50.5q-220 0 -347.5 84.5t-127.5 205.5q0 53 26 92t66 58h146q-15 -47 -15 -111q0 -119 68 -191.5t186 -72.5q125 0 196 87.5t71 223.5q0 162 -108 252t-286 90h-63l-14 50q74 23 126.5 43.5
t104.5 50t83.5 62t51 77t19.5 98.5q0 98 -58.5 157.5t-167.5 59.5q-176 0 -297 -157l-36 30q63 135 172.5 212t265.5 77q159 0 253.5 -83t94.5 -224q0 -57 -21 -107t-54.5 -85t-78.5 -63.5t-88.5 -45t-89.5 -27.5z" />
    <glyph glyph-name="four" unicode="4" horiz-adv-x="1200" 
d="M139 477h535v707zM674 197v200h-656v49l748 992h145v-961h246v-80h-246v-200q0 -83 30.5 -107.5t145.5 -36.5v-53h-589v53q115 12 145.5 36.5t30.5 107.5z" />
    <glyph glyph-name="five" unicode="5" horiz-adv-x="1015" 
d="M883 1217h-586l-47 -283q129 -2 236.5 -21t197 -57.5t151.5 -95.5t96 -138.5t34 -183.5q0 -206 -135.5 -332t-350.5 -126q-216 0 -337.5 83.5t-121.5 204.5q0 50 26.5 90.5t64.5 61.5h147q-16 -70 -16 -117q0 -125 60.5 -191.5t180.5 -66.5q130 0 208.5 80.5t78.5 216.5
q0 192 -164 290.5t-469 100.5l121 705h487q58 0 81 14t57 76h53z" />
    <glyph glyph-name="six" unicode="6" horiz-adv-x="1159" 
d="M920 1409q-268 -67 -415.5 -234t-180.5 -413q62 60 155.5 103.5t210.5 43.5q180 0 296 -113t116 -309q0 -228 -140.5 -367.5t-353.5 -139.5q-169 0 -293.5 80.5t-186.5 216.5t-62 309q0 220 96 403t282 306.5t437 158.5zM559 791q-132 0 -242 -78q-4 -70 -4 -109
q0 -257 80 -407t219 -150q126 0 196.5 97t70.5 257q0 177 -83 283.5t-237 106.5z" />
    <glyph glyph-name="seven" unicode="7" horiz-adv-x="997" 
d="M844 1210h-555q-71 0 -110.5 -38t-86.5 -140h-63l88 406h872v-64l-583 -1374h-205z" />
    <glyph glyph-name="eight" unicode="8" horiz-adv-x="1116" 
d="M995 1120q0 -119 -91 -200t-214 -109l86 -39q136 -65 208.5 -157t72.5 -224q0 -180 -131 -295.5t-369 -115.5q-224 0 -362 101t-138 267q0 67 26.5 124.5t73 100t104 73t126.5 50.5l-45 23q-231 111 -231 354q0 166 120.5 275.5t325.5 109.5q202 0 320 -92t118 -246z
M653 571l-221 105q-176 -109 -176 -314q0 -140 82.5 -228.5t218.5 -88.5q139 0 219 70t80 200q0 90 -52.5 150.5t-150.5 105.5zM498 911l153 -77q82 55 122 122.5t40 163.5q0 122 -68 197.5t-190 75.5q-113 0 -180.5 -65.5t-67.5 -170.5q0 -50 12.5 -87t40.5 -66t58 -48.5
t80 -44.5z" />
    <glyph glyph-name="nine" unicode="9" horiz-adv-x="1159" 
d="M240 29q267 67 414 234t182 413q-62 -60 -156 -104t-211 -44q-180 0 -296 113t-116 309q0 228 140.5 368t353.5 140q128 0 231.5 -46.5t171 -128.5t104 -192t36.5 -239q0 -220 -96 -403t-282 -306.5t-437 -158.5zM600 647q127 0 240 76q6 56 6 111q0 257 -80 407
t-219 150q-126 0 -196 -97t-70 -258q0 -177 82.5 -283t236.5 -106z" />
    <glyph glyph-name="colon" unicode=":" horiz-adv-x="438" 
d="M61 137q0 66 46 112t112 46q65 0 111.5 -46t46.5 -112t-46.5 -111.5t-111.5 -45.5q-66 0 -112 45.5t-46 111.5zM61 821q0 66 46 112t112 46q65 0 111.5 -46t46.5 -112t-46.5 -111.5t-111.5 -45.5q-66 0 -112 45.5t-46 111.5z" />
    <glyph glyph-name="semicolon" unicode=";" horiz-adv-x="438" 
d="M260 2h-76q-47 10 -77.5 43t-30.5 86q0 63 41.5 101t103.5 38q72 0 114 -51.5t42 -136.5q0 -137 -83.5 -225t-236.5 -97v56q87 14 140.5 62t62.5 124zM61 821q0 66 46 112t112 46q65 0 111.5 -46t46.5 -112t-46.5 -111.5t-111.5 -45.5q-66 0 -112 45.5t-46 111.5z" />
    <glyph glyph-name="less" unicode="&#x3c;" horiz-adv-x="851" 
d="M84 748v18l637 389v-135l-442 -262l442 -264v-136z" />
    <glyph glyph-name="equal" unicode="=" horiz-adv-x="1179" 
d="M141 559v113h899v-113h-899zM141 846v112h899v-112h-899z" />
    <glyph glyph-name="greater" unicode="&#x3e;" horiz-adv-x="851" 
d="M768 766v-18l-637 -390v136l442 264l-442 262v135z" />
    <glyph glyph-name="question" unicode="?" horiz-adv-x="888" 
d="M645 1190q0 98 -52 155.5t-147 57.5t-142.5 -61.5t-47.5 -155.5q0 -5 1 -48.5t1 -47.5h-168q-51 39 -51 106q0 114 115.5 188t287.5 74q190 0 300 -88t110 -256q0 -61 -21 -115t-64.5 -103t-88.5 -86t-113 -85q-87 -61 -122 -115.5t-35 -140.5v-55h-29q-32 30 -59 86.5
t-27 117.5q0 83 40 148.5t128 134.5q50 39 74 60.5t54.5 58t43 77.5t12.5 93zM252 133q0 64 45.5 110t108.5 46q64 0 108.5 -45.5t44.5 -110.5q0 -63 -44.5 -108t-108.5 -45q-63 0 -108.5 45t-45.5 108z" />
    <glyph glyph-name="at" unicode="@" horiz-adv-x="1753" 
d="M1210 154q-75 0 -125 30t-70.5 81t-23.5 119t17 144q-171 -372 -367 -372q-89 0 -142 68.5t-53 191.5q0 145 71.5 286.5t191 231.5t247.5 90q117 0 189 -72l137 74h41l-57 -180l-105 -418q-56 -213 68 -213q78 0 140 48t100.5 128t58.5 178t20 203q0 259 -145.5 417.5
t-415.5 158.5q-139 0 -262.5 -48t-215 -132.5t-159 -196t-101.5 -242t-34 -266.5q0 -291 175 -463t460 -172q169 0 292.5 35t266.5 117l21 -31q-111 -92 -269.5 -147.5t-331.5 -55.5q-229 0 -401 84t-267 246.5t-95 384.5q0 184 68 356t187 303.5t293 211t373 79.5
q163 0 295.5 -46.5t221 -130.5t136.5 -202t48 -260q0 -119 -35 -230.5t-96 -197.5t-152 -138t-195 -52zM721 274q91 0 198.5 180t174.5 439q-16 36 -51 55t-74 19q-92 0 -171 -89t-121 -214t-42 -244q0 -64 22.5 -105t63.5 -41z" />
    <glyph glyph-name="A" unicode="A" horiz-adv-x="1456" 
d="M1034 233l-104 256h-572l-98 -256q-20 -48 -20 -79q0 -47 41 -67.5t141 -25.5v-61h-412v61q34 6 53.5 12t39 22t28.5 42l461 1172l-62 143h258l537 -1315q14 -36 42.5 -51.5t78.5 -24.5v-61h-572v61q97 3 138 23.5t41 67.5q0 32 -19 81zM639 1208l-250 -643h510z" />
    <glyph glyph-name="B" unicode="B" horiz-adv-x="1310" 
d="M643 702h-172v-491q0 -81 41.5 -109t144.5 -28h23q154 0 230.5 80.5t76.5 232.5q0 144 -85 229.5t-259 85.5zM598 1364h-127v-584h127q320 0 320 297q0 137 -82.5 212t-237.5 75zM711 0h-654v61q49 6 75 11.5t48.5 14.5t31 24.5t13 37.5t4.5 58v1024q0 30 -2 49.5t-10 35
t-18.5 24.5t-32 16t-45 11t-64.5 9v62h613q237 0 363 -90.5t126 -266.5q0 -75 -33 -136t-88.5 -101.5t-123 -65t-142.5 -33.5q207 -8 334 -103t127 -255q0 -181 -136 -284t-386 -103z" />
    <glyph glyph-name="C" unicode="C" horiz-adv-x="1312" 
d="M762 1458q260 0 446 -121l2 -313h-65q-35 177 -131 267.5t-250 90.5q-108 0 -193.5 -50.5t-138.5 -138.5t-80.5 -202.5t-27.5 -247.5q0 -194 51.5 -347.5t157 -246t249.5 -92.5q157 0 255 98t147 314h71l-28 -373q-190 -116 -457 -116q-323 0 -515 194.5t-192 511.5
q0 173 53.5 318.5t147 244.5t222 154t276.5 55z" />
    <glyph glyph-name="D" unicode="D" horiz-adv-x="1486" 
d="M614 1364h-143v-1145q0 -87 38.5 -116t133.5 -29h47q211 0 341 166.5t130 468.5q0 136 -31 251t-94.5 207t-171 144.5t-250.5 52.5zM692 0h-635v61q49 6 75 11.5t48.5 14.5t31 24.5t13 37.5t4.5 58v1024q0 30 -2 49.5t-10 35t-18.5 24.5t-32 16t-45 11t-64.5 9v62h602
q154 0 281.5 -36t215.5 -99t148.5 -150t88.5 -187t28 -212q0 -176 -56 -319.5t-154.5 -238t-231.5 -145.5t-287 -51z" />
    <glyph glyph-name="E" unicode="E" horiz-adv-x="1275" 
d="M57 0v61q49 6 75 11.5t48.5 14.5t31 24.5t13 37.5t4.5 58v1024q0 30 -2 49.5t-10 35t-18.5 24.5t-32 16t-45 11t-64.5 9v62h1094l10 -355h-49q-72 167 -135 224t-176 57h-330v-584h295q65 0 96 43.5t47 143.5h64v-449h-64q-16 99 -47 141.5t-96 42.5h-295v-489
q0 -81 44 -110t149 -29h159q58 0 101.5 15.5t85.5 57.5t77 94t89 146h59l-64 -387h-1114z" />
    <glyph glyph-name="F" unicode="F" horiz-adv-x="1177" 
d="M471 684v-457q0 -89 49.5 -119.5t200.5 -41.5v-66h-664v61q49 6 75 11.5t48.5 14.5t31 24.5t13 37.5t4.5 58v1024q0 30 -2 49.5t-10 35t-18.5 24.5t-32 16t-45 11t-64.5 9v62h1059l8 -363h-47q-63 166 -129.5 227.5t-181.5 61.5h-295v-602h258q64 0 93.5 45t45.5 147h62
v-462h-62q-16 102 -45.5 147t-93.5 45h-258z" />
    <glyph glyph-name="G" unicode="G" horiz-adv-x="1447" 
d="M1030 127v338q0 30 -2 49.5t-10.5 35t-18 23.5t-32 15.5t-45 11t-64.5 8.5v64h574v-64q-42 -5 -64.5 -8.5t-45 -11t-32 -15.5t-18 -23.5t-10.5 -35t-2 -49.5v-340q-216 -145 -504 -145q-160 0 -291.5 54.5t-219 150t-135 224.5t-47.5 277q0 174 54 319.5t148.5 244.5
t225.5 153.5t283 54.5q274 0 453 -117v-317h-66q-72 360 -383 360q-92 0 -168 -33t-128.5 -91.5t-88.5 -140t-52.5 -176.5t-16.5 -202q0 -139 28 -260.5t82.5 -218t144 -152t203.5 -55.5q162 0 248 72z" />
    <glyph glyph-name="H" unicode="H" horiz-adv-x="1613" 
d="M471 1231v-449h672v449q0 30 -2 49.5t-10 35t-18.5 24.5t-32 16t-45 11t-64.5 9v62h585v-62q-41 -5 -64.5 -9t-45 -11t-32 -16t-18.5 -24.5t-10 -35t-2 -49.5v-1024q0 -36 4.5 -58t13 -37.5t31 -24.5t48.5 -14.5t75 -11.5v-61h-585v61q49 6 75 11.5t48.5 14.5t31 24.5
t13 37.5t4.5 58v491h-672v-491q0 -36 4.5 -58t13 -37.5t31 -24.5t48.5 -14.5t75 -11.5v-61h-586v61q49 6 75 11.5t48.5 14.5t31 24.5t13 37.5t4.5 58v1024q0 30 -2 49.5t-10 35t-18.5 24.5t-32 16t-45 11t-64.5 9v62h586v-62q-41 -5 -64.5 -9t-45 -11t-32 -16t-18.5 -24.5
t-10 -35t-2 -49.5z" />
    <glyph glyph-name="I" unicode="I" horiz-adv-x="700" 
d="M471 1231v-1024q0 -36 4.5 -58t13 -37.5t31 -24.5t48.5 -14.5t75 -11.5v-61h-586v61q49 6 75 11.5t48.5 14.5t31 24.5t13 37.5t4.5 58v1024q0 30 -2 49.5t-10 35t-18.5 24.5t-32 16t-45 11t-64.5 9v62h586v-62q-41 -5 -64.5 -9t-45 -11t-32 -16t-18.5 -24.5t-10 -35
t-2 -49.5z" />
    <glyph glyph-name="J" unicode="J" horiz-adv-x="1030" 
d="M580 342v889q0 30 -2 49.5t-10 35t-18.5 24.5t-32 16t-45 11t-64.5 9v62h585v-62q-41 -5 -64.5 -9t-45 -11t-32 -16t-18.5 -24.5t-10 -35t-2 -49.5v-809q0 -220 -114.5 -331t-325.5 -111q-183 0 -288 69.5t-105 198.5q0 44 19 82t48 61h166q-10 -62 -10 -112
q0 -116 47 -176t135 -60q187 0 187 299z" />
    <glyph glyph-name="K" unicode="K" horiz-adv-x="1404" 
d="M707 813l452 -594q74 -96 118 -125t128 -33v-61h-340q-82 65 -176 190l-391 519l510 534q47 47 47 80q0 26 -30 35.5t-128 17.5v62h442v-62q-63 -4 -99 -24.5t-89 -73.5zM471 1231v-1024q0 -36 4.5 -58t13 -37.5t31 -24.5t48.5 -14.5t75 -11.5v-61h-586v61q49 6 75 11.5
t48.5 14.5t31 24.5t13 37.5t4.5 58v1024q0 30 -2 49.5t-10 35t-18.5 24.5t-32 16t-45 11t-64.5 9v62h586v-62q-41 -5 -64.5 -9t-45 -11t-32 -16t-18.5 -24.5t-10 -35t-2 -49.5z" />
    <glyph glyph-name="L" unicode="L" horiz-adv-x="1220" 
d="M471 1231v-1018q0 -81 43 -110t148 -29h106q35 0 65 7.5t55.5 19.5t50.5 35.5t45 47.5t46 65t46.5 77t51.5 94h60l-68 -420h-1063v61q49 6 75 11.5t48.5 14.5t31 24.5t13 37.5t4.5 58v1024q0 30 -2 49.5t-10 35t-18.5 24.5t-32 16t-45 11t-64.5 9v62h586v-62
q-41 -5 -64.5 -9t-45 -11t-32 -16t-18.5 -24.5t-10 -35t-2 -49.5z" />
    <glyph glyph-name="M" unicode="M" horiz-adv-x="1865" 
d="M1419 244l-106 889l-408 -1133h-71l-437 1133l-102 -889q-4 -32 -4 -51q0 -71 39.5 -97t150.5 -35v-61h-450v61q88 6 123.5 30.5t42.5 94.5l127 1041q0 81 -37 112t-137 37v62h401q4 -44 31 -121l368 -957l338 957q27 77 31 121h397v-62q-99 -6 -135.5 -37t-36.5 -112
l125 -1041q9 -71 43.5 -95t122.5 -30v-61h-604v61q111 9 150.5 35t39.5 97q0 3 -1 22.5t-1 28.5z" />
    <glyph glyph-name="N" unicode="N" horiz-adv-x="1519" 
d="M1219 408v821q0 85 -36.5 110t-166.5 37v62h469v-62q-61 -7 -91 -14t-51.5 -23.5t-26.5 -40.5t-5 -69v-1235h-74l-911 1163v-948q0 -85 36 -110.5t166 -37.5v-61h-469v61q41 5 65.5 9t46 12t32 16.5t18.5 25t10 36t2 49.5v1040q-55 73 -87 98t-89 29v62h363z" />
    <glyph glyph-name="O" unicode="O" horiz-adv-x="1449" 
d="M733 55q94 0 169 53.5t122.5 145t72.5 209t25 250.5q0 101 -15 196.5t-47 181.5t-79 150.5t-115.5 102.5t-150.5 38q-125 0 -215.5 -92.5t-133 -238.5t-42.5 -326q0 -128 25 -244.5t73 -213.5t128.5 -154.5t182.5 -57.5zM715 -20q-153 0 -278.5 58.5t-206 157t-124 226
t-43.5 268.5q0 172 52 317t141.5 243.5t212.5 153t264 54.5q153 0 278 -58.5t205.5 -157t124 -226t43.5 -268.5q0 -172 -51.5 -317t-141.5 -243.5t-212.5 -153t-263.5 -54.5z" />
    <glyph glyph-name="P" unicode="P" horiz-adv-x="1230" 
d="M471 580v-353q0 -89 49.5 -119.5t200.5 -41.5v-66h-664v61q49 6 75 11.5t48.5 14.5t31 24.5t13 37.5t4.5 58v1024q0 30 -2 49.5t-10 35t-18.5 24.5t-32 16t-45 11t-64.5 9v62h580q136 0 243.5 -34t173.5 -93t100 -134.5t34 -162.5q0 -200 -140.5 -317t-408.5 -117h-168z
M471 1364v-707h115q348 0 348 351q0 158 -88 257t-260 99h-115z" />
    <glyph glyph-name="Q" unicode="Q" horiz-adv-x="1449" 
d="M782 -193l-118 175q-141 9 -256.5 70.5t-190 159t-114.5 220.5t-40 258q0 172 52 317t141.5 243.5t212.5 153t264 54.5q153 0 278 -58.5t205.5 -157t124 -226t43.5 -268.5q0 -294 -142 -494.5t-370 -255.5l127 -125q70 -72 134.5 -113.5t150.5 -48.5v-24
q-35 -19 -56 -28.5t-61.5 -19.5t-83.5 -10q-180 0 -301 178zM733 55q94 0 169 53.5t122.5 145t72.5 209t25 250.5q0 101 -15 196.5t-47 181.5t-79 150.5t-115.5 102.5t-150.5 38q-125 0 -215.5 -92.5t-133 -238.5t-42.5 -326q0 -128 25 -244.5t73 -213.5t128.5 -154.5
t182.5 -57.5z" />
    <glyph glyph-name="R" unicode="R" horiz-adv-x="1421" 
d="M586 1362h-115v-664h121q169 0 252.5 89t83.5 255q0 142 -87 231t-255 89zM471 623v-416q0 -36 4.5 -58t13 -37.5t31 -24.5t48.5 -14.5t75 -11.5v-61h-586v61q49 6 75 11.5t48.5 14.5t31 24.5t13 37.5t4.5 58v1024q0 30 -2 49.5t-10 35t-18.5 24.5t-32 16t-45 11t-64.5 9
v62h594q253 0 391 -108t138 -288q0 -82 -32.5 -151.5t-86 -115t-112 -74.5t-120.5 -42l326 -426q71 -96 127 -132.5t139 -39.5v-61h-344q-69 48 -170 190l-311 433h-125z" />
    <glyph glyph-name="S" unicode="S" horiz-adv-x="1091" 
d="M518 -20q-136 0 -253 37t-187 96l-15 350h72q36 -196 133 -303t250 -107q134 0 211.5 69t77.5 183q0 61 -17 105t-61.5 82t-105.5 69t-164 72q-73 29 -126 55t-104 63.5t-82 79.5t-50 100t-19 128q0 175 123 287t327 112q123 0 232 -31.5t186 -87.5v-305h-67
q-25 171 -114.5 260.5t-236.5 89.5q-114 0 -179.5 -64t-65.5 -167q0 -111 62.5 -171t236.5 -128q74 -30 128.5 -56t106 -58t85.5 -66t60.5 -75.5t39 -91.5t12.5 -110q0 -131 -68.5 -227t-179.5 -143t-248 -47z" />
    <glyph glyph-name="T" unicode="T" horiz-adv-x="1343" 
d="M59 1438h1225l31 -449h-53q-35 85 -56 132t-48 97t-48 73.5t-50 44.5t-61 27.5t-75 6.5h-131v-1169q0 -29 3.5 -49t16 -34.5t23.5 -23t38.5 -15t47 -9.5t63.5 -9v-61h-627v61q34 4 49.5 6.5t40 7t35 8.5t25.5 11.5t21 16.5t13 22t9 29.5t2 38.5v1169h-133q-43 0 -75 -6.5
t-61 -27.5t-50 -45t-47.5 -73.5t-47 -97t-55.5 -131.5h-55z" />
    <glyph glyph-name="U" unicode="U" horiz-adv-x="1476" 
d="M434 1231v-719q0 -195 89 -303.5t255 -108.5q195 0 302.5 104t107.5 322v703q0 85 -35 110t-164 37v62h465v-62q-60 -7 -90 -14t-51.5 -23.5t-27 -40.5t-5.5 -69v-740q0 -102 -26.5 -186t-74 -143t-113.5 -100t-144.5 -60.5t-167.5 -19.5q-265 0 -412 129t-147 387v735
q0 84 -30.5 107.5t-144.5 37.5v62h588v-62q-62 -7 -91.5 -13.5t-51 -23t-26.5 -40t-5 -68.5z" />
    <glyph glyph-name="V" unicode="V" horiz-adv-x="1427" 
d="M821 319l344 885q21 54 21 82q0 46 -39 66t-139 24v62h409v-62q-50 -9 -77.5 -23.5t-43.5 -52.5l-526 -1316h-57l-582 1316q-17 38 -44 52.5t-77 23.5v62h574v-62q-101 -4 -138.5 -23.5t-37.5 -66.5q0 -32 20 -82z" />
    <glyph glyph-name="W" unicode="W" horiz-adv-x="1923" 
d="M1268 -16l-285 852l-305 -852h-72l-475 1316q-12 36 -41.5 51.5t-79.5 24.5v62h557v-62q-94 -5 -131 -23.5t-37 -62.5q0 -12 3 -26t9 -33.5t9 -30.5l305 -862l221 612l-117 350q-11 38 -38 52.5t-78 23.5v62h542v-62q-98 -3 -136 -22.5t-38 -65.5q0 -24 21 -92l276 -848
l287 848q23 63 23 88q0 46 -39.5 67t-137.5 25v62h402v-62q-35 -6 -53 -11.5t-38 -21.5t-28 -43l-457 -1316h-69z" />
    <glyph glyph-name="X" unicode="X" horiz-adv-x="1417" 
d="M918 223l-273 412l-301 -406q-43 -62 -43 -96q0 -66 168 -72v-61h-459v61q62 3 99 23t77 74l410 551l-377 571q-33 51 -73.5 72.5t-98.5 23.5v62h608v-62q-88 0 -124.5 -11t-36.5 -44q0 -34 51 -113l223 -340l250 340q47 64 47 103q0 35 -39.5 49t-122.5 16v62h449v-62
q-62 -3 -103 -24t-78 -72l-358 -481l422 -637q63 -98 172 -101v-61h-612v61q83 2 123 15.5t40 50.5t-40 96z" />
    <glyph glyph-name="Y" unicode="Y" horiz-adv-x="1312" 
d="M772 569v-368q0 -22 2 -38.5t9 -29.5t13 -22t21 -16.5t25 -11.5t34.5 -8.5t40 -7t48.5 -6.5v-61h-617v61q38 5 55 7.5t43.5 8t37 11t25.5 15.5t20.5 23t9.5 31.5t4 43.5v366l-412 733q-22 37 -48 52.5t-73 23.5v62h565v-62q-99 -3 -135.5 -19.5t-36.5 -56.5
q0 -36 39 -102l299 -524l289 520q37 76 37 109q0 39 -36.5 54.5t-135.5 18.5v62h408v-62q-44 -8 -72 -24.5t-49 -51.5z" />
    <glyph glyph-name="Z" unicode="Z" horiz-adv-x="1214" 
d="M338 74h405q37 0 67 6t55 16t50 33t44.5 44.5t47 64.5t49 80.5t58.5 103.5h60l-68 -422h-1065v41l805 1323h-397q-36 0 -65 -6t-51 -14.5t-43.5 -31t-36 -41t-35 -60.5t-34.5 -73t-41 -94h-55l12 394h1039v-43z" />
    <glyph glyph-name="bracketleft" unicode="[" horiz-adv-x="651" 
d="M336 1395v-1501q0 -74 45 -94.5t182 -28.5v-60h-389v1866h389v-59q-137 -8 -182 -28.5t-45 -94.5z" />
    <glyph glyph-name="backslash" unicode="\" horiz-adv-x="765" 
d="M651 -289l-602 1866h98l603 -1866h-99z" />
    <glyph glyph-name="bracketright" unicode="]" horiz-adv-x="651" 
d="M313 -106v1501q0 74 -45 94.5t-182 28.5v59h391v-1866h-391v60q137 8 182 28.5t45 94.5z" />
    <glyph glyph-name="asciicircum" unicode="^" horiz-adv-x="950" 
d="M532 1577l338 -594h-106l-287 514l-291 -514h-108l338 594h116z" />
    <glyph glyph-name="underscore" unicode="_" horiz-adv-x="811" 
d="M770 -231h-729v96h729v-96z" />
    <glyph glyph-name="grave" unicode="`" 
d="M326 1561h243l117 -344h-51l-309 331v13z" />
    <glyph glyph-name="a" unicode="a" horiz-adv-x="1036" 
d="M446 119q50 0 93.5 21.5t103.5 68.5v385l-215 -88q-77 -30 -114.5 -76t-37.5 -125q0 -86 43 -136t127 -50zM872 770v-543q0 -64 16.5 -94.5t57.5 -30.5q36 0 88 23l13 -37q-79 -108 -213 -108q-78 0 -126.5 48t-60.5 134q-150 -180 -323 -180q-123 0 -196 70.5t-73 189.5
q0 63 21 112t63.5 84.5t89 59.5t113.5 49l301 110v156q0 103 -41 163t-129 60q-78 0 -116 -48.5t-38 -129.5q0 -42 17 -115l-135 -18q-40 12 -63 43t-23 76q0 118 108 184t275 66q187 0 280.5 -78.5t93.5 -245.5z" />
    <glyph glyph-name="b" unicode="b" horiz-adv-x="1155" 
d="M129 1403l-129 70v30l324 101h34v-697q131 187 344 187q190 0 298 -132.5t108 -361.5q0 -142 -42 -260t-115 -196.5t-171 -121t-209 -42.5q-132 0 -247 38t-195 107v1278zM571 45q138 0 222 132.5t84 332.5q0 93 -17.5 171t-53.5 139.5t-95.5 96.5t-137.5 35
q-60 0 -118 -26t-97 -68v-565q0 -248 213 -248z" />
    <glyph glyph-name="c" unicode="c" horiz-adv-x="931" 
d="M250 602q0 -205 90.5 -328.5t245.5 -123.5q186 0 293 161l30 -14q-47 -155 -150 -236t-251 -81q-204 0 -332.5 143.5t-128.5 376.5q0 259 140.5 426.5t371.5 167.5q148 0 235 -60t87 -166q0 -43 -20 -78t-52 -53h-135q8 54 8 92q0 195 -160 195q-125 0 -198.5 -119.5
t-73.5 -302.5z" />
    <glyph glyph-name="d" unicode="d" horiz-adv-x="1183" 
d="M571 1022q-139 0 -221 -122.5t-82 -324.5q0 -194 82 -318t230 -124q127 0 208 84v524q0 131 -59 206t-158 75zM788 1403l-129 70v30l326 101h33v-1397q0 -56 14 -73t76 -23l53 -5v-53l-340 -73h-41l8 190q-138 -190 -329 -190q-186 0 -299 139.5t-113 365.5
q0 278 144 442.5t366 164.5q149 0 231 -76v387z" />
    <glyph glyph-name="e" unicode="e" horiz-adv-x="976" 
d="M530 1094q191 0 295.5 -115.5t104.5 -300.5v-43h-674q-9 -228 91 -360t261 -132q103 0 176 43.5t131 130.5l27 -14q-38 -147 -146.5 -235t-271.5 -88q-144 0 -253 69.5t-165.5 188.5t-56.5 270q0 168 63.5 302.5t173 209t244.5 74.5zM512 1024q-107 0 -172.5 -90
t-77.5 -234h455q0 150 -50 237t-155 87z" />
    <glyph glyph-name="f" unicode="f" horiz-adv-x="673" 
d="M408 989v-825q0 -59 37 -79t141 -26v-59h-543v59q79 5 107 23.5t28 73.5v833h-149v41l149 55v115q0 195 106.5 299.5t284.5 104.5q117 0 177.5 -41.5t60.5 -118.5q0 -71 -64 -109h-125q7 40 7 76q0 133 -93 133q-60 0 -92 -52.5t-32 -152.5v-266h258v-84h-258z" />
    <glyph glyph-name="g" unicode="g" horiz-adv-x="1042" 
d="M487 389q-107 0 -192 33q-78 -81 -78 -137q0 -76 80 -76h405q162 0 251 -67.5t89 -198.5q0 -123 -78.5 -215t-209 -137.5t-293.5 -45.5q-215 0 -338 68t-123 190q0 136 195 211q-58 22 -89.5 67.5t-31.5 108.5q0 76 49.5 134t132.5 114q-85 40 -134.5 113.5t-49.5 175.5
q0 168 118 267.5t302 99.5q84 0 176 -29l336 8v-106h-80l-154 8q55 -36 93 -101.5t38 -138.5q0 -158 -114 -252t-300 -94zM688 -2h-467q-51 -54 -51 -145q0 -111 82.5 -174.5t226.5 -63.5q109 0 196.5 25t143 81t55.5 136q0 75 -47.5 108t-138.5 33zM500 449
q89 0 134.5 75.5t45.5 198.5q0 133 -52 222t-147 89q-90 0 -136 -76t-46 -198q0 -135 52 -223t149 -88z" />
    <glyph glyph-name="h" unicode="h" horiz-adv-x="1218" 
d="M172 156v1247l-129 70v30l326 101h32v-707q174 197 375 197q285 0 285 -336v-602q0 -55 28 -73.5t107 -23.5v-59h-500v59q79 5 107 23.5t28 73.5v598q0 102 -42 150t-130 48q-124 0 -258 -106v-690q0 -55 27.5 -73.5t106.5 -23.5v-59h-498v59q79 5 107 23.5t28 73.5z" />
    <glyph glyph-name="i" unicode="i" horiz-adv-x="573" 
d="M408 1094v-938q0 -55 28 -73.5t107 -23.5v-59h-500v59q79 5 107 23.5t28 73.5v731l-129 71v29l326 107h33zM287 1239q-62 0 -104 42t-42 101q0 61 42 103.5t104 42.5t104.5 -42.5t42.5 -103.5q0 -59 -42.5 -101t-104.5 -42z" />
    <glyph glyph-name="j" unicode="j" horiz-adv-x="526" 
d="M154 887l-129 71v29l325 107h33v-912q0 -142 -15.5 -212t-58.5 -140q-82 -130 -274 -283l-33 27l84 145q45 77 56.5 161.5t11.5 232.5v774zM260 1239q-62 0 -103.5 42t-41.5 101q0 61 41.5 103.5t103.5 42.5q64 0 106 -42.5t42 -103.5q0 -59 -42 -101t-106 -42z" />
    <glyph glyph-name="k" unicode="k" horiz-adv-x="1138" 
d="M426 584l326 297q55 48 55 80q0 14 -6 23t-26.5 14.5t-39 8t-63.5 7.5v59h420v-59q-59 -12 -94 -28t-70 -48l-295 -270l506 -625v-43h-250zM174 156v1247l-129 70v30l324 101h34v-1448q0 -55 28 -73.5t108 -23.5v-59h-500v59q79 5 107 23.5t28 73.5z" />
    <glyph glyph-name="l" unicode="l" horiz-adv-x="569" 
d="M403 1604v-1448q0 -55 28 -73.5t108 -23.5v-59h-500v59q79 5 107 23.5t28 73.5v1247l-129 70v30l324 101h34z" />
    <glyph glyph-name="m" unicode="m" horiz-adv-x="1828" 
d="M1442 156v598q0 103 -37.5 150.5t-122.5 47.5q-64 0 -121 -27.5t-121 -78.5v-690q0 -56 26 -74t105 -23v-59h-493v59q79 5 106 23.5t27 73.5v598q0 102 -38.5 150t-123.5 48q-64 0 -120.5 -27.5t-120.5 -78.5v-690q0 -55 27 -73.5t106 -23.5v-59h-498v59q79 5 107 23.5
t28 73.5v731l-129 71v29l332 107h35l-8 -197q82 94 165 145.5t197 51.5q110 0 173 -49.5t85 -153.5q81 93 170.5 148t202.5 55q138 0 204 -83t66 -249v-606q0 -55 28 -73.5t107 -23.5v-59h-495v59q79 5 105 23t26 74z" />
    <glyph glyph-name="n" unicode="n" horiz-adv-x="1224" 
d="M838 156v598q0 102 -42 150t-130 48q-124 0 -258 -106v-690q0 -55 27.5 -73.5t105.5 -23.5v-59h-498v59q79 5 107 23.5t28 73.5v731l-129 71v29l332 107h35l-8 -197q174 197 374 197q285 0 285 -330v-608q0 -55 28 -73.5t107 -23.5v-59h-500v59q80 5 108 23.5t28 73.5z
" />
    <glyph glyph-name="o" unicode="o" horiz-adv-x="1099" 
d="M555 47q123 0 189.5 123t66.5 332q0 148 -27.5 263.5t-88.5 188t-150 72.5q-123 0 -188.5 -123t-65.5 -332q0 -147 27 -262.5t88 -188.5t149 -73zM545 -20q-224 0 -361 146.5t-137 385.5q0 129 39 238.5t107 184.5t161.5 117t200.5 42q224 0 361 -147t137 -384
q0 -260 -144.5 -421.5t-363.5 -161.5z" />
    <glyph glyph-name="p" unicode="p" horiz-adv-x="1185" 
d="M602 47q138 0 221.5 131.5t83.5 331.5q0 93 -17.5 171t-53 139.5t-95 96.5t-137.5 35q-60 0 -118 -26t-97 -68v-563q0 -248 213 -248zM160 -279v1166l-129 71v29l329 107h37l-8 -187q131 187 344 187q190 0 298 -132.5t108 -361.5q0 -142 -41.5 -260t-113.5 -196.5
t-168.5 -121t-207.5 -42.5q-142 0 -219 65v-317q0 -59 34 -77t142 -26v-59h-540v59q80 5 107.5 23t27.5 73z" />
    <glyph glyph-name="q" unicode="q" horiz-adv-x="1153" 
d="M571 1028q-139 0 -221 -123t-82 -325q0 -195 82.5 -321t229.5 -126q127 0 208 84v531q0 129 -60 204.5t-157 75.5zM788 -272v442q-66 -89 -144.5 -139.5t-184.5 -50.5q-186 0 -299 139.5t-113 365.5q0 139 39 254.5t108 192.5t163 119.5t204 42.5q199 0 311 -125l111 125
h47l-12 -222v-1151q0 -55 27.5 -73t107.5 -23v-59h-541v59q107 8 141.5 26t34.5 77z" />
    <glyph glyph-name="r" unicode="r" horiz-adv-x="788" 
d="M408 745v-581q0 -59 37 -79t141 -26v-59h-543v59q79 5 107 23.5t28 73.5v731l-129 71v29l332 107h35l-8 -295q85 173 139 234t139 61q55 0 84 -33v-184h-35q-110 0 -180.5 -24t-146.5 -108z" />
    <glyph glyph-name="s" unicode="s" horiz-adv-x="905" 
d="M442 -20q-107 0 -200.5 27t-155.5 73l-12 282h65q39 -145 116.5 -232t190.5 -87q92 0 149.5 46.5t57.5 133.5q0 82 -55 128.5t-195 99.5q-168 62 -241.5 135t-73.5 202q0 142 97 224t259 82q182 0 322 -86v-248h-59q-30 122 -97 196t-172 74q-83 0 -128.5 -44t-45.5 -116
q0 -75 52 -121t184 -94q171 -62 252.5 -138.5t81.5 -207.5q0 -154 -106.5 -241.5t-285.5 -87.5z" />
    <glyph glyph-name="t" unicode="t" horiz-adv-x="700" 
d="M362 1333v-260h281v-84h-281v-678q0 -103 38.5 -149.5t119.5 -46.5t158 57l22 -31q-108 -161 -290 -161q-126 0 -200.5 74t-74.5 233v702h-133v37q182 90 311 307h49z" />
    <glyph glyph-name="u" unicode="u" horiz-adv-x="1175" 
d="M1010 866v-659q0 -56 14 -73t76 -23l53 -5v-53l-338 -73h-41l8 194q-87 -91 -169 -142.5t-185 -51.5q-138 0 -212.5 79.5t-74.5 245.5v551q0 56 -20 78.5t-84 32.5l-33 4v55l342 66h33l-10 -234v-516q0 -219 172 -219q65 0 119 25t122 73v635q0 56 -19.5 78.5t-84.5 32.5
l-31 4v55l338 66h33z" />
    <glyph glyph-name="v" unicode="v" horiz-adv-x="1116" 
d="M1106 1073v-59q-54 -13 -72.5 -27t-32.5 -49l-395 -956h-59l-432 956q-14 34 -33 48.5t-72 27.5v59h502v-59q-84 -10 -112.5 -22.5t-28.5 -45.5q0 -20 12 -57l260 -623l248 625q14 38 14 55q0 33 -28.5 44.5t-114.5 23.5v59h344z" />
    <glyph glyph-name="w" unicode="w" horiz-adv-x="1644" 
d="M1190 287l231 604q11 25 11 51q0 36 -31 50t-105 22v59h338v-59q-54 -13 -72.5 -27.5t-31.5 -48.5l-379 -956h-68l-245 680l-267 -680h-65l-391 956q-14 34 -33 48.5t-72 27.5v59h488v-59q-71 -8 -100 -22t-29 -48q0 -28 10 -53l231 -612l189 493l-62 166q-11 34 -30 49
t-70 27v59h469v-59q-76 -8 -106.5 -21.5t-30.5 -50.5q0 -18 10 -51z" />
    <glyph glyph-name="x" unicode="x" horiz-adv-x="1126" 
d="M711 178l-209 295l-223 -295q-27 -38 -27 -61q0 -48 125 -58v-59h-367v59q100 24 140 78l305 402l-281 399q-24 34 -48 50t-75 26v59h486v-59q-59 -3 -86 -14t-27 -35q0 -28 31 -70l163 -236l177 236q32 40 32 68q0 24 -27.5 35t-84.5 16v59h350v-59q-98 -18 -141 -78
l-260 -338l323 -461q25 -36 51 -52.5t78 -25.5v-59h-493v59q67 5 94.5 13.5t27.5 31.5q0 22 -34 74z" />
    <glyph glyph-name="y" unicode="y" horiz-adv-x="1110" 
d="M645 233l244 656q12 37 12 57q0 33 -28.5 45.5t-112.5 22.5v59h340v-59q-53 -13 -72.5 -28t-32.5 -48l-442 -1143q-49 -126 -105.5 -185t-148.5 -59q-51 0 -95 27.5t-57 71.5v80q74 -19 127 -19q89 0 141.5 33.5t86.5 124.5l37 98l-424 971q-14 34 -33 48.5t-72 27.5v59
h500v-59q-84 -10 -112.5 -22.5t-28.5 -45.5q0 -20 12 -57z" />
    <glyph glyph-name="z" unicode="z" horiz-adv-x="1007" 
d="M61 0v35l609 962h-275q-87 0 -140 -63t-108 -225h-55l33 430h51l25 -70h735v-41l-596 -956h295q84 0 142 68t116 241h55l-37 -381h-850z" />
    <glyph glyph-name="braceleft" unicode="{" horiz-adv-x="710" 
d="M102 633v24q170 35 170 205v453q0 121 95.5 191.5t259.5 70.5v-47q-90 -10 -137.5 -56.5t-47.5 -144.5v-450q0 -102 -51.5 -152t-163.5 -82q113 -32 164 -82t51 -151v-451q0 -98 47.5 -144.5t137.5 -56.5v-47q-164 0 -259.5 70.5t-95.5 191.5v453q0 170 -170 205z" />
    <glyph glyph-name="bar" unicode="|" horiz-adv-x="438" 
d="M266 1577v-1866h-94v1866h94z" />
    <glyph glyph-name="braceright" unicode="}" horiz-adv-x="714" 
d="M612 657v-24q-170 -35 -170 -205v-453q0 -122 -95 -192t-259 -70v47q90 10 137 56.5t47 144.5v451q0 101 51 151t164 82q-112 32 -163.5 82t-51.5 152v450q0 98 -47 144.5t-137 56.5v47q164 0 259 -70t95 -192v-453q0 -170 170 -205z" />
    <glyph glyph-name="asciitilde" unicode="~" horiz-adv-x="944" 
d="M827 762l56 -17q-47 -141 -104.5 -205.5t-153.5 -64.5q-42 0 -92 22.5t-88.5 49t-85.5 49t-85 22.5q-51 0 -84.5 -31t-72.5 -100l-56 17q46 141 103.5 205.5t152.5 64.5q43 0 93.5 -22.5t89 -49t85.5 -49t85 -22.5q51 0 84.5 31t72.5 100z" />
    <glyph glyph-name="uni00A0" unicode="&#xa0;" horiz-adv-x="413" 
 />
    <glyph glyph-name="exclamdown" unicode="&#xa1;" horiz-adv-x="514" 
d="M102 1073q0 63 45.5 108.5t108.5 45.5q64 0 109 -45.5t45 -108.5q0 -65 -45 -110t-109 -45q-63 0 -108.5 45.5t-45.5 109.5zM229 776h54l120 -1007h-294z" />
    <glyph glyph-name="cent" unicode="&#xa2;" horiz-adv-x="1067" 
d="M377 -225l45 223q-159 43 -252.5 180t-93.5 334q0 173 66.5 310t192 216.5t290.5 79.5h26l43 211h64l-45 -217q123 -15 195.5 -74t72.5 -151q0 -43 -20.5 -77t-55.5 -52h-133q8 58 8 94q0 129 -84 176l-176 -860q56 -23 129 -23q107 0 184 43.5t136 130.5l28 -16
q-46 -160 -157.5 -241.5t-272.5 -81.5q-43 0 -84 6l-43 -211h-63zM283 614q0 -147 46.5 -254t133.5 -163l174 850q-28 4 -49 4q-138 0 -221.5 -124t-83.5 -313z" />
    <glyph glyph-name="sterling" unicode="&#xa3;" horiz-adv-x="1302" 
d="M207 721v70h205l18 149q30 263 157.5 390.5t334.5 127.5q141 0 227 -55.5t86 -157.5q0 -47 -25 -85t-61 -52h-143q16 70 16 129q0 78 -26 122t-93 44q-47 0 -83 -28.5t-60.5 -82t-40.5 -113.5t-29 -139l-39 -249h336v-70h-348l-33 -217q-17 -131 -51 -223
q88 -47 200.5 -77t215.5 -30q211 0 211 174q0 32 -6 62l26 4q66 -72 66 -176q0 -124 -78 -191t-215 -67q-132 0 -258.5 55t-212.5 133q-88 -188 -285 -188q-92 0 -145.5 53.5t-53.5 134.5q0 92 62 145.5t149 53.5q71 0 129 -21l43 375h-196zM199 61q55 0 96 47t55 146
q-76 39 -133 39q-55 0 -89 -32t-34 -91q0 -51 29 -80t76 -29z" />
    <glyph glyph-name="currency" unicode="&#xa4;" horiz-adv-x="1191" 
d="M137 1114l56 55l147 -151q113 92 256 92q144 0 254 -92l149 151l56 -55l-152 -151q86 -114 86 -256q0 -146 -86 -256l152 -152l-56 -55l-149 151q-106 -92 -254 -92q-147 0 -256 92l-147 -151l-56 55l152 152q-86 106 -86 256q0 147 86 256zM287 707q0 -142 88 -235
t221 -93t221 93t88 235q0 144 -88 236.5t-221 92.5t-221 -92.5t-88 -236.5z" />
    <glyph glyph-name="yen" unicode="&#xa5;" horiz-adv-x="1310" 
d="M774 575v-100h344v-69h-344v-205q0 -22 2 -38.5t9 -29.5t13 -22t21 -16.5t25 -11.5t34.5 -8.5t40 -7t48.5 -6.5v-61h-623v61q34 4 49.5 6.5t40 7t35 8.5t25.5 11.5t21 16.5t13 22t9 29.5t2 38.5v205h-346v69h346v98l-39 70h-307v72h266l-328 585q-22 37 -48 52.5
t-73 23.5v62h572v-62q-99 -3 -135.5 -19.5t-36.5 -58.5q0 -34 39 -100l286 -522l289 518q2 5 11 24.5t12.5 29t7.5 25t4 27.5q0 41 -36.5 57t-135.5 19v62h413v-62q-44 -8 -71.5 -24.5t-48.5 -51.5l-328 -585h266v-72h-307z" />
    <glyph glyph-name="brokenbar" unicode="&#xa6;" horiz-adv-x="438" 
d="M266 1577v-770h-94v770h94zM266 481v-770h-94v770h94z" />
    <glyph glyph-name="section" unicode="&#xa7;" horiz-adv-x="1067" 
d="M309 1290q-129 -123 -129 -321q0 -151 62 -291t178 -299q23 -32 81 -105.5t95.5 -126.5t80.5 -123.5t63.5 -138.5t17.5 -131q129 123 129 322q0 151 -62 291t-178 299q-23 33 -81 105.5t-95.5 125.5t-80.5 123.5t-63.5 138.5t-17.5 131zM481 -414q-151 0 -232 56t-81 145
q0 77 82 109h135v-46q0 -206 156 -206q74 0 111.5 43t37.5 108q0 44 -19 94.5t-56.5 108.5t-73 106t-90 119t-86.5 115q-123 169 -188.5 318t-65.5 313q0 142 66 255.5t174 173.5t235 60q152 0 232.5 -56.5t80.5 -146.5q0 -73 -80 -106h-137v45q0 207 -156 207
q-73 0 -110 -43.5t-37 -108.5q0 -44 18.5 -94.5t56 -109t72 -105.5t90.5 -119t86 -114q123 -169 188.5 -318t65.5 -313q0 -142 -66 -255.5t-174 -174t-235 -60.5z" />
    <glyph glyph-name="dieresis" unicode="&#xa8;" 
d="M186 1380q0 57 39.5 97.5t96.5 40.5q58 0 98.5 -40.5t40.5 -97.5t-40.5 -97t-98.5 -40q-57 0 -96.5 40t-39.5 97zM567 1380q0 57 40.5 97.5t97.5 40.5q58 0 97.5 -40.5t39.5 -97.5t-39.5 -97t-97.5 -40q-57 0 -97.5 40t-40.5 97z" />
    <glyph glyph-name="copyright" unicode="&#xa9;" horiz-adv-x="1622" 
d="M129 719q0 -189 86.5 -346.5t243.5 -250.5t352 -93t352 93t243.5 250.5t86.5 346.5t-86.5 346.5t-243.5 250.5t-352 93t-352 -93t-243.5 -250.5t-86.5 -346.5zM78 719q0 203 93 371.5t262 268t378 99.5t378 -99.5t262 -268t93 -371.5t-93 -371.5t-262 -268t-378 -99.5
t-378 99.5t-262 268t-93 371.5zM846 352q95 0 146.5 58t90.5 178h50l-19 -223q-69 -36 -131.5 -55t-142.5 -19q-191 0 -306.5 116t-115.5 298q0 136 58.5 240t155 157t214.5 53q162 0 264 -84v-199h-47q-49 222 -213 222q-81 0 -139.5 -51.5t-85.5 -131t-27 -174.5
q0 -173 66.5 -279t181.5 -106z" />
    <glyph glyph-name="ordfeminine" unicode="&#xaa;" horiz-adv-x="745" 
d="M311 836q60 0 131 59v229l-127 -51q-52 -20 -75 -51.5t-23 -79.5q0 -50 24.5 -78t69.5 -28zM600 1239v-334q0 -86 49 -86q23 0 66 17l6 -27q-54 -72 -143 -72q-53 0 -89.5 33t-42.5 88q-96 -121 -213 -121q-77 0 -124.5 46.5t-47.5 119.5q0 42 14 74.5t42.5 56t57.5 38.5
t73 32l194 70v75q0 80 -25 121t-83 41q-45 0 -68.5 -28.5t-23.5 -77.5q0 -31 10 -76l-100 -15q-25 8 -39.5 29.5t-14.5 50.5q0 76 71 120t181 44q124 0 187 -53t63 -166z" />
    <glyph glyph-name="guillemotleft" unicode="&#xab;" horiz-adv-x="925" 
d="M66 555v12l389 398h65l-239 -404l239 -403h-65zM406 555v12l389 398h65l-239 -404l239 -403h-65z" />
    <glyph glyph-name="registered" unicode="&#xae;" horiz-adv-x="1054" 
d="M516 1202h-45v-207h45q51 0 79 28t28 79q0 46 -28 73t-79 27zM311 1241h224q93 0 141.5 -38t48.5 -99q0 -53 -35 -88t-84 -45l86 -117q23 -34 42 -47.5t54 -13.5v-33h-126q-38 23 -76 84l-78 114h-37v-116q0 -30 11.5 -39.5t45.5 -9.5v-33h-217v33q35 0 47.5 9.5
t12.5 39.5v317q0 30 -11.5 38t-48.5 13v31zM111 991q0 -174 118 -296t297 -122q180 0 299 122t119 296q0 115 -53 211t-149.5 152.5t-215.5 56.5q-179 0 -297 -122t-118 -298zM61 991q0 196 132.5 331.5t332.5 135.5q133 0 240.5 -63t167 -169.5t59.5 -234.5
q0 -195 -133 -330t-334 -135q-200 0 -332.5 135.5t-132.5 329.5z" />
    <glyph glyph-name="macron" unicode="&#xaf;" 
d="M240 1276v119h530v-119h-530z" />
    <glyph glyph-name="degree" unicode="&#xb0;" horiz-adv-x="567" 
d="M123 1219q0 -76 44 -123t118 -47q73 0 116 47t43 123t-43 123t-116 47q-74 0 -118 -47t-44 -123zM41 1219q0 101 71 170t173 69q100 0 170.5 -69t70.5 -170t-70.5 -170.5t-170.5 -69.5q-102 0 -173 69.5t-71 170.5z" />
    <glyph glyph-name="plusminus" unicode="&#xb1;" horiz-adv-x="1159" 
d="M524 1235h109v-301h397v-109h-397v-301h-109v301h-393v109h393v301zM131 295v108h899v-108h-899z" />
    <glyph glyph-name="twosuperior" unicode="&#xb2;" horiz-adv-x="765" 
d="M256 776h213q68 0 97 19t73 94h33l-27 -260h-584v33l218 206q101 101 140.5 170t39.5 146q0 72 -39.5 110.5t-110.5 38.5q-113 0 -198 -98l-29 25q44 84 122 139t183 55q113 0 175.5 -60.5t62.5 -168.5q0 -31 -8.5 -62t-19.5 -55.5t-36 -55.5t-43.5 -51.5t-56.5 -54
t-60.5 -52.5t-71 -58t-73.5 -60z" />
    <glyph glyph-name="threesuperior" unicode="&#xb3;" horiz-adv-x="747" 
d="M410 1081q117 -7 186.5 -69.5t69.5 -159.5q0 -112 -91 -177t-223 -65q-131 0 -204.5 51t-73.5 125q0 29 15.5 53t37.5 35h102q-8 -27 -8 -53q0 -162 144 -162q68 0 105.5 44.5t37.5 127.5q0 91 -56.5 137t-160.5 46h-29l-8 35q101 34 151 75.5t50 102.5q0 50 -32.5 83
t-94.5 33q-111 0 -176 -106l-43 25q39 88 114 142t180 54q102 0 156.5 -48.5t54.5 -127.5q0 -40 -18 -74.5t-49 -58.5t-65 -40.5t-72 -27.5z" />
    <glyph glyph-name="acute" unicode="&#xb4;" 
d="M444 1561h242v-13l-309 -331h-51z" />
    <glyph glyph-name="mu" unicode="&#xb5;" horiz-adv-x="1175" 
d="M348 29l27 -385v-27l-234 -20v1259q0 56 -20 78.5t-84 32.5l-33 4v55l342 66h33l-10 -234v-516q0 -219 172 -219q65 0 119 25t122 73v635q0 56 -19.5 78.5t-84.5 32.5l-31 4v55l338 66h33l-8 -226v-659q0 -56 14 -73t76 -23l53 -5v-53l-338 -73h-41l8 194
q-161 -194 -323 -194q-35 0 -66.5 13.5t-44.5 35.5z" />
    <glyph glyph-name="paragraph" unicode="&#xb6;" horiz-adv-x="1251" 
d="M657 -403v849q-133 0 -238.5 39.5t-171 108.5t-100 159.5t-34.5 196.5q0 218 140 353t404 135h545v-66q-113 -2 -161 -31t-48 -118v-1626h-82v1771h-172v-1771h-82zM657 516v852q-79 -1 -138.5 -37.5t-93 -97.5t-49.5 -132.5t-16 -150.5q0 -80 16 -153t49.5 -137
t93 -103.5t138.5 -40.5z" />
    <glyph glyph-name="periodcentered" unicode="&#xb7;" horiz-adv-x="448" 
d="M61 621q0 69 47 115t115 46q69 0 116.5 -46t47.5 -115q0 -70 -47.5 -117t-116.5 -47q-68 0 -115 47t-47 117z" />
    <glyph glyph-name="cedilla" unicode="&#xb8;" 
d="M328 -457l-13 58q108 0 171 29.5t63 76.5q0 43 -42.5 63t-131.5 23l90 223h59l-45 -110q98 -2 153.5 -41t55.5 -115q0 -103 -99 -155t-261 -52z" />
    <glyph glyph-name="onesuperior" unicode="&#xb9;" horiz-adv-x="669" 
d="M375 1458h45v-692q0 -51 31.5 -64t134.5 -20v-51h-504v51q104 7 135 20t31 64v496h-166v38l51 11q85 13 137 46.5t105 100.5z" />
    <glyph glyph-name="ordmasculine" unicode="&#xba;" horiz-adv-x="782" 
d="M395 795q78 0 119 75t41 207q0 140 -42.5 232t-125.5 92q-77 0 -118.5 -77t-41.5 -208q0 -139 43 -230t125 -91zM387 737q-146 0 -237 95t-91 249q0 169 95.5 273t240.5 104q146 0 237 -95.5t91 -248.5q0 -170 -95.5 -273.5t-240.5 -103.5z" />
    <glyph glyph-name="guillemotright" unicode="&#xbb;" horiz-adv-x="925" 
d="M860 567v-12l-389 -397h-65l239 403l-239 404h65zM520 567v-12l-389 -397h-65l239 403l-239 404h65z" />
    <glyph glyph-name="onequarter" unicode="&#xbc;" horiz-adv-x="1564" 
d="M846 279h299v366zM375 1458h45v-692q0 -51 31.5 -64t134.5 -20v-51h-504v51q104 7 135 20t31 64v496h-166v38l51 11q87 19 139.5 51t102.5 96zM303 -20l897 1478h86l-899 -1478h-84zM1444 0h-426v51q82 6 104.5 19.5t22.5 64.5v82h-393v43l456 563h107v-544h162v-62h-162
v-82q0 -51 23.5 -64.5t105.5 -19.5v-51z" />
    <glyph glyph-name="onehalf" unicode="&#xbd;" horiz-adv-x="1607" 
d="M375 1458h45v-692q0 -51 31.5 -64t134.5 -20v-51h-504v51q104 7 135 20t31 64v496h-166v38l51 11q85 13 137 46.5t105 100.5zM303 -20l897 1478h86l-899 -1478h-84zM1100 147h213q67 0 96.5 19.5t71.5 93.5h32l-24 -260h-584v33l215 207q100 100 140 169.5t40 145.5
q0 72 -38 111t-109 39q-110 0 -201 -99l-28 25q47 85 124 140.5t181 55.5q113 0 175 -61.5t62 -169.5q0 -31 -8.5 -62t-19 -55.5t-36 -56t-42.5 -51t-56.5 -54.5t-60 -52t-71 -58t-72.5 -60z" />
    <glyph glyph-name="threequarters" unicode="&#xbe;" horiz-adv-x="1587" 
d="M410 1087q120 -6 188 -68.5t68 -162.5q0 -113 -91 -179.5t-223 -66.5q-131 0 -204.5 51t-73.5 125q0 29 15.5 53t37.5 35h102q-8 -27 -8 -53q0 -162 144 -162q68 0 105.5 44.5t37.5 127.5q0 91 -56.5 137t-160.5 46h-29l-8 35q101 34 150 75.5t49 102.5q0 50 -32 83
t-93 33q-111 0 -176 -106l-43 25q39 88 114 142t180 54q102 0 156.5 -48.5t54.5 -127.5q0 -138 -204 -195zM868 279h299v366zM324 -20l897 1478h86l-897 -1478h-86zM1464 0h-424v51q82 6 104.5 19.5t22.5 64.5v82h-393v43l457 563h106v-544h162v-62h-162v-82
q0 -51 22.5 -64.5t104.5 -19.5v-51z" />
    <glyph glyph-name="questiondown" unicode="&#xbf;" horiz-adv-x="888" 
d="M262 16q0 -98 52 -155.5t147 -57.5t142.5 61.5t47.5 155.5q0 5 -1 49t-1 48h168q51 -39 51 -107q0 -114 -115.5 -188t-287.5 -74q-190 0 -300 88t-110 256q0 61 21 115t64.5 103t88.5 86t113 85q87 61 122.5 115.5t35.5 140.5v56h28q32 -30 59 -87t27 -118
q0 -83 -40 -148.5t-128 -134.5q-50 -39 -74 -60.5t-54.5 -58t-43 -77.5t-12.5 -93zM655 1073q0 -64 -45 -109.5t-108 -45.5q-64 0 -109 45t-45 110q0 63 45 108.5t109 45.5q63 0 108 -45.5t45 -108.5z" />
    <glyph glyph-name="Agrave" unicode="&#xc0;" horiz-adv-x="1456" 
d="M1034 233l-104 256h-572l-98 -256q-20 -48 -20 -79q0 -47 41 -67.5t141 -25.5v-61h-412v61q34 6 53.5 12t39 22t28.5 42l461 1172l-62 143h258l537 -1315q14 -36 42.5 -51.5t78.5 -24.5v-61h-572v61q97 3 138 23.5t41 67.5q0 32 -19 81zM639 1208l-250 -643h510z
M387 1839h252l109 -305h-54l-307 293v12z" />
    <glyph glyph-name="Aacute" unicode="&#xc1;" horiz-adv-x="1456" 
d="M1034 233l-104 256h-572l-98 -256q-20 -48 -20 -79q0 -47 41 -67.5t141 -25.5v-61h-412v61q34 6 53.5 12t39 22t28.5 42l461 1172l-62 143h258l537 -1315q14 -36 42.5 -51.5t78.5 -24.5v-61h-572v61q97 3 138 23.5t41 67.5q0 32 -19 81zM639 1208l-250 -643h510z
M729 1839h250v-12l-307 -293h-54z" />
    <glyph glyph-name="Acircumflex" unicode="&#xc2;" horiz-adv-x="1456" 
d="M1034 233l-104 256h-572l-98 -256q-20 -48 -20 -79q0 -47 41 -67.5t141 -25.5v-61h-412v61q34 6 53.5 12t39 22t28.5 42l461 1172l-62 143h258l537 -1315q14 -36 42.5 -51.5t78.5 -24.5v-61h-572v61q97 3 138 23.5t41 67.5q0 32 -19 81zM639 1208l-250 -643h510z
M776 1858l262 -324h-63l-281 182l-280 -182h-64l262 324h164z" />
    <glyph glyph-name="Atilde" unicode="&#xc3;" horiz-adv-x="1456" 
d="M1034 233l-104 256h-572l-98 -256q-20 -48 -20 -79q0 -47 41 -67.5t141 -25.5v-61h-412v61q34 6 53.5 12t39 22t28.5 42l461 1172l-62 143h258l537 -1315q14 -36 42.5 -51.5t78.5 -24.5v-61h-572v61q97 3 138 23.5t41 67.5q0 32 -19 81zM639 1208l-250 -643h510z
M825 1534q-38 0 -80.5 19t-73.5 41.5t-68.5 41.5t-67.5 19q-44 0 -79 -27.5t-69 -87.5l-45 25q57 137 105 191t120 54q48 0 101.5 -30t103 -60t86.5 -30q44 0 79 27.5t69 88.5l45 -26q-57 -136 -106 -191t-120 -55z" />
    <glyph glyph-name="Adieresis" unicode="&#xc4;" horiz-adv-x="1456" 
d="M1034 233l-104 256h-572l-98 -256q-20 -48 -20 -79q0 -47 41 -67.5t141 -25.5v-61h-412v61q34 6 53.5 12t39 22t28.5 42l461 1172l-62 143h258l537 -1315q14 -36 42.5 -51.5t78.5 -24.5v-61h-572v61q97 3 138 23.5t41 67.5q0 32 -19 81zM639 1208l-250 -643h510z
M358 1683q0 57 39.5 97.5t96.5 40.5q58 0 98.5 -40.5t40.5 -97.5q0 -56 -40.5 -96.5t-98.5 -40.5q-57 0 -96.5 40.5t-39.5 96.5zM758 1683q0 57 39 97.5t96 40.5q58 0 97.5 -40.5t39.5 -97.5q0 -56 -39.5 -96.5t-97.5 -40.5q-56 0 -95.5 40.5t-39.5 96.5z" />
    <glyph glyph-name="Aring" unicode="&#xc5;" horiz-adv-x="1456" 
d="M1034 233l-104 256h-572l-98 -256q-20 -48 -20 -79q0 -47 41 -67.5t141 -25.5v-61h-412v61q34 6 53.5 12t39 22t28.5 42l461 1172l-62 143h258l537 -1315q14 -36 42.5 -51.5t78.5 -24.5v-61h-572v61q97 3 138 23.5t41 67.5q0 32 -19 81zM639 1208l-250 -643h510z
M492 1683q0 78 52.5 130.5t131.5 52.5t131.5 -52.5t52.5 -130.5t-52.5 -131t-131.5 -53t-131.5 53t-52.5 131zM567 1683q0 -51 29 -83.5t80 -32.5t79.5 32.5t28.5 83.5t-28.5 83t-79.5 32t-80 -32t-29 -83z" />
    <glyph glyph-name="AE" unicode="&#xc6;" horiz-adv-x="2066" 
d="M131 137l754 1157q-25 69 -211 82v62h1268l10 -355h-51q-71 166 -133.5 223.5t-176.5 57.5h-331v-584h296q65 0 96.5 44t47.5 143h63v-449h-63q-16 99 -47.5 141.5t-96.5 42.5h-296v-489q0 -80 44 -109.5t148 -29.5h162q58 0 101 15.5t85 57.5t76.5 93.5t89.5 146.5h59
l-63 -387h-1116v61q115 14 144.5 37.5t29.5 108.5v299h-549l-176 -273q-33 -51 -33 -83q0 -86 195 -89v-61h-447v61q42 7 68.5 23.5t52.5 52.5zM1020 1348l-500 -768h500v768z" />
    <glyph glyph-name="Ccedilla" unicode="&#xc7;" horiz-adv-x="1312" 
d="M551 -457l-12 58q108 0 170.5 29.5t62.5 76.5q0 43 -42.5 63t-131.5 23l76 193q-283 28 -447 217.5t-164 482.5q0 173 53.5 318.5t147 244.5t222 154t276.5 55q260 0 446 -121l2 -313h-65q-35 177 -131 267.5t-250 90.5q-108 0 -193.5 -50.5t-138.5 -138.5t-80.5 -202.5
t-27.5 -247.5q0 -194 51.5 -347.5t157 -246t249.5 -92.5q157 0 255 98t147 314h71l-28 -373q-190 -116 -457 -116q-6 0 -18.5 1t-18.5 1l-31 -76q98 -2 153.5 -41t55.5 -115q0 -103 -99 -155t-261 -52z" />
    <glyph glyph-name="Egrave" unicode="&#xc8;" horiz-adv-x="1275" 
d="M406 1839h251l109 -305h-53l-307 293v12zM57 0v61q49 6 75 11.5t48.5 14.5t31 24.5t13 37.5t4.5 58v1024q0 30 -2 49.5t-10 35t-18.5 24.5t-32 16t-45 11t-64.5 9v62h1094l10 -355h-49q-72 167 -135 224t-176 57h-330v-584h295q65 0 96 43.5t47 143.5h64v-449h-64
q-16 99 -47 141.5t-96 42.5h-295v-489q0 -81 44 -110t149 -29h159q58 0 101.5 15.5t85.5 57.5t77 94t89 146h59l-64 -387h-1114z" />
    <glyph glyph-name="Eacute" unicode="&#xc9;" horiz-adv-x="1275" 
d="M717 1839h250v-12l-308 -293h-53zM57 0v61q49 6 75 11.5t48.5 14.5t31 24.5t13 37.5t4.5 58v1024q0 30 -2 49.5t-10 35t-18.5 24.5t-32 16t-45 11t-64.5 9v62h1094l10 -355h-49q-72 167 -135 224t-176 57h-330v-584h295q65 0 96 43.5t47 143.5h64v-449h-64
q-16 99 -47 141.5t-96 42.5h-295v-489q0 -81 44 -110t149 -29h159q58 0 101.5 15.5t85.5 57.5t77 94t89 146h59l-64 -387h-1114z" />
    <glyph glyph-name="Ecircumflex" unicode="&#xca;" horiz-adv-x="1275" 
d="M57 0v61q49 6 75 11.5t48.5 14.5t31 24.5t13 37.5t4.5 58v1024q0 30 -2 49.5t-10 35t-18.5 24.5t-32 16t-45 11t-64.5 9v62h1094l10 -355h-49q-72 167 -135 224t-176 57h-330v-584h295q65 0 96 43.5t47 143.5h64v-449h-64q-16 99 -47 141.5t-96 42.5h-295v-489
q0 -81 44 -110t149 -29h159q58 0 101.5 15.5t85.5 57.5t77 94t89 146h59l-64 -387h-1114zM762 1858l262 -324h-63l-281 182l-281 -182h-63l262 324h164z" />
    <glyph glyph-name="Edieresis" unicode="&#xcb;" horiz-adv-x="1275" 
d="M344 1683q0 57 39 97.5t96 40.5q58 0 98.5 -40.5t40.5 -97.5q0 -56 -40.5 -96.5t-98.5 -40.5q-56 0 -95.5 40.5t-39.5 96.5zM743 1683q0 57 39.5 97.5t96.5 40.5q58 0 97.5 -40.5t39.5 -97.5q0 -56 -39.5 -96.5t-97.5 -40.5q-57 0 -96.5 40.5t-39.5 96.5zM57 0v61
q49 6 75 11.5t48.5 14.5t31 24.5t13 37.5t4.5 58v1024q0 30 -2 49.5t-10 35t-18.5 24.5t-32 16t-45 11t-64.5 9v62h1094l10 -355h-49q-72 167 -135 224t-176 57h-330v-584h295q65 0 96 43.5t47 143.5h64v-449h-64q-16 99 -47 141.5t-96 42.5h-295v-489q0 -81 44 -110
t149 -29h159q58 0 101.5 15.5t85.5 57.5t77 94t89 146h59l-64 -387h-1114z" />
    <glyph glyph-name="Igrave" unicode="&#xcc;" horiz-adv-x="700" 
d="M471 1231v-1024q0 -36 4.5 -58t13 -37.5t31 -24.5t48.5 -14.5t75 -11.5v-61h-586v61q49 6 75 11.5t48.5 14.5t31 24.5t13 37.5t4.5 58v1024q0 30 -2 49.5t-10 35t-18.5 24.5t-32 16t-45 11t-64.5 9v62h586v-62q-41 -5 -64.5 -9t-45 -11t-32 -16t-18.5 -24.5t-10 -35
t-2 -49.5zM76 1839h252l108 -305h-53l-307 293v12z" />
    <glyph glyph-name="Iacute" unicode="&#xcd;" horiz-adv-x="700" 
d="M471 1231v-1024q0 -36 4.5 -58t13 -37.5t31 -24.5t48.5 -14.5t75 -11.5v-61h-586v61q49 6 75 11.5t48.5 14.5t31 24.5t13 37.5t4.5 58v1024q0 30 -2 49.5t-10 35t-18.5 24.5t-32 16t-45 11t-64.5 9v62h586v-62q-41 -5 -64.5 -9t-45 -11t-32 -16t-18.5 -24.5t-10 -35
t-2 -49.5zM387 1839h250v-12l-307 -293h-54z" />
    <glyph glyph-name="Icircumflex" unicode="&#xce;" horiz-adv-x="700" 
d="M471 1231v-1024q0 -36 4.5 -58t13 -37.5t31 -24.5t48.5 -14.5t75 -11.5v-61h-586v61q49 6 75 11.5t48.5 14.5t31 24.5t13 37.5t4.5 58v1024q0 30 -2 49.5t-10 35t-18.5 24.5t-32 16t-45 11t-64.5 9v62h586v-62q-41 -5 -64.5 -9t-45 -11t-32 -16t-18.5 -24.5t-10 -35
t-2 -49.5zM424 1858l244 -326h-60l-260 182l-258 -182h-59l241 326h152z" />
    <glyph glyph-name="Idieresis" unicode="&#xcf;" horiz-adv-x="700" 
d="M471 1231v-1024q0 -36 4.5 -58t13 -37.5t31 -24.5t48.5 -14.5t75 -11.5v-61h-586v61q49 6 75 11.5t48.5 14.5t31 24.5t13 37.5t4.5 58v1024q0 30 -2 49.5t-10 35t-18.5 24.5t-32 16t-45 11t-64.5 9v62h586v-62q-41 -5 -64.5 -9t-45 -11t-32 -16t-18.5 -24.5t-10 -35
t-2 -49.5zM14 1683q0 57 39.5 97.5t96.5 40.5q58 0 98.5 -40.5t40.5 -97.5q0 -56 -40.5 -96.5t-98.5 -40.5q-57 0 -96.5 40.5t-39.5 96.5zM414 1683q0 57 39 97.5t96 40.5q58 0 97.5 -40.5t39.5 -97.5q0 -56 -39.5 -96.5t-97.5 -40.5q-56 0 -95.5 40.5t-39.5 96.5z" />
    <glyph glyph-name="Eth" unicode="&#xd0;" horiz-adv-x="1507" 
d="M78 698v84h172v449q0 30 -2 49.5t-10 35t-18.5 24.5t-32 16t-45 11t-64.5 9v62h602q154 0 281.5 -36t215.5 -99t148.5 -150t88.5 -187t28 -212q0 -176 -56 -319.5t-154.5 -238t-231.5 -145.5t-287 -51h-635v61q49 6 75 11.5t48.5 14.5t31 24.5t13 37.5t4.5 58v491h-172z
M635 1364h-143v-582h284v-84h-284v-479q0 -87 38.5 -116t133.5 -29h47q211 0 341 166.5t130 468.5q0 136 -31 251t-94.5 207t-171 144.5t-250.5 52.5z" />
    <glyph glyph-name="Ntilde" unicode="&#xd1;" horiz-adv-x="1519" 
d="M930 1534q-38 0 -80.5 19t-74 41.5t-69 41.5t-67.5 19q-44 0 -78.5 -27.5t-68.5 -87.5l-46 25q57 137 105.5 191t120.5 54q48 0 101.5 -30t103 -60t86.5 -30q44 0 78.5 27.5t68.5 88.5l45 -26q-57 -137 -105.5 -191.5t-119.5 -54.5zM1219 408v821q0 85 -36.5 110
t-166.5 37v62h469v-62q-61 -7 -91 -14t-51.5 -23.5t-26.5 -40.5t-5 -69v-1235h-74l-911 1163v-948q0 -85 36 -110.5t166 -37.5v-61h-469v61q41 5 65.5 9t46 12t32 16.5t18.5 25t10 36t2 49.5v1040q-55 73 -87 98t-89 29v62h363z" />
    <glyph glyph-name="Ograve" unicode="&#xd2;" horiz-adv-x="1449" 
d="M453 1839h252l108 -305h-53l-307 293v12zM733 55q94 0 169 53.5t122.5 145t72.5 209t25 250.5q0 101 -15 196.5t-47 181.5t-79 150.5t-115.5 102.5t-150.5 38q-125 0 -215.5 -92.5t-133 -238.5t-42.5 -326q0 -128 25 -244.5t73 -213.5t128.5 -154.5t182.5 -57.5zM715 -20
q-153 0 -278.5 58.5t-206 157t-124 226t-43.5 268.5q0 172 52 317t141.5 243.5t212.5 153t264 54.5q153 0 278 -58.5t205.5 -157t124 -226t43.5 -268.5q0 -172 -51.5 -317t-141.5 -243.5t-212.5 -153t-263.5 -54.5z" />
    <glyph glyph-name="Oacute" unicode="&#xd3;" horiz-adv-x="1449" 
d="M764 1839h250v-12l-307 -293h-54zM733 55q94 0 169 53.5t122.5 145t72.5 209t25 250.5q0 101 -15 196.5t-47 181.5t-79 150.5t-115.5 102.5t-150.5 38q-125 0 -215.5 -92.5t-133 -238.5t-42.5 -326q0 -128 25 -244.5t73 -213.5t128.5 -154.5t182.5 -57.5zM715 -20
q-153 0 -278.5 58.5t-206 157t-124 226t-43.5 268.5q0 172 52 317t141.5 243.5t212.5 153t264 54.5q153 0 278 -58.5t205.5 -157t124 -226t43.5 -268.5q0 -172 -51.5 -317t-141.5 -243.5t-212.5 -153t-263.5 -54.5z" />
    <glyph glyph-name="Ocircumflex" unicode="&#xd4;" horiz-adv-x="1449" 
d="M733 55q94 0 169 53.5t122.5 145t72.5 209t25 250.5q0 101 -15 196.5t-47 181.5t-79 150.5t-115.5 102.5t-150.5 38q-125 0 -215.5 -92.5t-133 -238.5t-42.5 -326q0 -128 25 -244.5t73 -213.5t128.5 -154.5t182.5 -57.5zM715 -20q-153 0 -278.5 58.5t-206 157t-124 226
t-43.5 268.5q0 172 52 317t141.5 243.5t212.5 153t264 54.5q153 0 278 -58.5t205.5 -157t124 -226t43.5 -268.5q0 -172 -51.5 -317t-141.5 -243.5t-212.5 -153t-263.5 -54.5zM809 1858l262 -324h-63l-281 182l-281 -182h-63l262 324h164z" />
    <glyph glyph-name="Otilde" unicode="&#xd5;" horiz-adv-x="1449" 
d="M872 1534q-38 0 -80.5 19t-73.5 41.5t-68.5 41.5t-67.5 19q-44 0 -79 -27.5t-69 -87.5l-45 25q57 137 105 191t120 54q48 0 101.5 -30t103 -60t86.5 -30q44 0 79 27.5t69 88.5l45 -26q-57 -136 -106 -191t-120 -55zM733 55q94 0 169 53.5t122.5 145t72.5 209t25 250.5
q0 101 -15 196.5t-47 181.5t-79 150.5t-115.5 102.5t-150.5 38q-125 0 -215.5 -92.5t-133 -238.5t-42.5 -326q0 -128 25 -244.5t73 -213.5t128.5 -154.5t182.5 -57.5zM715 -20q-153 0 -278.5 58.5t-206 157t-124 226t-43.5 268.5q0 172 52 317t141.5 243.5t212.5 153
t264 54.5q153 0 278 -58.5t205.5 -157t124 -226t43.5 -268.5q0 -172 -51.5 -317t-141.5 -243.5t-212.5 -153t-263.5 -54.5z" />
    <glyph glyph-name="Odieresis" unicode="&#xd6;" horiz-adv-x="1449" 
d="M391 1683q0 57 39 97.5t96 40.5q58 0 99 -40.5t41 -97.5q0 -56 -41 -96.5t-99 -40.5q-56 0 -95.5 40.5t-39.5 96.5zM791 1683q0 57 39 97.5t96 40.5q58 0 97.5 -40.5t39.5 -97.5q0 -56 -39.5 -96.5t-97.5 -40.5q-56 0 -95.5 40.5t-39.5 96.5zM733 55q94 0 169 53.5
t122.5 145t72.5 209t25 250.5q0 101 -15 196.5t-47 181.5t-79 150.5t-115.5 102.5t-150.5 38q-125 0 -215.5 -92.5t-133 -238.5t-42.5 -326q0 -128 25 -244.5t73 -213.5t128.5 -154.5t182.5 -57.5zM715 -20q-153 0 -278.5 58.5t-206 157t-124 226t-43.5 268.5q0 172 52 317
t141.5 243.5t212.5 153t264 54.5q153 0 278 -58.5t205.5 -157t124 -226t43.5 -268.5q0 -172 -51.5 -317t-141.5 -243.5t-212.5 -153t-263.5 -54.5z" />
    <glyph glyph-name="multiply" unicode="&#xd7;" horiz-adv-x="1003" 
d="M426 750l-291 288l76 78l291 -293l291 293l75 -78l-290 -288l290 -291l-75 -76l-291 293l-291 -293l-76 76z" />
    <glyph glyph-name="Oslash" unicode="&#xd8;" horiz-adv-x="1449" 
d="M715 -20q-210 0 -361 104l-131 -195l-59 41l133 197q-114 98 -174 246t-60 317q0 172 52 317t141.5 243.5t212.5 153t264 54.5q218 0 379 -119l123 183l59 -41l-127 -189q105 -99 161 -241.5t56 -302.5q0 -172 -51.5 -317t-141.5 -243.5t-212.5 -153t-263.5 -54.5z
M324 725q0 -251 84 -432l604 899q-109 190 -297 190q-125 0 -215.5 -92.5t-133 -238.5t-42.5 -326zM733 55q94 0 169 53.5t122.5 145t72.5 209t25 250.5q0 229 -73 403l-600 -893q109 -168 284 -168z" />
    <glyph glyph-name="Ugrave" unicode="&#xd9;" horiz-adv-x="1476" 
d="M516 1839h252l109 -305h-54l-307 293v12zM434 1231v-719q0 -195 89 -303.5t255 -108.5q195 0 302.5 104t107.5 322v703q0 85 -35 110t-164 37v62h465v-62q-60 -7 -90 -14t-51.5 -23.5t-27 -40.5t-5.5 -69v-740q0 -102 -26.5 -186t-74 -143t-113.5 -100t-144.5 -60.5
t-167.5 -19.5q-265 0 -412 129t-147 387v735q0 84 -30.5 107.5t-144.5 37.5v62h588v-62q-62 -7 -91.5 -13.5t-51 -23t-26.5 -40t-5 -68.5z" />
    <glyph glyph-name="Uacute" unicode="&#xda;" horiz-adv-x="1476" 
d="M827 1839h250v-12l-307 -293h-53zM434 1231v-719q0 -195 89 -303.5t255 -108.5q195 0 302.5 104t107.5 322v703q0 85 -35 110t-164 37v62h465v-62q-60 -7 -90 -14t-51.5 -23.5t-27 -40.5t-5.5 -69v-740q0 -102 -26.5 -186t-74 -143t-113.5 -100t-144.5 -60.5
t-167.5 -19.5q-265 0 -412 129t-147 387v735q0 84 -30.5 107.5t-144.5 37.5v62h588v-62q-62 -7 -91.5 -13.5t-51 -23t-26.5 -40t-5 -68.5z" />
    <glyph glyph-name="Ucircumflex" unicode="&#xdb;" horiz-adv-x="1476" 
d="M434 1231v-719q0 -195 89 -303.5t255 -108.5q195 0 302.5 104t107.5 322v703q0 85 -35 110t-164 37v62h465v-62q-60 -7 -90 -14t-51.5 -23.5t-27 -40.5t-5.5 -69v-740q0 -102 -26.5 -186t-74 -143t-113.5 -100t-144.5 -60.5t-167.5 -19.5q-265 0 -412 129t-147 387v735
q0 84 -30.5 107.5t-144.5 37.5v62h588v-62q-62 -7 -91.5 -13.5t-51 -23t-26.5 -40t-5 -68.5zM872 1858l263 -324h-64l-280 182l-281 -182h-64l263 324h163z" />
    <glyph glyph-name="Udieresis" unicode="&#xdc;" horiz-adv-x="1476" 
d="M455 1683q0 57 39 97.5t96 40.5q58 0 98.5 -40.5t40.5 -97.5q0 -56 -40.5 -96.5t-98.5 -40.5q-56 0 -95.5 40.5t-39.5 96.5zM854 1683q0 57 39 97.5t96 40.5q58 0 97.5 -40.5t39.5 -97.5q0 -56 -39.5 -96.5t-97.5 -40.5q-56 0 -95.5 40.5t-39.5 96.5zM434 1231v-719
q0 -195 89 -303.5t255 -108.5q195 0 302.5 104t107.5 322v703q0 85 -35 110t-164 37v62h465v-62q-60 -7 -90 -14t-51.5 -23.5t-27 -40.5t-5.5 -69v-740q0 -102 -26.5 -186t-74 -143t-113.5 -100t-144.5 -60.5t-167.5 -19.5q-265 0 -412 129t-147 387v735q0 84 -30.5 107.5
t-144.5 37.5v62h588v-62q-62 -7 -91.5 -13.5t-51 -23t-26.5 -40t-5 -68.5z" />
    <glyph glyph-name="Yacute" unicode="&#xdd;" horiz-adv-x="1312" 
d="M772 569v-368q0 -22 2 -38.5t9 -29.5t13 -22t21 -16.5t25 -11.5t34.5 -8.5t40 -7t48.5 -6.5v-61h-617v61q38 5 55 7.5t43.5 8t37 11t25.5 15.5t20.5 23t9.5 31.5t4 43.5v366l-412 733q-22 37 -48 52.5t-73 23.5v62h565v-62q-99 -3 -135.5 -19.5t-36.5 -56.5
q0 -36 39 -102l299 -524l289 520q37 76 37 109q0 39 -36.5 54.5t-135.5 18.5v62h408v-62q-44 -8 -72 -24.5t-49 -51.5zM735 1839h250v-12l-307 -293h-53z" />
    <glyph glyph-name="Thorn" unicode="&#xde;" horiz-adv-x="1230" 
d="M471 1231v-72h166q136 0 243.5 -33.5t173.5 -92.5t100 -134t34 -162q0 -201 -140.5 -318.5t-408.5 -117.5h-168v-74q0 -89 49.5 -119.5t200.5 -41.5v-66h-664v61q49 6 75 11.5t48.5 14.5t31 24.5t13 37.5t4.5 58v1024q0 30 -2 49.5t-10 35t-18.5 24.5t-32 16t-45 11
t-64.5 9v62h586v-62q-41 -5 -64.5 -9t-45 -11t-32 -16t-18.5 -24.5t-10 -35t-2 -49.5zM471 1085v-706h115q348 0 348 352q0 157 -88 255.5t-260 98.5h-115z" />
    <glyph glyph-name="germandbls" unicode="&#xdf;" horiz-adv-x="1304" 
d="M645 1604q177 0 286 -87t109 -217q0 -68 -30 -124.5t-72.5 -94t-85 -70t-72.5 -68.5t-30 -73q0 -15 5.5 -29t18.5 -27.5t26 -24.5t38 -26.5t43 -26t53 -30t57 -32.5q65 -39 105 -69t78.5 -73t56.5 -95.5t18 -119.5q0 -148 -109 -242.5t-263 -94.5q-201 0 -320 110
l-12 270h67q32 -142 99 -228.5t170 -86.5q90 0 139 48.5t49 135.5q0 32 -6.5 59t-23 51.5t-34 43t-50 41t-58.5 38.5t-72 42q-114 66 -163.5 123.5t-49.5 142.5q0 50 26 98.5t63.5 91.5t75 89.5t63.5 111.5t26 139q0 114 -54 180t-163 66q-119 0 -180 -92t-61 -264v-1190
h-365v59q79 5 107 23.5t28 73.5v833h-149v41l151 55v56q2 115 40 205.5t102.5 145.5t146.5 83.5t176 28.5z" />
    <glyph glyph-name="agrave" unicode="&#xe0;" horiz-adv-x="1036" 
d="M446 119q50 0 93.5 21.5t103.5 68.5v385l-215 -88q-77 -30 -114.5 -76t-37.5 -125q0 -86 43 -136t127 -50zM872 770v-543q0 -64 16.5 -94.5t57.5 -30.5q36 0 88 23l13 -37q-79 -108 -213 -108q-78 0 -126.5 48t-60.5 134q-150 -180 -323 -180q-123 0 -196 70.5t-73 189.5
q0 63 21 112t63.5 84.5t89 59.5t113.5 49l301 110v156q0 103 -41 163t-129 60q-78 0 -116 -48.5t-38 -129.5q0 -42 17 -115l-135 -18q-40 12 -63 43t-23 76q0 118 108 184t275 66q187 0 280.5 -78.5t93.5 -245.5zM233 1561h244l117 -344h-51l-310 331v13z" />
    <glyph glyph-name="aacute" unicode="&#xe1;" horiz-adv-x="1036" 
d="M446 119q50 0 93.5 21.5t103.5 68.5v385l-215 -88q-77 -30 -114.5 -76t-37.5 -125q0 -86 43 -136t127 -50zM872 770v-543q0 -64 16.5 -94.5t57.5 -30.5q36 0 88 23l13 -37q-79 -108 -213 -108q-78 0 -126.5 48t-60.5 134q-150 -180 -323 -180q-123 0 -196 70.5t-73 189.5
q0 63 21 112t63.5 84.5t89 59.5t113.5 49l301 110v156q0 103 -41 163t-129 60q-78 0 -116 -48.5t-38 -129.5q0 -42 17 -115l-135 -18q-40 12 -63 43t-23 76q0 118 108 184t275 66q187 0 280.5 -78.5t93.5 -245.5zM549 1561h242v-13l-310 -331h-51z" />
    <glyph glyph-name="acircumflex" unicode="&#xe2;" horiz-adv-x="1036" 
d="M446 119q50 0 93.5 21.5t103.5 68.5v385l-215 -88q-77 -30 -114.5 -76t-37.5 -125q0 -86 43 -136t127 -50zM872 770v-543q0 -64 16.5 -94.5t57.5 -30.5q36 0 88 23l13 -37q-79 -108 -213 -108q-78 0 -126.5 48t-60.5 134q-150 -180 -323 -180q-123 0 -196 70.5t-73 189.5
q0 63 21 112t63.5 84.5t89 59.5t113.5 49l301 110v156q0 103 -41 163t-129 60q-78 0 -116 -48.5t-38 -129.5q0 -42 17 -115l-135 -18q-40 12 -63 43t-23 76q0 118 108 184t275 66q187 0 280.5 -78.5t93.5 -245.5zM588 1567l229 -353h-67l-244 211l-244 -211h-67l229 353h164
z" />
    <glyph glyph-name="atilde" unicode="&#xe3;" horiz-adv-x="1036" 
d="M446 119q50 0 93.5 21.5t103.5 68.5v385l-215 -88q-77 -30 -114.5 -76t-37.5 -125q0 -86 43 -136t127 -50zM872 770v-543q0 -64 16.5 -94.5t57.5 -30.5q36 0 88 23l13 -37q-79 -108 -213 -108q-78 0 -126.5 48t-60.5 134q-150 -180 -323 -180q-123 0 -196 70.5t-73 189.5
q0 63 21 112t63.5 84.5t89 59.5t113.5 49l301 110v156q0 103 -41 163t-129 60q-78 0 -116 -48.5t-38 -129.5q0 -42 17 -115l-135 -18q-40 12 -63 43t-23 76q0 118 108 184t275 66q187 0 280.5 -78.5t93.5 -245.5zM629 1231q-38 0 -78 19t-68.5 41.5t-63.5 41.5t-65 19
q-43 0 -73.5 -26.5t-65.5 -88.5l-45 25q60 141 103.5 193t113.5 52q38 0 78 -19t68.5 -41.5t63.5 -41.5t65 -19q43 0 73.5 27t65.5 90l45 -24q-59 -141 -103 -194.5t-114 -53.5z" />
    <glyph glyph-name="adieresis" unicode="&#xe4;" horiz-adv-x="1036" 
d="M446 119q50 0 93.5 21.5t103.5 68.5v385l-215 -88q-77 -30 -114.5 -76t-37.5 -125q0 -86 43 -136t127 -50zM872 770v-543q0 -64 16.5 -94.5t57.5 -30.5q36 0 88 23l13 -37q-79 -108 -213 -108q-78 0 -126.5 48t-60.5 134q-150 -180 -323 -180q-123 0 -196 70.5t-73 189.5
q0 63 21 112t63.5 84.5t89 59.5t113.5 49l301 110v156q0 103 -41 163t-129 60q-78 0 -116 -48.5t-38 -129.5q0 -42 17 -115l-135 -18q-40 12 -63 43t-23 76q0 118 108 184t275 66q187 0 280.5 -78.5t93.5 -245.5zM178 1380q0 57 39 97.5t96 40.5q58 0 99 -40.5t41 -97.5
t-41 -97t-99 -40q-57 0 -96 40t-39 97zM559 1380q0 57 40 97.5t97 40.5q58 0 98 -40.5t40 -97.5t-40 -97t-98 -40q-57 0 -97 40t-40 97z" />
    <glyph glyph-name="aring" unicode="&#xe5;" horiz-adv-x="1036" 
d="M446 119q50 0 93.5 21.5t103.5 68.5v385l-215 -88q-77 -30 -114.5 -76t-37.5 -125q0 -86 43 -136t127 -50zM872 770v-543q0 -64 16.5 -94.5t57.5 -30.5q36 0 88 23l13 -37q-79 -108 -213 -108q-78 0 -126.5 48t-60.5 134q-150 -180 -323 -180q-123 0 -196 70.5t-73 189.5
q0 63 21 112t63.5 84.5t89 59.5t113.5 49l301 110v156q0 103 -41 163t-129 60q-78 0 -116 -48.5t-38 -129.5q0 -42 17 -115l-135 -18q-40 12 -63 43t-23 76q0 118 108 184t275 66q187 0 280.5 -78.5t93.5 -245.5zM397 1348q0 -51 29 -83t80 -32t79.5 32t28.5 83t-28.5 83.5
t-79.5 32.5t-80 -32.5t-29 -83.5zM322 1348q0 78 52.5 131t131.5 53t131.5 -53t52.5 -131t-52.5 -130.5t-131.5 -52.5t-131.5 52.5t-52.5 130.5z" />
    <glyph glyph-name="ae" unicode="&#xe6;" horiz-adv-x="1527" 
d="M1081 1094q190 0 295 -118t105 -304v-45h-666q-7 -227 88.5 -355.5t257.5 -128.5q102 0 174.5 43.5t128.5 130.5l29 -14q-40 -147 -149 -235t-271 -88q-123 0 -218 50.5t-155 141.5q-158 -190 -374 -190q-124 0 -197.5 70.5t-73.5 189.5q0 63 21 112t63.5 84.5t89 59.5
t113.5 49l279 96q8 48 24 100q0 131 -44.5 212t-137.5 81q-71 0 -107.5 -49t-36.5 -129q0 -42 17 -115l-135 -18q-40 12 -63 43t-23 76q0 117 104.5 183.5t259.5 66.5q101 0 176 -35t115 -101q130 136 311 136zM451 119q112 0 227 92q-68 133 -68 297q0 44 2 67l-180 -67
q-79 -31 -117.5 -77t-38.5 -126q0 -86 44 -136t131 -50zM1063 1024q-105 0 -166.5 -91.5t-75.5 -238.5h447q0 150 -50 240t-155 90z" />
    <glyph glyph-name="ccedilla" unicode="&#xe7;" horiz-adv-x="931" 
d="M295 -457l-12 58q108 0 170.5 29.5t62.5 76.5q0 43 -42.5 63t-131.5 23l78 195q-169 30 -271 167.5t-102 344.5q0 259 140.5 426.5t371.5 167.5q148 0 235 -60t87 -166q0 -43 -20 -78t-52 -53h-135q8 54 8 92q0 195 -160 195q-125 0 -198.5 -119.5t-73.5 -302.5
q0 -205 90.5 -328.5t245.5 -123.5q186 0 293 161l30 -14q-47 -155 -150 -236t-251 -81q-21 0 -31 2l-31 -76q98 -2 153.5 -41t55.5 -115q0 -103 -99 -155t-261 -52z" />
    <glyph glyph-name="egrave" unicode="&#xe8;" horiz-adv-x="976" 
d="M530 1094q191 0 295.5 -115.5t104.5 -300.5v-43h-674q-9 -228 91 -360t261 -132q103 0 176 43.5t131 130.5l27 -14q-38 -147 -146.5 -235t-271.5 -88q-144 0 -253 69.5t-165.5 188.5t-56.5 270q0 168 63.5 302.5t173 209t244.5 74.5zM512 1024q-107 0 -172.5 -90
t-77.5 -234h455q0 150 -50 237t-155 87zM276 1561h244l117 -344h-51l-310 331v13z" />
    <glyph glyph-name="eacute" unicode="&#xe9;" horiz-adv-x="976" 
d="M592 1561h242v-13l-310 -331h-51zM530 1094q191 0 295.5 -115.5t104.5 -300.5v-43h-674q-9 -228 91 -360t261 -132q103 0 176 43.5t131 130.5l27 -14q-38 -147 -146.5 -235t-271.5 -88q-144 0 -253 69.5t-165.5 188.5t-56.5 270q0 168 63.5 302.5t173 209t244.5 74.5z
M512 1024q-107 0 -172.5 -90t-77.5 -234h455q0 150 -50 237t-155 87z" />
    <glyph glyph-name="ecircumflex" unicode="&#xea;" horiz-adv-x="976" 
d="M623 1567l229 -353h-68l-243 211l-244 -211h-68l230 353h164zM530 1094q191 0 295.5 -115.5t104.5 -300.5v-43h-674q-9 -228 91 -360t261 -132q103 0 176 43.5t131 130.5l27 -14q-38 -147 -146.5 -235t-271.5 -88q-144 0 -253 69.5t-165.5 188.5t-56.5 270
q0 168 63.5 302.5t173 209t244.5 74.5zM512 1024q-107 0 -172.5 -90t-77.5 -234h455q0 150 -50 237t-155 87z" />
    <glyph glyph-name="edieresis" unicode="&#xeb;" horiz-adv-x="976" 
d="M213 1380q0 57 39 97.5t96 40.5q58 0 98.5 -40.5t40.5 -97.5t-40.5 -97t-98.5 -40q-57 0 -96 40t-39 97zM594 1380q0 57 40 97.5t97 40.5q58 0 97.5 -40.5t39.5 -97.5t-39.5 -97t-97.5 -40q-57 0 -97 40t-40 97zM530 1094q191 0 295.5 -115.5t104.5 -300.5v-43h-674
q-9 -228 91 -360t261 -132q103 0 176 43.5t131 130.5l27 -14q-38 -147 -146.5 -235t-271.5 -88q-144 0 -253 69.5t-165.5 188.5t-56.5 270q0 168 63.5 302.5t173 209t244.5 74.5zM512 1024q-107 0 -172.5 -90t-77.5 -234h455q0 150 -50 237t-155 87z" />
    <glyph glyph-name="igrave" unicode="&#xec;" horiz-adv-x="573" 
d="M408 1094v-938q0 -55 28 -73.5t107 -23.5v-59h-500v59q79 5 107 23.5t28 73.5v731l-129 71v29l326 107h33zM23 1561h243l117 -344h-51l-309 331v13z" />
    <glyph glyph-name="iacute" unicode="&#xed;" horiz-adv-x="573" 
d="M338 1561h242v-13l-310 -331h-51zM408 1094v-938q0 -55 28 -73.5t107 -23.5v-59h-500v59q79 5 107 23.5t28 73.5v731l-129 71v29l326 107h33z" />
    <glyph glyph-name="icircumflex" unicode="&#xee;" horiz-adv-x="573" 
d="M360 1567l209 -355h-61l-221 213l-221 -213h-60l207 355h147zM408 1094v-938q0 -55 28 -73.5t107 -23.5v-59h-500v59q79 5 107 23.5t28 73.5v731l-129 71v29l326 107h33z" />
    <glyph glyph-name="idieresis" unicode="&#xef;" horiz-adv-x="573" 
d="M-31 1380q0 57 39.5 97.5t95.5 40.5q58 0 99 -40.5t41 -97.5t-41 -97t-99 -40q-56 0 -95.5 40t-39.5 97zM334 1380q0 57 40 97.5t97 40.5q58 0 97.5 -40.5t39.5 -97.5t-39.5 -97t-97.5 -40q-57 0 -97 40t-40 97zM408 1094v-938q0 -55 28 -73.5t107 -23.5v-59h-500v59
q79 5 107 23.5t28 73.5v731l-129 71v29l326 107h33z" />
    <glyph glyph-name="eth" unicode="&#xf0;" horiz-adv-x="1099" 
d="M238 1200l-23 64l307 112q-129 123 -295 178l29 52q209 -56 389 -185l219 80l25 -65l-178 -66q167 -143 254.5 -336t87.5 -405q0 -293 -136 -471t-362 -178q-229 0 -368.5 149.5t-139.5 392.5q0 128 40.5 236.5t108.5 181t156.5 113.5t184.5 41q155 0 241 -127
q-62 200 -203 356zM557 47q123 0 188.5 123t65.5 332q0 148 -27.5 263.5t-88 188t-148.5 72.5q-123 0 -189.5 -123t-66.5 -332q0 -109 16.5 -202.5t48 -166t83.5 -114t118 -41.5z" />
    <glyph glyph-name="ntilde" unicode="&#xf1;" horiz-adv-x="1224" 
d="M838 156v598q0 102 -42 150t-130 48q-124 0 -258 -106v-690q0 -55 27.5 -73.5t105.5 -23.5v-59h-498v59q79 5 107 23.5t28 73.5v731l-129 71v29l332 107h35l-8 -197q174 197 374 197q285 0 285 -330v-608q0 -55 28 -73.5t107 -23.5v-59h-500v59q80 5 108 23.5t28 73.5z
M762 1231q-38 0 -78 19t-68.5 41.5t-63.5 41.5t-65 19q-43 0 -73.5 -26.5t-65.5 -88.5l-45 25q60 141 103.5 193t113.5 52q38 0 78 -19t68.5 -41.5t63.5 -41.5t65 -19q43 0 73.5 27t65.5 90l45 -24q-59 -141 -103 -194.5t-114 -53.5z" />
    <glyph glyph-name="ograve" unicode="&#xf2;" horiz-adv-x="1099" 
d="M555 47q123 0 189.5 123t66.5 332q0 148 -27.5 263.5t-88.5 188t-150 72.5q-123 0 -188.5 -123t-65.5 -332q0 -147 27 -262.5t88 -188.5t149 -73zM545 -20q-224 0 -361 146.5t-137 385.5q0 129 39 238.5t107 184.5t161.5 117t200.5 42q224 0 361 -147t137 -384
q0 -260 -144.5 -421.5t-363.5 -161.5zM279 1561h243l117 -344h-51l-309 331v13z" />
    <glyph glyph-name="oacute" unicode="&#xf3;" horiz-adv-x="1099" 
d="M596 1561h242v-13l-310 -331h-51zM555 47q123 0 189.5 123t66.5 332q0 148 -27.5 263.5t-88.5 188t-150 72.5q-123 0 -188.5 -123t-65.5 -332q0 -147 27 -262.5t88 -188.5t149 -73zM545 -20q-224 0 -361 146.5t-137 385.5q0 129 39 238.5t107 184.5t161.5 117t200.5 42
q224 0 361 -147t137 -384q0 -260 -144.5 -421.5t-363.5 -161.5z" />
    <glyph glyph-name="ocircumflex" unicode="&#xf4;" horiz-adv-x="1099" 
d="M633 1567l229 -353h-67l-244 211l-244 -211h-67l229 353h164zM555 47q123 0 189.5 123t66.5 332q0 148 -27.5 263.5t-88.5 188t-150 72.5q-123 0 -188.5 -123t-65.5 -332q0 -147 27 -262.5t88 -188.5t149 -73zM545 -20q-224 0 -361 146.5t-137 385.5q0 129 39 238.5
t107 184.5t161.5 117t200.5 42q224 0 361 -147t137 -384q0 -260 -144.5 -421.5t-363.5 -161.5z" />
    <glyph glyph-name="otilde" unicode="&#xf5;" horiz-adv-x="1099" 
d="M555 47q123 0 189.5 123t66.5 332q0 148 -27.5 263.5t-88.5 188t-150 72.5q-123 0 -188.5 -123t-65.5 -332q0 -147 27 -262.5t88 -188.5t149 -73zM545 -20q-224 0 -361 146.5t-137 385.5q0 129 39 238.5t107 184.5t161.5 117t200.5 42q224 0 361 -147t137 -384
q0 -260 -144.5 -421.5t-363.5 -161.5zM684 1231q-38 0 -78 19t-68 41.5t-63 41.5t-65 19q-43 0 -74 -26.5t-66 -88.5l-45 25q60 141 103.5 193t113.5 52q38 0 78 -19t68.5 -41.5t63.5 -41.5t65 -19q43 0 73.5 27t65.5 90l45 -24q-59 -141 -103 -194.5t-114 -53.5z" />
    <glyph glyph-name="odieresis" unicode="&#xf6;" horiz-adv-x="1099" 
d="M223 1380q0 57 39 97.5t96 40.5q58 0 99 -40.5t41 -97.5t-41 -97t-99 -40q-57 0 -96 40t-39 97zM604 1380q0 57 40 97.5t97 40.5q58 0 98 -40.5t40 -97.5t-40 -97t-98 -40q-57 0 -97 40t-40 97zM555 47q123 0 189.5 123t66.5 332q0 148 -27.5 263.5t-88.5 188t-150 72.5
q-123 0 -188.5 -123t-65.5 -332q0 -147 27 -262.5t88 -188.5t149 -73zM545 -20q-224 0 -361 146.5t-137 385.5q0 129 39 238.5t107 184.5t161.5 117t200.5 42q224 0 361 -147t137 -384q0 -260 -144.5 -421.5t-363.5 -161.5z" />
    <glyph glyph-name="divide" unicode="&#xf7;" horiz-adv-x="1159" 
d="M131 702v115h899v-115h-899zM469 422q0 46 31.5 77t77.5 31t78 -31t32 -77t-32 -78.5t-78 -32.5t-77.5 32.5t-31.5 78.5zM469 1098q0 44 31.5 76t77.5 32t78 -32t32 -76q0 -46 -32 -78.5t-78 -32.5t-77.5 32.5t-31.5 78.5z" />
    <glyph glyph-name="oslash" unicode="&#xf8;" horiz-adv-x="1099" 
d="M545 -20q-157 0 -275 73l-100 -153l-57 34l104 158q-170 147 -170 420q0 129 39 238.5t107 184.5t161.5 117t200.5 42q152 0 272 -74l105 158l57 -35l-108 -164q82 -69 127 -177t45 -239q0 -260 -144.5 -421.5t-363.5 -161.5zM555 47q123 0 189.5 123t66.5 332
q0 176 -41 307l-410 -621q69 -141 195 -141zM291 571q0 -181 39 -305l409 621q-69 139 -194 139q-123 0 -188.5 -123t-65.5 -332z" />
    <glyph glyph-name="ugrave" unicode="&#xf9;" horiz-adv-x="1175" 
d="M1010 866v-659q0 -56 14 -73t76 -23l53 -5v-53l-338 -73h-41l8 194q-87 -91 -169 -142.5t-185 -51.5q-138 0 -212.5 79.5t-74.5 245.5v551q0 56 -20 78.5t-84 32.5l-33 4v55l342 66h33l-10 -234v-516q0 -219 172 -219q65 0 119 25t122 73v635q0 56 -19.5 78.5t-84.5 32.5
l-31 4v55l338 66h33zM311 1561h244l117 -344h-51l-310 331v13z" />
    <glyph glyph-name="uacute" unicode="&#xfa;" horiz-adv-x="1175" 
d="M629 1561h241v-13l-309 -331h-51zM1010 866v-659q0 -56 14 -73t76 -23l53 -5v-53l-338 -73h-41l8 194q-87 -91 -169 -142.5t-185 -51.5q-138 0 -212.5 79.5t-74.5 245.5v551q0 56 -20 78.5t-84 32.5l-33 4v55l342 66h33l-10 -234v-516q0 -219 172 -219q65 0 119 25
t122 73v635q0 56 -19.5 78.5t-84.5 32.5l-31 4v55l338 66h33z" />
    <glyph glyph-name="ucircumflex" unicode="&#xfb;" horiz-adv-x="1175" 
d="M666 1567l229 -353h-68l-243 211l-244 -211h-68l230 353h164zM1010 866v-659q0 -56 14 -73t76 -23l53 -5v-53l-338 -73h-41l8 194q-87 -91 -169 -142.5t-185 -51.5q-138 0 -212.5 79.5t-74.5 245.5v551q0 56 -20 78.5t-84 32.5l-33 4v55l342 66h33l-10 -234v-516
q0 -219 172 -219q65 0 119 25t122 73v635q0 56 -19.5 78.5t-84.5 32.5l-31 4v55l338 66h33z" />
    <glyph glyph-name="udieresis" unicode="&#xfc;" horiz-adv-x="1175" 
d="M256 1380q0 57 39 97.5t96 40.5q58 0 98.5 -40.5t40.5 -97.5t-40.5 -97t-98.5 -40q-57 0 -96 40t-39 97zM637 1380q0 57 40 97.5t97 40.5q58 0 97.5 -40.5t39.5 -97.5t-39.5 -97t-97.5 -40q-57 0 -97 40t-40 97zM1010 866v-659q0 -56 14 -73t76 -23l53 -5v-53l-338 -73
h-41l8 194q-87 -91 -169 -142.5t-185 -51.5q-138 0 -212.5 79.5t-74.5 245.5v551q0 56 -20 78.5t-84 32.5l-33 4v55l342 66h33l-10 -234v-516q0 -219 172 -219q65 0 119 25t122 73v635q0 56 -19.5 78.5t-84.5 32.5l-31 4v55l338 66h33z" />
    <glyph glyph-name="yacute" unicode="&#xfd;" horiz-adv-x="1110" 
d="M645 233l244 656q12 37 12 57q0 33 -28.5 45.5t-112.5 22.5v59h340v-59q-53 -13 -72.5 -28t-32.5 -48l-442 -1143q-49 -126 -105.5 -185t-148.5 -59q-51 0 -95 27.5t-57 71.5v80q74 -19 127 -19q89 0 141.5 33.5t86.5 124.5l37 98l-424 971q-14 34 -33 48.5t-72 27.5v59
h500v-59q-84 -10 -112.5 -22.5t-28.5 -45.5q0 -20 12 -57zM653 1561h242v-13l-309 -331h-51z" />
    <glyph glyph-name="thorn" unicode="&#xfe;" horiz-adv-x="1175" 
d="M897 510q0 93 -17.5 171t-53 139.5t-95 96.5t-137.5 35q-60 0 -118 -26t-97 -68v-563q0 -248 211 -248q139 0 223 131.5t84 331.5zM150 -279v1682l-130 70v30l324 101h35v-697q131 187 344 187q190 0 297.5 -132t107.5 -362q0 -143 -41.5 -260.5t-113 -196t-168 -121
t-207.5 -42.5q-142 0 -219 65v-317q0 -59 34 -77t142 -26v-59h-541v59q80 5 108 23t28 73z" />
    <glyph glyph-name="ydieresis" unicode="&#xff;" horiz-adv-x="1110" 
d="M645 233l244 656q12 37 12 57q0 33 -28.5 45.5t-112.5 22.5v59h340v-59q-53 -13 -72.5 -28t-32.5 -48l-442 -1143q-49 -126 -105.5 -185t-148.5 -59q-51 0 -95 27.5t-57 71.5v80q74 -19 127 -19q89 0 141.5 33.5t86.5 124.5l37 98l-424 971q-14 34 -33 48.5t-72 27.5v59
h500v-59q-84 -10 -112.5 -22.5t-28.5 -45.5q0 -20 12 -57zM281 1380q0 57 39 97.5t96 40.5q58 0 98.5 -40.5t40.5 -97.5t-40.5 -97t-98.5 -40q-57 0 -96 40t-39 97zM662 1380q0 57 40 97.5t97 40.5q58 0 97.5 -40.5t39.5 -97.5t-39.5 -97t-97.5 -40q-57 0 -97 40t-40 97z
" />
    <glyph glyph-name="Amacron" unicode="&#x100;" horiz-adv-x="1456" 
d="M1034 233l-104 256h-572l-98 -256q-20 -48 -20 -79q0 -47 41 -67.5t141 -25.5v-61h-412v61q34 6 53.5 12t39 22t28.5 42l461 1172l-62 143h258l537 -1315q14 -36 42.5 -51.5t78.5 -24.5v-61h-572v61q97 3 138 23.5t41 67.5q0 32 -19 81zM639 1208l-250 -643h510z
M401 1573v119h582v-119h-582z" />
    <glyph glyph-name="amacron" unicode="&#x101;" horiz-adv-x="1036" 
d="M446 119q50 0 93.5 21.5t103.5 68.5v385l-215 -88q-77 -30 -114.5 -76t-37.5 -125q0 -86 43 -136t127 -50zM872 770v-543q0 -64 16.5 -94.5t57.5 -30.5q36 0 88 23l13 -37q-79 -108 -213 -108q-78 0 -126.5 48t-60.5 134q-150 -180 -323 -180q-123 0 -196 70.5t-73 189.5
q0 63 21 112t63.5 84.5t89 59.5t113.5 49l301 110v156q0 103 -41 163t-129 60q-78 0 -116 -48.5t-38 -129.5q0 -42 17 -115l-135 -18q-40 12 -63 43t-23 76q0 118 108 184t275 66q187 0 280.5 -78.5t93.5 -245.5zM240 1276v119h530v-119h-530z" />
    <glyph glyph-name="Abreve" unicode="&#x102;" horiz-adv-x="1456" 
d="M1034 233l-104 256h-572l-98 -256q-20 -48 -20 -79q0 -47 41 -67.5t141 -25.5v-61h-412v61q34 6 53.5 12t39 22t28.5 42l461 1172l-62 143h258l537 -1315q14 -36 42.5 -51.5t78.5 -24.5v-61h-572v61q97 3 138 23.5t41 67.5q0 32 -19 81zM639 1208l-250 -643h510z
M694 1528q-137 0 -215 81.5t-78 239.5h64q26 -178 229 -178q204 0 230 178h61q0 -158 -77 -239.5t-214 -81.5z" />
    <glyph glyph-name="abreve" unicode="&#x103;" horiz-adv-x="1036" 
d="M446 119q50 0 93.5 21.5t103.5 68.5v385l-215 -88q-77 -30 -114.5 -76t-37.5 -125q0 -86 43 -136t127 -50zM872 770v-543q0 -64 16.5 -94.5t57.5 -30.5q36 0 88 23l13 -37q-79 -108 -213 -108q-78 0 -126.5 48t-60.5 134q-150 -180 -323 -180q-123 0 -196 70.5t-73 189.5
q0 63 21 112t63.5 84.5t89 59.5t113.5 49l301 110v156q0 103 -41 163t-129 60q-78 0 -116 -48.5t-38 -129.5q0 -42 17 -115l-135 -18q-40 12 -63 43t-23 76q0 118 108 184t275 66q187 0 280.5 -78.5t93.5 -245.5zM506 1221q-131 0 -199.5 83.5t-68.5 245.5h67
q16 -186 201 -186q183 0 199 186h67q0 -162 -68 -245.5t-198 -83.5z" />
    <glyph glyph-name="Aogonek" unicode="&#x104;" horiz-adv-x="1456" 
d="M639 1208l-252 -643h510zM905 35q85 23 117.5 46t32.5 69q0 27 -21 81l-106 258h-568l-100 -256q-20 -48 -20 -79q0 -47 41 -67.5t141 -25.5v-61h-412v61q34 6 53.5 12t39 22t28.5 42l461 1172l-62 143h258l537 -1315q14 -36 42.5 -51.5t78.5 -24.5v-61h-490
q-101 -17 -161 -75.5t-60 -143.5q0 -50 25.5 -79.5t75.5 -29.5q45 0 81 16t80 54l23 -27q-115 -147 -256 -147q-80 0 -130 47t-50 125q0 208 321 295z" />
    <glyph glyph-name="aogonek" unicode="&#x105;" horiz-adv-x="1036" 
d="M872 770v-543q0 -64 16.5 -94.5t57.5 -30.5q36 0 88 23l13 -37q-28 -24 -76 -50.5t-89 -49t-80 -51t-62 -68.5t-23 -90q0 -48 24.5 -77.5t73.5 -29.5q48 0 84 16t80 54l25 -27q-115 -147 -261 -147q-79 0 -128.5 46t-49.5 120q0 81 59 140.5t164 109.5q-56 18 -94 64.5
t-47 113.5q-150 -180 -323 -180q-123 0 -196 70.5t-73 189.5q0 63 21 112t63.5 84.5t89 59.5t113.5 49l301 110v156q0 103 -41 163t-129 60q-78 0 -116 -48.5t-38 -129.5q0 -42 17 -115l-135 -18q-40 12 -63 43t-23 76q0 118 108 184t275 66q187 0 280.5 -78.5t93.5 -245.5z
M446 119q50 0 93.5 21.5t103.5 68.5v385l-215 -88q-77 -30 -114.5 -76t-37.5 -125q0 -86 43 -136t127 -50z" />
    <glyph glyph-name="Cacute" unicode="&#x106;" horiz-adv-x="1312" 
d="M762 1458q260 0 446 -121l2 -313h-65q-35 177 -131 267.5t-250 90.5q-108 0 -193.5 -50.5t-138.5 -138.5t-80.5 -202.5t-27.5 -247.5q0 -194 51.5 -347.5t157 -246t249.5 -92.5q157 0 255 98t147 314h71l-28 -373q-190 -116 -457 -116q-323 0 -515 194.5t-192 511.5
q0 173 53.5 318.5t147 244.5t222 154t276.5 55zM815 1839h250v-12l-307 -293h-53z" />
    <glyph glyph-name="cacute" unicode="&#x107;" horiz-adv-x="931" 
d="M592 1561h242v-13l-310 -331h-51zM250 602q0 -205 90.5 -328.5t245.5 -123.5q186 0 293 161l30 -14q-47 -155 -150 -236t-251 -81q-204 0 -332.5 143.5t-128.5 376.5q0 259 140.5 426.5t371.5 167.5q148 0 235 -60t87 -166q0 -43 -20 -78t-52 -53h-135q8 54 8 92
q0 195 -160 195q-125 0 -198.5 -119.5t-73.5 -302.5z" />
    <glyph glyph-name="Ccircumflex" unicode="&#x108;" horiz-adv-x="1312" 
d="M762 1458q260 0 446 -121l2 -313h-65q-35 177 -131 267.5t-250 90.5q-108 0 -193.5 -50.5t-138.5 -138.5t-80.5 -202.5t-27.5 -247.5q0 -194 51.5 -347.5t157 -246t249.5 -92.5q157 0 255 98t147 314h71l-28 -373q-190 -116 -457 -116q-323 0 -515 194.5t-192 511.5
q0 173 53.5 318.5t147 244.5t222 154t276.5 55zM860 1858l262 -324h-63l-281 182l-280 -182h-64l262 324h164z" />
    <glyph glyph-name="ccircumflex" unicode="&#x109;" horiz-adv-x="931" 
d="M627 1567l229 -353h-68l-243 211l-244 -211h-68l230 353h164zM250 602q0 -205 90.5 -328.5t245.5 -123.5q186 0 293 161l30 -14q-47 -155 -150 -236t-251 -81q-204 0 -332.5 143.5t-128.5 376.5q0 259 140.5 426.5t371.5 167.5q148 0 235 -60t87 -166q0 -43 -20 -78
t-52 -53h-135q8 54 8 92q0 195 -160 195q-125 0 -198.5 -119.5t-73.5 -302.5z" />
    <glyph glyph-name="Cdotaccent" unicode="&#x10a;" horiz-adv-x="1312" 
d="M778 1542q-62 0 -103.5 42.5t-41.5 103.5q0 59 41.5 101t103.5 42q64 0 106 -42t42 -101q0 -61 -42 -103.5t-106 -42.5zM762 1458q260 0 446 -121l2 -313h-65q-35 177 -131 267.5t-250 90.5q-108 0 -193.5 -50.5t-138.5 -138.5t-80.5 -202.5t-27.5 -247.5
q0 -194 51.5 -347.5t157 -246t249.5 -92.5q157 0 255 98t147 314h71l-28 -373q-190 -116 -457 -116q-323 0 -515 194.5t-192 511.5q0 173 53.5 318.5t147 244.5t222 154t276.5 55z" />
    <glyph glyph-name="cdotaccent" unicode="&#x10b;" horiz-adv-x="931" 
d="M250 602q0 -205 90.5 -328.5t245.5 -123.5q186 0 293 161l30 -14q-47 -155 -150 -236t-251 -81q-204 0 -332.5 143.5t-128.5 376.5q0 259 140.5 426.5t371.5 167.5q148 0 235 -60t87 -166q0 -43 -20 -78t-52 -53h-135q8 54 8 92q0 195 -160 195q-125 0 -198.5 -119.5
t-73.5 -302.5zM545 1239q-62 0 -104 43t-42 102q0 60 42 103t104 43q63 0 105 -43t42 -103t-42 -102.5t-105 -42.5z" />
    <glyph glyph-name="Ccaron" unicode="&#x10c;" horiz-adv-x="1312" 
d="M762 1458q260 0 446 -121l2 -313h-65q-35 177 -131 267.5t-250 90.5q-108 0 -193.5 -50.5t-138.5 -138.5t-80.5 -202.5t-27.5 -247.5q0 -194 51.5 -347.5t157 -246t249.5 -92.5q157 0 255 98t147 314h71l-28 -373q-190 -116 -457 -116q-323 0 -515 194.5t-192 511.5
q0 173 53.5 318.5t147 244.5t222 154t276.5 55zM1122 1858l-262 -324h-164l-262 324h64l280 -183l281 183h63z" />
    <glyph glyph-name="ccaron" unicode="&#x10d;" horiz-adv-x="931" 
d="M858 1571l-229 -352h-164l-229 352h67l244 -211l244 211h67zM250 602q0 -205 90.5 -328.5t245.5 -123.5q186 0 293 161l30 -14q-47 -155 -150 -236t-251 -81q-204 0 -332.5 143.5t-128.5 376.5q0 259 140.5 426.5t371.5 167.5q148 0 235 -60t87 -166q0 -43 -20 -78
t-52 -53h-135q8 54 8 92q0 195 -160 195q-125 0 -198.5 -119.5t-73.5 -302.5z" />
    <glyph glyph-name="Dcaron" unicode="&#x10e;" horiz-adv-x="1486" 
d="M1030 1858l-262 -324h-164l-262 324h64l280 -183l281 183h63zM614 1364h-143v-1145q0 -87 38.5 -116t133.5 -29h47q211 0 341 166.5t130 468.5q0 136 -31 251t-94.5 207t-171 144.5t-250.5 52.5zM692 0h-635v61q49 6 75 11.5t48.5 14.5t31 24.5t13 37.5t4.5 58v1024
q0 30 -2 49.5t-10 35t-18.5 24.5t-32 16t-45 11t-64.5 9v62h602q154 0 281.5 -36t215.5 -99t148.5 -150t88.5 -187t28 -212q0 -176 -56 -319.5t-154.5 -238t-231.5 -145.5t-287 -51z" />
    <glyph glyph-name="dcaron" unicode="&#x10f;" horiz-adv-x="1183" 
d="M1354 1591l-219 -407h-35l37 420h217v-13zM571 1022q-139 0 -221 -122.5t-82 -324.5q0 -194 82 -318t230 -124q127 0 208 84v524q0 131 -59 206t-158 75zM788 1403l-129 70v30l326 101h33v-1397q0 -56 14 -73t76 -23l53 -5v-53l-340 -73h-41l8 190q-138 -190 -329 -190
q-186 0 -299 139.5t-113 365.5q0 278 144 442.5t366 164.5q149 0 231 -76v387z" />
    <glyph glyph-name="Dcroat" unicode="&#x110;" horiz-adv-x="1507" 
d="M78 698v84h172v449q0 30 -2 49.5t-10 35t-18.5 24.5t-32 16t-45 11t-64.5 9v62h602q154 0 281.5 -36t215.5 -99t148.5 -150t88.5 -187t28 -212q0 -176 -56 -319.5t-154.5 -238t-231.5 -145.5t-287 -51h-635v61q49 6 75 11.5t48.5 14.5t31 24.5t13 37.5t4.5 58v491h-172z
M635 1364h-143v-582h284v-84h-284v-479q0 -87 38.5 -116t133.5 -29h47q211 0 341 166.5t130 468.5q0 136 -31 251t-94.5 207t-171 144.5t-250.5 52.5z" />
    <glyph glyph-name="dcroat" unicode="&#x111;" horiz-adv-x="1183" 
d="M788 1403l-129 70v30l326 101h33v-312h143v-75h-143v-1010q0 -56 14 -73t76 -23l53 -5v-53l-340 -73h-41l8 190q-138 -190 -329 -190q-186 0 -299 139.5t-113 365.5q0 278 144 442.5t366 164.5q149 0 231 -76v201h-258v75h258v111zM571 1022q-139 0 -221 -122.5
t-82 -324.5q0 -194 82 -318t230 -124q127 0 208 84v524q0 131 -59 206t-158 75z" />
    <glyph glyph-name="Emacron" unicode="&#x112;" horiz-adv-x="1275" 
d="M387 1573v119h582v-119h-582zM57 0v61q49 6 75 11.5t48.5 14.5t31 24.5t13 37.5t4.5 58v1024q0 30 -2 49.5t-10 35t-18.5 24.5t-32 16t-45 11t-64.5 9v62h1094l10 -355h-49q-72 167 -135 224t-176 57h-330v-584h295q65 0 96 43.5t47 143.5h64v-449h-64q-16 99 -47 141.5
t-96 42.5h-295v-489q0 -81 44 -110t149 -29h159q58 0 101.5 15.5t85.5 57.5t77 94t89 146h59l-64 -387h-1114z" />
    <glyph glyph-name="emacron" unicode="&#x113;" horiz-adv-x="976" 
d="M530 1094q191 0 295.5 -115.5t104.5 -300.5v-43h-674q-9 -228 91 -360t261 -132q103 0 176 43.5t131 130.5l27 -14q-38 -147 -146.5 -235t-271.5 -88q-144 0 -253 69.5t-165.5 188.5t-56.5 270q0 168 63.5 302.5t173 209t244.5 74.5zM512 1024q-107 0 -172.5 -90
t-77.5 -234h455q0 150 -50 237t-155 87zM266 1276v119h531v-119h-531z" />
    <glyph glyph-name="Ebreve" unicode="&#x114;" horiz-adv-x="1275" 
d="M680 1528q-137 0 -215 81.5t-78 239.5h64q26 -178 229 -178t229 178h62q0 -158 -77 -239.5t-214 -81.5zM57 0v61q49 6 75 11.5t48.5 14.5t31 24.5t13 37.5t4.5 58v1024q0 30 -2 49.5t-10 35t-18.5 24.5t-32 16t-45 11t-64.5 9v62h1094l10 -355h-49q-72 167 -135 224
t-176 57h-330v-584h295q65 0 96 43.5t47 143.5h64v-449h-64q-16 99 -47 141.5t-96 42.5h-295v-489q0 -81 44 -110t149 -29h159q58 0 101.5 15.5t85.5 57.5t77 94t89 146h59l-64 -387h-1114z" />
    <glyph glyph-name="ebreve" unicode="&#x115;" horiz-adv-x="976" 
d="M530 1094q191 0 295.5 -115.5t104.5 -300.5v-43h-674q-9 -228 91 -360t261 -132q103 0 176 43.5t131 130.5l27 -14q-38 -147 -146.5 -235t-271.5 -88q-144 0 -253 69.5t-165.5 188.5t-56.5 270q0 168 63.5 302.5t173 209t244.5 74.5zM512 1024q-107 0 -172.5 -90
t-77.5 -234h455q0 150 -50 237t-155 87zM549 1221q-131 0 -199.5 83.5t-68.5 245.5h67q16 -186 201 -186q183 0 199 186h67q0 -162 -68 -245.5t-198 -83.5z" />
    <glyph glyph-name="Edotaccent" unicode="&#x116;" horiz-adv-x="1275" 
d="M678 1542q-62 0 -104 42.5t-42 103.5q0 59 42 101t104 42q64 0 105.5 -41.5t41.5 -101.5q0 -61 -41.5 -103.5t-105.5 -42.5zM57 0v61q49 6 75 11.5t48.5 14.5t31 24.5t13 37.5t4.5 58v1024q0 30 -2 49.5t-10 35t-18.5 24.5t-32 16t-45 11t-64.5 9v62h1094l10 -355h-49
q-72 167 -135 224t-176 57h-330v-584h295q65 0 96 43.5t47 143.5h64v-449h-64q-16 99 -47 141.5t-96 42.5h-295v-489q0 -81 44 -110t149 -29h159q58 0 101.5 15.5t85.5 57.5t77 94t89 146h59l-64 -387h-1114z" />
    <glyph glyph-name="edotaccent" unicode="&#x117;" horiz-adv-x="976" 
d="M530 1094q191 0 295.5 -115.5t104.5 -300.5v-43h-674q-9 -228 91 -360t261 -132q103 0 176 43.5t131 130.5l27 -14q-38 -147 -146.5 -235t-271.5 -88q-144 0 -253 69.5t-165.5 188.5t-56.5 270q0 168 63.5 302.5t173 209t244.5 74.5zM512 1024q-107 0 -172.5 -90
t-77.5 -234h455q0 150 -50 237t-155 87zM535 1239q-62 0 -104 43t-42 102q0 60 42 103t104 43q63 0 105 -43t42 -103t-42 -102.5t-105 -42.5z" />
    <glyph glyph-name="Eogonek" unicode="&#x118;" horiz-adv-x="1275" 
d="M57 0v61q49 6 75 11.5t48.5 14.5t31 24.5t13 37.5t4.5 58v1024q0 30 -2 49.5t-10 35t-18.5 24.5t-32 16t-45 11t-64.5 9v62h1094l10 -355h-49q-72 167 -135 224t-176 57h-330v-584h295q65 0 96 43.5t47 143.5h64v-449h-64q-16 99 -47 141.5t-96 42.5h-295v-489
q0 -81 44 -110t149 -29h159q58 0 101.5 15.5t85.5 57.5t77 94t89 146h59l-64 -387h-198q-187 -90 -187 -221q0 -48 25.5 -77.5t75.5 -29.5q46 0 82 16t82 54l22 -27q-115 -147 -260 -147q-79 0 -128.5 46t-49.5 120q0 89 66.5 152.5t183.5 113.5h-828z" />
    <glyph glyph-name="eogonek" unicode="&#x119;" horiz-adv-x="976" 
d="M532 1094q189 0 293.5 -115.5t104.5 -300.5v-43h-674q-9 -228 91 -360t261 -132q103 0 176 43.5t131 130.5l27 -14q-56 -212 -258 -297q-199 -82 -199 -223q0 -51 25 -81t74 -30q48 0 84 16t80 54l24 -27q-115 -147 -260 -147q-79 0 -128.5 46t-49.5 120q0 146 215 246
h-25q-144 0 -253 69.5t-165.5 188.5t-56.5 270q0 255 138 420.5t345 165.5zM512 1024q-107 0 -172.5 -90t-77.5 -234h455q0 150 -50 237t-155 87z" />
    <glyph glyph-name="Ecaron" unicode="&#x11a;" horiz-adv-x="1275" 
d="M1024 1858l-262 -324h-164l-262 324h63l281 -183l281 183h63zM57 0v61q49 6 75 11.5t48.5 14.5t31 24.5t13 37.5t4.5 58v1024q0 30 -2 49.5t-10 35t-18.5 24.5t-32 16t-45 11t-64.5 9v62h1094l10 -355h-49q-72 167 -135 224t-176 57h-330v-584h295q65 0 96 43.5t47 143.5
h64v-449h-64q-16 99 -47 141.5t-96 42.5h-295v-489q0 -81 44 -110t149 -29h159q58 0 101.5 15.5t85.5 57.5t77 94t89 146h59l-64 -387h-1114z" />
    <glyph glyph-name="ecaron" unicode="&#x11b;" horiz-adv-x="976" 
d="M844 1571l-230 -352h-163l-230 352h68l243 -211l244 211h68zM530 1094q191 0 295.5 -115.5t104.5 -300.5v-43h-674q-9 -228 91 -360t261 -132q103 0 176 43.5t131 130.5l27 -14q-38 -147 -146.5 -235t-271.5 -88q-144 0 -253 69.5t-165.5 188.5t-56.5 270
q0 168 63.5 302.5t173 209t244.5 74.5zM512 1024q-107 0 -172.5 -90t-77.5 -234h455q0 150 -50 237t-155 87z" />
    <glyph glyph-name="Gcircumflex" unicode="&#x11c;" horiz-adv-x="1447" 
d="M1030 127v338q0 30 -2 49.5t-10.5 35t-18 23.5t-32 15.5t-45 11t-64.5 8.5v64h574v-64q-42 -5 -64.5 -8.5t-45 -11t-32 -15.5t-18 -23.5t-10.5 -35t-2 -49.5v-340q-216 -145 -504 -145q-160 0 -291.5 54.5t-219 150t-135 224.5t-47.5 277q0 174 54 319.5t148.5 244.5
t225.5 153.5t283 54.5q274 0 453 -117v-317h-66q-72 360 -383 360q-92 0 -168 -33t-128.5 -91.5t-88.5 -140t-52.5 -176.5t-16.5 -202q0 -139 28 -260.5t82.5 -218t144 -152t203.5 -55.5q162 0 248 72zM864 1858l262 -324h-63l-281 182l-280 -182h-64l262 324h164z" />
    <glyph glyph-name="gcircumflex" unicode="&#x11d;" horiz-adv-x="1042" 
d="M487 389q-107 0 -192 33q-78 -81 -78 -137q0 -76 80 -76h405q162 0 251 -67.5t89 -198.5q0 -123 -78.5 -215t-209 -137.5t-293.5 -45.5q-215 0 -338 68t-123 190q0 136 195 211q-58 22 -89.5 67.5t-31.5 108.5q0 76 49.5 134t132.5 114q-85 40 -134.5 113.5t-49.5 175.5
q0 168 118 267.5t302 99.5q84 0 176 -29l336 8v-106h-80l-154 8q55 -36 93 -101.5t38 -138.5q0 -158 -114 -252t-300 -94zM688 -2h-467q-51 -54 -51 -145q0 -111 82.5 -174.5t226.5 -63.5q109 0 196.5 25t143 81t55.5 136q0 75 -47.5 108t-138.5 33zM500 449
q89 0 134.5 75.5t45.5 198.5q0 133 -52 222t-147 89q-90 0 -136 -76t-46 -198q0 -135 52 -223t149 -88zM602 1567l229 -353h-67l-244 211l-244 -211h-67l229 353h164z" />
    <glyph glyph-name="Gbreve" unicode="&#x11e;" horiz-adv-x="1447" 
d="M782 1528q-137 0 -215 81.5t-78 239.5h64q26 -178 229 -178q204 0 230 178h61q0 -158 -77 -239.5t-214 -81.5zM1030 127v338q0 30 -2 49.5t-10.5 35t-18 23.5t-32 15.5t-45 11t-64.5 8.5v64h574v-64q-42 -5 -64.5 -8.5t-45 -11t-32 -15.5t-18 -23.5t-10.5 -35t-2 -49.5
v-340q-216 -145 -504 -145q-160 0 -291.5 54.5t-219 150t-135 224.5t-47.5 277q0 174 54 319.5t148.5 244.5t225.5 153.5t283 54.5q274 0 453 -117v-317h-66q-72 360 -383 360q-92 0 -168 -33t-128.5 -91.5t-88.5 -140t-52.5 -176.5t-16.5 -202q0 -139 28 -260.5t82.5 -218
t144 -152t203.5 -55.5q162 0 248 72z" />
    <glyph glyph-name="gbreve" unicode="&#x11f;" horiz-adv-x="1042" 
d="M487 389q-107 0 -192 33q-78 -81 -78 -137q0 -76 80 -76h405q162 0 251 -67.5t89 -198.5q0 -123 -78.5 -215t-209 -137.5t-293.5 -45.5q-215 0 -338 68t-123 190q0 136 195 211q-58 22 -89.5 67.5t-31.5 108.5q0 76 49.5 134t132.5 114q-85 40 -134.5 113.5t-49.5 175.5
q0 168 118 267.5t302 99.5q84 0 176 -29l336 8v-106h-80l-154 8q55 -36 93 -101.5t38 -138.5q0 -158 -114 -252t-300 -94zM688 -2h-467q-51 -54 -51 -145q0 -111 82.5 -174.5t226.5 -63.5q109 0 196.5 25t143 81t55.5 136q0 75 -47.5 108t-138.5 33zM500 449
q89 0 134.5 75.5t45.5 198.5q0 133 -52 222t-147 89q-90 0 -136 -76t-46 -198q0 -135 52 -223t149 -88zM522 1221q-131 0 -199.5 83.5t-68.5 245.5h68q16 -186 200 -186q183 0 199 186h67q0 -162 -68 -245.5t-198 -83.5z" />
    <glyph glyph-name="Gdotaccent" unicode="&#x120;" horiz-adv-x="1447" 
d="M780 1542q-62 0 -103.5 42.5t-41.5 103.5q0 59 41.5 101t103.5 42q64 0 106 -42t42 -101q0 -61 -42 -103.5t-106 -42.5zM1030 127v338q0 30 -2 49.5t-10.5 35t-18 23.5t-32 15.5t-45 11t-64.5 8.5v64h574v-64q-42 -5 -64.5 -8.5t-45 -11t-32 -15.5t-18 -23.5t-10.5 -35
t-2 -49.5v-340q-216 -145 -504 -145q-160 0 -291.5 54.5t-219 150t-135 224.5t-47.5 277q0 174 54 319.5t148.5 244.5t225.5 153.5t283 54.5q274 0 453 -117v-317h-66q-72 360 -383 360q-92 0 -168 -33t-128.5 -91.5t-88.5 -140t-52.5 -176.5t-16.5 -202q0 -139 28 -260.5
t82.5 -218t144 -152t203.5 -55.5q162 0 248 72z" />
    <glyph glyph-name="gdotaccent" unicode="&#x121;" horiz-adv-x="1042" 
d="M487 389q-107 0 -192 33q-78 -81 -78 -137q0 -76 80 -76h405q162 0 251 -67.5t89 -198.5q0 -123 -78.5 -215t-209 -137.5t-293.5 -45.5q-215 0 -338 68t-123 190q0 136 195 211q-58 22 -89.5 67.5t-31.5 108.5q0 76 49.5 134t132.5 114q-85 40 -134.5 113.5t-49.5 175.5
q0 168 118 267.5t302 99.5q84 0 176 -29l336 8v-106h-80l-154 8q55 -36 93 -101.5t38 -138.5q0 -158 -114 -252t-300 -94zM688 -2h-467q-51 -54 -51 -145q0 -111 82.5 -174.5t226.5 -63.5q109 0 196.5 25t143 81t55.5 136q0 75 -47.5 108t-138.5 33zM500 449
q89 0 134.5 75.5t45.5 198.5q0 133 -52 222t-147 89q-90 0 -136 -76t-46 -198q0 -135 52 -223t149 -88zM520 1239q-62 0 -103.5 42.5t-41.5 102.5t41.5 103t103.5 43q63 0 105.5 -43t42.5 -103t-42.5 -102.5t-105.5 -42.5z" />
    <glyph glyph-name="Gcommaaccent" unicode="&#x122;" horiz-adv-x="1447" 
d="M819 -307h-96q-86 17 -86 104q0 51 36 82t95 31q73 0 115.5 -46.5t42.5 -117.5q0 -98 -68 -157.5t-201 -59.5v53q76 0 119 32.5t43 78.5zM1030 127v338q0 30 -2 49.5t-10.5 35t-18 23.5t-32 15.5t-45 11t-64.5 8.5v64h574v-64q-42 -5 -64.5 -8.5t-45 -11t-32 -15.5
t-18 -23.5t-10.5 -35t-2 -49.5v-340q-216 -145 -504 -145q-160 0 -291.5 54.5t-219 150t-135 224.5t-47.5 277q0 174 54 319.5t148.5 244.5t225.5 153.5t283 54.5q274 0 453 -117v-317h-66q-72 360 -383 360q-92 0 -168 -33t-128.5 -91.5t-88.5 -140t-52.5 -176.5
t-16.5 -202q0 -139 28 -260.5t82.5 -218t144 -152t203.5 -55.5q162 0 248 72z" />
    <glyph glyph-name="gcommaaccent" unicode="&#x123;" horiz-adv-x="1042" 
d="M487 389q-107 0 -192 33q-78 -81 -78 -137q0 -76 80 -76h405q162 0 251 -67.5t89 -198.5q0 -123 -78.5 -215t-209 -137.5t-293.5 -45.5q-215 0 -338 68t-123 190q0 136 195 211q-58 22 -89.5 67.5t-31.5 108.5q0 76 49.5 134t132.5 114q-85 40 -134.5 113.5t-49.5 175.5
q0 168 118 267.5t302 99.5q84 0 176 -29l336 8v-106h-80l-154 8q55 -36 93 -101.5t38 -138.5q0 -158 -114 -252t-300 -94zM688 -2h-467q-51 -54 -51 -145q0 -111 82.5 -174.5t226.5 -63.5q109 0 196.5 25t143 81t55.5 136q0 75 -47.5 108t-138.5 33zM500 449
q89 0 134.5 75.5t45.5 198.5q0 133 -52 222t-147 89q-90 0 -136 -76t-46 -198q0 -135 52 -223t149 -88zM483 1452h97q86 -17 86 -102q0 -51 -36 -82t-95 -31q-73 0 -115.5 45.5t-42.5 116.5q0 98 67.5 157.5t200.5 59.5v-51q-75 0 -118.5 -33.5t-43.5 -79.5z" />
    <glyph glyph-name="Hcircumflex" unicode="&#x124;" horiz-adv-x="1613" 
d="M471 1231v-449h672v449q0 30 -2 49.5t-10 35t-18.5 24.5t-32 16t-45 11t-64.5 9v62h585v-62q-41 -5 -64.5 -9t-45 -11t-32 -16t-18.5 -24.5t-10 -35t-2 -49.5v-1024q0 -36 4.5 -58t13 -37.5t31 -24.5t48.5 -14.5t75 -11.5v-61h-585v61q49 6 75 11.5t48.5 14.5t31 24.5
t13 37.5t4.5 58v491h-672v-491q0 -36 4.5 -58t13 -37.5t31 -24.5t48.5 -14.5t75 -11.5v-61h-586v61q49 6 75 11.5t48.5 14.5t31 24.5t13 37.5t4.5 58v1024q0 30 -2 49.5t-10 35t-18.5 24.5t-32 16t-45 11t-64.5 9v62h586v-62q-41 -5 -64.5 -9t-45 -11t-32 -16t-18.5 -24.5
t-10 -35t-2 -49.5zM887 1858l262 -324h-64l-280 182l-281 -182h-63l262 324h164z" />
    <glyph glyph-name="hcircumflex" unicode="&#x125;" horiz-adv-x="1218" 
d="M172 156v1247l-129 70v30l326 101h32v-707q174 197 375 197q285 0 285 -336v-602q0 -55 28 -73.5t107 -23.5v-59h-500v59q79 5 107 23.5t28 73.5v598q0 102 -42 150t-130 48q-124 0 -258 -106v-690q0 -55 27.5 -73.5t106.5 -23.5v-59h-498v59q79 5 107 23.5t28 73.5z
M680 1966l262 -324h-63l-281 183l-281 -183h-63l262 324h164z" />
    <glyph glyph-name="Hbar" unicode="&#x126;" horiz-adv-x="1654" 
d="M492 1231v-129h671v129q0 30 -2 49.5t-10 35t-18.5 24.5t-32 16t-45 11t-64.5 9v62h586v-62q-41 -5 -64.5 -9t-45 -11t-32 -16t-18.5 -24.5t-10 -35t-2 -49.5v-129h172v-82h-172v-813q0 -36 4.5 -58t13 -37.5t31 -24.5t48.5 -14.5t75 -11.5v-61h-586v61q49 6 75 11.5
t48.5 14.5t31 24.5t13 37.5t4.5 58v491h-671v-491q0 -36 4.5 -58t13 -37.5t31 -24.5t48.5 -14.5t75 -11.5v-61h-586v61q49 6 75 11.5t48.5 14.5t31 24.5t13 37.5t4.5 58v813h-172v82h172v129q0 30 -2 49.5t-10 35t-18.5 24.5t-32 16t-45 11t-64.5 9v62h586v-62
q-41 -5 -64.5 -9t-45 -11t-32 -16t-18.5 -24.5t-10 -35t-2 -49.5zM492 782h671v238h-671v-238z" />
    <glyph glyph-name="hbar" unicode="&#x127;" horiz-adv-x="1218" 
d="M172 156v1061h-129v75h129v111l-129 70v30l326 101h32v-312h271v-75h-271v-320q174 197 375 197q285 0 285 -336v-602q0 -55 28 -73.5t107 -23.5v-59h-500v59q79 5 107 23.5t28 73.5v598q0 102 -42 150t-130 48q-124 0 -258 -106v-690q0 -55 27.5 -73.5t106.5 -23.5v-59
h-498v59q79 5 107 23.5t28 73.5z" />
    <glyph glyph-name="Itilde" unicode="&#x128;" horiz-adv-x="700" 
d="M471 1231v-1024q0 -36 4.5 -58t13 -37.5t31 -24.5t48.5 -14.5t75 -11.5v-61h-586v61q49 6 75 11.5t48.5 14.5t31 24.5t13 37.5t4.5 58v1024q0 30 -2 49.5t-10 35t-18.5 24.5t-32 16t-45 11t-64.5 9v62h586v-62q-41 -5 -64.5 -9t-45 -11t-32 -16t-18.5 -24.5t-10 -35
t-2 -49.5zM481 1530q-35 0 -74 19t-68 42.5t-64 42.5t-62 19q-41 0 -73.5 -27.5t-63.5 -87.5l-41 25q52 138 97 192.5t112 54.5q35 0 74 -19t67.5 -42t63.5 -42t63 -19q40 0 72 28t65 90l41 -26q-53 -139 -97.5 -194.5t-111.5 -55.5z" />
    <glyph glyph-name="itilde" unicode="&#x129;" horiz-adv-x="573" 
d="M395 1231q-37 0 -80.5 29.5t-85 58.5t-73.5 29q-41 0 -67 -24t-62 -87l-50 25q52 141 92 193t109 52q41 0 85 -28.5t84.5 -57t70.5 -28.5q41 0 67.5 23.5t61.5 86.5l49 -24q-53 -143 -92.5 -195.5t-108.5 -52.5zM408 1094v-938q0 -55 28 -73.5t107 -23.5v-59h-500v59
q79 5 107 23.5t28 73.5v731l-129 71v29l326 107h33z" />
    <glyph glyph-name="Imacron" unicode="&#x12a;" horiz-adv-x="700" 
d="M471 1231v-1024q0 -36 4.5 -58t13 -37.5t31 -24.5t48.5 -14.5t75 -11.5v-61h-586v61q49 6 75 11.5t48.5 14.5t31 24.5t13 37.5t4.5 58v1024q0 30 -2 49.5t-10 35t-18.5 24.5t-32 16t-45 11t-64.5 9v62h586v-62q-41 -5 -64.5 -9t-45 -11t-32 -16t-18.5 -24.5t-10 -35
t-2 -49.5zM57 1573v119h582v-119h-582z" />
    <glyph glyph-name="imacron" unicode="&#x12b;" horiz-adv-x="573" 
d="M408 1094v-938q0 -55 28 -73.5t107 -23.5v-59h-500v59q79 5 107 23.5t28 73.5v731l-129 71v29l326 107h33zM57 1278v117h457v-117h-457z" />
    <glyph glyph-name="Ibreve" unicode="&#x12c;" horiz-adv-x="700" 
d="M471 1231v-1024q0 -36 4.5 -58t13 -37.5t31 -24.5t48.5 -14.5t75 -11.5v-61h-586v61q49 6 75 11.5t48.5 14.5t31 24.5t13 37.5t4.5 58v1024q0 30 -2 49.5t-10 35t-18.5 24.5t-32 16t-45 11t-64.5 9v62h586v-62q-41 -5 -64.5 -9t-45 -11t-32 -16t-18.5 -24.5t-10 -35
t-2 -49.5zM354 1526q-128 0 -200 82t-72 241h59q23 -180 213 -180t213 180h58q0 -159 -71.5 -241t-199.5 -82z" />
    <glyph glyph-name="ibreve" unicode="&#x12d;" horiz-adv-x="573" 
d="M408 1094v-938q0 -55 28 -73.5t107 -23.5v-59h-500v59q79 5 107 23.5t28 73.5v731l-129 71v29l326 107h33zM295 1221q-122 0 -186 83.5t-64 245.5h64q16 -186 186 -186q171 0 184 186h64q0 -162 -63.5 -245.5t-184.5 -83.5z" />
    <glyph glyph-name="Iogonek" unicode="&#x12e;" horiz-adv-x="700" 
d="M471 1231v-1024q0 -36 4.5 -58t13 -37.5t31 -24.5t48.5 -14.5t75 -11.5v-61h-174q-186 -89 -186 -221q0 -48 25 -77.5t75 -29.5q46 0 82 16t82 54l22 -27q-115 -147 -260 -147q-79 0 -128.5 46t-49.5 120q0 89 66.5 152.5t183.5 113.5h-324v61q49 6 75 11.5t48.5 14.5
t31 24.5t13 37.5t4.5 58v1024q0 30 -2 49.5t-10 35t-18.5 24.5t-32 16t-45 11t-64.5 9v62h586v-62q-41 -5 -64.5 -9t-45 -11t-32 -16t-18.5 -24.5t-10 -35t-2 -49.5z" />
    <glyph glyph-name="iogonek" unicode="&#x12f;" horiz-adv-x="573" 
d="M408 1094v-938q0 -55 28 -73.5t107 -23.5v-59h-144q-186 -89 -186 -221q0 -48 25 -77.5t75 -29.5q46 0 82 16t82 54l23 -27q-115 -147 -260 -147q-79 0 -129 46t-50 120q0 89 66.5 152.5t183.5 113.5h-268v59q79 5 107 23.5t28 73.5v731l-129 71v29l326 107h33zM287 1239
q-62 0 -104 42t-42 101q0 61 42 103.5t104 42.5t104.5 -42.5t42.5 -103.5q0 -59 -42.5 -101t-104.5 -42z" />
    <glyph glyph-name="Idotaccent" unicode="&#x130;" horiz-adv-x="700" 
d="M471 1231v-1024q0 -36 4.5 -58t13 -37.5t31 -24.5t48.5 -14.5t75 -11.5v-61h-586v61q49 6 75 11.5t48.5 14.5t31 24.5t13 37.5t4.5 58v1024q0 30 -2 49.5t-10 35t-18.5 24.5t-32 16t-45 11t-64.5 9v62h586v-62q-41 -5 -64.5 -9t-45 -11t-32 -16t-18.5 -24.5t-10 -35
t-2 -49.5zM348 1542q-62 0 -103.5 42.5t-41.5 103.5q0 59 41.5 101t103.5 42q64 0 106 -42t42 -101q0 -61 -42 -103.5t-106 -42.5z" />
    <glyph glyph-name="dotlessi" unicode="&#x131;" horiz-adv-x="573" 
d="M408 1094v-938q0 -55 28 -73.5t107 -23.5v-59h-500v59q79 5 107 23.5t28 73.5v731l-129 71v29l326 107h33z" />
    <glyph glyph-name="IJ" unicode="&#x132;" horiz-adv-x="1724" 
d="M471 1231v-1024q0 -36 4.5 -58t13 -37.5t31 -24.5t48.5 -14.5t75 -11.5v-61h-586v61q49 6 75 11.5t48.5 14.5t31 24.5t13 37.5t4.5 58v1024q0 30 -2 49.5t-10 35t-18.5 24.5t-32 16t-45 11t-64.5 9v62h586v-62q-41 -5 -64.5 -9t-45 -11t-32 -16t-18.5 -24.5t-10 -35
t-2 -49.5zM1274 342v889q0 30 -2 49.5t-10 35t-18.5 24.5t-32 16t-45 11t-64.5 9v62h586v-62q-41 -5 -64.5 -9t-45 -11t-32 -16t-18.5 -24.5t-10 -35t-2 -49.5v-809q0 -220 -115 -331t-326 -111q-183 0 -288 69.5t-105 198.5q0 44 19 82t49 61h165q-10 -62 -10 -112
q0 -116 47 -176t135 -60q187 0 187 299z" />
    <glyph glyph-name="ij" unicode="&#x133;" horiz-adv-x="1099" 
d="M408 1094v-938q0 -55 28 -73.5t107 -23.5v-59h-500v59q79 5 107 23.5t28 73.5v731l-129 71v29l326 107h33zM287 1239q-62 0 -104 42t-42 101q0 61 42 103.5t104 42.5t104.5 -42.5t42.5 -103.5q0 -59 -42.5 -101t-104.5 -42zM727 887l-129 71v29l326 107h32v-912
q0 -142 -15 -212t-58 -140q-81 -128 -275 -283l-33 27l84 145q45 77 56.5 161.5t11.5 232.5v774zM834 1239q-62 0 -104 42t-42 101q0 61 42 103.5t104 42.5q64 0 105.5 -42.5t41.5 -103.5q0 -60 -41.5 -101.5t-105.5 -41.5z" />
    <glyph glyph-name="Jcircumflex" unicode="&#x134;" horiz-adv-x="1030" 
d="M580 342v889q0 30 -2 49.5t-10 35t-18.5 24.5t-32 16t-45 11t-64.5 9v62h585v-62q-41 -5 -64.5 -9t-45 -11t-32 -16t-18.5 -24.5t-10 -35t-2 -49.5v-809q0 -220 -114.5 -331t-325.5 -111q-183 0 -288 69.5t-105 198.5q0 44 19 82t48 61h166q-10 -62 -10 -112
q0 -116 47 -176t135 -60q187 0 187 299zM780 1858l262 -324h-63l-281 182l-280 -182h-64l262 324h164z" />
    <glyph glyph-name="jcircumflex" unicode="&#x135;" horiz-adv-x="526" 
d="M154 887l-129 71v29l325 107h33v-912q0 -142 -15.5 -212t-58.5 -140q-82 -130 -274 -283l-33 27l84 145q45 77 56.5 161.5t11.5 232.5v774zM332 1567l209 -355h-62l-221 213l-221 -213h-60l207 355h148z" />
    <glyph glyph-name="Kcommaaccent" unicode="&#x136;" horiz-adv-x="1404" 
d="M768 -307h-96q-86 17 -86 104q0 51 36 82t95 31q73 0 115 -46.5t42 -117.5q0 -98 -67.5 -157.5t-200.5 -59.5v53q76 0 119 32.5t43 78.5zM707 813l452 -594q74 -96 118 -125t128 -33v-61h-340q-82 65 -176 190l-391 519l510 534q47 47 47 80q0 26 -30 35.5t-128 17.5v62
h442v-62q-63 -4 -99 -24.5t-89 -73.5zM471 1231v-1024q0 -36 4.5 -58t13 -37.5t31 -24.5t48.5 -14.5t75 -11.5v-61h-586v61q49 6 75 11.5t48.5 14.5t31 24.5t13 37.5t4.5 58v1024q0 30 -2 49.5t-10 35t-18.5 24.5t-32 16t-45 11t-64.5 9v62h586v-62q-41 -5 -64.5 -9t-45 -11
t-32 -16t-18.5 -24.5t-10 -35t-2 -49.5z" />
    <glyph glyph-name="kcommaaccent" unicode="&#x137;" horiz-adv-x="1138" 
d="M649 -307h-96q-86 17 -86 104q0 51 36 82t95 31q73 0 115.5 -46.5t42.5 -117.5q0 -98 -68 -157.5t-201 -59.5v53q76 0 119 32.5t43 78.5zM426 584l326 297q55 48 55 80q0 14 -6 23t-26.5 14.5t-39 8t-63.5 7.5v59h420v-59q-59 -12 -94 -28t-70 -48l-295 -270l506 -625
v-43h-250zM174 156v1247l-129 70v30l324 101h34v-1448q0 -55 28 -73.5t108 -23.5v-59h-500v59q79 5 107 23.5t28 73.5z" />
    <glyph glyph-name="kgreenlandic" unicode="&#x138;" horiz-adv-x="1142" 
d="M430 584l326 297q55 48 55 80q0 14 -6 23t-26.5 14.5t-39 8t-63.5 7.5v59h420v-59q-59 -12 -94 -28t-70 -48l-293 -270l504 -625v-43h-250zM178 156v731l-129 71v29l326 107h33v-938q0 -55 28 -73.5t107 -23.5v-59h-500v59q79 5 107 23.5t28 73.5z" />
    <glyph glyph-name="Lacute" unicode="&#x139;" horiz-adv-x="1220" 
d="M451 1839h249v-12l-307 -293h-53zM471 1231v-1018q0 -81 43 -110t148 -29h106q35 0 65 7.5t55.5 19.5t50.5 35.5t45 47.5t46 65t46.5 77t51.5 94h60l-68 -420h-1063v61q49 6 75 11.5t48.5 14.5t31 24.5t13 37.5t4.5 58v1024q0 30 -2 49.5t-10 35t-18.5 24.5t-32 16
t-45 11t-64.5 9v62h586v-62q-41 -5 -64.5 -9t-45 -11t-32 -16t-18.5 -24.5t-10 -35t-2 -49.5z" />
    <glyph glyph-name="lacute" unicode="&#x13a;" horiz-adv-x="569" 
d="M326 1935h249v-12l-307 -293h-53zM403 1604v-1448q0 -55 28 -73.5t108 -23.5v-59h-500v59q79 5 107 23.5t28 73.5v1247l-129 70v30l324 101h34z" />
    <glyph glyph-name="Lcommaaccent" unicode="&#x13b;" horiz-adv-x="1220" 
d="M659 -307h-96q-86 17 -86 104q0 51 36 82t95 31q73 0 115.5 -46.5t42.5 -117.5q0 -98 -67.5 -157.5t-200.5 -59.5v53q76 0 118.5 32.5t42.5 78.5zM471 1231v-1018q0 -81 43 -110t148 -29h106q35 0 65 7.5t55.5 19.5t50.5 35.5t45 47.5t46 65t46.5 77t51.5 94h60l-68 -420
h-1063v61q49 6 75 11.5t48.5 14.5t31 24.5t13 37.5t4.5 58v1024q0 30 -2 49.5t-10 35t-18.5 24.5t-32 16t-45 11t-64.5 9v62h586v-62q-41 -5 -64.5 -9t-45 -11t-32 -16t-18.5 -24.5t-10 -35t-2 -49.5z" />
    <glyph glyph-name="lcommaaccent" unicode="&#x13c;" horiz-adv-x="569" 
d="M326 -307h-97q-86 17 -86 104q0 51 36 82t95 31q73 0 115.5 -46.5t42.5 -117.5q0 -98 -67.5 -157.5t-200.5 -59.5v53q76 0 119 32.5t43 78.5zM403 1604v-1448q0 -55 28 -73.5t108 -23.5v-59h-500v59q79 5 107 23.5t28 73.5v1247l-129 70v30l324 101h34z" />
    <glyph glyph-name="Lcaron" unicode="&#x13d;" horiz-adv-x="1220" 
d="M1051 1425l-220 -407h-34l37 420h217v-13zM471 1231v-1018q0 -81 43 -110t148 -29h106q35 0 65 7.5t55.5 19.5t50.5 35.5t45 47.5t46 65t46.5 77t51.5 94h60l-68 -420h-1063v61q49 6 75 11.5t48.5 14.5t31 24.5t13 37.5t4.5 58v1024q0 30 -2 49.5t-10 35t-18.5 24.5
t-32 16t-45 11t-64.5 9v62h586v-62q-41 -5 -64.5 -9t-45 -11t-32 -16t-18.5 -24.5t-10 -35t-2 -49.5z" />
    <glyph glyph-name="lcaron" unicode="&#x13e;" horiz-adv-x="569" 
d="M739 1589l-219 -407h-35l37 420h217v-13zM403 1604v-1448q0 -55 28 -73.5t108 -23.5v-59h-500v59q79 5 107 23.5t28 73.5v1247l-129 70v30l324 101h34z" />
    <glyph glyph-name="Ldot" unicode="&#x13f;" horiz-adv-x="1220" 
d="M471 1231v-1018q0 -81 43 -110t148 -29h106q35 0 65 7.5t55.5 19.5t50.5 35.5t45 47.5t46 65t46.5 77t51.5 94h60l-68 -420h-1063v61q49 6 75 11.5t48.5 14.5t31 24.5t13 37.5t4.5 58v1024q0 30 -2 49.5t-10 35t-18.5 24.5t-32 16t-45 11t-64.5 9v62h586v-62
q-41 -5 -64.5 -9t-45 -11t-32 -16t-18.5 -24.5t-10 -35t-2 -49.5zM846 801q0 66 44.5 110.5t110.5 44.5q64 0 110 -45t46 -110q0 -64 -46.5 -110t-109.5 -46q-66 0 -110.5 45.5t-44.5 110.5z" />
    <glyph glyph-name="ldot" unicode="&#x140;" horiz-adv-x="700" 
d="M403 1604v-1448q0 -55 28 -73.5t108 -23.5v-59h-500v59q79 5 107 23.5t28 73.5v1247l-129 70v30l324 101h34zM487 766q0 63 43.5 106t106.5 43q61 0 104 -43.5t43 -105.5q0 -61 -43.5 -104.5t-103.5 -43.5q-63 0 -106.5 43t-43.5 105z" />
    <glyph glyph-name="Lslash" unicode="&#x141;" horiz-adv-x="1220" 
d="M471 1231v-467l309 133v-86l-309 -135v-463q0 -81 43 -110t148 -29h106q35 0 65 7.5t55.5 19.5t50.5 35.5t45 47.5t46 65t46.5 77t51.5 94h60l-68 -420h-1063v61q49 6 75 11.5t48.5 14.5t31 24.5t13 37.5t4.5 58v383l-153 -68v86l153 66v557q0 30 -2 49.5t-10 35
t-18.5 24.5t-32 16t-45 11t-64.5 9v62h586v-62q-41 -5 -64.5 -9t-45 -11t-32 -16t-18.5 -24.5t-10 -35t-2 -49.5z" />
    <glyph glyph-name="lslash" unicode="&#x142;" horiz-adv-x="604" 
d="M414 1604v-641l172 104v-88l-172 -105v-718q0 -55 28 -73.5t107 -23.5v-59h-500v59q79 5 107 23.5t28 73.5v608l-159 -92v88l159 92v551l-129 70v30l324 101h35z" />
    <glyph glyph-name="Nacute" unicode="&#x143;" horiz-adv-x="1519" 
d="M815 1839h250v-12l-307 -293h-53zM1219 408v821q0 85 -36.5 110t-166.5 37v62h469v-62q-61 -7 -91 -14t-51.5 -23.5t-26.5 -40.5t-5 -69v-1235h-74l-911 1163v-948q0 -85 36 -110.5t166 -37.5v-61h-469v61q41 5 65.5 9t46 12t32 16.5t18.5 25t10 36t2 49.5v1040
q-55 73 -87 98t-89 29v62h363z" />
    <glyph glyph-name="nacute" unicode="&#x144;" horiz-adv-x="1224" 
d="M678 1561h242v-13l-310 -331h-51zM838 156v598q0 102 -42 150t-130 48q-124 0 -258 -106v-690q0 -55 27.5 -73.5t105.5 -23.5v-59h-498v59q79 5 107 23.5t28 73.5v731l-129 71v29l332 107h35l-8 -197q174 197 374 197q285 0 285 -330v-608q0 -55 28 -73.5t107 -23.5v-59
h-500v59q80 5 108 23.5t28 73.5z" />
    <glyph glyph-name="Ncommaaccent" unicode="&#x145;" horiz-adv-x="1519" 
d="M834 -307h-97q-86 17 -86 104q0 51 36 82t95 31q73 0 115.5 -46.5t42.5 -117.5q0 -98 -67.5 -157.5t-200.5 -59.5v53q76 0 119 32.5t43 78.5zM1219 408v821q0 85 -36.5 110t-166.5 37v62h469v-62q-61 -7 -91 -14t-51.5 -23.5t-26.5 -40.5t-5 -69v-1235h-74l-911 1163
v-948q0 -85 36 -110.5t166 -37.5v-61h-469v61q41 5 65.5 9t46 12t32 16.5t18.5 25t10 36t2 49.5v1040q-55 73 -87 98t-89 29v62h363z" />
    <glyph glyph-name="ncommaaccent" unicode="&#x146;" horiz-adv-x="1224" 
d="M672 -307h-97q-86 17 -86 104q0 51 36.5 82t95.5 31q73 0 115 -46.5t42 -117.5q0 -98 -67.5 -157.5t-200.5 -59.5v53q76 0 119 32.5t43 78.5zM838 156v598q0 102 -42 150t-130 48q-124 0 -258 -106v-690q0 -55 27.5 -73.5t105.5 -23.5v-59h-498v59q79 5 107 23.5t28 73.5
v731l-129 71v29l332 107h35l-8 -197q174 197 374 197q285 0 285 -330v-608q0 -55 28 -73.5t107 -23.5v-59h-500v59q80 5 108 23.5t28 73.5z" />
    <glyph glyph-name="Ncaron" unicode="&#x147;" horiz-adv-x="1519" 
d="M1141 1858l-262 -324h-164l-262 324h63l281 -183l280 183h64zM1219 408v821q0 85 -36.5 110t-166.5 37v62h469v-62q-61 -7 -91 -14t-51.5 -23.5t-26.5 -40.5t-5 -69v-1235h-74l-911 1163v-948q0 -85 36 -110.5t166 -37.5v-61h-469v61q41 5 65.5 9t46 12t32 16.5t18.5 25
t10 36t2 49.5v1040q-55 73 -87 98t-89 29v62h363z" />
    <glyph glyph-name="ncaron" unicode="&#x148;" horiz-adv-x="1224" 
d="M944 1571l-229 -352h-164l-229 352h67l244 -211l244 211h67zM838 156v598q0 102 -42 150t-130 48q-124 0 -258 -106v-690q0 -55 27.5 -73.5t105.5 -23.5v-59h-498v59q79 5 107 23.5t28 73.5v731l-129 71v29l332 107h35l-8 -197q174 197 374 197q285 0 285 -330v-608
q0 -55 28 -73.5t107 -23.5v-59h-500v59q80 5 108 23.5t28 73.5z" />
    <glyph glyph-name="Eng" unicode="&#x14a;" horiz-adv-x="1519" 
d="M1126 135l-800 1022v-948q0 -85 36 -110.5t166 -37.5v-61h-469v61q41 5 65.5 9t46 12t32 16.5t18.5 25t10 36t2 49.5v1040q-55 73 -87 98t-89 29v62h367l795 -1026v817q0 85 -36.5 110t-166.5 37v62h469v-62q-61 -7 -91 -14t-51.5 -23.5t-26.5 -40.5t-5 -69v-1047
q0 -139 -14.5 -209t-55.5 -141q-47 -74 -103 -128t-147 -118l-30 27l53 78q64 98 88 204t24 240z" />
    <glyph glyph-name="eng" unicode="&#x14b;" horiz-adv-x="1208" 
d="M838 113v641q0 102 -42 150t-130 48q-124 0 -258 -106v-690q0 -55 27.5 -73.5t105.5 -23.5v-59h-498v59q79 5 107 23.5t28 73.5v731l-129 71v29l332 107h35l-8 -197q174 197 374 197q285 0 285 -330v-582q0 -140 -16 -210t-58 -142q-80 -126 -276 -283l-31 27l84 145
q45 77 56.5 161.5t11.5 232.5z" />
    <glyph glyph-name="Omacron" unicode="&#x14c;" horiz-adv-x="1449" 
d="M434 1573v119h582v-119h-582zM733 55q94 0 169 53.5t122.5 145t72.5 209t25 250.5q0 101 -15 196.5t-47 181.5t-79 150.5t-115.5 102.5t-150.5 38q-125 0 -215.5 -92.5t-133 -238.5t-42.5 -326q0 -128 25 -244.5t73 -213.5t128.5 -154.5t182.5 -57.5zM715 -20
q-153 0 -278.5 58.5t-206 157t-124 226t-43.5 268.5q0 172 52 317t141.5 243.5t212.5 153t264 54.5q153 0 278 -58.5t205.5 -157t124 -226t43.5 -268.5q0 -172 -51.5 -317t-141.5 -243.5t-212.5 -153t-263.5 -54.5z" />
    <glyph glyph-name="omacron" unicode="&#x14d;" horiz-adv-x="1099" 
d="M287 1276v119h530v-119h-530zM555 47q123 0 189.5 123t66.5 332q0 148 -27.5 263.5t-88.5 188t-150 72.5q-123 0 -188.5 -123t-65.5 -332q0 -147 27 -262.5t88 -188.5t149 -73zM545 -20q-224 0 -361 146.5t-137 385.5q0 129 39 238.5t107 184.5t161.5 117t200.5 42
q224 0 361 -147t137 -384q0 -260 -144.5 -421.5t-363.5 -161.5z" />
    <glyph glyph-name="Obreve" unicode="&#x14e;" horiz-adv-x="1449" 
d="M727 1528q-137 0 -215 81.5t-78 239.5h64q26 -178 229 -178t229 178h62q0 -158 -77 -239.5t-214 -81.5zM733 55q94 0 169 53.5t122.5 145t72.5 209t25 250.5q0 101 -15 196.5t-47 181.5t-79 150.5t-115.5 102.5t-150.5 38q-125 0 -215.5 -92.5t-133 -238.5t-42.5 -326
q0 -128 25 -244.5t73 -213.5t128.5 -154.5t182.5 -57.5zM715 -20q-153 0 -278.5 58.5t-206 157t-124 226t-43.5 268.5q0 172 52 317t141.5 243.5t212.5 153t264 54.5q153 0 278 -58.5t205.5 -157t124 -226t43.5 -268.5q0 -172 -51.5 -317t-141.5 -243.5t-212.5 -153
t-263.5 -54.5z" />
    <glyph glyph-name="obreve" unicode="&#x14f;" horiz-adv-x="1099" 
d="M555 47q123 0 189.5 123t66.5 332q0 148 -27.5 263.5t-88.5 188t-150 72.5q-123 0 -188.5 -123t-65.5 -332q0 -147 27 -262.5t88 -188.5t149 -73zM545 -20q-224 0 -361 146.5t-137 385.5q0 129 39 238.5t107 184.5t161.5 117t200.5 42q224 0 361 -147t137 -384
q0 -260 -144.5 -421.5t-363.5 -161.5zM553 1221q-131 0 -199.5 83.5t-68.5 245.5h67q16 -186 201 -186q183 0 199 186h67q0 -162 -68 -245.5t-198 -83.5z" />
    <glyph glyph-name="Ohungarumlaut" unicode="&#x150;" horiz-adv-x="1449" 
d="M733 55q94 0 169 53.5t122.5 145t72.5 209t25 250.5q0 101 -15 196.5t-47 181.5t-79 150.5t-115.5 102.5t-150.5 38q-125 0 -215.5 -92.5t-133 -238.5t-42.5 -326q0 -128 25 -244.5t73 -213.5t128.5 -154.5t182.5 -57.5zM715 -20q-153 0 -278.5 58.5t-206 157t-124 226
t-43.5 268.5q0 172 52 317t141.5 243.5t212.5 153t264 54.5q153 0 278 -58.5t205.5 -157t124 -226t43.5 -268.5q0 -172 -51.5 -317t-141.5 -243.5t-212.5 -153t-263.5 -54.5zM649 1839h223v-12l-286 -293h-56zM958 1839h226v-12l-287 -293h-55z" />
    <glyph glyph-name="ohungarumlaut" unicode="&#x151;" horiz-adv-x="1099" 
d="M461 1561h223v-13l-289 -331h-53zM770 1561h225v-13l-290 -331h-52zM555 47q123 0 189.5 123t66.5 332q0 148 -27.5 263.5t-88.5 188t-150 72.5q-123 0 -188.5 -123t-65.5 -332q0 -147 27 -262.5t88 -188.5t149 -73zM545 -20q-224 0 -361 146.5t-137 385.5
q0 129 39 238.5t107 184.5t161.5 117t200.5 42q224 0 361 -147t137 -384q0 -260 -144.5 -421.5t-363.5 -161.5z" />
    <glyph glyph-name="OE" unicode="&#x152;" horiz-adv-x="2054" 
d="M1008 1364h-136q-246 0 -396 -166t-150 -469q0 -135 35 -250.5t105 -207.5t186 -144.5t266 -52.5h90v1290zM1950 0h-1076q-161 0 -295.5 36t-228.5 99t-159.5 149.5t-96.5 187t-31 212.5q0 141 40 262t112 210.5t170.5 153.5t218 96t252.5 32h1081v-355h-49
q-73 167 -134.5 224t-174.5 57h-332v-584h297q65 0 95.5 43t48.5 144h63v-449h-63q-18 100 -48.5 142t-95.5 42h-297v-489q0 -81 44 -110t149 -29h162q58 0 100.5 15.5t84.5 57.5t76.5 93.5t90.5 146.5h57z" />
    <glyph glyph-name="oe" unicode="&#x153;" horiz-adv-x="1732" 
d="M557 1094q117 0 215.5 -51.5t163.5 -141.5q66 88 157 140.5t193 52.5q191 0 295.5 -115.5t104.5 -300.5v-43h-674q-9 -228 90.5 -360t259.5 -132q105 0 178 43.5t129 130.5l29 -14q-40 -147 -149 -235t-271 -88q-114 0 -209.5 51t-155.5 137q-67 -88 -163 -138t-203 -50
q-224 0 -361 146.5t-137 385.5q0 129 39 238.5t107 184.5t161.5 117t200.5 42zM557 47q123 0 188.5 123t65.5 332q0 148 -27.5 263.5t-88 188t-148.5 72.5q-123 0 -189.5 -123t-66.5 -332q0 -109 16.5 -202.5t48 -166t83.5 -114t118 -41.5zM1268 1024q-106 0 -172 -90
t-80 -234h457q0 150 -50 237t-155 87z" />
    <glyph glyph-name="Racute" unicode="&#x154;" horiz-adv-x="1421" 
d="M586 1362h-115v-664h121q169 0 252.5 89t83.5 255q0 142 -87 231t-255 89zM471 623v-416q0 -36 4.5 -58t13 -37.5t31 -24.5t48.5 -14.5t75 -11.5v-61h-586v61q49 6 75 11.5t48.5 14.5t31 24.5t13 37.5t4.5 58v1024q0 30 -2 49.5t-10 35t-18.5 24.5t-32 16t-45 11t-64.5 9
v62h594q253 0 391 -108t138 -288q0 -82 -32.5 -151.5t-86 -115t-112 -74.5t-120.5 -42l326 -426q71 -96 127 -132.5t139 -39.5v-61h-344q-69 48 -170 190l-311 433h-125zM694 1839h250v-12l-307 -293h-53z" />
    <glyph glyph-name="racute" unicode="&#x155;" horiz-adv-x="788" 
d="M524 1561h242v-13l-309 -331h-51zM408 745v-581q0 -59 37 -79t141 -26v-59h-543v59q79 5 107 23.5t28 73.5v731l-129 71v29l332 107h35l-8 -295q85 173 139 234t139 61q55 0 84 -33v-184h-35q-110 0 -180.5 -24t-146.5 -108z" />
    <glyph glyph-name="Rcommaaccent" unicode="&#x156;" horiz-adv-x="1421" 
d="M786 -307h-96q-86 17 -86 104q0 51 36 82t95 31q73 0 115.5 -46.5t42.5 -117.5q0 -98 -67.5 -157.5t-200.5 -59.5v53q76 0 118.5 32.5t42.5 78.5zM586 1362h-115v-664h121q169 0 252.5 89t83.5 255q0 142 -87 231t-255 89zM471 623v-416q0 -36 4.5 -58t13 -37.5t31 -24.5
t48.5 -14.5t75 -11.5v-61h-586v61q49 6 75 11.5t48.5 14.5t31 24.5t13 37.5t4.5 58v1024q0 30 -2 49.5t-10 35t-18.5 24.5t-32 16t-45 11t-64.5 9v62h594q253 0 391 -108t138 -288q0 -82 -32.5 -151.5t-86 -115t-112 -74.5t-120.5 -42l326 -426q71 -96 127 -132.5t139 -39.5
v-61h-344q-69 48 -170 190l-311 433h-125z" />
    <glyph glyph-name="rcommaaccent" unicode="&#x157;" horiz-adv-x="788" 
d="M348 -307h-96q-86 17 -86 104q0 51 36 82t95 31q73 0 115.5 -46.5t42.5 -117.5q0 -98 -68 -157.5t-201 -59.5v53q76 0 119 32.5t43 78.5zM408 745v-581q0 -59 37 -79t141 -26v-59h-543v59q79 5 107 23.5t28 73.5v731l-129 71v29l332 107h35l-8 -295q85 173 139 234
t139 61q55 0 84 -33v-184h-35q-110 0 -180.5 -24t-146.5 -108z" />
    <glyph glyph-name="Rcaron" unicode="&#x158;" horiz-adv-x="1421" 
d="M1001 1858l-262 -324h-164l-262 324h64l280 -183l281 183h63zM586 1362h-115v-664h121q169 0 252.5 89t83.5 255q0 142 -87 231t-255 89zM471 623v-416q0 -36 4.5 -58t13 -37.5t31 -24.5t48.5 -14.5t75 -11.5v-61h-586v61q49 6 75 11.5t48.5 14.5t31 24.5t13 37.5t4.5 58
v1024q0 30 -2 49.5t-10 35t-18.5 24.5t-32 16t-45 11t-64.5 9v62h594q253 0 391 -108t138 -288q0 -82 -32.5 -151.5t-86 -115t-112 -74.5t-120.5 -42l326 -426q71 -96 127 -132.5t139 -39.5v-61h-344q-69 48 -170 190l-311 433h-125z" />
    <glyph glyph-name="rcaron" unicode="&#x159;" horiz-adv-x="788" 
d="M793 1571l-230 -352h-164l-229 352h68l243 -211l244 211h68zM408 745v-581q0 -59 37 -79t141 -26v-59h-543v59q79 5 107 23.5t28 73.5v731l-129 71v29l332 107h35l-8 -295q85 173 139 234t139 61q55 0 84 -33v-184h-35q-110 0 -180.5 -24t-146.5 -108z" />
    <glyph glyph-name="Sacute" unicode="&#x15a;" horiz-adv-x="1091" 
d="M518 -20q-136 0 -253 37t-187 96l-15 350h72q36 -196 133 -303t250 -107q134 0 211.5 69t77.5 183q0 61 -17 105t-61.5 82t-105.5 69t-164 72q-73 29 -126 55t-104 63.5t-82 79.5t-50 100t-19 128q0 175 123 287t327 112q123 0 232 -31.5t186 -87.5v-305h-67
q-25 171 -114.5 260.5t-236.5 89.5q-114 0 -179.5 -64t-65.5 -167q0 -111 62.5 -171t236.5 -128q74 -30 128.5 -56t106 -58t85.5 -66t60.5 -75.5t39 -91.5t12.5 -110q0 -131 -68.5 -227t-179.5 -143t-248 -47zM602 1839h250v-12l-307 -293h-53z" />
    <glyph glyph-name="sacute" unicode="&#x15b;" horiz-adv-x="905" 
d="M510 1561h242v-13l-310 -331h-51zM442 -20q-107 0 -200.5 27t-155.5 73l-12 282h65q39 -145 116.5 -232t190.5 -87q92 0 149.5 46.5t57.5 133.5q0 82 -55 128.5t-195 99.5q-168 62 -241.5 135t-73.5 202q0 142 97 224t259 82q182 0 322 -86v-248h-59q-30 122 -97 196
t-172 74q-83 0 -128.5 -44t-45.5 -116q0 -75 52 -121t184 -94q171 -62 252.5 -138.5t81.5 -207.5q0 -154 -106.5 -241.5t-285.5 -87.5z" />
    <glyph glyph-name="Scircumflex" unicode="&#x15c;" horiz-adv-x="1091" 
d="M518 -20q-136 0 -253 37t-187 96l-15 350h72q36 -196 133 -303t250 -107q134 0 211.5 69t77.5 183q0 61 -17 105t-61.5 82t-105.5 69t-164 72q-73 29 -126 55t-104 63.5t-82 79.5t-50 100t-19 128q0 175 123 287t327 112q123 0 232 -31.5t186 -87.5v-305h-67
q-25 171 -114.5 260.5t-236.5 89.5q-114 0 -179.5 -64t-65.5 -167q0 -111 62.5 -171t236.5 -128q74 -30 128.5 -56t106 -58t85.5 -66t60.5 -75.5t39 -91.5t12.5 -110q0 -131 -68.5 -227t-179.5 -143t-248 -47zM643 1858l262 -324h-63l-281 182l-280 -182h-64l262 324h164z
" />
    <glyph glyph-name="scircumflex" unicode="&#x15d;" horiz-adv-x="905" 
d="M549 1567l229 -353h-67l-244 211l-244 -211h-67l229 353h164zM442 -20q-107 0 -200.5 27t-155.5 73l-12 282h65q39 -145 116.5 -232t190.5 -87q92 0 149.5 46.5t57.5 133.5q0 82 -55 128.5t-195 99.5q-168 62 -241.5 135t-73.5 202q0 142 97 224t259 82q182 0 322 -86
v-248h-59q-30 122 -97 196t-172 74q-83 0 -128.5 -44t-45.5 -116q0 -75 52 -121t184 -94q171 -62 252.5 -138.5t81.5 -207.5q0 -154 -106.5 -241.5t-285.5 -87.5z" />
    <glyph glyph-name="Scedilla" unicode="&#x15e;" horiz-adv-x="1091" 
d="M338 -457l-12 58q108 0 170.5 29.5t62.5 76.5q0 43 -42.5 63t-131.5 23l76 189q-120 7 -220.5 42.5t-162.5 88.5l-15 350h72q36 -196 133 -303t250 -107q134 0 211.5 69t77.5 183q0 61 -17 105t-61.5 82t-105.5 69t-164 72q-73 29 -126 55t-104 63.5t-82 79.5t-50 100
t-19 128q0 175 123 287t327 112q123 0 232 -31.5t186 -87.5v-305h-67q-25 171 -114.5 260.5t-236.5 89.5q-114 0 -179.5 -64t-65.5 -167q0 -111 62.5 -171t236.5 -128q74 -30 128.5 -56t106 -58t85.5 -66t60.5 -75.5t39 -91.5t12.5 -110q0 -131 -68.5 -227t-179.5 -143
t-248 -47l-29 -74q98 -2 153.5 -41t55.5 -115q0 -103 -99 -155t-261 -52z" />
    <glyph glyph-name="scedilla" unicode="&#x15f;" horiz-adv-x="905" 
d="M246 -457l-13 58q108 0 171 29.5t63 76.5q0 43 -42.5 63t-131.5 23l76 191q-178 18 -283 96l-12 282h65q39 -145 116.5 -232t190.5 -87q92 0 149.5 46.5t57.5 133.5q0 82 -55 128.5t-195 99.5q-168 62 -241.5 135t-73.5 202q0 142 97 224t259 82q182 0 322 -86v-248h-59
q-30 122 -97 196t-172 74q-83 0 -128.5 -44t-45.5 -116q0 -75 52 -121t184 -94q171 -62 252.5 -138.5t81.5 -207.5q0 -154 -106.5 -241.5t-285.5 -87.5h-16l-29 -74q98 -2 153.5 -41t55.5 -115q0 -103 -99 -155t-261 -52z" />
    <glyph glyph-name="Scaron" unicode="&#x160;" horiz-adv-x="1091" 
d="M518 -20q-136 0 -253 37t-187 96l-15 350h72q36 -196 133 -303t250 -107q134 0 211.5 69t77.5 183q0 61 -17 105t-61.5 82t-105.5 69t-164 72q-73 29 -126 55t-104 63.5t-82 79.5t-50 100t-19 128q0 175 123 287t327 112q123 0 232 -31.5t186 -87.5v-305h-67
q-25 171 -114.5 260.5t-236.5 89.5q-114 0 -179.5 -64t-65.5 -167q0 -111 62.5 -171t236.5 -128q74 -30 128.5 -56t106 -58t85.5 -66t60.5 -75.5t39 -91.5t12.5 -110q0 -131 -68.5 -227t-179.5 -143t-248 -47zM905 1858l-262 -324h-164l-262 324h64l280 -183l281 183h63z
" />
    <glyph glyph-name="scaron" unicode="&#x161;" horiz-adv-x="905" 
d="M778 1571l-229 -352h-164l-229 352h67l244 -211l244 211h67zM442 -20q-107 0 -200.5 27t-155.5 73l-12 282h65q39 -145 116.5 -232t190.5 -87q92 0 149.5 46.5t57.5 133.5q0 82 -55 128.5t-195 99.5q-168 62 -241.5 135t-73.5 202q0 142 97 224t259 82q182 0 322 -86
v-248h-59q-30 122 -97 196t-172 74q-83 0 -128.5 -44t-45.5 -116q0 -75 52 -121t184 -94q171 -62 252.5 -138.5t81.5 -207.5q0 -154 -106.5 -241.5t-285.5 -87.5z" />
    <glyph glyph-name="Tcedilla" unicode="&#x162;" horiz-adv-x="1343" 
d="M709 -307h-97q-86 17 -86 104q0 51 36 82t95 31q73 0 115.5 -46.5t42.5 -117.5q0 -98 -67.5 -157.5t-200.5 -59.5v53q76 0 119 32.5t43 78.5zM59 1438h1225l31 -449h-53q-35 85 -56 132t-48 97t-48 73.5t-50 44.5t-61 27.5t-75 6.5h-131v-1169q0 -29 3.5 -49t16 -34.5
t23.5 -23t38.5 -15t47 -9.5t63.5 -9v-61h-627v61q34 4 49.5 6.5t40 7t35 8.5t25.5 11.5t21 16.5t13 22t9 29.5t2 38.5v1169h-133q-43 0 -75 -6.5t-61 -27.5t-50 -45t-47.5 -73.5t-47 -97t-55.5 -131.5h-55z" />
    <glyph glyph-name="tcedilla" unicode="&#x163;" horiz-adv-x="700" 
d="M391 -307h-96q-86 17 -86 104q0 51 36 82t95 31q73 0 115.5 -46.5t42.5 -117.5q0 -98 -68 -157.5t-201 -59.5v53q76 0 119 32.5t43 78.5zM362 1333v-260h281v-84h-281v-678q0 -103 38.5 -149.5t119.5 -46.5t158 57l22 -31q-108 -161 -290 -161q-126 0 -200.5 74
t-74.5 233v702h-133v37q182 90 311 307h49z" />
    <glyph glyph-name="Tcaron" unicode="&#x164;" horiz-adv-x="1343" 
d="M1016 1858l-262 -324h-164l-262 324h63l281 -183l280 183h64zM59 1438h1225l31 -449h-53q-35 85 -56 132t-48 97t-48 73.5t-50 44.5t-61 27.5t-75 6.5h-131v-1169q0 -29 3.5 -49t16 -34.5t23.5 -23t38.5 -15t47 -9.5t63.5 -9v-61h-627v61q34 4 49.5 6.5t40 7t35 8.5
t25.5 11.5t21 16.5t13 22t9 29.5t2 38.5v1169h-133q-43 0 -75 -6.5t-61 -27.5t-50 -45t-47.5 -73.5t-47 -97t-55.5 -131.5h-55z" />
    <glyph glyph-name="tcaron" unicode="&#x165;" horiz-adv-x="700" 
d="M715 1591l-219 -407h-35l37 420h217v-13zM362 1333v-260h281v-84h-281v-678q0 -103 38.5 -149.5t119.5 -46.5t158 57l22 -31q-108 -161 -290 -161q-126 0 -200.5 74t-74.5 233v702h-133v37q182 90 311 307h49z" />
    <glyph glyph-name="Tbar" unicode="&#x166;" horiz-adv-x="1343" 
d="M59 1438h1225l31 -449h-53q-35 85 -56 132t-48 97t-48 73.5t-50 44.5t-61 27.5t-75 6.5h-131v-588h239v-84h-239v-497q0 -29 3.5 -49t16 -34.5t23.5 -23t38.5 -15t47 -9.5t63.5 -9v-61h-627v61q34 4 49.5 6.5t40 7t35 8.5t25.5 11.5t21 16.5t13 22t9 29.5t2 38.5v497
h-240v84h240v588h-133q-43 0 -75 -6.5t-61 -27.5t-50 -45t-47.5 -73.5t-47 -97t-55.5 -131.5h-55z" />
    <glyph glyph-name="tbar" unicode="&#x167;" horiz-adv-x="731" 
d="M377 1333v-260h280v-84h-280v-227h280v-82h-280v-369q0 -103 38.5 -149.5t119.5 -46.5q80 0 157 57l23 -31q-48 -72 -122 -116.5t-169 -44.5q-125 0 -199.5 74t-74.5 233v393h-134v82h134v227h-134v37q183 91 312 307h49z" />
    <glyph glyph-name="Utilde" unicode="&#x168;" horiz-adv-x="1476" 
d="M924 1534q-38 0 -80.5 19t-74 41.5t-69 41.5t-67.5 19q-44 0 -79 -27.5t-69 -87.5l-45 25q57 137 105.5 191t120.5 54q48 0 101.5 -30t102.5 -60t86 -30q44 0 79 27.5t69 88.5l45 -26q-57 -137 -105.5 -191.5t-119.5 -54.5zM434 1231v-719q0 -195 89 -303.5t255 -108.5
q195 0 302.5 104t107.5 322v703q0 85 -35 110t-164 37v62h465v-62q-60 -7 -90 -14t-51.5 -23.5t-27 -40.5t-5.5 -69v-740q0 -102 -26.5 -186t-74 -143t-113.5 -100t-144.5 -60.5t-167.5 -19.5q-265 0 -412 129t-147 387v735q0 84 -30.5 107.5t-144.5 37.5v62h588v-62
q-62 -7 -91.5 -13.5t-51 -23t-26.5 -40t-5 -68.5z" />
    <glyph glyph-name="utilde" unicode="&#x169;" horiz-adv-x="1175" 
d="M1010 866v-659q0 -56 14 -73t76 -23l53 -5v-53l-338 -73h-41l8 194q-87 -91 -169 -142.5t-185 -51.5q-138 0 -212.5 79.5t-74.5 245.5v551q0 56 -20 78.5t-84 32.5l-33 4v55l342 66h33l-10 -234v-516q0 -219 172 -219q65 0 119 25t122 73v635q0 56 -19.5 78.5t-84.5 32.5
l-31 4v55l338 66h33zM707 1231q-38 0 -78 19t-68.5 41.5t-63.5 41.5t-65 19q-43 0 -73.5 -26.5t-65.5 -88.5l-45 25q60 141 103.5 193t113.5 52q38 0 78 -19t68 -41.5t63 -41.5t65 -19q43 0 74 27t66 90l45 -24q-59 -141 -103 -194.5t-114 -53.5z" />
    <glyph glyph-name="Umacron" unicode="&#x16a;" horiz-adv-x="1476" 
d="M500 1573v119h581v-119h-581zM434 1231v-719q0 -195 89 -303.5t255 -108.5q195 0 302.5 104t107.5 322v703q0 85 -35 110t-164 37v62h465v-62q-60 -7 -90 -14t-51.5 -23.5t-27 -40.5t-5.5 -69v-740q0 -102 -26.5 -186t-74 -143t-113.5 -100t-144.5 -60.5t-167.5 -19.5
q-265 0 -412 129t-147 387v735q0 84 -30.5 107.5t-144.5 37.5v62h588v-62q-62 -7 -91.5 -13.5t-51 -23t-26.5 -40t-5 -68.5z" />
    <glyph glyph-name="umacron" unicode="&#x16b;" horiz-adv-x="1175" 
d="M1010 866v-659q0 -56 14 -73t76 -23l53 -5v-53l-338 -73h-41l8 194q-87 -91 -169 -142.5t-185 -51.5q-138 0 -212.5 79.5t-74.5 245.5v551q0 56 -20 78.5t-84 32.5l-33 4v55l342 66h33l-10 -234v-516q0 -219 172 -219q65 0 119 25t122 73v635q0 56 -19.5 78.5t-84.5 32.5
l-31 4v55l338 66h33zM319 1276v119h531v-119h-531z" />
    <glyph glyph-name="Ubreve" unicode="&#x16c;" horiz-adv-x="1476" 
d="M791 1528q-137 0 -215 81.5t-78 239.5h63q26 -178 230 -178q203 0 229 178h61q0 -158 -76.5 -239.5t-213.5 -81.5zM434 1231v-719q0 -195 89 -303.5t255 -108.5q195 0 302.5 104t107.5 322v703q0 85 -35 110t-164 37v62h465v-62q-60 -7 -90 -14t-51.5 -23.5t-27 -40.5
t-5.5 -69v-740q0 -102 -26.5 -186t-74 -143t-113.5 -100t-144.5 -60.5t-167.5 -19.5q-265 0 -412 129t-147 387v735q0 84 -30.5 107.5t-144.5 37.5v62h588v-62q-62 -7 -91.5 -13.5t-51 -23t-26.5 -40t-5 -68.5z" />
    <glyph glyph-name="ubreve" unicode="&#x16d;" horiz-adv-x="1175" 
d="M1010 866v-659q0 -56 14 -73t76 -23l53 -5v-53l-338 -73h-41l8 194q-87 -91 -169 -142.5t-185 -51.5q-138 0 -212.5 79.5t-74.5 245.5v551q0 56 -20 78.5t-84 32.5l-33 4v55l342 66h33l-10 -234v-516q0 -219 172 -219q65 0 119 25t122 73v635q0 56 -19.5 78.5t-84.5 32.5
l-31 4v55l338 66h33zM586 1221q-131 0 -200 83.5t-69 245.5h68q16 -186 201 -186q182 0 198 186h68q0 -162 -68 -245.5t-198 -83.5z" />
    <glyph glyph-name="Uring" unicode="&#x16e;" horiz-adv-x="1476" 
d="M434 1231v-719q0 -195 89 -303.5t255 -108.5q195 0 302.5 104t107.5 322v703q0 85 -35 110t-164 37v62h465v-62q-60 -7 -90 -14t-51.5 -23.5t-27 -40.5t-5.5 -69v-740q0 -102 -26.5 -186t-74 -143t-113.5 -100t-144.5 -60.5t-167.5 -19.5q-265 0 -412 129t-147 387v735
q0 84 -30.5 107.5t-144.5 37.5v62h588v-62q-62 -7 -91.5 -13.5t-51 -23t-26.5 -40t-5 -68.5zM682 1683q0 -51 29 -83.5t80 -32.5t79.5 32.5t28.5 83.5t-28.5 83t-79.5 32t-80 -32t-29 -83zM606 1683q0 78 53 130.5t132 52.5t131.5 -52.5t52.5 -130.5t-52.5 -131t-131.5 -53
t-132 53t-53 131z" />
    <glyph glyph-name="uring" unicode="&#x16f;" horiz-adv-x="1175" 
d="M475 1348q0 -51 29 -83t80 -32t79.5 32t28.5 83t-28.5 83.5t-79.5 32.5t-80 -32.5t-29 -83.5zM399 1348q0 78 53 131t132 53t131.5 -53t52.5 -131t-52.5 -130.5t-131.5 -52.5t-132 52.5t-53 130.5zM1010 866v-659q0 -56 14 -73t76 -23l53 -5v-53l-338 -73h-41l8 194
q-87 -91 -169 -142.5t-185 -51.5q-138 0 -212.5 79.5t-74.5 245.5v551q0 56 -20 78.5t-84 32.5l-33 4v55l342 66h33l-10 -234v-516q0 -219 172 -219q65 0 119 25t122 73v635q0 56 -19.5 78.5t-84.5 32.5l-31 4v55l338 66h33z" />
    <glyph glyph-name="Uhungarumlaut" unicode="&#x170;" horiz-adv-x="1476" 
d="M434 1231v-719q0 -195 89 -303.5t255 -108.5q195 0 302.5 104t107.5 322v703q0 85 -35 110t-164 37v62h465v-62q-60 -7 -90 -14t-51.5 -23.5t-27 -40.5t-5.5 -69v-740q0 -102 -26.5 -186t-74 -143t-113.5 -100t-144.5 -60.5t-167.5 -19.5q-265 0 -412 129t-147 387v735
q0 84 -30.5 107.5t-144.5 37.5v62h588v-62q-62 -7 -91.5 -13.5t-51 -23t-26.5 -40t-5 -68.5zM715 1839h223v-12l-287 -293h-55zM1024 1839h225v-12l-286 -293h-56z" />
    <glyph glyph-name="uhungarumlaut" unicode="&#x171;" horiz-adv-x="1175" 
d="M1010 866v-659q0 -56 14 -73t76 -23l53 -5v-53l-338 -73h-41l8 194q-87 -91 -169 -142.5t-185 -51.5q-138 0 -212.5 79.5t-74.5 245.5v551q0 56 -20 78.5t-84 32.5l-33 4v55l342 66h33l-10 -234v-516q0 -219 172 -219q65 0 119 25t122 73v635q0 56 -19.5 78.5t-84.5 32.5
l-31 4v55l338 66h33zM494 1561h223v-13l-289 -331h-53zM803 1561h225v-13l-291 -331h-51z" />
    <glyph glyph-name="Uogonek" unicode="&#x172;" horiz-adv-x="1476" 
d="M434 1231v-719q0 -195 89 -303.5t255 -108.5q195 0 302.5 104t107.5 322v703q0 85 -35 110t-164 37v62h465v-62q-60 -7 -90 -14t-51.5 -23.5t-27 -40.5t-5.5 -69v-740q0 -194 -91 -316.5t-247 -168.5q-199 -89 -199 -225q0 -48 25.5 -77.5t75.5 -29.5q46 0 82 16t82 54
l22 -27q-115 -147 -260 -147q-79 0 -128.5 46t-49.5 120q0 149 211 248q-8 0 -24.5 -1t-24.5 -1q-265 0 -412 129t-147 387v735q0 84 -30.5 107.5t-144.5 37.5v62h588v-62q-62 -7 -91.5 -13.5t-51 -23t-26.5 -40t-5 -68.5z" />
    <glyph glyph-name="uogonek" unicode="&#x173;" horiz-adv-x="1175" 
d="M1010 866v-659q0 -56 14 -73t76 -23l53 -5v-53q-170 -37 -266 -77.5t-133 -86.5t-37 -110q0 -48 24.5 -77.5t73.5 -29.5q46 0 83 16t81 54l22 -27q-115 -147 -258 -147q-80 0 -130 46t-50 122q0 79 54 134.5t157 104.5l8 199q-87 -91 -169 -142.5t-185 -51.5
q-138 0 -212.5 79.5t-74.5 245.5v551q0 56 -20 78.5t-84 32.5l-33 4v55l342 66h33l-10 -234v-516q0 -219 172 -219q65 0 119 25t122 73v635q0 56 -19.5 78.5t-84.5 32.5l-31 4v55l338 66h33z" />
    <glyph glyph-name="Wcircumflex" unicode="&#x174;" horiz-adv-x="1923" 
d="M1268 -16l-285 852l-305 -852h-72l-475 1316q-12 36 -41.5 51.5t-79.5 24.5v62h557v-62q-94 -5 -131 -23.5t-37 -62.5q0 -12 3 -26t9 -33.5t9 -30.5l305 -862l221 612l-117 350q-11 38 -38 52.5t-78 23.5v62h542v-62q-98 -3 -136 -22.5t-38 -65.5q0 -24 21 -92l276 -848
l287 848q23 63 23 88q0 46 -39.5 67t-137.5 25v62h402v-62q-35 -6 -53 -11.5t-38 -21.5t-28 -43l-457 -1316h-69zM1075 1858l262 -324h-63l-281 182l-280 -182h-64l262 324h164z" />
    <glyph glyph-name="wcircumflex" unicode="&#x175;" horiz-adv-x="1644" 
d="M926 1567l229 -353h-68l-243 211l-244 -211h-68l230 353h164zM1190 287l231 604q11 25 11 51q0 36 -31 50t-105 22v59h338v-59q-54 -13 -72.5 -27.5t-31.5 -48.5l-379 -956h-68l-245 680l-267 -680h-65l-391 956q-14 34 -33 48.5t-72 27.5v59h488v-59q-71 -8 -100 -22
t-29 -48q0 -28 10 -53l231 -612l189 493l-62 166q-11 34 -30 49t-70 27v59h469v-59q-76 -8 -106.5 -21.5t-30.5 -50.5q0 -18 10 -51z" />
    <glyph glyph-name="Ycircumflex" unicode="&#x176;" horiz-adv-x="1312" 
d="M772 569v-368q0 -22 2 -38.5t9 -29.5t13 -22t21 -16.5t25 -11.5t34.5 -8.5t40 -7t48.5 -6.5v-61h-617v61q38 5 55 7.5t43.5 8t37 11t25.5 15.5t20.5 23t9.5 31.5t4 43.5v366l-412 733q-22 37 -48 52.5t-73 23.5v62h565v-62q-99 -3 -135.5 -19.5t-36.5 -56.5
q0 -36 39 -102l299 -524l289 520q37 76 37 109q0 39 -36.5 54.5t-135.5 18.5v62h408v-62q-44 -8 -72 -24.5t-49 -51.5zM780 1858l262 -324h-63l-281 182l-280 -182h-64l262 324h164z" />
    <glyph glyph-name="ycircumflex" unicode="&#x177;" horiz-adv-x="1110" 
d="M645 233l244 656q12 37 12 57q0 33 -28.5 45.5t-112.5 22.5v59h340v-59q-53 -13 -72.5 -28t-32.5 -48l-442 -1143q-49 -126 -105.5 -185t-148.5 -59q-51 0 -95 27.5t-57 71.5v80q74 -19 127 -19q89 0 141.5 33.5t86.5 124.5l37 98l-424 971q-14 34 -33 48.5t-72 27.5v59
h500v-59q-84 -10 -112.5 -22.5t-28.5 -45.5q0 -20 12 -57zM690 1567l230 -353h-68l-244 211l-243 -211h-68l229 353h164z" />
    <glyph glyph-name="Ydieresis" unicode="&#x178;" horiz-adv-x="1312" 
d="M772 569v-368q0 -22 2 -38.5t9 -29.5t13 -22t21 -16.5t25 -11.5t34.5 -8.5t40 -7t48.5 -6.5v-61h-617v61q38 5 55 7.5t43.5 8t37 11t25.5 15.5t20.5 23t9.5 31.5t4 43.5v366l-412 733q-22 37 -48 52.5t-73 23.5v62h565v-62q-99 -3 -135.5 -19.5t-36.5 -56.5
q0 -36 39 -102l299 -524l289 520q37 76 37 109q0 39 -36.5 54.5t-135.5 18.5v62h408v-62q-44 -8 -72 -24.5t-49 -51.5zM362 1683q0 57 39.5 97.5t96.5 40.5q58 0 98.5 -40.5t40.5 -97.5q0 -56 -40.5 -96.5t-98.5 -40.5q-57 0 -96.5 40.5t-39.5 96.5zM762 1683q0 57 39 97.5
t96 40.5q58 0 97.5 -40.5t39.5 -97.5q0 -56 -39.5 -96.5t-97.5 -40.5q-56 0 -95.5 40.5t-39.5 96.5z" />
    <glyph glyph-name="Zacute" unicode="&#x179;" horiz-adv-x="1214" 
d="M338 74h405q37 0 67 6t55 16t50 33t44.5 44.5t47 64.5t49 80.5t58.5 103.5h60l-68 -422h-1065v41l805 1323h-397q-36 0 -65 -6t-51 -14.5t-43.5 -31t-36 -41t-35 -60.5t-34.5 -73t-41 -94h-55l12 394h1039v-43zM647 1839h250v-12l-307 -293h-53z" />
    <glyph glyph-name="zacute" unicode="&#x17a;" horiz-adv-x="1007" 
d="M578 1561h241v-13l-309 -331h-51zM61 0v35l609 962h-275q-87 0 -140 -63t-108 -225h-55l33 430h51l25 -70h735v-41l-596 -956h295q84 0 142 68t116 241h55l-37 -381h-850z" />
    <glyph glyph-name="Zdotaccent" unicode="&#x17b;" horiz-adv-x="1214" 
d="M610 1542q-62 0 -103.5 42.5t-41.5 103.5q0 59 41.5 101t103.5 42q64 0 106 -42t42 -101q0 -61 -42 -103.5t-106 -42.5zM338 74h405q37 0 67 6t55 16t50 33t44.5 44.5t47 64.5t49 80.5t58.5 103.5h60l-68 -422h-1065v41l805 1323h-397q-36 0 -65 -6t-51 -14.5t-43.5 -31
t-36 -41t-35 -60.5t-34.5 -73t-41 -94h-55l12 394h1039v-43z" />
    <glyph glyph-name="zdotaccent" unicode="&#x17c;" horiz-adv-x="1007" 
d="M61 0v35l609 962h-275q-87 0 -140 -63t-108 -225h-55l33 430h51l25 -70h735v-41l-596 -956h295q84 0 142 68t116 241h55l-37 -381h-850zM532 1239q-62 0 -103.5 42.5t-41.5 102.5t41.5 103t103.5 43q63 0 105.5 -43t42.5 -103t-42.5 -102.5t-105.5 -42.5z" />
    <glyph glyph-name="Zcaron" unicode="&#x17d;" horiz-adv-x="1214" 
d="M954 1858l-262 -324h-164l-262 324h64l280 -183l281 183h63zM338 74h405q37 0 67 6t55 16t50 33t44.5 44.5t47 64.5t49 80.5t58.5 103.5h60l-68 -422h-1065v41l805 1323h-397q-36 0 -65 -6t-51 -14.5t-43.5 -31t-36 -41t-35 -60.5t-34.5 -73t-41 -94h-55l12 394h1039v-43
z" />
    <glyph glyph-name="zcaron" unicode="&#x17e;" horiz-adv-x="1007" 
d="M844 1571l-230 -352h-163l-230 352h68l243 -211l244 211h68zM61 0v35l609 962h-275q-87 0 -140 -63t-108 -225h-55l33 430h51l25 -70h735v-41l-596 -956h295q84 0 142 68t116 241h55l-37 -381h-850z" />
    <glyph glyph-name="florin" unicode="&#x192;" horiz-adv-x="1046" 
d="M170 672l8 65h187l20 144q36 285 139 431t287 146q107 0 163 -42.5t56 -115.5q0 -92 -102 -120h-54q-1 49 -4.5 82.5t-13 69.5t-29.5 54.5t-51 18.5q-97 0 -119 -174l-65 -494h225l-8 -65h-225l-54 -418q-36 -285 -138.5 -431.5t-285.5 -146.5q-107 0 -164 42.5
t-57 115.5q0 90 103 123h53q1 -50 4.5 -84t13 -70t29.5 -54.5t51 -18.5q97 0 119 174l98 768h-186z" />
    <glyph glyph-name="Aringacute" unicode="&#x1fa;" horiz-adv-x="1456" 
d="M1034 233l-104 256h-572l-98 -256q-20 -48 -20 -79q0 -47 41 -67.5t141 -25.5v-61h-412v61q34 6 53.5 12t39 22t28.5 42l461 1172l-62 143h258l537 -1315q14 -36 42.5 -51.5t78.5 -24.5v-61h-572v61q97 3 138 23.5t41 67.5q0 32 -19 81zM639 1208l-250 -643h510z
M489 1667q0 73 53.5 121.5t133.5 48.5t133 -48.5t53 -121.5q0 -72 -53 -120t-133 -48t-133.5 48t-53.5 120zM702 2122h252v-13l-286 -233h-54zM563 1667q0 -46 30.5 -75t82.5 -29t81 28.5t29 75.5q0 48 -29 77.5t-81 29.5t-82.5 -29.5t-30.5 -77.5z" />
    <glyph glyph-name="aringacute" unicode="&#x1fb;" horiz-adv-x="1036" 
d="M319 1305q0 73 53.5 121.5t133.5 48.5q81 0 133.5 -48t52.5 -122q0 -72 -52.5 -120t-133.5 -48q-80 0 -133.5 48t-53.5 120zM532 1761h252v-12l-286 -233h-54zM395 1305q0 -47 29.5 -76t81.5 -29t82 29t30 76t-30 76.5t-82 29.5q-51 0 -81 -29.5t-30 -76.5zM446 119
q50 0 93.5 21.5t103.5 68.5v385l-215 -88q-77 -30 -114.5 -76t-37.5 -125q0 -86 43 -136t127 -50zM872 770v-543q0 -64 16.5 -94.5t57.5 -30.5q36 0 88 23l13 -37q-79 -108 -213 -108q-78 0 -126.5 48t-60.5 134q-150 -180 -323 -180q-123 0 -196 70.5t-73 189.5
q0 63 21 112t63.5 84.5t89 59.5t113.5 49l301 110v156q0 103 -41 163t-129 60q-78 0 -116 -48.5t-38 -129.5q0 -42 17 -115l-135 -18q-40 12 -63 43t-23 76q0 118 108 184t275 66q187 0 280.5 -78.5t93.5 -245.5z" />
    <glyph glyph-name="AEacute" unicode="&#x1fc;" horiz-adv-x="2066" 
d="M131 137l754 1157q-25 69 -211 82v62h1268l10 -355h-51q-71 166 -133.5 223.5t-176.5 57.5h-331v-584h296q65 0 96.5 44t47.5 143h63v-449h-63q-16 99 -47.5 141.5t-96.5 42.5h-296v-489q0 -80 44 -109.5t148 -29.5h162q58 0 101 15.5t85 57.5t76.5 93.5t89.5 146.5h59
l-63 -387h-1116v61q115 14 144.5 37.5t29.5 108.5v299h-549l-176 -273q-33 -51 -33 -83q0 -86 195 -89v-61h-447v61q42 7 68.5 23.5t52.5 52.5zM1020 1348l-500 -768h500v768zM1350 1839h249v-12l-307 -293h-53z" />
    <glyph glyph-name="aeacute" unicode="&#x1fd;" horiz-adv-x="1527" 
d="M1081 1094q190 0 295 -118t105 -304v-45h-666q-7 -227 88.5 -355.5t257.5 -128.5q102 0 174.5 43.5t128.5 130.5l29 -14q-40 -147 -149 -235t-271 -88q-123 0 -218 50.5t-155 141.5q-158 -190 -374 -190q-124 0 -197.5 70.5t-73.5 189.5q0 63 21 112t63.5 84.5t89 59.5
t113.5 49l279 96q8 48 24 100q0 131 -44.5 212t-137.5 81q-71 0 -107.5 -49t-36.5 -129q0 -42 17 -115l-135 -18q-40 12 -63 43t-23 76q0 117 104.5 183.5t259.5 66.5q101 0 176 -35t115 -101q130 136 311 136zM451 119q112 0 227 92q-68 133 -68 297q0 44 2 67l-180 -67
q-79 -31 -117.5 -77t-38.5 -126q0 -86 44 -136t131 -50zM1063 1024q-105 0 -166.5 -91.5t-75.5 -238.5h447q0 150 -50 240t-155 90zM860 1561h242v-13l-309 -331h-52z" />
    <glyph glyph-name="Oslashacute" unicode="&#x1fe;" horiz-adv-x="1449" 
d="M715 -20q-210 0 -361 104l-131 -195l-59 41l133 197q-114 98 -174 246t-60 317q0 172 52 317t141.5 243.5t212.5 153t264 54.5q218 0 379 -119l123 183l59 -41l-127 -189q105 -99 161 -241.5t56 -302.5q0 -172 -51.5 -317t-141.5 -243.5t-212.5 -153t-263.5 -54.5z
M324 725q0 -251 84 -432l604 899q-109 190 -297 190q-125 0 -215.5 -92.5t-133 -238.5t-42.5 -326zM733 55q94 0 169 53.5t122.5 145t72.5 209t25 250.5q0 229 -73 403l-600 -893q109 -168 284 -168zM766 1839h250v-12l-307 -293h-54z" />
    <glyph glyph-name="oslashacute" unicode="&#x1ff;" horiz-adv-x="1099" 
d="M545 -20q-157 0 -275 73l-100 -153l-57 34l104 158q-170 147 -170 420q0 129 39 238.5t107 184.5t161.5 117t200.5 42q152 0 272 -74l105 158l57 -35l-108 -164q82 -69 127 -177t45 -239q0 -260 -144.5 -421.5t-363.5 -161.5zM555 47q123 0 189.5 123t66.5 332
q0 176 -41 307l-410 -621q69 -141 195 -141zM291 571q0 -181 39 -305l409 621q-69 139 -194 139q-123 0 -188.5 -123t-65.5 -332zM594 1561h242v-13l-310 -331h-51z" />
    <glyph glyph-name="Scommaaccent" unicode="&#x218;" horiz-adv-x="1091" 
d="M578 -307h-97q-86 17 -86 104q0 51 36 82t95 31q73 0 115.5 -46.5t42.5 -117.5q0 -98 -67.5 -157.5t-200.5 -59.5v53q76 0 119 32.5t43 78.5zM518 -20q-136 0 -253 37t-187 96l-15 350h72q36 -196 133 -303t250 -107q134 0 211.5 69t77.5 183q0 61 -17 105t-61.5 82
t-105.5 69t-164 72q-73 29 -126 55t-104 63.5t-82 79.5t-50 100t-19 128q0 175 123 287t327 112q123 0 232 -31.5t186 -87.5v-305h-67q-25 171 -114.5 260.5t-236.5 89.5q-114 0 -179.5 -64t-65.5 -167q0 -111 62.5 -171t236.5 -128q74 -30 128.5 -56t106 -58t85.5 -66
t60.5 -75.5t39 -91.5t12.5 -110q0 -131 -68.5 -227t-179.5 -143t-248 -47z" />
    <glyph glyph-name="scommaaccent" unicode="&#x219;" horiz-adv-x="905" 
d="M500 -307h-97q-86 17 -86 104q0 51 36.5 82t95.5 31q73 0 115 -46.5t42 -117.5q0 -98 -67.5 -157.5t-200.5 -59.5v53q76 0 119 32.5t43 78.5zM442 -20q-107 0 -200.5 27t-155.5 73l-12 282h65q39 -145 116.5 -232t190.5 -87q92 0 149.5 46.5t57.5 133.5q0 82 -55 128.5
t-195 99.5q-168 62 -241.5 135t-73.5 202q0 142 97 224t259 82q182 0 322 -86v-248h-59q-30 122 -97 196t-172 74q-83 0 -128.5 -44t-45.5 -116q0 -75 52 -121t184 -94q171 -62 252.5 -138.5t81.5 -207.5q0 -154 -106.5 -241.5t-285.5 -87.5z" />
    <glyph glyph-name="uni0237" unicode="&#x237;" horiz-adv-x="526" 
d="M154 887l-129 71v29l325 107h33v-912q0 -142 -15.5 -212t-58.5 -140q-82 -130 -274 -283l-33 27l84 145q45 77 56.5 161.5t11.5 232.5v774z" />
    <glyph glyph-name="circumflex" unicode="&#x2c6;" 
d="M594 1567l229 -353h-67l-244 211l-244 -211h-67l229 353h164z" />
    <glyph glyph-name="caron" unicode="&#x2c7;" 
d="M823 1571l-229 -352h-164l-229 352h67l244 -211l244 211h67z" />
    <glyph glyph-name="breve" unicode="&#x2d8;" 
d="M516 1221q-131 0 -199.5 83.5t-68.5 245.5h67q16 -186 201 -186q183 0 199 186h67q0 -162 -68 -245.5t-198 -83.5z" />
    <glyph glyph-name="dotaccent" unicode="&#x2d9;" 
d="M510 1239q-62 0 -103.5 42.5t-41.5 102.5t41.5 103t103.5 43q63 0 105 -43t42 -103t-42 -102.5t-105 -42.5z" />
    <glyph glyph-name="ring" unicode="&#x2da;" 
d="M408 1348q0 -51 28.5 -83t79.5 -32t80 32t29 83t-29 83.5t-80 32.5t-79.5 -32.5t-28.5 -83.5zM332 1348q0 78 52.5 131t131.5 53t131.5 -53t52.5 -131t-52.5 -130.5t-131.5 -52.5t-131.5 52.5t-52.5 130.5z" />
    <glyph glyph-name="ogonek" unicode="&#x2db;" 
d="M666 47l12 -27q-234 -97 -234 -241q0 -48 25.5 -77.5t75.5 -29.5q46 0 82 16t82 54l22 -27q-115 -147 -260 -147q-79 0 -128.5 46t-49.5 120q0 47 22 89t54.5 72t86 60t99 49t111.5 43z" />
    <glyph glyph-name="tilde" unicode="&#x2dc;" 
d="M641 1231q-38 0 -78 19t-68 41.5t-63 41.5t-65 19q-43 0 -74 -26.5t-66 -88.5l-45 25q60 141 103.5 193t113.5 52q38 0 78 -19t68.5 -41.5t63.5 -41.5t65 -19q43 0 73.5 27t65.5 90l45 -24q-59 -141 -103 -194.5t-114 -53.5z" />
    <glyph glyph-name="hungarumlaut" unicode="&#x2dd;" 
d="M309 1561h223v-13l-288 -331h-54zM618 1561h226v-13l-291 -331h-51z" />
    <glyph glyph-name="pi" unicode="&#x3c0;" horiz-adv-x="1159" 
d="M688 326l66 596h-367q0 -313 -18 -517t-64 -405h-242v37q218 412 218 885h-236v172h1045l-35 -172h-164v-684q0 -138 115 -138q48 0 98 13l8 -31q-105 -102 -223 -102q-97 0 -153 54.5t-56 166.5q0 46 8 125z" />
    <glyph glyph-name="Wgrave" unicode="&#x1e80;" horiz-adv-x="1923" 
d="M1268 -16l-285 852l-305 -852h-72l-475 1316q-12 36 -41.5 51.5t-79.5 24.5v62h557v-62q-94 -5 -131 -23.5t-37 -62.5q0 -12 3 -26t9 -33.5t9 -30.5l305 -862l221 612l-117 350q-11 38 -38 52.5t-78 23.5v62h542v-62q-98 -3 -136 -22.5t-38 -65.5q0 -24 21 -92l276 -848
l287 848q23 63 23 88q0 46 -39.5 67t-137.5 25v62h402v-62q-35 -6 -53 -11.5t-38 -21.5t-28 -43l-457 -1316h-69zM719 1839h252l108 -305h-53l-307 293v12z" />
    <glyph glyph-name="wgrave" unicode="&#x1e81;" horiz-adv-x="1644" 
d="M1190 287l231 604q11 25 11 51q0 36 -31 50t-105 22v59h338v-59q-54 -13 -72.5 -27.5t-31.5 -48.5l-379 -956h-68l-245 680l-267 -680h-65l-391 956q-14 34 -33 48.5t-72 27.5v59h488v-59q-71 -8 -100 -22t-29 -48q0 -28 10 -53l231 -612l189 493l-62 166q-11 34 -30 49
t-70 27v59h469v-59q-76 -8 -106.5 -21.5t-30.5 -50.5q0 -18 10 -51zM571 1561h244l117 -344h-51l-310 331v13z" />
    <glyph glyph-name="Wacute" unicode="&#x1e82;" horiz-adv-x="1923" 
d="M1268 -16l-285 852l-305 -852h-72l-475 1316q-12 36 -41.5 51.5t-79.5 24.5v62h557v-62q-94 -5 -131 -23.5t-37 -62.5q0 -12 3 -26t9 -33.5t9 -30.5l305 -862l221 612l-117 350q-11 38 -38 52.5t-78 23.5v62h542v-62q-98 -3 -136 -22.5t-38 -65.5q0 -24 21 -92l276 -848
l287 848q23 63 23 88q0 46 -39.5 67t-137.5 25v62h402v-62q-35 -6 -53 -11.5t-38 -21.5t-28 -43l-457 -1316h-69zM1028 1839h250v-12l-307 -293h-53z" />
    <glyph glyph-name="wacute" unicode="&#x1e83;" horiz-adv-x="1644" 
d="M887 1561h241v-13l-309 -331h-51zM1190 287l231 604q11 25 11 51q0 36 -31 50t-105 22v59h338v-59q-54 -13 -72.5 -27.5t-31.5 -48.5l-379 -956h-68l-245 680l-267 -680h-65l-391 956q-14 34 -33 48.5t-72 27.5v59h488v-59q-71 -8 -100 -22t-29 -48q0 -28 10 -53
l231 -612l189 493l-62 166q-11 34 -30 49t-70 27v59h469v-59q-76 -8 -106.5 -21.5t-30.5 -50.5q0 -18 10 -51z" />
    <glyph glyph-name="Wdieresis" unicode="&#x1e84;" horiz-adv-x="1923" 
d="M1268 -16l-285 852l-305 -852h-72l-475 1316q-12 36 -41.5 51.5t-79.5 24.5v62h557v-62q-94 -5 -131 -23.5t-37 -62.5q0 -12 3 -26t9 -33.5t9 -30.5l305 -862l221 612l-117 350q-11 38 -38 52.5t-78 23.5v62h542v-62q-98 -3 -136 -22.5t-38 -65.5q0 -24 21 -92l276 -848
l287 848q23 63 23 88q0 46 -39.5 67t-137.5 25v62h402v-62q-35 -6 -53 -11.5t-38 -21.5t-28 -43l-457 -1316h-69zM657 1683q0 57 39.5 97.5t96.5 40.5q58 0 98.5 -40.5t40.5 -97.5q0 -56 -40.5 -96.5t-98.5 -40.5q-57 0 -96.5 40.5t-39.5 96.5zM1057 1683q0 57 39 97.5
t96 40.5q58 0 97.5 -40.5t39.5 -97.5q0 -56 -39.5 -96.5t-97.5 -40.5q-56 0 -95.5 40.5t-39.5 96.5z" />
    <glyph glyph-name="wdieresis" unicode="&#x1e85;" horiz-adv-x="1644" 
d="M516 1380q0 57 39 97.5t96 40.5q58 0 99 -40.5t41 -97.5t-41 -97t-99 -40q-57 0 -96 40t-39 97zM897 1380q0 57 40 97.5t97 40.5q58 0 97.5 -40.5t39.5 -97.5t-39.5 -97t-97.5 -40q-57 0 -97 40t-40 97zM1190 287l231 604q11 25 11 51q0 36 -31 50t-105 22v59h338v-59
q-54 -13 -72.5 -27.5t-31.5 -48.5l-379 -956h-68l-245 680l-267 -680h-65l-391 956q-14 34 -33 48.5t-72 27.5v59h488v-59q-71 -8 -100 -22t-29 -48q0 -28 10 -53l231 -612l189 493l-62 166q-11 34 -30 49t-70 27v59h469v-59q-76 -8 -106.5 -21.5t-30.5 -50.5q0 -18 10 -51z
" />
    <glyph glyph-name="Ygrave" unicode="&#x1ef2;" horiz-adv-x="1312" 
d="M772 569v-368q0 -22 2 -38.5t9 -29.5t13 -22t21 -16.5t25 -11.5t34.5 -8.5t40 -7t48.5 -6.5v-61h-617v61q38 5 55 7.5t43.5 8t37 11t25.5 15.5t20.5 23t9.5 31.5t4 43.5v366l-412 733q-22 37 -48 52.5t-73 23.5v62h565v-62q-99 -3 -135.5 -19.5t-36.5 -56.5
q0 -36 39 -102l299 -524l289 520q37 76 37 109q0 39 -36.5 54.5t-135.5 18.5v62h408v-62q-44 -8 -72 -24.5t-49 -51.5zM426 1839h252l108 -305h-53l-307 293v12z" />
    <glyph glyph-name="ygrave" unicode="&#x1ef3;" horiz-adv-x="1110" 
d="M645 233l244 656q12 37 12 57q0 33 -28.5 45.5t-112.5 22.5v59h340v-59q-53 -13 -72.5 -28t-32.5 -48l-442 -1143q-49 -126 -105.5 -185t-148.5 -59q-51 0 -95 27.5t-57 71.5v80q74 -19 127 -19q89 0 141.5 33.5t86.5 124.5l37 98l-424 971q-14 34 -33 48.5t-72 27.5v59
h500v-59q-84 -10 -112.5 -22.5t-28.5 -45.5q0 -20 12 -57zM336 1561h244l116 -344h-51l-309 331v13z" />
    <glyph glyph-name="endash" unicode="&#x2013;" horiz-adv-x="1105" 
d="M1044 573h-983v86h983v-86z" />
    <glyph glyph-name="emdash" unicode="&#x2014;" horiz-adv-x="1966" 
d="M1905 659v-86h-1844v86h1844z" />
    <glyph glyph-name="quoteleft" unicode="&#x2018;" horiz-adv-x="444" 
d="M199 1323h77q47 -10 77 -43t30 -86q0 -62 -42 -100.5t-103 -38.5q-72 0 -114 52.5t-42 137.5q0 126 80.5 207.5t226.5 91.5v-55q-86 -13 -134 -55.5t-56 -110.5z" />
    <glyph glyph-name="quoteright" unicode="&#x2019;" horiz-adv-x="444" 
d="M254 1266h-76q-47 10 -76.5 43t-29.5 86q0 62 42 100.5t103 38.5q72 0 114 -53t42 -138q0 -127 -80 -208t-227 -91v56q176 28 188 166z" />
    <glyph glyph-name="quotesinglbase" unicode="&#x201a;" horiz-adv-x="444" 
d="M254 0h-76q-47 10 -76.5 43t-29.5 86q0 63 41.5 101t103.5 38q72 0 114 -52.5t42 -135.5q0 -127 -80 -208t-227 -93v55q85 14 133.5 56.5t54.5 109.5z" />
    <glyph glyph-name="quotedblleft" unicode="&#x201c;" horiz-adv-x="796" 
d="M553 1323h76q47 -10 76.5 -43t29.5 -86q0 -62 -41 -100.5t-104 -38.5q-72 0 -114 52.5t-42 137.5q0 126 80.5 207.5t226.5 91.5v-55q-85 -14 -133.5 -56.5t-54.5 -109.5zM199 1323h77q47 -10 77 -43t30 -86q0 -62 -42 -100.5t-103 -38.5q-72 0 -114 52.5t-42 137.5
q0 126 80.5 207.5t226.5 91.5v-55q-86 -13 -134 -55.5t-56 -110.5z" />
    <glyph glyph-name="quotedblright" unicode="&#x201d;" horiz-adv-x="796" 
d="M254 1266h-76q-47 10 -76.5 43t-29.5 86q0 62 42 100.5t103 38.5q72 0 114 -53t42 -138q0 -127 -80 -208t-227 -91v56q176 28 188 166zM608 1266h-76q-47 10 -76.5 43t-29.5 86q0 62 41 100.5t102 38.5q72 0 114 -53t42 -138q0 -127 -79.5 -208t-227.5 -91v56
q175 27 190 166z" />
    <glyph glyph-name="quotedblbase" unicode="&#x201e;" horiz-adv-x="796" 
d="M254 0h-76q-47 10 -76.5 43t-29.5 86q0 63 41.5 101t103.5 38q72 0 114 -52.5t42 -135.5q0 -127 -80 -208t-227 -93v55q85 14 133.5 56.5t54.5 109.5zM608 0h-76q-47 10 -76.5 43t-29.5 86q0 63 40.5 101t102.5 38q72 0 114 -52.5t42 -135.5q0 -127 -79.5 -208
t-227.5 -93v55q86 13 134 55.5t56 110.5z" />
    <glyph glyph-name="dagger" unicode="&#x2020;" horiz-adv-x="733" 
d="M383 1210q0 -63 25.5 -113.5t64.5 -72.5v-16q-37 -55 -62.5 -231t-31.5 -398h-25q-6 222 -31.5 398t-62.5 231v16q39 22 64.5 72.5t25.5 113.5q-49 0 -121 -29.5t-108 -29.5t-58 21t-22 55t22 55t58 21t108 -30t121 -30q0 48 -29.5 121t-29.5 109t21 57.5t55 21.5
t54.5 -21.5t20.5 -57.5t-29.5 -109t-29.5 -121q49 0 121 30t108 30t58 -21t22 -55t-22 -55t-58 -21t-108 29.5t-121 29.5z" />
    <glyph glyph-name="daggerdbl" unicode="&#x2021;" horiz-adv-x="741" 
d="M356 967q0 35 -26 67t-66 41v17q44 25 67 59t23 94q-49 0 -121 -30.5t-108 -30.5t-58 21t-22 55q0 35 21.5 56t58.5 21q36 0 108 -30.5t121 -30.5q0 49 -29.5 105t-29.5 92t21 57.5t55 21.5t54.5 -21.5t20.5 -57.5t-29.5 -92t-29.5 -105q49 0 121 30.5t108 30.5
q37 0 58.5 -21t21.5 -56q0 -34 -22 -55t-58 -21t-108 30.5t-121 30.5q0 -60 23 -94t67 -59v-17q-40 -9 -66 -41t-26 -67q0 -36 26 -69t66 -40v-16q-43 -25 -66.5 -59.5t-23.5 -94.5q49 0 121 31t108 31q37 0 58.5 -21.5t21.5 -56.5q0 -34 -22 -55t-58 -21t-108 30.5
t-121 30.5q0 -49 29.5 -104.5t29.5 -91.5q0 -37 -20.5 -58.5t-54.5 -21.5t-55 22t-21 58t29.5 91.5t29.5 104.5q-49 0 -121 -30.5t-108 -30.5t-58 21t-22 55q0 35 21.5 56.5t58.5 21.5q36 0 108 -31t121 -31q0 60 -23.5 94.5t-66.5 59.5v16q40 7 66 40t26 69z" />
    <glyph glyph-name="bullet" unicode="&#x2022;" horiz-adv-x="653" 
d="M61 621q0 109 78 187.5t187 78.5q110 0 188 -78.5t78 -187.5q0 -110 -78 -188.5t-188 -78.5q-109 0 -187 78.5t-78 188.5z" />
    <glyph glyph-name="ellipsis" unicode="&#x2026;" horiz-adv-x="1314" 
d="M61 137q0 66 46 112t112 46q65 0 111.5 -46t46.5 -112t-46.5 -111.5t-111.5 -45.5q-66 0 -112 45.5t-46 111.5zM500 137q0 66 45.5 112t111.5 46q65 0 111.5 -46t46.5 -112t-46.5 -111.5t-111.5 -45.5q-66 0 -111.5 45.5t-45.5 111.5zM938 137q0 66 46 112t112 46
q65 0 111 -46t46 -112t-46 -111.5t-111 -45.5q-66 0 -112 45.5t-46 111.5z" />
    <glyph glyph-name="perthousand" unicode="&#x2030;" horiz-adv-x="2287" 
d="M1479 324q0 -157 -99 -250.5t-239 -93.5q-89 0 -165 40t-123.5 119.5t-47.5 184.5q0 155 99 248.5t237 93.5q140 0 239 -93.5t99 -248.5zM281 -20l897 1478h86l-899 -1478h-84zM63 1114q0 157 99 250.5t239 93.5t239 -93.5t99 -250.5q0 -155 -99 -248.5t-239 -93.5
t-239 93.5t-99 248.5zM1313 324q0 126 -42.5 206t-129.5 80t-128.5 -79.5t-41.5 -206.5t41.5 -207t128.5 -80t129.5 80t42.5 207zM229 1114q0 -127 42.5 -207t129.5 -80t128.5 80t41.5 207t-41.5 207t-128.5 80t-129.5 -80t-42.5 -207zM2058 324q0 126 -42.5 206t-129.5 80
t-128.5 -79.5t-41.5 -206.5t41.5 -207t128.5 -80t129.5 80t42.5 207zM2224 324q0 -157 -99 -250.5t-239 -93.5t-239 93.5t-99 250.5q0 155 99 248.5t239 93.5t239 -93.5t99 -248.5z" />
    <glyph glyph-name="guilsinglleft" unicode="&#x2039;" horiz-adv-x="585" 
d="M66 555v12l389 398h65l-239 -404l239 -403h-65z" />
    <glyph glyph-name="guilsinglright" unicode="&#x203a;" horiz-adv-x="585" 
d="M520 567v-12l-389 -397h-65l239 403l-239 404h65z" />
    <glyph glyph-name="fraction" unicode="&#x2044;" horiz-adv-x="579" 
d="M-201 -20l897 1478h86l-897 -1478h-86z" />
    <glyph glyph-name="Euro" unicode="&#x20ac;" horiz-adv-x="1323" 
d="M27 809v72h184q43 266 204.5 421.5t393.5 155.5q244 0 397 -125v-319h-63q-19 88 -44.5 153t-64 117t-94 78.5t-127.5 26.5q-78 0 -142 -41.5t-106.5 -113.5t-69.5 -161t-38 -192h514l-27 -72h-491q-2 -23 -2 -64q0 -67 2 -100h438l-27 -70h-407q47 -524 372 -524
q76 0 134.5 26.5t101.5 81.5t74 123t61 167h66l-35 -359q-196 -110 -410 -110q-272 0 -430.5 160.5t-187.5 434.5h-176v70h170v51q0 39 4 113h-174z" />
    <glyph glyph-name="uni2117" unicode="&#x2117;" horiz-adv-x="1622" 
d="M860 649h-104v-209q0 -48 31 -63.5t108 -18.5v-43h-401v43q61 2 82.5 17.5t21.5 64.5v564q0 50 -21 64.5t-83 16.5v43h364q155 0 234 -67.5t79 -167.5q0 -113 -77.5 -178.5t-233.5 -65.5zM756 1073v-371h80q88 0 135 49t47 138q0 80 -50 132t-143 52h-69zM129 719
q0 -189 86.5 -346.5t243.5 -250.5t352 -93t352 93t243.5 250.5t86.5 346.5t-86.5 346.5t-243.5 250.5t-352 93t-352 -93t-243.5 -250.5t-86.5 -346.5zM78 719q0 203 93 371.5t262 268t378 99.5t378 -99.5t262 -268t93 -371.5t-93 -371.5t-262 -268t-378 -99.5t-378 99.5
t-262 268t-93 371.5z" />
    <glyph glyph-name="trademark" unicode="&#x2122;" horiz-adv-x="1724" 
d="M700 1438l17 -207h-35q-40 87 -74 124.5t-94 37.5h-45v-529q0 -36 22.5 -48t77.5 -15v-43h-348v43q53 3 75.5 15t22.5 48v529h-45q-59 0 -91.5 -36.5t-73.5 -125.5h-35l14 207h612zM1184 963l157 415q1 5 4.5 16t6 22t4.5 22h205v-43q-45 -3 -61.5 -22.5t-18.5 -55.5
l59 -465q4 -28 22 -38t60 -13v-43h-315v43q54 3 73 13t19 40q0 16 -8 70l-41 329l-189 -499h-37l-204 499l-41 -327q-7 -51 -7 -72q0 -30 19 -40t74 -13v-43h-236v43q74 3 80 51l61 465q-4 73 -82 78v43h216q3 -35 14 -60z" />
    <glyph glyph-name="Omega" unicode="&#x2126;" horiz-adv-x="1441" 
d="M721 1399q-76 0 -135.5 -35.5t-96 -92.5t-60.5 -134.5t-33 -154t-9 -159.5q0 -220 66 -391.5t186 -279.5v-152h-506l-51 367h47q28 -52 45 -81t39 -55.5t39 -38t46.5 -20t59.5 -10.5t80 -2h125q-78 34 -153 99t-137 149.5t-100 194t-38 220.5q0 183 69.5 326t203.5 226
t313 83t313 -83t203.5 -226t69.5 -326q0 -111 -38.5 -220.5t-101 -194t-137.5 -149.5t-153 -99h127q50 0 80 1.5t59 10.5t46 20.5t39 38t38.5 55.5t44.5 81h49l-51 -367h-506v152q119 109 185.5 280.5t66.5 390.5q0 83 -9 159.5t-33 154t-60.5 134.5t-96 92.5t-135.5 35.5z
" />
    <glyph glyph-name="uni2153" unicode="&#x2153;" horiz-adv-x="1583" 
d="M375 1458h45v-692q0 -51 31.5 -64t134.5 -20v-51h-504v51q104 7 135 20t31 64v496h-166v38l51 11q87 19 139.5 51t102.5 96zM303 -20l897 1478h86l-899 -1478h-84zM1247 457q119 -6 186.5 -69t67.5 -163q0 -112 -91 -178.5t-222 -66.5q-132 0 -205.5 51.5t-73.5 124.5
q0 29 16 53t38 35h102q-8 -27 -8 -54q0 -78 36 -119.5t107 -41.5q68 0 105.5 45t37.5 127q0 91 -56 136.5t-161 45.5h-28l-6 35q99 34 146.5 76t47.5 104q0 51 -31 83t-92 32q-110 0 -176 -107l-43 25q39 88 114.5 142t180.5 54q102 0 156.5 -48.5t54.5 -127.5
q0 -136 -203 -194z" />
    <glyph glyph-name="uni2154" unicode="&#x2154;" horiz-adv-x="1656" 
d="M377 -20l897 1478h86l-897 -1478h-86zM1321 457q119 -6 186.5 -69t67.5 -163q0 -112 -91 -178.5t-222 -66.5q-132 0 -205.5 51.5t-73.5 124.5q0 29 15.5 53t37.5 35h103q-9 -30 -9 -54q0 -77 36.5 -119t107.5 -42q68 0 105.5 45t37.5 127q0 91 -56 136.5t-159 45.5h-31
l-6 35q101 34 149 76t48 104q0 50 -32 82.5t-93 32.5q-110 0 -176 -107l-41 25q39 87 114.5 141.5t178.5 54.5t158 -48.5t55 -127.5q0 -135 -205 -194zM256 776h213q68 0 97 19t73 94h33l-27 -260h-584v33l218 206q101 101 140.5 170t39.5 146q0 72 -39.5 110.5t-110.5 38.5
q-113 0 -198 -98l-29 25q44 84 122 139t183 55q113 0 175.5 -60.5t62.5 -168.5q0 -31 -8.5 -62t-19.5 -55.5t-36 -55.5t-43.5 -51.5t-56.5 -54t-60.5 -52.5t-71 -58t-73.5 -60z" />
    <glyph glyph-name="uni215B" unicode="&#x215b;" horiz-adv-x="1632" 
d="M375 1458h47v-692q0 -51 31.5 -64t134.5 -20v-51h-506v51q104 7 135 20t31 64v496h-166v38l51 11q87 19 139.5 51t102.5 96zM303 -20l897 1478h86l-899 -1478h-84zM1513 637q0 -67 -54 -118t-122 -64q205 -88 205 -236q0 -115 -85 -177t-214 -62q-137 0 -222 56.5
t-85 153.5q0 72 53.5 122.5t136.5 72.5q-159 78 -159 209q0 102 75 168.5t197 66.5q124 0 199 -51.5t75 -140.5zM1288 305l-131 66q-88 -57 -88 -168q0 -72 50 -121t126 -49q71 0 114.5 36t43.5 91q0 52 -28.5 82.5t-86.5 62.5zM1206 518l101 -49q77 51 77 162
q0 67 -39.5 106t-105.5 39q-62 0 -97.5 -33.5t-35.5 -83.5q0 -92 100 -141z" />
    <glyph glyph-name="uni215C" unicode="&#x215c;" horiz-adv-x="1654" 
d="M1534 637q0 -67 -53 -118t-121 -64q205 -90 205 -236q0 -77 -42 -132.5t-108.5 -81t-148.5 -25.5q-137 0 -222.5 56.5t-85.5 153.5q0 71 53.5 122t135.5 73q-158 77 -158 209q0 102 75.5 168.5t197.5 66.5q124 0 198 -51.5t74 -140.5zM1311 305l-131 66q-90 -56 -90 -168
q0 -72 50 -121t126 -49q71 0 115 36t44 91q0 52 -28.5 82.5t-85.5 62.5zM1229 518l100 -49q78 52 78 162q0 67 -40 106t-107 39q-61 0 -97.5 -34t-36.5 -83q0 -90 103 -141zM324 -20l897 1478h86l-897 -1478h-86zM410 1087q120 -6 188 -68.5t68 -162.5q0 -113 -91 -179.5
t-223 -66.5q-131 0 -204.5 51t-73.5 125q0 29 15.5 53t37.5 35h102q-8 -27 -8 -53q0 -162 144 -162q68 0 105.5 44.5t37.5 127.5q0 91 -56.5 137t-160.5 46h-29l-8 35q101 34 150 75.5t49 102.5q0 50 -32 83t-93 33q-111 0 -176 -106l-43 25q39 88 114 142t180 54
q102 0 156.5 -48.5t54.5 -127.5q0 -138 -204 -195z" />
    <glyph glyph-name="uni215D" unicode="&#x215d;" horiz-adv-x="1642" 
d="M313 -20l897 1478h84l-897 -1478h-84zM633 1485l-43 -207h-342l-19 -117q123 -4 213 -34.5t144.5 -94.5t54.5 -158q0 -121 -80 -192.5t-209 -71.5t-202.5 50t-73.5 122q0 32 15.5 57.5t39.5 34.5h98q-8 -27 -8 -55q0 -73 35.5 -116.5t110.5 -43.5q72 0 110.5 43.5
t38.5 114.5q0 207 -366 213l69 408h275q43 0 61 8.5t33 38.5h45zM1522 637q0 -67 -53 -118t-121 -64q204 -88 204 -236q0 -115 -85 -177t-214 -62q-137 0 -222 56.5t-85 153.5q0 71 54 122t137 73q-160 77 -160 209q0 102 75 168.5t197 66.5q124 0 198.5 -51.5t74.5 -140.5z
M1298 305l-131 66q-88 -57 -88 -168q0 -72 49.5 -121t124.5 -49q71 0 115.5 36t44.5 91q0 52 -28.5 82.5t-86.5 62.5zM1217 518l100 -49q78 52 78 162q0 67 -40.5 106t-107.5 39q-61 0 -96 -34t-35 -83q0 -91 101 -141z" />
    <glyph glyph-name="uni215E" unicode="&#x215e;" horiz-adv-x="1531" 
d="M584 1272h-326q-44 0 -70.5 -30.5t-52.5 -100.5h-57l59 297h586v-33l-399 -793h-127zM203 -20l897 1478h86l-897 -1478h-86zM1413 637q0 -67 -54 -118t-122 -64q205 -88 205 -236q0 -115 -85 -177t-214 -62q-136 0 -221.5 56.5t-85.5 153.5q0 72 53.5 122.5t136.5 72.5
q-160 78 -160 209q0 102 76.5 168.5t198.5 66.5q124 0 198 -51.5t74 -140.5zM1190 305l-133 66q-88 -57 -88 -168q0 -72 50 -121t126 -49q71 0 115.5 36t44.5 91q0 52 -28.5 82.5t-86.5 62.5zM1106 518l100 -49q41 27 60.5 71.5t19.5 90.5q0 67 -40 106t-107 39
q-62 0 -97.5 -33.5t-35.5 -83.5q0 -90 100 -141z" />
    <glyph glyph-name="partialdiff" unicode="&#x2202;" horiz-adv-x="1099" 
d="M535 1094q155 0 241 -127q-24 84 -70 168.5t-113 166.5t-162 149t-204 103l27 52q195 -52 348.5 -152t251 -229.5t148.5 -281t51 -314.5q0 -293 -137 -471t-363 -178q-229 0 -368.5 149.5t-139.5 392.5q0 127 41 236t109 181.5t156.5 113.5t183.5 41zM555 47
q123 0 189.5 123t66.5 332q0 148 -27.5 263.5t-88.5 188t-150 72.5q-123 0 -188.5 -123t-65.5 -332q0 -147 27 -262.5t88 -188.5t149 -73z" />
    <glyph glyph-name="Delta" unicode="&#x2206;" horiz-adv-x="1296" 
d="M1272 0h-1247v68l571 1370h94l582 -1370v-68zM571 1167l-448 -1087h891z" />
    <glyph glyph-name="product" unicode="&#x220f;" horiz-adv-x="1533" 
d="M1075 1364h-618v-1561q0 -45 5 -68.5t26.5 -40t51 -23t91.5 -13.5v-61h-588v61q114 14 144 37.5t30 107.5v1428q0 84 -30 107.5t-144 37.5v62h1446v-62q-41 -5 -64.5 -9t-45 -11t-32 -16t-18.5 -24.5t-10 -35t-2 -49.5v-1428q0 -30 2 -49.5t10 -35t18.5 -24.5t32 -16
t45 -11t64.5 -9v-61h-586v61q41 5 64.5 9t45 11t32 16t18.5 24.5t10 35t2 49.5v1561z" />
    <glyph glyph-name="summation" unicode="&#x2211;" horiz-adv-x="1118" 
d="M203 -203h477q56 0 88 1.5t67 9.5t56 20.5t48 39t50 60.5t55 88h50l-66 -419h-1024v63l610 803l-587 901v74h1013v-353h-43q-28 64 -46.5 100.5t-45.5 76t-55 59t-67.5 32.5t-90.5 13h-395l506 -772v-14z" />
    <glyph glyph-name="minus" unicode="&#x2212;" horiz-adv-x="1159" 
d="M131 702v115h899v-115h-899z" />
    <glyph glyph-name="radical" unicode="&#x221a;" horiz-adv-x="1177" 
d="M639 311l422 1147h90l-541 -1458h-112l-273 911q-19 64 -45 87.5t-84 23.5l-55 2v70h385z" />
    <glyph glyph-name="infinity" unicode="&#x221e;" horiz-adv-x="1511" 
d="M702 719l-86 100q-106 121 -221 121q-90 0 -149.5 -59.5t-59.5 -161.5q0 -100 59.5 -160.5t149.5 -60.5q116 0 221 120zM756 649l-76 -88q-125 -145 -289 -145q-126 0 -213.5 82t-87.5 221q0 140 87.5 221.5t213.5 81.5q166 0 289 -143l76 -91l78 91q120 143 286 143
q126 0 213.5 -81.5t87.5 -221.5q0 -139 -87.5 -221t-213.5 -82q-165 0 -286 145zM899 819l-88 -100l88 -101q102 -120 221 -120q90 0 149.5 60.5t59.5 160.5q0 102 -59.5 161.5t-149.5 59.5q-118 0 -221 -121z" />
    <glyph glyph-name="integral" unicode="&#x222b;" horiz-adv-x="827" 
d="M455 1182v-1166q0 -204 -93.5 -310.5t-255.5 -106.5q-112 0 -179.5 43.5t-67.5 121.5q0 73 67 113h119v-92q0 -131 80 -131q62 0 84 57t22 164v1165q0 205 93.5 311.5t255.5 106.5q112 0 179.5 -44t67.5 -122q0 -72 -67 -112h-119v92q0 131 -80 131q-62 0 -84 -57
t-22 -164z" />
    <glyph glyph-name="approxequal" unicode="&#x2248;" horiz-adv-x="1179" 
d="M141 811v115q127 82 242 82q78 0 206 -40t206 -40q120 0 245 82v-115q-125 -82 -245 -82q-78 0 -206 40t-206 40q-115 0 -242 -82zM141 520v113q122 82 242 82q78 0 206 -39t206 -39q123 0 245 80v-115q-122 -80 -245 -80q-78 0 -206 39t-206 39q-118 0 -242 -80z" />
    <glyph glyph-name="notequal" unicode="&#x2260;" horiz-adv-x="1179" 
d="M141 848v110h541l166 220h123l-166 -220h235v-110h-317l-137 -180h454v-109h-536l-166 -221h-125l166 221h-238v109h320l137 180h-457z" />
    <glyph glyph-name="lessequal" unicode="&#x2264;" horiz-adv-x="892" 
d="M104 819v17l637 344v-127l-428 -226l428 -223v-127zM104 289v112h637v-112h-637z" />
    <glyph glyph-name="greaterequal" unicode="&#x2265;" horiz-adv-x="892" 
d="M788 836v-17l-636 -342v127l428 223l-428 226v127zM788 401v-112h-636v112h636z" />
    <glyph glyph-name="lozenge" unicode="&#x25ca;" horiz-adv-x="1093" 
d="M63 719l414 719h139l414 -719l-414 -719h-139zM924 719l-377 651l-377 -651l377 -651z" />
    <glyph glyph-name="i.dot" horiz-adv-x="573" 
d="M408 1094v-938q0 -55 28 -73.5t107 -23.5v-59h-500v59q79 5 107 23.5t28 73.5v731l-129 71v29l326 107h33zM293 1239q-62 0 -104 43t-42 102q0 60 42 103t104 43q63 0 105 -43t42 -103t-42 -102.5t-105 -42.5z" />
    <glyph glyph-name="space_uni0326" 
d="M543 -307h-97q-86 17 -86 104q0 51 36.5 82t95.5 31q73 0 115 -46.5t42 -117.5q0 -98 -67.5 -157.5t-200.5 -59.5v53q76 0 119 32.5t43 78.5z" />
    <glyph glyph-name="space_uni0326.alt" 
d="M467 1452h96q86 -17 86 -102q0 -51 -36 -82t-95 -31q-73 0 -115.5 45.5t-42.5 116.5q0 98 68 157.5t201 59.5v-51q-75 0 -118.5 -33.5t-43.5 -79.5z" />
    <glyph glyph-name="space_dotbelowcomb" 
d="M510 -373q-61 0 -102 42.5t-41 101.5t41 101t102 42q64 0 105.5 -42t41.5 -101q0 -60 -42 -102t-105 -42z" />
    <glyph glyph-name="caron.Slovak" 
d="M647 1591l-219 -407h-35l37 420h217v-13z" />
    <glyph glyph-name="cedilla.alt" 
d="M328 -457l-13 58q108 0 171 29.5t63 76.5q0 43 -42.5 63t-131.5 23l45 113h45q107 0 165 -39.5t58 -116.5q0 -103 -99 -155t-261 -52z" />
    <glyph glyph-name="grave.cap" 
d="M326 1839h252l108 -305h-53l-307 293v12z" />
    <glyph glyph-name="acute.cap" 
d="M436 1839h250v-12l-307 -293h-53z" />
    <glyph glyph-name="circumflex.cap" 
d="M594 1858l262 -324h-63l-281 182l-281 -182h-63l262 324h164z" />
    <glyph glyph-name="tilde.cap" 
d="M633 1534q-38 0 -80.5 19t-74 41.5t-69 41.5t-67.5 19q-44 0 -78.5 -27.5t-68.5 -87.5l-45 25q57 137 105 191t120 54q48 0 101.5 -30t103 -60t86.5 -30q44 0 78.5 27.5t68.5 88.5l45 -26q-57 -137 -105.5 -191.5t-119.5 -54.5z" />
    <glyph glyph-name="macron.cap" 
d="M223 1573v119h582v-119h-582z" />
    <glyph glyph-name="breve.cap" 
d="M516 1528q-137 0 -215 81.5t-78 239.5h64q26 -178 229 -178t229 178h62q0 -158 -77 -239.5t-214 -81.5z" />
    <glyph glyph-name="dotaccent.cap" 
d="M510 1542q-62 0 -103.5 42.5t-41.5 103.5q0 59 41.5 101t103.5 42q64 0 105.5 -41.5t41.5 -101.5q0 -61 -41.5 -103.5t-105.5 -42.5z" />
    <glyph glyph-name="dieresis.cap" 
d="M178 1683q0 57 39 97.5t96 40.5q58 0 99 -40.5t41 -97.5q0 -56 -41 -96.5t-99 -40.5q-56 0 -95.5 40.5t-39.5 96.5zM578 1683q0 57 39 97.5t96 40.5q58 0 97.5 -40.5t39.5 -97.5q0 -56 -39.5 -96.5t-97.5 -40.5q-56 0 -95.5 40.5t-39.5 96.5z" />
    <glyph glyph-name="ring.cap" 
d="M408 1683q0 -51 28.5 -83.5t79.5 -32.5t80 32.5t29 83.5t-29 83t-80 32t-79.5 -32t-28.5 -83zM332 1683q0 78 52.5 130.5t131.5 52.5t131.5 -52.5t52.5 -130.5t-52.5 -131t-131.5 -53t-131.5 53t-52.5 131z" />
    <glyph glyph-name="hungarumlaut.cap" 
d="M309 1839h223v-12l-286 -293h-56zM618 1839h226v-12l-287 -293h-55z" />
    <glyph glyph-name="caron.cap" 
d="M856 1858l-262 -324h-164l-262 324h63l281 -183l281 183h63z" />
    <glyph glyph-name="exclamdown.cap" horiz-adv-x="514" 
d="M102 1305q0 63 45.5 108t108.5 45q64 0 109 -45t45 -108q0 -65 -45 -110.5t-109 -45.5q-63 0 -108.5 46t-45.5 110zM229 1008h54l120 -1008h-294z" />
    <glyph glyph-name="questiondown.cap" horiz-adv-x="888" 
d="M244 248q0 -99 51.5 -156t146.5 -57t143 61.5t48 155.5q0 5 -1 48.5t-1 47.5h168q51 -39 51 -106q0 -114 -116 -188t-288 -74q-189 0 -299 88t-110 256q0 61 21 115t64.5 103t88.5 86t113 85q87 61 122 115.5t35 140.5v55h29q32 -30 59 -87t27 -118q0 -83 -40 -148
t-128 -134q-50 -39 -74 -60.5t-54.5 -58t-43 -77.5t-12.5 -93zM637 1305q0 -64 -45.5 -110t-108.5 -46q-64 0 -108.5 45.5t-44.5 110.5q0 63 44.5 108t108.5 45q63 0 108.5 -45t45.5 -108z" />
    <glyph glyph-name="guilsinglleft.cap" horiz-adv-x="585" 
d="M66 725v12l389 398h65l-239 -404l239 -401h-65z" />
    <glyph glyph-name="guilsinglright.cap" horiz-adv-x="585" 
d="M520 737v-12l-389 -395h-65l239 401l-239 404h65z" />
    <glyph glyph-name="guillemotleft.cap" horiz-adv-x="925" 
d="M66 725v12l389 398h65l-239 -404l239 -401h-65zM406 725v12l389 398h65l-239 -404l239 -401h-65z" />
    <glyph glyph-name="guillemotright.cap" horiz-adv-x="925" 
d="M860 737v-12l-389 -395h-65l239 401l-239 404h65zM520 737v-12l-389 -395h-65l239 401l-239 404h65z" />
    <glyph glyph-name="slash.cap" horiz-adv-x="761" 
d="M719 1577l-578 -1784h-98l578 1784h98z" />
    <glyph glyph-name="backslash.cap" horiz-adv-x="761" 
d="M621 -207l-578 1784h98l578 -1784h-98z" />
    <glyph glyph-name="bar.cap" horiz-adv-x="438" 
d="M266 1577v-1784h-94v1784h94z" />
    <glyph glyph-name="brokenbar.cap" horiz-adv-x="438" 
d="M266 1577v-760h-94v760h94zM266 553v-760h-94v760h94z" />
    <glyph glyph-name="periodcentered.cap" horiz-adv-x="448" 
d="M61 733q0 69 47 116.5t115 47.5q69 0 116.5 -47.5t47.5 -116.5t-47.5 -115.5t-116.5 -46.5q-68 0 -115 46.5t-47 115.5z" />
    <glyph glyph-name="bullet.cap" horiz-adv-x="653" 
d="M61 733q0 109 78 187.5t187 78.5q110 0 188 -78.5t78 -187.5t-78 -187.5t-188 -78.5q-109 0 -187 78.5t-78 187.5z" />
    <glyph glyph-name="hyphen.cap" horiz-adv-x="655" 
d="M594 680h-533v108h533v-108z" />
    <glyph glyph-name="endash.cap" horiz-adv-x="1105" 
d="M1044 688h-983v86h983v-86z" />
    <glyph glyph-name="emdash.cap" horiz-adv-x="1966" 
d="M1905 774v-86h-1844v86h1844z" />
    <glyph glyph-name="parenleft.cap" horiz-adv-x="708" 
d="M319 684q0 -258 75.5 -479t254.5 -414h-86q-198 171 -318 409.5t-120 483.5t120 483.5t318 409.5h86q-179 -193 -254.5 -414t-75.5 -479z" />
    <glyph glyph-name="parenright.cap" horiz-adv-x="708" 
d="M389 684q0 258 -76 479t-256 414h88q199 -172 319 -410t120 -483t-120 -483t-319 -410h-88q180 193 256 414t76 479z" />
    <glyph glyph-name="bracketleft.cap" horiz-adv-x="651" 
d="M336 1395v-1420q0 -74 45 -94t182 -28v-60h-389v1784h389v-59q-137 -8 -182 -28.5t-45 -94.5z" />
    <glyph glyph-name="bracketright.cap" horiz-adv-x="651" 
d="M313 -25v1420q0 74 -45 94.5t-182 28.5v59h391v-1784h-391v60q137 8 182 28t45 94z" />
    <glyph glyph-name="braceleft.cap" horiz-adv-x="710" 
d="M102 674v24q170 35 170 205v412q0 121 95.5 191.5t259.5 70.5v-47q-90 -10 -137.5 -56.5t-47.5 -144.5v-409q0 -102 -51.5 -152t-163.5 -82q113 -32 164 -82t51 -151v-410q0 -98 47.5 -144.5t137.5 -56.5v-47q-164 0 -259.5 70.5t-95.5 191.5v412q0 170 -170 205z" />
    <glyph glyph-name="braceright.cap" horiz-adv-x="714" 
d="M612 698v-24q-170 -35 -170 -205v-412q0 -122 -95 -192t-259 -70v47q90 10 137 56.5t47 144.5v410q0 101 51 151t164 82q-112 32 -163.5 82t-51.5 152v409q0 98 -47 144.5t-137 56.5v47q164 0 259 -70t95 -192v-412q0 -170 170 -205z" />
    <glyph glyph-name="at.cap" horiz-adv-x="1753" 
d="M1210 270q-74 0 -124.5 30t-71 81.5t-23.5 119.5t17 144q-172 -373 -367 -373q-89 0 -142 68.5t-53 191.5q0 145 71.5 286.5t191 232t247.5 90.5q117 0 189 -72l137 74h41l-57 -180l-105 -418q-56 -213 68 -213q78 0 140 48t100.5 128t58.5 178t20 203q0 259 -145.5 417
t-415.5 158q-173 0 -320 -74t-245 -197.5t-152.5 -282.5t-54.5 -330q0 -291 175 -463t460 -172q169 0 293 35t266 116l21 -30q-111 -92 -269.5 -147.5t-331.5 -55.5q-229 0 -401 84t-267 246.5t-95 384.5q0 184 68 356t187 303.5t293 211t373 79.5q163 0 295.5 -46.5
t221 -130.5t136.5 -202t48 -260q0 -160 -58.5 -300.5t-169.5 -229.5t-250 -89zM721 391q91 0 198.5 180t174.5 439q-16 36 -50.5 54.5t-74.5 18.5q-69 0 -133 -52.5t-107 -133t-68.5 -176.5t-25.5 -184q0 -64 22.5 -105t63.5 -41z" />
    </font>
</defs>
</svg>
