<svg width="1061" height="248" viewBox="0 0 1061 248" fill="none" xmlns="http://www.w3.org/2000/svg">
<g clip-path="url(#clip0_102_14)">
<path d="M35.0152 198.415C23.737 192.025 15.0749 183.094 9.04494 171.624C3.01498 160.154 0 147.15 0 132.612C0 118.074 3.1426 104.99 9.44375 93.8556C15.7449 82.7367 24.4867 74.1579 35.6693 68.1032C46.8518 62.0645 59.7094 59.0452 74.2259 59.0452C88.7425 59.0452 102.126 62.1923 113.309 68.5026C124.492 74.8129 133.154 83.5195 139.279 94.6384C145.405 105.757 148.452 118.41 148.452 132.596C148.452 147.661 145.309 160.888 139.008 172.263C132.707 183.653 123.965 192.456 112.783 198.67C101.584 204.885 88.7266 208 74.2259 208C59.7253 208 46.2935 204.805 35.0152 198.415ZM98.6329 162.822C104.759 155.297 107.821 145.217 107.821 132.612C107.821 120.007 104.759 110.901 98.6329 103.712C92.5073 96.5395 84.3716 92.945 74.2419 92.945C64.1122 92.945 55.9606 96.5395 49.8509 103.712C43.7252 110.901 40.6624 120.535 40.6624 132.612C40.6624 144.689 43.7252 155.297 49.8509 162.822C55.9765 170.346 64.0962 174.116 74.2419 174.116C84.3875 174.116 92.5232 170.346 98.6329 162.822Z" fill="#060606"/>
<path d="M617.513 198.67C606.234 192.456 597.445 183.733 591.143 172.535C584.842 161.32 581.7 148.539 581.7 134.178C581.7 119.816 584.763 106.636 590.888 95.1656C597.014 83.6952 605.485 74.7969 616.332 68.5026C627.18 62.1923 639.591 59.0452 653.581 59.0452C667.571 59.0452 678.945 62.1125 689.25 68.247C699.571 74.3816 707.707 83.0882 713.641 94.3828C719.575 105.677 722.638 118.857 722.814 133.922V142.852H621.549C622.952 152.485 626.829 160.186 633.226 165.969C639.606 171.752 647.439 174.643 656.707 174.643C663.168 174.643 668.735 173.285 673.361 170.57C677.988 167.854 681.274 163.956 683.204 158.876H722.287C718.443 174.468 710.706 186.545 699.077 195.124C687.447 203.703 673.154 208 656.181 208C641.664 208 628.775 204.885 617.481 198.67H617.513ZM681.657 117.1C679.726 109.4 676.313 103.393 671.431 99.1115C666.534 94.8141 660.584 92.6734 653.597 92.6734C646.61 92.6734 640.165 94.8621 634.837 99.2393C629.493 103.617 625.616 109.575 623.16 117.1H681.657Z" fill="#060606"/>
<path d="M732.066 158.348H770.623C770.973 164.307 773.207 168.732 777.307 171.608C781.406 174.5 786.878 175.937 793.705 175.937C799.656 175.937 804.282 174.883 807.616 172.79C810.934 170.681 812.593 167.71 812.593 163.86C812.593 160.537 811.54 158.173 809.45 156.767C807.345 155.361 804.776 154.179 801.714 153.22C798.651 152.262 796.593 151.607 795.556 151.255L778.758 145.999C763.891 141.271 752.66 135.759 745.051 129.449C737.442 123.139 733.645 114.033 733.645 102.131C733.645 88.9991 738.495 78.5352 748.21 70.7392C757.909 62.9432 771.691 59.0452 789.526 59.0452C807.361 59.0452 820.521 63.3426 831.098 71.9214C841.674 80.5002 847.927 92.7693 849.858 108.697H812.609C812.083 102.738 809.849 98.3128 805.925 95.4372C802.001 92.5616 796.609 91.1078 789.797 91.1078C784.724 91.1078 780.752 92.0664 777.865 93.9994C774.978 95.9324 773.542 98.5524 773.542 101.875C773.542 105.022 774.946 107.435 777.737 109.096C780.529 110.758 784.9 112.643 790.85 114.751L805.797 119.736C817.171 123.586 826.089 127.228 832.549 130.647C839.01 134.066 844.051 138.443 847.64 143.779C851.229 149.131 853.016 156 853.016 164.403C853.016 177.886 848.071 188.526 838.196 196.322C828.306 204.118 814.81 208.016 797.662 208.016C755.867 208.016 733.996 191.465 732.082 158.364L732.066 158.348Z" fill="#060606"/>
<path d="M162.187 64.0934H203.376V79.4138C210.06 70.7711 225.916 61.8568 246.782 61.8568C277.665 61.8568 299.105 81.9219 299.105 115.087V204.549H257.916V123.73C257.916 107.85 248.17 97.8175 233.988 97.8175C214.51 97.8175 203.376 113.985 203.376 142.964V204.549H162.187V64.0934Z" fill="#060606"/>
<path d="M314.962 7.25281H356.15V204.565H314.962V7.25281Z" fill="#060606"/>
<path d="M393.718 0C407.916 0 418.205 10.0326 418.205 23.6916C418.205 37.3505 407.9 47.3831 393.718 47.3831C379.537 47.3831 369.503 37.3505 369.503 23.6916C369.503 10.0326 380.079 0 393.718 0ZM373.395 64.0934H414.584V204.549H373.395V64.0934Z" fill="#060606"/>
<path d="M431.844 64.0934H473.033V79.4138C479.717 70.7711 495.573 61.8568 516.439 61.8568C547.323 61.8568 568.762 81.9219 568.762 115.087V204.549H527.574V123.73C527.574 107.85 517.827 97.8175 503.645 97.8175C484.167 97.8175 473.033 113.985 473.033 142.964V204.549H431.844V64.0934Z" fill="#060606"/>
</g>
<g clip-path="url(#clip1_102_14)">
<path d="M871.936 202.651C867.312 198.116 865 192.479 865 185.729C865 178.979 867.312 173.342 871.936 168.798C876.55 164.272 882.234 162 888.959 162C895.684 162 901.617 164.272 906.135 168.798C910.654 173.332 912.909 178.979 912.909 185.72C912.909 192.46 910.644 198.116 906.135 202.641C901.617 207.176 895.885 209.439 888.959 209.439C882.033 209.439 876.559 207.176 871.936 202.641V202.651Z" fill="#060606"/>
<path d="M917.255 214.146H1061V248H917.255V214.146Z" fill="#060606"/>
</g>
<defs>
<clipPath id="clip0_102_14">
<rect width="853" height="208" fill="white"/>
</clipPath>
<clipPath id="clip1_102_14">
<rect width="196" height="86" fill="white" transform="translate(865 162)"/>
</clipPath>
</defs>
</svg>
