<?xml version="1.0" standalone="no"?>
<!DOCTYPE svg PUBLIC "-//W3C//DTD SVG 1.1//EN" "http://www.w3.org/Graphics/SVG/1.1/DTD/svg11.dtd">
<svg xmlns="http://www.w3.org/2000/svg">
<defs >
<font id="Fraunces" horiz-adv-x="1238" ><font-face
    font-family="Fraunces Black"
    units-per-em="2000"
    panose-1="0 0 0 0 0 0 0 0 0 0"
    ascent="1956"
    descent="-510"
    alphabetic="0" />
<glyph unicode=" " horiz-adv-x="388" />
<glyph unicode="!" horiz-adv-x="787" d="M653 1527Q777 1527 825 1474T853 1331Q848 1300 831 1254T792 1163L488 565Q466 527 440 510T378 492Q344 492 329 509T314 566L329 1168Q331 1205 334 1241T345 1305Q372 1412 448 1469T653 1527ZM252 -22Q148 -22 93
26T38 146Q38 208 75 261T182 348T349 381Q453 381 502 331T552 205Q552 145 516 93T412 10T252 -22Z" />
<glyph unicode="&quot;" horiz-adv-x="896" d="M294 781Q263 781 246 803T231 868L262 1294Q272 1430 337 1502T519 1574Q637 1574 660 1500T620 1295L412 866Q391 822 361 802T294 781ZM751 781Q720 781 703 803T688 868L719 1294Q729 1430 794 1502T976 1574Q1094
1574 1117 1500T1077 1295L869 866Q848 822 818 802T751 781Z" />
<glyph unicode="#" horiz-adv-x="1376" d="M607 687Q586 648 559 596T501 485T439 365T377 246T320 135T273 45Q232 -24 168 -8Q104 11 143 80Q163 116 191 165T254 271T324 389T396 508T461 619T513 712Q535 752 561 805T616 918T674 1040T732 1161T785 1271T829
1356Q869 1425 934 1408Q999 1390 958 1321Q938 1282 910 1232T850 1124T784 1006T718 887T657 777T607 687ZM850 892Q808 891 752 890T634 887T509 884T392 882T298 881Q218 879 237 947Q258 1012 336 1014Q374 1014 426 1012T539 1005T661 997T779 990T878 988Q921
988 977 990T1095 995T1218 1001T1331 1006T1421 1009Q1498 1009 1481 944Q1459 877 1381 875Q1343 875 1291 877T1179 881T1059 886T945 890T850 892ZM1009 687Q988 648 961 596T903 485T841 365T779 246T723 135T676 45Q633 -24 570 -8Q506 11 545 80Q564 116
592 165T655 271T726 389T797 508T863 619T915 712Q936 752 963 805T1019 918T1077 1040T1134 1161T1187 1270T1231 1355Q1272 1425 1336 1408Q1401 1390 1359 1320Q1339 1282 1312 1232T1252 1124T1185 1005T1118 886T1057 777T1009 687ZM662 443Q620 443 564
442T446 439T321 436T204 433T110 432Q32 432 50 499Q69 566 149 566Q187 566 239 564T352 557T474 548T592 542T691 539Q733 539 789 541T907 546T1030 552T1144 558T1234 561Q1311 561 1294 495Q1273 429 1193 426Q1155 427 1103 428T991 432T871 437T757 441T662
443Z" />
<glyph unicode="$" horiz-adv-x="1234" d="M492 4Q327 4 222 40T66 138T16 280Q18 377 77 439T223 501Q294 501 331 454T352 327L339 235Q332 188 344 153T395 97T502 77Q602 77 667 122T740 249Q744 298 723 340T649 428T504 527Q387 598 322 667T236 811T222
968Q229 1053 273 1129T397 1266T584 1360T827 1394Q990 1394 1092 1350T1242 1237T1290 1092Q1290 1007 1235 948T1096 889Q1022 890 979 934T952 1063L971 1161Q985 1239 951 1282T826 1325Q769 1325 717 1305T631 1246T590 1148Q586 1096 606 1053T678 964T821
860Q950 779 1020 705T1116 561T1133 422Q1127 325 1074 248T932 116T730 33T492 4ZM731 767H660Q700 904 723 1015T762 1218T789 1384T818 1523Q830 1564 857 1586T920 1608Q952 1608 968 1586T972 1521Q957 1462 933 1389T876 1225T808 1021T731 767ZM602 665H673Q633
526 609 413T569 208T542 43T514 -91Q502 -132 475 -154T412 -176Q380 -176 364 -154T360 -89Q376 -25 401 49T458 214T526 416T602 665Z" />
<glyph unicode="%" horiz-adv-x="1749" d="M949 1433Q1122 1433 1203 1333T1238 1058Q1202 924 1125 833T944 695T727 648Q535 648 457 749T431 1041Q462 1160 536 1248T717 1384T949 1433ZM920 1036Q966 1210 961 1278T913 1346Q867 1346 827 1277T745 1057Q697
874 703 805T756 735Q780 735 806 760T860 851T920 1036ZM1048 775Q1020 750 1002 744T964 750Q948 761 950 777T974 822Q996 852 1030 898T1104 1000T1186 1112T1266 1220T1335 1310T1383 1368Q1427 1414 1471 1426T1558 1412Q1598 1386 1595 1347T1548 1261Q1530
1242 1496 1207T1415 1126T1317 1030T1216 931T1122 842T1048 775ZM794 631Q822 656 841 662T880 658Q897 646 894 629T868 584Q845 554 812 508T738 406T656 293T576 184T507 94T458 36Q416 -9 371 -21T284 -7Q245 18 248 57T295 143Q313 162 348 197T429 279T527
376T628 475T721 565T794 631ZM1375 749Q1548 749 1629 649T1664 374Q1628 240 1551 149T1370 11T1153 -36Q961 -36 883 65T857 357Q888 476 962 564T1143 700T1375 749ZM1346 352Q1392 526 1387 594T1339 662Q1293 662 1253 593T1171 373Q1123 190 1129 121T1182
51Q1206 51 1232 76T1286 167T1346 352Z" />
<glyph unicode="&amp;" horiz-adv-x="1557" d="M251 200L1305 990Q1349 1021 1374 1050T1410 1110T1420 1175Q1420 1225 1404 1260T1372 1329T1355 1402Q1354 1464 1403 1512T1537 1562Q1622 1564 1670 1513T1719 1377Q1719 1310 1686 1244T1582 1108T1396 955L363
180Q299 137 265 97T218 19T206 -57Q206 -105 223 -140T259 -208T277 -287Q278 -348 230 -392T108 -439Q28 -440 -24 -390T-78 -246Q-78 -154 -6 -42T251 200ZM1057 254Q1059 295 1049 326T1028 389T1020 468Q1022 510 1048 550T1121 616T1232 642Q1320 642 1377
593T1431 443Q1427 352 1379 268T1240 118T1023 13T733 -26Q505 -26 365 51T170 264T148 576Q172 707 244 815T424 1001T666 1121T949 1164Q1073 1164 1172 1127T1327 1029T1377 895Q1374 848 1355 817T1287 779Q1210 773 1118 731T900 598Q910 639 921 698T940
849Q948 959 927 1007T861 1055Q814 1055 767 1011T682 872T620 627Q594 454 617 337T704 161T861 102Q901 102 935 110T996 137T1039 184T1057 254Z" />
<glyph unicode="&apos;" horiz-adv-x="439" d="M294 781Q263 781 246 803T231 868L262 1294Q272 1430 337 1502T519 1574Q637 1574 660 1500T620 1295L412 866Q391 822 361 802T294 781Z" />
<glyph unicode="(" horiz-adv-x="772" d="M192 626Q236 788 312 927T486 1177T695 1366T916 1487Q970 1505 1001 1502T1034 1476Q1036 1461 1020 1442T970 1393Q875 1306 789 1187T636 925T525 626Q484 468 477 326T491 64T561 -143Q578 -171 583 -190T579 -226Q546
-271 452 -237Q363 -195 295 -116T189 74T149 324T192 626Z" />
<glyph unicode=")" horiz-adv-x="770" d="M660 621Q616 459 540 320T366 70T157 -119T-64 -240Q-118 -258 -149 -255T-182 -229Q-184 -214 -168 -195T-118 -146Q-23 -59 63 60T216 322T327 621Q368 779 375 921T361 1183T291 1390Q274 1418 269 1437T273 1473Q306
1518 400 1484Q489 1442 557 1363T663 1173T703 923T660 621Z" />
<glyph unicode="*" horiz-adv-x="1246" d="M764 992H724Q744 1066 734 1122T702 1228T667 1323T667 1421Q687 1492 745 1529T901 1567Q991 1567 1032 1530T1055 1421Q1041 1369 1002 1323T915 1228T826 1123T764 992ZM742 1008Q819 1031 878 1073T986 1163T1083
1249T1185 1304Q1258 1326 1299 1293T1345 1168Q1351 1084 1315 1025T1206 943Q1152 927 1102 937T998 966T883 990T745 974L742 1008ZM755 1008L732 974Q668 997 603 991T476 966T357 938T254 943Q193 966 189 1023T239 1169Q289 1255 351 1290T474 1304Q520 1288
546 1250T596 1164T655 1074T755 1008ZM731 1001L756 980Q697 920 668 859T620 738T582 627T518 532Q403 414 276 525Q217 578 213 637T265 755Q308 796 363 818T481 860T607 911T731 1001ZM725 980L763 1001Q791 942 837 911T936 861T1031 819T1093 755Q1119 697
1086 639T959 525Q872 472 808 473T718 532Q699 574 706 626T729 738T748 858T725 980Z" />
<glyph unicode="+" horiz-adv-x="1141" d="M500 231Q460 231 443 250T433 296L645 1076Q652 1101 681 1120T750 1139Q790 1138 806 1119T815 1074L603 293Q595 268 568 249T500 231ZM161 686Q172 723 199 743T256 764H1046Q1075 764 1089 744T1093 686Q1082 649
1050 630T986 610H223Q187 610 169 629T161 686Z" />
<glyph unicode="," horiz-adv-x="671" d="M183 8Q118 19 85 58T52 159Q52 215 86 268T182 356T323 391Q434 391 487 330T541 175Q541 52 488 -58T341 -252T122 -386Q57 -411 19 -406T-30 -377Q-42 -350 -26 -330T38 -291Q139 -252 202 -205T294 -116T324 -48Q324
-28 311 -19T260 -4L183 8Z" />
<glyph unicode="-" horiz-adv-x="755" d="M676 671Q748 671 714 602L668 485Q653 451 634 440T585 429H113Q78 429 68 446T75 497L120 614Q135 648 154 659T202 671H676Z" />
<glyph unicode="." horiz-adv-x="644" d="M229 -22Q126 -22 71 26T15 146Q15 208 52 261T159 348T326 381Q430 381 479 331T529 205Q529 145 493 93T389 10T229 -22Z" />
<glyph unicode="/" horiz-adv-x="972" d="M596 602Q558 537 509 450T404 264T295 69T192 -115T108 -265Q77 -313 40 -330T-37 -330Q-78 -315 -83 -282T-57 -202Q-23 -143 29 -60T143 118T265 309T382 493T475 647Q513 714 562 804T664 994T768 1192T865 1375T945
1518Q975 1564 1012 1581T1093 1583Q1134 1567 1137 1534T1110 1454Q1074 1392 1023 1307T915 1127T798 935T687 753T596 602Z" />
<glyph unicode="0" horiz-adv-x="1418" d="M968 1428Q1111 1428 1213 1375T1371 1225T1437 994T1405 698Q1358 518 1274 382T1077 155T838 19T579 -26Q425 -26 319 27T155 177T89 410T123 711Q179 930 301 1091T594 1340T968 1428ZM942 697Q996 922 1015 1054T1012
1245T919 1303Q861 1303 803 1236T690 1041T591 733Q547 552 525 430T505 234T532 130T610 98Q662 98 719 162T834 358T942 697Z" />
<glyph unicode="1" horiz-adv-x="943" d="M341 1170H409Q442 1170 452 1152T446 1084L222 228Q212 194 196 176T155 153L60 136Q29 129 11 111T-7 64Q-7 34 10 17T70 0H726Q766 0 791 19T817 75Q817 97 806 111T771 132L690 148Q660 155 656 173T661 223L957 1344Q968
1383 951 1402T895 1421Q876 1421 855 1415T804 1396Q763 1376 722 1360T625 1334T492 1324H395Q345 1324 318 1302T281 1246Q271 1212 285 1191T341 1170Z" />
<glyph unicode="2" horiz-adv-x="1304" d="M259 336L247 405L396 462Q519 506 615 580T780 763T886 1013Q917 1129 922 1199T912 1301T859 1332Q820 1332 792 1313T743 1257T709 1168L675 1037Q650 942 579 886T415 830Q322 830 283 885T270 1038Q298 1139 382
1230T607 1377T942 1434Q1120 1434 1222 1380T1356 1226T1351 993Q1330 914 1275 842T1131 704T917 578T632 464L259 336ZM7 167Q40 291 151 365T436 439Q510 439 580 428T715 402T838 376T947 365Q1002 365 1046 391T1129 486Q1145 514 1167 525T1211 535Q1246
533 1256 509T1247 433Q1191 265 1120 162T963 13T779 -33Q689 -33 632 -7T547 84T513 259Q512 296 506 310T478 325Q458 325 439 303T402 230Q368 129 327 72T235 -9T123 -33Q48 -33 16 21T7 167Z" />
<glyph unicode="3" horiz-adv-x="1205" d="M644 729L620 761Q641 768 664 772T714 779T771 782Q913 787 1005 739T1131 602T1130 392Q1092 263 995 168T756 20T437 -33Q270 -33 171 10T33 124T13 283Q33 377 104 434T261 492Q359 492 396 435T408 291L382 203Q366
139 388 103T469 67Q512 67 551 96T625 188T686 348Q728 504 696 572T586 640H521Q488 640 471 656T464 708Q472 733 491 755T544 799L1073 1180L1042 1056H537Q495 1056 470 1043T428 1000L395 934Q380 906 355 888T295 870Q259 871 243 890T243 950L376 1312Q392
1353 429 1376T517 1400H1318Q1361 1400 1379 1379T1387 1324Q1379 1297 1351 1273T1269 1214L644 729Z" />
<glyph unicode="4" horiz-adv-x="1257" d="M638 599Q646 627 661 647T700 682L1025 943Q1059 966 1078 973T1115 981Q1137 981 1145 968T1145 925L961 223Q952 194 960 179T989 157L1047 136Q1075 124 1087 109T1091 67Q1082 36 1056 18T986 0H366Q323 0 308 17T302
66Q309 93 331 110T388 136L471 156Q496 161 512 178T538 228L638 599ZM452 796Q518 842 556 883T605 964Q614 996 611 1026T600 1089T590 1156T598 1234Q626 1332 711 1393T928 1455Q1031 1455 1081 1408T1110 1273Q1103 1229 1075 1180T986 1072T822 936L133
402L123 458H1154Q1189 458 1207 444T1216 398Q1206 363 1181 346T1114 329H48Q7 329 -8 350T-12 405Q-6 425 13 449T77 500L452 796Z" />
<glyph unicode="5" horiz-adv-x="1212" d="M10 278Q24 343 61 391T151 465T261 492Q357 492 394 436T405 290L379 202Q363 139 385 103T467 67Q508 67 546 94T618 184T681 356Q731 535 693 616T563 697Q533 697 502 689T435 662T359 613Q319 596 298 587T251 577Q223
577 207 593T201 645L383 1320Q399 1368 433 1395T524 1423Q547 1423 569 1419T614 1409Q670 1391 730 1375T851 1349T972 1338Q1083 1338 1159 1357T1286 1415Q1306 1426 1325 1432T1361 1431Q1375 1424 1377 1408T1365 1356Q1287 1150 1146 1063T794 975Q667
975 553 1005T368 1075L506 1202L357 671L306 692Q384 747 450 780T586 827T746 841Q896 841 994 788T1128 637T1125 405Q1085 268 985 170T741 20T420 -33Q260 -33 163 9T29 123T10 278Z" />
<glyph unicode="6" horiz-adv-x="1317" d="M1009 1434Q1155 1434 1247 1391T1379 1280T1401 1134Q1381 1037 1311 983T1149 929Q1045 929 1006 982T993 1126L1012 1193Q1028 1253 1010 1283T938 1314Q884 1314 824 1250T698 1043T567 657Q519 486 501 375T489
200T519 112T581 87Q629 87 669 120T744 220T805 390Q833 500 830 569T799 671T723 705Q691 705 658 694T594 660T536 606T491 536L431 571Q454 631 501 682T615 772T760 832T926 854Q1053 854 1136 799T1247 638T1232 385Q1195 256 1100 162T863 18T547 -33Q353
-33 240 63T100 329T137 723Q202 949 332 1107T637 1350T1009 1434Z" />
<glyph unicode="7" horiz-adv-x="1140" d="M994 1055L1033 1030H490Q447 1030 426 1018T388 975L338 888Q322 859 297 842T236 826Q197 826 183 846T185 904L339 1310Q356 1350 389 1375T467 1400H1286Q1343 1400 1365 1376T1375 1311Q1368 1286 1345 1254T1259
1177L972 870Q884 805 835 760T761 675T721 586Q706 531 710 485T723 396T737 306T725 201Q698 107 610 36T390 -36Q258 -36 203 34T185 235Q203 300 249 366T364 503T524 650T721 810L994 1055Z" />
<glyph unicode="8" horiz-adv-x="1277" d="M460 -32Q278 -32 176 16T43 147T40 332Q64 412 140 475T333 576T598 614L590 588Q558 559 529 519T475 429T434 325Q410 243 413 185T445 97T529 66Q600 66 648 116T720 243Q740 309 730 362T674 459T537 536Q399 600
320 667T218 818T226 1016Q247 1094 305 1168T458 1303T677 1398T958 1434Q1115 1434 1218 1384T1361 1243T1362 1027Q1341 957 1289 898T1160 795T989 725T789 695L771 728Q835 782 890 862T973 1028Q1018 1172 995 1250T877 1329Q824 1329 781 1305T707 1239T659
1141Q635 1056 652 991T727 874T883 775Q1068 686 1138 586T1168 344Q1139 238 1045 153T802 18T460 -32Z" />
<glyph unicode="9" horiz-adv-x="1303" d="M432 -33Q287 -33 194 10T63 122T40 268Q61 365 130 419T292 473Q396 473 435 421T449 276L430 209Q413 148 431 118T502 87Q559 87 619 150T743 357T873 743Q935 962 947 1086T934 1262T859 1314Q812 1314 771 1281T696
1179T635 1007Q607 896 611 826T643 722T716 688Q757 688 801 708T883 766T947 856L1006 820Q984 761 937 710T823 621T678 561T512 539Q387 539 302 593T188 748T197 982Q236 1119 337 1220T582 1377T894 1434Q1086 1434 1199 1340T1339 1074T1300 670Q1236 446
1107 289T804 50T432 -33Z" />
<glyph unicode=":" horiz-adv-x="762" d="M246 -22Q143 -22 88 26T32 146Q32 208 69 261T176 348T343 381Q447 381 496 331T546 205Q546 145 510 93T406 10T246 -22ZM390 568Q287 568 232 616T176 736Q176 798 213 851T320 938T487 971Q591 971 640 921T690 795Q690
735 654 683T550 600T390 568Z" />
<glyph unicode=";" horiz-adv-x="766" d="M189 8Q124 19 91 58T58 159Q58 215 92 268T188 356T329 391Q440 391 493 330T547 175Q547 52 494 -58T347 -252T128 -386Q63 -411 25 -406T-24 -377Q-36 -350 -20 -330T44 -291Q145 -252 208 -205T300 -116T330 -48Q330
-28 317 -19T266 -4L189 8ZM391 560Q288 560 233 608T177 728Q177 790 214 843T321 930T488 963Q592 963 641 913T691 787Q691 727 655 675T551 592T391 560Z" />
<glyph unicode="&lt;" horiz-adv-x="1057" d="M367 684L357 653L1020 992Q1066 1012 1091 1035T1122 1082Q1135 1120 1120 1148T1068 1176Q1035 1176 997 1162T903 1122L275 804Q226 783 195 753T153 684Q131 605 202 563L669 243Q711 219 742 205T807 191Q884
191 902 250Q908 273 898 294T854 336L367 684Z" />
<glyph unicode="=" horiz-adv-x="1141" d="M243 882Q253 919 280 939T338 960H1127Q1156 960 1170 940T1174 882Q1163 845 1132 826T1068 806H304Q268 806 250 825T243 882ZM142 483Q152 520 179 540T237 561H1026Q1055 561 1069 541T1073 483Q1062 446 1031 427T967
407H203Q167 407 149 426T142 483Z" />
<glyph unicode="&gt;" horiz-adv-x="1057" d="M804 684L814 715L151 376Q105 356 80 333T49 286Q36 248 51 220T103 192Q136 192 174 206T268 246L896 564Q945 585 976 615T1018 684Q1040 763 969 805L502 1125Q460 1149 429 1163T364 1177Q287 1177 269 1118Q263
1095 273 1074T317 1032L804 684Z" />
<glyph unicode="?" horiz-adv-x="1209" d="M454 661L444 591Q442 540 459 513T520 486Q561 486 590 510T657 595L677 647Q689 674 705 691T763 716L820 727Q1024 765 1145 856T1305 1100Q1335 1217 1295 1307T1143 1447T845 1498Q679 1498 545 1447T324 1315T212
1143Q186 1050 225 990T352 929Q455 929 525 985T628 1155L652 1248Q670 1312 704 1343T791 1375Q827 1375 847 1351T870 1275T851 1145Q817 1017 770 947T645 840L581 811Q514 781 486 746T454 661ZM382 -22Q279 -22 224 26T168 146Q168 208 205 261T312 348T479
381Q583 381 632 331T682 205Q682 145 646 93T542 10T382 -22Z" />
<glyph unicode="@" horiz-adv-x="1966" d="M869 445Q859 375 873 347T911 319Q936 319 964 341T1020 404T1075 504T1123 636T1160 793Q1170 852 1159 886T1116 921Q1085 921 1053 892T992 814T937 702T895 574T869 445ZM1248 116Q1164 116 1118 158T1071 272Q1071
304 1075 338T1087 408T1102 474L1116 400Q1066 302 1010 239T882 146T715 115Q594 115 527 197T476 440Q485 556 538 666T684 866T906 1009T1195 1062Q1342 1062 1433 1044T1565 996T1602 928Q1598 896 1579 881T1540 850T1511 806L1426 480Q1401 386 1410 346T1473
305Q1509 305 1551 326T1634 389T1710 494T1767 640Q1824 853 1771 1007T1579 1244T1238 1327Q1069 1327 914 1275T630 1127T408 898T273 607Q210 370 263 191T465 -87T838 -187Q965 -187 1092 -159T1343 -75T1581 65Q1615 85 1651 94T1706 81Q1722 62 1708 31T1657
-29Q1574 -108 1444 -172T1149 -273T799 -311Q601 -311 449 -248T203 -64T83 225T116 607Q162 781 273 932T542 1197T889 1375T1282 1440Q1463 1440 1605 1387T1837 1230T1953 979T1929 642Q1888 486 1786 368T1545 183T1248 116Z" />
<glyph unicode="A" horiz-adv-x="1407" d="M350 361Q299 278 307 225T367 148L398 133Q420 120 429 105T438 74Q438 40 414 20T350 0H15Q-23 0 -42 16T-62 62Q-62 90 -47 112T16 162Q53 185 98 248T190 391L557 1003Q694 1220 860 1324T1213 1429Q1288 1429 1318
1408T1349 1353Q1349 1331 1340 1316T1309 1285Q1263 1264 1237 1227T1209 1116Q1209 1081 1208 1026T1206 902T1204 760T1202 614T1201 479T1200 370T1200 301Q1201 256 1203 228T1219 179T1264 138Q1299 110 1299 72Q1299 41 1275 21T1208 0H687Q645 0 630 19T614
64Q614 93 631 111T682 144L715 152Q747 164 761 200T776 291Q777 326 778 379T781 498T784 636T788 784T792 929T794 1061T795 1170L886 1146Q861 1134 834 1113T771 1048T685 928L350 361ZM303 432L324 557H894L883 432H303Z" />
<glyph unicode="B" horiz-adv-x="1491" d="M826 1124Q813 1072 795 1000T755 844T713 675T671 510T634 368T608 267Q596 222 608 191T652 144T726 128Q826 128 888 185T972 362Q992 477 947 533T807 589H551L586 700H808Q895 700 957 748T1056 880T1102 1071Q1112
1173 1077 1223T979 1273Q916 1273 883 1240T826 1124ZM393 1400H1049Q1309 1400 1419 1307T1515 1044Q1505 936 1436 848T1244 706T950 653L941 668Q1122 668 1229 629T1380 520T1412 352Q1390 185 1227 93T758 0H85Q39 0 24 18T8 63Q8 89 23 108T64 138L109 152Q133
161 142 177T161 226Q170 253 185 309T221 442T264 604T308 773T349 931T381 1055T398 1124Q413 1184 418 1211T387 1253L347 1266Q325 1277 314 1290T303 1325Q303 1358 326 1379T393 1400Z" />
<glyph unicode="C" horiz-adv-x="1354" d="M1242 479Q1266 470 1275 440T1249 348Q1195 229 1104 146T895 18T639 -26Q456 -26 322 55T129 296T117 686Q150 853 227 989T413 1223T654 1375T925 1428Q991 1428 1037 1415T1114 1384T1167 1353T1208 1340Q1227 1340
1247 1353T1288 1382T1330 1412T1372 1426Q1404 1426 1423 1408T1442 1357L1422 960Q1421 924 1399 907T1346 890Q1284 890 1262 958L1245 1016Q1207 1156 1148 1214T1002 1273Q941 1273 883 1238T775 1136T684 970T618 745Q576 541 593 422T668 253T810 202Q862
202 915 224T1020 296T1121 423Q1159 461 1187 475T1242 479Z" />
<glyph unicode="D" horiz-adv-x="1602" d="M9 63Q9 88 24 108T65 138L110 152Q126 158 136 169T157 207T182 281Q194 324 212 389T250 533T292 696T335 860T372 1007T400 1122T416 1187Q423 1215 417 1229T391 1251L348 1266Q328 1276 316 1289T304 1325Q304 1359
327 1379T395 1400H988Q1148 1400 1273 1351T1479 1208T1588 981T1581 677Q1547 511 1467 385T1272 173T1016 44T720 0H86Q40 0 25 18T9 63ZM740 143Q790 143 841 171T940 262T1031 429T1107 684Q1142 836 1146 945T1130 1123T1073 1226T990 1259H975Q929 1259
897 1227T840 1118Q833 1097 820 1050T789 940T753 803T714 656T677 513T648 389T629 302Q614 220 635 182T714 143H740Z" />
<glyph unicode="E" horiz-adv-x="1363" d="M552 792H859Q906 792 944 818T1008 916Q1022 939 1038 949T1074 959Q1105 959 1121 942T1142 896L1172 586Q1179 542 1160 522T1107 500Q1082 500 1066 512T1038 545Q1010 613 969 641T851 669H516L552 792ZM786 0H81Q35
0 20 18T4 63Q4 89 19 108T60 138L106 152Q126 160 136 177T160 233Q165 248 179 299T213 426T256 590T303 769T347 939T384 1078T406 1164Q416 1210 411 1227T386 1251L343 1266Q328 1274 314 1286T299 1325Q299 1358 322 1379T390 1400H1138Q1207 1400 1249 1417T1329
1434Q1401 1434 1413 1357L1432 1033Q1438 995 1423 974T1376 947Q1340 942 1314 959T1268 1030Q1242 1125 1211 1178T1137 1254T1031 1277H877Q870 1251 853 1188T811 1035T760 845T707 644T658 455T620 305T599 220Q593 188 598 166T622 134T680 123H777Q849
123 903 146T1006 225T1110 384Q1153 457 1203 457Q1271 457 1269 371Q1264 275 1244 200T1187 74T1100 -3T982 -30Q933 -30 889 -15T786 0Z" />
<glyph unicode="F" horiz-adv-x="1299" d="M299 1325Q299 1358 322 1379T390 1400H1111Q1179 1400 1221 1417T1302 1434Q1374 1434 1385 1357L1405 1024Q1411 987 1396 966T1348 940Q1312 935 1288 952T1244 1015L1227 1067Q1204 1145 1176 1190T1106 1256T1004
1277H878Q869 1244 851 1178T809 1024T760 838T709 644T663 463T627 319T605 234Q594 194 596 174T636 146L706 135Q731 130 741 114T752 75Q752 42 729 21T661 0H81Q35 0 20 18T4 63Q4 89 19 108T60 138L106 152Q126 160 137 178T160 233Q170 264 186 324T224
463T268 627T312 799T354 959T386 1088T406 1164Q417 1207 413 1224T386 1251L343 1266Q323 1277 311 1290T299 1325ZM549 756H856Q909 756 944 786T1005 889Q1019 912 1035 921T1071 931Q1103 931 1119 914T1139 868L1175 543Q1182 499 1163 479T1110 457Q1085
457 1069 469T1041 503Q1023 548 999 576T939 619T848 633H512L549 756Z" />
<glyph unicode="G" horiz-adv-x="1531" d="M914 1427Q995 1427 1050 1413T1143 1379T1204 1346T1246 1331Q1268 1331 1290 1346T1334 1380T1378 1415T1422 1430Q1456 1430 1477 1408T1502 1340L1497 971Q1499 932 1480 914T1433 893Q1402 890 1379 903T1343 948L1309
1041Q1281 1124 1242 1176T1151 1252T1035 1276Q959 1276 892 1237T767 1119T667 925T597 653Q565 459 577 345T635 183T750 134Q798 134 840 152T913 209T957 304L1001 501Q1007 527 1003 544T976 565L890 579Q865 584 856 600T846 638Q846 672 869 692T936 713H1461Q1508
713 1523 695T1538 650Q1538 622 1522 604T1482 576L1443 562Q1422 553 1412 538T1392 494L1281 77Q1263 20 1241 -3T1178 -26Q1158 -26 1133 -18T1081 2T1027 26T976 47T935 55Q916 55 888 43T822 15T733 -14T615 -26Q433 -26 308 56T130 290T110 658Q137 829
211 969T393 1212T635 1371T914 1427Z" />
<glyph unicode="H" horiz-adv-x="1697" d="M596 207Q590 182 597 169T621 149L664 134Q686 124 697 111T709 75Q709 42 686 21T618 0H81Q35 0 20 18T4 63Q4 92 21 110T60 138L106 152Q125 160 135 172T156 219Q166 251 183 311T221 451T266 619T312 796T355 962T390
1100T413 1190Q417 1214 412 1228T386 1251L343 1266Q322 1277 311 1290T299 1325Q299 1359 322 1379T390 1400H924Q970 1400 985 1382T1001 1337Q1001 1309 985 1290T945 1262L900 1248Q879 1240 871 1228T850 1180Q839 1149 821 1084T780 933T732 752T684 565T642
396T611 269T596 207ZM545 734H1295L1256 597H506L545 734ZM1416 207Q1410 182 1417 169T1441 149L1483 134Q1505 124 1516 111T1528 75Q1528 42 1505 21T1437 0H901Q855 0 840 18T824 63Q824 92 841 110T879 138L925 152Q945 160 955 172T976 219Q986 251 1003
311T1041 451T1085 619T1131 796T1174 962T1209 1100T1231 1190Q1236 1214 1231 1228T1205 1251L1163 1266Q1141 1277 1130 1290T1119 1325Q1119 1359 1142 1379T1210 1400H1744Q1790 1400 1805 1382T1821 1337Q1821 1309 1805 1290T1765 1262L1719 1248Q1699 1240
1690 1228T1670 1180Q1659 1149 1640 1084T1599 933T1552 752T1504 565T1461 396T1430 269T1416 207Z" />
<glyph unicode="I" horiz-adv-x="887" d="M603 207Q596 182 604 169T628 149L670 134Q692 124 703 111T715 75Q715 42 692 21T624 0H88Q42 0 27 18T11 63Q11 92 28 110T66 138L112 152Q132 160 142 172T162 219Q172 251 189 311T227 451T272 619T318 796T360 962T395
1100T417 1190Q422 1214 417 1228T391 1251L349 1266Q327 1277 316 1290T305 1325Q305 1359 328 1379T396 1400H930Q976 1400 991 1382T1007 1337Q1007 1309 991 1290T951 1262L905 1248Q884 1240 875 1228T856 1180Q845 1149 827 1084T785 933T738 752T690 565T648
396T617 269T603 207Z" />
<glyph unicode="J" horiz-adv-x="876" d="M833 1116Q825 1090 809 1030T770 884T723 701T671 501T622 305T579 135T546 13Q512 -132 440 -230T265 -378T39 -428Q-72 -428 -128 -376T-184 -251Q-184 -188 -143 -144T-28 -100Q7 -100 43 -115T114 -151T183 -188T248
-204Q283 -204 303 -185T323 -130Q323 -102 304 -73T256 -10T203 61T167 144T170 244Q178 277 193 334T227 465T267 621T311 785T352 938T386 1064T408 1146Q423 1203 420 1222T391 1251L349 1266Q327 1277 316 1290T305 1325Q305 1358 328 1379T396 1400H930Q976
1400 991 1382T1007 1337Q1007 1309 991 1290T951 1262L905 1248Q890 1242 880 1232T860 1195T833 1116Z" />
<glyph unicode="K" horiz-adv-x="1608" d="M575 197Q572 182 581 172T605 155L643 140Q663 128 677 114T692 73Q692 40 670 20T602 0H82Q36 0 21 18T5 63Q5 92 22 110T61 138L107 152Q126 160 136 174T156 219Q166 251 183 312T222 453T267 623T313 802T357 970T392
1110T414 1199Q419 1222 412 1234T386 1253L345 1266Q324 1277 313 1290T301 1326Q301 1359 325 1379T391 1400H920Q956 1400 972 1383T989 1336Q989 1308 972 1293T928 1264L886 1250Q871 1244 859 1230T836 1185Q825 1153 807 1088T765 935T716 751T667 561T623
390T590 260T575 197ZM745 659L1072 961L1293 364Q1313 315 1333 287T1388 259Q1409 259 1426 270T1463 304Q1496 326 1521 319Q1541 314 1552 293T1547 232Q1516 151 1459 93T1328 2T1172 -30Q1069 -30 1021 12T937 146L745 659ZM571 377L525 496L1248 1264Q1308
1326 1355 1363T1446 1417T1541 1434Q1634 1434 1682 1379T1721 1239Q1711 1145 1654 1102T1514 1058Q1466 1058 1427 1068T1342 1079Q1292 1079 1244 1057T1148 984L571 377Z" />
<glyph unicode="L" horiz-adv-x="1265" d="M716 0H81Q35 0 20 18T4 63Q4 89 19 108T60 138L106 152Q128 160 137 177T159 231Q167 254 183 312T221 451T267 624T315 807T359 978T394 1114T412 1192Q417 1217 411 1231T386 1251L343 1266Q325 1275 312 1289T299
1325Q299 1358 322 1379T389 1400H924Q970 1400 985 1382T1001 1337Q1001 1309 985 1291T947 1262L900 1248Q882 1241 872 1228T850 1180Q834 1135 814 1067T773 917T729 749T687 581T651 429T623 313T609 248Q595 179 617 151T691 123H736Q795 123 841 151T937
245T1050 428Q1075 474 1098 491T1146 509Q1184 509 1199 485T1213 421Q1209 315 1187 231T1127 89T1037 1T916 -30Q885 -30 858 -23T799 -8T716 0Z" />
<glyph unicode="M" horiz-adv-x="1897" d="M1005 492L837 411L1384 1284Q1427 1352 1471 1376T1559 1400H1914Q1957 1400 1974 1384T1992 1337Q1992 1309 1975 1290T1936 1262L1886 1248Q1867 1241 1856 1224T1837 1174Q1832 1149 1821 1092T1793 957T1760 789T1726
612T1694 445T1668 311T1653 232Q1647 200 1654 179T1681 149L1726 134Q1749 124 1760 111T1772 75Q1772 42 1749 21T1681 0H1149Q1105 0 1089 17T1072 64Q1072 92 1088 110T1128 138L1174 152Q1198 160 1209 180T1230 245Q1241 300 1253 360T1278 487T1306 624T1334
768T1362 915T1390 1063L1414 1061L895 189Q855 130 824 108T745 86Q706 86 677 117T634 211Q627 260 619 319T601 445T580 585T558 738T534 900T510 1068L541 1076L332 296Q316 233 328 198T378 147L405 134Q449 112 449 75Q449 42 426 21T359 0H59Q14 0 -2 18T-19
63Q-19 92 -2 110T37 138L65 150Q89 160 110 180T154 249T204 396L410 1165Q422 1208 416 1225T386 1251L344 1266Q322 1277 311 1290T300 1326Q300 1360 324 1380T390 1400H725Q784 1400 823 1370T877 1261Q885 1211 894 1154T914 1036T935 909T957 774T981 634T1005
492Z" />
<glyph unicode="N" horiz-adv-x="1486" d="M353 348L548 1101L413 1091Q457 991 498 893T578 702T650 528T710 381T754 270Q776 228 786 187T794 98Q793 50 817 25T886 0H1240Q1289 0 1308 38T1305 123L1247 287Q1232 324 1231 352T1241 424L1325 803Q1341 869
1364 913T1424 993T1517 1063Q1602 1117 1642 1173T1684 1299Q1685 1376 1637 1416T1518 1456Q1426 1456 1363 1391T1264 1192L1049 300L1193 366Q1162 441 1131 512T1068 656T1004 803T939 954T873 1115T803 1289Q773 1344 737 1372T630 1400H353Q307 1400 286
1377T266 1322T296 1261L340 1166Q368 1135 372 1091T361 997L201 364Q179 277 147 224T76 153L39 138Q-15 112 -15 63Q-15 36 2 18T62 0H404Q438 0 459 17T480 66Q480 89 467 104T435 130L411 141Q352 168 344 221T353 348Z" />
<glyph unicode="O" horiz-adv-x="1571" d="M1016 1428Q1171 1427 1286 1372T1472 1218T1566 986T1554 695Q1514 513 1426 377T1215 150T947 15T647 -26Q491 -24 375 30T190 183T103 422T125 734Q160 884 239 1011T434 1232T697 1378T1016 1428ZM687 109Q728 108
774 133T867 225T962 410T1052 712Q1082 833 1095 924T1108 1083Q1108 1157 1093 1202T1052 1269T988 1293Q942 1297 895 1271T802 1180T711 1002T626 719Q591 578 576 476T561 304Q562 197 595 154T687 109Z" />
<glyph unicode="P" horiz-adv-x="1463" d="M1507 911Q1486 798 1425 711T1274 563T1073 473T838 442Q738 442 672 456T533 502L581 627Q625 598 668 585T762 571Q840 571 904 612T1013 736T1081 939Q1103 1058 1089 1128T1040 1229T959 1260Q907 1260 877 1229T826
1130Q823 1119 812 1073T783 957T744 804T701 633T659 465T622 321T596 224Q585 186 590 171T613 150L700 135Q725 129 735 114T746 75Q746 42 723 21T655 0H76Q28 0 14 18T-1 64Q-1 92 16 110T55 138L101 152Q122 160 132 174T150 215Q159 248 177 313T218 463T266
641T315 826T358 996T391 1127T408 1196Q413 1222 406 1233T380 1251L338 1266Q316 1277 305 1290T294 1325Q294 1359 317 1379T384 1400H1031Q1155 1400 1253 1367T1416 1269T1505 1115T1507 911Z" />
<glyph unicode="Q" horiz-adv-x="1571" d="M715 382Q721 405 734 417T766 425Q787 421 792 406T792 366Q764 233 766 144T800 -2T889 -89T1024 -130Q1110 -142 1165 -132T1251 -110T1295 -104Q1308 -108 1310 -128T1299 -167L1200 -313Q1183 -336 1156 -355T1084
-383T966 -385Q842 -372 764 -286T671 -35T715 382ZM1016 1428Q1171 1427 1286 1372T1472 1218T1566 986T1554 695Q1514 513 1426 377T1215 150T947 15T647 -26Q491 -24 375 30T190 183T103 422T125 734Q160 884 239 1011T434 1232T697 1378T1016 1428ZM687 109Q728
108 774 133T867 225T962 410T1052 712Q1082 833 1095 924T1108 1083Q1108 1157 1093 1202T1052 1269T988 1293Q942 1297 895 1271T802 1180T711 1002T626 719Q591 578 576 476T561 304Q562 232 577 190T620 129T687 109Z" />
<glyph unicode="R" horiz-adv-x="1547" d="M493 584L599 682Q643 654 693 643T802 632Q888 632 953 676T1060 800T1118 990Q1132 1091 1114 1152T1055 1243T964 1273Q904 1273 877 1243T832 1162Q824 1139 809 1083T773 949T730 784T684 608T641 442T606 306T585
221Q576 184 584 174T610 155L648 140Q670 127 682 112T695 73Q695 40 673 20T606 0H82Q37 0 21 18T5 63Q5 92 22 110T61 138L107 152Q127 160 137 174T156 217Q162 236 177 291T213 425T258 595T305 777T350 947T385 1082T404 1159Q415 1203 415 1221T386 1253L345
1266Q325 1276 313 1290T301 1326Q301 1359 325 1379T391 1400H1011Q1203 1400 1331 1343T1515 1182T1539 934Q1513 806 1419 712T1175 566T833 511Q713 509 635 529T493 584ZM776 531L1177 600L1249 344Q1256 318 1267 299T1293 270T1327 259Q1349 259 1369 272T1411
307Q1421 315 1436 319T1464 318Q1487 311 1493 288T1486 231Q1435 109 1326 40T1087 -30Q1027 -30 985 -13T915 40T873 135L776 531Z" />
<glyph unicode="S" horiz-adv-x="1269" d="M648 -26Q564 -26 507 -10T413 28T353 66T314 82Q297 82 275 67T228 32T176 -3T124 -18Q85 -18 66 3T50 71L94 428Q97 478 119 504T176 530Q209 530 230 508T273 439L308 305Q339 215 407 168T558 121Q602 121 634 135T686
178T712 243Q727 319 681 390T504 538Q348 629 285 734T237 982Q251 1106 323 1208T528 1370T849 1431Q1014 1431 1126 1379T1293 1246T1344 1075Q1340 999 1300 948T1185 897Q1129 897 1093 928T1030 1039L1005 1130Q980 1217 934 1258T826 1300Q774 1300 736
1278T675 1218T644 1131Q633 1051 676 982T840 837Q976 749 1048 671T1143 513T1155 339Q1144 233 1078 151T901 22T648 -26Z" />
<glyph unicode="T" horiz-adv-x="1329" d="M551 1429Q623 1429 699 1417T851 1386T994 1350T1117 1319T1209 1306Q1235 1306 1250 1318T1272 1356Q1275 1373 1274 1394T1275 1445Q1282 1505 1320 1545T1435 1585Q1497 1585 1538 1540T1579 1408Q1577 1287 1503
1216T1303 1145Q1253 1145 1179 1160T1020 1198T852 1243T697 1281T578 1297Q529 1297 503 1269T476 1183Q476 1158 480 1137T488 1094T492 1042Q491 982 450 942T341 901Q262 901 215 953T169 1099Q171 1189 216 1264T346 1384T551 1429ZM843 222Q833 189 838
173T858 151L906 133Q951 110 951 72Q951 36 926 18T860 0H324Q282 0 265 16T247 61Q247 89 262 107T302 138L352 154Q365 159 378 181T407 246Q418 277 438 344T483 503T538 696T595 901T648 1094T692 1250T719 1344L1133 1265Q1121 1234 1102 1168T1058 1015T1007
828T954 632T906 451T867 306T843 222Z" />
<glyph unicode="U" horiz-adv-x="1477" d="M1106 466L1265 1019Q1291 1115 1280 1171T1215 1248L1193 1256Q1157 1274 1144 1290T1132 1333Q1132 1361 1153 1380T1217 1400H1595Q1632 1400 1649 1383T1667 1338Q1667 1305 1648 1287T1597 1254L1578 1247Q1523
1223 1488 1168T1424 1007L1267 454Q1218 282 1131 177T917 23T625 -26Q471 -26 370 23T219 154T170 336Q171 378 180 430T202 536T228 631L357 1131Q370 1175 365 1210T340 1256L308 1267Q284 1286 274 1299T264 1338Q265 1364 282 1382T331 1400H900Q974 1400
974 1342Q973 1318 959 1294T917 1259L881 1250Q850 1239 837 1211T807 1126L677 633Q648 526 636 459T623 343Q622 245 668 196T797 147Q895 147 975 216T1106 466Z" />
<glyph unicode="V" horiz-adv-x="1433" d="M1097 1330Q1097 1361 1114 1380T1161 1400H1555Q1595 1400 1615 1382T1636 1335Q1636 1301 1624 1281T1579 1248L1555 1237Q1520 1220 1488 1184T1419 1094T1336 968L893 262Q876 235 866 212T847 159L826 88Q816 52
795 26T726 0H389Q348 0 330 29T324 104L349 200Q357 227 355 265T350 325Q350 345 349 391T347 500T344 636T341 786T337 934T334 1065T331 1165Q330 1202 321 1222T289 1252L267 1261Q248 1270 236 1287T224 1329Q224 1358 251 1379T314 1400H854Q886 1400 903
1384T921 1337Q921 1305 907 1286T865 1259L826 1249Q795 1241 780 1211T765 1110Q765 1080 765 1026T767 900T770 743T772 565T774 377T775 191L637 139L1175 1005Q1217 1073 1226 1119T1221 1197T1169 1246L1142 1261Q1097 1290 1097 1330Z" />
<glyph unicode="W" horiz-adv-x="2134" d="M1185 1132L1274 1006L827 262Q809 232 797 208T772 146L751 81Q739 41 713 21T628 0H383Q330 0 308 21T298 89L323 185Q329 206 332 231T334 289Q333 321 333 383T333 525T332 694T332 871T330 1038T327 1171Q327 1201
324 1222T298 1253L272 1263Q248 1275 236 1290T223 1332Q223 1363 246 1381T314 1400H826Q872 1400 889 1383T907 1337Q907 1312 892 1293T850 1261L811 1249Q780 1239 767 1215T752 1144Q751 1111 750 1055T746 928T743 773T740 600T738 419T738 241L623 222L1185
1132ZM1811 1327Q1811 1359 1834 1379T1902 1400H2273Q2317 1400 2333 1382T2350 1336Q2350 1288 2295 1262L2260 1246Q2229 1230 2198 1195T2136 1111T2071 1003L1655 277Q1636 248 1627 221T1609 152L1594 86Q1586 44 1558 22T1487 0H1218Q1176 0 1155 29T1145
101L1162 168Q1168 188 1173 209T1176 252Q1174 299 1172 370T1168 527T1162 704T1156 883T1149 1045T1139 1172Q1135 1210 1130 1228T1106 1255L1081 1268Q1062 1278 1052 1292T1041 1325Q1041 1361 1065 1380T1133 1400H1611Q1648 1400 1668 1385T1689 1336Q1689
1310 1672 1292T1626 1259L1591 1246Q1560 1234 1550 1205T1540 1121Q1541 1089 1543 1029T1547 890T1552 723T1557 547T1565 380T1572 239L1461 246L1906 1024Q1947 1100 1947 1161T1881 1254L1846 1271Q1811 1291 1811 1327Z" />
<glyph unicode="X" horiz-adv-x="1447" d="M606 726L708 621L440 302Q383 237 385 197T424 141L446 131Q463 123 473 109T484 72Q484 41 460 21T399 0H49Q9 0 -10 17T-29 64Q-29 93 -13 112T42 150Q57 157 78 169T124 199T172 238T217 284L606 726ZM830 1163Q841
1134 861 1082T909 962T968 816T1031 658T1095 501T1152 360T1198 247Q1210 213 1223 193T1255 162T1302 140Q1358 113 1358 70Q1358 40 1336 20T1274 0H709Q664 0 647 18T630 65Q630 88 643 106T687 139L716 146Q749 160 749 185T732 258Q725 280 706 331T660
452T601 602T534 766T468 926T409 1066T363 1169Q345 1211 326 1228T264 1262Q234 1278 221 1293T207 1333Q207 1363 231 1381T297 1400H879Q921 1400 939 1384T958 1338Q958 1311 942 1292T894 1258L856 1247Q831 1239 825 1218T830 1163ZM912 698L792 780L1173
1262Q1227 1328 1270 1368T1356 1427T1448 1446Q1520 1446 1557 1403T1595 1295Q1595 1207 1542 1152T1402 1092Q1374 1091 1355 1090T1318 1087Q1278 1083 1244 1068T1177 1024T1104 943L912 698Z" />
<glyph unicode="Y" horiz-adv-x="1298" d="M722 531L1036 1180Q1087 1281 1136 1339T1237 1421T1349 1446Q1431 1446 1474 1402T1517 1290Q1517 1210 1460 1155T1295 1065Q1233 1046 1188 1025T1109 968T1044 871L880 527Q860 490 852 462T838 411L791 207Q784
182 791 170T816 149L858 134Q885 121 894 107T903 75Q903 39 878 20T812 0H276Q232 0 216 17T199 63Q199 113 254 138L300 152Q323 160 332 175T350 219L408 438Q418 471 413 507T400 580Q398 599 392 646T378 757T362 890T345 1023T329 1134T316 1198Q309 1227
295 1241T249 1264Q227 1274 214 1288T201 1326Q201 1359 224 1379T292 1400H606Q659 1400 686 1380T720 1316Q725 1293 733 1234T752 1094T775 927T799 760T820 619T836 532L722 531Z" />
<glyph unicode="Z" horiz-adv-x="1359" d="M734 0H111Q15 0 15 85Q15 117 38 154T94 225Q122 257 170 316T279 452T409 616T550 794T689 970T816 1129T918 1257T984 1338L1022 1283H793Q676 1283 586 1218T403 1016Q368 968 336 959T273 963Q242 975 238 1004T256
1080L356 1347Q382 1401 401 1418T459 1436Q479 1436 499 1427T547 1409T613 1400H1367Q1419 1400 1443 1384T1467 1329Q1467 1296 1441 1262T1376 1188Q1349 1148 1306 1091T1211 964T1098 817T976 660T851 500T729 348T617 213T525 105L485 124H667Q753 124 821
145T952 229T1086 419Q1111 464 1131 481T1180 498Q1216 498 1232 475T1248 409Q1244 305 1224 224T1167 86T1078 0T956 -30Q916 -30 888 -23T826 -8T734 0Z" />
<glyph unicode="[" horiz-adv-x="824" d="M752 1299L401 -46Q388 -88 403 -105T467 -122H582Q660 -122 642 -187Q634 -214 610 -231T544 -249H116Q64 -249 50 -225T51 -150L463 1404Q480 1456 508 1480T588 1504H1015Q1057 1504 1070 1486T1076 1440Q1055 1376
978 1376H862Q814 1376 789 1359T752 1299Z" />
<glyph unicode="\" horiz-adv-x="835" d="M347 624Q360 549 376 450T409 239T443 17T475 -192T502 -362Q514 -418 542 -447T615 -474Q659 -474 675 -445T679 -361Q667 -293 647 -197T603 10T555 233T510 446T477 624Q464 700 450 801T421 1015T392 1238T365 1444T340
1607Q328 1661 299 1690T224 1720Q180 1719 165 1690T163 1605Q175 1534 193 1436T231 1228T274 1008T315 798T347 624Z" />
<glyph unicode="]" horiz-adv-x="824" d="M149 -46L500 1299Q513 1341 498 1358T434 1375H319Q241 1375 259 1440Q267 1467 291 1484T357 1502H785Q837 1502 851 1478T850 1403L438 -151Q421 -203 393 -227T313 -251H-114Q-156 -251 -169 -233T-175 -187Q-154
-123 -77 -123H39Q87 -123 112 -106T149 -46Z" />
<glyph unicode="^" horiz-adv-x="920" d="M746 1264H634L775 819Q797 772 822 752T881 732Q930 732 950 773T952 875L854 1319Q832 1390 804 1411T730 1433Q701 1433 673 1424T614 1391T541 1319L208 878Q156 820 150 777T192 733Q226 733 272 753T369 820L746 1264Z" />
<glyph unicode="_" horiz-adv-x="1014" d="M-95 -279Q-85 -239 -62 -216T-3 -193H882Q916 -193 925 -216T924 -280Q912 -320 889 -343T831 -367H-53Q-89 -367 -98 -343T-95 -279Z" />
<glyph unicode="`" horiz-adv-x="584" d="M483 1335L504 1134Q509 1115 507 1097T484 1063Q466 1050 443 1049T400 1057L249 1161Q185 1199 158 1240T138 1343Q146 1397 194 1447T318 1505Q398 1516 435 1468T483 1335Z" />
<glyph unicode="a" horiz-adv-x="1264" d="M1042 357Q1024 287 1031 260T1058 233Q1069 233 1080 238T1109 258Q1133 278 1148 281T1178 277Q1197 267 1198 241T1178 173Q1131 82 1036 26T833 -30Q742 -30 704 15T665 138Q665 163 667 190T672 245T681 299T692
351L719 273Q694 182 632 114T483 8T300 -30Q160 -30 86 57T33 320Q45 415 84 508T189 685T347 832T558 932T820 969Q962 969 1054 950T1189 899T1226 827Q1221 792 1201 778T1161 750T1130 699L1042 357ZM452 324Q443 248 457 219T496 190Q523 190 552 213T611
279T669 382T720 516T757 674Q771 752 761 788T716 824Q681 824 647 794T581 711T523 594T478 459T452 324Z" />
<glyph unicode="b" horiz-adv-x="1223" d="M683 1136L525 603L459 599Q502 730 574 811T736 931T918 969Q1055 969 1129 886T1203 662Q1203 524 1154 399T1020 178T828 26T604 -30Q474 -30 393 34T324 225L395 169L239 55Q192 20 155 4T86 -12Q32 -12 15 35T28
193L234 910Q282 1076 371 1195T604 1377T956 1441Q1145 1441 1245 1381T1345 1223Q1345 1148 1297 1094T1164 1039Q1105 1039 1055 1074T960 1157T875 1241T791 1277Q754 1277 730 1246T683 1136ZM721 773Q690 771 656 737T591 646T533 520T491 376T473 234Q472
181 488 153T534 125Q566 125 600 158T668 248T727 376T770 525T786 675Q786 714 777 735T754 766T721 773Z" />
<glyph unicode="c" horiz-adv-x="1056" d="M643 826Q611 826 579 793T519 694T478 531Q455 367 497 292T630 216Q664 216 694 227T752 261T807 313Q843 353 863 373T913 393Q943 392 957 362T955 274Q935 207 892 152T783 55T632 -8T438 -30Q225 -30 120 90T41
434Q55 546 106 643T242 813T441 928T694 969Q817 969 896 928T1011 822T1043 684Q1038 590 972 539T830 487Q755 487 716 520T678 606Q679 646 690 677T702 749Q703 783 688 804T643 826Z" />
<glyph unicode="d" horiz-adv-x="1269" d="M1041 745L778 726Q781 777 768 802T713 827Q670 827 630 793T554 701T491 573T448 430T432 293Q432 231 451 208T502 184Q526 184 549 196T595 236T639 308T678 415L879 1096Q932 1277 1043 1359T1301 1441Q1424 1441
1484 1388T1545 1260Q1545 1176 1499 1125T1371 1074Q1324 1074 1293 1092T1238 1135T1188 1178T1130 1196Q1097 1196 1079 1178T1060 1130Q1060 1100 1075 1069T1113 1001T1153 922T1176 826T1163 706L1067 356Q1048 287 1055 260T1083 233Q1094 233 1105 238T1134
258Q1157 278 1172 281T1202 277Q1221 267 1222 241T1202 173Q1172 112 1118 67T997 -4T858 -30Q767 -30 728 15T689 138Q689 172 692 208T702 280T716 350L761 325Q717 200 650 122T499 7T320 -30Q207 -30 136 15T38 148T26 360Q43 482 101 592T255 787T476 920T755
969Q853 969 917 939T1012 858T1041 745Z" />
<glyph unicode="e" horiz-adv-x="1121" d="M237 421Q237 421 270 430T356 453T471 483T592 515T693 543L653 499Q665 539 672 595T681 719Q681 772 666 801T619 830Q592 830 566 808T517 742T478 638T453 500Q440 359 487 286T638 212Q689 212 732 229T813 276T884
344Q915 381 935 393T981 405Q1009 404 1026 379T1029 299Q1006 213 937 138T753 17T470 -30Q306 -30 206 23T65 173T36 402Q48 523 100 626T239 806T440 926T691 969Q801 969 870 933T976 836T1023 695Q1027 672 1035 654T1057 630Q1072 624 1080 614T1089 587Q1089
562 1070 541T999 506Q951 494 878 475T720 434T552 390T399 350T289 321T247 310L237 421Z" />
<glyph unicode="f" horiz-adv-x="791" d="M437 664L507 847L723 846Q775 846 803 832T832 779Q832 748 810 722T749 680T658 664H437ZM72 780Q72 811 96 830T168 850H256L287 993Q334 1209 447 1325T761 1441Q894 1441 962 1380T1031 1237Q1031 1150 982 1098T852
1046Q804 1046 763 1069T687 1121T619 1173T555 1196Q531 1196 516 1184T494 1148Q487 1112 510 1068T566 973T619 870T626 766L430 19Q422 -12 419 -35T416 -75Q416 -111 439 -133T486 -175T510 -228Q510 -277 452 -322T302 -395T111 -424Q9 -424 -19 -356T-11
-161L187 535Q207 607 199 638T155 689Q103 717 88 737T72 780Z" />
<glyph unicode="g" horiz-adv-x="1189" d="M987 31Q950 -137 860 -258T622 -444T264 -509Q86 -509 -8 -445T-103 -277Q-103 -207 -57 -157T71 -107Q132 -107 180 -144T268 -231T347 -318T425 -355Q451 -355 470 -341T506 -294T537 -204L668 304L719 274Q694 182
632 114T483 8T300 -30Q207 -30 143 9T49 126T33 320Q45 415 84 508T189 685T347 832T558 932T820 969Q962 969 1054 950T1189 899T1226 827Q1221 792 1201 778T1159 750T1130 699L987 31ZM452 324Q446 274 451 245T468 203T496 190Q523 190 552 213T611 279T669
382T720 516T757 674Q771 752 761 788T716 824Q681 824 647 794T581 711T523 594T478 459T452 324Z" />
<glyph unicode="h" horiz-adv-x="1269" d="M504 446Q525 501 551 546T605 622T661 671T716 689Q756 689 760 657T742 556L644 275Q612 185 614 116T664 9T811 -30Q947 -30 1046 27T1193 177Q1214 218 1213 244T1193 281Q1178 289 1163 286T1124 262Q1107 248 1096
242T1073 236Q1053 236 1046 263T1063 358L1162 641Q1196 736 1191 810T1139 926T995 969Q914 969 825 935T650 824T493 611L517 603L674 1136Q690 1188 705 1219T739 1263T782 1277Q825 1277 866 1241T951 1158T1045 1075T1155 1039Q1244 1039 1295 1093T1346
1223Q1346 1321 1244 1381T947 1441Q739 1441 596 1378T363 1195T225 910L28 221Q6 142 6 86T39 0T142 -30Q297 -30 383 11T469 119Q469 155 458 182T446 243Q446 265 452 293T472 360T504 446Z" />
<glyph unicode="i" horiz-adv-x="745" d="M531 358Q508 290 514 263T541 236Q552 236 563 242T592 262Q616 282 631 285T661 281Q680 271 681 245T661 177Q613 84 514 27T280 -30Q179 -30 133 9T85 117T116 278L224 581Q249 649 242 675T214 702Q203 702 192 697T163
676Q139 657 124 654T94 657Q75 667 74 693T94 761Q141 853 239 911T469 969Q558 969 605 931T659 821T630 646L531 358ZM533 1069Q426 1069 371 1117T315 1237Q315 1296 351 1348T453 1433T613 1466Q726 1466 776 1416T827 1297Q827 1232 791 1180T689 1099T533
1069Z" />
<glyph unicode="j" horiz-adv-x="697" d="M637 644L411 -120Q360 -291 256 -385T-20 -479Q-129 -479 -185 -431T-241 -303Q-241 -230 -197 -183T-83 -135Q-28 -135 12 -160T88 -210T165 -236Q191 -236 207 -225T230 -185Q239 -149 227 -114T193 -41T150 37T120
122T124 216L228 581Q248 651 243 676T218 702Q207 702 196 697T166 676Q143 657 128 654T98 657Q79 667 78 693T98 761Q130 823 184 869T312 942T472 969Q604 969 643 886T637 644ZM498 1069Q391 1069 336 1117T280 1237Q280 1296 315 1348T418 1433T578 1466Q690
1466 741 1416T792 1297Q792 1232 756 1180T654 1099T498 1069Z" />
<glyph unicode="k" horiz-adv-x="1255" d="M540 623Q546 655 558 704T587 819T627 964T677 1136Q693 1189 708 1220T742 1264T785 1277Q828 1277 869 1241T954 1158T1048 1075T1158 1039Q1247 1039 1298 1093T1349 1223Q1349 1321 1247 1381T950 1441Q742 1441
599 1377T366 1195T228 910L31 221Q9 142 9 86T42 0T145 -30Q249 -30 322 -12T433 40T471 119Q471 155 460 182T449 243Q449 259 452 282T466 346T494 455Q514 530 544 590T609 690T685 753T767 775Q809 775 830 747T841 671Q830 611 783 566T644 491T404 444L408
335Q680 370 858 424T1128 555T1235 735Q1251 848 1186 908T991 969Q896 969 813 945T664 874T552 758T486 599L540 623ZM557 397L611 164Q632 69 680 20T822 -30Q909 -30 982 3T1106 93T1173 227Q1181 261 1173 277T1147 299Q1134 303 1119 299T1082 277Q1068
266 1052 258T1017 249Q990 249 967 268T929 338L891 474L557 397Z" />
<glyph unicode="l" horiz-adv-x="728" d="M732 1441Q856 1441 916 1385T977 1251Q977 1175 934 1129T812 1083Q763 1083 731 1100T674 1139T623 1179T562 1196Q539 1196 523 1188T499 1165T491 1130Q491 1100 508 1069T547 1001T587 922T610 826T594 706L488 358Q467
289 472 263T498 236Q509 236 520 242T549 262Q572 282 587 285T617 281Q636 271 637 245T617 177Q586 115 531 69T401 -4T236 -30Q136 -30 91 8T43 114T68 275L319 1096Q375 1277 482 1359T732 1441Z" />
<glyph unicode="m" horiz-adv-x="1916" d="M683 223L800 556Q823 624 819 656T774 689Q739 689 701 659T627 575T562 446Q544 399 531 361T510 294T503 243Q503 210 514 183T526 119Q526 52 441 11T200 -30Q92 -30 68 38T88 223L221 581Q247 649 239 675T211 702Q200
702 189 697T159 676Q136 657 121 654T91 657Q72 667 71 693T91 761Q139 854 240 911T479 969Q562 969 606 936T651 841Q651 804 634 759T594 666T552 570T529 480L496 489Q566 671 661 775T858 924T1053 969Q1150 969 1199 936T1248 841Q1248 804 1232 760T1193
667T1152 570T1130 480L1089 489Q1142 625 1209 717T1351 865T1502 945T1646 969Q1743 969 1790 927T1842 811T1814 641L1715 358Q1691 291 1699 264T1727 236Q1740 236 1751 242T1778 262Q1803 282 1818 285T1847 281Q1866 271 1867 245T1847 177Q1801 84 1702
27T1465 -30Q1366 -30 1319 8T1269 116T1297 275L1396 556Q1422 623 1416 656T1370 689Q1335 689 1297 659T1222 575T1158 446Q1140 399 1127 361T1106 294T1099 243Q1099 210 1110 183T1122 119Q1122 52 1037 11T796 -30Q723 -30 690 0T656 88T683 223Z" />
<glyph unicode="n" horiz-adv-x="1329" d="M91 657Q72 667 71 693T91 761Q140 854 241 911T479 969Q562 969 606 936T651 841Q651 804 634 759T594 666T552 570T529 480L496 489Q549 625 616 717T758 865T908 945T1053 969Q1149 969 1196 927T1249 811T1220 641L1121
358Q1097 290 1104 263T1131 236Q1142 236 1153 242T1182 262Q1206 282 1221 285T1251 281Q1270 271 1271 245T1251 177Q1203 84 1104 27T870 -30Q769 -30 722 8T673 116T702 275L800 556Q826 623 820 656T774 689Q748 689 720 672T663 623T609 546T562 446Q544
399 531 361T510 294T503 243Q503 210 514 183T526 119Q526 52 441 11T200 -30Q92 -30 68 38T88 223L221 581Q247 649 239 675T211 702Q200 702 189 697T159 676Q136 657 121 654T91 657Z" />
<glyph unicode="o" horiz-adv-x="1202" d="M675 971Q849 971 966 908T1134 729T1154 458Q1133 344 1079 254T944 100T758 4T526 -30Q353 -30 236 33T69 212T48 483Q69 597 123 687T258 841T444 937T675 971ZM509 119Q531 114 552 123T593 157T633 222T672 319T709
450Q739 566 747 646T742 770T693 822Q671 827 650 818T609 784T569 720T530 623T493 491Q463 376 455 296T460 171T509 119Z" />
<glyph unicode="p" horiz-adv-x="1257" d="M704 961L395 -220Q382 -270 390 -294T434 -327L487 -339Q525 -347 540 -365T556 -407Q557 -439 530 -459T460 -480L-87 -489Q-120 -490 -140 -472T-161 -427Q-161 -401 -146 -381T-87 -337Q-61 -323 -47 -312T-23 -285T-8
-246L320 949Q332 991 355 1025T409 1084T475 1128T546 1154T615 1163Q693 1163 712 1114T704 961ZM186 649Q158 628 130 626T85 643Q69 663 80 696T126 761Q194 822 287 868T497 942T750 969Q907 969 1016 910T1177 734T1206 449Q1187 302 1116 195T932 29T679
-29Q535 -29 450 29T346 172L453 224Q473 181 502 158T570 133Q620 133 663 169T741 288T797 504Q814 608 804 678T760 785T675 826Q574 834 447 795T186 649Z" />
<glyph unicode="q" horiz-adv-x="1196" d="M668 304L719 274Q694 182 632 114T483 8T300 -30Q160 -30 86 57T33 320Q45 415 84 508T189 685T347 832T558 932T820 969Q962 969 1054 950T1189 899T1226 827Q1221 792 1201 778T1160 750T1130 699L904 -215Q890 -273
894 -298T920 -338L954 -360Q973 -372 983 -385T993 -417Q993 -450 970 -464T906 -480L375 -490Q336 -491 318 -477T299 -434Q299 -406 320 -386T389 -351Q422 -341 442 -330T476 -298T499 -245L668 304ZM452 324Q443 248 457 219T496 190Q523 190 552 213T611
279T669 382T720 516T757 674Q771 752 761 788T716 824Q681 824 647 794T581 711T523 594T478 459T452 324Z" />
<glyph unicode="r" horiz-adv-x="1119" d="M91 657Q72 667 71 693T91 761Q123 823 179 869T309 942T470 969Q546 969 583 936T620 841Q620 804 606 759T573 666T538 569T519 477L499 484Q536 624 588 718T699 867T818 945T932 969Q1029 969 1081 908T1130 746Q1127
658 1091 595T999 499T879 465Q808 465 778 495T747 563Q747 592 755 618T764 671Q764 691 754 702T728 713Q705 713 681 690T628 610T562 447Q538 376 528 332T518 251Q518 214 534 198T566 165T582 112Q582 71 542 39T420 -11T214 -30Q135 -30 98 1T59 89T88
224L221 581Q247 649 239 675T211 702Q200 702 189 697T159 676Q136 657 121 654T91 657Z" />
<glyph unicode="s" horiz-adv-x="1052" d="M461 98Q503 98 526 121T550 182Q550 211 537 234T486 283T373 345Q288 388 236 429T159 519T135 632Q136 723 196 799T371 922T655 969Q787 969 871 938T998 851T1040 724Q1041 650 1012 612T930 573Q880 573 844 604T771
717Q736 782 697 814T607 846Q570 846 549 827T527 769Q527 743 541 717T594 659T707 586Q802 534 854 490T926 399T946 289Q946 195 882 124T704 11T434 -30Q285 -30 194 4T61 97T19 226Q21 292 50 330T132 369Q193 369 232 331T305 219Q342 150 378 124T461 98Z"
/>
<glyph unicode="t" horiz-adv-x="862" d="M179 753L139 770Q114 781 103 799T92 839Q92 871 119 890T191 909H234Q274 909 307 926T373 977L532 1133Q557 1157 581 1167T633 1177Q668 1177 685 1159T702 1113Q702 1096 698 1067T682 998L506 362Q487 292 500 263T560
234Q589 234 616 248T674 297Q694 317 707 325T737 333Q757 333 769 319T777 279Q769 227 731 173T627 73T477 -1T291 -30Q193 -30 141 9T82 129T111 336L196 623Q215 688 211 715T179 753ZM543 746L592 902H824Q877 902 877 850Q877 802 840 774T739 746H543Z"
/>
<glyph unicode="u" horiz-adv-x="1328" d="M1238 282Q1256 272 1257 246T1238 178Q1189 85 1088 28T850 -30Q766 -30 722 3T678 98Q678 135 695 179T735 272T777 369T800 459L833 450Q781 314 713 222T571 74T420 -6T276 -30Q181 -30 133 12T80 128T109 298L208
581Q232 649 225 675T198 702Q186 702 175 697T146 677Q123 658 108 655T78 658Q59 668 58 694T78 762Q125 855 224 912T459 969Q559 969 606 931T657 824T627 664L529 383Q504 316 509 283T554 250Q580 250 608 267T665 316T719 392T766 492Q785 540 798 578T818
646T825 696Q825 729 814 756T802 820Q802 887 888 928T1128 969Q1238 969 1261 901T1241 716L1108 358Q1083 291 1090 264T1117 237Q1129 237 1140 243T1169 263Q1193 283 1208 286T1238 282Z" />
<glyph unicode="v" horiz-adv-x="1333" d="M1318 740Q1318 616 1280 502T1169 291T996 122T771 10T503 -30Q373 -30 299 21T225 168Q225 249 264 306T366 405T495 482T620 553T709 633V579Q620 579 553 596T430 637T325 679T220 699Q189 700 176 688T160 655Q157
612 212 586Q252 567 270 545T287 488Q286 440 254 415T181 389Q106 389 59 453T18 630Q24 728 70 804T195 925T377 969Q438 969 485 957T570 932T642 919Q683 919 706 931T750 956T801 968Q830 968 846 949T863 886Q863 839 851 781T819 659T781 528T750 398T737
279Q737 218 758 193T810 167Q839 166 873 193T939 265T990 367T1011 481Q1011 517 998 555T962 624Q937 657 924 687T911 761Q912 818 939 865T1013 940T1123 969Q1216 969 1267 911T1318 740Z" />
<glyph unicode="w" horiz-adv-x="1904" d="M1303 969Q1371 967 1398 889T1390 674Q1341 487 1258 354T1062 135T811 10T511 -30Q367 -30 291 21T214 168Q214 249 256 305T362 404T495 482T623 554T711 636L698 579Q609 579 542 596T419 637T314 679T210 699Q179
700 165 688T149 655Q146 612 201 586Q241 567 259 545T277 488Q276 440 244 415T171 389Q95 389 49 453T8 630Q13 728 59 804T184 925T366 969Q427 969 474 957T559 932T632 919Q672 919 697 931T746 956T807 968Q846 968 873 943T901 867Q901 827 883 784T840
691T788 584T744 460T726 313Q726 243 756 215T845 187Q901 187 963 216T1090 308T1221 475T1349 728Q1305 553 1293 440T1291 264T1328 176T1387 151Q1422 151 1453 171T1511 227T1557 313T1585 418Q1591 458 1586 493T1566 556T1530 606Q1498 636 1481 675T1465
769Q1467 819 1494 865T1570 940T1682 969Q1797 969 1844 876T1869 624Q1854 500 1803 383T1673 173T1494 25T1281 -30Q1162 -30 1085 17T972 150T936 349T974 599Q1024 786 1113 878T1303 969Z" />
<glyph unicode="x" horiz-adv-x="1304" d="M473 468L559 437Q555 322 528 235T455 89T344 0T201 -30Q102 -30 52 30T3 185Q4 304 61 379T200 455Q265 455 303 415T341 307Q341 281 335 259T328 215Q328 197 338 187T360 176Q378 176 402 205T447 298T473 468ZM812
711L835 355Q839 298 857 262T915 226Q948 226 970 242T1022 290Q1048 316 1064 326T1102 335Q1127 335 1140 319T1148 272Q1136 202 1083 133T948 17T766 -30Q673 -30 612 5T517 110T475 284L448 624Q444 678 428 704T382 731Q359 731 332 713T265 649Q254 635
242 628T212 620Q188 620 174 638T167 698Q180 758 233 821T371 926T568 969Q648 969 700 936T780 844T812 711ZM820 414L748 440Q749 561 779 658T862 825T981 931T1123 968Q1221 968 1271 903T1320 737Q1319 614 1261 549T1123 484Q1064 484 1028 517T993 607Q994
624 1001 651T1008 701Q1008 719 999 731T972 744Q947 744 922 720T874 652T837 547T820 414Z" />
<glyph unicode="y" horiz-adv-x="1172" d="M760 654Q806 811 875 890T1038 969Q1111 969 1154 919T1198 787Q1198 687 1142 620T995 506Q954 485 921 463T860 412T812 346T772 256L698 35Q635 -156 545 -271T339 -438T83 -490Q-69 -490 -148 -424T-227 -247Q-227
-170 -179 -115T-57 -59Q-2 -59 30 -86T84 -153T122 -235T162 -303T223 -331Q241 -331 256 -324T282 -301T299 -256T305 -186Q305 -144 301 -85T288 44T269 190T246 344T222 493T198 626Q191 666 178 684T148 703Q138 703 127 696T98 668Q86 655 73 651T47 649Q32
652 21 671T22 731Q42 797 91 851T214 937T374 969Q457 969 510 916T576 755Q582 704 587 634T599 483T609 319T616 159T620 17L572 22L760 654Z" />
<glyph unicode="z" horiz-adv-x="1213" d="M557 330Q576 343 606 363T684 415T798 492Q831 515 863 533T926 565T989 592T1057 614Q1155 640 1198 691T1241 831Q1241 892 1210 930T1111 969Q1057 969 1021 941T961 873T919 792T883 724T842 696Q819 696 803 723T765
792T710 873T616 941T463 969Q347 969 262 914T131 773T85 597Q85 512 128 467T237 421Q281 421 307 444T334 504Q334 527 322 542T279 570Q251 583 241 595T231 619Q231 636 243 646T284 656Q320 656 380 641T507 605T637 569T738 553L748 608Q736 598 707 578T635
529T535 461Q507 443 479 426T418 393T347 363T262 335Q176 311 124 272T47 187T23 94Q23 34 57 2T149 -30Q204 -30 242 -2T306 68T352 151T390 221T432 250Q452 250 466 222T495 152T538 69T612 -1T733 -30Q835 -30 927 19T1077 161T1136 386Q1136 428 1125 444T1095
461Q1078 461 1066 452T1034 414Q1014 382 973 364T857 346Q814 346 758 355T650 372T572 381L557 330Z" />
<glyph unicode="{" horiz-adv-x="903" d="M481 642Q474 614 512 614Q587 614 634 594T700 535T709 443Q699 394 669 346T601 250T532 154T485 58Q469 3 477 -37T515 -100T592 -122H633Q673 -122 687 -139T692 -188Q684 -214 660 -231T595 -249H485Q346 -249 260
-209T143 -100T139 61Q163 143 208 208T301 325T386 421T430 505Q436 540 426 559T383 579Q349 579 324 570T275 550T222 539Q175 539 157 570T151 644Q162 687 199 718T283 750Q313 750 331 741T370 721T426 711Q458 711 476 729T505 780Q516 822 500 864T462
957T431 1069T443 1212Q466 1298 530 1363T698 1466T938 1504H1048Q1089 1504 1103 1486T1108 1441Q1098 1409 1075 1393T1011 1376H970Q899 1376 850 1334T781 1215Q769 1169 776 1123T798 1031T819 938T813 844Q791 763 716 717T528 671Q507 671 496 663T481
642Z" />
<glyph unicode="|" horiz-adv-x="619" d="M282 629Q303 705 328 813T379 1039T430 1263T475 1444Q487 1490 519 1515T602 1540Q651 1540 668 1514T672 1443Q657 1387 634 1308T582 1137T525 952T471 775T429 629Q412 566 392 482T351 304T310 119T271 -53T237
-189Q222 -235 190 -259T109 -283Q60 -282 43 -257T39 -186Q58 -112 90 -5T160 219T229 444T282 629Z" />
<glyph unicode="}" horiz-adv-x="898" d="M496 611Q503 639 465 639Q390 639 343 659T277 718T268 810Q278 859 308 907T376 1003T445 1099T492 1195Q508 1250 500 1290T462 1353T385 1375H344Q304 1375 290 1392T285 1441Q293 1467 317 1484T382 1502H492Q631
1502 717 1462T834 1353T838 1192Q814 1110 769 1045T676 928T591 832T547 748Q541 713 551 694T594 674Q628 674 653 683T702 703T755 714Q802 714 820 683T826 609Q815 566 778 535T694 503Q664 503 646 512T607 532T551 542Q519 542 501 524T472 473Q461 431
477 389T515 296T546 184T534 41Q511 -45 447 -110T279 -213T39 -251H-71Q-112 -251 -126 -233T-131 -188Q-121 -156 -98 -140T-34 -123H7Q78 -123 127 -81T196 38Q208 84 201 130T179 222T158 315T164 409Q186 490 261 536T449 582Q470 582 481 590T496 611Z"
/>
<glyph unicode="~" horiz-adv-x="1255" d="M887 503Q824 503 769 532T664 599T564 666T459 695Q397 695 346 659T262 553Q245 526 220 512T167 497Q93 497 117 584Q138 661 197 727T336 834T501 875Q585 875 646 846T756 780T846 713T931 684Q992 684 1043 716T1120
813Q1142 847 1169 863T1222 880Q1260 880 1272 858T1271 792Q1249 711 1190 646T1052 542T887 503Z" />
<glyph unicode="&#xa0;" horiz-adv-x="388" />
<glyph unicode="&#xa1;" horiz-adv-x="813" d="M190 -422Q66 -422 18 -369T-10 -226Q-5 -195 12 -149T51 -58L355 540Q377 578 403 595T465 613Q499 613 514 596T529 539L514 -63Q512 -100 509 -136T498 -200Q471 -307 395 -364T190 -422ZM591 1127Q695 1127 750
1079T805 959Q805 897 768 844T661 757T494 724Q390 724 341 774T291 900Q291 960 327 1012T431 1095T591 1127Z" />
<glyph unicode="&#xa2;" horiz-adv-x="1074" d="M1060 707Q1055 625 1001 581T875 536Q817 536 780 572T753 692L761 756Q766 798 759 824T731 862T677 875Q630 875 583 838T499 728T447 548Q422 382 474 306T634 229Q698 229 750 259T843 344Q863 360 878 376T920
391Q943 390 961 365T960 293Q928 210 862 144T698 40T475 1Q328 1 228 53T82 204T53 444Q67 559 121 656T263 825T461 936T701 976Q826 976 907 937T1027 837T1060 707ZM625 512Q599 412 579 331T544 182T517 60T495 -38T476 -118Q467 -144 450 -158T408 -172Q387
-172 377 -159T376 -115Q384 -87 394 -53T416 23T444 115T476 226T514 357T555 512Q575 587 591 650T620 767T643 866T662 948T677 1017T692 1074Q699 1101 718 1115T762 1129Q782 1129 791 1115T791 1071Q784 1046 775 1015T754 947T728 865T698 767T663 650T625
512Z" />
<glyph unicode="&#xa3;" horiz-adv-x="1297" d="M434 378L334 384Q381 415 402 444T426 507Q429 545 410 583T360 663T300 752T252 854T240 978Q250 1102 335 1205T574 1370T938 1432Q1083 1432 1177 1386T1316 1264T1352 1099Q1348 1024 1312 964T1219 869T1092
833Q1001 833 961 896T945 1066L977 1201Q994 1276 979 1310T917 1345Q857 1345 813 1285T733 1086Q718 1030 706 974T684 861T662 751T635 645Q611 562 565 491T434 378ZM-27 125Q-19 215 39 287T190 401T397 444Q472 444 535 432T657 404T771 376T889 364Q960
364 1005 394T1088 485Q1107 513 1127 525T1172 535Q1198 531 1210 514T1217 468Q1191 355 1145 263T1037 105T897 3T729 -33Q642 -33 585 -5T499 88T465 266Q464 302 458 315T438 328Q423 328 411 309T381 243Q340 139 299 79T211 -7T106 -33Q33 -33 1 12T-27
125ZM146 646Q151 666 168 678T206 692L423 707L486 612H179Q161 612 151 621T146 646ZM560 612L581 692H931Q950 692 958 681T961 652Q950 612 908 612H560Z" />
<glyph unicode="&#xa4;" horiz-adv-x="1162" d="M530 307Q637 307 736 351T910 477T1014 667Q1044 779 1014 860T908 987T727 1032Q621 1032 522 988T350 864T247 675Q217 563 245 481T349 353T530 307ZM568 429Q465 429 424 500T408 671Q426 738 467 792T566
879T692 912Q794 912 837 842T855 671Q838 604 796 549T696 462T568 429ZM971 207Q1009 232 1013 264T997 323L868 504L717 399L846 219Q868 194 901 187T971 207ZM286 1128Q250 1102 246 1070T262 1011L391 830L541 934L412 1115Q391 1140 357 1147T286 1128ZM71
217Q91 192 128 192T199 219L395 400L300 511L105 331Q72 302 61 273T71 217ZM1188 1121Q1167 1146 1130 1146T1059 1118L862 938L959 827L1153 1007Q1187 1036 1198 1065T1188 1121Z" />
<glyph unicode="&#xa5;" horiz-adv-x="1312" d="M722 531L1019 1148Q1076 1260 1127 1323T1231 1411T1339 1437Q1424 1437 1466 1394T1509 1286Q1509 1214 1459 1157T1299 1064Q1222 1041 1176 1017T1101 959T1044 871L880 527Q860 490 852 462T838 411L791 207Q784
182 791 170T816 149L858 134Q885 121 894 107T903 75Q903 39 878 20T812 0H276Q232 0 216 17T199 63Q199 113 254 138L300 152Q323 160 332 175T350 219L408 438Q418 471 413 507T400 580Q398 599 392 646T378 757T362 890T345 1023T329 1134T316 1198Q309 1227
295 1241T249 1264Q227 1274 214 1288T201 1326Q201 1359 224 1379T292 1400H606Q659 1400 686 1380T720 1316Q725 1293 733 1234T752 1094T775 927T799 760T820 619T836 532L722 531ZM119 457Q125 477 141 488T177 500H1126Q1151 500 1161 489T1165 457Q1159 436
1142 425T1102 414H149Q109 414 119 457ZM181 721Q186 740 202 752T237 764H661L674 677H209Q168 677 181 721ZM910 677L966 764H1193Q1213 764 1222 752T1225 721Q1219 700 1204 689T1167 677H910Z" />
<glyph unicode="&#xa6;" horiz-adv-x="684" d="M503 803Q489 750 465 727T404 703Q371 703 358 727T358 803Q373 862 387 941T413 1106T438 1270T466 1403Q483 1465 523 1499T627 1534Q689 1534 711 1500T717 1403Q702 1349 673 1271T611 1107T548 942T503 803ZM256
421Q270 474 294 497T355 521Q388 521 401 497T401 421Q385 362 372 283T346 118T321 -46T292 -179Q277 -241 236 -275T132 -310Q69 -310 48 -276T42 -179Q57 -125 86 -47T148 117T211 282T256 421Z" />
<glyph unicode="&#xa7;" horiz-adv-x="1240" d="M389 -439Q339 -439 304 -430T244 -407T202 -385T172 -375Q152 -375 133 -384T95 -405T62 -426T33 -435Q3 -435 -8 -420T-17 -371L24 -83Q26 -58 41 -41T84 -17Q113 -11 132 -20T164 -59Q182 -161 215 -217T293
-297T394 -320Q462 -320 508 -289T567 -204Q581 -146 553 -99T432 -7Q285 47 210 110T117 248T120 408Q144 504 213 578T386 697T621 746L610 662Q556 658 517 624T468 543Q455 479 497 428T640 331Q776 277 845 213T933 77T933 -78Q908 -183 833 -265T645 -393T389
-439ZM881 1305Q813 1305 765 1261T706 1151Q693 1090 731 1046T848 964Q970 911 1041 841T1138 691T1142 524Q1122 433 1051 361T872 245T629 197L644 281Q703 286 744 318T798 395Q815 459 778 517T642 625Q448 698 378 805T343 1056Q363 1156 433 1241T623 1377T910
1428Q1043 1428 1132 1385T1266 1273T1306 1131Q1303 1063 1267 1018T1163 973Q1111 973 1076 1001T1020 1099L1004 1162Q997 1207 983 1239T944 1288T881 1305Z" />
<glyph unicode="&#xa8;" horiz-adv-x="953" d="M250 1045Q161 1045 122 1092T104 1222Q127 1306 191 1353T345 1401Q434 1401 473 1354T490 1222Q468 1141 404 1093T250 1045ZM717 1045Q628 1045 588 1092T570 1222Q593 1305 658 1353T811 1401Q903 1401 942 1354T959
1222Q937 1141 873 1093T717 1045Z" />
<glyph unicode="&#xa9;" horiz-adv-x="1844" d="M746 -118Q930 -118 1103 -62T1422 98T1674 348T1830 672Q1885 865 1867 1027T1766 1309T1544 1494T1223 1560Q1038 1560 865 1502T547 1340T297 1091T144 774Q90 584 108 421T207 137T426 -51T746 -118ZM782 -4Q628
-4 515 54T335 218T256 465T290 775Q331 923 417 1045T623 1257T888 1397T1187 1446Q1338 1446 1452 1388T1635 1226T1719 980T1686 672Q1644 523 1555 399T1344 185T1078 46T782 -4ZM1407 513Q1390 453 1341 394T1218 286T1053 208T856 179Q718 179 624 254T497
459T508 751Q537 856 600 947T752 1106T942 1213T1150 1252Q1214 1252 1249 1241T1306 1219T1349 1208Q1370 1208 1393 1217T1437 1234T1472 1243Q1503 1243 1510 1230T1518 1185L1499 931Q1500 905 1477 888T1420 864Q1391 860 1369 870T1339 909Q1333 997 1314
1046T1264 1116T1199 1137Q1154 1137 1116 1113T1044 1041T983 927T931 776Q895 641 901 553T951 421T1068 377Q1131 377 1193 419T1316 539Q1330 550 1342 555T1366 560T1388 558Q1418 546 1407 513Z" />
<glyph unicode="&#xaa;" horiz-adv-x="1203" d="M1063 904Q1048 849 1053 825T1081 801Q1098 801 1109 810T1139 837Q1149 845 1159 846T1178 844Q1192 839 1195 819T1184 764Q1150 679 1066 627T862 575Q799 575 765 613T731 718Q731 739 733 762T738 809T745
856T755 901L774 835Q728 746 675 689T557 603T402 575Q288 575 226 649T179 869Q188 974 237 1075T373 1257T579 1386T847 1435Q983 1435 1068 1419T1192 1375T1226 1314Q1223 1286 1205 1272T1169 1245T1141 1205L1063 904ZM545 873Q537 809 550 785T584 760Q607
760 633 780T685 838T736 929T780 1048T814 1192Q825 1245 814 1276T774 1308Q738 1308 701 1268T632 1162T577 1020T545 873Z" />
<glyph unicode="&#xab;" horiz-adv-x="1272" d="M99 520Q109 550 135 576T207 627Q323 694 413 749T570 847T678 920Q709 940 734 944T773 934Q787 920 780 900T752 853Q724 819 691 779T616 689T523 581T403 450L412 539Q454 441 479 367T520 235T550 132Q558
108 555 88T534 57Q517 45 498 49T461 74Q434 110 392 161T289 275T144 413Q114 440 103 465T99 520ZM624 520Q634 550 660 576T732 627Q848 694 938 749T1095 847T1203 920Q1234 940 1259 944T1298 934Q1312 920 1305 900T1277 853Q1249 819 1216 779T1141 689T1048
581T928 450L937 539Q979 441 1004 367T1045 235T1075 132Q1083 108 1080 88T1059 57Q1042 45 1023 49T986 74Q959 110 917 161T814 275T669 413Q639 440 628 465T624 520Z" />
<glyph unicode="&#xac;" horiz-adv-x="1137" d="M182 778Q193 817 225 839T292 862H1015Q1060 862 1082 838T1091 767L1000 436Q991 405 961 383T888 360Q840 360 821 385T811 443L885 724L908 697H241Q208 697 189 718T182 778Z" />
<glyph unicode="&#xad;" horiz-adv-x="755" d="M682 671Q754 671 720 602L674 485Q659 451 640 440T591 429H119Q84 429 74 446T81 497L126 614Q141 648 160 659T208 671H682Z" />
<glyph unicode="&#xae;" horiz-adv-x="1441" d="M642 247Q792 247 932 293T1189 424T1390 621T1511 870Q1552 1013 1534 1134T1447 1344T1266 1483T1006 1532Q857 1532 720 1488T467 1362T268 1169T148 925Q106 780 122 657T205 441T383 298T642 247ZM671 344Q512
344 407 420T266 628T277 925Q318 1075 422 1189T672 1369T976 1435Q1135 1435 1242 1362T1389 1161T1383 870Q1342 719 1236 601T982 413T671 344ZM1222 997Q1206 934 1147 886T1006 823Q961 817 927 805T847 793Q792 793 759 806T705 834L727 909Q751 888 770
882T828 875Q879 875 913 903T964 993Q983 1065 963 1115T900 1165Q876 1165 862 1151T839 1109Q830 1073 820 1032T797 947T773 856T749 763T725 674Q721 657 721 650T729 637L741 630Q751 621 751 614T747 595Q737 560 692 560H419Q372 560 381 595Q386 607 395
616T418 632L438 640Q449 645 457 651T469 674Q482 719 494 765T518 858T543 950T566 1040T588 1127Q592 1141 589 1148T579 1160L562 1168Q542 1179 548 1205Q561 1240 606 1240H922Q1101 1240 1176 1173T1222 997ZM816 832L1034 869L1059 735Q1061 713 1072 702T1096
691Q1107 691 1116 696T1135 709Q1144 714 1156 714Q1168 714 1172 701T1169 669Q1142 608 1082 574T950 540Q903 540 874 565T840 645L816 832Z" />
<glyph unicode="&#xaf;" horiz-adv-x="868" d="M81 1204Q95 1256 124 1279T193 1302H726Q766 1302 781 1280T782 1205Q769 1154 741 1131T672 1107H138Q99 1107 83 1131T81 1204Z" />
<glyph unicode="&#xb0;" horiz-adv-x="792" d="M648 1433Q739 1433 798 1394T878 1287T875 1127Q851 1041 793 975T654 872T485 835Q351 835 286 919T257 1133Q280 1217 337 1285T475 1393T648 1433ZM613 1312Q539 1312 481 1261T403 1133Q383 1054 416 1005T520
956Q589 956 649 1004T728 1130Q749 1211 717 1261T613 1312Z" />
<glyph unicode="&#xb1;" horiz-adv-x="1143" d="M540 387Q500 387 483 406T473 452L685 1232Q692 1257 721 1276T790 1295Q830 1294 846 1275T855 1230L643 449Q635 424 608 405T540 387ZM201 842Q212 879 239 899T296 920H1086Q1115 920 1129 900T1133 842Q1122
805 1090 786T1026 766H263Q227 766 209 785T201 842ZM56 162Q66 199 93 219T151 240H940Q969 240 983 220T987 162Q976 125 945 106T881 86H117Q81 86 63 105T56 162Z" />
<glyph unicode="&#xb2;" horiz-adv-x="798" d="M285 856L239 886L365 936Q483 982 543 1045T631 1209Q655 1303 653 1339T621 1375Q590 1375 574 1353T547 1291L529 1222Q514 1168 468 1135T359 1102Q300 1102 273 1133T261 1222Q283 1303 384 1368T663 1434Q831
1434 894 1372T931 1212Q909 1133 826 1071T570 952L285 856ZM126 769Q146 843 223 879T438 916Q475 916 509 912T576 901T638 890T695 885Q724 885 748 898T794 947Q805 963 820 969T848 975Q900 973 876 915Q828 775 758 715T597 654Q521 654 484 683T430 781Q421
805 419 816T407 828Q396 828 387 814T369 771Q353 711 316 683T217 654Q161 654 136 685T126 769Z" />
<glyph unicode="&#xb3;" horiz-adv-x="736" d="M523 1044L503 1061Q525 1067 549 1070T603 1074Q721 1074 782 1021T818 873Q789 767 678 705T404 643Q247 643 183 694T140 823Q154 875 203 910T313 945Q372 945 397 914T408 832L392 770Q385 744 393 724T425
704Q455 704 478 736T521 845Q542 922 529 955T485 989H442Q419 989 407 999T401 1031Q406 1047 417 1059T449 1084L736 1265L725 1194H449Q400 1194 380 1159L361 1121Q351 1104 336 1094T295 1084Q271 1084 259 1095T255 1130L334 1347Q343 1371 367 1385T425
1400H905Q935 1400 948 1387T954 1353Q950 1337 932 1323T879 1290L523 1044Z" />
<glyph unicode="&#xb4;" horiz-adv-x="560" d="M218 1335Q276 1420 338 1468T476 1505Q545 1497 567 1447T565 1343Q541 1282 492 1241T358 1161L154 1057Q129 1048 107 1049T74 1063Q63 1078 71 1096T96 1134L218 1335Z" />
<glyph unicode="&#xb5;" horiz-adv-x="1324" d="M95 284L134 259Q103 143 104 58T118 -91T141 -209T135 -320Q116 -389 57 -432T-72 -475Q-151 -475 -185 -420T-194 -273Q-182 -230 -147 -176T-65 -54T24 98T95 284ZM184 537Q201 589 208 626T216 701Q216 733
200 760T184 824Q184 892 270 932T512 973Q619 973 642 905T623 721L521 386Q501 318 505 285T553 252Q579 252 606 266T660 311T712 387T759 494Q777 543 788 581T806 649T812 701Q812 733 801 760T789 824Q789 892 874 932T1116 973Q1224 973 1252 904T1227 721L1100
363Q1070 293 1073 266T1105 238Q1120 238 1136 248T1180 283Q1201 294 1217 294T1245 290Q1263 279 1263 253T1242 196Q1179 96 1069 35T842 -27Q758 -27 714 5T670 100Q670 138 687 182T727 275T769 371T791 462L827 453Q760 317 687 225T539 77T388 -2T239 -27Q149
-27 107 15T64 132T102 301L184 537Z" />
<glyph unicode="&#xb6;" horiz-adv-x="1493" d="M166 944Q202 1082 291 1184T508 1343T785 1400H1610Q1637 1400 1657 1384T1668 1336Q1660 1309 1642 1293T1602 1266L1543 1243Q1510 1231 1489 1212T1459 1164L1223 236Q1215 208 1222 188T1254 158L1301 140Q1323
131 1332 115T1333 70Q1323 34 1290 17T1228 0H365Q338 0 325 15T319 58Q330 91 352 111T404 140L469 158Q507 168 528 184T557 224L640 550Q607 545 577 540T518 535Q304 535 210 646T166 944ZM978 248L1207 1151Q1218 1189 1206 1212T1148 1236Q1104 1236 1078
1210T1041 1151L812 248Q803 216 815 191T872 165Q916 165 941 188T978 248Z" />
<glyph unicode="&#xb7;" horiz-adv-x="670" d="M301 329Q198 329 143 377T87 497Q87 559 124 612T231 699T398 732Q502 732 551 682T601 556Q601 496 565 444T461 361T301 329Z" />
<glyph unicode="&#xb8;" horiz-adv-x="647" d="M402 14H499L378 -139L315 -124Q341 -118 369 -115T440 -112Q546 -112 591 -155T615 -274Q593 -357 512 -406T303 -456Q198 -456 145 -423T96 -348Q101 -326 118 -313T156 -298Q172 -296 183 -302T206 -317Q225 -336
244 -345T289 -355Q357 -355 377 -270Q386 -234 371 -215T315 -195H289Q263 -195 261 -180T277 -143L402 14Z" />
<glyph unicode="&#xb9;" horiz-adv-x="652" d="M338 1285H363Q385 1285 391 1275T390 1236L286 827Q279 805 268 794T239 778L182 764Q134 755 125 722Q112 681 171 681H611Q668 681 680 722Q689 753 651 764L607 778Q594 783 589 794T590 827L738 1392Q752 1439
697 1439Q684 1439 671 1436T637 1426Q594 1404 544 1391T416 1378H371Q342 1378 322 1365T296 1331Q291 1310 300 1298T338 1285Z" />
<glyph unicode="&#xba;" horiz-adv-x="1165" d="M825 1435Q965 1433 1053 1379T1175 1229T1186 1002Q1164 871 1076 772T857 618T574 567Q437 571 350 624T230 771T220 994Q244 1120 320 1221T524 1381T825 1435ZM622 687Q648 685 680 710T747 808T811 1017Q837
1130 840 1194T830 1285T788 1314Q757 1316 721 1281T651 1171T590 973Q567 863 566 802T580 715T622 687Z" />
<glyph unicode="&#xbb;" horiz-adv-x="1293" d="M1210 486Q1200 456 1174 430T1102 379Q986 312 896 257T739 159T631 86Q600 66 575 62T536 72Q522 86 529 106T557 153Q585 187 618 227T693 317T786 425T906 556L897 467Q855 565 830 639T789 771T759 874Q751
898 754 918T775 949Q792 961 811 957T848 932Q875 896 917 845T1020 731T1165 593Q1195 566 1206 541T1210 486ZM685 486Q675 456 649 430T577 379Q461 312 371 257T214 159T106 86Q75 66 50 62T11 72Q-3 86 4 106T32 153Q60 187 93 227T168 317T261 425T381 556L372
467Q330 565 305 639T264 771T234 874Q226 898 229 918T250 949Q267 961 286 957T323 932Q350 896 392 845T495 731T640 593Q670 566 681 541T685 486Z" />
<glyph unicode="&#xbc;" horiz-adv-x="1641" d="M377 1285H402Q424 1285 430 1275T429 1236L325 827Q318 805 307 794T278 778L221 764Q173 755 164 722Q151 681 210 681H650Q707 681 719 722Q728 753 690 764L646 778Q633 783 628 794T629 827L777 1392Q791 1439
736 1439Q723 1439 710 1436T676 1426Q633 1404 583 1391T455 1378H410Q381 1378 361 1365T335 1331Q330 1310 339 1298T377 1285ZM1120 288Q1125 305 1134 316T1158 337L1379 492Q1402 506 1414 511T1439 516Q1474 516 1463 482L1378 146Q1372 124 1377 114T1396
97L1431 84Q1469 69 1461 42Q1448 1 1391 1H978Q919 1 932 42Q941 74 988 84L1038 97Q1055 102 1066 113T1084 146L1120 288ZM1002 409Q1043 435 1066 458T1094 504Q1101 530 1091 552T1071 598T1071 657Q1086 712 1140 749T1286 787Q1361 787 1397 754T1419 664Q1408
627 1374 584T1235 472L859 224L849 258H1480Q1504 258 1516 249T1523 221Q1511 179 1454 179H802Q775 179 764 191T759 225Q763 236 775 251T817 281L1002 409ZM993 771Q965 746 947 740T909 746Q893 757 895 773T919 818Q941 848 975 894T1049 996T1131 1108T1211
1216T1280 1306T1328 1364Q1372 1410 1416 1422T1503 1408Q1543 1382 1540 1343T1493 1257Q1475 1238 1441 1203T1360 1122T1262 1026T1161 927T1067 838T993 771ZM739 627Q767 652 786 658T825 654Q842 642 839 625T813 580Q790 550 757 504T683 402T601 289T521
180T452 90T403 32Q361 -13 316 -25T229 -11Q190 14 193 53T240 139Q258 158 293 193T374 275T472 372T573 471T666 561T739 627Z" />
<glyph unicode="&#xbd;" horiz-adv-x="1689" d="M382 1285H407Q429 1285 435 1275T434 1236L330 827Q323 805 312 794T283 778L226 764Q178 755 169 722Q156 681 215 681H655Q712 681 724 722Q733 753 695 764L651 778Q638 783 633 794T634 827L782 1392Q796 1439
741 1439Q728 1439 715 1436T681 1426Q638 1404 588 1391T460 1378H415Q386 1378 366 1365T340 1331Q335 1310 344 1298T382 1285ZM999 771Q971 746 953 740T915 746Q899 757 901 773T925 818Q947 848 981 894T1055 996T1137 1108T1217 1216T1286 1306T1334 1364Q1378
1410 1422 1422T1509 1408Q1549 1382 1546 1343T1499 1257Q1481 1238 1447 1203T1366 1122T1268 1026T1167 927T1073 838T999 771ZM745 627Q773 652 792 658T831 654Q848 642 845 625T819 580Q796 550 763 504T689 402T607 289T527 180T458 90T409 32Q367 -13 322
-25T235 -11Q196 14 199 53T246 139Q264 158 299 193T380 275T478 372T579 471T672 561T745 627ZM967 174L921 204L1047 254Q1165 300 1225 363T1313 527Q1337 621 1335 657T1303 693Q1272 693 1256 671T1229 609L1211 540Q1196 486 1150 453T1041 420Q982 420
955 451T943 540Q965 621 1066 686T1345 752Q1513 752 1576 690T1613 530Q1591 451 1508 389T1252 270L967 174ZM808 87Q828 161 905 197T1120 234Q1157 234 1191 230T1258 219T1320 208T1377 203Q1406 203 1430 216T1476 265Q1487 281 1502 287T1530 293Q1582
291 1558 233Q1510 93 1440 33T1279 -28Q1203 -28 1166 1T1112 99Q1103 123 1101 134T1089 146Q1078 146 1069 132T1051 89Q1035 29 998 1T899 -28Q843 -28 818 3T808 87Z" />
<glyph unicode="&#xbe;" horiz-adv-x="1727" d="M1209 287Q1214 304 1223 315T1247 336L1468 491Q1491 505 1503 510T1528 515Q1563 515 1552 481L1467 145Q1461 123 1466 113T1485 96L1520 83Q1558 68 1550 41Q1537 0 1480 0H1067Q1008 0 1021 41Q1030 73 1077
83L1127 96Q1144 101 1155 112T1173 145L1209 287ZM1091 408Q1132 434 1155 457T1183 503Q1190 529 1180 551T1160 597T1160 656Q1175 711 1229 748T1375 786Q1450 786 1486 753T1508 663Q1497 626 1463 583T1324 471L948 223L938 257H1569Q1593 257 1605 248T1612
220Q1600 178 1543 178H891Q864 178 853 190T848 224Q852 235 864 250T906 280L1091 408ZM1078 771Q1050 746 1032 740T994 746Q978 757 980 773T1004 818Q1026 848 1060 894T1134 996T1216 1108T1296 1216T1365 1306T1413 1364Q1457 1410 1501 1422T1588 1408Q1628
1382 1625 1343T1578 1257Q1560 1238 1526 1203T1445 1122T1347 1026T1246 927T1152 838T1078 771ZM824 627Q852 652 871 658T910 654Q927 642 924 625T898 580Q875 550 842 504T768 402T686 289T606 180T537 90T488 32Q446 -13 401 -25T314 -11Q275 14 278 53T325
139Q343 158 378 193T459 275T557 372T658 471T751 561T824 627ZM581 1044L561 1061Q583 1067 607 1070T661 1074Q779 1074 840 1021T876 873Q847 767 736 705T462 643Q305 643 241 694T198 823Q212 875 261 910T371 945Q430 945 455 914T466 832L450 770Q443 744
451 724T483 704Q513 704 536 736T579 845Q600 922 587 955T543 989H500Q477 989 465 999T459 1031Q464 1047 475 1059T507 1084L794 1265L783 1194H507Q458 1194 438 1159L419 1121Q409 1104 394 1094T353 1084Q329 1084 317 1095T313 1130L392 1347Q401 1371
425 1385T483 1400H963Q993 1400 1006 1387T1012 1353Q1008 1337 990 1323T937 1290L581 1044Z" />
<glyph unicode="&#xbf;" horiz-adv-x="1221" d="M840 434L850 504Q852 555 835 582T774 609Q733 609 704 585T637 500L617 448Q605 421 589 404T531 379L474 368Q270 330 149 239T-11 -5Q-41 -122 -1 -212T151 -352T449 -403Q615 -403 749 -352T970 -220T1082
-48Q1108 45 1069 105T942 166Q839 166 769 110T666 -60L642 -153Q624 -217 590 -248T503 -280Q467 -280 447 -256T424 -180T443 -50Q477 78 524 148T649 255L713 284Q780 314 808 349T840 434ZM912 1117Q1015 1117 1070 1069T1126 949Q1126 887 1089 834T982 747T815
714Q711 714 662 764T612 890Q612 950 648 1002T752 1085T912 1117Z" />
<glyph unicode="&#xc0;" horiz-adv-x="1407" d="M350 361Q299 278 307 225T367 148L398 133Q420 120 429 105T438 74Q438 40 414 20T350 0H15Q-23 0 -42 16T-62 62Q-62 90 -47 112T16 162Q53 185 98 248T190 391L557 1003Q694 1220 860 1324T1213 1429Q1288 1429
1318 1408T1349 1353Q1349 1331 1340 1316T1309 1285Q1263 1264 1237 1227T1209 1116Q1209 1081 1208 1026T1206 902T1204 760T1202 614T1201 479T1200 370T1200 301Q1201 256 1203 228T1219 179T1264 138Q1299 110 1299 72Q1299 41 1275 21T1208 0H687Q645 0 630
19T614 64Q614 93 631 111T682 144L715 152Q747 164 761 200T776 291Q777 326 778 379T781 498T784 636T788 784T792 929T794 1061T795 1170L886 1146Q861 1134 834 1113T771 1048T685 928L350 361ZM303 432L324 557H894L883 432H303ZM1142 1767L1193 1588Q1199
1569 1199 1552T1181 1518Q1165 1505 1142 1503T1100 1508L934 1576Q864 1603 831 1639T802 1739Q805 1790 850 1841T964 1903Q1038 1917 1079 1879T1142 1767Z" />
<glyph unicode="&#xc1;" horiz-adv-x="1407" d="M357 361Q306 278 314 225T374 148L405 133Q427 120 436 105T445 74Q445 40 421 20T357 0H22Q-16 0 -35 16T-55 62Q-55 90 -40 112T23 162Q60 185 105 248T197 391L564 1003Q701 1220 867 1324T1220 1429Q1295 1429
1325 1408T1356 1353Q1356 1331 1347 1316T1316 1285Q1270 1264 1244 1227T1216 1116Q1216 1081 1215 1026T1213 902T1211 760T1209 614T1208 479T1207 370T1207 301Q1208 256 1210 228T1226 179T1271 138Q1306 110 1306 72Q1306 41 1282 21T1215 0H694Q652 0 637
19T621 64Q621 93 638 111T689 144L722 152Q754 164 768 200T783 291Q784 326 785 379T788 498T791 636T795 784T799 929T801 1061T802 1170L893 1146Q868 1134 841 1113T778 1048T692 928L357 361ZM310 432L331 557H901L890 432H310ZM1255 1767Q1317 1840 1379
1878T1507 1903Q1569 1892 1586 1841T1578 1739Q1550 1676 1497 1640T1360 1576L1158 1508Q1135 1501 1113 1503T1084 1518Q1076 1534 1085 1551T1112 1588L1255 1767Z" />
<glyph unicode="&#xc2;" horiz-adv-x="1407" d="M350 361Q299 278 307 225T367 148L398 133Q420 120 429 105T438 74Q438 40 414 20T350 0H15Q-23 0 -42 16T-62 62Q-62 90 -47 112T16 162Q53 185 98 248T190 391L557 1003Q694 1220 860 1324T1213 1429Q1288 1429
1318 1408T1349 1353Q1349 1331 1340 1316T1309 1285Q1263 1264 1237 1227T1209 1116Q1209 1081 1208 1026T1206 902T1204 760T1202 614T1201 479T1200 370T1200 301Q1201 256 1203 228T1219 179T1264 138Q1299 110 1299 72Q1299 41 1275 21T1208 0H687Q645 0 630
19T614 64Q614 93 631 111T682 144L715 152Q747 164 761 200T776 291Q777 326 778 379T781 498T784 636T788 784T792 929T794 1061T795 1170L886 1146Q861 1134 834 1113T771 1048T685 928L350 361ZM303 432L324 557H894L883 432H303ZM1212 1688H1020L1298 1519Q1350
1485 1395 1515Q1412 1526 1420 1548T1412 1595L1272 1812Q1249 1844 1229 1863T1168 1882Q1128 1882 1096 1863T1023 1812L775 1595Q743 1570 739 1548T744 1515Q758 1501 783 1502T844 1519L1212 1688Z" />
<glyph unicode="&#xc3;" horiz-adv-x="1407" d="M350 361Q299 278 307 225T367 148L398 133Q420 120 429 105T438 74Q438 40 414 20T350 0H15Q-23 0 -42 16T-62 62Q-62 90 -47 112T16 162Q53 185 98 248T190 391L557 1003Q694 1220 860 1324T1213 1429Q1288 1429
1318 1408T1349 1353Q1349 1331 1340 1316T1309 1285Q1263 1264 1237 1227T1209 1116Q1209 1081 1208 1026T1206 902T1204 760T1202 614T1201 479T1200 370T1200 301Q1201 256 1203 228T1219 179T1264 138Q1299 110 1299 72Q1299 41 1275 21T1208 0H687Q645 0 630
19T614 64Q614 93 631 111T682 144L715 152Q747 164 761 200T776 291Q777 326 778 379T781 498T784 636T788 784T792 929T794 1061T795 1170L886 1146Q861 1134 834 1113T771 1048T685 928L350 361ZM303 432L324 557H894L883 432H303ZM1209 1511Q1164 1511 1130
1526T1069 1563T1017 1599T965 1615Q909 1615 870 1536Q846 1501 808 1501Q755 1501 775 1571Q809 1700 876 1767T1029 1835Q1074 1835 1108 1820T1169 1784T1221 1748T1273 1732Q1332 1732 1368 1810Q1393 1846 1431 1846Q1484 1846 1463 1776Q1429 1646 1362
1579T1209 1511Z" />
<glyph unicode="&#xc4;" horiz-adv-x="1407" d="M350 361Q299 278 307 225T367 148L398 133Q420 120 429 105T438 74Q438 40 414 20T350 0H15Q-23 0 -42 16T-62 62Q-62 90 -47 112T16 162Q53 185 98 248T190 391L557 1003Q694 1220 860 1324T1213 1429Q1288 1429
1318 1408T1349 1353Q1349 1331 1340 1316T1309 1285Q1263 1264 1237 1227T1209 1116Q1209 1081 1208 1026T1206 902T1204 760T1202 614T1201 479T1200 370T1200 301Q1201 256 1203 228T1219 179T1264 138Q1299 110 1299 72Q1299 41 1275 21T1208 0H687Q645 0 630
19T614 64Q614 93 631 111T682 144L715 152Q747 164 761 200T776 291Q777 326 778 379T781 498T784 636T788 784T792 929T794 1061T795 1170L886 1146Q861 1134 834 1113T771 1048T685 928L350 361ZM303 432L324 557H894L883 432H303ZM857 1500Q769 1500 730 1546T712
1673Q734 1754 798 1800T951 1847Q1039 1847 1077 1801T1094 1673Q1072 1594 1009 1547T857 1500ZM1318 1500Q1230 1500 1191 1546T1173 1673Q1194 1753 1258 1800T1411 1847Q1502 1847 1541 1801T1558 1673Q1536 1594 1472 1547T1318 1500Z" />
<glyph unicode="&#xc5;" horiz-adv-x="1407" d="M350 361Q299 278 307 225T367 148L398 133Q420 120 429 105T438 74Q438 40 414 20T350 0H15Q-23 0 -42 16T-62 62Q-62 90 -47 112T16 162Q53 185 98 248T190 391L557 1003Q694 1220 860 1324T1213 1429Q1288 1429
1318 1408T1349 1353Q1349 1331 1340 1316T1309 1285Q1263 1264 1237 1227T1209 1116Q1209 1081 1208 1026T1206 902T1204 760T1202 614T1201 479T1200 370T1200 301Q1201 256 1203 228T1219 179T1264 138Q1299 110 1299 72Q1299 41 1275 21T1208 0H687Q645 0 630
19T614 64Q614 93 631 111T682 144L715 152Q747 164 761 200T776 291Q777 326 778 379T781 498T784 636T788 784T792 929T794 1061T795 1170L886 1146Q861 1134 834 1113T771 1048T685 928L350 361ZM303 432L324 557H894L883 432H303ZM1082 1496Q978 1496 920 1545T887
1689Q913 1783 996 1832T1185 1881Q1292 1881 1349 1831T1382 1689Q1357 1598 1274 1547T1082 1496ZM1163 1795Q1132 1795 1106 1769T1066 1689Q1053 1635 1065 1608T1109 1580Q1140 1580 1165 1608T1202 1689Q1215 1743 1204 1769T1163 1795Z" />
<glyph unicode="&#xc6;" horiz-adv-x="2058" d="M1314 1400L1205 1254H1112L385 324Q332 258 332 212T374 145L398 131Q417 121 426 106T427 66Q417 36 391 18T322 0H-32Q-75 0 -90 18T-95 66Q-89 88 -74 102T-30 133L-4 146Q28 163 70 202T156 299L822 1130Q863
1182 863 1212T829 1260Q806 1273 800 1291T801 1334Q812 1365 837 1382T906 1400H1314ZM521 664H1066L1024 525H476L521 664ZM1247 792H1555Q1601 792 1639 818T1704 916Q1718 939 1733 949T1770 959Q1801 959 1817 942T1838 896L1868 586Q1874 542 1855 522T1803
500Q1778 500 1762 512T1734 545Q1706 613 1665 641T1547 669H1211L1247 792ZM1480 0H771Q726 0 710 18T695 64Q695 90 711 109T752 139L793 152Q815 160 826 175T850 226Q854 238 871 297T913 447T970 649T1032 874T1093 1093T1144 1278T1178 1400H1834Q1902 1400
1944 1417T2025 1434Q2059 1434 2080 1416T2108 1357L2128 1033Q2133 995 2118 974T2072 947Q2036 942 2010 959T1963 1030Q1938 1125 1907 1178T1832 1254T1726 1277H1573Q1565 1251 1548 1188T1506 1035T1455 845T1402 643T1353 454T1315 305T1294 220Q1288 188
1293 166T1318 134T1375 123H1473Q1544 123 1598 146T1701 225T1805 384Q1850 457 1898 457Q1930 457 1947 435T1964 371Q1960 275 1940 200T1883 74T1795 -3T1677 -30Q1628 -30 1584 -15T1480 0Z" />
<glyph unicode="&#xc7;" horiz-adv-x="1354" d="M1242 479Q1266 470 1275 440T1249 348Q1195 229 1104 146T895 18T639 -26Q456 -26 322 55T129 296T117 686Q150 853 227 989T413 1223T654 1375T925 1428Q991 1428 1037 1415T1114 1384T1167 1353T1208 1340Q1227
1340 1247 1353T1288 1382T1330 1412T1372 1426Q1404 1426 1423 1408T1442 1357L1422 960Q1421 924 1399 907T1346 890Q1284 890 1262 958L1245 1016Q1207 1156 1148 1214T1002 1273Q941 1273 883 1238T775 1136T684 970T618 745Q576 541 593 422T668 253T810 202Q862
202 915 224T1020 296T1121 423Q1159 461 1187 475T1242 479ZM618 14H715L594 -139L531 -124Q557 -118 585 -115T656 -112Q762 -112 807 -155T831 -274Q809 -357 728 -406T519 -456Q414 -456 361 -423T312 -348Q317 -326 334 -313T372 -298Q388 -296 399 -302T422
-317Q441 -336 460 -345T505 -355Q573 -355 593 -270Q602 -234 587 -215T531 -195H505Q479 -195 477 -180T493 -143L618 14Z" />
<glyph unicode="&#xc8;" horiz-adv-x="1363" d="M552 792H859Q906 792 944 818T1008 916Q1022 939 1038 949T1074 959Q1105 959 1121 942T1142 896L1172 586Q1179 542 1160 522T1107 500Q1082 500 1066 512T1038 545Q1010 613 969 641T851 669H516L552 792ZM786
0H81Q35 0 20 18T4 63Q4 89 19 108T60 138L106 152Q126 160 136 177T160 233Q165 248 179 299T213 426T256 590T303 769T347 939T384 1078T406 1164Q416 1210 411 1227T386 1251L343 1266Q328 1274 314 1286T299 1325Q299 1358 322 1379T390 1400H1138Q1207 1400
1249 1417T1329 1434Q1401 1434 1413 1357L1432 1033Q1438 995 1423 974T1376 947Q1340 942 1314 959T1268 1030Q1242 1125 1211 1178T1137 1254T1031 1277H877Q870 1251 853 1188T811 1035T760 845T707 644T658 455T620 305T599 220Q593 188 598 166T622 134T680
123H777Q849 123 903 146T1006 225T1110 384Q1153 457 1203 457Q1271 457 1269 371Q1264 275 1244 200T1187 74T1100 -3T982 -30Q933 -30 889 -15T786 0ZM945 1767L996 1588Q1002 1569 1002 1552T984 1518Q968 1505 945 1503T903 1508L737 1576Q667 1603 634 1639T605
1739Q608 1790 653 1841T767 1903Q841 1917 882 1879T945 1767Z" />
<glyph unicode="&#xc9;" horiz-adv-x="1363" d="M552 792H859Q906 792 944 818T1008 916Q1022 939 1038 949T1074 959Q1105 959 1121 942T1142 896L1172 586Q1179 542 1160 522T1107 500Q1082 500 1066 512T1038 545Q1010 613 969 641T851 669H516L552 792ZM786
0H81Q35 0 20 18T4 63Q4 89 19 108T60 138L106 152Q126 160 136 177T160 233Q165 248 179 299T213 426T256 590T303 769T347 939T384 1078T406 1164Q416 1210 411 1227T386 1251L343 1266Q328 1274 314 1286T299 1325Q299 1358 322 1379T390 1400H1138Q1207 1400
1249 1417T1329 1434Q1401 1434 1413 1357L1432 1033Q1438 995 1423 974T1376 947Q1340 942 1314 959T1268 1030Q1242 1125 1211 1178T1137 1254T1031 1277H877Q870 1251 853 1188T811 1035T760 845T707 644T658 455T620 305T599 220Q593 188 598 166T622 134T680
123H777Q849 123 903 146T1006 225T1110 384Q1153 457 1203 457Q1271 457 1269 371Q1264 275 1244 200T1187 74T1100 -3T982 -30Q933 -30 889 -15T786 0ZM1049 1767Q1111 1840 1173 1878T1301 1903Q1363 1892 1380 1841T1372 1739Q1344 1676 1291 1640T1154 1576L952
1508Q929 1501 907 1503T878 1518Q870 1534 879 1551T906 1588L1049 1767Z" />
<glyph unicode="&#xca;" horiz-adv-x="1363" d="M552 792H859Q906 792 944 818T1008 916Q1022 939 1038 949T1074 959Q1105 959 1121 942T1142 896L1172 586Q1179 542 1160 522T1107 500Q1082 500 1066 512T1038 545Q1010 613 969 641T851 669H516L552 792ZM786
0H81Q35 0 20 18T4 63Q4 89 19 108T60 138L106 152Q126 160 136 177T160 233Q165 248 179 299T213 426T256 590T303 769T347 939T384 1078T406 1164Q416 1210 411 1227T386 1251L343 1266Q328 1274 314 1286T299 1325Q299 1358 322 1379T390 1400H1138Q1207 1400
1249 1417T1329 1434Q1401 1434 1413 1357L1432 1033Q1438 995 1423 974T1376 947Q1340 942 1314 959T1268 1030Q1242 1125 1211 1178T1137 1254T1031 1277H877Q870 1251 853 1188T811 1035T760 845T707 644T658 455T620 305T599 220Q593 188 598 166T622 134T680
123H777Q849 123 903 146T1006 225T1110 384Q1153 457 1203 457Q1271 457 1269 371Q1264 275 1244 200T1187 74T1100 -3T982 -30Q933 -30 889 -15T786 0ZM1013 1688H821L1099 1519Q1151 1485 1196 1515Q1213 1526 1221 1548T1213 1595L1073 1812Q1050 1844 1030
1863T969 1882Q929 1882 897 1863T824 1812L576 1595Q544 1570 540 1548T545 1515Q559 1501 584 1502T645 1519L1013 1688Z" />
<glyph unicode="&#xcb;" horiz-adv-x="1363" d="M552 792H859Q906 792 944 818T1008 916Q1022 939 1038 949T1074 959Q1105 959 1121 942T1142 896L1172 586Q1179 542 1160 522T1107 500Q1082 500 1066 512T1038 545Q1010 613 969 641T851 669H516L552 792ZM786
0H81Q35 0 20 18T4 63Q4 89 19 108T60 138L106 152Q126 160 136 177T160 233Q165 248 179 299T213 426T256 590T303 769T347 939T384 1078T406 1164Q416 1210 411 1227T386 1251L343 1266Q328 1274 314 1286T299 1325Q299 1358 322 1379T390 1400H1138Q1207 1400
1249 1417T1329 1434Q1401 1434 1413 1357L1432 1033Q1438 995 1423 974T1376 947Q1340 942 1314 959T1268 1030Q1242 1125 1211 1178T1137 1254T1031 1277H877Q870 1251 853 1188T811 1035T760 845T707 644T658 455T620 305T599 220Q593 188 598 166T622 134T680
123H777Q849 123 903 146T1006 225T1110 384Q1153 457 1203 457Q1271 457 1269 371Q1264 275 1244 200T1187 74T1100 -3T982 -30Q933 -30 889 -15T786 0ZM658 1500Q570 1500 531 1546T513 1673Q535 1754 599 1800T752 1847Q840 1847 878 1801T895 1673Q873 1594
810 1547T658 1500ZM1119 1500Q1031 1500 992 1546T974 1673Q995 1753 1059 1800T1212 1847Q1303 1847 1342 1801T1359 1673Q1337 1594 1273 1547T1119 1500Z" />
<glyph unicode="&#xcc;" horiz-adv-x="887" d="M603 207Q596 182 604 169T628 149L670 134Q692 124 703 111T715 75Q715 42 692 21T624 0H88Q42 0 27 18T11 63Q11 92 28 110T66 138L112 152Q132 160 142 172T162 219Q172 251 189 311T227 451T272 619T318 796T360
962T395 1100T417 1190Q422 1214 417 1228T391 1251L349 1266Q327 1277 316 1290T305 1325Q305 1359 328 1379T396 1400H930Q976 1400 991 1382T1007 1337Q1007 1309 991 1290T951 1262L905 1248Q884 1240 875 1228T856 1180Q845 1149 827 1084T785 933T738 752T690
565T648 396T617 269T603 207ZM755 1767L806 1588Q812 1569 812 1552T794 1518Q778 1505 755 1503T713 1508L547 1576Q477 1603 444 1639T415 1739Q418 1790 463 1841T577 1903Q651 1917 692 1879T755 1767Z" />
<glyph unicode="&#xcd;" horiz-adv-x="887" d="M603 207Q596 182 604 169T628 149L670 134Q692 124 703 111T715 75Q715 42 692 21T624 0H88Q42 0 27 18T11 63Q11 92 28 110T66 138L112 152Q132 160 142 172T162 219Q172 251 189 311T227 451T272 619T318 796T360
962T395 1100T417 1190Q422 1214 417 1228T391 1251L349 1266Q327 1277 316 1290T305 1325Q305 1359 328 1379T396 1400H930Q976 1400 991 1382T1007 1337Q1007 1309 991 1290T951 1262L905 1248Q884 1240 875 1228T856 1180Q845 1149 827 1084T785 933T738 752T690
565T648 396T617 269T603 207ZM860 1767Q922 1840 984 1878T1112 1903Q1174 1892 1191 1841T1183 1739Q1155 1676 1102 1640T965 1576L763 1508Q740 1501 718 1503T689 1518Q681 1534 690 1551T717 1588L860 1767Z" />
<glyph unicode="&#xce;" horiz-adv-x="887" d="M603 207Q596 182 604 169T628 149L670 134Q692 124 703 111T715 75Q715 42 692 21T624 0H88Q42 0 27 18T11 63Q11 92 28 110T66 138L112 152Q132 160 142 172T162 219Q172 251 189 311T227 451T272 619T318 796T360
962T395 1100T417 1190Q422 1214 417 1228T391 1251L349 1266Q327 1277 316 1290T305 1325Q305 1359 328 1379T396 1400H930Q976 1400 991 1382T1007 1337Q1007 1309 991 1290T951 1262L905 1248Q884 1240 875 1228T856 1180Q845 1149 827 1084T785 933T738 752T690
565T648 396T617 269T603 207ZM824 1688H632L910 1519Q962 1485 1007 1515Q1024 1526 1032 1548T1024 1595L884 1812Q861 1844 841 1863T780 1882Q740 1882 708 1863T635 1812L387 1595Q355 1570 351 1548T356 1515Q370 1501 395 1502T456 1519L824 1688Z" />
<glyph unicode="&#xcf;" horiz-adv-x="887" d="M603 207Q596 182 604 169T628 149L670 134Q692 124 703 111T715 75Q715 42 692 21T624 0H88Q42 0 27 18T11 63Q11 92 28 110T66 138L112 152Q132 160 142 172T162 219Q172 251 189 311T227 451T272 619T318 796T360
962T395 1100T417 1190Q422 1214 417 1228T391 1251L349 1266Q327 1277 316 1290T305 1325Q305 1359 328 1379T396 1400H930Q976 1400 991 1382T1007 1337Q1007 1309 991 1290T951 1262L905 1248Q884 1240 875 1228T856 1180Q845 1149 827 1084T785 933T738 752T690
565T648 396T617 269T603 207ZM469 1500Q381 1500 342 1546T324 1673Q346 1754 410 1800T563 1847Q651 1847 689 1801T706 1673Q684 1594 621 1547T469 1500ZM930 1500Q842 1500 803 1546T785 1673Q806 1753 870 1800T1023 1847Q1114 1847 1153 1801T1170 1673Q1148
1594 1084 1547T930 1500Z" />
<glyph unicode="&#xd0;" horiz-adv-x="1602" d="M109 699Q116 720 135 734T176 748H883Q906 748 916 734T920 699Q913 675 894 662T852 649H144Q122 649 112 662T109 699ZM16 63Q16 88 31 108T71 138L117 152Q133 158 143 169T164 207T189 281Q200 324 218 389T257
533T299 696T341 860T379 1007T407 1122T423 1187Q430 1215 424 1229T398 1251L355 1266Q335 1276 323 1289T311 1325Q311 1359 334 1379T402 1400H995Q1155 1400 1280 1351T1485 1208T1594 981T1588 677Q1554 511 1474 385T1278 173T1023 44T727 0H93Q47 0 32
18T16 63ZM747 143Q797 143 848 171T947 262T1038 429T1114 684Q1149 836 1153 945T1137 1123T1080 1226T997 1259H982Q936 1259 904 1227T846 1118Q839 1097 826 1050T796 940T759 803T720 656T684 513T654 389T636 302Q620 220 642 182T721 143H747Z" />
<glyph unicode="&#xd1;" horiz-adv-x="1486" d="M353 348L548 1101L413 1091Q457 991 498 893T578 702T650 528T710 381T754 270Q776 228 786 187T794 98Q793 50 817 25T886 0H1240Q1289 0 1308 38T1305 123L1247 287Q1232 324 1231 352T1241 424L1325 803Q1341
869 1364 913T1424 993T1517 1063Q1602 1117 1642 1173T1684 1299Q1685 1376 1637 1416T1518 1456Q1426 1456 1363 1391T1264 1192L1049 300L1193 366Q1162 441 1131 512T1068 656T1004 803T939 954T873 1115T803 1289Q773 1344 737 1372T630 1400H353Q307 1400
286 1377T266 1322T296 1261L340 1166Q368 1135 372 1091T361 997L201 364Q179 277 147 224T76 153L39 138Q-15 112 -15 63Q-15 36 2 18T62 0H404Q438 0 459 17T480 66Q480 89 467 104T435 130L411 141Q352 168 344 221T353 348ZM1151 1511Q1106 1511 1072 1526T1011
1563T959 1599T907 1615Q851 1615 812 1536Q788 1501 750 1501Q697 1501 717 1571Q751 1700 818 1767T971 1835Q1016 1835 1050 1820T1111 1784T1163 1748T1215 1732Q1274 1732 1310 1810Q1335 1846 1373 1846Q1426 1846 1405 1776Q1371 1646 1304 1579T1151 1511Z"
/>
<glyph unicode="&#xd2;" horiz-adv-x="1571" d="M1016 1428Q1171 1427 1286 1372T1472 1218T1566 986T1554 695Q1514 513 1426 377T1215 150T947 15T647 -26Q491 -24 375 30T190 183T103 422T125 734Q160 884 239 1011T434 1232T697 1378T1016 1428ZM687 109Q728
108 774 133T867 225T962 410T1052 712Q1082 833 1095 924T1108 1083Q1108 1157 1093 1202T1052 1269T988 1293Q942 1297 895 1271T802 1180T711 1002T626 719Q591 578 576 476T561 304Q562 197 595 154T687 109ZM1088 1767L1139 1588Q1145 1569 1145 1552T1127
1518Q1111 1505 1088 1503T1046 1508L880 1576Q810 1603 777 1639T748 1739Q751 1790 796 1841T910 1903Q984 1917 1025 1879T1088 1767Z" />
<glyph unicode="&#xd3;" horiz-adv-x="1571" d="M1016 1428Q1171 1427 1286 1372T1472 1218T1566 986T1554 695Q1514 513 1426 377T1215 150T947 15T647 -26Q491 -24 375 30T190 183T103 422T125 734Q160 884 239 1011T434 1232T697 1378T1016 1428ZM687 109Q728
108 774 133T867 225T962 410T1052 712Q1082 833 1095 924T1108 1083Q1108 1157 1093 1202T1052 1269T988 1293Q942 1297 895 1271T802 1180T711 1002T626 719Q591 578 576 476T561 304Q562 197 595 154T687 109ZM1193 1769Q1255 1842 1317 1880T1445 1905Q1507
1894 1524 1843T1516 1741Q1488 1678 1435 1642T1298 1578L1096 1510Q1073 1503 1051 1505T1022 1520Q1014 1536 1023 1553T1050 1590L1193 1769Z" />
<glyph unicode="&#xd4;" horiz-adv-x="1571" d="M1016 1428Q1171 1427 1286 1372T1472 1218T1566 986T1554 695Q1514 513 1426 377T1215 150T947 15T647 -26Q491 -24 375 30T190 183T103 422T125 734Q160 884 239 1011T434 1232T697 1378T1016 1428ZM687 109Q728
108 774 133T867 225T962 410T1052 712Q1082 833 1095 924T1108 1083Q1108 1157 1093 1202T1052 1269T988 1293Q942 1297 895 1271T802 1180T711 1002T626 719Q591 578 576 476T561 304Q562 197 595 154T687 109ZM1157 1688H965L1243 1519Q1295 1485 1340 1515Q1357
1526 1365 1548T1357 1595L1217 1812Q1194 1844 1174 1863T1113 1882Q1073 1882 1041 1863T968 1812L720 1595Q688 1570 684 1548T689 1515Q703 1501 728 1502T789 1519L1157 1688Z" />
<glyph unicode="&#xd5;" horiz-adv-x="1571" d="M1016 1428Q1171 1427 1286 1372T1472 1218T1566 986T1554 695Q1514 513 1426 377T1215 150T947 15T647 -26Q491 -24 375 30T190 183T103 422T125 734Q160 884 239 1011T434 1232T697 1378T1016 1428ZM687 109Q728
108 774 133T867 225T962 410T1052 712Q1082 833 1095 924T1108 1083Q1108 1157 1093 1202T1052 1269T988 1293Q942 1297 895 1271T802 1180T711 1002T626 719Q591 578 576 476T561 304Q562 197 595 154T687 109ZM1154 1513Q1109 1513 1075 1528T1014 1565T962
1601T910 1617Q854 1617 815 1538Q791 1503 753 1503Q700 1503 720 1573Q754 1702 821 1769T974 1837Q1019 1837 1053 1822T1114 1786T1166 1750T1218 1734Q1277 1734 1313 1812Q1338 1848 1376 1848Q1429 1848 1408 1778Q1374 1648 1307 1581T1154 1513Z" />
<glyph unicode="&#xd6;" horiz-adv-x="1571" d="M1016 1428Q1171 1427 1286 1372T1472 1218T1566 986T1554 695Q1514 513 1426 377T1215 150T947 15T647 -26Q491 -24 375 30T190 183T103 422T125 734Q160 884 239 1011T434 1232T697 1378T1016 1428ZM687 109Q728
108 774 133T867 225T962 410T1052 712Q1082 833 1095 924T1108 1083Q1108 1157 1093 1202T1052 1269T988 1293Q942 1297 895 1271T802 1180T711 1002T626 719Q591 578 576 476T561 304Q562 197 595 154T687 109ZM802 1500Q714 1500 675 1546T657 1673Q679 1754
743 1800T896 1847Q984 1847 1022 1801T1039 1673Q1017 1594 954 1547T802 1500ZM1263 1500Q1175 1500 1136 1546T1118 1673Q1139 1753 1203 1800T1356 1847Q1447 1847 1486 1801T1503 1673Q1481 1594 1417 1547T1263 1500Z" />
<glyph unicode="&#xd7;" horiz-adv-x="1120" d="M152 299Q130 326 139 354T189 412L977 1065Q1011 1090 1042 1090T1095 1063Q1117 1036 1111 1011T1065 957L277 303Q240 277 207 274T152 299ZM891 300Q854 274 821 276T770 300L327 956Q307 981 316 1010T361
1063Q436 1116 478 1063L924 403Q944 380 935 353T891 300Z" />
<glyph unicode="&#xd8;" horiz-adv-x="1571" d="M134 -137Q119 -129 119 -113T134 -79L1442 1501Q1456 1518 1474 1523T1509 1520Q1525 1511 1526 1496T1513 1465L203 -117Q188 -135 170 -140T134 -137ZM1023 1428Q1178 1427 1293 1372T1479 1218T1573 986T1561
695Q1521 513 1433 377T1222 150T954 15T654 -26Q498 -24 382 30T197 183T110 422T132 734Q167 884 246 1011T441 1232T704 1378T1023 1428ZM694 109Q735 108 781 133T874 225T969 410T1059 712Q1088 833 1101 924T1115 1083Q1115 1157 1100 1202T1059 1269T995
1293Q949 1297 902 1271T808 1180T718 1002T633 719Q598 578 583 476T568 304Q569 197 602 154T694 109Z" />
<glyph unicode="&#xd9;" horiz-adv-x="1477" d="M1106 466L1265 1019Q1291 1115 1280 1171T1215 1248L1193 1256Q1157 1274 1144 1290T1132 1333Q1132 1361 1153 1380T1217 1400H1595Q1632 1400 1649 1383T1667 1338Q1667 1305 1648 1287T1597 1254L1578 1247Q1523
1223 1488 1168T1424 1007L1267 454Q1218 282 1131 177T917 23T625 -26Q471 -26 370 23T219 154T170 336Q171 378 180 430T202 536T228 631L357 1131Q370 1175 365 1210T340 1256L308 1267Q284 1286 274 1299T264 1338Q265 1364 282 1382T331 1400H900Q974 1400
974 1342Q973 1318 959 1294T917 1259L881 1250Q850 1239 837 1211T807 1126L677 633Q648 526 636 459T623 343Q622 245 668 196T797 147Q895 147 975 216T1106 466ZM1101 1767L1152 1588Q1158 1569 1158 1552T1140 1518Q1124 1505 1101 1503T1059 1508L893 1576Q823
1603 790 1639T761 1739Q764 1790 809 1841T923 1903Q997 1917 1038 1879T1101 1767Z" />
<glyph unicode="&#xda;" horiz-adv-x="1477" d="M1106 466L1265 1019Q1291 1115 1280 1171T1215 1248L1193 1256Q1157 1274 1144 1290T1132 1333Q1132 1361 1153 1380T1217 1400H1595Q1632 1400 1649 1383T1667 1338Q1667 1305 1648 1287T1597 1254L1578 1247Q1523
1223 1488 1168T1424 1007L1267 454Q1218 282 1131 177T917 23T625 -26Q471 -26 370 23T219 154T170 336Q171 378 180 430T202 536T228 631L357 1131Q370 1175 365 1210T340 1256L308 1267Q284 1286 274 1299T264 1338Q265 1364 282 1382T331 1400H900Q974 1400
974 1342Q973 1318 959 1294T917 1259L881 1250Q850 1239 837 1211T807 1126L677 633Q648 526 636 459T623 343Q622 245 668 196T797 147Q895 147 975 216T1106 466ZM1206 1767Q1268 1840 1330 1878T1458 1903Q1520 1892 1537 1841T1529 1739Q1501 1676 1448 1640T1311
1576L1109 1508Q1086 1501 1064 1503T1035 1518Q1027 1534 1036 1551T1063 1588L1206 1767Z" />
<glyph unicode="&#xdb;" horiz-adv-x="1477" d="M1106 466L1265 1019Q1291 1115 1280 1171T1215 1248L1193 1256Q1157 1274 1144 1290T1132 1333Q1132 1361 1153 1380T1217 1400H1595Q1632 1400 1649 1383T1667 1338Q1667 1305 1648 1287T1597 1254L1578 1247Q1523
1223 1488 1168T1424 1007L1267 454Q1218 282 1131 177T917 23T625 -26Q471 -26 370 23T219 154T170 336Q171 378 180 430T202 536T228 631L357 1131Q370 1175 365 1210T340 1256L308 1267Q284 1286 274 1299T264 1338Q265 1364 282 1382T331 1400H900Q974 1400
974 1342Q973 1318 959 1294T917 1259L881 1250Q850 1239 837 1211T807 1126L677 633Q648 526 636 459T623 343Q622 245 668 196T797 147Q895 147 975 216T1106 466ZM1171 1688H979L1257 1519Q1309 1485 1354 1515Q1371 1526 1379 1548T1371 1595L1231 1812Q1208
1844 1188 1863T1127 1882Q1087 1882 1055 1863T982 1812L734 1595Q702 1570 698 1548T703 1515Q717 1501 742 1502T803 1519L1171 1688Z" />
<glyph unicode="&#xdc;" horiz-adv-x="1477" d="M1106 466L1265 1019Q1291 1115 1280 1171T1215 1248L1193 1256Q1157 1274 1144 1290T1132 1333Q1132 1361 1153 1380T1217 1400H1595Q1632 1400 1649 1383T1667 1338Q1667 1305 1648 1287T1597 1254L1578 1247Q1523
1223 1488 1168T1424 1007L1267 454Q1218 282 1131 177T917 23T625 -26Q471 -26 370 23T219 154T170 336Q171 378 180 430T202 536T228 631L357 1131Q370 1175 365 1210T340 1256L308 1267Q284 1286 274 1299T264 1338Q265 1364 282 1382T331 1400H900Q974 1400
974 1342Q973 1318 959 1294T917 1259L881 1250Q850 1239 837 1211T807 1126L677 633Q648 526 636 459T623 343Q622 245 668 196T797 147Q895 147 975 216T1106 466ZM815 1500Q727 1500 688 1546T670 1673Q692 1754 756 1800T909 1847Q997 1847 1035 1801T1052
1673Q1030 1594 967 1547T815 1500ZM1276 1500Q1188 1500 1149 1546T1131 1673Q1152 1753 1216 1800T1369 1847Q1460 1847 1499 1801T1516 1673Q1494 1594 1430 1547T1276 1500Z" />
<glyph unicode="&#xdd;" horiz-adv-x="1298" d="M722 531L1036 1180Q1087 1281 1136 1339T1237 1421T1349 1446Q1431 1446 1474 1402T1517 1290Q1517 1210 1460 1155T1295 1065Q1233 1046 1188 1025T1109 968T1044 871L880 527Q860 490 852 462T838 411L791 207Q784
182 791 170T816 149L858 134Q885 121 894 107T903 75Q903 39 878 20T812 0H276Q232 0 216 17T199 63Q199 113 254 138L300 152Q323 160 332 175T350 219L408 438Q418 471 413 507T400 580Q398 599 392 646T378 757T362 890T345 1023T329 1134T316 1198Q309 1227
295 1241T249 1264Q227 1274 214 1288T201 1326Q201 1359 224 1379T292 1400H606Q659 1400 686 1380T720 1316Q725 1293 733 1234T752 1094T775 927T799 760T820 619T836 532L722 531ZM1070 1767Q1132 1840 1194 1878T1322 1903Q1384 1892 1401 1841T1393 1739Q1365
1676 1312 1640T1175 1576L973 1508Q950 1501 928 1503T899 1518Q891 1534 900 1551T927 1588L1070 1767Z" />
<glyph unicode="&#xde;" horiz-adv-x="1512" d="M589 205Q584 179 592 168T618 149L653 134Q676 123 687 110T697 75Q697 42 674 21T607 0H73Q28 0 12 18T-4 64Q-4 93 13 111T53 139L94 152Q117 160 127 171T147 213Q158 248 179 323T227 498T280 705T333 910T377
1085T405 1195Q410 1217 405 1229T378 1251L341 1266Q320 1277 309 1290T298 1325Q298 1358 321 1379T388 1400H922Q968 1400 983 1382T999 1336Q998 1308 981 1290T941 1261L902 1248Q879 1239 869 1228T849 1187Q836 1150 813 1068T762 877T704 656T650 445T609
281T589 205ZM1524 681Q1487 546 1387 454T1138 315T799 267Q716 267 655 279T545 313T453 367L503 468Q532 446 563 427T633 397T725 385Q785 385 841 413T942 506T1016 678Q1045 788 1035 867T975 988T829 1031H631L669 1151H1003Q1201 1151 1331 1093T1512 929T1524
681Z" />
<glyph unicode="&#xdf;" horiz-adv-x="1494" d="M-3 -173L222 644Q236 681 227 703T203 735L143 771Q118 792 100 808T91 856Q99 885 132 900T208 915H358L285 848L313 944Q353 1096 449 1216T709 1405T1120 1475Q1292 1475 1394 1430T1532 1304T1537 1119Q1509
1019 1432 941T1243 817T1004 762L1017 795Q1189 795 1294 727T1435 546T1435 300Q1406 194 1333 120T1145 8T879 -31Q753 -31 679 1T583 104T589 292Q602 343 624 367T673 392Q707 392 722 374T745 330L762 232Q771 173 794 145T858 116Q890 116 918 134T971 196T1015
321Q1041 420 1022 498T949 621T810 666Q774 666 754 683T743 733Q752 760 772 777T846 822Q970 877 1031 957T1119 1143Q1134 1207 1127 1254T1092 1328T1016 1355Q942 1355 879 1309T768 1177T689 972L439 7Q431 -24 428 -47T425 -87Q425 -124 447 -145T493 -187T517
-241Q517 -289 459 -334T310 -407T119 -436Q16 -436 -12 -369T-3 -173Z" />
<glyph unicode="&#xe0;" horiz-adv-x="1264" d="M1042 357Q1024 287 1031 260T1058 233Q1069 233 1080 238T1109 258Q1133 278 1148 281T1178 277Q1197 267 1198 241T1178 173Q1131 82 1036 26T833 -30Q742 -30 704 15T665 138Q665 163 667 190T672 245T681 299T692
351L719 273Q694 182 632 114T483 8T300 -30Q160 -30 86 57T33 320Q45 415 84 508T189 685T347 832T558 932T820 969Q962 969 1054 950T1189 899T1226 827Q1221 792 1201 778T1161 750T1130 699L1042 357ZM452 324Q443 248 457 219T496 190Q523 190 552 213T611
279T669 382T720 516T757 674Q771 752 761 788T716 824Q681 824 647 794T581 711T523 594T478 459T452 324ZM850 1335L871 1134Q876 1115 874 1097T851 1063Q833 1050 810 1049T767 1057L616 1161Q552 1199 525 1240T505 1343Q513 1397 561 1447T685 1505Q765 1516
802 1468T850 1335Z" />
<glyph unicode="&#xe1;" horiz-adv-x="1264" d="M1042 357Q1024 287 1031 260T1058 233Q1069 233 1080 238T1109 258Q1133 278 1148 281T1178 277Q1197 267 1198 241T1178 173Q1131 82 1036 26T833 -30Q742 -30 704 15T665 138Q665 163 667 190T672 245T681 299T692
351L719 273Q694 182 632 114T483 8T300 -30Q160 -30 86 57T33 320Q45 415 84 508T189 685T347 832T558 932T820 969Q962 969 1054 950T1189 899T1226 827Q1221 792 1201 778T1161 750T1130 699L1042 357ZM452 324Q443 248 457 219T496 190Q523 190 552 213T611
279T669 382T720 516T757 674Q771 752 761 788T716 824Q681 824 647 794T581 711T523 594T478 459T452 324ZM911 1335Q969 1420 1031 1468T1169 1505Q1238 1497 1260 1447T1258 1343Q1234 1282 1185 1241T1051 1161L847 1057Q822 1048 800 1049T767 1063Q756 1078
764 1096T789 1134L911 1335Z" />
<glyph unicode="&#xe2;" horiz-adv-x="1264" d="M1042 357Q1024 287 1031 260T1058 233Q1069 233 1080 238T1109 258Q1133 278 1148 281T1178 277Q1197 267 1198 241T1178 173Q1131 82 1036 26T833 -30Q742 -30 704 15T665 138Q665 163 667 190T672 245T681 299T692
351L719 273Q694 182 632 114T483 8T300 -30Q160 -30 86 57T33 320Q45 415 84 508T189 685T347 832T558 932T820 969Q962 969 1054 950T1189 899T1226 827Q1221 792 1201 778T1161 750T1130 699L1042 357ZM452 324Q443 248 457 219T496 190Q523 190 552 213T611
279T669 382T720 516T757 674Q771 752 761 788T716 824Q681 824 647 794T581 711T523 594T478 459T452 324ZM929 1288H732L1003 1060Q1025 1041 1052 1041T1100 1055Q1119 1068 1126 1089T1119 1138L985 1399Q966 1433 943 1452T879 1471Q837 1471 804 1452T731
1399L466 1138Q435 1111 430 1090T434 1055Q448 1042 475 1042T537 1060L929 1288Z" />
<glyph unicode="&#xe3;" horiz-adv-x="1264" d="M1042 357Q1024 287 1031 260T1058 233Q1069 233 1080 238T1109 258Q1133 278 1148 281T1178 277Q1197 267 1198 241T1178 173Q1131 82 1036 26T833 -30Q742 -30 704 15T665 138Q665 163 667 190T672 245T681 299T692
351L719 273Q694 182 632 114T483 8T300 -30Q160 -30 86 57T33 320Q45 415 84 508T189 685T347 832T558 932T820 969Q962 969 1054 950T1189 899T1226 827Q1221 792 1201 778T1161 750T1130 699L1042 357ZM452 324Q443 248 457 219T496 190Q523 190 552 213T611
279T669 382T720 516T757 674Q771 752 761 788T716 824Q681 824 647 794T581 711T523 594T478 459T452 324ZM909 1055Q863 1055 829 1074T768 1120T717 1165T665 1185Q634 1185 611 1162T564 1088Q539 1051 500 1051Q444 1051 466 1123Q503 1264 573 1337T730 1411Q777
1411 811 1392T871 1347T922 1302T974 1282Q1007 1282 1030 1306T1076 1380Q1100 1415 1141 1415Q1195 1415 1173 1345Q1136 1203 1066 1129T909 1055Z" />
<glyph unicode="&#xe4;" horiz-adv-x="1264" d="M1042 357Q1024 287 1031 260T1058 233Q1069 233 1080 238T1109 258Q1133 278 1148 281T1178 277Q1197 267 1198 241T1178 173Q1131 82 1036 26T833 -30Q742 -30 704 15T665 138Q665 163 667 190T672 245T681 299T692
351L719 273Q694 182 632 114T483 8T300 -30Q160 -30 86 57T33 320Q45 415 84 508T189 685T347 832T558 932T820 969Q962 969 1054 950T1189 899T1226 827Q1221 792 1201 778T1161 750T1130 699L1042 357ZM452 324Q443 248 457 219T496 190Q523 190 552 213T611
279T669 382T720 516T757 674Q771 752 761 788T716 824Q681 824 647 794T581 711T523 594T478 459T452 324ZM535 1045Q446 1045 407 1092T389 1222Q412 1306 476 1353T630 1401Q719 1401 758 1354T775 1222Q753 1141 689 1093T535 1045ZM1002 1045Q913 1045 873
1092T855 1222Q878 1305 943 1353T1096 1401Q1188 1401 1227 1354T1244 1222Q1222 1141 1158 1093T1002 1045Z" />
<glyph unicode="&#xe5;" horiz-adv-x="1264" d="M1042 357Q1024 287 1031 260T1058 233Q1069 233 1080 238T1109 258Q1133 278 1148 281T1178 277Q1197 267 1198 241T1178 173Q1131 82 1036 26T833 -30Q742 -30 704 15T665 138Q665 163 667 190T672 245T681 299T692
351L719 273Q694 182 632 114T483 8T300 -30Q160 -30 86 57T33 320Q45 415 84 508T189 685T347 832T558 932T820 969Q962 969 1054 950T1189 899T1226 827Q1221 792 1201 778T1161 750T1130 699L1042 357ZM452 324Q443 248 457 219T496 190Q523 190 552 213T611
279T669 382T720 516T757 674Q771 752 761 788T716 824Q681 824 647 794T581 711T523 594T478 459T452 324ZM781 1041Q671 1041 611 1095T578 1251Q605 1352 694 1405T894 1459Q1006 1459 1065 1404T1099 1251Q1072 1152 984 1097T781 1041ZM869 1370Q831 1370
801 1340T754 1251Q741 1192 756 1162T809 1131Q847 1131 877 1162T921 1251Q937 1310 922 1340T869 1370Z" />
<glyph unicode="&#xe6;" horiz-adv-x="1738" d="M654 402Q667 523 719 626T857 806T1058 926T1308 969Q1418 969 1488 933T1594 835T1641 694Q1645 672 1653 654T1675 629Q1690 623 1698 614T1706 586Q1706 562 1687 541T1616 505Q1569 493 1496 475T1339 434T1171
390T1018 351T907 322T865 311L856 422Q856 422 889 431T975 454T1090 484T1210 515T1310 543L1270 499Q1283 539 1290 595T1299 719Q1299 772 1284 801T1236 830Q1209 830 1183 808T1135 742T1096 638T1071 500Q1057 359 1104 286T1255 212Q1331 212 1391 249T1502
344Q1533 381 1553 393T1598 405Q1627 404 1644 379T1646 299Q1623 213 1555 138T1371 17T1088 -30Q924 -30 824 23T683 173T654 402ZM194 721Q220 793 288 849T466 938T725 971Q859 971 940 933T1054 824T1072 653L691 562L746 751Q755 784 752 807T732 844T689
858Q656 858 627 839T583 776L566 726Q540 643 476 597T308 550Q236 550 201 594T194 721ZM21 217Q39 301 116 369T343 489T724 571L759 477Q665 465 607 441T517 381T475 303Q460 248 480 211T552 174Q590 174 626 189T694 230T753 287L762 196Q699 129 618 79T447
0T265 -28Q172 -28 113 5T31 94T21 217Z" />
<glyph unicode="&#xe7;" horiz-adv-x="1056" d="M643 826Q611 826 579 793T519 694T478 531Q455 367 497 292T630 216Q664 216 694 227T752 261T807 313Q843 353 863 373T913 393Q943 392 957 362T955 274Q935 207 892 152T783 55T632 -8T438 -30Q225 -30 120
90T41 434Q55 546 106 643T242 813T441 928T694 969Q817 969 896 928T1011 822T1043 684Q1038 590 972 539T830 487Q755 487 716 520T678 606Q679 646 690 677T702 749Q703 783 688 804T643 826ZM467 14H564L443 -139L380 -124Q406 -118 434 -115T505 -112Q611
-112 656 -155T680 -274Q658 -357 577 -406T368 -456Q263 -456 210 -423T161 -348Q166 -326 183 -313T221 -298Q237 -296 248 -302T271 -317Q290 -336 309 -345T354 -355Q422 -355 442 -270Q451 -234 436 -215T380 -195H354Q328 -195 326 -180T342 -143L467 14Z"
/>
<glyph unicode="&#xe8;" horiz-adv-x="1121" d="M237 421Q237 421 270 430T356 453T471 483T592 515T693 543L653 499Q665 539 672 595T681 719Q681 772 666 801T619 830Q592 830 566 808T517 742T478 638T453 500Q440 359 487 286T638 212Q689 212 732 229T813
276T884 344Q915 381 935 393T981 405Q1009 404 1026 379T1029 299Q1006 213 937 138T753 17T470 -30Q306 -30 206 23T65 173T36 402Q48 523 100 626T239 806T440 926T691 969Q801 969 870 933T976 836T1023 695Q1027 672 1035 654T1057 630Q1072 624 1080 614T1089
587Q1089 562 1070 541T999 506Q951 494 878 475T720 434T552 390T399 350T289 321T247 310L237 421ZM703 1335L724 1134Q729 1115 727 1097T704 1063Q686 1050 663 1049T620 1057L469 1161Q405 1199 378 1240T358 1343Q366 1397 414 1447T538 1505Q618 1516 655
1468T703 1335Z" />
<glyph unicode="&#xe9;" horiz-adv-x="1121" d="M237 421Q237 421 270 430T356 453T471 483T592 515T693 543L653 499Q665 539 672 595T681 719Q681 772 666 801T619 830Q592 830 566 808T517 742T478 638T453 500Q440 359 487 286T638 212Q689 212 732 229T813
276T884 344Q915 381 935 393T981 405Q1009 404 1026 379T1029 299Q1006 213 937 138T753 17T470 -30Q306 -30 206 23T65 173T36 402Q48 523 100 626T239 806T440 926T691 969Q801 969 870 933T976 836T1023 695Q1027 672 1035 654T1057 630Q1072 624 1080 614T1089
587Q1089 562 1070 541T999 506Q951 494 878 475T720 434T552 390T399 350T289 321T247 310L237 421ZM766 1335Q824 1420 886 1468T1024 1505Q1093 1497 1115 1447T1113 1343Q1089 1282 1040 1241T906 1161L702 1057Q677 1048 655 1049T622 1063Q611 1078 619 1096T644
1134L766 1335Z" />
<glyph unicode="&#xea;" horiz-adv-x="1121" d="M237 421Q237 421 270 430T356 453T471 483T592 515T693 543L653 499Q665 539 672 595T681 719Q681 772 666 801T619 830Q592 830 566 808T517 742T478 638T453 500Q440 359 487 286T638 212Q689 212 732 229T813
276T884 344Q915 381 935 393T981 405Q1009 404 1026 379T1029 299Q1006 213 937 138T753 17T470 -30Q306 -30 206 23T65 173T36 402Q48 523 100 626T239 806T440 926T691 969Q801 969 870 933T976 836T1023 695Q1027 672 1035 654T1057 630Q1072 624 1080 614T1089
587Q1089 562 1070 541T999 506Q951 494 878 475T720 434T552 390T399 350T289 321T247 310L237 421ZM783 1288H586L857 1060Q879 1041 906 1041T954 1055Q973 1068 980 1089T973 1138L839 1399Q820 1433 797 1452T733 1471Q691 1471 658 1452T585 1399L320 1138Q289
1111 284 1090T288 1055Q302 1042 329 1042T391 1060L783 1288Z" />
<glyph unicode="&#xeb;" horiz-adv-x="1121" d="M237 421Q237 421 270 430T356 453T471 483T592 515T693 543L653 499Q665 539 672 595T681 719Q681 772 666 801T619 830Q592 830 566 808T517 742T478 638T453 500Q440 359 487 286T638 212Q689 212 732 229T813
276T884 344Q915 381 935 393T981 405Q1009 404 1026 379T1029 299Q1006 213 937 138T753 17T470 -30Q306 -30 206 23T65 173T36 402Q48 523 100 626T239 806T440 926T691 969Q801 969 870 933T976 836T1023 695Q1027 672 1035 654T1057 630Q1072 624 1080 614T1089
587Q1089 562 1070 541T999 506Q951 494 878 475T720 434T552 390T399 350T289 321T247 310L237 421ZM389 1045Q300 1045 261 1092T243 1222Q266 1306 330 1353T484 1401Q573 1401 612 1354T629 1222Q607 1141 543 1093T389 1045ZM856 1045Q767 1045 727 1092T709
1222Q732 1305 797 1353T950 1401Q1042 1401 1081 1354T1098 1222Q1076 1141 1012 1093T856 1045Z" />
<glyph unicode="&#xec;" horiz-adv-x="745" d="M541 239Q514 239 510 267T531 361L630 646Q674 748 667 821T609 934T469 973Q351 973 247 908T84 751Q61 721 61 695T80 656Q92 650 108 650T144 662Q172 687 188 697T220 708Q248 708 251 681T224 583L116 278Q79
188 82 120T134 12T283 -27Q415 -27 511 31T655 183Q677 220 677 246T660 283Q647 292 635 291T606 278Q583 256 570 248T541 239ZM553 1335L574 1134Q579 1115 577 1097T554 1063Q536 1050 513 1049T470 1057L319 1161Q255 1199 228 1240T208 1343Q216 1397 264
1447T388 1505Q468 1516 505 1468T553 1335Z" />
<glyph unicode="&#xed;" horiz-adv-x="745" d="M541 239Q514 239 510 267T531 361L630 646Q674 748 667 821T609 934T469 973Q351 973 247 908T84 751Q61 721 61 695T80 656Q92 650 108 650T144 662Q172 687 188 697T220 708Q248 708 251 681T224 583L116 278Q79
188 82 120T134 12T283 -27Q415 -27 511 31T655 183Q677 220 677 246T660 283Q647 292 635 291T606 278Q583 256 570 248T541 239ZM615 1335Q673 1420 735 1468T873 1505Q942 1497 964 1447T962 1343Q938 1282 889 1241T755 1161L551 1057Q526 1048 504 1049T471
1063Q460 1078 468 1096T493 1134L615 1335Z" />
<glyph unicode="&#xee;" horiz-adv-x="745" d="M541 239Q514 239 510 267T531 361L630 646Q674 748 667 821T609 934T469 973Q351 973 247 908T84 751Q61 721 61 695T80 656Q92 650 108 650T144 662Q172 687 188 697T220 708Q248 708 251 681T224 583L116 278Q79
188 82 120T134 12T283 -27Q415 -27 511 31T655 183Q677 220 677 246T660 283Q647 292 635 291T606 278Q583 256 570 248T541 239ZM635 1288H468L698 1060Q717 1041 740 1041T781 1055Q797 1068 803 1089T797 1138L683 1399Q667 1433 648 1452T593 1471Q557 1471
529 1452T467 1399L242 1138Q215 1111 211 1090T215 1055Q226 1042 249 1042T302 1060L635 1288Z" />
<glyph unicode="&#xef;" horiz-adv-x="745" d="M541 239Q514 239 510 267T531 361L630 646Q674 748 667 821T609 934T469 973Q351 973 247 908T84 751Q61 721 61 695T80 656Q92 650 108 650T144 662Q172 687 188 697T220 708Q248 708 251 681T224 583L116 278Q79
188 82 120T134 12T283 -27Q415 -27 511 31T655 183Q677 220 677 246T660 283Q647 292 635 291T606 278Q583 256 570 248T541 239ZM321 1045Q250 1045 219 1092T204 1222Q223 1306 274 1353T397 1401Q468 1401 499 1354T513 1222Q495 1141 444 1093T321 1045ZM695
1045Q623 1045 591 1092T577 1222Q595 1305 647 1353T770 1401Q843 1401 875 1354T888 1222Q871 1141 819 1093T695 1045Z" />
<glyph unicode="&#xf0;" horiz-adv-x="1218" d="M1176 527Q1126 338 1022 215T774 32T466 -28Q300 -28 196 46T57 252T68 552Q93 645 149 725T283 864T453 957T642 990Q752 990 808 944T855 808L820 798Q834 914 827 1015T792 1200T720 1342T612 1431Q576 1448
565 1465T559 1503Q565 1526 595 1541T678 1551Q819 1532 934 1446T1122 1223T1213 908T1176 527ZM519 116Q541 115 566 141T616 215T664 327T705 468T734 627Q747 705 746 747T729 808T684 828Q657 830 629 801T574 719T524 598T483 455T457 305Q447 234 452 194T475
136T519 116ZM1247 1423L488 1109Q461 1099 445 1106T424 1131Q416 1173 470 1195L1228 1510Q1262 1522 1278 1515T1298 1489Q1303 1470 1291 1453T1247 1423Z" />
<glyph unicode="&#xf1;" horiz-adv-x="1329" d="M91 657Q72 667 71 693T91 761Q140 854 241 911T479 969Q562 969 606 936T651 841Q651 804 634 759T594 666T552 570T529 480L496 489Q549 625 616 717T758 865T908 945T1053 969Q1149 969 1196 927T1249 811T1220
641L1121 358Q1097 290 1104 263T1131 236Q1142 236 1153 242T1182 262Q1206 282 1221 285T1251 281Q1270 271 1271 245T1251 177Q1203 84 1104 27T870 -30Q769 -30 722 8T673 116T702 275L800 556Q826 623 820 656T774 689Q748 689 720 672T663 623T609 546T562
446Q544 399 531 361T510 294T503 243Q503 210 514 183T526 119Q526 52 441 11T200 -30Q92 -30 68 38T88 223L221 581Q247 649 239 675T211 702Q200 702 189 697T159 676Q136 657 121 654T91 657ZM905 1055Q859 1055 825 1074T764 1120T713 1165T661 1185Q630 1185
607 1162T560 1088Q535 1051 496 1051Q440 1051 462 1123Q499 1264 569 1337T726 1411Q773 1411 807 1392T867 1347T918 1302T970 1282Q1003 1282 1026 1306T1072 1380Q1096 1415 1137 1415Q1191 1415 1169 1345Q1132 1203 1062 1129T905 1055Z" />
<glyph unicode="&#xf2;" horiz-adv-x="1202" d="M675 971Q849 971 966 908T1134 729T1154 458Q1133 344 1079 254T944 100T758 4T526 -30Q353 -30 236 33T69 212T48 483Q69 597 123 687T258 841T444 937T675 971ZM509 119Q531 114 552 123T593 157T633 222T672
319T709 450Q739 566 747 646T742 770T693 822Q671 827 650 818T609 784T569 720T530 623T493 491Q463 376 455 296T460 171T509 119ZM790 1335L811 1134Q816 1115 814 1097T791 1063Q773 1050 750 1049T707 1057L556 1161Q492 1199 465 1240T445 1343Q453 1397
501 1447T625 1505Q705 1516 742 1468T790 1335Z" />
<glyph unicode="&#xf3;" horiz-adv-x="1202" d="M675 971Q849 971 966 908T1134 729T1154 458Q1133 344 1079 254T944 100T758 4T526 -30Q353 -30 236 33T69 212T48 483Q69 597 123 687T258 841T444 937T675 971ZM509 119Q531 114 552 123T593 157T633 222T672
319T709 450Q739 566 747 646T742 770T693 822Q671 827 650 818T609 784T569 720T530 623T493 491Q463 376 455 296T460 171T509 119ZM851 1335Q909 1420 971 1468T1109 1505Q1178 1497 1200 1447T1198 1343Q1174 1282 1125 1241T991 1161L787 1057Q762 1048 740
1049T707 1063Q696 1078 704 1096T729 1134L851 1335Z" />
<glyph unicode="&#xf4;" horiz-adv-x="1202" d="M675 971Q849 971 966 908T1134 729T1154 458Q1133 344 1079 254T944 100T758 4T526 -30Q353 -30 236 33T69 212T48 483Q69 597 123 687T258 841T444 937T675 971ZM509 119Q531 114 552 123T593 157T633 222T672
319T709 450Q739 566 747 646T742 770T693 822Q671 827 650 818T609 784T569 720T530 623T493 491Q463 376 455 296T460 171T509 119ZM868 1288H671L942 1060Q964 1041 991 1041T1039 1055Q1058 1068 1065 1089T1058 1138L924 1399Q905 1433 882 1452T818 1471Q776
1471 743 1452T670 1399L405 1138Q374 1111 369 1090T373 1055Q387 1042 414 1042T476 1060L868 1288Z" />
<glyph unicode="&#xf5;" horiz-adv-x="1202" d="M675 971Q849 971 966 908T1134 729T1154 458Q1133 344 1079 254T944 100T758 4T526 -30Q353 -30 236 33T69 212T48 483Q69 597 123 687T258 841T444 937T675 971ZM509 119Q531 114 552 123T593 157T633 222T672
319T709 450Q739 566 747 646T742 770T693 822Q671 827 650 818T609 784T569 720T530 623T493 491Q463 376 455 296T460 171T509 119ZM848 1055Q802 1055 768 1074T707 1120T656 1165T604 1185Q573 1185 550 1162T503 1088Q478 1051 439 1051Q383 1051 405 1123Q442
1264 512 1337T669 1411Q716 1411 750 1392T810 1347T861 1302T913 1282Q946 1282 969 1306T1015 1380Q1039 1415 1080 1415Q1134 1415 1112 1345Q1075 1203 1005 1129T848 1055Z" />
<glyph unicode="&#xf6;" horiz-adv-x="1202" d="M675 971Q849 971 966 908T1134 729T1154 458Q1133 344 1079 254T944 100T758 4T526 -30Q353 -30 236 33T69 212T48 483Q69 597 123 687T258 841T444 937T675 971ZM509 119Q531 114 552 123T593 157T633 222T672
319T709 450Q739 566 747 646T742 770T693 822Q671 827 650 818T609 784T569 720T530 623T493 491Q463 376 455 296T460 171T509 119ZM475 1045Q386 1045 347 1092T329 1222Q352 1306 416 1353T570 1401Q659 1401 698 1354T715 1222Q693 1141 629 1093T475 1045ZM942
1045Q853 1045 813 1092T795 1222Q818 1305 883 1353T1036 1401Q1128 1401 1167 1354T1184 1222Q1162 1141 1098 1093T942 1045Z" />
<glyph unicode="&#xf7;" horiz-adv-x="1141" d="M718 981Q656 981 623 1007T589 1074Q589 1108 611 1137T676 1185T776 1204Q839 1204 868 1177T898 1106Q898 1073 876 1045T814 999T718 981ZM419 682Q429 719 456 739T514 760H1303Q1332 760 1346 740T1350 682Q1339
645 1308 626T1244 606H480Q444 606 426 625T419 682ZM493 163Q431 163 398 189T364 256Q364 290 386 319T451 367T551 386Q614 386 643 359T673 288Q673 255 651 227T589 181T493 163Z" />
<glyph unicode="&#xf8;" horiz-adv-x="1202" d="M83 -105Q66 -97 65 -82T80 -48L367 269L396 285L844 777L857 809L1079 1053Q1094 1070 1112 1074T1146 1072Q1163 1063 1165 1048T1153 1017L885 723L860 711L429 236L412 201L151 -86Q134 -105 117 -110T83 -105ZM675
971Q849 971 966 908T1134 729T1154 458Q1133 344 1079 254T944 100T758 4T526 -30Q353 -30 236 33T69 212T48 483Q69 597 123 687T258 841T444 937T675 971ZM509 119Q531 114 552 123T593 157T633 222T672 319T709 450Q739 566 747 646T742 770T693 822Q671 827
650 818T609 784T569 720T530 623T493 491Q463 376 455 296T460 171T509 119Z" />
<glyph unicode="&#xf9;" horiz-adv-x="1328" d="M1238 282Q1256 272 1257 246T1238 178Q1189 85 1088 28T850 -30Q766 -30 722 3T678 98Q678 135 695 179T735 272T777 369T800 459L833 450Q781 314 713 222T571 74T420 -6T276 -30Q181 -30 133 12T80 128T109 298L208
581Q232 649 225 675T198 702Q186 702 175 697T146 677Q123 658 108 655T78 658Q59 668 58 694T78 762Q125 855 224 912T459 969Q559 969 606 931T657 824T627 664L529 383Q504 316 509 283T554 250Q580 250 608 267T665 316T719 392T766 492Q785 540 798 578T818
646T825 696Q825 729 814 756T802 820Q802 887 888 928T1128 969Q1238 969 1261 901T1241 716L1108 358Q1083 291 1090 264T1117 237Q1129 237 1140 243T1169 263Q1193 283 1208 286T1238 282ZM825 1335L846 1134Q851 1115 849 1097T826 1063Q808 1050 785 1049T742
1057L591 1161Q527 1199 500 1240T480 1343Q488 1397 536 1447T660 1505Q740 1516 777 1468T825 1335Z" />
<glyph unicode="&#xfa;" horiz-adv-x="1328" d="M1238 282Q1256 272 1257 246T1238 178Q1189 85 1088 28T850 -30Q766 -30 722 3T678 98Q678 135 695 179T735 272T777 369T800 459L833 450Q781 314 713 222T571 74T420 -6T276 -30Q181 -30 133 12T80 128T109 298L208
581Q232 649 225 675T198 702Q186 702 175 697T146 677Q123 658 108 655T78 658Q59 668 58 694T78 762Q125 855 224 912T459 969Q559 969 606 931T657 824T627 664L529 383Q504 316 509 283T554 250Q580 250 608 267T665 316T719 392T766 492Q785 540 798 578T818
646T825 696Q825 729 814 756T802 820Q802 887 888 928T1128 969Q1238 969 1261 901T1241 716L1108 358Q1083 291 1090 264T1117 237Q1129 237 1140 243T1169 263Q1193 283 1208 286T1238 282ZM887 1335Q945 1420 1007 1468T1145 1505Q1214 1497 1236 1447T1234
1343Q1210 1282 1161 1241T1027 1161L823 1057Q798 1048 776 1049T743 1063Q732 1078 740 1096T765 1134L887 1335Z" />
<glyph unicode="&#xfb;" horiz-adv-x="1328" d="M1238 282Q1256 272 1257 246T1238 178Q1189 85 1088 28T850 -30Q766 -30 722 3T678 98Q678 135 695 179T735 272T777 369T800 459L833 450Q781 314 713 222T571 74T420 -6T276 -30Q181 -30 133 12T80 128T109 298L208
581Q232 649 225 675T198 702Q186 702 175 697T146 677Q123 658 108 655T78 658Q59 668 58 694T78 762Q125 855 224 912T459 969Q559 969 606 931T657 824T627 664L529 383Q504 316 509 283T554 250Q580 250 608 267T665 316T719 392T766 492Q785 540 798 578T818
646T825 696Q825 729 814 756T802 820Q802 887 888 928T1128 969Q1238 969 1261 901T1241 716L1108 358Q1083 291 1090 264T1117 237Q1129 237 1140 243T1169 263Q1193 283 1208 286T1238 282ZM904 1288H707L978 1060Q1000 1041 1027 1041T1075 1055Q1094 1068
1101 1089T1094 1138L960 1399Q941 1433 918 1452T854 1471Q812 1471 779 1452T706 1399L441 1138Q410 1111 405 1090T409 1055Q423 1042 450 1042T512 1060L904 1288Z" />
<glyph unicode="&#xfc;" horiz-adv-x="1328" d="M1238 282Q1256 272 1257 246T1238 178Q1189 85 1088 28T850 -30Q766 -30 722 3T678 98Q678 135 695 179T735 272T777 369T800 459L833 450Q781 314 713 222T571 74T420 -6T276 -30Q181 -30 133 12T80 128T109 298L208
581Q232 649 225 675T198 702Q186 702 175 697T146 677Q123 658 108 655T78 658Q59 668 58 694T78 762Q125 855 224 912T459 969Q559 969 606 931T657 824T627 664L529 383Q504 316 509 283T554 250Q580 250 608 267T665 316T719 392T766 492Q785 540 798 578T818
646T825 696Q825 729 814 756T802 820Q802 887 888 928T1128 969Q1238 969 1261 901T1241 716L1108 358Q1083 291 1090 264T1117 237Q1129 237 1140 243T1169 263Q1193 283 1208 286T1238 282ZM510 1045Q421 1045 382 1092T364 1222Q387 1306 451 1353T605 1401Q694
1401 733 1354T750 1222Q728 1141 664 1093T510 1045ZM977 1045Q888 1045 848 1092T830 1222Q853 1305 918 1353T1071 1401Q1163 1401 1202 1354T1219 1222Q1197 1141 1133 1093T977 1045Z" />
<glyph unicode="&#xfd;" horiz-adv-x="1172" d="M760 654Q806 811 875 890T1038 969Q1111 969 1154 919T1198 787Q1198 687 1142 620T995 506Q954 485 921 463T860 412T812 346T772 256L698 35Q635 -156 545 -271T339 -438T83 -490Q-69 -490 -148 -424T-227 -247Q-227
-170 -179 -115T-57 -59Q-2 -59 30 -86T84 -153T122 -235T162 -303T223 -331Q241 -331 256 -324T282 -301T299 -256T305 -186Q305 -144 301 -85T288 44T269 190T246 344T222 493T198 626Q191 666 178 684T148 703Q138 703 127 696T98 668Q86 655 73 651T47 649Q32
652 21 671T22 731Q42 797 91 851T214 937T374 969Q457 969 510 916T576 755Q582 704 587 634T599 483T609 319T616 159T620 17L572 22L760 654ZM837 1335Q895 1420 957 1468T1095 1505Q1164 1497 1186 1447T1184 1343Q1160 1282 1111 1241T977 1161L773 1057Q748
1048 726 1049T693 1063Q682 1078 690 1096T715 1134L837 1335Z" />
<glyph unicode="&#xfe;" horiz-adv-x="1220" d="M581 1488Q702 1488 747 1423T756 1229L343 -226Q333 -265 339 -294T384 -333L444 -347Q479 -355 492 -372T507 -409Q507 -443 480 -464T410 -485L-138 -492Q-166 -492 -189 -476T-212 -426Q-212 -405 -194 -383T-129
-337Q-104 -328 -92 -317T-72 -290T-59 -250L324 1098Q339 1145 344 1171T344 1209T319 1221Q304 1221 288 1212T244 1176Q223 1166 207 1165T180 1170Q161 1181 161 1207T183 1265Q225 1331 289 1381T430 1459T581 1488ZM140 660Q112 640 81 641T34 660Q15 679
30 710T81 771Q149 833 242 879T452 953T704 980Q862 980 972 920T1133 743T1162 459Q1143 310 1069 202T883 36T634 -23Q490 -23 405 37T301 184L408 227Q429 184 458 160T526 135Q578 135 623 172T704 290T762 504Q780 618 769 694T725 810T644 854Q533 862 406
816T140 660Z" />
<glyph unicode="&#xff;" horiz-adv-x="1172" d="M760 654Q806 811 875 890T1038 969Q1111 969 1154 919T1198 787Q1198 687 1142 620T995 506Q954 485 921 463T860 412T812 346T772 256L698 35Q635 -156 545 -271T339 -438T83 -490Q-69 -490 -148 -424T-227 -247Q-227
-170 -179 -115T-57 -59Q-2 -59 30 -86T84 -153T122 -235T162 -303T223 -331Q241 -331 256 -324T282 -301T299 -256T305 -186Q305 -144 301 -85T288 44T269 190T246 344T222 493T198 626Q191 666 178 684T148 703Q138 703 127 696T98 668Q86 655 73 651T47 649Q32
652 21 671T22 731Q42 797 91 851T214 937T374 969Q457 969 510 916T576 755Q582 704 587 634T599 483T609 319T616 159T620 17L572 22L760 654ZM461 1045Q372 1045 333 1092T315 1222Q338 1306 402 1353T556 1401Q645 1401 684 1354T701 1222Q679 1141 615 1093T461
1045ZM928 1045Q839 1045 799 1092T781 1222Q804 1305 869 1353T1022 1401Q1114 1401 1153 1354T1170 1222Q1148 1141 1084 1093T928 1045Z" />
<glyph unicode="&#x2013;" horiz-adv-x="1140" d="M61 547Q74 587 97 610T155 633H1057Q1092 633 1101 610T1099 546Q1088 507 1065 483T1006 459H103Q68 459 59 483T61 547Z" />
<glyph unicode="&#x2014;" horiz-adv-x="1778" d="M61 547Q74 587 97 610T155 633H1695Q1730 633 1740 610T1737 546Q1726 507 1703 483T1644 459H103Q68 459 59 483T61 547Z" />
<glyph unicode="&#x2018;" horiz-adv-x="578" d="M498 1183Q607 1183 649 1134T670 1000Q653 938 609 890T504 814T378 786Q265 786 213 859T197 1070Q229 1192 298 1291T466 1458T685 1555Q734 1567 756 1559T780 1525Q781 1502 761 1481T694 1444Q614 1418 556
1380T464 1301T420 1223Q416 1205 424 1194T461 1183H498Z" />
<glyph unicode="&#x2019;" horiz-adv-x="576" d="M486 1161Q377 1161 335 1210T313 1344Q330 1408 374 1456T480 1531T605 1558Q718 1558 770 1486T787 1274Q755 1153 685 1054T517 887T299 789Q249 778 227 786T203 820Q202 842 222 863T289 900Q369 927 427
965T519 1045T563 1121Q568 1139 560 1150T523 1161H486Z" />
<glyph unicode="&#x201a;" horiz-adv-x="652" d="M227 2Q117 2 74 52T53 187Q70 251 115 298T220 373T345 400Q458 400 511 327T527 114Q494 -7 424 -106T256 -272T38 -369Q-12 -381 -34 -372T-58 -339Q-58 -316 -38 -295T29 -258Q109 -231 166 -193T258 -114T302
-38Q307 -20 299 -9T264 2H227Z" />
<glyph unicode="&#x201c;" horiz-adv-x="1151" d="M1061 1184Q1170 1184 1213 1135T1233 1001Q1217 939 1172 891T1067 815T942 787Q829 787 777 860T760 1071Q793 1193 862 1292T1030 1459T1248 1556Q1297 1568 1320 1560T1345 1526Q1345 1503 1325 1482T1258
1445Q1178 1419 1120 1381T1028 1302T984 1224Q980 1206 988 1195T1024 1184H1061ZM488 1184Q597 1184 640 1135T660 1001Q644 939 599 891T494 815T369 787Q256 787 204 860T187 1071Q219 1193 288 1292T457 1459T675 1556Q724 1568 747 1560T771 1526Q772 1503
752 1482T685 1445Q605 1419 547 1381T455 1302T411 1224Q407 1206 415 1195T451 1184H488Z" />
<glyph unicode="&#x201d;" horiz-adv-x="1149" d="M457 1161Q348 1161 305 1210T284 1344Q300 1408 345 1456T450 1531T575 1558Q688 1558 741 1486T758 1274Q725 1153 656 1054T488 887T270 789Q220 778 197 786T173 820Q172 842 192 863T260 900Q340 927 398
965T490 1045T534 1121Q538 1139 530 1150T494 1161H457ZM1030 1161Q921 1161 878 1210T857 1344Q873 1408 918 1456T1023 1531T1148 1558Q1261 1558 1314 1486T1331 1274Q1298 1153 1229 1054T1061 887T843 789Q793 778 771 786T746 820Q745 842 765 863T833 900Q913
927 971 965T1063 1045T1107 1121Q1111 1139 1103 1150T1067 1161H1030Z" />
<glyph unicode="&#x201e;" horiz-adv-x="1223" d="M224 -3Q115 -3 72 47T51 182Q68 246 113 293T218 368T343 395Q456 395 509 322T524 110Q492 -12 422 -111T254 -277T35 -374Q-13 -386 -36 -377T-59 -343Q-60 -321 -40 -300T27 -263Q107 -236 164 -198T256 -119T300
-43Q304 -25 297 -14T261 -3H224ZM796 -3Q687 -3 644 47T623 182Q640 246 685 294T790 368T915 395Q1028 395 1081 322T1096 110Q1064 -12 994 -111T826 -277T607 -374Q559 -386 536 -377T513 -343Q512 -321 532 -300T599 -263Q679 -236 736 -198T827 -119T871
-43Q876 -25 869 -14T833 -3H796Z" />
<glyph unicode="&#x2022;" horiz-adv-x="964" d="M426 231Q271 231 188 303T105 483Q105 576 161 656T321 786T571 836Q727 836 801 761T876 572Q876 482 821 404T666 279T426 231Z" />
<glyph unicode="&#x2039;" horiz-adv-x="748" d="M99 520Q109 550 135 576T207 627Q323 694 413 749T570 847T678 920Q709 940 734 944T773 934Q787 920 780 900T752 853Q724 819 691 779T616 689T523 581T403 450L412 539Q454 441 479 367T520 235T550 132Q558
108 555 88T534 57Q517 45 498 49T461 74Q434 110 392 161T289 275T144 413Q114 440 103 465T99 520Z" />
<glyph unicode="&#x203a;" horiz-adv-x="768" d="M692 486Q682 456 656 430T584 379Q468 312 378 257T221 159T113 86Q82 66 57 62T18 72Q4 86 11 106T39 153Q67 187 100 227T175 317T268 425T388 556L379 467Q337 565 312 639T271 771T241 874Q233 898 236 918T257
949Q274 961 293 957T330 932Q357 896 399 845T502 731T647 593Q677 566 688 541T692 486Z" />
</font>
</defs>
</svg>
