<?xml version="1.0" standalone="no"?>
<!DOCTYPE svg PUBLIC "-//W3C//DTD SVG 1.1//EN" "http://www.w3.org/Graphics/SVG/1.1/DTD/svg11.dtd">
<svg xmlns="http://www.w3.org/2000/svg">
<defs >
<font id="Fraunces" horiz-adv-x="1238" ><font-face
    font-family="Fraunces Medium"
    units-per-em="2000"
    panose-1="0 0 0 0 0 0 0 0 0 0"
    ascent="1956"
    descent="-510"
    alphabetic="0" />
<glyph unicode=" " horiz-adv-x="403" />
<glyph unicode="!" horiz-adv-x="655" d="M600 1508Q676 1508 703 1474T716 1382Q713 1363 703 1334T679 1276L391 511Q377 483 360 470T320 457Q298 457 289 469T282 511L400 1278Q402 1303 405 1327T414 1370Q431 1434 476 1471T600 1508ZM194 -15Q126 -15 91
20T59 109Q63 151 89 187T160 244T264 266Q334 266 366 230T394 138Q391 97 365 63T295 7T194 -15Z" />
<glyph unicode="&quot;" horiz-adv-x="725" d="M277 890Q258 890 247 904T238 946L299 1373Q309 1462 351 1509T462 1556Q532 1556 547 1509T523 1373L348 945Q335 917 317 904T277 890ZM651 890Q632 890 621 904T612 946L673 1373Q683 1462 725 1509T836 1556Q906
1556 921 1509T897 1373L722 945Q709 917 691 904T651 890Z" />
<glyph unicode="#" horiz-adv-x="1303" d="M577 689Q557 655 529 603T467 487T401 357T335 229T276 117T232 37Q198 -15 154 -4Q109 6 141 60Q159 90 187 139T251 251T322 378T395 507T461 623T511 710Q532 745 559 797T617 912T680 1041T742 1168T797 1280T839
1359Q874 1414 919 1402Q962 1390 929 1334Q910 1303 883 1253T822 1142T755 1016T687 889T626 775T577 689ZM817 882Q780 881 727 880T612 878T491 876T380 875T295 874Q235 873 249 920Q262 964 322 965Q355 965 405 964T513 959T632 954T746 949T837 948Q874
948 926 949T1037 951T1153 955T1260 958T1341 960Q1403 960 1391 917Q1375 871 1312 870Q1280 870 1232 871T1127 874T1012 878T904 881T817 882ZM936 689Q916 655 888 603T827 487T760 357T694 229T636 117T592 37Q558 -15 513 -4Q468 6 500 60Q518 90 546 139T609
251T681 378T753 507T819 623T870 710Q891 745 918 797T977 913T1039 1041T1101 1168T1156 1279T1199 1359Q1234 1414 1278 1402Q1322 1390 1287 1334Q1269 1303 1242 1253T1181 1142T1114 1016T1046 889T985 775T936 689ZM626 468Q589 467 536 466T422 464T301
463T190 462T105 461Q46 460 59 506Q72 551 133 551Q165 551 215 549T324 545T443 540T556 535T648 534Q685 534 736 535T847 537T963 541T1070 544T1151 546Q1213 546 1201 503Q1185 457 1122 456Q1090 456 1042 457T936 460T822 464T714 467T626 468Z" />
<glyph unicode="$" horiz-adv-x="1167" d="M473 6Q332 6 237 42T97 140T60 282Q64 353 104 395T199 437Q244 437 266 406T278 321L266 243Q257 188 277 147T348 82T484 59Q608 59 693 113T796 261Q808 323 789 378T713 486T557 592Q432 659 366 728T280 872T277
1033Q289 1106 332 1170T446 1285T612 1363T823 1392Q962 1392 1050 1354T1179 1252T1212 1114Q1209 1052 1172 1013T1083 973Q1035 974 1009 1003T993 1083L1006 1159Q1020 1245 973 1293T815 1341Q734 1341 665 1315T551 1241T492 1128Q480 1064 497 1009T571
901T732 789Q855 718 924 647T1017 502T1026 352Q1013 271 965 207T842 98T672 30T473 6ZM690 733H634Q685 915 714 1041T760 1252T786 1394T807 1493Q817 1526 839 1543T888 1560Q913 1560 925 1543T928 1491Q918 1452 898 1397T849 1256T781 1044T690 733ZM602
674H659Q610 496 581 371T537 162T512 21T492 -74Q481 -109 459 -127T410 -145Q384 -145 372 -127T371 -73Q382 -31 401 25T448 165T515 373T602 674Z" />
<glyph unicode="%" horiz-adv-x="1507" d="M910 1427Q1054 1427 1118 1329T1135 1058Q1102 938 1036 855T882 730T700 688Q540 688 479 786T468 1071Q496 1178 559 1258T713 1382T910 1427ZM939 1050Q985 1224 966 1294T881 1365Q812 1365 757 1295T661 1078Q614
894 634 822T723 750Q760 750 798 776T872 867T939 1050ZM913 774Q894 755 881 751T854 754Q842 762 842 774T859 806Q890 845 930 897T1016 1009T1106 1127T1190 1237T1260 1327T1305 1382Q1335 1415 1363 1423T1420 1414Q1446 1397 1445 1371T1415 1313Q1402
1296 1370 1261T1292 1177T1195 1074T1092 964T994 860T913 774ZM699 628Q719 647 732 651T760 648Q772 640 771 628T754 594Q725 557 685 505T601 394T511 276T425 165T353 74T306 17Q277 -16 247 -24T189 -15Q162 1 164 27T196 86Q212 104 245 141T324 227T421
331T524 440T621 543T699 628ZM1213 713Q1357 713 1421 615T1438 344Q1405 224 1339 141T1185 16T1003 -26Q843 -26 782 72T771 357Q799 464 862 544T1016 668T1213 713ZM1242 336Q1288 510 1269 580T1184 651Q1115 651 1060 581T964 364Q917 180 937 108T1026
36Q1063 36 1101 62T1175 153T1242 336Z" />
<glyph unicode="&amp;" horiz-adv-x="1378" d="M194 209L1180 973Q1236 1019 1268 1058T1315 1135T1329 1214Q1329 1255 1312 1284T1278 1341T1261 1401Q1260 1443 1291 1475T1377 1508Q1436 1509 1474 1465T1514 1343Q1514 1275 1487 1212T1398 1082T1233 937L263
186Q195 134 156 85T101 -13T84 -111Q84 -156 102 -186T139 -241T158 -300Q158 -342 126 -372T44 -403Q-14 -403 -52 -361T-91 -230Q-91 -122 -24 -14T194 209ZM1029 325Q1030 362 1022 390T1006 445T999 505Q1000 536 1016 563T1063 609T1134 627Q1192 627 1227
592T1261 486Q1259 386 1216 295T1092 132T898 19T644 -22Q466 -22 348 48T180 244T160 539Q183 665 244 769T394 950T595 1067T830 1109Q933 1109 1010 1075T1129 984T1168 859Q1166 821 1152 797T1104 771Q1052 768 996 744T868 669Q881 698 892 740T907 839Q911
937 878 987T775 1038Q700 1038 631 983T511 821T437 563Q412 398 442 286T545 118T723 61Q786 61 841 81T938 138T1004 222T1029 325Z" />
<glyph unicode="&apos;" horiz-adv-x="352" d="M277 890Q258 890 247 904T238 946L299 1373Q309 1462 351 1509T462 1556Q532 1556 547 1509T523 1373L348 945Q335 917 317 904T277 890Z" />
<glyph unicode="(" horiz-adv-x="735" d="M227 655Q268 806 337 938T497 1180T690 1369T899 1494Q934 1507 955 1506T979 1488Q981 1477 969 1463T930 1428Q817 1344 721 1226T551 964T434 655Q387 480 384 321T414 35T511 -172Q526 -191 530 -206T526 -233Q501
-263 442 -239Q365 -196 306 -112T214 90T182 351T227 655Z" />
<glyph unicode=")" horiz-adv-x="729" d="M596 599Q555 448 486 316T326 74T133 -115T-76 -240Q-111 -253 -132 -252T-156 -234Q-158 -223 -146 -209T-107 -174Q6 -90 102 28T272 290T389 599Q436 774 439 933T409 1219T312 1426Q297 1445 293 1460T297 1487Q322
1517 381 1493Q458 1450 517 1366T609 1164T641 903T596 599Z" />
<glyph unicode="*" horiz-adv-x="1242" d="M763 1019H725Q745 1102 746 1167T742 1284T733 1381T741 1466Q755 1518 792 1544T888 1570Q943 1570 967 1544T978 1466Q967 1425 940 1381T879 1285T815 1167T763 1019ZM742 1035Q821 1061 885 1095T1003 1164T1103
1227T1192 1267Q1246 1283 1275 1264T1307 1189Q1311 1137 1285 1100T1205 1047Q1162 1034 1114 1035T1011 1038T889 1035T745 1002L742 1035ZM755 1036L733 1003Q666 1028 603 1034T483 1039T378 1035T293 1047Q249 1063 242 1099T269 1190Q300 1242 341 1262T427
1267Q463 1255 494 1227T560 1165T642 1096T755 1036ZM731 1029L755 1009Q695 942 655 881T585 765T529 667T468 589Q384 505 306 573Q270 605 271 644T314 726Q348 758 394 785T495 843T610 918T731 1029ZM725 1009L761 1029Q791 962 829 918T906 843T976 785T1024
726Q1042 684 1024 646T947 572Q895 541 855 544T795 589Q779 622 777 666T773 765T763 880T725 1009Z" />
<glyph unicode="+" horiz-adv-x="1107" d="M499 264Q472 264 461 278T456 312L656 1058Q662 1076 681 1089T727 1103Q755 1102 766 1088T770 1056L571 309Q565 291 546 278T499 264ZM183 684Q190 708 210 721T254 734H1009Q1031 734 1042 721T1047 684Q1039 660
1017 647T971 634H227Q202 634 189 647T183 684Z" />
<glyph unicode="," horiz-adv-x="512" d="M143 4Q95 10 70 41T50 119Q53 158 78 193T145 251T238 274Q313 274 347 224T371 89Q358 -22 307 -109T183 -255T34 -343Q-4 -356 -25 -352T-51 -333Q-55 -316 -45 -303T-2 -279Q69 -252 119 -210T199 -123T234 -41Q238
-17 228 -11T191 -1L143 4Z" />
<glyph unicode="-" horiz-adv-x="770" d="M664 603Q714 603 691 560L656 481Q646 461 633 454T599 446H123Q98 446 92 457T96 490L130 568Q141 589 153 596T186 603H664Z" />
<glyph unicode="." horiz-adv-x="495" d="M166 -17Q98 -17 63 18T31 107Q35 149 61 185T132 242T237 264Q306 264 338 228T366 136Q363 95 337 60T267 4T166 -17Z" />
<glyph unicode="/" horiz-adv-x="913" d="M540 612Q505 548 457 457T355 263T247 56T145 -139T61 -298Q40 -331 15 -343T-39 -346Q-67 -336 -70 -313T-54 -256Q-18 -190 33 -100T144 92T263 295T373 487T459 642Q494 708 542 799T643 995T750 1203T850 1399T934
1557Q955 1590 980 1603T1035 1606Q1059 1597 1061 1572T1045 1515Q1009 1449 959 1358T852 1165T736 960T627 768T540 612Z" />
<glyph unicode="0" horiz-adv-x="1316" d="M926 1423Q1054 1423 1143 1372T1280 1226T1330 998T1289 700Q1243 524 1165 389T984 162T766 24T529 -23Q395 -23 303 28T163 175T113 406T153 708Q212 929 325 1089T593 1336T926 1423ZM1014 686Q1073 917 1078 1061T1037
1273T892 1340Q799 1340 712 1268T553 1059T431 731Q385 550 371 423T372 215T435 97T554 60Q639 60 724 128T885 335T1014 686Z" />
<glyph unicode="1" horiz-adv-x="880" d="M359 1234L488 1233Q521 1233 530 1218T526 1160L266 169Q257 139 237 122T188 102L45 86Q22 82 8 70T-7 41Q-9 22 3 11T43 0H659Q686 0 703 11T722 45Q723 60 714 70T686 83L564 99Q530 104 523 121T525 167L845 1377Q854
1405 843 1418T804 1432Q789 1432 773 1425T736 1404Q708 1379 680 1364T619 1341T537 1333L392 1332Q360 1332 341 1318T315 1283Q308 1261 318 1248T359 1234Z" />
<glyph unicode="2" horiz-adv-x="1197" d="M196 248L179 297L413 434Q577 526 687 616T864 807T963 1027Q992 1136 986 1209T942 1319T839 1356Q769 1356 716 1328T628 1252T577 1145L552 1050Q534 984 489 947T385 910Q326 910 302 948T297 1057Q323 1150 401
1234T603 1372T889 1426Q1040 1426 1127 1374T1241 1228T1235 1014Q1215 941 1169 873T1042 735T842 589T554 426L196 248ZM14 112Q40 209 131 274T360 340Q426 340 486 320T602 274T712 229T818 209Q884 209 930 241T1019 350Q1031 369 1046 377T1077 383Q1098
381 1104 366T1097 319Q1050 194 993 119T869 9T723 -25Q654 -25 606 -6T524 59T467 182Q441 225 420 244T368 263Q336 263 312 234T268 141Q247 79 220 43T161 -8T88 -24Q40 -24 18 12T14 112Z" />
<glyph unicode="3" horiz-adv-x="1090" d="M554 737L550 764Q563 767 580 769T618 773T654 775Q799 777 889 731T1011 597T1008 387Q973 263 885 170T671 26T392 -26Q249 -26 162 15T43 125T29 277Q46 348 92 388T195 428Q256 428 278 391T284 295L261 214Q240
133 281 89T421 44Q490 44 553 79T666 183T743 354Q788 523 738 603T545 683H481Q456 683 444 694T439 727Q445 745 460 761T501 794L1076 1267L1059 1195H515Q480 1195 459 1183T421 1142L370 1046Q359 1027 343 1016T304 1004Q281 1005 271 1018T274 1059L381
1336Q394 1366 420 1383T485 1400H1228Q1255 1400 1267 1387T1273 1352Q1267 1333 1247 1316T1190 1273L554 737Z" />
<glyph unicode="4" horiz-adv-x="1152" d="M699 720Q705 742 717 757T745 783L923 932Q944 946 956 951T981 956Q995 956 1001 948T1001 920L805 166Q796 138 806 123T844 102L924 86Q944 79 953 69T958 42Q952 23 935 12T888 0H363Q334 0 323 11T318 42Q324 59
340 70T381 86L477 102Q507 106 526 122T555 169L699 720ZM619 959Q663 992 691 1022T728 1086Q735 1112 732 1135T723 1182T714 1231T719 1287Q737 1352 793 1393T932 1435Q1000 1435 1033 1399T1050 1296Q1040 1256 1016 1216T946 1129T827 1025L101 398L97 434H1038Q1062
434 1074 425T1080 394Q1073 372 1057 361T1011 350H51Q22 350 11 364T6 400Q11 414 24 430T68 466L619 959Z" />
<glyph unicode="5" horiz-adv-x="1125" d="M57 279Q68 325 93 358T152 410T223 429Q284 429 306 392T311 295L289 216Q268 137 308 91T450 44Q518 44 581 80T695 191T779 388Q827 569 778 658T611 748Q566 748 519 731T425 682T329 602Q302 587 285 579T247 570Q227
570 218 582T216 619L413 1355Q424 1387 448 1406T512 1425Q529 1425 544 1422T577 1411Q628 1382 680 1360T789 1324T913 1311Q1017 1311 1094 1337T1222 1417Q1241 1429 1256 1434T1283 1433Q1292 1428 1294 1417T1282 1379Q1217 1235 1097 1166T813 1097Q691
1097 590 1130T422 1217L496 1284L323 645L290 656Q357 718 423 759T562 820T714 841Q849 841 934 788T1047 638T1040 414Q1002 279 911 180T693 28T413 -26Q275 -26 189 16T70 127T57 279Z" />
<glyph unicode="6" horiz-adv-x="1206" d="M952 1426Q1077 1426 1155 1386T1265 1282T1278 1143Q1262 1073 1217 1035T1111 996Q1045 996 1021 1031T1016 1129L1033 1192Q1053 1265 1023 1305T906 1346Q824 1346 736 1280T563 1064T411 664Q363 490 353 373T361
185T425 85T533 54Q607 54 671 93T784 210T863 402Q893 520 882 597T823 713T699 752Q645 752 591 731T487 673T401 585T343 473L298 496Q321 572 372 636T494 748T647 823T817 850Q943 850 1024 797T1131 644T1118 406Q1081 274 993 177T780 27T505 -26Q334 -26
235 60T114 307T154 688Q222 934 344 1098T622 1344T952 1426Z" />
<glyph unicode="7" horiz-adv-x="1056" d="M1066 1202L1087 1180H485Q450 1180 432 1168T397 1130L338 1024Q326 1005 310 993T270 982Q246 982 238 995T241 1037L358 1336Q371 1366 394 1383T454 1400H1224Q1265 1400 1280 1385T1286 1342Q1280 1325 1265 1304T1211
1253L864 819Q770 732 707 665T606 539T552 423Q540 379 543 341T556 269T569 199T563 124Q545 62 491 19T355 -25Q270 -25 237 32T234 199Q254 267 295 335T398 475T540 626T716 795L1066 1202Z" />
<glyph unicode="8" horiz-adv-x="1153" d="M427 -26Q274 -26 184 18T65 141T63 322Q86 398 152 465T321 581T550 645L553 618Q487 588 436 541T350 437T299 323Q273 232 287 170T350 75T477 43Q585 43 663 104T769 265Q789 334 776 389T709 492T548 580Q415 637
340 701T245 845T253 1032Q275 1111 329 1182T466 1309T653 1395T880 1426Q1027 1426 1117 1377T1239 1239T1238 1034Q1217 963 1170 902T1054 791T902 708T723 658L705 686Q812 744 892 834T1004 1033Q1049 1184 1001 1268T830 1353Q754 1353 689 1321T576 1233T508
1105Q486 1023 500 956T573 833T745 730Q934 647 1001 549T1032 322Q1003 221 920 142T711 19T427 -26Z" />
<glyph unicode="9" horiz-adv-x="1204" d="M403 -26Q279 -26 197 14T81 119T65 258Q82 329 127 367T233 405Q298 405 321 371T327 272L310 209Q290 136 326 95T449 54Q533 54 618 121T785 339T936 738Q1001 966 1001 1099T952 1289T819 1347Q745 1347 680 1308T565
1190T484 997Q454 879 466 801T526 683T648 644Q719 644 790 680T919 779T1003 923L1048 900Q1025 824 974 760T852 648T699 574T529 547Q403 547 322 600T214 750T223 978Q261 1113 352 1214T572 1370T847 1426Q1016 1426 1115 1341T1235 1095T1192 709Q1122 467
1003 304T731 57T403 -26Z" />
<glyph unicode=":" horiz-adv-x="596" d="M175 -17Q107 -17 72 18T40 107Q44 149 70 185T141 242T246 264Q315 264 347 228T375 136Q372 95 346 60T276 4T175 -17ZM326 597Q258 597 223 632T191 721Q195 763 221 799T292 856T397 878Q466 878 498 842T526 750Q523
709 497 674T427 618T326 597Z" />
<glyph unicode=";" horiz-adv-x="616" d="M146 4Q98 10 73 41T53 119Q56 158 81 193T148 251T241 274Q316 274 350 224T374 89Q361 -22 310 -109T186 -255T37 -343Q-1 -356 -22 -352T-48 -333Q-52 -316 -42 -303T1 -279Q72 -252 122 -210T202 -123T237 -41Q241
-17 231 -11T194 -1L146 4ZM344 595Q276 595 241 630T209 719Q213 761 239 797T310 854T415 876Q484 876 516 840T544 748Q541 707 515 672T445 616T344 595Z" />
<glyph unicode="&lt;" horiz-adv-x="1030" d="M304 685L298 667L1022 1026Q1053 1039 1070 1054T1094 1085Q1101 1108 1092 1124T1058 1140Q1037 1140 1013 1132T953 1109L262 768Q225 753 202 733T172 686Q156 631 210 602L731 261Q757 245 777 237T818 228Q869
228 879 264Q883 279 876 293T844 321L304 685Z" />
<glyph unicode="=" horiz-adv-x="1116" d="M248 868Q255 892 275 905T319 918H1074Q1096 918 1107 905T1112 868Q1105 844 1083 831T1036 818H293Q267 818 254 831T248 868ZM152 501Q159 525 179 538T223 551H978Q1000 551 1011 538T1016 501Q1009 477 987 464T940
451H197Q171 451 158 464T152 501Z" />
<glyph unicode="&gt;" horiz-adv-x="1030" d="M846 683L852 701L128 342Q97 329 80 314T56 283Q49 260 58 244T92 228Q113 228 137 236T197 259L888 600Q925 615 948 635T978 682Q994 737 940 766L419 1107Q393 1123 373 1131T332 1140Q281 1140 271 1104Q267
1089 274 1075T306 1047L846 683Z" />
<glyph unicode="?" horiz-adv-x="1006" d="M403 661L371 508Q369 476 380 459T416 442Q441 442 459 457T499 509L541 648Q551 675 566 693T616 720L675 738Q858 793 962 892T1103 1131Q1132 1239 1101 1320T982 1445T753 1490Q623 1490 512 1445T325 1327T228
1172Q211 1111 235 1072T315 1033Q379 1033 424 1068T488 1172L508 1246Q529 1323 583 1364T719 1406Q774 1406 808 1379T852 1295T839 1151Q807 1028 745 946T567 808L497 777Q451 756 430 728T403 661ZM290 -19Q222 -19 187 16T155 105Q158 147 184 182T256 240T360
262Q429 262 462 225T490 134Q487 93 461 58T391 2T290 -19Z" />
<glyph unicode="@" horiz-adv-x="1795" d="M704 427Q694 334 717 296T782 258Q822 258 867 290T957 379T1042 513T1113 679T1158 864Q1164 910 1149 934T1099 958Q1046 958 993 928T891 846T802 725T737 581T704 427ZM1171 135Q1099 135 1061 172T1029 273Q1031
301 1038 338T1060 433T1100 578L1111 539Q1053 408 985 318T838 181T669 135Q572 135 517 204T476 422Q484 541 539 653T686 854T895 995T1148 1048Q1244 1048 1304 1035T1394 1001T1420 953Q1418 931 1406 918T1379 893T1358 860L1243 408Q1221 323 1234 287T1293
251Q1337 251 1385 274T1481 343T1567 459T1630 623Q1687 843 1640 1003T1464 1250T1150 1336Q987 1336 840 1282T571 1130T363 897T234 601Q173 365 222 187T412 -90T763 -190Q894 -190 1021 -158T1267 -63T1491 90Q1514 105 1537 111T1574 102Q1586 88 1576 68T1541
29Q1448 -63 1321 -131T1046 -235T736 -272Q560 -272 424 -212T203 -38T97 238T128 601Q173 774 271 921T509 1179T819 1351T1179 1413Q1338 1413 1463 1360T1666 1206T1766 958T1738 624Q1699 474 1612 365T1411 195T1171 135Z" />
<glyph unicode="A" horiz-adv-x="1302" d="M267 264Q227 196 235 154T286 97L336 87Q354 80 362 69T370 46Q370 25 354 13T309 0H1Q-29 0 -44 11T-59 42Q-59 61 -46 74T1 104Q37 117 76 161T155 275L652 1085Q769 1258 888 1339T1132 1421Q1177 1421 1195 1409T1214
1375Q1214 1360 1206 1350T1179 1331Q1139 1319 1117 1288T1092 1195Q1092 1159 1091 1096T1088 951T1085 779T1082 599T1079 430T1078 292T1077 202Q1078 170 1085 149T1110 114T1163 86Q1193 71 1193 44Q1193 25 1178 13T1133 0H708Q683 0 672 11T660 40Q660
57 671 68T704 88L768 102Q798 111 813 136T829 201Q830 237 831 300T835 444T840 616T844 798T847 974T850 1127T852 1238L905 1221Q887 1211 863 1190T806 1132T732 1035L267 264ZM326 455L350 534H914L907 455H326Z" />
<glyph unicode="B" horiz-adv-x="1350" d="M710 1211Q692 1141 668 1053T618 866T566 668T516 478T474 311T445 187Q437 152 451 129T506 93T611 81Q767 81 862 152T978 357Q998 481 934 547T736 614H467L493 686H718Q818 686 896 731T1025 859T1090 1052Q1108
1182 1046 1250T866 1318Q793 1318 760 1293T710 1211ZM408 1400H894Q1137 1400 1246 1304T1335 1038Q1322 926 1253 839T1070 703T810 653L803 667Q963 667 1063 628T1205 517T1236 348Q1214 187 1059 94T618 0H55Q23 0 12 11T0 40Q0 55 14 67T57 87L111 99Q142
106 157 122T182 167Q202 229 225 308T272 476T321 655T367 832T407 994T438 1126T456 1213Q465 1255 462 1274T432 1302L373 1314Q354 1320 344 1328T334 1351Q334 1373 352 1386T408 1400Z" />
<glyph unicode="C" horiz-adv-x="1300" d="M1192 418Q1208 411 1212 390T1194 330Q1140 218 1054 139T857 17T614 -25Q447 -25 326 53T153 283T136 652Q163 813 235 953T414 1199T654 1366T936 1426Q997 1426 1040 1414T1112 1384T1160 1355T1193 1342Q1207 1342
1221 1354T1250 1383T1279 1412T1311 1425Q1332 1425 1345 1412T1359 1376L1370 1030Q1370 1007 1355 995T1319 982Q1281 982 1264 1025L1241 1103Q1206 1224 1139 1277T964 1331Q865 1331 778 1281T619 1142T499 935T427 678Q393 479 422 354T526 169T707 110Q785
110 856 137T992 225T1110 379Q1133 405 1152 415T1192 418Z" />
<glyph unicode="D" horiz-adv-x="1513" d="M15 40Q15 57 27 69T63 87L120 99Q137 102 151 112T177 144T201 203Q212 247 230 315T271 467T318 642T367 823T412 994T448 1136T470 1233Q478 1264 470 1279T436 1301L383 1314Q361 1321 351 1330T341 1355Q341 1376
357 1388T405 1400H913Q1057 1400 1173 1351T1369 1211T1480 991T1483 702Q1454 535 1376 404T1181 184T920 47T609 0H65Q36 0 26 11T15 40ZM624 91Q730 91 824 130T994 247T1126 440T1208 707Q1236 858 1222 971T1162 1160T1051 1274T910 1312H827Q792 1312 768
1291T728 1220Q719 1184 702 1121T663 977T616 806T567 626T521 453T484 306T462 200Q452 145 468 118T529 91H624Z" />
<glyph unicode="E" horiz-adv-x="1272" d="M481 749H832Q879 749 908 776T945 882Q952 898 962 905T987 913Q1009 913 1020 902T1034 872L1080 576Q1085 546 1073 532T1039 517Q1020 516 1008 525T988 550Q963 621 930 646T835 672H458L481 749ZM766 0H63Q34 0
23 11T12 41Q12 57 24 69T55 88L120 101Q147 107 162 123T189 173Q196 202 212 263T251 408T299 586T351 777T400 960T441 1116T467 1224Q476 1259 470 1277T443 1301L384 1314Q369 1319 358 1328T347 1354Q347 1375 363 1387T408 1400H1096Q1149 1400 1182 1417T1245
1435Q1292 1435 1302 1382L1338 1105Q1343 1077 1333 1062T1301 1045Q1276 1042 1259 1054T1228 1101Q1200 1190 1171 1238T1105 1304T1019 1323H750Q736 1273 715 1194T667 1017T613 816T557 610T508 419T469 264T446 167Q440 138 445 118T471 88T528 78H743Q814
78 868 102T969 183T1058 336Q1082 380 1114 380Q1157 380 1155 328Q1153 253 1133 189T1078 76T998 0T899 -28Q866 -28 837 -14T766 0Z" />
<glyph unicode="F" horiz-adv-x="1216" d="M343 1355Q345 1376 362 1388T409 1400H1078Q1131 1400 1164 1417T1228 1435Q1275 1435 1284 1385L1321 1101Q1326 1074 1316 1059T1284 1042Q1257 1039 1241 1053T1208 1102L1189 1157Q1171 1216 1146 1252T1085 1306T995
1323H750Q733 1263 711 1183T664 1009T613 817T562 624T515 442T476 287T448 174Q439 141 445 123T487 99L556 89Q584 85 596 75T608 48Q608 27 590 14T533 0H64Q34 0 23 11T12 41Q13 59 26 71T70 90L120 101Q146 108 162 125T188 175Q203 230 223 302T267 457T313
630T359 806T402 973T438 1119T465 1230Q473 1263 466 1279T436 1301L386 1314Q365 1321 354 1330T343 1355ZM476 715H821Q868 715 897 743T937 848Q942 866 952 874T978 883Q1000 883 1011 872T1026 839L1073 536Q1079 507 1066 493T1031 478Q1013 478 1001 487T979
516Q963 561 944 587T896 625T823 637H451L476 715Z" />
<glyph unicode="G" horiz-adv-x="1424" d="M931 1427Q1008 1427 1059 1414T1143 1384T1196 1353T1230 1340Q1245 1340 1261 1352T1292 1381T1322 1410T1352 1423Q1376 1423 1391 1408T1409 1361L1425 1038Q1427 1011 1414 999T1381 987Q1362 985 1347 995T1323
1024L1294 1105Q1264 1188 1221 1238T1122 1311T994 1334Q889 1334 796 1285T627 1143T496 925T414 644Q379 443 405 317T504 132T681 73Q755 73 816 95T920 161T979 266L1033 484Q1041 514 1034 532T999 554L916 566Q896 569 888 580T879 607Q879 630 895 642T941
654H1369Q1400 654 1410 643T1420 613Q1420 596 1407 584T1371 565L1326 552Q1301 545 1289 532T1269 495L1144 41Q1131 3 1115 -12T1071 -27Q1057 -27 1043 -19T1015 3T988 29T961 50T936 59Q920 59 896 46T834 16T738 -14T600 -27Q430 -27 312 53T144 283T130
643Q157 808 231 950T413 1199T653 1367T931 1427Z" />
<glyph unicode="H" horiz-adv-x="1593" d="M447 166Q441 136 448 120T480 98L535 85Q555 79 564 70T573 45Q573 24 556 12T510 0H65Q33 0 22 11T11 40Q11 58 23 70T57 87L115 99Q144 105 161 121T189 171Q198 209 216 275T257 425T305 604T356 793T403 973T442
1127T466 1235Q473 1263 467 1279T433 1301L378 1314Q357 1321 348 1330T338 1356Q338 1377 356 1388T409 1400H850Q881 1400 892 1390T903 1362Q903 1344 890 1332T853 1313L792 1298Q764 1292 750 1279T726 1234Q714 1192 694 1120T650 958T599 769T547 574T501
395T466 252T447 166ZM476 704H1260L1234 618H450L476 704ZM1270 166Q1263 136 1271 120T1303 98L1357 85Q1377 79 1386 70T1396 45Q1396 24 1379 12T1332 0H888Q856 0 845 11T834 40Q833 58 846 70T880 87L938 99Q967 105 983 121T1011 171Q1021 209 1039 275T1079
425T1127 604T1178 793T1225 973T1264 1127T1288 1235Q1295 1263 1289 1279T1255 1301L1200 1314Q1179 1321 1170 1330T1161 1356Q1161 1377 1179 1388T1231 1400H1673Q1704 1400 1714 1390T1725 1362Q1725 1344 1713 1332T1677 1313L1614 1298Q1587 1292 1573
1279T1549 1234Q1537 1192 1517 1120T1472 958T1421 769T1370 574T1323 395T1288 252T1270 166Z" />
<glyph unicode="I" horiz-adv-x="775" d="M450 166Q443 136 451 120T483 98L537 85Q558 79 567 70T576 45Q576 24 559 12T513 0H68Q37 0 26 11T15 40Q14 58 27 70T60 87L119 99Q147 105 163 121T191 171Q201 209 219 275T260 425T308 604T359 792T406 973T444
1127T469 1235Q475 1263 469 1279T436 1301L380 1314Q359 1321 350 1330T340 1356Q340 1377 358 1388T412 1400H853Q883 1400 894 1390T905 1362Q905 1344 893 1332T856 1313L794 1298Q767 1292 753 1279T728 1234Q716 1192 697 1120T653 958T602 769T550 574T504
395T469 252T450 166Z" />
<glyph unicode="J" horiz-adv-x="754" d="M711 1198Q705 1177 687 1111T644 948T589 738T529 507T470 282T420 92T386 -34Q360 -149 307 -224T179 -337T13 -374Q-70 -374 -111 -339T-152 -253Q-152 -212 -123 -183T-43 -153Q-16 -153 10 -163T61 -188T111 -213T158
-224Q195 -224 219 -197T244 -103Q244 -82 235 -61T213 -15T190 36T177 95T184 164Q189 183 205 244T244 392T294 581T348 784T398 975T438 1128T461 1215Q471 1260 465 1277T428 1301L368 1314Q347 1321 338 1330T328 1355Q328 1375 344 1387T395 1400H840Q871
1400 882 1390T893 1362Q893 1344 881 1332T848 1314L790 1298Q770 1293 757 1284T733 1256T711 1198Z" />
<glyph unicode="K" horiz-adv-x="1450" d="M437 162Q432 136 440 121T473 101L524 88Q543 81 554 71T565 44Q565 23 548 12T503 0H65Q34 0 23 11T12 40Q11 58 24 70T57 87L116 99Q144 105 161 122T189 171Q199 209 216 275T257 426T306 606T357 796T404 977T443
1131T467 1239Q474 1267 466 1281T433 1302L379 1314Q358 1321 348 1330T338 1356Q338 1377 357 1388T409 1400H847Q874 1400 885 1390T896 1362Q896 1343 883 1333T844 1314L785 1299Q760 1294 744 1280T719 1237Q707 1194 687 1122T643 959T591 769T539 573T492
392T456 248T437 162ZM710 726L903 894L1150 251Q1169 198 1188 172T1240 146Q1259 146 1273 155T1302 184Q1325 204 1348 197Q1362 194 1368 179T1363 139Q1343 89 1306 52T1222 -5T1120 -25Q1047 -25 1006 12T935 132L710 726ZM460 410L434 492L1185 1266Q1241
1324 1287 1359T1377 1410T1470 1426Q1535 1426 1570 1390T1601 1300Q1597 1242 1558 1213T1463 1184Q1422 1184 1391 1196T1322 1209Q1285 1209 1243 1187T1155 1116L460 410Z" />
<glyph unicode="L" horiz-adv-x="1142" d="M668 0H67Q36 0 24 11T13 41Q14 58 27 70T62 88L118 100Q148 107 164 126T192 183Q203 224 221 292T263 446T312 626T362 815T408 993T445 1142T468 1244Q473 1267 465 1281T439 1299L376 1315Q358 1321 348 1330T337
1355Q337 1376 353 1388T399 1400H849Q879 1400 890 1389T902 1360Q902 1342 889 1330T855 1312L788 1298Q763 1293 750 1278T725 1229Q711 1182 691 1110T648 952T599 772T550 587T506 415T470 273T449 178Q438 124 457 102T523 79H670Q737 79 787 106T880 194T970
358Q984 387 999 399T1032 412Q1055 412 1064 398T1074 359Q1072 277 1050 207T992 84T909 3T812 -26Q789 -26 769 -20T726 -7T668 0Z" />
<glyph unicode="M" horiz-adv-x="1728" d="M897 386L804 334L1414 1319Q1444 1366 1477 1383T1543 1400H1774Q1803 1400 1814 1390T1824 1360Q1823 1340 1810 1329T1777 1311L1719 1298Q1697 1293 1683 1276T1662 1229Q1654 1185 1641 1115T1612 960T1577 782T1542
598T1509 424T1483 277T1466 176Q1460 146 1468 127T1500 101L1562 85Q1579 79 1588 70T1596 45Q1595 24 1580 12T1535 0H1096Q1066 0 1055 11T1044 42Q1045 61 1058 71T1088 88L1150 101Q1176 108 1193 126T1218 181Q1228 240 1242 313T1273 471T1307 646T1342
827T1375 1005T1403 1172L1432 1178L847 212Q819 172 798 157T746 141Q722 141 705 161T679 217Q667 286 655 362T631 520T607 684T581 851T555 1017T528 1176L568 1183L289 230Q275 173 285 143T331 101L384 87Q420 72 418 47Q416 25 399 13T350 0H40Q9 0 -3 12T-14
43Q-13 62 0 73T35 91L80 103Q107 110 127 126T165 179T201 283L469 1212Q481 1250 474 1270T442 1298L377 1314Q359 1321 351 1330T343 1356Q344 1377 360 1388T404 1400H637Q680 1400 707 1377T745 1297Q756 1231 767 1160T791 1013T815 860T841 702T868 543T897
386Z" />
<glyph unicode="N" horiz-adv-x="1426" d="M316 259L550 1131L464 1120Q505 1022 550 919T640 712T727 515T802 340T857 204Q875 168 882 139T888 75Q887 39 905 20T956 0H1156Q1192 0 1206 24T1204 84L1157 215Q1145 246 1145 268T1153 320L1306 967Q1321 1024
1343 1064T1398 1133T1478 1185Q1539 1218 1568 1254T1598 1338Q1598 1385 1568 1411T1491 1437Q1414 1437 1352 1374T1255 1179L1023 232L1115 269Q1086 339 1049 420T970 590T886 772T800 958T720 1143T651 1317Q629 1359 606 1379T537 1400H381Q352 1400 338
1386T325 1351T344 1310L405 1188Q425 1162 428 1126T421 1050L212 267Q195 196 161 154T83 100L41 89Q-3 74 -3 41Q-3 22 10 11T51 0H401Q424 0 438 10T453 42Q453 57 443 68T417 85L381 94Q327 111 314 153T316 259Z" />
<glyph unicode="O" horiz-adv-x="1539" d="M1019 1426Q1155 1422 1259 1366T1429 1211T1512 977T1492 682Q1451 507 1366 373T1164 148T909 14T622 -25Q485 -21 380 35T212 194T136 436T168 748Q208 899 289 1024T485 1241T735 1381T1019 1426ZM656 61Q732 58
809 90T960 196T1095 392T1203 692Q1227 787 1238 864T1248 1004Q1247 1112 1213 1185T1122 1296T993 1339Q915 1344 836 1309T684 1198T553 1008T456 736Q429 630 417 546T405 397Q403 229 473 148T656 61Z" />
<glyph unicode="P" horiz-adv-x="1335" d="M1373 912Q1354 807 1301 724T1169 584T989 496T773 466Q666 466 596 484T457 537L493 615Q545 582 604 566T728 549Q831 549 912 591T1047 718T1119 931Q1141 1060 1113 1145T1018 1272T856 1314Q797 1314 764 1289T713
1206Q709 1193 696 1138T661 1000T614 818T563 619T514 428T474 272T449 176Q439 138 447 121T475 99L554 86Q575 82 584 72T594 46Q594 26 578 13T532 0H62Q32 0 21 11T10 40Q10 59 24 71T59 88L109 98Q142 104 158 119T185 168Q194 196 213 262T256 419T307 611T360
814T408 1004T445 1154T466 1241Q471 1267 463 1281T433 1300L375 1314Q356 1321 347 1330T338 1354Q338 1376 354 1388T402 1400H901Q1025 1400 1121 1365T1281 1264T1368 1110T1373 912Z" />
<glyph unicode="Q" horiz-adv-x="1539" d="M697 367Q702 384 711 394T738 402Q755 400 759 388T757 356Q723 214 724 117T756 -43T842 -138T972 -181Q1052 -192 1099 -183T1172 -161T1207 -153Q1217 -156 1220 -168T1214 -194L1142 -301Q1130 -318 1109 -331T1051
-350T956 -351Q832 -340 753 -259T656 -21T697 367ZM1019 1426Q1155 1422 1259 1366T1429 1211T1512 977T1492 682Q1451 507 1366 373T1164 148T909 14T622 -25Q485 -21 380 35T212 194T136 436T168 748Q208 899 289 1024T485 1241T735 1381T1019 1426ZM656 61Q732
58 809 90T960 196T1095 392T1203 692Q1227 787 1238 864T1248 1004Q1247 1112 1213 1185T1122 1296T993 1339Q915 1344 836 1309T684 1198T553 1008T456 736Q429 630 417 546T405 397Q404 285 435 212T523 102T656 61Z" />
<glyph unicode="R" horiz-adv-x="1400" d="M439 601L506 666Q548 640 604 625T729 609Q840 609 921 653T1055 777T1126 964Q1148 1083 1119 1162T1025 1280T870 1320Q794 1320 762 1296T715 1222Q706 1186 689 1121T649 971T601 792T550 603T503 424T464 273T441
171Q433 137 442 122T471 101L527 88Q546 81 556 71T567 45Q567 24 551 12T505 0H62Q33 0 23 11T12 40Q12 59 25 71T60 88L112 98Q141 104 158 120T188 169Q196 202 213 266T254 416T303 598T354 790T402 972T441 1124T463 1224Q471 1260 467 1277T433 1302L377
1314Q357 1321 348 1330T339 1355Q339 1375 355 1387T401 1400H904Q1070 1400 1186 1343T1353 1182T1374 933Q1350 813 1267 724T1053 584T752 530Q650 529 574 549T439 601ZM741 548L977 587L1075 268Q1089 221 1103 195T1134 157T1170 146Q1191 146 1208 156T1242
187Q1249 195 1261 198T1283 198Q1299 192 1303 177T1297 140Q1265 65 1196 20T1037 -25Q991 -25 956 -8T895 50T849 161L741 548Z" />
<glyph unicode="S" horiz-adv-x="1166" d="M562 -23Q475 -23 418 -7T325 32T270 70T237 87Q225 87 210 72T178 36T143 1T108 -15Q82 -15 69 -1T59 44L101 392Q104 424 118 440T156 457Q178 457 191 442T216 397L234 303Q250 188 326 129T512 69Q581 69 634 94T720
164T762 271Q778 359 733 434T555 594Q405 690 342 788T294 1017Q307 1125 371 1218T550 1368T829 1425Q969 1425 1064 1381T1207 1266T1253 1117Q1251 1066 1225 1032T1153 998Q1114 998 1091 1020T1051 1089L1032 1161Q1009 1252 953 1297T813 1342Q732 1342
672 1311T577 1227T533 1110Q519 1016 568 939T746 772Q863 694 925 625T1009 486T1021 334Q1011 227 950 147T789 22T562 -23Z" />
<glyph unicode="T" horiz-adv-x="1198" d="M538 1425Q596 1425 665 1415T807 1389T947 1357T1068 1331T1156 1320Q1191 1320 1210 1332T1238 1368Q1243 1386 1243 1405T1245 1444Q1252 1484 1277 1509T1351 1535Q1392 1535 1419 1506T1445 1418Q1444 1328 1383
1273T1218 1218Q1173 1218 1107 1230T964 1261T811 1298T667 1328T554 1341Q475 1341 440 1314T404 1237Q403 1213 409 1194T421 1157T428 1114Q427 1075 399 1048T326 1021Q272 1022 240 1062T211 1171Q213 1243 251 1300T361 1391T538 1425ZM670 160Q662 132
670 118T699 100L769 84Q807 70 804 44Q802 22 784 11T737 0H288Q260 0 248 11T235 39Q236 58 249 69T285 88L352 102Q374 107 389 124T417 177Q429 217 450 290T497 458T553 658T611 869T666 1070T713 1242T747 1362L988 1316Q973 1270 952 1194T905 1023T851
824T794 617T742 423T699 264T670 160Z" />
<glyph unicode="U" horiz-adv-x="1420" d="M1069 426L1275 1136Q1293 1205 1283 1244T1227 1298L1191 1308Q1163 1319 1152 1329T1140 1357Q1140 1376 1156 1388T1202 1400H1555Q1580 1400 1592 1390T1605 1362Q1605 1341 1593 1329T1550 1308L1505 1297Q1459
1281 1430 1244T1380 1130L1174 418Q1130 265 1053 167T864 22T602 -26Q467 -26 379 19T248 140T205 312Q206 351 215 405T237 518T264 626L427 1213Q437 1245 430 1270T400 1302L349 1314Q326 1325 317 1334T308 1361Q309 1378 323 1389T364 1400H819Q870 1400
870 1364Q870 1348 858 1334T817 1311L758 1298Q730 1291 715 1272T688 1211L525 626Q497 517 484 444T470 317Q469 200 532 141T706 82Q831 82 923 162T1069 426Z" />
<glyph unicode="V" horiz-adv-x="1279" d="M1056 1356Q1056 1376 1069 1388T1104 1400H1471Q1498 1400 1512 1390T1526 1361Q1526 1341 1516 1328T1482 1306L1449 1297Q1416 1285 1388 1260T1332 1195T1269 1101L705 219Q690 196 679 176T660 130L642 62Q634 35
618 18T568 0H381Q351 0 339 21T336 73L358 148Q367 173 367 199T365 250Q365 271 365 324T363 450T361 610T359 784T356 956T353 1106T349 1218Q348 1254 338 1274T304 1301L265 1312Q247 1317 239 1328T230 1356Q230 1375 247 1387T288 1400H729Q750 1400 761
1390T773 1361Q773 1341 763 1329T732 1311L661 1298Q630 1292 617 1266T603 1189Q603 1147 603 1076T605 916T607 726T610 525T612 329T614 155L532 127L1158 1116Q1189 1165 1194 1201T1186 1261T1143 1298L1096 1311Q1056 1329 1056 1356Z" />
<glyph unicode="W" horiz-adv-x="1942" d="M1126 1130L1170 1038L672 215Q653 188 642 168T621 117L604 59Q594 31 575 16T517 0H381Q343 0 328 17T323 66L344 138Q351 159 353 180T356 228Q356 258 356 326T355 486T353 682T351 888T349 1077T346 1224Q346 1256
338 1276T305 1302L275 1312Q251 1319 240 1330T229 1357Q229 1378 244 1389T289 1400H713Q743 1400 754 1390T766 1361Q766 1344 754 1331T717 1311L658 1298Q626 1291 612 1271T597 1208Q596 1165 596 1095T595 935T594 746T594 545T593 351T594 180L525 170L1126
1130ZM1737 1355Q1737 1375 1753 1387T1798 1400H2143Q2173 1400 2184 1390T2196 1361Q2196 1331 2147 1311L2114 1300Q2089 1289 2064 1265T2012 1204T1957 1120L1435 217Q1420 194 1411 173T1393 120L1377 61Q1370 31 1350 16T1301 0H1149Q1119 0 1105 20T1101
73L1119 136Q1126 156 1128 175T1130 216Q1129 254 1127 329T1122 501T1115 703T1107 908T1099 1090T1090 1219Q1087 1259 1078 1278T1045 1304L1009 1315Q994 1321 985 1331T975 1354Q975 1376 991 1388T1037 1400H1443Q1468 1400 1481 1391T1494 1360Q1494 1343
1481 1331T1448 1311L1384 1297Q1350 1288 1339 1265T1329 1193Q1330 1157 1332 1083T1338 912T1344 709T1352 502T1359 316T1365 181H1298L1853 1137Q1886 1193 1881 1238T1824 1301L1773 1316Q1737 1329 1737 1355Z" />
<glyph unicode="X" horiz-adv-x="1325" d="M627 725L686 655L360 233Q312 171 313 137T351 93L385 84Q402 79 410 71T419 46Q419 26 402 13T359 0H21Q-5 0 -17 11T-30 40Q-30 58 -20 69T19 91Q45 97 71 108T124 136T178 179T234 239L627 725ZM674 1225Q684 1196
705 1135T757 992T821 817T890 628T957 446T1017 290T1061 179Q1071 150 1085 133T1119 105T1170 87Q1214 72 1214 44Q1214 25 1198 13T1153 0H731Q699 0 687 11T675 39Q676 55 686 67T722 87L763 95Q793 105 798 127T790 188Q781 213 760 272T708 415T643 592T572
783T503 967T443 1123T400 1228Q383 1269 364 1286T304 1313Q279 1322 269 1332T258 1358Q259 1378 276 1389T321 1400H749Q779 1400 792 1390T805 1361Q805 1344 792 1332T755 1311L704 1301Q679 1295 672 1276T674 1225ZM807 698L737 755L1095 1235Q1154 1307
1201 1350T1293 1414T1387 1434Q1440 1434 1467 1405T1495 1335Q1495 1282 1460 1249T1364 1213Q1337 1212 1316 1213T1268 1209Q1236 1204 1207 1189T1147 1143T1078 1064L807 698Z" />
<glyph unicode="Y" horiz-adv-x="1191" d="M647 506L1012 1182Q1068 1278 1116 1333T1211 1411T1309 1434Q1368 1434 1397 1406T1426 1337Q1426 1284 1386 1248T1265 1192Q1220 1181 1180 1162T1104 1107T1030 1011L753 510Q735 479 726 457T711 414L650 167Q642
138 649 121T681 98L735 86Q758 78 766 68T774 46Q774 24 757 12T708 0H263Q235 0 224 11T212 40Q212 73 259 88L315 99Q347 105 364 123T391 176L458 426Q467 454 465 483T457 542Q453 565 445 618T425 743T403 892T381 1039T361 1162T347 1236Q339 1271 317 1288T254
1312Q232 1318 220 1328T208 1354Q207 1375 224 1387T269 1400H461Q516 1400 544 1378T582 1309Q587 1283 597 1223T619 1082T645 914T671 744T695 599T713 505L647 506Z" />
<glyph unicode="Z" horiz-adv-x="1237" d="M719 0H79Q14 0 14 51Q14 73 28 95T64 140Q94 171 148 233T271 379T419 559T580 756T740 952T885 1129T1003 1270T1080 1358L1107 1324H718Q636 1324 564 1273T408 1106Q384 1076 361 1069T317 1069Q295 1078 294 1098T313
1150L426 1371Q446 1407 462 1419T502 1432Q522 1432 539 1424T579 1408T635 1400H1300Q1334 1400 1349 1390T1365 1355Q1365 1336 1349 1315T1307 1268Q1282 1238 1235 1180T1125 1044T988 874T836 687T681 498T534 320T408 170T314 64L288 79H671Q743 79 803
100T917 179T1023 350Q1038 378 1051 389T1083 401Q1105 401 1115 387T1125 347Q1123 268 1103 200T1047 82T966 3T869 -26Q842 -26 822 -20T779 -7T719 0Z" />
<glyph unicode="[" horiz-adv-x="758" d="M684 1374L289 -117Q282 -143 291 -154T330 -165H515Q567 -165 554 -208Q549 -227 533 -238T490 -249H119Q84 -249 74 -233T73 -183L507 1441Q517 1475 537 1491T592 1507H963Q989 1507 998 1496T1003 1465Q989 1422 938
1422H752Q723 1422 707 1411T684 1374Z" />
<glyph unicode="\" horiz-adv-x="855" d="M445 653Q456 581 469 479T496 260T525 28T553 -191T576 -370Q584 -408 603 -428T653 -450Q683 -450 694 -430T699 -371Q688 -296 672 -194T635 26T595 259T559 477T532 653Q522 728 509 830T482 1049T455 1283T430 1502T406
1680Q398 1718 379 1739T329 1761Q303 1761 292 1739T287 1679Q298 1604 313 1501T346 1282T383 1049T418 831T445 653Z" />
<glyph unicode="]" horiz-adv-x="758" d="M154 -117L549 1374Q556 1400 547 1411T508 1422H323Q271 1422 284 1465Q289 1484 305 1495T348 1506H719Q754 1506 764 1490T765 1440L331 -184Q321 -218 301 -234T246 -250H-125Q-151 -250 -160 -239T-165 -208Q-151
-165 -100 -165H86Q115 -165 131 -154T154 -117Z" />
<glyph unicode="^" horiz-adv-x="921" d="M742 1323H657L807 819Q821 791 836 779T873 767Q906 767 919 794T920 862L804 1353Q790 1398 773 1412T726 1426Q707 1426 690 1421T652 1399T605 1353L232 864Q196 826 192 797T220 768Q241 768 268 779T326 820L742 1323Z" />
<glyph unicode="_" horiz-adv-x="929" d="M-83 -262Q-76 -235 -62 -220T-22 -205H813Q836 -205 843 -220T844 -263Q837 -289 822 -304T783 -319H-51Q-76 -319 -83 -304T-83 -262Z" />
<glyph unicode="`" horiz-adv-x="478" d="M229 1287L280 1095Q284 1082 283 1070T268 1049Q256 1040 242 1040T217 1047L72 1175Q33 1204 13 1234T-2 1304Q3 1339 34 1371T113 1408Q166 1415 190 1381T229 1287Z" />
<glyph unicode="a" horiz-adv-x="1125" d="M877 276Q856 196 863 166T893 135Q910 135 926 145T969 179Q987 194 998 198T1020 197Q1033 191 1033 174T1020 131Q982 61 911 20T763 -22Q700 -22 670 9T639 100Q639 123 642 151T655 218T680 313T720 448L740 407Q690
271 615 175T451 29T266 -22Q155 -22 95 51T50 281Q60 381 101 477T209 657T365 804T560 904T785 941Q879 941 941 928T1034 891T1061 840Q1058 816 1045 804T1017 779T995 742L877 276ZM296 289Q286 190 310 150T380 110Q422 110 469 144T565 238T655 377T730
550T777 741Q786 797 772 822T722 848Q664 848 607 816T497 729T402 602T332 450T296 289Z" />
<glyph unicode="b" horiz-adv-x="1120" d="M556 1074L399 535L356 533Q401 658 477 749T646 890T838 940Q952 940 1016 868T1080 663Q1080 525 1030 402T897 183T713 33T507 -22Q393 -22 321 37T255 212L303 185L186 41Q159 15 137 4T95 -8Q62 -8 51 21T60 124L292
943Q338 1105 424 1215T642 1381T953 1437Q1073 1437 1134 1400T1195 1305Q1195 1257 1163 1224T1073 1191Q1033 1191 998 1211T931 1258T865 1305T796 1326Q716 1326 654 1264T556 1074ZM721 820Q672 819 621 781T522 680T436 538T374 378T350 222Q350 147 385
111T472 75Q518 75 568 108T666 201T751 335T811 495T835 665Q835 723 820 757T780 806T721 820Z" />
<glyph unicode="c" horiz-adv-x="934" d="M610 852Q549 852 490 804T386 671T325 474Q300 298 349 211T500 124Q548 124 594 144T678 202T741 296Q760 322 773 334T803 347Q821 346 830 329T831 278Q821 226 788 173T701 76T570 5T397 -22Q207 -22 121 99T69 431Q87
538 136 630T260 793T433 902T644 941Q737 941 798 909T889 824T916 711Q914 642 873 605T781 567Q734 567 710 589T686 647Q686 675 694 702T704 761Q704 801 680 826T610 852Z" />
<glyph unicode="d" horiz-adv-x="1145" d="M967 790L822 764Q810 808 784 829T708 851Q648 851 589 817T477 724T383 590T317 433T289 270Q286 184 313 148T388 111Q428 111 476 143T573 232T664 367T733 535L913 1136Q959 1293 1051 1365T1270 1437Q1358 1437
1400 1403T1443 1320Q1443 1268 1413 1235T1327 1202Q1295 1202 1272 1214T1230 1243T1189 1271T1141 1284Q1098 1284 1068 1251T1034 1171Q1033 1147 1040 1124T1056 1075T1073 1020T1080 957T1069 881L891 277Q868 197 874 166T907 135Q923 135 940 144T983 179Q1001
194 1012 198T1035 197Q1047 191 1047 174T1034 131Q1009 84 969 50T880 -3T779 -22Q716 -22 685 10T653 100Q653 130 660 170T684 270T726 418L757 401Q696 259 617 165T451 25T278 -22Q197 -22 142 12T63 118T50 299Q61 427 120 543T273 748T485 889T735 941Q806
941 855 921T932 867T967 790Z" />
<glyph unicode="e" horiz-adv-x="995" d="M190 414Q190 414 226 427T322 462T449 507T582 555T695 597L669 564Q678 591 683 626T688 708Q688 772 662 813T590 854Q546 854 500 821T414 729T345 589T310 414Q299 268 353 194T511 120Q571 120 626 142T727 208T799
311Q816 335 829 343T857 352Q875 351 885 336T888 286Q871 207 811 137T651 22T409 -22Q286 -22 206 23T91 151T64 350Q73 470 121 577T248 766T427 894T639 941Q723 941 779 910T864 825T899 704Q901 688 908 677T929 664Q943 664 950 657T958 637Q958 620 944
606T889 578Q848 564 782 542T638 492T482 439T340 390T237 355T198 341L190 414Z" />
<glyph unicode="f" horiz-adv-x="664" d="M390 760L430 871H672Q702 871 718 862T735 829Q735 810 721 794T682 769T624 760H390ZM109 828Q109 848 124 860T171 873H288L332 1060Q373 1239 470 1334T729 1429Q825 1429 872 1391T919 1300Q919 1246 888 1213T804
1180Q772 1180 744 1195T689 1229T638 1263T584 1278Q540 1278 511 1248T470 1170Q463 1137 471 1098T493 1016T514 930T510 847L269 -48Q261 -77 258 -100T254 -143Q254 -170 268 -187T295 -219T309 -258Q309 -290 276 -318T189 -363T77 -381Q10 -381 -9 -333T-2
-189L237 651Q253 711 240 737T164 774Q131 788 120 801T109 828Z" />
<glyph unicode="g" horiz-adv-x="1063" d="M836 8Q800 -163 709 -277T480 -448T165 -506Q37 -506 -27 -465T-91 -357Q-91 -312 -61 -281T23 -249Q63 -249 98 -271T165 -323T229 -375T298 -398Q358 -398 411 -371T505 -285T571 -125L699 402L734 380Q687 253 615
163T456 26T271 -22Q198 -22 146 9T69 106T53 272Q61 374 100 471T206 654T361 803T558 905T788 942Q881 942 942 929T1032 894T1058 845Q1056 821 1043 809T1015 785T996 748L836 8ZM299 290Q294 223 305 185T338 130T390 114Q436 114 486 150T583 251T670 395T736
564T770 738Q778 795 764 821T716 848Q660 848 604 817T495 730T401 604T333 453T299 290Z" />
<glyph unicode="h" horiz-adv-x="1166" d="M377 372Q413 472 460 547T559 673T660 749T748 775Q800 775 809 737T787 603L656 228Q628 150 629 94T665 8T768 -22Q858 -22 930 20T1041 133Q1054 158 1054 175T1041 199Q1031 204 1020 200T990 181Q965 156 948 147T914
137Q888 137 881 167T901 276L1029 641Q1061 733 1063 800T1029 904T906 941Q830 941 736 901T548 768T379 515L399 508L552 1049Q579 1144 616 1205T700 1296T802 1326Q838 1326 870 1306T936 1259T1004 1212T1078 1191Q1138 1191 1172 1224T1206 1305Q1206 1363
1144 1400T957 1437Q780 1437 649 1381T431 1215T297 943L73 149Q57 96 57 58T79 -1T143 -22Q234 -22 287 5T341 77Q341 105 334 125T326 172Q326 191 331 219T348 286T377 372Z" />
<glyph unicode="i" horiz-adv-x="649" d="M377 276Q350 199 357 168T390 137Q406 137 423 147T466 181Q484 197 495 201T518 199Q530 193 530 176T517 133Q479 63 407 21T244 -22Q176 -22 142 8T106 94T134 230L286 642Q315 719 308 750T274 781Q258 781 241 772T197
737Q180 722 169 718T146 719Q133 725 133 742T146 785Q184 855 256 898T416 941Q479 941 513 912T552 824T525 681L377 276ZM489 1116Q417 1116 380 1153T347 1243Q351 1286 377 1322T449 1381T553 1404Q628 1404 662 1366T691 1275Q688 1230 661 1194T590 1137T489
1116Z" />
<glyph unicode="j" horiz-adv-x="623" d="M539 680L275 -192Q230 -344 143 -418T-82 -493Q-157 -493 -196 -461T-236 -379Q-236 -334 -207 -303T-127 -272Q-89 -272 -61 -287T-5 -319T54 -335Q86 -335 115 -314T159 -233Q165 -205 161 -177T147 -118T130 -52T122
22T135 107L299 642Q323 721 316 751T281 781Q265 781 247 772T204 737Q186 722 175 718T152 719Q139 725 139 742T153 785Q178 832 219 867T311 921T422 941Q517 941 547 876T539 680ZM475 1116Q404 1116 367 1153T334 1243Q338 1286 364 1322T436 1381T540 1404Q614
1404 648 1366T678 1275Q675 1230 648 1194T577 1137T475 1116Z" />
<glyph unicode="k" horiz-adv-x="1127" d="M421 557Q427 591 439 637T467 743T506 880T554 1049Q581 1145 618 1206T702 1296T804 1326Q839 1326 872 1306T938 1259T1006 1212T1080 1191Q1140 1191 1174 1224T1208 1305Q1208 1363 1146 1400T959 1437Q782 1437
651 1381T433 1216T299 943L75 151Q59 97 59 59T81 0T145 -20Q206 -20 250 -8T318 27T342 79Q342 107 335 127T328 174Q328 190 331 212T346 278T378 404Q403 497 448 575T551 710T669 797T782 823Q831 819 853 790T867 710Q856 643 799 586T626 481T319 399V327Q577
371 745 433T1001 573T1100 741Q1112 834 1059 885T901 941Q814 944 734 916T586 834T465 706T383 541L421 557ZM533 400L613 140Q637 58 674 19T781 -22Q841 -23 890 -1T974 62T1021 160Q1027 183 1022 195T1004 210Q994 212 984 208T957 185Q944 168 927 155T888
143Q862 145 842 167T803 244L733 450L533 400Z" />
<glyph unicode="l" horiz-adv-x="643" d="M734 1437Q823 1437 865 1401T907 1315Q907 1267 879 1237T796 1207Q764 1207 741 1218T697 1245T656 1272T605 1284Q577 1284 554 1269T516 1228T499 1171Q498 1147 505 1123T521 1074T539 1020T547 957T534 880L352
292Q324 201 332 170T373 139Q400 139 430 155T486 202Q500 215 510 218T531 218Q544 214 546 198T536 155Q516 105 469 65T357 2T221 -22Q150 -22 116 7T80 94T104 240L382 1137Q430 1293 520 1365T734 1437Z" />
<glyph unicode="m" horiz-adv-x="1733" d="M665 180L813 603Q845 696 836 735T780 775Q730 775 663 730T529 596T415 372Q394 312 382 275T364 214T358 174Q358 147 367 127T376 80Q376 34 324 6T181 -22Q111 -22 96 28T118 181L283 642Q311 719 304 750T270 781Q255
781 238 772T194 737Q177 722 166 718T143 719Q130 725 130 742T143 785Q182 856 255 898T420 941Q479 941 513 915T547 838Q547 808 535 770T501 680T451 559T391 399L382 435Q458 625 557 735T757 893T938 941Q1015 941 1053 910T1089 818Q1088 789 1077 754T1046
670T1000 556T943 399L927 435Q984 577 1054 674T1200 830T1347 915T1481 941Q1561 941 1597 904T1632 800T1598 641L1470 276Q1443 199 1451 168T1484 137Q1501 137 1518 146T1560 181Q1579 196 1590 200T1612 199Q1625 193 1625 176T1611 133Q1574 62 1502 20T1338
-22Q1270 -22 1237 7T1201 93T1226 228L1357 603Q1391 696 1380 735T1324 775Q1274 775 1208 730T1076 595T962 372Q941 312 929 275T911 214T905 174Q905 146 914 127T923 80Q923 34 871 6T728 -22Q681 -22 659 0T639 67T665 180Z" />
<glyph unicode="n" horiz-adv-x="1205" d="M143 719Q130 725 130 742T143 785Q182 856 255 898T420 941Q479 941 513 915T547 838Q547 808 535 770T501 680T451 559T391 399L382 435Q439 577 510 674T658 830T809 915T944 941Q1030 941 1067 904T1102 800T1067
641L939 276Q912 198 919 168T952 137Q968 137 985 146T1028 181Q1046 196 1057 200T1080 199Q1092 193 1092 176T1079 133Q1041 62 969 20T806 -22Q738 -22 704 7T669 93T694 228L825 603Q859 697 849 736T786 775Q748 775 699 750T598 674T499 548T415 372Q394
312 382 275T364 214T358 174Q358 147 367 127T376 80Q376 34 324 6T181 -22Q111 -22 96 28T118 180L283 642Q311 719 304 750T270 781Q255 781 238 772T194 737Q177 722 166 718T143 719Z" />
<glyph unicode="o" horiz-adv-x="1079" d="M641 942Q773 939 865 881T996 718T1009 465Q989 355 937 264T809 108T637 9T435 -22Q306 -19 215 38T85 202T72 454Q93 565 144 656T270 812T440 911T641 942ZM435 72Q475 67 513 81T587 128T653 208T708 321T749 465Q775
589 769 671T730 798T640 848Q601 852 564 838T492 792T427 712T373 598T332 454Q306 330 311 248T349 122T435 72Z" />
<glyph unicode="p" horiz-adv-x="1122" d="M599 1000L244 -279Q233 -322 239 -343T282 -371L344 -381Q370 -386 381 -397T392 -424Q393 -443 377 -455T333 -469L-93 -479Q-116 -480 -128 -469T-141 -441Q-141 -424 -131 -412T-95 -388Q-63 -378 -45 -367T-15 -340T3
-299L373 992Q381 1019 394 1040T426 1078T464 1104T504 1120T544 1126Q590 1126 603 1095T599 1000ZM191 664Q173 649 154 646T121 655Q108 669 115 691T144 735Q213 802 295 849T473 921T676 941Q809 937 898 881T1028 719T1048 461Q1028 311 954 201T770 33T532
-22Q421 -19 351 27T256 150L325 183Q350 135 387 109T477 79Q551 75 617 119T732 255T804 491Q821 605 804 683T743 802T632 850Q529 860 417 817T191 664Z" />
<glyph unicode="q" horiz-adv-x="1092" d="M700 383L732 362Q685 243 610 157T445 25T266 -22Q157 -22 97 45T47 248Q53 353 92 454T198 643T357 798T560 903T795 941Q889 941 950 928T1042 891T1070 837Q1067 811 1054 797T1026 766T1003 717L734 -289Q723 -334
728 -356T758 -387L808 -402Q825 -409 833 -417T841 -439Q841 -459 826 -469T783 -481L350 -491Q321 -492 305 -483T289 -454Q289 -437 304 -424T355 -403Q399 -396 426 -385T468 -354T494 -303L700 383ZM295 257Q290 181 314 148T380 115Q428 115 480 152T583
252T676 395T747 563T782 735Q789 795 774 822T723 849Q663 849 603 816T490 724T393 589T325 428T295 257Z" />
<glyph unicode="r" horiz-adv-x="966" d="M136 719Q123 725 123 742T136 785Q162 832 203 867T297 921T408 941Q464 941 493 915T523 838Q523 797 506 744T467 632T426 521T404 426L387 429Q421 551 470 646T578 806T699 906T822 941Q901 941 942 895T980 775Q979
716 957 674T901 610T827 588Q783 588 763 608T743 654Q743 677 750 698T757 741Q757 765 746 779T711 794Q670 794 619 747T516 604T416 365Q393 295 383 253T372 178Q372 151 382 137T404 110T415 72Q415 46 391 24T318 -10T199 -23Q148 -23 124 -1T99 67T123
178L278 642Q305 719 298 750T264 781Q248 781 231 772T187 737Q170 722 159 718T136 719Z" />
<glyph unicode="s" horiz-adv-x="898" d="M391 61Q453 61 491 93T530 177Q530 208 517 235T469 296T366 376Q291 429 248 470T186 554T167 651Q168 730 216 795T356 901T576 941Q677 941 745 915T848 843T883 744Q883 699 863 675T808 650Q776 650 752 671T703
745Q675 803 637 833T546 863Q478 863 437 827T396 734Q396 703 409 674T457 609T560 523Q640 465 684 422T744 337T761 246Q761 168 712 108T574 13T363 -22Q254 -22 180 8T69 87T32 191Q32 233 51 257T105 282Q142 282 168 259T218 184Q254 116 296 89T391 61Z"
/>
<glyph unicode="t" horiz-adv-x="765" d="M248 799L176 815Q158 821 150 832T141 859Q141 879 158 891T203 903H284Q311 903 331 913T370 945L486 1092Q501 1110 517 1116T550 1123Q572 1123 582 1113T593 1082Q593 1070 590 1050T578 1004L367 301Q337 204 352
171T422 138Q465 138 503 157T583 223Q596 237 605 242T625 248Q638 248 646 239T651 214Q647 178 617 137T535 60T417 1T272 -22Q192 -22 151 10T106 107T130 268L263 698Q280 750 276 771T248 799ZM450 802L481 899H745Q784 899 784 865Q784 836 759 819T691
802H450Z" />
<glyph unicode="u" horiz-adv-x="1200" d="M1067 199Q1079 193 1079 176T1066 133Q1028 62 955 20T790 -22Q730 -22 697 3T663 80Q663 110 675 148T709 239T759 360T819 520L828 484Q771 341 700 244T552 88T401 4T265 -22Q180 -22 143 14T107 118T142 277L270
643Q298 720 291 750T257 781Q242 781 225 772T181 738Q164 722 153 718T130 719Q117 726 117 743T130 786Q168 856 240 898T404 941Q472 941 506 911T542 825T515 690L385 315Q351 221 361 182T423 143Q462 143 511 168T612 244T711 370T794 547Q816 606 828 644T846
705T851 745Q851 772 843 791T834 838Q834 885 886 913T1029 941Q1099 941 1114 891T1092 738L926 276Q899 199 906 168T939 137Q955 137 972 147T1015 181Q1033 197 1044 201T1067 199Z" />
<glyph unicode="v" horiz-adv-x="1160" d="M1120 757Q1120 629 1085 512T986 298T836 128T649 17T438 -23Q337 -23 280 26T225 170Q226 249 259 315T341 439T445 547T544 645T612 740L610 695Q555 695 504 707T407 734T317 762T234 776Q195 777 175 759T153 715Q151
684 191 660Q217 646 228 632T239 594Q238 561 216 543T165 524Q117 524 86 565T58 682Q61 756 94 814T187 907T325 941Q367 941 410 931T494 910T564 899Q598 899 615 910T646 931T680 941Q701 941 709 926T715 877Q706 825 684 764T633 637T579 501T535 363T518
230Q518 163 543 132T611 101Q661 101 718 142T824 252T906 405T938 576Q938 623 929 653T897 710Q875 736 865 759T854 812Q855 848 871 877T917 923T984 941Q1047 941 1083 896T1120 757Z" />
<glyph unicode="w" horiz-adv-x="1688" d="M1118 943Q1160 940 1174 884T1160 715Q1112 513 1039 372T873 144T674 18T449 -22Q335 -22 276 26T219 170Q221 249 254 315T339 439T445 547T546 646T613 742L605 696Q550 696 499 708T401 735T311 763T228 777Q190
777 169 760T147 715Q146 684 186 661Q211 646 222 632T233 595Q233 561 211 543T160 525Q112 525 81 566T53 682Q56 756 89 815T181 908T319 942Q362 942 405 932T488 910T559 899Q593 899 611 910T644 932T683 942Q709 941 723 923T734 868Q725 820 700 767T643
654T582 530T533 394T513 247Q513 175 542 144T628 112Q684 112 746 143T872 242T999 424T1118 700Q1074 519 1061 401T1058 216T1096 121T1163 93Q1206 93 1250 119T1335 196T1408 315T1459 471Q1469 520 1467 561T1453 635T1419 695Q1395 721 1383 750T1370 814Q1371
846 1388 875T1435 922T1504 940Q1586 940 1620 855T1631 619Q1612 483 1561 366T1437 162T1277 27T1097 -22Q1007 -22 950 22T870 156T858 377T917 686Q955 825 1007 885T1118 943Z" />
<glyph unicode="x" horiz-adv-x="1188" d="M503 472L564 452Q535 322 495 232T404 85T297 4T180 -22Q95 -22 53 26T11 156Q11 239 47 289T135 339Q175 339 198 313T222 243Q222 220 218 197T213 151Q213 129 225 116T263 103Q294 103 334 134T419 245T503 472ZM701
711L707 271Q708 200 732 165T800 129Q838 129 867 146T931 206Q953 231 965 240T993 247Q1010 245 1016 232T1013 191Q995 137 952 88T849 9T717 -22Q645 -22 597 7T525 93T496 236L487 668Q486 737 463 768T402 799Q369 799 337 781T266 713Q251 693 241 686T218
680Q201 682 194 697T197 743Q216 793 259 838T365 912T504 941Q570 941 612 913T677 834T701 711ZM690 407L637 425Q666 564 708 662T803 821T913 912T1030 941Q1110 941 1151 892T1192 767Q1192 675 1154 626T1063 577Q1026 577 1004 599T983 659Q984 679 992
707T1001 763Q1001 782 988 793T950 805Q920 805 888 784T821 716T754 593T690 407Z" />
<glyph unicode="y" horiz-adv-x="1044" d="M676 564Q751 764 830 854T1002 945Q1052 945 1079 916T1107 837Q1107 778 1072 739T973 674Q933 662 899 643T833 590T770 501T704 359L537 -53Q476 -216 397 -313T220 -452T1 -495Q-108 -495 -165 -452T-223 -339Q-223
-291 -193 -257T-114 -223Q-80 -223 -57 -239T-16 -280T19 -329T59 -371T115 -388Q155 -388 190 -368T252 -311T294 -225T310 -115Q311 -74 309 -14T303 120T294 271T282 427T269 571T255 691Q251 739 238 761T203 783Q188 783 173 774T139 738Q127 723 118 719T97
717Q87 720 81 734T84 774Q101 823 136 861T221 920T328 942Q392 942 431 899T479 766Q483 724 486 653T492 492T497 308T501 124T502 -38L469 -17L676 564Z" />
<glyph unicode="z" horiz-adv-x="1028" d="M351 216Q376 239 411 270T500 350T632 468Q693 528 740 569T821 637T882 679T930 702Q992 724 1021 760T1050 853Q1050 892 1030 916T969 941Q936 941 913 924T874 881T845 829T817 786T785 768Q759 768 735 785T683
829T620 880T536 923T421 941Q334 941 270 902T172 800T138 668Q138 606 167 573T243 540Q274 540 292 556T310 600Q310 617 302 630T273 654Q251 668 243 679T235 702Q235 726 258 740T325 754Q363 754 419 742T538 713T655 684T745 671L750 712Q737 698 703 666T614
584T483 464Q429 411 385 373T306 307T240 262T181 233Q124 211 89 183T38 123T21 61Q21 20 43 -1T105 -22Q140 -22 165 -3T208 44T242 101T272 149T305 168Q326 168 347 149T394 101T453 45T532 -3T637 -22Q718 -22 786 16T895 123T937 284Q937 311 930 323T910
335Q899 335 891 328T871 299Q853 245 814 223T704 201Q654 201 595 214T476 241T368 255L351 216Z" />
<glyph unicode="{" horiz-adv-x="817" d="M422 636Q416 612 446 612Q515 612 556 593T612 540T618 458Q605 405 565 353T474 249T383 142T325 29Q309 -31 321 -74T371 -142T472 -166H541Q566 -166 575 -177T579 -209Q573 -227 557 -238T515 -250H411Q289 -250
216 -214T117 -115T115 31Q137 110 187 175T293 296T394 400T448 492Q457 532 441 556T381 580Q354 580 332 573T290 559T242 551Q201 551 185 577T179 637Q188 671 218 697T291 724Q318 724 335 717T370 703T416 695Q460 695 487 718T526 780Q538 825 519 872T473
974T431 1093T438 1236Q460 1316 516 1377T663 1472T875 1507H979Q1005 1507 1014 1495T1018 1465Q1012 1444 996 1433T954 1422H886Q792 1422 730 1373T644 1237Q629 1180 641 1127T676 1022T713 919T712 815Q693 744 628 702T459 660Q443 660 434 654T422 636Z"
/>
<glyph unicode="|" horiz-adv-x="636" d="M313 634Q333 708 360 818T416 1051T472 1286T522 1481Q531 1514 554 1532T610 1551Q643 1551 655 1532T658 1481Q642 1423 618 1340T565 1160T507 966T454 783T412 634Q395 572 374 485T328 301T281 108T238 -73T201
-215Q191 -248 169 -266T113 -283Q80 -283 68 -265T65 -213Q87 -132 120 -19T191 217T260 449T313 634Z" />
<glyph unicode="}" horiz-adv-x="814" d="M471 614Q477 638 447 638Q378 638 337 657T281 710T275 792Q288 845 328 897T419 1001T510 1108T568 1221Q584 1281 572 1324T522 1392T421 1416H352Q327 1416 318 1427T314 1459Q320 1477 336 1488T378 1500H482Q604
1500 677 1464T776 1365T778 1219Q756 1140 706 1075T600 954T499 850T445 758Q436 718 452 694T512 670Q539 670 561 677T603 691T651 699Q692 699 708 673T714 613Q705 579 675 553T602 526Q575 526 558 533T523 547T477 555Q433 555 406 532T367 470Q355 425
374 378T420 276T462 157T455 14Q433 -66 377 -127T230 -222T18 -257H-86Q-112 -257 -121 -245T-125 -215Q-119 -194 -103 -183T-61 -172H7Q101 -172 163 -123T249 13Q264 70 252 123T217 228T180 331T181 435Q200 506 265 548T434 590Q450 590 459 596T471 614Z"
/>
<glyph unicode="~" horiz-adv-x="1245" d="M900 535Q835 535 779 566T673 639T572 712T466 744Q396 744 341 697T252 567Q240 547 222 537T184 526Q132 526 151 584Q173 658 225 721T348 821T497 859Q574 859 632 828T739 756T834 684T933 653Q993 653 1044 690T1123
808Q1138 834 1157 845T1196 857Q1221 857 1230 842T1230 795Q1211 721 1161 662T1043 569T900 535Z" />
<glyph unicode="&#xa0;" horiz-adv-x="403" />
<glyph unicode="&#xa1;" horiz-adv-x="673" d="M129 -357Q53 -357 26 -323T13 -231Q16 -212 26 -183T50 -125L338 640Q352 668 369 681T409 694Q431 694 440 682T447 640L329 -127Q327 -152 324 -176T315 -219Q298 -283 253 -320T129 -357ZM535 1166Q603 1166
638 1131T670 1042Q666 1000 640 964T569 907T465 885Q395 885 363 921T335 1013Q338 1054 364 1088T434 1144T535 1166Z" />
<glyph unicode="&#xa2;" horiz-adv-x="1001" d="M992 699Q986 646 950 616T867 585Q826 585 803 610T787 688L795 735Q804 782 792 816T748 869T662 888Q586 888 516 842T392 712T314 511Q274 324 336 230T530 135Q623 135 696 181T815 302Q828 313 838 323T865
334Q881 333 891 318T890 275Q858 195 793 132T638 33T436 -4Q302 -4 213 51T88 209T80 455Q100 561 154 651T288 809T468 913T680 951Q793 951 866 916T971 823T992 699ZM580 490Q558 411 539 335T503 190T474 62T451 -42T432 -116Q425 -138 411 -150T376 -163Q358
-163 350 -151T349 -113Q355 -91 365 -56T389 24T418 123T451 236T487 359T524 490Q541 552 556 611T585 727T610 835T631 929T649 1006T663 1061Q669 1084 685 1095T721 1107Q737 1107 745 1096T747 1058Q741 1037 731 1004T708 928T680 835T648 728T614 612T580
490Z" />
<glyph unicode="&#xa3;" horiz-adv-x="1243" d="M359 291L299 306Q369 345 406 390T454 486Q462 533 450 581T416 680T373 786T341 903T342 1032Q362 1146 440 1236T646 1378T938 1431Q1073 1431 1157 1389T1275 1276T1297 1120Q1291 1068 1268 1028T1210 966T1131
943Q1075 943 1050 982T1041 1089L1059 1192Q1078 1280 1041 1325T917 1370Q812 1370 737 1298T624 1084Q607 1018 605 951T606 817T608 683T588 553Q566 476 512 407T359 291ZM-7 88Q3 157 51 214T174 306T340 340Q410 340 470 321T586 275T697 229T812 209Q890
209 940 244T1033 355Q1046 375 1060 383T1091 389Q1108 387 1115 375T1116 343Q1088 254 1049 186T961 70T852 -1T725 -26Q656 -26 607 -5T524 62T461 185Q429 228 405 245T348 263Q314 263 292 235T249 144Q225 81 199 44T143 -10T74 -26Q28 -26 7 5T-7 88ZM186
650Q190 663 204 672T235 682L462 690L497 624H214Q198 624 190 630T186 650ZM546 623L553 682H950Q966 682 973 674T977 653Q968 623 932 623H546Z" />
<glyph unicode="&#xa4;" horiz-adv-x="1145" d="M538 347Q637 347 726 388T882 505T975 679Q1002 780 977 854T884 969T720 1011Q623 1011 534 970T380 856T287 683Q260 583 285 508T376 390T538 347ZM566 430Q461 430 416 502T398 681Q417 753 460 809T565 898T697
931Q801 931 847 860T866 681Q847 610 803 553T698 463T566 430ZM947 241Q972 258 975 280T964 320L831 505L727 435L860 250Q875 232 898 228T947 241ZM312 1115Q287 1098 284 1076T295 1036L428 851L531 921L398 1106Q384 1123 360 1127T312 1115ZM92 247Q106
230 132 231T183 251L399 436L334 509L119 323Q95 305 87 285T92 247ZM1167 1111Q1153 1128 1127 1128T1075 1108L860 923L925 849L1140 1035Q1164 1053 1172 1074T1167 1111Z" />
<glyph unicode="&#xa5;" horiz-adv-x="1218" d="M657 506L1021 1166Q1081 1267 1130 1324T1226 1406T1322 1430Q1382 1430 1411 1402T1440 1335Q1440 1286 1403 1250T1285 1192Q1232 1179 1192 1159T1118 1103T1048 1011L763 510Q744 479 736 457T721 414L660
167Q652 138 659 121T691 98L745 86Q768 78 776 68T784 46Q784 24 767 12T718 0H274Q245 0 234 11T222 40Q222 73 269 88L325 99Q357 105 374 123T401 176L468 426Q477 454 475 483T467 542Q463 565 455 618T435 743T413 892T391 1039T371 1162T357 1236Q349 1271
328 1288T265 1312Q242 1318 230 1328T218 1354Q217 1375 234 1387T280 1400H471Q526 1400 554 1378T592 1309Q598 1283 607 1223T629 1082T655 914T682 744T705 599T723 505L657 506ZM114 470Q118 483 131 491T159 500H1076Q1095 500 1103 492T1107 470Q1103 455
1089 447T1057 439H138Q106 439 114 470ZM179 739Q183 753 196 761T224 770H589L602 708H203Q170 708 179 739ZM837 708L880 770H1143Q1161 770 1168 762T1171 739Q1167 724 1154 716T1124 708H837Z" />
<glyph unicode="&#xa6;" horiz-adv-x="664" d="M461 771Q452 735 436 719T393 703Q371 703 362 719T362 771Q383 851 402 941T440 1121T474 1294T508 1439Q521 1487 549 1513T619 1539Q660 1539 673 1513T673 1439Q656 1376 629 1294T572 1122T512 941T461 771ZM281
476Q291 512 307 527T350 543Q372 543 381 527T380 476Q359 396 340 306T303 126T268 -47T234 -193Q222 -240 194 -266T124 -292Q83 -292 70 -266T70 -193Q87 -129 113 -47T171 125T231 306T281 476Z" />
<glyph unicode="&#xa7;" horiz-adv-x="1148" d="M388 -398Q334 -398 294 -387T227 -361T182 -335T153 -323Q141 -323 128 -334T103 -359T79 -384T56 -395Q36 -395 28 -385T21 -354L39 -84Q40 -66 51 -54T82 -37Q101 -32 114 -39T135 -67Q151 -160 188 -215T280
-294T398 -319Q484 -319 546 -275T628 -156Q648 -80 609 -16T445 105Q318 156 252 216T169 348T174 502Q195 581 250 645T387 750T570 803L580 746Q507 735 453 687T382 572Q363 491 405 425T572 302Q702 248 767 187T848 56T844 -92Q822 -179 759 -248T601 -358T388
-398ZM830 1346Q737 1346 671 1292T583 1149Q563 1070 607 1006T756 893Q875 841 942 777T1031 639T1032 485Q1013 405 953 341T802 238T601 194L612 253Q694 259 751 306T827 418Q848 494 806 564T632 695Q461 764 397 867T367 1105Q389 1195 453 1267T618 1383T848
1426Q966 1426 1047 1386T1168 1281T1207 1147Q1206 1100 1182 1070T1114 1039Q1078 1039 1055 1058T1019 1121L1005 1179Q994 1234 972 1271T914 1327T830 1346Z" />
<glyph unicode="&#xa8;" horiz-adv-x="758" d="M52 1056Q-7 1056 -32 1090T-44 1180Q-29 1237 15 1271T118 1305Q177 1305 203 1271T213 1180Q199 1125 155 1091T52 1056ZM444 1056Q386 1056 360 1090T349 1180Q364 1236 408 1270T511 1305Q571 1305 596 1271T607
1180Q592 1125 548 1091T444 1056Z" />
<glyph unicode="&#xa9;" horiz-adv-x="1773" d="M735 -90Q909 -90 1070 -36T1366 120T1599 362T1746 677Q1798 864 1781 1021T1687 1293T1483 1472T1186 1536Q1010 1536 847 1481T547 1324T312 1083T168 776Q117 591 134 434T228 158T434 -25T735 -90ZM760 -13Q607
-13 494 46T315 211T235 462T268 777Q308 925 393 1049T599 1265T862 1407T1161 1458Q1308 1458 1419 1400T1597 1237T1680 989T1648 677Q1607 526 1520 400T1313 182T1052 38T760 -13ZM1325 483Q1308 431 1264 379T1154 284T1007 216T833 190Q702 190 615 259T497
452T508 736Q535 844 594 937T737 1101T917 1211T1118 1251Q1190 1251 1230 1235T1292 1202T1329 1185Q1344 1185 1359 1198T1390 1225T1418 1239Q1437 1239 1442 1231T1449 1201L1446 944Q1447 925 1432 913T1395 896Q1376 895 1362 903T1343 930Q1329 1025 1300
1078T1229 1153T1133 1175Q1071 1175 1015 1144T908 1057T820 923T759 754Q722 608 737 511T809 364T953 315Q1027 315 1097 353T1224 466Q1249 483 1264 494T1290 511T1311 514Q1333 508 1325 483Z" />
<glyph unicode="&#xaa;" horiz-adv-x="1067" d="M921 852Q906 794 911 770T942 746Q960 746 976 756T1013 789Q1025 797 1034 800T1051 800Q1061 795 1063 782T1054 747Q1027 686 964 648T818 609Q769 609 743 635T717 712Q717 732 720 756T731 815T752 895T786
1005L799 970Q745 853 681 773T542 651T385 609Q294 609 243 671T202 866Q209 973 260 1073T396 1253T593 1380T830 1427Q919 1427 977 1416T1062 1386T1088 1342Q1086 1323 1074 1312T1049 1289T1029 1260L921 852ZM419 870Q411 789 431 756T490 723Q528 723 571
751T656 830T736 949T800 1097T839 1262Q846 1302 831 1323T783 1345Q722 1345 661 1304T547 1195T460 1042T419 870Z" />
<glyph unicode="&#xab;" horiz-adv-x="1114" d="M117 511Q124 531 143 547T207 589Q305 646 379 692T509 776T610 848Q630 860 648 863T675 858Q685 847 680 833T659 801Q630 769 594 733T514 654T416 564T301 461L310 521Q356 446 388 382T443 265T483 167Q489
152 488 138T473 116Q460 108 447 111T422 129Q394 169 358 214T274 313T158 427Q129 454 121 472T117 511ZM550 511Q557 531 576 547T640 589Q738 646 812 692T942 776T1043 848Q1063 860 1081 863T1108 858Q1118 847 1113 833T1092 801Q1063 769 1027 733T947
654T849 564T734 461L743 521Q789 446 821 382T876 265T916 167Q922 152 921 138T906 116Q893 108 880 111T855 129Q827 169 791 214T707 313T591 427Q562 454 554 472T550 511Z" />
<glyph unicode="&#xac;" horiz-adv-x="1116" d="M213 792Q221 817 243 831T291 845H994Q1026 845 1040 830T1046 783L960 465Q954 444 934 430T884 415Q854 415 842 431T836 469L914 763L930 739H257Q232 739 219 752T213 792Z" />
<glyph unicode="&#xad;" horiz-adv-x="769" d="M911 603Q961 603 938 560L903 481Q893 461 880 454T846 446H370Q345 446 339 457T343 490L377 568Q388 589 400 596T433 603H911Z" />
<glyph unicode="&#xae;" horiz-adv-x="1419" d="M645 269Q787 269 919 314T1161 441T1350 634T1465 876Q1503 1013 1486 1129T1403 1331T1232 1463T986 1510Q846 1510 716 1467T476 1344T289 1157T176 920Q137 780 153 662T232 455T400 318T645 269ZM666 336Q506
336 402 413T261 622T269 920Q310 1074 414 1191T661 1375T965 1442Q1123 1442 1230 1369T1377 1168T1373 876Q1331 722 1226 600T975 407T666 336ZM1166 1007Q1148 936 1083 886T934 821Q905 817 881 811T825 804Q775 804 737 817T671 847L691 899Q720 878 752
870T820 861Q890 861 938 899T1003 1005Q1025 1091 992 1145T887 1199Q846 1199 826 1185T797 1141Q790 1112 778 1064T751 958T722 842T694 732T672 648Q667 629 670 619T685 605L711 598Q721 593 723 588T723 573Q716 550 683 550H440Q406 550 413 573Q416 583
424 588T446 599L474 607Q488 611 497 620T512 647Q522 682 535 733T563 844T593 962T621 1071T641 1153Q646 1171 643 1180T629 1193L603 1200Q582 1208 587 1228Q596 1253 629 1253H903Q1056 1253 1125 1184T1166 1007ZM812 832L951 856L988 687Q994 654 1006
642T1034 629Q1045 629 1055 634T1073 648Q1083 656 1094 655Q1104 654 1107 644T1103 620Q1085 580 1044 557T952 533Q909 533 882 557T846 640L812 832Z" />
<glyph unicode="&#xaf;" horiz-adv-x="726" d="M-67 1171Q-59 1203 -40 1218T7 1233H478Q505 1233 515 1218T517 1172Q509 1139 490 1125T444 1110H-28Q-54 1110 -64 1125T-67 1171Z" />
<glyph unicode="&#xb0;" horiz-adv-x="784" d="M626 1426Q712 1426 768 1389T845 1285T841 1130Q818 1047 762 985T628 887T467 852Q339 852 278 934T251 1142Q273 1222 328 1286T460 1388T626 1426ZM602 1346Q516 1346 448 1287T357 1142Q333 1050 371 992T492
933Q572 933 641 988T735 1131Q760 1225 723 1285T602 1346Z" />
<glyph unicode="&#xb1;" horiz-adv-x="1118" d="M538 422Q511 422 500 436T495 470L695 1216Q701 1234 720 1247T766 1261Q794 1260 805 1246T809 1214L610 467Q604 449 585 436T538 422ZM222 842Q229 866 249 879T293 892H1048Q1070 892 1081 879T1086 842Q1078
818 1056 805T1010 792H266Q241 792 228 805T222 842ZM86 192Q93 216 113 229T157 242H912Q934 242 945 229T950 192Q943 168 921 155T874 142H131Q105 142 92 155T86 192Z" />
<glyph unicode="&#xb2;" horiz-adv-x="732" d="M277 848L244 872L406 953Q522 1010 580 1070T662 1218Q684 1302 669 1341T606 1381Q554 1381 524 1354T481 1281L467 1228Q457 1188 427 1166T357 1143Q319 1143 303 1166T297 1230Q318 1305 404 1365T633 1425Q768
1425 818 1366T844 1218Q825 1144 753 1083T525 952L277 848ZM161 774Q177 832 235 866T390 900Q424 900 454 891T512 869T568 847T622 837Q655 837 678 853T724 907Q732 919 743 923T764 926Q798 925 783 887Q743 782 689 738T566 693Q508 693 476 715T419 794Q404
816 395 827T371 839Q354 839 342 824T320 774Q309 733 283 713T217 693Q182 693 167 715T161 774Z" />
<glyph unicode="&#xb3;" horiz-adv-x="686" d="M481 1065L474 1081Q488 1084 506 1086T543 1088Q658 1088 710 1034T737 888Q712 794 618 739T393 683Q265 683 213 731T179 850Q190 890 222 915T293 940Q332 940 346 919T351 861L338 811Q329 775 346 753T411
730Q459 730 498 765T557 877Q578 954 555 992T469 1030H431Q415 1030 406 1037T402 1059Q405 1071 414 1080T440 1099L737 1317L729 1271H451Q413 1271 395 1240L372 1194Q364 1181 353 1174T324 1166Q306 1166 299 1175T299 1200L358 1362Q365 1379 382 1389T424
1400H843Q862 1400 871 1392T875 1370Q872 1359 859 1349T823 1326L481 1065Z" />
<glyph unicode="&#xb4;" horiz-adv-x="468" d="M103 1287Q149 1347 192 1381T284 1408Q327 1403 341 1371T341 1304Q325 1264 290 1234T199 1175L-11 1047Q-26 1041 -40 1041T-60 1049Q-69 1058 -63 1070T-46 1095L103 1287Z" />
<glyph unicode="&#xb5;" horiz-adv-x="1186" d="M123 248L160 235Q126 113 114 22T99 -139T95 -264T78 -367Q65 -414 28 -442T-52 -471Q-100 -471 -120 -436T-124 -342Q-111 -300 -84 -245T-20 -119T53 42T123 248ZM253 624Q267 667 273 695T279 751Q279 774 268
796T257 846Q257 891 311 918T458 946Q527 946 541 899T520 762L376 320Q345 224 355 185T418 145Q457 145 505 170T605 246T702 374T781 553Q801 613 812 650T828 711T833 751Q833 774 824 796T814 846Q814 891 868 918T1015 946Q1085 946 1100 898T1077 762L912
289Q880 203 884 172T921 140Q937 140 957 152T1008 193Q1025 203 1037 206T1059 204Q1072 197 1073 180T1059 143Q1011 68 932 24T773 -21Q710 -21 679 4T647 80Q647 113 660 156T695 252T741 366T786 495L817 489Q752 345 679 248T528 91T378 5T238 -21Q159 -21
126 17T97 123T136 282L253 624Z" />
<glyph unicode="&#xb6;" horiz-adv-x="1279" d="M206 996Q239 1118 319 1208T518 1349T782 1400H1398Q1419 1400 1431 1390T1438 1360Q1433 1343 1420 1333T1386 1316L1318 1298Q1285 1289 1264 1273T1236 1230L961 172Q952 144 961 127T997 103L1053 87Q1074
82 1082 72T1085 43Q1079 21 1057 11T1015 0H289Q268 0 259 10T254 37Q261 57 276 69T317 87L387 102Q421 110 443 125T472 165L599 652Q576 648 551 643T496 637Q317 637 240 733T206 996ZM803 173L1076 1226Q1086 1258 1073 1278T1013 1298Q967 1298 940 1276T905
1226L631 173Q623 147 637 125T698 103Q745 103 769 123T803 173Z" />
<glyph unicode="&#xb7;" horiz-adv-x="559" d="M254 369Q186 369 151 404T119 493Q123 535 149 571T220 628T325 650Q394 650 426 614T454 522Q451 481 425 446T355 390T254 369Z" />
<glyph unicode="&#xb8;" horiz-adv-x="546" d="M421 12H491L373 -141L332 -129Q350 -126 369 -125T416 -123Q508 -123 549 -164T572 -275Q553 -350 484 -395T313 -440Q228 -440 183 -408T144 -330Q148 -314 160 -305T186 -294Q199 -293 207 -298T220 -313Q227
-344 252 -358T310 -372Q393 -372 417 -274Q427 -232 411 -207T348 -182H316Q293 -182 292 -169T305 -138L421 12Z" />
<glyph unicode="&#xb9;" horiz-adv-x="591" d="M352 1312H406Q426 1312 431 1304T430 1272L313 818Q307 799 296 789T267 775L196 765Q162 760 155 736Q146 708 185 708H553Q590 708 600 736Q606 759 579 765L519 775Q503 779 498 789T499 818L652 1397Q662 1431
623 1431Q612 1431 602 1428T578 1418Q549 1396 518 1386T440 1376H374Q355 1376 341 1367T322 1345Q318 1329 325 1321T352 1312Z" />
<glyph unicode="&#xba;" horiz-adv-x="1028" d="M763 1427Q875 1423 947 1372T1047 1233T1054 1025Q1031 894 953 798T762 652T521 606Q413 610 341 658T239 794T232 1003Q255 1126 327 1224T511 1377T763 1427ZM554 683Q606 680 660 714T761 827T833 1036Q855
1144 848 1212T811 1313T736 1349Q678 1354 621 1313T519 1189T450 988Q429 879 437 813T476 716T554 683Z" />
<glyph unicode="&#xbb;" horiz-adv-x="1125" d="M1032 471Q1025 451 1006 435T942 393Q844 336 770 290T640 206T539 134Q519 122 501 119T474 124Q464 135 469 149T490 181Q519 213 555 249T635 328T733 418T848 521L839 461Q793 536 761 600T706 717T666 815Q660
830 661 844T676 866Q689 874 702 871T727 853Q755 813 791 768T875 669T991 555Q1020 528 1028 510T1032 471ZM599 471Q592 451 573 435T509 393Q411 336 337 290T207 206T106 134Q86 122 68 119T41 124Q31 135 36 149T57 181Q86 213 122 249T202 328T300 418T415
521L406 461Q360 536 328 600T273 717T233 815Q227 830 228 844T243 866Q256 874 269 871T294 853Q322 813 358 768T442 669T558 555Q587 528 595 510T599 471Z" />
<glyph unicode="&#xbc;" horiz-adv-x="1513" d="M399 1312H453Q473 1312 478 1304T477 1272L360 818Q354 799 343 789T314 775L243 765Q209 760 202 736Q193 708 232 708H600Q637 708 647 736Q653 759 626 765L566 775Q550 779 545 789T546 818L699 1397Q709 1431
670 1431Q659 1431 649 1428T625 1418Q596 1396 565 1386T487 1376H421Q402 1376 388 1367T369 1345Q365 1329 372 1321T399 1312ZM1102 326Q1106 339 1113 348T1130 363L1259 457Q1273 467 1281 469T1298 472Q1320 472 1313 450L1225 106Q1220 89 1226 80T1246
66L1286 56Q1314 48 1308 28Q1299 0 1261 0H941Q902 0 911 28Q918 51 951 56L1000 66Q1017 69 1029 79T1046 106L1102 326ZM1037 443Q1066 465 1084 484T1107 524Q1113 546 1107 563T1094 600T1094 646Q1104 683 1140 708T1233 733Q1281 733 1305 706T1316 632Q1307
597 1279 560T1176 470L806 200L799 228H1344Q1360 228 1368 222T1372 202Q1363 172 1325 172H768Q749 172 742 180T737 203Q740 211 749 220T777 242L1037 443ZM923 770Q904 751 891 747T864 750Q852 758 852 770T869 802Q900 841 940 893T1026 1005T1116 1123T1200
1233T1270 1323T1315 1378Q1345 1411 1373 1419T1430 1410Q1456 1393 1455 1367T1425 1309Q1412 1292 1380 1257T1302 1173T1205 1070T1102 960T1004 856T923 770ZM709 624Q729 643 742 647T770 644Q782 636 781 624T764 590Q735 553 695 501T611 390T521 272T435
161T363 70T316 13Q287 -20 257 -28T199 -19Q172 -3 174 23T206 82Q222 100 255 137T334 223T431 327T534 436T631 539T709 624Z" />
<glyph unicode="&#xbd;" horiz-adv-x="1545" d="M402 1312H456Q476 1312 481 1304T480 1272L363 818Q357 799 346 789T317 775L246 765Q212 760 205 736Q196 708 235 708H603Q640 708 650 736Q656 759 629 765L569 775Q553 779 548 789T549 818L702 1397Q712 1431
673 1431Q662 1431 652 1428T628 1418Q599 1396 568 1386T490 1376H424Q405 1376 391 1367T372 1345Q368 1329 375 1321T402 1312ZM927 770Q908 751 895 747T868 750Q856 758 856 770T873 802Q904 841 944 893T1030 1005T1120 1123T1204 1233T1274 1323T1319 1378Q1349
1411 1377 1419T1434 1410Q1460 1393 1459 1367T1429 1309Q1416 1292 1384 1257T1306 1173T1209 1070T1106 960T1008 856T927 770ZM713 624Q733 643 746 647T774 644Q786 636 785 624T768 590Q739 553 699 501T615 390T525 272T439 161T367 70T320 13Q291 -20 261
-28T203 -19Q176 -3 178 23T210 82Q226 100 259 137T338 223T435 327T538 436T635 539T713 624ZM899 133L866 157L1028 238Q1144 295 1202 355T1284 503Q1306 587 1291 626T1228 666Q1176 666 1146 639T1103 566L1089 513Q1079 473 1049 451T979 428Q941 428 925
451T919 515Q940 590 1026 650T1255 710Q1390 710 1440 651T1466 503Q1447 429 1375 368T1147 237L899 133ZM783 59Q799 117 857 151T1012 185Q1046 185 1076 176T1134 154T1190 132T1244 122Q1277 122 1300 138T1346 192Q1354 204 1365 208T1386 211Q1420 210
1405 172Q1365 67 1311 23T1188 -22Q1130 -22 1098 0T1041 79Q1026 101 1017 112T993 124Q976 124 964 109T942 59Q931 18 905 -2T839 -22Q804 -22 789 0T783 59Z" />
<glyph unicode="&#xbe;" horiz-adv-x="1572" d="M1155 326Q1159 339 1166 348T1183 363L1312 457Q1326 467 1334 469T1351 472Q1373 472 1366 450L1278 106Q1273 89 1279 80T1299 66L1339 56Q1367 48 1361 28Q1352 0 1314 0H994Q955 0 964 28Q971 51 1004 56L1053
66Q1070 69 1082 79T1099 106L1155 326ZM1090 443Q1119 465 1137 484T1160 524Q1166 546 1160 563T1147 600T1147 646Q1157 683 1193 708T1286 733Q1334 733 1358 706T1369 632Q1360 597 1332 560T1229 470L859 200L852 228H1397Q1413 228 1421 222T1425 202Q1416
172 1378 172H821Q802 172 795 180T790 203Q793 211 802 220T830 242L1090 443ZM979 770Q960 751 947 747T920 750Q908 758 908 770T925 802Q956 841 996 893T1082 1005T1172 1123T1256 1233T1326 1323T1371 1378Q1401 1411 1429 1419T1486 1410Q1512 1393 1511
1367T1481 1309Q1468 1292 1436 1257T1358 1173T1261 1070T1158 960T1060 856T979 770ZM765 624Q785 643 798 647T826 644Q838 636 837 624T820 590Q791 553 751 501T667 390T577 272T491 161T419 70T372 13Q343 -20 313 -28T255 -19Q228 -3 230 23T262 82Q278
100 311 137T390 223T487 327T590 436T687 539T765 624ZM533 1065L526 1081Q540 1084 558 1086T595 1088Q710 1088 762 1034T789 888Q764 794 670 739T445 683Q317 683 265 731T231 850Q242 890 274 915T345 940Q384 940 398 919T403 861L390 811Q381 775 398 753T463
730Q511 730 550 765T609 877Q630 954 607 992T521 1030H483Q467 1030 458 1037T454 1059Q457 1071 466 1080T492 1099L789 1317L781 1271H503Q465 1271 447 1240L424 1194Q416 1181 405 1174T376 1166Q358 1166 351 1175T351 1200L410 1362Q417 1379 434 1389T476
1400H895Q914 1400 923 1392T927 1370Q924 1359 911 1349T875 1326L533 1065Z" />
<glyph unicode="&#xbf;" horiz-adv-x="1026" d="M684 483L716 636Q718 668 707 685T671 702Q646 702 628 687T588 635L546 496Q536 469 521 451T471 424L412 406Q229 351 125 252T-16 13Q-45 -95 -14 -176T105 -301T334 -346Q464 -346 575 -301T762 -183T859 -28Q876
33 852 72T772 111Q708 111 663 76T599 -28L579 -102Q558 -179 504 -220T368 -262Q313 -262 279 -235T235 -151T248 -7Q280 116 342 198T520 336L590 367Q636 388 657 416T684 483ZM797 1163Q865 1163 900 1128T932 1039Q929 997 903 962T831 904T727 882Q658 882
625 919T597 1010Q600 1051 626 1086T696 1142T797 1163Z" />
<glyph unicode="&#xc0;" horiz-adv-x="1302" d="M267 264Q227 196 235 154T286 97L336 87Q354 80 362 69T370 46Q370 25 354 13T309 0H1Q-29 0 -44 11T-59 42Q-59 61 -46 74T1 104Q37 117 76 161T155 275L652 1085Q769 1258 888 1339T1132 1421Q1177 1421 1195
1409T1214 1375Q1214 1360 1206 1350T1179 1331Q1139 1319 1117 1288T1092 1195Q1092 1159 1091 1096T1088 951T1085 779T1082 599T1079 430T1078 292T1077 202Q1078 170 1085 149T1110 114T1163 86Q1193 71 1193 44Q1193 25 1178 13T1133 0H708Q683 0 672 11T660
40Q660 57 671 68T704 88L768 102Q798 111 813 136T829 201Q830 237 831 300T835 444T840 616T844 798T847 974T850 1127T852 1238L905 1221Q887 1211 863 1190T806 1132T732 1035L267 264ZM326 455L350 534H914L907 455H326ZM1018 1714L1103 1546Q1107 1535 1107
1524T1096 1502Q1086 1493 1072 1492T1046 1496L879 1589Q833 1610 809 1635T787 1702Q788 1735 816 1767T888 1809Q938 1819 967 1792T1018 1714Z" />
<glyph unicode="&#xc1;" horiz-adv-x="1302" d="M270 264Q230 196 238 154T289 97L339 87Q357 80 365 69T373 46Q373 25 357 13T312 0H4Q-26 0 -41 11T-56 42Q-56 61 -43 74T4 104Q40 117 79 161T158 275L655 1085Q772 1258 891 1339T1135 1421Q1180 1421 1198
1409T1217 1375Q1217 1360 1209 1350T1182 1331Q1142 1319 1120 1288T1095 1195Q1095 1159 1094 1096T1091 951T1088 779T1085 599T1082 430T1081 292T1080 202Q1081 170 1088 149T1113 114T1166 86Q1196 71 1196 44Q1196 25 1181 13T1136 0H711Q686 0 675 11T663
40Q663 57 674 68T707 88L771 102Q801 111 816 136T832 201Q833 237 834 300T838 444T843 616T847 798T850 974T853 1127T855 1238L908 1221Q890 1211 866 1190T809 1132T735 1035L270 264ZM329 455L353 534H917L910 455H329ZM1189 1714Q1239 1765 1282 1792T1370
1809Q1409 1800 1419 1768T1412 1702Q1393 1661 1355 1636T1261 1589L1045 1496Q1031 1491 1017 1492T998 1502Q993 1512 1000 1523T1018 1546L1189 1714Z" />
<glyph unicode="&#xc2;" horiz-adv-x="1302" d="M267 264Q227 196 235 154T286 97L336 87Q354 80 362 69T370 46Q370 25 354 13T309 0H1Q-29 0 -44 11T-59 42Q-59 61 -46 74T1 104Q37 117 76 161T155 275L652 1085Q769 1258 888 1339T1132 1421Q1177 1421 1195
1409T1214 1375Q1214 1360 1206 1350T1179 1331Q1139 1319 1117 1288T1092 1195Q1092 1159 1091 1096T1088 951T1085 779T1082 599T1079 430T1078 292T1077 202Q1078 170 1085 149T1110 114T1163 86Q1193 71 1193 44Q1193 25 1178 13T1133 0H708Q683 0 672 11T660
40Q660 57 671 68T704 88L768 102Q798 111 813 136T829 201Q830 237 831 300T835 444T840 616T844 798T847 974T850 1127T852 1238L905 1221Q887 1211 863 1190T806 1132T732 1035L267 264ZM326 455L350 534H914L907 455H326ZM1095 1664H997L1215 1507Q1247 1484
1275 1502Q1286 1509 1291 1523T1286 1553L1152 1759Q1137 1780 1124 1792T1084 1805Q1059 1805 1039 1793T990 1759L750 1553Q731 1537 728 1523T731 1502Q740 1493 756 1494T794 1507L1095 1664Z" />
<glyph unicode="&#xc3;" horiz-adv-x="1302" d="M267 264Q227 196 235 154T286 97L336 87Q354 80 362 69T370 46Q370 25 354 13T309 0H1Q-29 0 -44 11T-59 42Q-59 61 -46 74T1 104Q37 117 76 161T155 275L652 1085Q769 1258 888 1339T1132 1421Q1177 1421 1195
1409T1214 1375Q1214 1360 1206 1350T1179 1331Q1139 1319 1117 1288T1092 1195Q1092 1159 1091 1096T1088 951T1085 779T1082 599T1079 430T1078 292T1077 202Q1078 170 1085 149T1110 114T1163 86Q1193 71 1193 44Q1193 25 1178 13T1133 0H708Q683 0 672 11T660
40Q660 57 671 68T704 88L768 102Q798 111 813 136T829 201Q830 237 831 300T835 444T840 616T844 798T847 974T850 1127T852 1238L905 1221Q887 1211 863 1190T806 1132T732 1035L267 264ZM326 455L350 534H914L907 455H326ZM1129 1510Q1087 1510 1057 1526T1002
1564T954 1601T903 1617Q844 1617 812 1533Q796 1504 767 1504Q730 1504 744 1550Q771 1653 825 1705T949 1758Q991 1758 1021 1742T1076 1705T1124 1668T1175 1652Q1236 1652 1266 1736Q1282 1765 1312 1765Q1348 1765 1334 1719Q1307 1615 1253 1563T1129 1510Z"
/>
<glyph unicode="&#xc4;" horiz-adv-x="1302" d="M267 264Q227 196 235 154T286 97L336 87Q354 80 362 69T370 46Q370 25 354 13T309 0H1Q-29 0 -44 11T-59 42Q-59 61 -46 74T1 104Q37 117 76 161T155 275L652 1085Q769 1258 888 1339T1132 1421Q1177 1421 1195
1409T1214 1375Q1214 1360 1206 1350T1179 1331Q1139 1319 1117 1288T1092 1195Q1092 1159 1091 1096T1088 951T1085 779T1082 599T1079 430T1078 292T1077 202Q1078 170 1085 149T1110 114T1163 86Q1193 71 1193 44Q1193 25 1178 13T1133 0H708Q683 0 672 11T660
40Q660 57 671 68T704 88L768 102Q798 111 813 136T829 201Q830 237 831 300T835 444T840 616T844 798T847 974T850 1127T852 1238L905 1221Q887 1211 863 1190T806 1132T732 1035L267 264ZM326 455L350 534H914L907 455H326ZM813 1509Q755 1509 729 1542T718 1630Q733
1685 777 1718T880 1752Q938 1752 963 1719T974 1630Q959 1577 916 1543T813 1509ZM1204 1509Q1146 1509 1120 1542T1109 1630Q1124 1685 1168 1718T1270 1752Q1330 1752 1355 1719T1366 1630Q1352 1577 1308 1543T1204 1509Z" />
<glyph unicode="&#xc5;" horiz-adv-x="1302" d="M267 264Q227 196 235 154T286 97L336 87Q354 80 362 69T370 46Q370 25 354 13T309 0H1Q-29 0 -44 11T-59 42Q-59 61 -46 74T1 104Q37 117 76 161T155 275L652 1085Q769 1258 888 1339T1132 1421Q1177 1421 1195
1409T1214 1375Q1214 1360 1206 1350T1179 1331Q1139 1319 1117 1288T1092 1195Q1092 1159 1091 1096T1088 951T1085 779T1082 599T1079 430T1078 292T1077 202Q1078 170 1085 149T1110 114T1163 86Q1193 71 1193 44Q1193 25 1178 13T1133 0H708Q683 0 672 11T660
40Q660 57 671 68T704 88L768 102Q798 111 813 136T829 201Q830 237 831 300T835 444T840 616T844 798T847 974T850 1127T852 1238L905 1221Q887 1211 863 1190T806 1132T732 1035L267 264ZM326 455L350 534H914L907 455H326ZM1006 1490Q920 1490 874 1537T848
1664Q869 1742 941 1789T1099 1837Q1186 1837 1232 1789T1257 1664Q1236 1586 1165 1538T1006 1490ZM1082 1773Q1043 1773 1010 1744T962 1664Q949 1614 968 1584T1025 1553Q1064 1553 1097 1583T1143 1664Q1156 1714 1138 1743T1082 1773Z" />
<glyph unicode="&#xc6;" horiz-adv-x="1950" d="M1297 1400L1240 1310L1146 1311L270 226Q226 172 226 140T264 95L318 82Q336 77 343 67T346 41Q339 23 322 12T277 0H-57Q-85 0 -95 11T-99 41Q-95 56 -83 65T-48 83L-12 95Q19 107 51 135T122 213L951 1228Q982
1264 978 1283T940 1313Q917 1321 909 1332T905 1359Q911 1379 928 1389T973 1400H1297ZM513 622H1049L1026 532H473L513 622ZM1160 749H1510Q1557 749 1585 776T1624 882Q1630 898 1640 905T1666 913Q1688 913 1699 902T1713 872L1758 576Q1764 546 1751 532T1717
517Q1700 516 1688 525T1667 550Q1643 621 1610 646T1514 672H1136L1160 749ZM1445 0H739Q710 0 699 12T688 41Q688 58 700 70T733 88L795 101Q822 107 838 122T865 170Q873 198 891 264T936 423T992 624T1052 846T1111 1064T1163 1257T1200 1400H1775Q1827 1400
1860 1417T1924 1435Q1948 1435 1962 1423T1981 1382L2017 1105Q2023 1077 2012 1062T1980 1045Q1955 1042 1938 1054T1907 1101Q1880 1190 1850 1238T1783 1304T1697 1323H1429Q1415 1273 1394 1194T1347 1017T1293 816T1239 609T1189 419T1149 264T1124 167Q1118
138 1124 118T1150 88T1207 78H1422Q1492 78 1546 102T1647 183T1736 336Q1763 380 1793 380Q1813 380 1824 367T1835 328Q1833 253 1813 189T1757 76T1676 0T1578 -28Q1544 -28 1515 -14T1445 0Z" />
<glyph unicode="&#xc7;" horiz-adv-x="1300" d="M1192 418Q1208 411 1212 390T1194 330Q1140 218 1054 139T857 17T614 -25Q447 -25 326 53T153 283T136 652Q163 813 235 953T414 1199T654 1366T936 1426Q997 1426 1040 1414T1112 1384T1160 1355T1193 1342Q1207
1342 1221 1354T1250 1383T1279 1412T1311 1425Q1332 1425 1345 1412T1359 1376L1370 1030Q1370 1007 1355 995T1319 982Q1281 982 1264 1025L1241 1103Q1206 1224 1139 1277T964 1331Q865 1331 778 1281T619 1142T499 935T427 678Q393 479 422 354T526 169T707
110Q785 110 856 137T992 225T1110 379Q1133 405 1152 415T1192 418ZM626 12H696L578 -141L537 -129Q555 -126 574 -125T621 -123Q713 -123 754 -164T777 -275Q758 -350 689 -395T518 -440Q433 -440 388 -408T349 -330Q353 -314 365 -305T391 -294Q404 -293 412
-298T425 -313Q432 -344 457 -358T515 -372Q598 -372 622 -274Q632 -232 616 -207T553 -182H521Q498 -182 497 -169T510 -138L626 12Z" />
<glyph unicode="&#xc8;" horiz-adv-x="1272" d="M481 749H832Q879 749 908 776T945 882Q952 898 962 905T987 913Q1009 913 1020 902T1034 872L1080 576Q1085 546 1073 532T1039 517Q1020 516 1008 525T988 550Q963 621 930 646T835 672H458L481 749ZM766 0H63Q34
0 23 11T12 41Q12 57 24 69T55 88L120 101Q147 107 162 123T189 173Q196 202 212 263T251 408T299 586T351 777T400 960T441 1116T467 1224Q476 1259 470 1277T443 1301L384 1314Q369 1319 358 1328T347 1354Q347 1375 363 1387T408 1400H1096Q1149 1400 1182 1417T1245
1435Q1292 1435 1302 1382L1338 1105Q1343 1077 1333 1062T1301 1045Q1276 1042 1259 1054T1228 1101Q1200 1190 1171 1238T1105 1304T1019 1323H750Q736 1273 715 1194T667 1017T613 816T557 610T508 419T469 264T446 167Q440 138 445 118T471 88T528 78H743Q814
78 868 102T969 183T1058 336Q1082 380 1114 380Q1157 380 1155 328Q1153 253 1133 189T1078 76T998 0T899 -28Q866 -28 837 -14T766 0ZM868 1714L953 1546Q957 1535 957 1524T946 1502Q936 1493 922 1492T896 1496L729 1589Q683 1610 659 1635T637 1702Q638 1735
666 1767T738 1809Q788 1819 817 1792T868 1714Z" />
<glyph unicode="&#xc9;" horiz-adv-x="1272" d="M481 749H832Q879 749 908 776T945 882Q952 898 962 905T987 913Q1009 913 1020 902T1034 872L1080 576Q1085 546 1073 532T1039 517Q1020 516 1008 525T988 550Q963 621 930 646T835 672H458L481 749ZM766 0H63Q34
0 23 11T12 41Q12 57 24 69T55 88L120 101Q147 107 162 123T189 173Q196 202 212 263T251 408T299 586T351 777T400 960T441 1116T467 1224Q476 1259 470 1277T443 1301L384 1314Q369 1319 358 1328T347 1354Q347 1375 363 1387T408 1400H1096Q1149 1400 1182 1417T1245
1435Q1292 1435 1302 1382L1338 1105Q1343 1077 1333 1062T1301 1045Q1276 1042 1259 1054T1228 1101Q1200 1190 1171 1238T1105 1304T1019 1323H750Q736 1273 715 1194T667 1017T613 816T557 610T508 419T469 264T446 167Q440 138 445 118T471 88T528 78H743Q814
78 868 102T969 183T1058 336Q1082 380 1114 380Q1157 380 1155 328Q1153 253 1133 189T1078 76T998 0T899 -28Q866 -28 837 -14T766 0ZM1035 1714Q1085 1765 1128 1792T1216 1809Q1255 1800 1265 1768T1258 1702Q1239 1661 1201 1636T1107 1589L891 1496Q877 1491
863 1492T844 1502Q839 1512 846 1523T864 1546L1035 1714Z" />
<glyph unicode="&#xca;" horiz-adv-x="1272" d="M481 749H832Q879 749 908 776T945 882Q952 898 962 905T987 913Q1009 913 1020 902T1034 872L1080 576Q1085 546 1073 532T1039 517Q1020 516 1008 525T988 550Q963 621 930 646T835 672H458L481 749ZM766 0H63Q34
0 23 11T12 41Q12 57 24 69T55 88L120 101Q147 107 162 123T189 173Q196 202 212 263T251 408T299 586T351 777T400 960T441 1116T467 1224Q476 1259 470 1277T443 1301L384 1314Q369 1319 358 1328T347 1354Q347 1375 363 1387T408 1400H1096Q1149 1400 1182 1417T1245
1435Q1292 1435 1302 1382L1338 1105Q1343 1077 1333 1062T1301 1045Q1276 1042 1259 1054T1228 1101Q1200 1190 1171 1238T1105 1304T1019 1323H750Q736 1273 715 1194T667 1017T613 816T557 610T508 419T469 264T446 167Q440 138 445 118T471 88T528 78H743Q814
78 868 102T969 183T1058 336Q1082 380 1114 380Q1157 380 1155 328Q1153 253 1133 189T1078 76T998 0T899 -28Q866 -28 837 -14T766 0ZM944 1664H846L1064 1507Q1096 1484 1124 1502Q1135 1509 1140 1523T1135 1553L1001 1759Q986 1780 973 1792T933 1805Q908
1805 888 1793T839 1759L599 1553Q580 1537 577 1523T580 1502Q589 1493 605 1494T643 1507L944 1664Z" />
<glyph unicode="&#xcb;" horiz-adv-x="1272" d="M481 749H832Q879 749 908 776T945 882Q952 898 962 905T987 913Q1009 913 1020 902T1034 872L1080 576Q1085 546 1073 532T1039 517Q1020 516 1008 525T988 550Q963 621 930 646T835 672H458L481 749ZM766 0H63Q34
0 23 11T12 41Q12 57 24 69T55 88L120 101Q147 107 162 123T189 173Q196 202 212 263T251 408T299 586T351 777T400 960T441 1116T467 1224Q476 1259 470 1277T443 1301L384 1314Q369 1319 358 1328T347 1354Q347 1375 363 1387T408 1400H1096Q1149 1400 1182 1417T1245
1435Q1292 1435 1302 1382L1338 1105Q1343 1077 1333 1062T1301 1045Q1276 1042 1259 1054T1228 1101Q1200 1190 1171 1238T1105 1304T1019 1323H750Q736 1273 715 1194T667 1017T613 816T557 610T508 419T469 264T446 167Q440 138 445 118T471 88T528 78H743Q814
78 868 102T969 183T1058 336Q1082 380 1114 380Q1157 380 1155 328Q1153 253 1133 189T1078 76T998 0T899 -28Q866 -28 837 -14T766 0ZM662 1509Q604 1509 578 1542T567 1630Q582 1685 626 1718T729 1752Q787 1752 812 1719T823 1630Q808 1577 765 1543T662 1509ZM1053
1509Q995 1509 969 1542T958 1630Q973 1685 1017 1718T1119 1752Q1179 1752 1204 1719T1215 1630Q1201 1577 1157 1543T1053 1509Z" />
<glyph unicode="&#xcc;" horiz-adv-x="775" d="M450 166Q443 136 451 120T483 98L537 85Q558 79 567 70T576 45Q576 24 559 12T513 0H68Q37 0 26 11T15 40Q14 58 27 70T60 87L119 99Q147 105 163 121T191 171Q201 209 219 275T260 425T308 604T359 792T406 973T444
1127T469 1235Q475 1263 469 1279T436 1301L380 1314Q359 1321 350 1330T340 1356Q340 1377 358 1388T412 1400H853Q883 1400 894 1390T905 1362Q905 1344 893 1332T856 1313L794 1298Q767 1292 753 1279T728 1234Q716 1192 697 1120T653 958T602 769T550 574T504
395T469 252T450 166ZM658 1714L743 1546Q747 1535 747 1524T736 1502Q726 1493 712 1492T686 1496L519 1589Q473 1610 449 1635T427 1702Q428 1735 456 1767T528 1809Q578 1819 607 1792T658 1714Z" />
<glyph unicode="&#xcd;" horiz-adv-x="775" d="M450 166Q443 136 451 120T483 98L537 85Q558 79 567 70T576 45Q576 24 559 12T513 0H68Q37 0 26 11T15 40Q14 58 27 70T60 87L119 99Q147 105 163 121T191 171Q201 209 219 275T260 425T308 604T359 792T406 973T444
1127T469 1235Q475 1263 469 1279T436 1301L380 1314Q359 1321 350 1330T340 1356Q340 1377 358 1388T412 1400H853Q883 1400 894 1390T905 1362Q905 1344 893 1332T856 1313L794 1298Q767 1292 753 1279T728 1234Q716 1192 697 1120T653 958T602 769T550 574T504
395T469 252T450 166ZM825 1714Q875 1765 918 1792T1006 1809Q1045 1800 1055 1768T1048 1702Q1029 1661 991 1636T897 1589L681 1496Q667 1491 653 1492T634 1502Q629 1512 636 1523T654 1546L825 1714Z" />
<glyph unicode="&#xce;" horiz-adv-x="775" d="M450 166Q443 136 451 120T483 98L537 85Q558 79 567 70T576 45Q576 24 559 12T513 0H68Q37 0 26 11T15 40Q14 58 27 70T60 87L119 99Q147 105 163 121T191 171Q201 209 219 275T260 425T308 604T359 792T406 973T444
1127T469 1235Q475 1263 469 1279T436 1301L380 1314Q359 1321 350 1330T340 1356Q340 1377 358 1388T412 1400H853Q883 1400 894 1390T905 1362Q905 1344 893 1332T856 1313L794 1298Q767 1292 753 1279T728 1234Q716 1192 697 1120T653 958T602 769T550 574T504
395T469 252T450 166ZM735 1664H637L855 1507Q887 1484 915 1502Q926 1509 931 1523T926 1553L792 1759Q777 1780 764 1792T724 1805Q699 1805 679 1793T630 1759L390 1553Q371 1537 368 1523T371 1502Q380 1493 396 1494T434 1507L735 1664Z" />
<glyph unicode="&#xcf;" horiz-adv-x="775" d="M450 166Q443 136 451 120T483 98L537 85Q558 79 567 70T576 45Q576 24 559 12T513 0H68Q37 0 26 11T15 40Q14 58 27 70T60 87L119 99Q147 105 163 121T191 171Q201 209 219 275T260 425T308 604T359 792T406 973T444
1127T469 1235Q475 1263 469 1279T436 1301L380 1314Q359 1321 350 1330T340 1356Q340 1377 358 1388T412 1400H853Q883 1400 894 1390T905 1362Q905 1344 893 1332T856 1313L794 1298Q767 1292 753 1279T728 1234Q716 1192 697 1120T653 958T602 769T550 574T504
395T469 252T450 166ZM453 1509Q395 1509 369 1542T358 1630Q373 1685 417 1718T520 1752Q578 1752 603 1719T614 1630Q599 1577 556 1543T453 1509ZM844 1509Q786 1509 760 1542T749 1630Q764 1685 808 1718T910 1752Q970 1752 995 1719T1006 1630Q992 1577 948
1543T844 1509Z" />
<glyph unicode="&#xd0;" horiz-adv-x="1513" d="M109 705Q114 720 127 729T157 739H818Q837 739 843 730T845 705Q840 689 827 680T796 671H135Q118 671 111 680T109 705ZM18 40Q18 57 30 69T67 87L123 99Q141 102 154 112T180 144T205 203Q215 247 233 315T274
467T322 642T371 823T416 994T452 1136T474 1233Q481 1264 473 1279T439 1301L387 1314Q364 1321 354 1330T344 1355Q344 1376 360 1388T408 1400H916Q1060 1400 1177 1351T1373 1211T1483 991T1487 702Q1457 535 1379 404T1185 184T924 47T612 0H68Q39 0 29 11T18
40ZM627 91Q733 91 827 130T998 247T1130 440T1211 707Q1239 858 1225 971T1165 1160T1055 1274T913 1312H831Q795 1312 771 1291T731 1220Q723 1184 706 1121T667 977T619 806T570 626T524 453T487 306T465 200Q455 145 471 118T532 91H627Z" />
<glyph unicode="&#xd1;" horiz-adv-x="1425" d="M316 259L550 1131L464 1120Q505 1022 550 919T640 712T727 515T802 340T857 204Q875 168 882 139T888 75Q887 39 905 20T956 0H1156Q1192 0 1206 24T1204 84L1157 215Q1145 246 1145 268T1153 320L1306 967Q1321
1024 1343 1064T1398 1133T1478 1185Q1539 1218 1568 1254T1598 1338Q1598 1385 1568 1411T1491 1437Q1414 1437 1352 1374T1255 1179L1023 232L1115 269Q1086 339 1049 420T970 590T886 772T800 958T720 1143T651 1317Q629 1359 606 1379T537 1400H381Q352 1400
338 1386T325 1351T344 1310L405 1188Q425 1162 428 1126T421 1050L212 267Q195 196 161 154T83 100L41 89Q-3 74 -3 41Q-3 22 10 11T51 0H401Q424 0 438 10T453 42Q453 57 443 68T417 85L381 94Q327 111 314 153T316 259ZM1103 1510Q1061 1510 1031 1526T976 1564T928
1601T877 1617Q818 1617 786 1533Q770 1504 741 1504Q704 1504 718 1550Q745 1653 799 1705T923 1758Q965 1758 995 1742T1050 1705T1098 1668T1149 1652Q1210 1652 1240 1736Q1256 1765 1286 1765Q1322 1765 1308 1719Q1281 1615 1227 1563T1103 1510Z" />
<glyph unicode="&#xd2;" horiz-adv-x="1539" d="M1019 1426Q1155 1422 1259 1366T1429 1211T1512 977T1492 682Q1451 507 1366 373T1164 148T909 14T622 -25Q485 -21 380 35T212 194T136 436T168 748Q208 899 289 1024T485 1241T735 1381T1019 1426ZM656 61Q732
58 809 90T960 196T1095 392T1203 692Q1227 787 1238 864T1248 1004Q1247 1112 1213 1185T1122 1296T993 1339Q915 1344 836 1309T684 1198T553 1008T456 736Q429 630 417 546T405 397Q403 229 473 148T656 61ZM1029 1714L1114 1546Q1118 1535 1118 1524T1107 1502Q1097
1493 1083 1492T1057 1496L890 1589Q844 1610 820 1635T798 1702Q799 1735 827 1767T899 1809Q949 1819 978 1792T1029 1714Z" />
<glyph unicode="&#xd3;" horiz-adv-x="1539" d="M1019 1426Q1155 1422 1259 1366T1429 1211T1512 977T1492 682Q1451 507 1366 373T1164 148T909 14T622 -25Q485 -21 380 35T212 194T136 436T168 748Q208 899 289 1024T485 1241T735 1381T1019 1426ZM656 61Q732
58 809 90T960 196T1095 392T1203 692Q1227 787 1238 864T1248 1004Q1247 1112 1213 1185T1122 1296T993 1339Q915 1344 836 1309T684 1198T553 1008T456 736Q429 630 417 546T405 397Q403 229 473 148T656 61ZM1197 1717Q1247 1768 1290 1795T1378 1812Q1417 1803
1427 1771T1420 1705Q1401 1664 1363 1639T1269 1592L1053 1499Q1039 1494 1025 1495T1006 1505Q1001 1515 1008 1526T1026 1549L1197 1717Z" />
<glyph unicode="&#xd4;" horiz-adv-x="1539" d="M1019 1426Q1155 1422 1259 1366T1429 1211T1512 977T1492 682Q1451 507 1366 373T1164 148T909 14T622 -25Q485 -21 380 35T212 194T136 436T168 748Q208 899 289 1024T485 1241T735 1381T1019 1426ZM656 61Q732
58 809 90T960 196T1095 392T1203 692Q1227 787 1238 864T1248 1004Q1247 1112 1213 1185T1122 1296T993 1339Q915 1344 836 1309T684 1198T553 1008T456 736Q429 630 417 546T405 397Q403 229 473 148T656 61ZM1106 1664H1008L1226 1507Q1258 1484 1286 1502Q1297
1509 1302 1523T1297 1553L1163 1759Q1148 1780 1135 1792T1095 1805Q1070 1805 1050 1793T1001 1759L761 1553Q742 1537 739 1523T742 1502Q751 1493 767 1494T805 1507L1106 1664Z" />
<glyph unicode="&#xd5;" horiz-adv-x="1539" d="M1019 1426Q1155 1422 1259 1366T1429 1211T1512 977T1492 682Q1451 507 1366 373T1164 148T909 14T622 -25Q485 -21 380 35T212 194T136 436T168 748Q208 899 289 1024T485 1241T735 1381T1019 1426ZM656 61Q732
58 809 90T960 196T1095 392T1203 692Q1227 787 1238 864T1248 1004Q1247 1112 1213 1185T1122 1296T993 1339Q915 1344 836 1309T684 1198T553 1008T456 736Q429 630 417 546T405 397Q403 229 473 148T656 61ZM1140 1513Q1098 1513 1068 1529T1013 1567T965 1604T914
1620Q855 1620 823 1536Q807 1507 778 1507Q741 1507 755 1553Q782 1656 836 1708T960 1761Q1002 1761 1032 1745T1087 1708T1135 1671T1186 1655Q1247 1655 1277 1739Q1293 1768 1323 1768Q1359 1768 1345 1722Q1318 1618 1264 1566T1140 1513Z" />
<glyph unicode="&#xd6;" horiz-adv-x="1539" d="M1019 1426Q1155 1422 1259 1366T1429 1211T1512 977T1492 682Q1451 507 1366 373T1164 148T909 14T622 -25Q485 -21 380 35T212 194T136 436T168 748Q208 899 289 1024T485 1241T735 1381T1019 1426ZM656 61Q732
58 809 90T960 196T1095 392T1203 692Q1227 787 1238 864T1248 1004Q1247 1112 1213 1185T1122 1296T993 1339Q915 1344 836 1309T684 1198T553 1008T456 736Q429 630 417 546T405 397Q403 229 473 148T656 61ZM824 1509Q766 1509 740 1542T729 1630Q744 1685 788
1718T891 1752Q949 1752 974 1719T985 1630Q970 1577 927 1543T824 1509ZM1215 1509Q1157 1509 1131 1542T1120 1630Q1135 1685 1179 1718T1281 1752Q1341 1752 1366 1719T1377 1630Q1363 1577 1319 1543T1215 1509Z" />
<glyph unicode="&#xd7;" horiz-adv-x="1025" d="M144 311Q129 328 135 347T170 387L932 1048Q956 1065 977 1066T1014 1051Q1030 1034 1026 1016T994 978L233 316Q207 298 184 296T144 311ZM817 312Q792 297 769 300T733 319L320 978Q306 995 312 1014T342 1048Q389
1079 420 1042L835 382Q848 365 844 346T817 312Z" />
<glyph unicode="&#xd8;" horiz-adv-x="1539" d="M125 -91Q114 -85 114 -74T125 -50L1441 1482Q1452 1494 1466 1497T1491 1494Q1504 1487 1504 1477T1494 1454L176 -79Q165 -91 152 -94T125 -91ZM1022 1426Q1159 1422 1263 1366T1432 1211T1515 977T1495 682Q1454
507 1369 373T1167 148T912 14T626 -25Q488 -21 384 35T216 194T140 436T171 748Q211 899 293 1024T488 1241T738 1381T1022 1426ZM659 61Q736 58 813 90T963 196T1098 392T1206 692Q1231 787 1241 864T1251 1004Q1250 1112 1216 1185T1125 1296T997 1339Q918 1344
839 1309T687 1198T556 1008T459 736Q433 630 421 546T408 397Q407 229 476 148T659 61Z" />
<glyph unicode="&#xd9;" horiz-adv-x="1420" d="M1069 426L1275 1136Q1293 1205 1283 1244T1227 1298L1191 1308Q1163 1319 1152 1329T1140 1357Q1140 1376 1156 1388T1202 1400H1555Q1580 1400 1592 1390T1605 1362Q1605 1341 1593 1329T1550 1308L1505 1297Q1459
1281 1430 1244T1380 1130L1174 418Q1130 265 1053 167T864 22T602 -26Q467 -26 379 19T248 140T205 312Q206 351 215 405T237 518T264 626L427 1213Q437 1245 430 1270T400 1302L349 1314Q326 1325 317 1334T308 1361Q309 1378 323 1389T364 1400H819Q870 1400
870 1364Q870 1348 858 1334T817 1311L758 1298Q730 1291 715 1272T688 1211L525 626Q497 517 484 444T470 317Q469 200 532 141T706 82Q831 82 923 162T1069 426ZM1010 1714L1095 1546Q1099 1535 1099 1524T1088 1502Q1078 1493 1064 1492T1038 1496L871 1589Q825
1610 801 1635T779 1702Q780 1735 808 1767T880 1809Q930 1819 959 1792T1010 1714Z" />
<glyph unicode="&#xda;" horiz-adv-x="1420" d="M1069 426L1275 1136Q1293 1205 1283 1244T1227 1298L1191 1308Q1163 1319 1152 1329T1140 1357Q1140 1376 1156 1388T1202 1400H1555Q1580 1400 1592 1390T1605 1362Q1605 1341 1593 1329T1550 1308L1505 1297Q1459
1281 1430 1244T1380 1130L1174 418Q1130 265 1053 167T864 22T602 -26Q467 -26 379 19T248 140T205 312Q206 351 215 405T237 518T264 626L427 1213Q437 1245 430 1270T400 1302L349 1314Q326 1325 317 1334T308 1361Q309 1378 323 1389T364 1400H819Q870 1400
870 1364Q870 1348 858 1334T817 1311L758 1298Q730 1291 715 1272T688 1211L525 626Q497 517 484 444T470 317Q469 200 532 141T706 82Q831 82 923 162T1069 426ZM1178 1714Q1228 1765 1271 1792T1359 1809Q1398 1800 1408 1768T1401 1702Q1382 1661 1344 1636T1250
1589L1034 1496Q1020 1491 1006 1492T987 1502Q982 1512 989 1523T1007 1546L1178 1714Z" />
<glyph unicode="&#xdb;" horiz-adv-x="1420" d="M1069 426L1275 1136Q1293 1205 1283 1244T1227 1298L1191 1308Q1163 1319 1152 1329T1140 1357Q1140 1376 1156 1388T1202 1400H1555Q1580 1400 1592 1390T1605 1362Q1605 1341 1593 1329T1550 1308L1505 1297Q1459
1281 1430 1244T1380 1130L1174 418Q1130 265 1053 167T864 22T602 -26Q467 -26 379 19T248 140T205 312Q206 351 215 405T237 518T264 626L427 1213Q437 1245 430 1270T400 1302L349 1314Q326 1325 317 1334T308 1361Q309 1378 323 1389T364 1400H819Q870 1400
870 1364Q870 1348 858 1334T817 1311L758 1298Q730 1291 715 1272T688 1211L525 626Q497 517 484 444T470 317Q469 200 532 141T706 82Q831 82 923 162T1069 426ZM1087 1664H989L1207 1507Q1239 1484 1267 1502Q1278 1509 1283 1523T1278 1553L1144 1759Q1129
1780 1116 1792T1076 1805Q1051 1805 1031 1793T982 1759L742 1553Q723 1537 720 1523T723 1502Q732 1493 748 1494T786 1507L1087 1664Z" />
<glyph unicode="&#xdc;" horiz-adv-x="1420" d="M1069 426L1275 1136Q1293 1205 1283 1244T1227 1298L1191 1308Q1163 1319 1152 1329T1140 1357Q1140 1376 1156 1388T1202 1400H1555Q1580 1400 1592 1390T1605 1362Q1605 1341 1593 1329T1550 1308L1505 1297Q1459
1281 1430 1244T1380 1130L1174 418Q1130 265 1053 167T864 22T602 -26Q467 -26 379 19T248 140T205 312Q206 351 215 405T237 518T264 626L427 1213Q437 1245 430 1270T400 1302L349 1314Q326 1325 317 1334T308 1361Q309 1378 323 1389T364 1400H819Q870 1400
870 1364Q870 1348 858 1334T817 1311L758 1298Q730 1291 715 1272T688 1211L525 626Q497 517 484 444T470 317Q469 200 532 141T706 82Q831 82 923 162T1069 426ZM805 1509Q747 1509 721 1542T710 1630Q725 1685 769 1718T872 1752Q930 1752 955 1719T966 1630Q951
1577 908 1543T805 1509ZM1196 1509Q1138 1509 1112 1542T1101 1630Q1116 1685 1160 1718T1262 1752Q1322 1752 1347 1719T1358 1630Q1344 1577 1300 1543T1196 1509Z" />
<glyph unicode="&#xdd;" horiz-adv-x="1191" d="M647 506L1012 1182Q1068 1278 1116 1333T1211 1411T1309 1434Q1368 1434 1397 1406T1426 1337Q1426 1284 1386 1248T1265 1192Q1220 1181 1180 1162T1104 1107T1030 1011L753 510Q735 479 726 457T711 414L650
167Q642 138 649 121T681 98L735 86Q758 78 766 68T774 46Q774 24 757 12T708 0H263Q235 0 224 11T212 40Q212 73 259 88L315 99Q347 105 364 123T391 176L458 426Q467 454 465 483T457 542Q453 565 445 618T425 743T403 892T381 1039T361 1162T347 1236Q339 1271
317 1288T254 1312Q232 1318 220 1328T208 1354Q207 1375 224 1387T269 1400H461Q516 1400 544 1378T582 1309Q587 1283 597 1223T619 1082T645 914T671 744T695 599T713 505L647 506ZM1024 1714Q1074 1765 1117 1792T1205 1809Q1244 1800 1254 1768T1247 1702Q1228
1661 1190 1636T1096 1589L880 1496Q866 1491 852 1492T833 1502Q828 1512 835 1523T853 1546L1024 1714Z" />
<glyph unicode="&#xde;" horiz-adv-x="1352" d="M444 165Q437 135 445 119T479 98L529 85Q550 79 559 70T568 44Q568 24 551 12T505 0H61Q30 0 19 11T8 40Q7 58 20 70T54 88L110 99Q140 105 156 121T184 168Q195 211 217 293T268 479T327 697T384 915T433 1106T463
1237Q470 1264 463 1279T430 1301L377 1314Q356 1321 347 1330T337 1356Q337 1376 355 1388T408 1400H849Q880 1400 891 1390T902 1362Q901 1343 888 1332T851 1313L793 1298Q764 1292 749 1279T726 1238Q712 1189 687 1099T632 898T571 671T513 450T468 270T444
165ZM1344 669Q1312 549 1222 464T1001 334T709 289Q642 290 584 299T478 328T389 376L426 445Q460 419 500 403T586 378T675 369Q763 369 838 401T970 502T1053 673Q1083 788 1062 874T969 1008T772 1056H577L603 1136H866Q1051 1136 1171 1077T1336 913T1344
669Z" />
<glyph unicode="&#xdf;" horiz-adv-x="1281" d="M2 -203L256 716Q267 747 259 766T227 795L171 819Q148 832 134 843T125 873Q130 891 149 900T195 910H352L300 862L335 994Q374 1138 457 1245T671 1411T980 1470Q1113 1470 1193 1424T1301 1297T1301 1115Q1274
1017 1202 940T1022 817T787 764L795 787Q953 787 1054 721T1192 544T1194 301Q1167 199 1101 126T935 14T709 -26Q600 -26 536 4T451 95T453 251Q465 301 480 318T512 336Q534 336 543 325T556 296L564 222Q567 148 604 108T707 68Q763 68 810 94T893 175T951
319Q981 431 957 517T862 653T682 704Q653 705 639 716T630 749Q635 766 648 777T695 803Q861 842 944 924T1060 1137Q1078 1210 1067 1267T1018 1357T921 1391Q838 1391 767 1346T642 1214T553 998L269 -61Q261 -90 258 -113T254 -157Q254 -184 267 -200T295 -232T309
-271Q309 -303 275 -331T189 -377T77 -394Q9 -394 -9 -347T2 -203Z" />
<glyph unicode="&#xe0;" horiz-adv-x="1125" d="M877 276Q856 196 863 166T893 135Q910 135 926 145T969 179Q987 194 998 198T1020 197Q1033 191 1033 174T1020 131Q982 61 911 20T763 -22Q700 -22 670 9T639 100Q639 123 642 151T655 218T680 313T720 448L740
407Q690 271 615 175T451 29T266 -22Q155 -22 95 51T50 281Q60 381 101 477T209 657T365 804T560 904T785 941Q879 941 941 928T1034 891T1061 840Q1058 816 1045 804T1017 779T995 742L877 276ZM296 289Q286 190 310 150T380 110Q422 110 469 144T565 238T655
377T730 550T777 741Q786 797 772 822T722 848Q664 848 607 816T497 729T402 602T332 450T296 289ZM718 1287L769 1095Q773 1082 772 1070T757 1049Q745 1040 731 1040T706 1047L561 1175Q522 1204 502 1234T487 1304Q492 1339 523 1371T602 1408Q655 1415 679
1381T718 1287Z" />
<glyph unicode="&#xe1;" horiz-adv-x="1125" d="M877 276Q856 196 863 166T893 135Q910 135 926 145T969 179Q987 194 998 198T1020 197Q1033 191 1033 174T1020 131Q982 61 911 20T763 -22Q700 -22 670 9T639 100Q639 123 642 151T655 218T680 313T720 448L740
407Q690 271 615 175T451 29T266 -22Q155 -22 95 51T50 281Q60 381 101 477T209 657T365 804T560 904T785 941Q879 941 941 928T1034 891T1061 840Q1058 816 1045 804T1017 779T995 742L877 276ZM296 289Q286 190 310 150T380 110Q422 110 469 144T565 238T655
377T730 550T777 741Q786 797 772 822T722 848Q664 848 607 816T497 729T402 602T332 450T296 289ZM861 1287Q907 1347 950 1381T1042 1408Q1085 1403 1099 1371T1099 1304Q1083 1264 1048 1234T957 1175L747 1047Q732 1041 718 1041T698 1049Q689 1058 695 1070T712
1095L861 1287Z" />
<glyph unicode="&#xe2;" horiz-adv-x="1125" d="M877 276Q856 196 863 166T893 135Q910 135 926 145T969 179Q987 194 998 198T1020 197Q1033 191 1033 174T1020 131Q982 61 911 20T763 -22Q700 -22 670 9T639 100Q639 123 642 151T655 218T680 313T720 448L740
407Q690 271 615 175T451 29T266 -22Q155 -22 95 51T50 281Q60 381 101 477T209 657T365 804T560 904T785 941Q879 941 941 928T1034 891T1061 840Q1058 816 1045 804T1017 779T995 742L877 276ZM296 289Q286 190 310 150T380 110Q422 110 469 144T565 238T655
377T730 550T777 741Q786 797 772 822T722 848Q664 848 607 816T497 729T402 602T332 450T296 289ZM802 1247H701L915 1050Q929 1038 945 1038T975 1045Q987 1053 991 1066T987 1097L857 1337Q844 1360 829 1372T788 1385Q762 1385 740 1373T692 1337L441 1097Q423
1080 419 1067T422 1045Q431 1037 447 1037T485 1050L802 1247Z" />
<glyph unicode="&#xe3;" horiz-adv-x="1125" d="M877 276Q856 196 863 166T893 135Q910 135 926 145T969 179Q987 194 998 198T1020 197Q1033 191 1033 174T1020 131Q982 61 911 20T763 -22Q700 -22 670 9T639 100Q639 123 642 151T655 218T680 313T720 448L740
407Q690 271 615 175T451 29T266 -22Q155 -22 95 51T50 281Q60 381 101 477T209 657T365 804T560 904T785 941Q879 941 941 928T1034 891T1061 840Q1058 816 1045 804T1017 779T995 742L877 276ZM296 289Q286 190 310 150T380 110Q422 110 469 144T565 238T655
377T730 550T777 741Q786 797 772 822T722 848Q664 848 607 816T497 729T402 602T332 450T296 289ZM823 1052Q781 1052 750 1070T695 1113T648 1155T596 1174Q565 1174 542 1151T501 1079Q486 1049 456 1049Q419 1049 433 1096Q462 1207 517 1263T644 1319Q687
1319 717 1301T772 1258T819 1216T871 1197Q904 1197 926 1221T966 1293Q980 1322 1011 1322Q1047 1322 1033 1275Q1004 1165 949 1109T823 1052Z" />
<glyph unicode="&#xe4;" horiz-adv-x="1125" d="M877 276Q856 196 863 166T893 135Q910 135 926 145T969 179Q987 194 998 198T1020 197Q1033 191 1033 174T1020 131Q982 61 911 20T763 -22Q700 -22 670 9T639 100Q639 123 642 151T655 218T680 313T720 448L740
407Q690 271 615 175T451 29T266 -22Q155 -22 95 51T50 281Q60 381 101 477T209 657T365 804T560 904T785 941Q879 941 941 928T1034 891T1061 840Q1058 816 1045 804T1017 779T995 742L877 276ZM296 289Q286 190 310 150T380 110Q422 110 469 144T565 238T655
377T730 550T777 741Q786 797 772 822T722 848Q664 848 607 816T497 729T402 602T332 450T296 289ZM505 1056Q446 1056 421 1090T409 1180Q424 1237 468 1271T571 1305Q630 1305 656 1271T666 1180Q652 1125 608 1091T505 1056ZM897 1056Q839 1056 813 1090T802
1180Q817 1236 861 1270T964 1305Q1024 1305 1049 1271T1060 1180Q1045 1125 1001 1091T897 1056Z" />
<glyph unicode="&#xe5;" horiz-adv-x="1125" d="M877 276Q856 196 863 166T893 135Q910 135 926 145T969 179Q987 194 998 198T1020 197Q1033 191 1033 174T1020 131Q982 61 911 20T763 -22Q700 -22 670 9T639 100Q639 123 642 151T655 218T680 313T720 448L740
407Q690 271 615 175T451 29T266 -22Q155 -22 95 51T50 281Q60 381 101 477T209 657T365 804T560 904T785 941Q879 941 941 928T1034 891T1061 840Q1058 816 1045 804T1017 779T995 742L877 276ZM296 289Q286 190 310 150T380 110Q422 110 469 144T565 238T655
377T730 550T777 741Q786 797 772 822T722 848Q664 848 607 816T497 729T402 602T332 450T296 289ZM706 1037Q618 1037 570 1087T544 1221Q566 1305 641 1355T804 1405Q893 1405 940 1354T966 1221Q945 1139 871 1088T706 1037ZM786 1339Q744 1339 708 1307T656
1221Q644 1168 664 1136T726 1104Q769 1104 805 1136T854 1221Q867 1275 848 1307T786 1339Z" />
<glyph unicode="&#xe6;" horiz-adv-x="1558" d="M629 332Q635 453 682 562T807 757T987 892T1200 941Q1285 941 1340 908T1425 817T1459 687Q1461 672 1468 661T1488 648Q1502 648 1511 640T1520 615Q1520 598 1506 585T1460 562Q1412 548 1344 529T1197 490T1044
449T907 412T808 386T771 376L761 447Q761 447 796 456T890 480T1014 514T1145 550T1255 583L1229 548Q1238 578 1242 614T1248 698Q1248 771 1223 813T1153 856Q1110 856 1063 821T975 723T906 580T875 410Q868 263 918 193T1070 122Q1160 122 1236 172T1360 312Q1378
336 1390 345T1416 353Q1434 353 1445 337T1447 287Q1422 200 1359 130T1199 19T972 -22Q851 -22 772 21T658 143T629 332ZM215 711Q234 775 290 827T436 911T642 943Q747 943 811 898T896 772T891 581L669 529L706 662Q725 730 716 776T680 847T616 871Q560 871
515 837T454 744L440 696Q424 645 384 616T281 587Q236 588 216 620T215 711ZM44 194Q63 271 139 332T354 439T691 519L704 455Q576 433 495 403T369 332T311 240Q295 179 322 140T404 100Q456 100 505 121T601 182T691 281L701 222Q642 145 567 90T411 5T251 -24Q174
-24 123 4T50 82T44 194Z" />
<glyph unicode="&#xe7;" horiz-adv-x="935" d="M610 852Q549 852 490 804T386 671T325 474Q300 298 349 211T500 124Q548 124 594 144T678 202T741 296Q760 322 773 334T803 347Q821 346 830 329T831 278Q821 226 788 173T701 76T570 5T397 -22Q207 -22 121 99T69
431Q87 538 136 630T260 793T433 902T644 941Q737 941 798 909T889 824T916 711Q914 642 873 605T781 567Q734 567 710 589T686 647Q686 675 694 702T704 761Q704 801 680 826T610 852ZM421 12H491L373 -141L332 -129Q350 -126 369 -125T416 -123Q508 -123 549
-164T572 -275Q553 -350 484 -395T313 -440Q228 -440 183 -408T144 -330Q148 -314 160 -305T186 -294Q199 -293 207 -298T220 -313Q227 -344 252 -358T310 -372Q393 -372 417 -274Q427 -232 411 -207T348 -182H316Q293 -182 292 -169T305 -138L421 12Z" />
<glyph unicode="&#xe8;" horiz-adv-x="995" d="M190 414Q190 414 226 427T322 462T449 507T582 555T695 597L669 564Q678 591 683 626T688 708Q688 772 662 813T590 854Q546 854 500 821T414 729T345 589T310 414Q299 268 353 194T511 120Q571 120 626 142T727
208T799 311Q816 335 829 343T857 352Q875 351 885 336T888 286Q871 207 811 137T651 22T409 -22Q286 -22 206 23T91 151T64 350Q73 470 121 577T248 766T427 894T639 941Q723 941 779 910T864 825T899 704Q901 688 908 677T929 664Q943 664 950 657T958 637Q958
620 944 606T889 578Q848 564 782 542T638 492T482 439T340 390T237 355T198 341L190 414ZM594 1287L645 1095Q649 1082 648 1070T633 1049Q621 1040 607 1040T582 1047L437 1175Q398 1204 378 1234T363 1304Q368 1339 399 1371T478 1408Q531 1415 555 1381T594
1287Z" />
<glyph unicode="&#xe9;" horiz-adv-x="995" d="M190 414Q190 414 226 427T322 462T449 507T582 555T695 597L669 564Q678 591 683 626T688 708Q688 772 662 813T590 854Q546 854 500 821T414 729T345 589T310 414Q299 268 353 194T511 120Q571 120 626 142T727
208T799 311Q816 335 829 343T857 352Q875 351 885 336T888 286Q871 207 811 137T651 22T409 -22Q286 -22 206 23T91 151T64 350Q73 470 121 577T248 766T427 894T639 941Q723 941 779 910T864 825T899 704Q901 688 908 677T929 664Q943 664 950 657T958 637Q958
620 944 606T889 578Q848 564 782 542T638 492T482 439T340 390T237 355T198 341L190 414ZM737 1287Q783 1347 826 1381T918 1408Q961 1403 975 1371T975 1304Q959 1264 924 1234T833 1175L623 1047Q608 1041 594 1041T574 1049Q565 1058 571 1070T588 1095L737
1287Z" />
<glyph unicode="&#xea;" horiz-adv-x="995" d="M190 414Q190 414 226 427T322 462T449 507T582 555T695 597L669 564Q678 591 683 626T688 708Q688 772 662 813T590 854Q546 854 500 821T414 729T345 589T310 414Q299 268 353 194T511 120Q571 120 626 142T727
208T799 311Q816 335 829 343T857 352Q875 351 885 336T888 286Q871 207 811 137T651 22T409 -22Q286 -22 206 23T91 151T64 350Q73 470 121 577T248 766T427 894T639 941Q723 941 779 910T864 825T899 704Q901 688 908 677T929 664Q943 664 950 657T958 637Q958
620 944 606T889 578Q848 564 782 542T638 492T482 439T340 390T237 355T198 341L190 414ZM683 1247H582L796 1050Q810 1038 826 1038T856 1045Q868 1053 872 1066T868 1097L738 1337Q725 1360 710 1372T669 1385Q643 1385 621 1373T573 1337L322 1097Q304 1080
300 1067T303 1045Q312 1037 328 1037T366 1050L683 1247Z" />
<glyph unicode="&#xeb;" horiz-adv-x="995" d="M190 414Q190 414 226 427T322 462T449 507T582 555T695 597L669 564Q678 591 683 626T688 708Q688 772 662 813T590 854Q546 854 500 821T414 729T345 589T310 414Q299 268 353 194T511 120Q571 120 626 142T727
208T799 311Q816 335 829 343T857 352Q875 351 885 336T888 286Q871 207 811 137T651 22T409 -22Q286 -22 206 23T91 151T64 350Q73 470 121 577T248 766T427 894T639 941Q723 941 779 910T864 825T899 704Q901 688 908 677T929 664Q943 664 950 657T958 637Q958
620 944 606T889 578Q848 564 782 542T638 492T482 439T340 390T237 355T198 341L190 414ZM381 1056Q322 1056 297 1090T285 1180Q300 1237 344 1271T447 1305Q506 1305 532 1271T542 1180Q528 1125 484 1091T381 1056ZM773 1056Q715 1056 689 1090T678 1180Q693
1236 737 1270T840 1305Q900 1305 925 1271T936 1180Q921 1125 877 1091T773 1056Z" />
<glyph unicode="&#xec;" horiz-adv-x="646" d="M390 139Q358 139 353 170T377 281L522 685Q559 774 555 831T514 917T415 946Q335 946 259 900T137 783Q122 763 122 746T136 721Q146 716 158 719T186 732Q216 761 237 774T275 787Q308 787 312 755T283 635L133
225Q101 145 104 91T143 8T246 -20Q335 -20 407 23T518 136Q531 159 531 176T519 200Q508 207 497 204T473 191Q444 162 426 151T390 139ZM441 1287L492 1095Q496 1082 495 1070T480 1049Q468 1040 454 1040T429 1047L284 1175Q245 1204 225 1234T210 1304Q215
1339 246 1371T325 1408Q378 1415 402 1381T441 1287Z" />
<glyph unicode="&#xed;" horiz-adv-x="646" d="M390 139Q358 139 353 170T377 281L522 685Q559 774 555 831T514 917T415 946Q335 946 259 900T137 783Q122 763 122 746T136 721Q146 716 158 719T186 732Q216 761 237 774T275 787Q308 787 312 755T283 635L133
225Q101 145 104 91T143 8T246 -20Q335 -20 407 23T518 136Q531 159 531 176T519 200Q508 207 497 204T473 191Q444 162 426 151T390 139ZM583 1287Q629 1347 672 1381T764 1408Q807 1403 821 1371T821 1304Q805 1264 770 1234T679 1175L469 1047Q454 1041 440
1041T420 1049Q411 1058 417 1070T434 1095L583 1287Z" />
<glyph unicode="&#xee;" horiz-adv-x="646" d="M390 139Q358 139 353 170T377 281L522 685Q559 774 555 831T514 917T415 946Q335 946 259 900T137 783Q122 763 122 746T136 721Q146 716 158 719T186 732Q216 761 237 774T275 787Q308 787 312 755T283 635L133
225Q101 145 104 91T143 8T246 -20Q335 -20 407 23T518 136Q531 159 531 176T519 200Q508 207 497 204T473 191Q444 162 426 151T390 139ZM544 1247H458L640 1050Q652 1038 666 1038T691 1045Q702 1053 705 1066T702 1097L591 1337Q580 1360 568 1372T532 1385Q510
1385 492 1373T451 1337L237 1097Q222 1080 219 1067T221 1045Q229 1037 243 1037T275 1050L544 1247Z" />
<glyph unicode="&#xef;" horiz-adv-x="646" d="M390 139Q358 139 353 170T377 281L522 685Q559 774 555 831T514 917T415 946Q335 946 259 900T137 783Q122 763 122 746T136 721Q146 716 158 719T186 732Q216 761 237 774T275 787Q308 787 312 755T283 635L133
225Q101 145 104 91T143 8T246 -20Q335 -20 407 23T518 136Q531 159 531 176T519 200Q508 207 497 204T473 191Q444 162 426 151T390 139ZM318 1056Q270 1056 250 1090T241 1180Q253 1237 288 1271T370 1305Q418 1305 438 1271T446 1180Q435 1125 400 1091T318
1056ZM631 1056Q585 1056 564 1090T555 1180Q567 1236 602 1270T685 1305Q733 1305 753 1271T762 1180Q750 1125 715 1091T631 1056Z" />
<glyph unicode="&#xf0;" horiz-adv-x="1082" d="M1010 477Q965 311 877 199T668 31T410 -23Q275 -22 188 49T75 245T93 535Q118 625 168 702T289 837T442 926T614 957Q729 955 789 888T843 689L821 683Q831 825 818 948T770 1169T682 1337T558 1439Q536 1450 530
1461T530 1486Q535 1502 553 1510T603 1513Q730 1483 828 1387T984 1149T1051 834T1010 477ZM445 69Q479 67 515 87T587 147T654 243T711 369T754 522Q779 628 771 702T727 815T635 857Q594 859 555 837T480 772T413 673T359 549T321 409Q296 303 305 228T351 112T445
69ZM1129 1385L484 1113Q465 1107 454 1111T439 1128Q433 1159 471 1174L1116 1446Q1138 1454 1149 1449T1164 1431Q1168 1417 1159 1405T1129 1385Z" />
<glyph unicode="&#xf1;" horiz-adv-x="1205" d="M143 719Q130 725 130 742T143 785Q182 856 255 898T420 941Q479 941 513 915T547 838Q547 808 535 770T501 680T451 559T391 399L382 435Q439 577 510 674T658 830T809 915T944 941Q1030 941 1067 904T1102 800T1067
641L939 276Q912 198 919 168T952 137Q968 137 985 146T1028 181Q1046 196 1057 200T1080 199Q1092 193 1092 176T1079 133Q1041 62 969 20T806 -22Q738 -22 704 7T669 93T694 228L825 603Q859 697 849 736T786 775Q748 775 699 750T598 674T499 548T415 372Q394
312 382 275T364 214T358 174Q358 147 367 127T376 80Q376 34 324 6T181 -22Q111 -22 96 28T118 180L283 642Q311 719 304 750T270 781Q255 781 238 772T194 737Q177 722 166 718T143 719ZM837 1052Q795 1052 764 1070T709 1113T662 1155T610 1174Q579 1174 556
1151T515 1079Q500 1049 470 1049Q433 1049 447 1096Q476 1207 531 1263T658 1319Q701 1319 731 1301T786 1258T833 1216T885 1197Q918 1197 940 1221T980 1293Q994 1322 1025 1322Q1061 1322 1047 1275Q1018 1165 963 1109T837 1052Z" />
<glyph unicode="&#xf2;" horiz-adv-x="1079" d="M641 942Q773 939 865 881T996 718T1009 465Q989 355 937 264T809 108T637 9T435 -22Q306 -19 215 38T85 202T72 454Q93 565 144 656T270 812T440 911T641 942ZM435 72Q475 67 513 81T587 128T653 208T708 321T749
465Q775 589 769 671T730 798T640 848Q601 852 564 838T492 792T427 712T373 598T332 454Q306 330 311 248T349 122T435 72ZM669 1287L720 1095Q724 1082 723 1070T708 1049Q696 1040 682 1040T657 1047L512 1175Q473 1204 453 1234T438 1304Q443 1339 474 1371T553
1408Q606 1415 630 1381T669 1287Z" />
<glyph unicode="&#xf3;" horiz-adv-x="1079" d="M641 942Q773 939 865 881T996 718T1009 465Q989 355 937 264T809 108T637 9T435 -22Q306 -19 215 38T85 202T72 454Q93 565 144 656T270 812T440 911T641 942ZM435 72Q475 67 513 81T587 128T653 208T708 321T749
465Q775 589 769 671T730 798T640 848Q601 852 564 838T492 792T427 712T373 598T332 454Q306 330 311 248T349 122T435 72ZM812 1287Q858 1347 901 1381T993 1408Q1036 1403 1050 1371T1050 1304Q1034 1264 999 1234T908 1175L698 1047Q683 1041 669 1041T649
1049Q640 1058 646 1070T663 1095L812 1287Z" />
<glyph unicode="&#xf4;" horiz-adv-x="1079" d="M641 942Q773 939 865 881T996 718T1009 465Q989 355 937 264T809 108T637 9T435 -22Q306 -19 215 38T85 202T72 454Q93 565 144 656T270 812T440 911T641 942ZM435 72Q475 67 513 81T587 128T653 208T708 321T749
465Q775 589 769 671T730 798T640 848Q601 852 564 838T492 792T427 712T373 598T332 454Q306 330 311 248T349 122T435 72ZM752 1247H651L865 1050Q879 1038 895 1038T925 1045Q937 1053 941 1066T937 1097L807 1337Q794 1360 779 1372T738 1385Q712 1385 690
1373T642 1337L391 1097Q373 1080 369 1067T372 1045Q381 1037 397 1037T435 1050L752 1247Z" />
<glyph unicode="&#xf5;" horiz-adv-x="1079" d="M641 942Q773 939 865 881T996 718T1009 465Q989 355 937 264T809 108T637 9T435 -22Q306 -19 215 38T85 202T72 454Q93 565 144 656T270 812T440 911T641 942ZM435 72Q475 67 513 81T587 128T653 208T708 321T749
465Q775 589 769 671T730 798T640 848Q601 852 564 838T492 792T427 712T373 598T332 454Q306 330 311 248T349 122T435 72ZM773 1052Q731 1052 700 1070T645 1113T598 1155T546 1174Q515 1174 492 1151T451 1079Q436 1049 406 1049Q369 1049 383 1096Q412 1207
467 1263T594 1319Q637 1319 667 1301T722 1258T769 1216T821 1197Q854 1197 876 1221T916 1293Q930 1322 961 1322Q997 1322 983 1275Q954 1165 899 1109T773 1052Z" />
<glyph unicode="&#xf6;" horiz-adv-x="1079" d="M641 942Q773 939 865 881T996 718T1009 465Q989 355 937 264T809 108T637 9T435 -22Q306 -19 215 38T85 202T72 454Q93 565 144 656T270 812T440 911T641 942ZM435 72Q475 67 513 81T587 128T653 208T708 321T749
465Q775 589 769 671T730 798T640 848Q601 852 564 838T492 792T427 712T373 598T332 454Q306 330 311 248T349 122T435 72ZM456 1056Q397 1056 372 1090T360 1180Q375 1237 419 1271T522 1305Q581 1305 607 1271T617 1180Q603 1125 559 1091T456 1056ZM848 1056Q790
1056 764 1090T753 1180Q768 1236 812 1270T915 1305Q975 1305 1000 1271T1011 1180Q996 1125 952 1091T848 1056Z" />
<glyph unicode="&#xf7;" horiz-adv-x="1107" d="M671 981Q630 981 609 1000T590 1049Q592 1072 607 1092T650 1124T714 1136Q755 1136 774 1116T791 1065Q789 1043 774 1024T732 993T671 981ZM439 682Q446 706 466 719T510 732H1265Q1287 732 1298 719T1303 682Q1296
658 1274 645T1227 632H484Q458 632 445 645T439 682ZM478 217Q437 217 416 236T397 285Q399 308 414 328T457 360T521 372Q562 372 581 352T598 301Q596 279 581 260T539 229T478 217Z" />
<glyph unicode="&#xf8;" horiz-adv-x="1079" d="M49 -85Q37 -79 37 -67T49 -42L259 195L280 210L789 786L804 811L977 1006Q989 1020 1003 1024T1029 1022Q1041 1015 1041 1004T1030 979L830 756L812 743L310 172L295 148L100 -71Q88 -85 75 -88T49 -85ZM641 942Q773
939 865 881T996 718T1009 465Q989 355 937 264T809 108T637 9T435 -22Q306 -19 215 38T85 202T72 454Q93 565 144 656T270 812T440 911T641 942ZM435 72Q475 67 513 81T587 128T653 208T708 321T749 465Q775 589 769 671T730 798T640 848Q601 852 564 838T492
792T427 712T373 598T332 454Q306 330 311 248T349 122T435 72Z" />
<glyph unicode="&#xf9;" horiz-adv-x="1200" d="M1067 199Q1079 193 1079 176T1066 133Q1028 62 955 20T790 -22Q730 -22 697 3T663 80Q663 110 675 148T709 239T759 360T819 520L828 484Q771 341 700 244T552 88T401 4T265 -22Q180 -22 143 14T107 118T142 277L270
643Q298 720 291 750T257 781Q242 781 225 772T181 738Q164 722 153 718T130 719Q117 726 117 743T130 786Q168 856 240 898T404 941Q472 941 506 911T542 825T515 690L385 315Q351 221 361 182T423 143Q462 143 511 168T612 244T711 370T794 547Q816 606 828 644T846
705T851 745Q851 772 843 791T834 838Q834 885 886 913T1029 941Q1099 941 1114 891T1092 738L926 276Q899 199 906 168T939 137Q955 137 972 147T1015 181Q1033 197 1044 201T1067 199ZM712 1287L763 1095Q767 1082 766 1070T751 1049Q739 1040 725 1040T700 1047L555
1175Q516 1204 496 1234T481 1304Q486 1339 517 1371T596 1408Q649 1415 673 1381T712 1287Z" />
<glyph unicode="&#xfa;" horiz-adv-x="1200" d="M1067 199Q1079 193 1079 176T1066 133Q1028 62 955 20T790 -22Q730 -22 697 3T663 80Q663 110 675 148T709 239T759 360T819 520L828 484Q771 341 700 244T552 88T401 4T265 -22Q180 -22 143 14T107 118T142 277L270
643Q298 720 291 750T257 781Q242 781 225 772T181 738Q164 722 153 718T130 719Q117 726 117 743T130 786Q168 856 240 898T404 941Q472 941 506 911T542 825T515 690L385 315Q351 221 361 182T423 143Q462 143 511 168T612 244T711 370T794 547Q816 606 828 644T846
705T851 745Q851 772 843 791T834 838Q834 885 886 913T1029 941Q1099 941 1114 891T1092 738L926 276Q899 199 906 168T939 137Q955 137 972 147T1015 181Q1033 197 1044 201T1067 199ZM854 1287Q900 1347 943 1381T1035 1408Q1078 1403 1092 1371T1092 1304Q1076
1264 1041 1234T950 1175L740 1047Q725 1041 711 1041T691 1049Q682 1058 688 1070T705 1095L854 1287Z" />
<glyph unicode="&#xfb;" horiz-adv-x="1200" d="M1067 199Q1079 193 1079 176T1066 133Q1028 62 955 20T790 -22Q730 -22 697 3T663 80Q663 110 675 148T709 239T759 360T819 520L828 484Q771 341 700 244T552 88T401 4T265 -22Q180 -22 143 14T107 118T142 277L270
643Q298 720 291 750T257 781Q242 781 225 772T181 738Q164 722 153 718T130 719Q117 726 117 743T130 786Q168 856 240 898T404 941Q472 941 506 911T542 825T515 690L385 315Q351 221 361 182T423 143Q462 143 511 168T612 244T711 370T794 547Q816 606 828 644T846
705T851 745Q851 772 843 791T834 838Q834 885 886 913T1029 941Q1099 941 1114 891T1092 738L926 276Q899 199 906 168T939 137Q955 137 972 147T1015 181Q1033 197 1044 201T1067 199ZM795 1247H694L908 1050Q922 1038 938 1038T968 1045Q980 1053 984 1066T980
1097L850 1337Q837 1360 822 1372T781 1385Q755 1385 733 1373T685 1337L434 1097Q416 1080 412 1067T415 1045Q424 1037 440 1037T478 1050L795 1247Z" />
<glyph unicode="&#xfc;" horiz-adv-x="1200" d="M1067 199Q1079 193 1079 176T1066 133Q1028 62 955 20T790 -22Q730 -22 697 3T663 80Q663 110 675 148T709 239T759 360T819 520L828 484Q771 341 700 244T552 88T401 4T265 -22Q180 -22 143 14T107 118T142 277L270
643Q298 720 291 750T257 781Q242 781 225 772T181 738Q164 722 153 718T130 719Q117 726 117 743T130 786Q168 856 240 898T404 941Q472 941 506 911T542 825T515 690L385 315Q351 221 361 182T423 143Q462 143 511 168T612 244T711 370T794 547Q816 606 828 644T846
705T851 745Q851 772 843 791T834 838Q834 885 886 913T1029 941Q1099 941 1114 891T1092 738L926 276Q899 199 906 168T939 137Q955 137 972 147T1015 181Q1033 197 1044 201T1067 199ZM498 1056Q439 1056 414 1090T402 1180Q417 1237 461 1271T564 1305Q623 1305
649 1271T659 1180Q645 1125 601 1091T498 1056ZM890 1056Q832 1056 806 1090T795 1180Q810 1236 854 1270T957 1305Q1017 1305 1042 1271T1053 1180Q1038 1125 994 1091T890 1056Z" />
<glyph unicode="&#xfd;" horiz-adv-x="1044" d="M676 564Q751 764 830 854T1002 945Q1052 945 1079 916T1107 837Q1107 778 1072 739T973 674Q933 662 899 643T833 590T770 501T704 359L537 -53Q476 -216 397 -313T220 -452T1 -495Q-108 -495 -165 -452T-223 -339Q-223
-291 -193 -257T-114 -223Q-80 -223 -57 -239T-16 -280T19 -329T59 -371T115 -388Q155 -388 190 -368T252 -311T294 -225T310 -115Q311 -74 309 -14T303 120T294 271T282 427T269 571T255 691Q251 739 238 761T203 783Q188 783 173 774T139 738Q127 723 118 719T97
717Q87 720 81 734T84 774Q101 823 136 861T221 920T328 942Q392 942 431 899T479 766Q483 724 486 653T492 492T497 308T501 124T502 -38L469 -17L676 564ZM806 1287Q852 1347 895 1381T987 1408Q1030 1403 1044 1371T1044 1304Q1028 1264 993 1234T902 1175L692
1047Q677 1041 663 1041T643 1049Q634 1058 640 1070T657 1095L806 1287Z" />
<glyph unicode="&#xfe;" horiz-adv-x="1103" d="M540 1483Q630 1483 660 1429T655 1252L215 -293Q206 -326 208 -352T252 -385L318 -397Q344 -402 353 -412T363 -437Q363 -457 347 -470T302 -483L-119 -491Q-138 -492 -152 -482T-167 -452Q-167 -438 -156 -425T-118
-399Q-87 -391 -69 -381T-41 -354T-24 -312L404 1174Q423 1234 427 1266T422 1310T392 1322Q373 1322 354 1312T306 1275Q291 1266 279 1263T255 1264Q244 1271 243 1288T256 1326Q285 1371 331 1406T431 1462T540 1483ZM175 676Q156 661 136 660T103 669Q88 682
95 702T126 743Q195 814 277 861T456 932T659 952Q790 948 879 890T1006 726T1025 467Q1005 315 931 205T747 35T511 -20Q401 -17 333 30T239 156L309 184Q332 136 370 110T462 80Q535 76 601 120T716 256T788 491Q806 611 790 693T729 819T623 869Q515 879 403
832T175 676Z" />
<glyph unicode="&#xff;" horiz-adv-x="1044" d="M676 564Q751 764 830 854T1002 945Q1052 945 1079 916T1107 837Q1107 778 1072 739T973 674Q933 662 899 643T833 590T770 501T704 359L537 -53Q476 -216 397 -313T220 -452T1 -495Q-108 -495 -165 -452T-223 -339Q-223
-291 -193 -257T-114 -223Q-80 -223 -57 -239T-16 -280T19 -329T59 -371T115 -388Q155 -388 190 -368T252 -311T294 -225T310 -115Q311 -74 309 -14T303 120T294 271T282 427T269 571T255 691Q251 739 238 761T203 783Q188 783 173 774T139 738Q127 723 118 719T97
717Q87 720 81 734T84 774Q101 823 136 861T221 920T328 942Q392 942 431 899T479 766Q483 724 486 653T492 492T497 308T501 124T502 -38L469 -17L676 564ZM450 1056Q391 1056 366 1090T354 1180Q369 1237 413 1271T516 1305Q575 1305 601 1271T611 1180Q597 1125
553 1091T450 1056ZM842 1056Q784 1056 758 1090T747 1180Q762 1236 806 1270T909 1305Q969 1305 994 1271T1005 1180Q990 1125 946 1091T842 1056Z" />
<glyph unicode="&#x2013;" horiz-adv-x="1045" d="M60 529Q67 557 82 571T121 586H965Q989 586 996 571T996 529Q990 503 975 488T936 472H91Q67 472 61 487T60 529Z" />
<glyph unicode="&#x2014;" horiz-adv-x="1650" d="M60 529Q67 557 82 571T121 586H1570Q1594 586 1601 571T1601 529Q1595 503 1580 488T1540 472H91Q67 472 61 487T60 529Z" />
<glyph unicode="&#x2018;" horiz-adv-x="442" d="M422 1191Q494 1191 522 1157T535 1065Q523 1023 494 990T424 939T340 921Q264 921 231 976T226 1137Q250 1229 301 1304T423 1432T577 1506Q609 1514 623 1509T639 1488Q641 1473 628 1459T586 1436Q526 1415
480 1381T405 1306T366 1229Q361 1211 367 1201T394 1191H422Z" />
<glyph unicode="&#x2019;" horiz-adv-x="432" d="M422 1246Q351 1246 323 1280T309 1372Q321 1415 350 1447T420 1498T504 1516Q580 1516 614 1461T619 1300Q595 1208 544 1133T422 1005T267 931Q235 923 221 928T205 949Q203 964 216 978T258 1001Q318 1022 364
1056T439 1131T478 1208Q484 1226 478 1236T451 1246H422Z" />
<glyph unicode="&#x201a;" horiz-adv-x="489" d="M154 1Q82 1 54 36T41 129Q53 172 82 204T152 254T236 273Q312 273 346 218T351 55Q326 -37 275 -112T153 -238T-1 -313Q-33 -321 -48 -316T-64 -294Q-65 -280 -52 -266T-10 -242Q50 -221 96 -187T171 -113T210
-36Q215 -18 209 -9T183 1H154Z" />
<glyph unicode="&#x201c;" horiz-adv-x="866" d="M840 1191Q912 1191 940 1157T953 1065Q941 1023 912 991T842 940T758 921Q682 921 649 976T644 1138Q668 1230 719 1305T841 1432T995 1506Q1027 1514 1042 1509T1058 1488Q1059 1473 1046 1459T1004 1436Q944
1416 898 1382T823 1307T784 1229Q779 1211 785 1201T812 1191H840ZM418 1191Q489 1191 517 1157T530 1065Q519 1023 490 991T420 940T335 921Q259 921 226 976T221 1138Q245 1230 296 1305T418 1432T573 1506Q604 1514 619 1509T635 1488Q636 1473 623 1459T582
1436Q521 1416 475 1382T400 1307T361 1229Q356 1211 362 1201T389 1191H418Z" />
<glyph unicode="&#x201d;" horiz-adv-x="855" d="M407 1246Q336 1246 308 1280T294 1372Q306 1415 335 1447T405 1497T489 1516Q565 1516 599 1461T604 1299Q580 1207 529 1132T407 1005T252 931Q220 923 206 928T190 949Q188 964 201 978T243 1001Q304 1022 349
1056T425 1131T463 1208Q469 1226 463 1236T436 1246H407ZM830 1246Q759 1246 731 1280T717 1372Q728 1415 757 1447T827 1497T912 1516Q988 1516 1022 1461T1027 1299Q1003 1207 952 1132T830 1005T675 931Q643 923 629 928T613 949Q611 964 624 978T666 1001Q726
1022 772 1056T847 1131T886 1208Q892 1226 886 1236T858 1246H830Z" />
<glyph unicode="&#x201e;" horiz-adv-x="903" d="M153 -1Q81 -1 53 33T40 126Q52 169 81 201T151 251T235 270Q311 270 345 215T349 52Q325 -40 274 -115T152 -241T-3 -316Q-34 -324 -49 -319T-65 -297Q-66 -283 -53 -269T-11 -245Q49 -224 94 -190T169 -116T208
-39Q214 -21 208 -11T181 -1H153ZM568 -1Q496 -1 468 34T455 126Q466 169 496 201T566 252T650 270Q726 270 760 215T764 53Q740 -39 689 -114T567 -241T412 -315Q381 -323 366 -318T350 -297Q349 -282 362 -268T404 -245Q464 -224 509 -190T584 -116T623 -39Q629
-21 623 -11T596 -1H568Z" />
<glyph unicode="&#x2022;" horiz-adv-x="747" d="M329 294Q227 294 174 347T127 480Q133 543 172 597T279 683T436 715Q539 715 588 661T629 523Q625 462 586 410T481 326T329 294Z" />
<glyph unicode="&#x2039;" horiz-adv-x="682" d="M117 511Q124 531 143 547T207 589Q305 646 379 692T509 776T610 848Q630 860 648 863T675 858Q685 847 680 833T659 801Q630 769 594 733T514 654T416 564T301 461L310 521Q356 446 388 382T443 265T483 167Q489
152 488 138T473 116Q460 108 447 111T422 129Q394 169 358 214T274 313T158 427Q129 454 121 472T117 511Z" />
<glyph unicode="&#x203a;" horiz-adv-x="692" d="M606 471Q599 451 580 435T516 393Q418 336 344 290T214 206T113 134Q93 122 75 119T48 124Q38 135 43 149T64 181Q93 213 129 249T209 328T307 418T422 521L413 461Q367 536 335 600T280 717T240 815Q234 830
235 844T250 866Q263 874 276 871T301 853Q329 813 365 768T449 669T565 555Q594 528 602 510T606 471Z" />
</font>
</defs>
</svg>
